<?xml version="1.0" encoding="utf-8" standalone="no"?>
<!DOCTYPE svg PUBLIC "-//W3C//DTD SVG 1.1//EN"
  "http://www.w3.org/Graphics/SVG/1.1/DTD/svg11.dtd">
<svg xmlns:xlink="http://www.w3.org/1999/xlink" width="10044pt" height="221.76pt" viewBox="0 0 10044 221.76" xmlns="http://www.w3.org/2000/svg" version="1.1">
 <metadata>
  <rdf:RDF xmlns:dc="http://purl.org/dc/elements/1.1/" xmlns:cc="http://creativecommons.org/ns#" xmlns:rdf="http://www.w3.org/1999/02/22-rdf-syntax-ns#">
   <cc:Work>
    <dc:type rdf:resource="http://purl.org/dc/dcmitype/StillImage"/>
    <dc:date>2025-08-12T08:23:40.367342</dc:date>
    <dc:format>image/svg+xml</dc:format>
    <dc:creator>
     <cc:Agent>
      <dc:title>Matplotlib v3.9.2, https://matplotlib.org/</dc:title>
     </cc:Agent>
    </dc:creator>
   </cc:Work>
  </rdf:RDF>
 </metadata>
 <defs>
  <style type="text/css">*{stroke-linejoin: round; stroke-linecap: butt}</style>
 </defs>
 <g id="figure_1">
  <g id="patch_1">
   <path d="M 0 221.76 
L 10044 221.76 
L 10044 0 
L 0 0 
z
" style="fill: #ffffff"/>
  </g>
  <g id="axes_1">
   <g id="line2d_1">
    <path d="M 456.545455 30.915045 
L 460.130421 76.423505 
L 463.715387 94.317915 
L 467.300353 75.801752 
L 470.88532 77.803414 
L 474.470286 92.328943 
L 478.055252 40.5871 
L 481.640218 121.338761 
L 485.225185 118.997674 
L 488.810151 57.02864 
L 492.395117 98.061118 
L 495.980084 114.502659 
L 499.56505 49.190121 
L 503.150016 69.641329 
L 506.734982 50.823807 
L 510.319949 118.448882 
L 513.904915 99.107946 
L 517.489881 127.242236 
L 521.074847 123.971692 
L 524.659814 104.599033 
L 528.24478 138.138761 
L 531.829746 118.664592 
L 535.414712 79.960514 
L 538.999679 81.051752 
L 542.584645 86.54284 
L 546.169611 82.279396 
L 549.754578 85.902054 
L 553.339544 98.444955 
L 556.92451 140.09284 
L 560.509476 99.577432 
L 564.094443 149.108248 
L 567.679409 133.500997 
L 571.264375 114.496314 
L 574.849341 149.444502 
L 578.434308 89.442236 
L 582.019274 53.482115 
L 585.60424 110.864139 
L 589.189207 107.533323 
L 592.774173 131.115498 
L 596.359139 102.816254 
L 599.944105 86.625317 
L 603.529072 124.628338 
L 607.114038 150.513535 
L 610.699004 124.044653 
L 614.28397 117.763686 
L 617.868937 80.21429 
L 621.453903 70.177432 
L 625.038869 93.16006 
L 628.623836 57.869275 
L 632.208802 129.992538 
L 635.793768 96.659003 
L 639.378734 102.23574 
L 642.963701 67.69994 
L 646.548667 131.991027 
L 650.133633 97.147523 
L 653.718599 100.215045 
L 657.303566 132.552508 
L 660.888532 88.382719 
L 664.473498 121.922447 
L 668.058465 87.158248 
L 671.643431 73.704924 
L 675.228397 84.522145 
L 678.813363 134.436798 
L 682.39833 62.548278 
L 685.983296 161.774864 
L 689.568262 118.055529 
L 693.153228 88.379547 
L 696.738195 147.71565 
L 700.323161 100.887553 
L 703.908127 130.64284 
L 707.493093 142.354622 
L 711.07806 135.179094 
L 714.663026 81.153263 
L 718.247992 86.967915 
L 721.832959 138.157795 
L 725.417925 147.747372 
L 729.002891 138.119728 
L 732.587857 172.049637 
L 736.172824 154.031511 
L 739.75779 170.444502 
L 743.342756 188.697372 
L 746.927722 183.637704 
L 750.512689 159.576526 
L 754.097655 142.919275 
L 757.682621 154.900695 
L 761.267588 160.873958 
L 764.852554 158.13 
L 768.43752 128.879094 
L 772.022486 143.575921 
L 775.607453 166.15568 
L 779.192419 162.996163 
L 782.777385 180.906435 
L 786.362351 152.083776 
L 789.947318 89.055227 
L 793.532284 138.42426 
L 797.11725 140.470332 
L 800.702217 119.260967 
L 804.287183 85.718066 
L 807.872149 199.438459 
L 811.457115 163.529094 
L 815.042082 143.27139 
L 818.627048 130.011571 
L 822.212014 138.436949 
L 825.79698 142.38 
L 829.381947 126.147825 
L 832.966913 138.865196 
L 836.551879 132.267009 
L 840.136845 84.97577 
L 843.721812 130.541329 
L 847.306778 129.583323 
L 850.891744 143.756737 
L 854.476711 160.66142 
L 858.061677 203.070634 
L 861.646643 171.827583 
L 865.231609 192.424713 
L 868.816576 175.824562 
L 872.401542 138.148278 
L 875.986508 84.839366 
L 879.571474 116.237855 
L 883.156441 71.84284 
L 886.741407 132.000544 
L 890.326373 125.056586 
L 893.91134 159.376677 
L 897.496306 147.182719 
L 901.081272 133.450242 
L 904.666238 142.751148 
L 908.251205 141.764592 
L 911.836171 156.121994 
L 915.421137 129.272447 
L 919.006103 93.930906 
L 922.59107 81.600544 
L 926.176036 90.403414 
L 929.761002 67.389063 
L 933.345969 74.386949 
L 936.930935 107.190725 
L 940.515901 108.726073 
L 944.100867 120.812175 
L 947.685834 115.825468 
L 951.2708 167.748127 
L 954.855766 129.948127 
L 958.440732 132.460514 
L 962.025699 102.384834 
L 965.610665 103.821843 
L 969.195631 93.014139 
L 972.780597 81.213535 
L 976.365564 48.12426 
L 979.95053 51.70568 
L 983.535496 119.911269 
L 987.120463 116.437704 
L 990.705429 175.158399 
L 994.290395 133.326526 
L 997.875361 133.926073 
L 1001.460328 145.219124 
L 1005.045294 84.649033 
L 1008.63026 78.475921 
L 1012.215226 54.218066 
L 1015.800193 38.737704 
L 1019.385159 78.533021 
L 1022.970125 88.138459 
L 1026.555092 77.318066 
L 1030.140058 104.240574 
L 1033.725024 72.33136 
L 1037.30999 118.57577 
L 1040.894957 108.941782 
L 1044.479923 154.748429 
L 1048.064889 112.472447 
L 1051.649855 113.313082 
L 1055.234822 78.003263 
L 1058.819788 95.415498 
L 1062.404754 81.657644 
L 1065.989721 85.105831 
L 1069.574687 80.033474 
L 1073.159653 91.209154 
L 1076.744619 121.256284 
L 1080.329586 94.476526 
L 1083.914552 111.999789 
L 1087.499518 95.989668 
L 1091.084484 79.16429 
L 1094.669451 83.6371 
L 1098.254417 96.008701 
L 1101.839383 119.806586 
L 1105.42435 81.146918 
L 1109.009316 58.35145 
L 1112.594282 69.238459 
L 1116.179248 113.300393 
L 1119.764215 111.146465 
L 1123.349181 130.046465 
L 1126.934147 118.747069 
L 1130.519113 119.708248 
L 1134.10408 84.373051 
L 1137.689046 113.906284 
L 1141.274012 113.328943 
L 1144.858978 83.894048 
L 1148.443945 94.552659 
L 1152.028911 92.341631 
L 1155.613877 106.879849 
L 1159.198844 108.170937 
L 1162.78381 104.30719 
L 1166.368776 89.423202 
L 1169.953742 114.283776 
L 1173.538709 136.406737 
L 1177.123675 120.257039 
L 1180.708641 84.785438 
L 1184.293607 60.213535 
L 1187.878574 54.059456 
L 1191.46354 82.219124 
L 1195.048506 113.81429 
L 1198.633473 128.952054 
L 1202.218439 139.683625 
L 1205.803405 126.883776 
L 1209.388371 77.045257 
L 1212.973338 84.702961 
L 1216.558304 51.953112 
L 1220.14327 87.846616 
L 1223.728236 125.748127 
L 1227.313203 131.53423 
L 1230.898169 106.616556 
L 1234.483135 95.976979 
L 1238.068102 113.516103 
L 1241.653068 112.786495 
L 1245.238034 105.001903 
L 1248.823 166.222296 
L 1252.407967 127.841782 
L 1255.992933 144.26429 
L 1259.577899 124.612477 
L 1263.162865 77.597221 
L 1266.747832 107.114592 
L 1270.332798 97.93423 
L 1273.917764 113.401903 
L 1277.50273 88.925166 
L 1281.087697 121.684532 
L 1284.672663 99.158701 
L 1288.257629 113.557341 
L 1291.842596 142.208701 
L 1295.427562 119.444955 
L 1299.012528 130.328792 
L 1302.597494 145.488761 
L 1306.182461 123.058097 
L 1309.767427 72.417009 
L 1313.352393 96.804924 
L 1316.937359 108.424713 
L 1320.522326 134.506586 
L 1324.107292 134.633474 
L 1327.692258 107.070181 
L 1331.277225 158.079245 
L 1334.862191 104.500695 
L 1338.447157 144.702054 
L 1342.032123 122.607644 
L 1345.61709 139.975468 
L 1349.202056 97.033323 
L 1352.787022 125.944804 
L 1356.371988 89.182115 
L 1359.956955 134.379698 
L 1363.541921 113.868218 
L 1367.126887 116.697825 
L 1370.711854 147.354018 
L 1374.29682 110.296314 
L 1377.881786 163.427583 
L 1381.466752 89.153565 
L 1385.051719 124.031964 
L 1388.636685 91.558097 
L 1392.221651 50.582719 
L 1395.806617 73.225921 
L 1399.391584 81.562477 
L 1402.97655 72.340876 
L 1406.561516 107.171692 
L 1410.146482 82.786949 
L 1413.731449 106.470634 
L 1417.316415 83.294502 
L 1420.901381 94.276677 
L 1424.486348 87.760967 
L 1428.071314 108.900544 
L 1431.65628 60.229396 
L 1435.241246 40.146163 
L 1438.826213 79.805076 
L 1442.411179 64.626073 
L 1445.996145 53.754924 
L 1449.581111 99.149184 
L 1453.166078 47.905378 
L 1456.751044 87.640423 
L 1460.33601 72.318671 
L 1463.920977 117.627281 
L 1467.505943 78.034985 
L 1471.090909 120.168218 
L 1474.675875 79.012024 
L 1478.260842 94.225921 
L 1481.845808 92.335287 
L 1485.430774 125.545106 
L 1489.01574 105.062175 
L 1492.600707 79.167462 
L 1496.185673 77.58136 
L 1499.770639 149.615801 
L 1503.355606 148.572145 
L 1506.940572 114.67713 
L 1510.525538 98.673353 
L 1514.110504 145.333323 
L 1517.695471 103.377734 
L 1521.280437 93.746918 
L 1524.865403 130.189215 
L 1528.450369 114.721541 
L 1532.035336 90.200393 
L 1535.620302 108.370785 
L 1539.205268 122.820181 
L 1542.790235 115.958701 
L 1546.375201 86.726828 
L 1549.960167 110.524713 
L 1553.545133 128.450846 
L 1557.1301 163.012024 
L 1560.715066 130.674562 
L 1564.300032 132.879245 
L 1567.884998 86.095559 
L 1571.469965 101.851903 
L 1575.054931 166.520483 
L 1578.639897 117.766858 
L 1582.224863 116.21565 
L 1585.80983 121.38 
L 1589.394796 144.115196 
L 1592.979762 138.820785 
L 1596.564729 134.122749 
L 1600.149695 130.449335 
L 1603.734661 125.729094 
L 1607.319627 158.43136 
L 1610.904594 129.688006 
L 1614.48956 119.609909 
L 1618.074526 107.070181 
L 1621.659492 115.406737 
L 1625.244459 105.649033 
L 1628.829425 113.471692 
L 1632.414391 144.559305 
L 1635.999358 125.418218 
L 1639.584324 114.118822 
L 1643.16929 93.363082 
L 1650.339223 125.624411 
L 1653.924189 146.989215 
L 1657.509155 76.550393 
L 1661.094121 115.533625 
L 1664.679088 132.200393 
L 1668.264054 125.009003 
L 1671.84902 105.696616 
L 1675.433987 134.027583 
L 1679.018953 141.663082 
L 1682.603919 110.66429 
L 1686.188885 128.244653 
L 1689.773852 135.442387 
L 1693.358818 91.006133 
L 1696.943784 93.915045 
L 1700.52875 103.387251 
L 1704.113717 87.174109 
L 1707.698683 95.40281 
L 1711.283649 110.331208 
L 1714.868615 134.665196 
L 1718.453582 126.93136 
L 1722.038548 154.215498 
L 1725.623514 127.270785 
L 1729.208481 112.094955 
L 1732.793447 89.623051 
L 1736.378413 101.420483 
L 1739.963379 142.627432 
L 1743.548346 134.696918 
L 1747.133312 94.076828 
L 1750.718278 125.592689 
L 1754.303244 125.310363 
L 1757.888211 150.297825 
L 1761.473177 141.81852 
L 1765.058143 147.306435 
L 1768.64311 151.868066 
L 1772.228076 117.379849 
L 1775.813042 126.38574 
L 1779.398008 141.180906 
L 1782.982975 133.285287 
L 1786.567941 139.953263 
L 1790.152907 149.225619 
L 1793.737873 166.780604 
L 1797.32284 140.917613 
L 1800.907806 110.445408 
L 1804.492772 115.774713 
L 1808.077739 153.44148 
L 1811.662705 146.342085 
L 1815.247671 146.529245 
L 1818.832637 118.452054 
L 1822.417604 124.844048 
L 1826.00257 59.563233 
L 1829.587536 90.216254 
L 1833.172502 134.985589 
L 1836.757469 153.263837 
L 1840.342435 126.782266 
L 1843.927401 131.816556 
L 1847.512367 110.711873 
L 1851.097334 130.776073 
L 1854.6823 127.917915 
L 1858.267266 170.844199 
L 1861.852233 130.198731 
L 1865.437199 140.188006 
L 1869.022165 161.000846 
L 1872.607131 99.390272 
L 1876.192098 135.943595 
L 1879.777064 103.628338 
L 1883.36203 137.558248 
L 1886.946996 177.962628 
L 1890.531963 136.501903 
L 1894.116929 152.765801 
L 1897.701895 182.454471 
L 1901.286862 154.612024 
L 1904.871828 111.171843 
L 1908.456794 118.318822 
L 1912.04176 115.099033 
L 1919.211693 123.641782 
L 1922.796659 123.867009 
L 1926.381625 159.509909 
L 1929.966592 124.079547 
L 1933.551558 108.93861 
L 1937.136524 94.876224 
L 1940.721491 117.592387 
L 1944.306457 108.012326 
L 1947.891423 100.935136 
L 1951.476389 82.15568 
L 1955.061356 76.452054 
L 1958.646322 46.417613 
L 1962.231288 109.588912 
L 1965.816254 164.947069 
L 1969.401221 165.324562 
L 1972.986187 170.454018 
L 1976.571153 152.686495 
L 1980.156119 117.998429 
L 1983.741086 81.88287 
L 1987.326052 133.567613 
L 1990.911018 135.340876 
L 1994.495985 128.289063 
L 1998.080951 144.96852 
L 2001.665917 148.762477 
L 2005.250883 100.947825 
L 2008.83585 104.786193 
L 2012.420816 114.318671 
L 2016.005782 139.068218 
L 2019.590748 146.180302 
L 2023.175715 132.31142 
L 2026.760681 108.209003 
L 2030.345647 112.209154 
L 2033.930614 65.238308 
L 2037.51558 141.736042 
L 2041.100546 99.954924 
L 2044.685512 117.95719 
L 2048.270479 75.652659 
L 2051.855445 107.552356 
L 2055.440411 131.911722 
L 2059.025377 116.61852 
L 2062.610344 72.721541 
L 2066.19531 160.84858 
L 2069.780276 127.283474 
L 2073.365243 111.384381 
L 2076.950209 124.656888 
L 2080.535175 91.513686 
L 2084.120141 71.490725 
L 2087.705108 60.765498 
L 2091.290074 81.251601 
L 2094.87504 126.636344 
L 2098.460006 88.481057 
L 2102.044973 103.834532 
L 2105.629939 74.126828 
L 2109.214905 93.502659 
L 2112.799872 85.664139 
L 2116.384838 97.195106 
L 2119.969804 173.899033 
L 2123.55477 111.758701 
L 2127.139737 144.870181 
L 2130.724703 84.06852 
L 2134.309669 67.820483 
L 2137.894635 121.627432 
L 2141.479602 103.120785 
L 2145.064568 165.997069 
L 2148.649534 109.271692 
L 2152.2345 129.243897 
L 2155.819467 124.044653 
L 2159.404433 117.551148 
L 2162.989399 118.030151 
L 2166.574366 139.093595 
L 2170.159332 120.831208 
L 2173.744298 121.919275 
L 2177.329264 135.664441 
L 2180.914231 152.416858 
L 2184.499197 94.584381 
L 2188.084163 103.142991 
L 2191.669129 93.540725 
L 2195.254096 105.395257 
L 2198.839062 97.131662 
L 2202.424028 152.927583 
L 2206.008995 113.208399 
L 2209.593961 92.500242 
L 2213.178927 99.257039 
L 2216.763893 134.744502 
L 2220.34886 123.127885 
L 2223.933826 157.400393 
L 2227.518792 138.186344 
L 2231.103758 146.700544 
L 2234.688725 115.248127 
L 2238.273691 96.881057 
L 2241.858657 52.806435 
L 2245.443624 52.88574 
L 2249.02859 127.975015 
L 2252.613556 94.958701 
L 2256.198522 143.131813 
L 2259.783489 122.24284 
L 2263.368455 140.95568 
L 2266.953421 105.560211 
L 2270.538387 138.376677 
L 2274.123354 99.513988 
L 2277.70832 104.361118 
L 2284.878252 132.581057 
L 2288.463219 111.016405 
L 2292.048185 125.878187 
L 2295.633151 124.311118 
L 2299.218118 128.717311 
L 2302.803084 137.659758 
L 2306.38805 183.875619 
L 2309.973016 180.417915 
L 2313.557983 143.874109 
L 2317.142949 127.102659 
L 2320.727915 94.869879 
L 2324.312881 88.98861 
L 2327.897848 90.77139 
L 2331.482814 121.024713 
L 2335.06778 145.555378 
L 2338.652747 120.310967 
L 2342.237713 150.805378 
L 2345.822679 107.634834 
L 2349.407645 142.722598 
L 2352.992612 162.980302 
L 2356.577578 90.086193 
L 2360.162544 147.268369 
L 2363.74751 123.460967 
L 2367.332477 92.433625 
L 2370.917443 81.013686 
L 2374.502409 151.639668 
L 2378.087376 133.215498 
L 2381.672342 136.444804 
L 2385.257308 124.393595 
L 2388.842274 113.344804 
L 2392.427241 145.323807 
L 2396.012207 123.204018 
L 2399.597173 155.773051 
L 2403.182139 148.273958 
L 2406.767106 133.14571 
L 2410.352072 150.110665 
L 2417.522004 102.426073 
L 2421.106971 121.481511 
L 2424.691937 85.039215 
L 2428.276903 126.550695 
L 2431.86187 115.413082 
L 2435.446836 130.623807 
L 2439.031802 113.509758 
L 2442.616768 127.426224 
L 2446.201735 120.663082 
L 2449.786701 169.232719 
L 2453.371667 139.880302 
L 2456.956633 162.621843 
L 2460.5416 133.056888 
L 2464.126566 171.646767 
L 2467.711532 135.680302 
L 2471.296499 117.941329 
L 2474.881465 142.694048 
L 2478.466431 136.803263 
L 2482.051397 128.717311 
L 2485.636364 158.913535 
L 2489.22133 195.812628 
L 2492.806296 175.190121 
L 2496.391262 170.517462 
L 2499.976229 162.494955 
L 2503.561195 102.118369 
L 2507.146161 172.262175 
L 2510.731128 124.491934 
L 2514.316094 138.097523 
L 2517.90106 163.326073 
L 2521.486026 172.931511 
L 2525.070993 166.038308 
L 2528.655959 163.950997 
L 2532.240925 156.924562 
L 2535.825891 170.022598 
L 2539.410858 135.737402 
L 2542.995824 177.562931 
L 2550.165757 118.918369 
L 2553.750723 84.293746 
L 2557.335689 130.259003 
L 2560.920655 100.713082 
L 2564.505622 129.113837 
L 2568.090588 149.834683 
L 2571.675554 114.083927 
L 2575.26052 119.283172 
L 2578.845487 132.076677 
L 2582.430453 85.197825 
L 2586.015419 103.330151 
L 2589.600385 86.206586 
L 2593.185352 131.775317 
L 2596.770318 141.498127 
L 2600.355284 121.874864 
L 2603.940251 66.091631 
L 2607.525217 108.640423 
L 2611.110183 97.483776 
L 2614.695149 121.535438 
L 2618.280116 122.236495 
L 2621.865082 114.594653 
L 2625.450048 94.977734 
L 2629.035014 95.437704 
L 2632.619981 104.129547 
L 2636.204947 104.199335 
L 2639.789913 89.632568 
L 2643.37488 104.783021 
L 2646.959846 125.668822 
L 2650.544812 133.583474 
L 2654.129778 119.917613 
L 2657.714745 85.296163 
L 2661.299711 148.784683 
L 2664.884677 116.672447 
L 2668.469643 99.380755 
L 2672.05461 97.188761 
L 2675.639576 91.374109 
L 2679.224542 93.40432 
L 2682.809509 108.066254 
L 2686.394475 108.656284 
L 2689.979441 104.139063 
L 2693.564407 133.012477 
L 2697.149374 132.387553 
L 2700.73434 104.529245 
L 2704.319306 82.996314 
L 2707.904272 30.020483 
L 2711.489239 71.512931 
L 2715.074205 83.139063 
L 2718.659171 74.409154 
L 2722.244137 95.428187 
L 2725.829104 103.000242 
L 2729.41407 95.256888 
L 2732.999036 103.733021 
L 2736.584003 94.676375 
L 2740.168969 142.897069 
L 2743.753935 136.888912 
L 2747.338901 99.031813 
L 2750.923868 95.640725 
L 2754.508834 121.586193 
L 2758.0938 67.833172 
L 2761.678766 84.366707 
L 2765.263733 98.375166 
L 2768.848699 113.148127 
L 2772.433665 122.547372 
L 2776.018632 168.262024 
L 2779.603598 152.185287 
L 2783.188564 113.963384 
L 2786.77353 97.1729 
L 2790.358497 147.347674 
L 2793.943463 91.215498 
L 2797.528429 95.520181 
L 2801.113395 147.718822 
L 2804.698362 164.851903 
L 2808.283328 121.027885 
L 2811.868294 135.423353 
L 2815.453261 116.666103 
L 2819.038227 105.189063 
L 2822.623193 164.382417 
L 2826.208159 156.121994 
L 2829.793126 175.075921 
L 2833.378092 177.064894 
L 2836.963058 84.915498 
L 2840.548024 109.972749 
L 2844.132991 88.458852 
L 2847.717957 120.285589 
L 2851.302923 115.704924 
L 2854.887889 146.748127 
L 2858.472856 111.523958 
L 2862.057822 119.89858 
L 2865.642788 145.120785 
L 2869.227755 142.126224 
L 2872.812721 154.891178 
L 2876.397687 108.906888 
L 2879.982653 107.961571 
L 2883.56762 100.859003 
L 2887.152586 103.942387 
L 2890.737552 62.332568 
L 2894.322518 99.513988 
L 2897.907485 93.363082 
L 2901.492451 125.01852 
L 2905.077417 142.138912 
L 2908.662384 137.77713 
L 2912.24735 149.606284 
L 2915.832316 138.430604 
L 2919.417282 161.416405 
L 2923.002249 118.578943 
L 2926.587215 153.089366 
L 2930.172181 141.809003 
L 2933.757147 146.42139 
L 2937.342114 120.593293 
L 2940.92708 67.83 
L 2944.512046 121.313384 
L 2948.097013 149.409607 
L 2951.681979 134.217915 
L 2955.266945 90.216254 
L 2958.851911 135.911873 
L 2962.436878 131.473958 
L 2966.021844 114.144199 
L 2969.60681 80.715498 
L 2973.191776 105.702961 
L 2976.776743 108.339063 
L 2980.361709 73.612931 
L 2983.946675 103.90432 
L 2987.531642 144.213535 
L 2991.116608 102.787704 
L 2994.701574 73.346465 
L 2998.28654 113.782568 
L 3001.871507 101.461722 
L 3005.456473 121.484683 
L 3009.041439 109.531813 
L 3012.626405 112.190121 
L 3016.211372 84.690272 
L 3019.796338 96.398882 
L 3023.381304 68.959305 
L 3026.96627 84.087553 
L 3030.551237 93.305982 
L 3034.136203 121.817764 
L 3037.721169 110.404169 
L 3041.306136 117.398882 
L 3044.891102 77.597221 
L 3048.476068 60.375317 
L 3052.061034 105.576073 
L 3055.646001 86.003565 
L 3059.230967 87.691178 
L 3062.815933 85.423051 
L 3066.400899 89.033021 
L 3069.985866 43.258097 
L 3073.570832 53.729547 
L 3077.155798 90.888761 
L 3080.740765 80.934381 
L 3084.325731 132.885589 
L 3087.910697 45.821239 
L 3091.495663 106.603867 
L 3095.08063 10.08 
L 3098.665596 10.765196 
L 3102.250562 65.117764 
L 3105.835528 38.858248 
L 3109.420495 113.278187 
L 3113.005461 109.179698 
L 3116.590427 120.314139 
L 3120.175394 71.208399 
L 3123.76036 60.93997 
L 3127.345326 46.687251 
L 3130.930292 74.545559 
L 3134.515259 63.01142 
L 3138.100225 74.006284 
L 3141.685191 78.552054 
L 3145.270157 74.472598 
L 3148.855124 42.668066 
L 3152.44009 93.683474 
L 3156.025056 68.727734 
L 3159.610022 100.903414 
L 3163.194989 109.157492 
L 3166.779955 85.147069 
L 3170.364921 73.584381 
L 3173.949888 53.383776 
L 3177.534854 76.509154 
L 3181.11982 67.534985 
L 3184.704786 67.874411 
L 3188.289753 88.544502 
L 3191.874719 84.947221 
L 3195.459685 90.980755 
L 3199.044651 103.701299 
L 3202.629618 95.304471 
L 3206.214584 78.523505 
L 3209.79955 72.264743 
L 3213.384517 107.70145 
L 3216.969483 118.617009 
L 3220.554449 71.148127 
L 3224.139415 70.646918 
L 3227.724382 118.413988 
L 3231.309348 57.187251 
L 3234.894314 93.020483 
L 3238.47928 120.663082 
L 3242.064247 110.404169 
L 3245.649213 114.746918 
L 3249.234179 94.492387 
L 3252.819146 102.901903 
L 3256.404112 40.073202 
L 3259.989078 108.00281 
L 3263.574044 124.165196 
L 3267.159011 123.920937 
L 3270.743977 88.639668 
L 3274.328943 75.567009 
L 3277.913909 86.006737 
L 3281.498876 151.515952 
L 3285.083842 118.321994 
L 3288.668808 114.934079 
L 3292.253774 162.682115 
L 3295.838741 158.164894 
L 3299.423707 166.361873 
L 3303.008673 117.573353 
L 3310.178606 61.431662 
L 3313.763572 119.080151 
L 3317.348538 71.573202 
L 3320.933505 91.884834 
L 3324.518471 98.314894 
L 3328.103437 29.28136 
L 3331.688403 125.196163 
L 3335.27337 105.528489 
L 3338.858336 142.68136 
L 3342.443302 118.680453 
L 3346.028269 154.186949 
L 3349.613235 61.74571 
L 3353.198201 82.986798 
L 3356.783167 77.597221 
L 3360.368134 43.730755 
L 3363.9531 85.175619 
L 3367.538066 104.021692 
L 3371.123032 148.515045 
L 3374.707999 55.074562 
L 3378.292965 98.720937 
L 3381.877931 110.378792 
L 3385.462898 113.712779 
L 3389.047864 115.536798 
L 3392.63283 61.790121 
L 3396.217796 105.458701 
L 3399.802763 90.606435 
L 3403.387729 90.964894 
L 3406.972695 64.077281 
L 3410.557661 75.903263 
L 3414.142628 93.692991 
L 3417.727594 100.275317 
L 3421.31256 140.533776 
L 3424.897527 131.052054 
L 3428.482493 125.424562 
L 3432.067459 93.991178 
L 3435.652425 81.946314 
L 3439.237392 65.898127 
L 3442.822358 103.936042 
L 3446.407324 100.211873 
L 3449.99229 113.100544 
L 3453.577257 40.523656 
L 3457.162223 111.552508 
L 3460.747189 103.025619 
L 3464.332155 143.601299 
L 3467.917122 95.472598 
L 3471.502088 129.380302 
L 3475.087054 164.785287 
L 3478.672021 131.217009 
L 3482.256987 80.230151 
L 3485.841953 82.149335 
L 3489.426919 109.21142 
L 3493.011886 105.588761 
L 3496.596852 129.313686 
L 3500.181818 94.781057 
L 3503.766784 144.118369 
L 3507.351751 115.850846 
L 3510.936717 99.89148 
L 3514.521683 128.047976 
L 3518.10665 86.863233 
L 3521.691616 102.346767 
L 3528.861548 80.677432 
L 3532.446515 100.002508 
L 3536.031481 82.25719 
L 3539.616447 108.37713 
L 3543.201413 111.083021 
L 3546.78638 80.959758 
L 3550.371346 109.39858 
L 3553.956312 130.471541 
L 3557.541279 111.393897 
L 3561.126245 62.218369 
L 3564.711211 52.457492 
L 3568.296177 69.051299 
L 3571.881144 77.882719 
L 3575.46611 46.779245 
L 3579.051076 101.756737 
L 3582.636042 103.266707 
L 3586.221009 80.268218 
L 3589.805975 66.465952 
L 3593.390941 77.016707 
L 3596.975907 123.495861 
L 3600.560874 86.352508 
L 3604.14584 82.200091 
L 3607.730806 116.843746 
L 3611.315773 30.70568 
L 3614.900739 44.863233 
L 3618.485705 73.473353 
L 3622.070671 39.632266 
L 3625.655638 66.43423 
L 3629.240604 81.56565 
L 3632.82557 76.312477 
L 3636.410536 94.390876 
L 3639.995503 63.753716 
L 3643.580469 120.54571 
L 3647.165435 41.212024 
L 3650.750402 66.009154 
L 3654.335368 111.822145 
L 3657.920334 88.382719 
L 3661.5053 129.637251 
L 3665.090267 83.970181 
L 3668.675233 113.259154 
L 3672.260199 132.213082 
L 3675.845165 122.461722 
L 3679.430132 166.441178 
L 3683.015098 123.153263 
L 3686.600064 141.89148 
L 3690.185031 130.12577 
L 3693.769997 90.048127 
L 3697.354963 65.990121 
L 3700.939929 104.887704 
L 3704.524896 103.200091 
L 3708.109862 93.759607 
L 3711.694828 140.908097 
L 3715.279794 102.441934 
L 3718.864761 121.906586 
L 3722.449727 116.713686 
L 3726.034693 149.393746 
L 3729.619659 125.167613 
L 3733.204626 115.333776 
L 3736.789592 131.194804 
L 3740.374558 81.143746 
L 3743.959525 95.405982 
L 3747.544491 108.167764 
L 3751.129457 68.156737 
L 3754.714423 23.507946 
L 3758.29939 127.971843 
L 3761.884356 120.939063 
L 3765.469322 125.932115 
L 3769.054288 115.965045 
L 3772.639255 113.985589 
L 3776.224221 92.623958 
L 3779.809187 103.022447 
L 3783.394154 71.763535 
L 3786.97912 104.430906 
L 3790.564086 71.214743 
L 3794.149052 91.52003 
L 3797.734019 107.780755 
L 3801.318985 121.890725 
L 3804.903951 115.194199 
L 3808.488917 119.819275 
L 3812.073884 135.902356 
L 3815.65885 109.316103 
L 3819.243816 127.324713 
L 3822.828783 113.995106 
L 3826.413749 78.453716 
L 3829.998715 88.763384 
L 3833.583681 38.988308 
L 3837.168648 111.200393 
L 3840.753614 104.097825 
L 3844.33858 108.821239 
L 3847.923546 136.94284 
L 3851.508513 81.184985 
L 3855.093479 126.252508 
L 3858.678445 126.994804 
L 3862.263412 129.64994 
L 3865.848378 83.868671 
L 3869.433344 69.523958 
L 3873.01831 29.674713 
L 3876.603277 57.041329 
L 3880.188243 76.686798 
L 3883.773209 32.577281 
L 3887.358175 95.190272 
L 3890.943142 97.743897 
L 3894.528108 99.364894 
L 3898.113074 120.421994 
L 3901.69804 118.702659 
L 3905.283007 116.659758 
L 3908.867973 92.208399 
L 3912.452939 102.064441 
L 3916.037906 87.136042 
L 3919.622872 77.200695 
L 3923.207838 103.533172 
L 3926.792804 154.323353 
L 3930.377771 103.028792 
L 3933.962737 117.357644 
L 3937.547703 153.435136 
L 3941.132669 125.887704 
L 3944.717636 135.407492 
L 3948.302602 131.296314 
L 3951.887568 161.809758 
L 3955.472535 98.483021 
L 3959.057501 90.508097 
L 3962.642467 107.127281 
L 3966.227433 125.20568 
L 3969.8124 150.101148 
L 3973.397366 100.621088 
L 3976.982332 156.499486 
L 3980.567298 111.58423 
L 3984.152265 115.403565 
L 3987.737231 138.246616 
L 3991.322197 162.364894 
L 3994.907164 145.996314 
L 3998.49213 98.146767 
L 4002.077096 133.713535 
L 4005.662062 111.571541 
L 4009.247029 127.791027 
L 4012.831995 103.504622 
L 4016.416961 121.890725 
L 4020.001927 170.891782 
L 4023.586894 150.783172 
L 4027.17186 145.936042 
L 4030.756826 162.653565 
L 4034.341792 165.711571 
L 4037.926759 156.261571 
L 4041.511725 140.806586 
L 4045.096691 128.400091 
L 4048.681658 93.784985 
L 4052.266624 129.998882 
L 4055.85159 175.624713 
L 4059.436556 124.358701 
L 4063.021523 178.860363 
L 4066.606489 165.416556 
L 4070.191455 129.484985 
L 4073.776421 140.086495 
L 4077.361388 108.846616 
L 4080.946354 124.713988 
L 4084.53132 96.097523 
L 4088.116287 98.628943 
L 4091.701253 107.533323 
L 4095.286219 99.507644 
L 4098.871185 113.379698 
L 4102.456152 107.653867 
L 4106.041118 150.050393 
L 4109.626084 152.210665 
L 4113.21105 76.261722 
L 4116.796017 106.245408 
L 4120.380983 111.035438 
L 4123.965949 125.798882 
L 4127.550916 112.488308 
L 4131.135882 118.991329 
L 4134.720848 105.5729 
L 4138.305814 123.924109 
L 4141.890781 148.92426 
L 4145.475747 126.354018 
L 4149.060713 120.218973 
L 4152.645679 140.895408 
L 4156.230646 115.939668 
L 4159.815612 120.577432 
L 4163.400578 143.820181 
L 4166.985544 92.135438 
L 4170.570511 102.61006 
L 4174.155477 112.646918 
L 4177.740443 137.025317 
L 4181.32541 121.031057 
L 4184.910376 130.646012 
L 4188.495342 149.476224 
L 4192.080308 157.844502 
L 4195.665275 116.250544 
L 4199.250241 152.686495 
L 4202.835207 130.972749 
L 4206.420173 108.10432 
L 4210.00514 109.798278 
L 4213.590106 77.073807 
L 4217.175072 115.05145 
L 4220.760039 121.22139 
L 4224.345005 101.778943 
L 4227.929971 134.611269 
L 4231.514937 107.628489 
L 4235.099904 127.178792 
L 4238.68487 114.394804 
L 4242.269836 152.715045 
L 4245.854802 154.742085 
L 4249.439769 148.645106 
L 4253.024735 94.593897 
L 4256.609701 98.130906 
L 4260.194668 89.033021 
L 4263.779634 116.437704 
L 4267.3646 142.62426 
L 4270.949566 112.719879 
L 4274.534533 144.930453 
L 4278.119499 124.552205 
L 4281.704465 158.250544 
L 4285.289431 133.047372 
L 4288.874398 127.721239 
L 4292.459364 99.35855 
L 4296.04433 120.291934 
L 4299.629296 90.736495 
L 4303.214263 116.085589 
L 4306.799229 122.388761 
L 4310.384195 92.357492 
L 4313.969162 122.826526 
L 4317.554128 160.486949 
L 4321.139094 134.500242 
L 4324.72406 155.373353 
L 4328.309027 123.083474 
L 4331.893993 143.150846 
L 4335.478959 127.451601 
L 4339.063925 100.145257 
L 4342.648892 92.071994 
L 4346.233858 156.30281 
L 4349.818824 134.820634 
L 4353.403791 148.074109 
L 4356.988757 167.875015 
L 4360.573723 151.259003 
L 4364.158689 204.393444 
L 4367.743656 165.587855 
L 4371.328622 138.973051 
L 4374.913588 115.219577 
L 4378.498554 103.28574 
L 4382.083521 113.183021 
L 4385.668487 96.820785 
L 4389.253453 97.020634 
L 4392.83842 76.252205 
L 4396.423386 130.741178 
L 4400.008352 136.241782 
L 4403.593318 146.009003 
L 4407.178285 179.808852 
L 4410.763251 127.645106 
L 4414.348217 138.620937 
L 4417.933183 128.419124 
L 4421.51815 107.438157 
L 4425.103116 119.705076 
L 4428.688082 84.274713 
L 4432.273049 148.007492 
L 4435.858015 108.205831 
L 4439.442981 134.455831 
L 4443.027947 126.465045 
L 4446.612914 122.138157 
L 4450.19788 158.088761 
L 4453.782846 163.627432 
L 4457.367812 158.796163 
L 4460.952779 129.050393 
L 4464.537745 127.648278 
L 4468.122711 87.526224 
L 4471.707677 81.559305 
L 4475.292644 112.846767 
L 4478.87761 139.702659 
L 4482.462576 119.019879 
L 4486.047543 174.286042 
L 4489.632509 147.239819 
L 4493.217475 165.568822 
L 4496.802441 172.766556 
L 4500.387408 113.817462 
L 4503.972374 132.631813 
L 4507.55734 133.73574 
L 4511.142306 81.959003 
L 4514.727273 96.15145 
L 4518.312239 58.950997 
L 4521.897205 110.191631 
L 4525.482172 130.087704 
L 4529.067138 107.771239 
L 4532.652104 111.314592 
L 4536.23707 118.312477 
L 4539.822037 129.783172 
L 4543.407003 102.616405 
L 4546.991969 103.656888 
L 4550.576935 118.188761 
L 4554.161902 144.004169 
L 4557.746868 88.468369 
L 4561.331834 94.019728 
L 4564.916801 66.012326 
L 4568.501767 111.355831 
L 4572.086733 118.79148 
L 4575.671699 139.892991 
L 4579.256666 151.059154 
L 4582.841632 109.687251 
L 4586.426598 124.174713 
L 4590.011564 83.275468 
L 4593.596531 105.087553 
L 4597.181497 57.253867 
L 4600.766463 108.110665 
L 4604.351429 108.792689 
L 4607.936396 121.627432 
L 4611.521362 124.549033 
L 4615.106328 129.944955 
L 4618.691295 134.642991 
L 4622.276261 115.879396 
L 4625.861227 90.581057 
L 4629.446193 143.531511 
L 4633.03116 71.865045 
L 4636.616126 75.544804 
L 4640.201092 112.954622 
L 4643.786058 98.752659 
L 4647.371025 127.483323 
L 4650.955991 108.155076 
L 4654.540957 106.131208 
L 4658.125924 108.754622 
L 4661.71089 130.220937 
L 4665.295856 113.792085 
L 4668.880822 125.291329 
L 4672.465789 97.512326 
L 4676.050755 59.880453 
L 4679.635721 70.041027 
L 4683.220687 83.031208 
L 4686.805654 130.791934 
L 4690.39062 87.300997 
L 4693.975586 107.13997 
L 4697.560553 110.807039 
L 4701.145519 189.905982 
L 4704.730485 140.479849 
L 4708.315451 121.449789 
L 4711.900418 105.674411 
L 4715.485384 114.394804 
L 4722.655316 76.312477 
L 4726.240283 68.334381 
L 4729.825249 74.104622 
L 4733.410215 104.338912 
L 4736.995181 151.325619 
L 4740.580148 167.332568 
L 4744.165114 152.064743 
L 4747.75008 155.398731 
L 4751.335047 97.220483 
L 4754.920013 96.015045 
L 4758.504979 93.762779 
L 4762.089945 64.048731 
L 4765.674912 72.014139 
L 4769.259878 80.953414 
L 4772.844844 63.909154 
L 4776.42981 97.341027 
L 4780.014777 124.996314 
L 4783.599743 136.251299 
L 4787.184709 99.022296 
L 4790.769676 138.408399 
L 4794.354642 144.978036 
L 4797.939608 105.135136 
L 4801.524574 128.311269 
L 4805.109541 133.053716 
L 4808.694507 87.367613 
L 4812.279473 105.341329 
L 4815.864439 117.887402 
L 4819.449406 186.216707 
L 4823.034372 119.00719 
L 4826.619338 153.711118 
L 4830.204305 119.489366 
L 4833.789271 141.932719 
L 4837.374237 166.777432 
L 4840.959203 86.473051 
L 4844.54417 158.980151 
L 4848.129136 98.19435 
L 4851.714102 131.483474 
L 4855.299068 105.867915 
L 4858.884035 134.519275 
L 4862.469001 113.176677 
L 4866.053967 129.900544 
L 4869.638934 138.31006 
L 4873.2239 130.481057 
L 4876.808866 153.58423 
L 4880.393832 153.070332 
L 4883.978799 129.085287 
L 4887.563765 167.691027 
L 4891.148731 132.571541 
L 4894.733697 108.459607 
L 4898.318664 107.679245 
L 4901.90363 121.230906 
L 4905.488596 108.738761 
L 4909.073562 106.239063 
L 4912.658529 117.446465 
L 4916.243495 91.33287 
L 4919.828461 112.443897 
L 4923.413428 112.878489 
L 4926.998394 159.763686 
L 4930.58336 94.75568 
L 4934.168326 88.966405 
L 4937.753293 57.640876 
L 4941.338259 100.909758 
L 4944.923225 88.687251 
L 4948.508191 84.725166 
L 4952.093158 116.034834 
L 4955.678124 109.373202 
L 4959.26309 75.817613 
L 4962.848057 132.949033 
L 4966.433023 142.046918 
L 4970.017989 122.385589 
L 4973.602955 131.651601 
L 4977.187922 122.379245 
L 4980.772888 77.892236 
L 4984.357854 100.744804 
L 4987.94282 107.869577 
L 4991.527787 96.735136 
L 4995.112753 98.207039 
L 4998.697719 80.081057 
L 5002.282686 138.909607 
L 5005.867652 99.659909 
L 5009.452618 68.803867 
L 5013.037584 67.458852 
L 5016.622551 105.379396 
L 5020.207517 84.883776 
L 5023.792483 110.207492 
L 5027.377449 112.094955 
L 5030.962416 71.227432 
L 5034.547382 80.461722 
L 5038.132348 143.112779 
L 5041.717314 100.402205 
L 5045.302281 140.930302 
L 5048.887247 106.048731 
L 5052.472213 113.487553 
L 5056.05718 122.341178 
L 5059.642146 90.983927 
L 5063.227112 118.493293 
L 5066.812078 119.847825 
L 5070.397045 102.296012 
L 5073.982011 114.77864 
L 5077.566977 87.833927 
L 5081.151943 165.876526 
L 5084.73691 97.899335 
L 5088.321876 107.901299 
L 5091.906842 124.365045 
L 5095.491809 115.527281 
L 5099.076775 124.967764 
L 5102.661741 146.913082 
L 5106.246707 125.944804 
L 5109.831674 81.771843 
L 5113.41664 125.481662 
L 5117.001606 92.782568 
L 5120.586572 72.658097 
L 5124.171539 129.117009 
L 5127.756505 96.465498 
L 5131.341471 140.990574 
L 5134.926438 143.223807 
L 5138.511404 115.229094 
L 5142.09637 77.746314 
L 5145.681336 86.802961 
L 5149.266303 82.786949 
L 5152.851269 124.250846 
L 5156.436235 83.95432 
L 5160.021201 103.694955 
L 5163.606168 114.962628 
L 5167.191134 124.384079 
L 5170.7761 129.786344 
L 5174.361066 105.693444 
L 5177.946033 133.266254 
L 5181.530999 111.8729 
L 5185.115965 130.98861 
L 5188.700932 82.61565 
L 5192.285898 104.732266 
L 5195.870864 74.913535 
L 5199.45583 77.809758 
L 5203.040797 121.713082 
L 5206.625763 84.595106 
L 5210.210729 143.502961 
L 5213.795695 128.768066 
L 5217.380662 132.720634 
L 5220.965628 122.02713 
L 5224.550594 135.854773 
L 5228.135561 122.91852 
L 5231.720527 112.573958 
L 5235.305493 120.973958 
L 5238.890459 50.059305 
L 5242.475426 85.629245 
L 5246.060392 115.473353 
L 5249.645358 88.636495 
L 5253.230324 118.79148 
L 5256.815291 129.307341 
L 5260.400257 133.49148 
L 5263.985223 117.398882 
L 5267.57019 100.170634 
L 5271.155156 95.263233 
L 5274.740122 113.696918 
L 5278.325088 106.616556 
L 5281.910055 135.765952 
L 5285.495021 84.322296 
L 5289.079987 98.771692 
L 5292.664953 101.192085 
L 5296.24992 143.410967 
L 5299.834886 177.62003 
L 5303.419852 140.816103 
L 5307.004819 143.249184 
L 5310.589785 153.647674 
L 5314.174751 124.777432 
L 5317.759717 104.053414 
L 5321.344684 114.194955 
L 5324.92965 112.297976 
L 5328.514616 84.747372 
L 5332.099582 83.5229 
L 5335.684549 125.58 
L 5339.269515 118.448882 
L 5342.854481 110.978338 
L 5346.439447 157.406737 
L 5350.024414 108.957644 
L 5353.60938 54.865196 
L 5357.194346 79.602054 
L 5360.779313 101.839215 
L 5364.364279 116.859607 
L 5367.949245 74.520181 
L 5371.534211 108.78 
L 5375.119178 36.02864 
L 5378.704144 97.839063 
L 5382.28911 85.223202 
L 5385.874076 109.21142 
L 5389.459043 88.994955 
L 5393.044009 128.653867 
L 5396.628975 84.322296 
L 5400.213942 103.412628 
L 5403.798908 82.079547 
L 5407.383874 91.329698 
L 5410.96884 79.012024 
L 5414.553807 119.847825 
L 5418.138773 90.885589 
L 5421.723739 98.448127 
L 5425.308705 137.710514 
L 5428.893672 125.583172 
L 5432.478638 74.367915 
L 5436.063604 108.840272 
L 5439.648571 57.310967 
L 5443.233537 122.490272 
L 5446.818503 115.860363 
L 5450.403469 109.928338 
L 5453.988436 136.822296 
L 5457.573402 124.089063 
L 5461.158368 184.468822 
L 5464.743334 123.759154 
L 5468.328301 134.344804 
L 5471.913267 103.282568 
L 5475.498233 128.75855 
L 5479.083199 137.038006 
L 5482.668166 133.694502 
L 5486.253132 143.594955 
L 5489.838098 105.855227 
L 5493.423065 117.484532 
L 5497.008031 116.206133 
L 5500.592997 93.832568 
L 5504.177963 94.095861 
L 5507.76293 101.864592 
L 5511.347896 136.159305 
L 5514.932862 129.446918 
L 5518.517828 75.249789 
L 5522.102795 126.534834 
L 5525.687761 90.77139 
L 5529.272727 111.213082 
L 5532.857694 129.551601 
L 5536.44266 139.775619 
L 5540.027626 203.87003 
L 5543.612592 149.818822 
L 5547.197559 142.427583 
L 5550.782525 153.996616 
L 5554.367491 156.305982 
L 5557.952457 128.228792 
L 5565.12239 170.955227 
L 5568.707356 155.560514 
L 5572.292323 136.987251 
L 5575.877289 116.580453 
L 5579.462255 141.35855 
L 5583.047221 91.459758 
L 5586.632188 126.182719 
L 5590.217154 122.328489 
L 5593.80212 172.446163 
L 5597.387086 133.665952 
L 5600.972053 133.313837 
L 5604.557019 169.115347 
L 5608.141985 125.532417 
L 5611.726951 152.28997 
L 5615.311918 130.741178 
L 5618.896884 125.735438 
L 5622.48185 151.230453 
L 5626.066817 115.089517 
L 5629.651783 153.933172 
L 5633.236749 150.776828 
L 5636.821715 137.174411 
L 5640.406682 170.368369 
L 5643.991648 138.909607 
L 5647.576614 93.271088 
L 5651.16158 160.283927 
L 5654.746547 99.098429 
L 5658.331513 136.156133 
L 5661.916479 122.192085 
L 5665.501446 115.51142 
L 5669.086412 106.194653 
L 5672.671378 110.632568 
L 5676.256344 124.295257 
L 5679.841311 145.234985 
L 5683.426277 136.961873 
L 5687.011243 108.221692 
L 5690.596209 149.733172 
L 5694.181176 110.39148 
L 5697.766142 138.271994 
L 5701.351108 124.964592 
L 5704.936075 147.934532 
L 5708.521041 144.419728 
L 5712.106007 146.754471 
L 5715.690973 120.812175 
L 5719.27594 144.927281 
L 5722.860906 140.241934 
L 5726.445872 161.555982 
L 5730.030838 143.192085 
L 5733.615805 134.490725 
L 5737.200771 106.962326 
L 5740.785737 95.323505 
L 5744.370704 91.08861 
L 5747.95567 106.822749 
L 5751.540636 116.650242 
L 5755.125602 115.711269 
L 5758.710569 119.876375 
L 5762.295535 145.571239 
L 5765.880501 154.602508 
L 5769.465467 144.549789 
L 5773.050434 131.892689 
L 5776.6354 123.648127 
L 5780.220366 136.124411 
L 5783.805332 164.02713 
L 5787.390299 148.559456 
L 5790.975265 125.554622 
L 5794.560231 157.508248 
L 5798.145198 124.675921 
L 5801.730164 135.401148 
L 5805.31513 119.387855 
L 5808.900096 165.914592 
L 5812.485063 160.537704 
L 5816.070029 137.919879 
L 5819.654995 157.72713 
L 5823.239961 139.886647 
L 5826.824928 152.378792 
L 5830.409894 116.171239 
L 5833.99486 160.401299 
L 5837.579827 186.460967 
L 5841.164793 155.662024 
L 5844.749759 111.647674 
L 5848.334725 128.910816 
L 5851.919692 154.539063 
L 5855.504658 143.575921 
L 5859.089624 123.054924 
L 5862.67459 118.25855 
L 5866.259557 138.034079 
L 5869.844523 138.678036 
L 5873.429489 146.231057 
L 5877.014456 175.688157 
L 5880.599422 185.801148 
L 5884.184388 101.636193 
L 5887.769354 165.32139 
L 5891.354321 134.484381 
L 5894.939287 154.342387 
L 5898.524253 132.733323 
L 5902.109219 132.416103 
L 5905.694186 165.23574 
L 5909.279152 168.341329 
L 5912.864118 170.638006 
L 5916.449084 186.765498 
L 5920.034051 171.450091 
L 5923.619017 169.232719 
L 5927.203983 124.840876 
L 5930.78895 154.54858 
L 5934.373916 135.981662 
L 5937.958882 167.947976 
L 5941.543848 131.20432 
L 5945.128815 144.454622 
L 5948.713781 137.453565 
L 5952.298747 179.742236 
L 5955.883713 126.379396 
L 5959.46868 171.053565 
L 5963.053646 145.37139 
L 5966.638612 118.610665 
L 5970.223579 111.907795 
L 5973.808545 164.655227 
L 5977.393511 139.41716 
L 5980.978477 123.099335 
L 5984.563444 112.234532 
L 5988.14841 128.831511 
L 5991.733376 115.968218 
L 5995.318342 156.635891 
L 5998.903309 146.408701 
L 6002.488275 133.447069 
L 6006.073241 158.367915 
L 6009.658208 170.971088 
L 6013.243174 155.811118 
L 6016.82814 163.86852 
L 6020.413106 137.482115 
L 6023.998073 92.516103 
L 6027.583039 96.379849 
L 6031.168005 157.631964 
L 6034.752971 157.222749 
L 6038.337938 124.15568 
L 6041.922904 141.383927 
L 6045.50787 138.563837 
L 6049.092836 146.716405 
L 6052.677803 114.014139 
L 6056.262769 122.303112 
L 6059.847735 101.306284 
L 6063.432702 137.612175 
L 6067.017668 124.479245 
L 6070.602634 170.641178 
L 6074.1876 117.684381 
L 6077.772567 82.948731 
L 6081.357533 145.352356 
L 6084.942499 110.857795 
L 6088.527465 137.361571 
L 6092.112432 92.275015 
L 6095.697398 119.327583 
L 6099.282364 108.878338 
L 6102.867331 94.302054 
L 6106.452297 112.085438 
L 6110.037263 142.173807 
L 6113.622229 107.523807 
L 6117.207196 140.879547 
L 6120.792162 130.646012 
L 6124.377128 137.047523 
L 6127.962094 108.326375 
L 6131.547061 86.409607 
L 6135.132027 93.915045 
L 6138.716993 142.446616 
L 6142.30196 105.842538 
L 6145.886926 134.214743 
L 6149.471892 139.341027 
L 6153.056858 85.962326 
L 6156.641825 101.506133 
L 6160.226791 149.333474 
L 6163.811757 75.205378 
L 6167.396723 93.645408 
L 6170.98169 82.441178 
L 6174.566656 85.54994 
L 6178.151622 148.607039 
L 6181.736588 98.28 
L 6185.321555 66.354924 
L 6188.906521 105.398429 
L 6192.491487 147.988459 
L 6196.076454 139.423505 
L 6199.66142 139.163384 
L 6203.246386 94.742991 
L 6206.831352 139.321994 
L 6210.416319 129.738761 
L 6214.001285 120.729698 
L 6217.586251 92.373353 
L 6221.171217 91.462931 
L 6224.756184 105.557039 
L 6228.34115 82.34284 
L 6231.926116 120.650393 
L 6235.511083 119.844653 
L 6239.096049 104.081964 
L 6242.681015 117.275166 
L 6246.265981 141.983474 
L 6249.850948 111.79994 
L 6253.435914 129.624562 
L 6257.02088 84.090725 
L 6260.605846 134.595408 
L 6264.190813 123.743293 
L 6267.775779 103.4729 
L 6271.360745 131.048882 
L 6274.945712 61.936042 
L 6278.530678 81.867009 
L 6282.115644 78.653565 
L 6285.70061 121.621088 
L 6289.285577 92.617613 
L 6292.870543 145.158852 
L 6296.455509 139.204622 
L 6300.040475 91.307492 
L 6303.625442 99.168218 
L 6307.210408 79.386344 
L 6310.795374 126.947221 
L 6314.380341 109.100393 
L 6317.965307 126.052659 
L 6321.550273 88.896616 
L 6325.135239 117.176828 
L 6328.720206 138.065801 
L 6332.305172 138.015045 
L 6335.890138 98.850997 
L 6339.475104 85.933776 
L 6343.060071 106.384985 
L 6346.645037 79.376828 
L 6350.230003 63.366707 
L 6353.814969 85.467462 
L 6357.399936 91.729396 
L 6360.984902 113.953867 
L 6364.569868 129.32003 
L 6368.154835 77.717764 
L 6371.739801 101.909003 
L 6375.324767 70.186949 
L 6378.909733 80.036647 
L 6382.4947 81.901903 
L 6386.079666 74.58997 
L 6389.664632 86.885438 
L 6393.249598 74.193444 
L 6396.834565 95.399637 
L 6400.419531 98.809758 
L 6404.004497 100.513233 
L 6407.589464 99.625015 
L 6411.17443 104.592689 
L 6414.759396 87.402508 
L 6418.344362 125.675166 
L 6421.929329 107.003565 
L 6425.514295 149.961571 
L 6429.099261 139.185589 
L 6432.684227 98.692387 
L 6436.269194 123.619577 
L 6439.85416 86.742689 
L 6443.439126 121.402205 
L 6447.024093 87.789517 
L 6450.609059 56.936647 
L 6454.194025 52.489215 
L 6457.778991 134.712779 
L 6461.363958 97.356888 
L 6464.948924 105.125619 
L 6468.53389 95.034834 
L 6472.118856 69.203565 
L 6475.703823 100.170634 
L 6479.288789 69.238459 
L 6482.873755 58.284834 
L 6486.458721 118.334683 
L 6490.043688 90.238459 
L 6493.628654 85.388157 
L 6497.21362 126.655378 
L 6500.798587 73.933323 
L 6504.383553 61.196918 
L 6507.968519 95.583625 
L 6511.553485 117.915952 
L 6515.138452 95.675619 
L 6518.723418 96.065801 
L 6522.308384 122.620332 
L 6525.89335 78.644048 
L 6529.478317 101.265045 
L 6533.063283 94.72713 
L 6536.648249 96.754169 
L 6540.233216 90.070332 
L 6543.818182 98.660665 
L 6547.403148 96.497221 
L 6550.988114 118.065045 
L 6554.573081 93.791329 
L 6558.158047 71.614441 
L 6561.743013 128.019426 
L 6565.327979 75.15145 
L 6568.912946 90.270181 
L 6572.497912 87.821239 
L 6576.082878 117.547976 
L 6579.667845 117.462326 
L 6583.252811 118.458399 
L 6586.837777 102.327734 
L 6590.422743 93.578792 
L 6594.00771 104.297674 
L 6597.592676 62.104169 
L 6601.177642 43.530906 
L 6604.762608 77.080151 
L 6608.347575 114.547069 
L 6611.932541 87.139215 
L 6615.517507 72.632719 
L 6619.102473 111.428792 
L 6622.68744 73.543142 
L 6626.272406 78.437855 
L 6629.857372 97.750242 
L 6633.442339 137.764441 
L 6637.027305 119.14994 
L 6640.612271 49.399486 
L 6644.197237 77.676526 
L 6647.782204 94.603414 
L 6651.36717 91.066405 
L 6654.952136 130.994955 
L 6658.537102 163.97003 
L 6662.122069 138.738308 
L 6665.707035 142.433927 
L 6669.292001 112.494653 
L 6672.876968 142.516405 
L 6676.461934 143.661571 
L 6680.0469 125.034381 
L 6683.631866 84.363535 
L 6687.216833 102.949486 
L 6690.801799 127.40719 
L 6694.386765 66.072598 
L 6697.971731 76.858097 
L 6701.556698 121.288006 
L 6705.141664 116.659758 
L 6708.72663 157.803263 
L 6712.311597 129.510363 
L 6715.896563 161.701903 
L 6719.481529 91.348731 
L 6723.066495 102.083474 
L 6726.651462 126.201752 
L 6730.236428 82.066858 
L 6733.821394 98.346616 
L 6737.40636 126.671239 
L 6740.991327 152.486647 
L 6744.576293 83.979698 
L 6748.161259 149.523807 
L 6751.746226 104.618066 
L 6755.331192 86.311269 
L 6758.916158 135.975317 
L 6762.501124 108.443746 
L 6766.086091 133.79284 
L 6769.671057 98.806586 
L 6773.256023 107.669728 
L 6776.840989 49.599335 
L 6780.425956 85.54994 
L 6784.010922 84.972598 
L 6787.595888 94.590725 
L 6791.180854 143.176224 
L 6794.765821 123.04858 
L 6798.350787 79.59571 
L 6801.935753 77.587704 
L 6805.52072 83.446767 
L 6809.105686 111.076677 
L 6812.690652 109.344653 
L 6816.275618 97.68997 
L 6819.860585 108.275619 
L 6823.445551 88.509607 
L 6827.030517 117.896918 
L 6830.615483 48.733323 
L 6834.20045 83.240574 
L 6837.785416 83.611722 
L 6841.370382 96.034079 
L 6844.955349 124.993142 
L 6848.540315 101.699637 
L 6852.125281 72.559758 
L 6855.710247 66.681662 
L 6859.295214 72.959456 
L 6862.88018 67.877583 
L 6866.465146 89.756284 
L 6870.050112 104.478489 
L 6873.635079 60.828943 
L 6877.220045 114.413837 
L 6880.805011 51.908701 
L 6884.389978 75.227583 
L 6887.974944 92.030755 
L 6891.55991 76.655076 
L 6895.144876 65.35568 
L 6898.729843 77.838308 
L 6902.314809 25.934683 
L 6905.899775 57.402961 
L 6909.484741 82.174713 
L 6913.069708 59.211118 
L 6916.654674 115.901601 
L 6920.23964 75.865196 
L 6923.824606 109.163837 
L 6927.409573 60.644955 
L 6930.994539 80.966103 
L 6934.579505 109.446163 
L 6938.164472 109.630151 
L 6941.749438 77.882719 
L 6945.334404 111.479547 
L 6948.91937 79.392689 
L 6952.504337 69.019577 
L 6956.089303 95.31716 
L 6959.674269 72.797674 
L 6963.259235 110.423202 
L 6966.844202 61.152508 
L 6970.429168 82.74571 
L 6974.014134 123.289668 
L 6977.599101 134.823807 
L 6981.184067 65.596767 
L 6984.769033 69.292387 
L 6988.353999 84.953565 
L 6991.938966 112.358248 
L 6995.523932 131.397825 
L 6999.108898 105.005076 
L 7002.693864 91.256737 
L 7006.278831 139.550393 
L 7009.863797 115.473353 
L 7013.448763 115.263988 
L 7017.03373 137.294955 
L 7020.618696 107.42864 
L 7024.203662 133.859456 
L 7027.788628 108.015498 
L 7031.373595 108.269275 
L 7034.958561 82.786949 
L 7038.543527 83.55145 
L 7042.128493 93.359909 
L 7045.71346 98.441782 
L 7049.298426 93.594653 
L 7052.883392 91.675468 
L 7056.468358 129.542085 
L 7060.053325 129.805378 
L 7063.638291 76.252205 
L 7067.223257 82.009758 
L 7070.808224 114.24571 
L 7074.39319 128.802961 
L 7077.978156 121.897069 
L 7081.563122 127.302508 
L 7085.148089 115.51142 
L 7088.733055 131.521541 
L 7092.318021 110.309003 
L 7095.902987 126.741027 
L 7099.487954 143.778943 
L 7103.07292 156.788157 
L 7106.657886 130.509607 
L 7110.242853 108.960816 
L 7113.827819 113.884079 
L 7117.412785 38.3729 
L 7120.997751 146.630755 
L 7124.582718 98.416405 
L 7128.167684 147.401601 
L 7131.75265 104.687855 
L 7135.337616 156.927734 
L 7138.922583 111.083021 
L 7142.507549 77.838308 
L 7146.092515 77.076979 
L 7149.677482 99.453716 
L 7153.262448 103.044653 
L 7156.847414 84.112931 
L 7160.43238 107.320785 
L 7164.017347 146.069275 
L 7167.602313 95.009456 
L 7171.187279 132.384381 
L 7174.772245 111.546163 
L 7178.357212 163.51006 
L 7181.942178 141.377583 
L 7185.527144 126.192236 
L 7189.112111 138.18 
L 7192.697077 152.470785 
L 7196.282043 118.150695 
L 7199.867009 110.086949 
L 7203.451976 127.413535 
L 7207.036942 115.901601 
L 7210.621908 156.334532 
L 7214.206874 133.152054 
L 7217.791841 180.256133 
L 7221.376807 120.475921 
L 7224.961773 116.954773 
L 7228.546739 133.856284 
L 7232.131706 177.182266 
L 7235.716672 145.146163 
L 7239.301638 137.824713 
L 7242.886605 138.792236 
L 7246.471571 142.303867 
L 7250.056537 154.342387 
L 7253.641503 195.793595 
L 7257.22647 170.29858 
L 7260.811436 180.024562 
L 7264.396402 158.333021 
L 7267.981368 125.830604 
L 7271.566335 167.437251 
L 7275.151301 159.900091 
L 7278.736267 156.997523 
L 7282.321234 135.061722 
L 7285.9062 168.055831 
L 7289.491166 173.489819 
L 7293.076132 115.343293 
L 7296.661099 145.384079 
L 7300.246065 169.883021 
L 7303.831031 155.119577 
L 7307.415997 179.266405 
L 7311.000964 132.562024 
L 7314.58593 204.482266 
L 7318.170896 129.96716 
L 7321.755863 98.207039 
L 7325.340829 133.424864 
L 7328.925795 159.332266 
L 7332.510761 139.44571 
L 7336.095728 144.340423 
L 7339.680694 130.39858 
L 7343.26566 160.252205 
L 7346.850626 158.726375 
L 7350.435593 177.229849 
L 7354.020559 127.508701 
L 7357.605525 179.815196 
L 7361.190491 173.873656 
L 7364.775458 114.588308 
L 7368.360424 151.220937 
L 7371.94539 144.530755 
L 7375.530357 104.681511 
L 7379.115323 144.905076 
L 7382.700289 161.73997 
L 7386.285255 179.732719 
L 7389.870222 113.173505 
L 7393.455188 102.93997 
L 7397.040154 161.470332 
L 7400.62512 104.656133 
L 7404.210087 142.621088 
L 7407.795053 151.017915 
L 7411.380019 120.241178 
L 7414.964986 168.693444 
L 7418.549952 172.401752 
L 7422.134918 153.920483 
L 7425.719884 151.385891 
L 7429.304851 140.965196 
L 7432.889817 140.340272 
L 7436.474783 166.980453 
L 7440.059749 169.213686 
L 7443.644716 128.57139 
L 7447.229682 141.612326 
L 7450.814648 135.401148 
L 7454.399615 80.839215 
L 7457.984581 146.050242 
L 7461.569547 144.952659 
L 7465.154513 128.647523 
L 7468.73948 176.976073 
L 7472.324446 181.68997 
L 7475.909412 176.59858 
L 7479.494378 111.990272 
L 7483.079345 123.971692 
L 7486.664311 137.418671 
L 7490.249277 130.934683 
L 7493.834243 123.75281 
L 7497.41921 115.270332 
L 7501.004176 165.889215 
L 7504.589142 131.540574 
L 7508.174109 130.579396 
L 7511.759075 189.027281 
L 7515.344041 186.648127 
L 7518.929007 158.193444 
L 7522.513974 122.915347 
L 7526.09894 115.343293 
L 7529.683906 95.28861 
L 7533.268872 102.63861 
L 7536.853839 117.119728 
L 7540.438805 147.252508 
L 7544.023771 131.489819 
L 7547.608738 121.655982 
L 7551.193704 149.095559 
L 7554.77867 100.989063 
L 7558.363636 91.440725 
L 7561.948603 147.119275 
L 7565.533569 141.542538 
L 7569.118535 136.438459 
L 7572.703501 164.829698 
L 7576.288468 115.099033 
L 7579.873434 116.380604 
L 7583.4584 109.414441 
L 7587.043367 110.185287 
L 7590.628333 127.096314 
L 7594.213299 165.257946 
L 7597.798265 157.866707 
L 7601.383232 137.076073 
L 7604.968198 135.991178 
L 7608.553164 127.987704 
L 7612.13813 125.284985 
L 7615.723097 138.354471 
L 7619.308063 106.933776 
L 7622.893029 148.337402 
L 7626.477996 127.070937 
L 7630.062962 118.544048 
L 7633.647928 105.087553 
L 7637.232894 112.95145 
L 7640.817861 62.573656 
L 7644.402827 164.480755 
L 7647.987793 177.470937 
L 7651.572759 158.323505 
L 7655.157726 105.877432 
L 7658.742692 141.552054 
L 7662.327658 127.695861 
L 7665.912624 93.540725 
L 7669.497591 84.487251 
L 7673.082557 107.282719 
L 7676.667523 84.750544 
L 7680.25249 107.11142 
L 7683.837456 106.086798 
L 7687.422422 167.725921 
L 7691.007388 130.918822 
L 7694.592355 150.351752 
L 7698.177321 113.503414 
L 7701.762287 133.700846 
L 7705.347253 107.181208 
L 7708.93222 59.77577 
L 7712.517186 84.994804 
L 7716.102152 107.558701 
L 7719.687119 105.404773 
L 7723.272085 87.542085 
L 7726.857051 100.40855 
L 7730.442017 118.956435 
L 7734.026984 110.626224 
L 7737.61195 83.465801 
L 7741.196916 102.927281 
L 7744.781882 66.469124 
L 7748.366849 97.832719 
L 7751.951815 73.825468 
L 7755.536781 82.133474 
L 7759.121748 95.754924 
L 7762.706714 55.283927 
L 7766.29168 79.557644 
L 7769.876646 74.478943 
L 7773.461613 86.720483 
L 7777.046579 77.755831 
L 7780.631545 75.100695 
L 7787.801478 44.837855 
L 7791.386444 91.891178 
L 7794.97141 88.243142 
L 7798.556376 99.092085 
L 7802.141343 98.124562 
L 7805.726309 55.591631 
L 7809.311275 80.851903 
L 7812.896242 53.932568 
L 7816.481208 58.97003 
L 7820.066174 87.557946 
L 7823.65114 80.166707 
L 7827.236107 75.116556 
L 7830.821073 78.418822 
L 7834.406039 51.743746 
L 7837.991005 70.504169 
L 7841.575972 57.561571 
L 7845.160938 54.992085 
L 7848.745904 86.612628 
L 7852.330871 91.808701 
L 7855.915837 76.639215 
L 7859.500803 95.615347 
L 7863.085769 74.628036 
L 7866.670736 70.012477 
L 7870.255702 80.544199 
L 7873.840668 77.156284 
L 7877.425634 71.544653 
L 7881.010601 103.146163 
L 7884.595567 68.905378 
L 7888.180533 63.112931 
L 7891.7655 52.723958 
L 7895.350466 47.826073 
L 7898.935432 74.83423 
L 7902.520398 131.432719 
L 7906.105365 101.255529 
L 7909.690331 118.737553 
L 7913.275297 39.299184 
L 7916.860263 60.66716 
L 7920.44523 79.519577 
L 7924.030196 45.992538 
L 7927.615162 74.348882 
L 7931.200128 100.319728 
L 7934.785095 97.274411 
L 7938.370061 83.510211 
L 7941.955027 75.040423 
L 7945.539994 48.891934 
L 7949.12496 39.641782 
L 7952.709926 66.973505 
L 7956.294892 59.039819 
L 7959.879859 31.736647 
L 7963.464825 29.097372 
L 7967.049791 68.883172 
L 7970.634757 18.629094 
L 7974.219724 67.002054 
L 7977.80469 73.825468 
L 7981.389656 99.228489 
L 7984.974623 97.547221 
L 7988.559589 39.175468 
L 7992.144555 40.330151 
L 7995.729521 53.688308 
L 7999.314488 50.154471 
L 8002.899454 78.590121 
L 8006.48442 23.783927 
L 8010.069386 12.214894 
L 8013.654353 46.680906 
L 8017.239319 54.132417 
L 8020.824285 75.747825 
L 8024.409252 75.275166 
L 8027.994218 55.756586 
L 8031.579184 17.813837 
L 8035.16415 71.706435 
L 8038.749117 67.423958 
L 8042.334083 52.584381 
L 8045.919049 34.394955 
L 8049.504015 21.721994 
L 8053.088982 49.643746 
L 8056.673948 76.204622 
L 8060.258914 53.497976 
L 8063.843881 80.709154 
L 8067.428847 56.038912 
L 8071.013813 77.36565 
L 8074.598779 69.717462 
L 8078.183746 66.529396 
L 8081.768712 100.272145 
L 8085.353678 66.209003 
L 8088.938644 74.453565 
L 8092.523611 78.009607 
L 8096.108577 63.664894 
L 8099.693543 81.099335 
L 8103.278509 60.467311 
L 8106.863476 54.433776 
L 8110.448442 34.896163 
L 8114.033408 99.180906 
L 8117.618375 81.581511 
L 8121.203341 122.217462 
L 8124.788307 92.957039 
L 8128.373273 77.923958 
L 8131.95824 103.101752 
L 8135.543206 48.654018 
L 8139.128172 64.40719 
L 8142.713138 75.034079 
L 8146.298105 68.762628 
L 8149.883071 58.83997 
L 8153.468037 23.936193 
L 8157.053004 78.24435 
L 8160.63797 47.657946 
L 8164.222936 108.091631 
L 8167.807902 29.979245 
L 8171.392869 50.617613 
L 8178.562801 10.663686 
L 8182.147767 29.690574 
L 8185.732734 40.764743 
L 8189.3177 44.190725 
L 8192.902666 51.613686 
L 8196.487633 33.934985 
L 8200.072599 80.011269 
L 8203.657565 67.877583 
L 8207.242531 94.019728 
L 8210.827498 110.473958 
L 8214.412464 77.622598 
L 8217.99743 90.990272 
L 8221.582396 74.171239 
L 8225.167363 60.851148 
L 8228.752329 96.643142 
L 8232.337295 82.269879 
L 8235.922261 58.621088 
L 8239.507228 63.112931 
L 8243.092194 88.179698 
L 8246.67716 99.862931 
L 8250.262127 91.561269 
L 8253.847093 78.729698 
L 8257.432059 113.497069 
L 8264.601992 101.001752 
L 8268.186958 66.818066 
L 8271.771924 121.992236 
L 8275.35689 101.201601 
L 8278.941857 111.36852 
L 8282.526823 65.75855 
L 8286.111789 84.78861 
L 8289.696756 76.610665 
L 8293.281722 128.504773 
L 8296.866688 73.029245 
L 8300.451654 55.055529 
L 8304.036621 106.686344 
L 8307.621587 101.220634 
L 8311.206553 70.932417 
L 8314.791519 76.179245 
L 8318.376486 92.217915 
L 8321.961452 143.626677 
L 8325.546418 96.484532 
L 8329.131385 60.311873 
L 8332.716351 87.443746 
L 8336.301317 62.510211 
L 8339.886283 99.399789 
L 8343.47125 113.931662 
L 8347.056216 117.357644 
L 8350.641182 65.101903 
L 8354.226148 134.290876 
L 8357.811115 98.987402 
L 8361.396081 109.163837 
L 8364.981047 85.080453 
L 8368.566013 84.791782 
L 8372.15098 97.889819 
L 8375.735946 101.40145 
L 8379.320912 87.034532 
L 8382.905879 97.969124 
L 8386.490845 88.519124 
L 8390.075811 106.169275 
L 8393.660777 134.62713 
L 8397.245744 126.883776 
L 8400.83071 102.124713 
L 8404.415676 113.738157 
L 8408.000642 103.273051 
L 8411.585609 152.930755 
L 8415.170575 122.29994 
L 8418.755541 139.391782 
L 8422.340508 148.454773 
L 8425.925474 113.75719 
L 8429.51044 88.893444 
L 8433.095406 98.343444 
L 8436.680373 122.033474 
L 8440.265339 112.723051 
L 8443.850305 155.573202 
L 8447.435271 160.433021 
L 8451.020238 101.093746 
L 8454.605204 82.276224 
L 8458.19017 87.653112 
L 8461.775137 127.83861 
L 8465.360103 77.425921 
L 8468.945069 138.858852 
L 8472.530035 104.865498 
L 8476.115002 92.154471 
L 8479.699968 54.659003 
L 8483.284934 133.535891 
L 8486.8699 105.604622 
L 8490.454867 135.794502 
L 8494.039833 160.734381 
L 8497.624799 66.887855 
L 8501.209765 119.974713 
L 8504.794732 188.947976 
L 8508.379698 150.948127 
L 8511.964664 139.57577 
L 8515.549631 71.357492 
L 8519.134597 107.847372 
L 8522.719563 113.230604 
L 8526.304529 148.296163 
L 8529.889496 130.509607 
L 8533.474462 137.453565 
L 8537.059428 119.58136 
L 8540.644394 141.751903 
L 8544.229361 106.648278 
L 8547.814327 154.859456 
L 8551.399293 129.167764 
L 8554.98426 99.713837 
L 8558.569226 152.619879 
L 8562.154192 110.940272 
L 8565.739158 101.867764 
L 8569.324125 134.731813 
L 8572.909091 86.669728 
L 8576.494057 112.837251 
L 8580.079023 158.53287 
L 8583.66399 153.485891 
L 8587.248956 110.347069 
L 8590.833922 172.163837 
L 8594.418889 144.359456 
L 8598.003855 169.616556 
L 8601.588821 149.780755 
L 8605.173787 119.375166 
L 8608.758754 126.982115 
L 8612.34372 123.914592 
L 8615.928686 70.14571 
L 8619.513652 129.887855 
L 8623.098619 168.233474 
L 8626.683585 162.14284 
L 8630.268551 134.122749 
L 8633.853518 126.379396 
L 8637.438484 161.029396 
L 8641.02345 149.523807 
L 8644.608416 141.939063 
L 8648.193383 140.026224 
L 8651.778349 145.412628 
L 8655.363315 127.172447 
L 8658.948281 112.738912 
L 8662.533248 108.69435 
L 8666.118214 84.388912 
L 8669.70318 153.247976 
L 8673.288146 146.49435 
L 8676.873113 146.916254 
L 8680.458079 154.596163 
L 8684.043045 140.432266 
L 8687.628012 103.374562 
L 8691.212978 104.713233 
L 8694.797944 126.956737 
L 8698.38291 106.070937 
L 8701.967877 102.997069 
L 8705.552843 107.235136 
L 8709.137809 141.463233 
L 8712.722775 111.717462 
L 8716.307742 145.139819 
L 8719.892708 159.329094 
L 8723.477674 136.574864 
L 8727.062641 151.972749 
L 8730.647607 147.595106 
L 8734.232573 106.115347 
L 8737.817539 140.606737 
L 8741.402506 97.134834 
L 8744.987472 103.393595 
L 8748.572438 72.366254 
L 8752.157404 146.827432 
L 8755.742371 89.172598 
L 8759.327337 161.613082 
L 8762.912303 143.534683 
L 8766.49727 118.47426 
L 8770.082236 170.894955 
L 8773.667202 121.059607 
L 8777.252168 199.955529 
L 8780.837135 169.692689 
L 8784.422101 150.684834 
L 8788.007067 132.511269 
L 8791.592033 78.878792 
L 8795.177 135.762779 
L 8798.761966 107.64435 
L 8802.346932 139.379094 
L 8805.931898 158.123656 
L 8809.516865 159.351299 
L 8813.101831 134.367009 
L 8816.686797 146.589517 
L 8820.271764 142.446616 
L 8823.85673 148.844955 
L 8827.441696 101.937553 
L 8831.026662 99.697976 
L 8834.611629 98.165801 
L 8838.196595 114.585136 
L 8841.781561 163.598882 
L 8845.366527 169.039215 
L 8848.951494 172.791934 
L 8852.53646 151.075015 
L 8856.121426 143.115952 
L 8859.706393 172.309758 
L 8863.291359 183.939063 
L 8866.876325 135.946767 
L 8870.461291 197.357492 
L 8874.046258 133.133021 
L 8877.631224 165.587855 
L 8881.21619 140.806586 
L 8884.801156 117.303716 
L 8888.386123 129.523051 
L 8891.971089 197.589063 
L 8895.556055 153.317764 
L 8899.141022 178.156133 
L 8902.725988 152.480302 
L 8906.310954 157.606586 
L 8909.89592 168.982115 
L 8913.480887 134.918973 
L 8917.065853 154.618369 
L 8920.650819 142.313384 
L 8924.235785 140.137251 
L 8927.820752 142.097674 
L 8931.405718 197.049789 
L 8934.990684 169.102659 
L 8938.57565 146.757644 
L 8942.160617 205.281662 
L 8945.745583 177.172749 
L 8949.330549 117.300544 
L 8952.915516 109.259003 
L 8956.500482 132.044955 
L 8960.085448 148.216858 
L 8963.670414 145.606133 
L 8967.255381 178.092689 
L 8970.840347 159.224411 
L 8974.425313 168.06852 
L 8978.010279 152.524713 
L 8981.595246 128.314441 
L 8985.180212 153.374864 
L 8988.765178 119.638459 
L 8992.350145 132.476375 
L 8995.935111 134.243293 
L 8999.520077 127.289819 
L 9003.105043 158.634381 
L 9006.69001 139.090423 
L 9010.274976 147.430151 
L 9013.859942 191.837855 
L 9017.444908 211.68 
L 9021.029875 183.796314 
L 9024.614841 122.886798 
L 9028.199807 118.068218 
L 9031.784774 132.117915 
L 9035.36974 74.291782 
L 9038.954706 123.296012 
L 9042.539672 104.275468 
L 9046.124639 120.425166 
L 9049.709605 135.229849 
L 9053.294571 135.581964 
L 9056.879537 194.010816 
L 9060.464504 148.470634 
L 9064.04947 149.612628 
L 9067.634436 186.629094 
L 9071.219403 156.832568 
L 9074.804369 121.763837 
L 9078.389335 75.440121 
L 9081.974301 121.687704 
L 9085.559268 98.638459 
L 9089.144234 134.313082 
L 9092.7292 135.37577 
L 9096.314166 155.255982 
L 9099.899133 169.86716 
L 9107.069065 122.842387 
L 9110.654031 137.396465 
L 9114.238998 144.698882 
L 9117.823964 80.705982 
L 9121.40893 111.838006 
L 9124.993897 109.243142 
L 9128.578863 140.647976 
L 9132.163829 93.896012 
L 9135.748795 136.45432 
L 9139.333762 105.246163 
L 9142.918728 139.969124 
L 9146.503694 123.302356 
L 9150.08866 119.508399 
L 9153.673627 155.725468 
L 9157.258593 138.348127 
L 9160.843559 137.459909 
L 9164.428526 116.13 
L 9168.013492 108.304169 
L 9171.598458 139.375921 
L 9175.183424 102.445106 
L 9178.768391 179.812024 
L 9182.353357 90.09571 
L 9185.938323 134.516103 
L 9189.523289 156.464592 
L 9193.108256 150.523051 
L 9196.693222 164.347523 
L 9200.278188 109.097221 
L 9203.863155 107.162175 
L 9207.448121 118.747069 
L 9211.033087 125.507039 
L 9214.618053 142.586193 
L 9218.20302 144.546616 
L 9221.787986 157.768369 
L 9225.372952 133.063233 
L 9228.957918 120.992991 
L 9232.542885 161.746314 
L 9236.127851 100.909758 
L 9239.712817 155.097372 
L 9243.297783 133.399486 
L 9246.88275 131.724562 
L 9250.467716 174.130604 
L 9254.052682 188.675166 
L 9257.637649 109.531813 
L 9261.222615 160.667764 
L 9264.807581 124.888459 
L 9268.392547 134.084683 
L 9271.977514 158.593142 
L 9275.56248 153.682568 
L 9279.147446 185.40145 
L 9282.732412 155.078338 
L 9286.317379 138.709758 
L 9289.902345 142.817764 
L 9293.487311 151.820483 
L 9297.072278 142.81142 
L 9300.657244 178.42577 
L 9304.24221 154.142538 
L 9307.827176 163.059607 
L 9311.412143 119.647976 
L 9314.997109 137.459909 
L 9318.582075 176.373353 
L 9322.167041 138.659003 
L 9325.752008 154.234532 
L 9329.336974 155.113233 
L 9332.92194 145.996314 
L 9336.506907 134.335287 
L 9340.091873 117.85568 
L 9343.676839 100.630604 
L 9347.261805 93.385287 
L 9350.846772 188.380151 
L 9354.431738 134.030755 
L 9358.016704 171.373958 
L 9361.60167 89.591329 
L 9365.186637 92.760363 
L 9368.771603 136.203716 
L 9372.356569 138.059456 
L 9375.941535 77.219728 
L 9383.111468 154.932417 
L 9386.696434 135.829396 
L 9390.281401 88.293897 
L 9393.866367 111.971239 
L 9397.451333 136.657341 
L 9401.036299 137.862779 
L 9404.621266 122.579094 
L 9408.206232 107.885438 
L 9411.791198 109.842689 
L 9415.376164 90.980755 
L 9418.961131 177.528036 
L 9422.546097 134.170332 
L 9426.131063 153.355831 
L 9429.71603 112.326526 
L 9433.300996 140.457644 
L 9436.885962 111.898278 
L 9440.470928 133.326526 
L 9444.055895 117.116556 
L 9447.640861 121.849486 
L 9451.225827 109.075015 
L 9454.810793 97.09994 
L 9458.39576 126.322296 
L 9461.980726 79.240423 
L 9465.565692 146.545106 
L 9469.150659 117.436949 
L 9472.735625 86.441329 
L 9476.320591 99.139668 
L 9479.905557 143.718671 
L 9487.07549 121.760665 
L 9490.660456 113.014894 
L 9494.245422 81.606888 
L 9497.830389 143.3729 
L 9501.415355 86.59994 
L 9505.000321 125.015347 
L 9508.585288 110.137704 
L 9512.170254 123.578338 
L 9515.75522 118.182417 
L 9519.340186 101.347523 
L 9522.925153 107.993293 
L 9526.510119 96.015045 
L 9530.095085 128.190725 
L 9533.680051 83.79571 
L 9537.265018 114.670785 
L 9540.849984 101.331662 
L 9544.43495 123.987553 
L 9548.019916 95.672447 
L 9551.604883 126.433323 
L 9555.189849 144.223051 
L 9558.774815 101.017613 
L 9562.359782 102.571994 
L 9565.944748 113.811118 
L 9569.529714 89.362931 
L 9573.11468 99.012779 
L 9576.699647 126.392085 
L 9580.284613 111.222598 
L 9583.869579 139.651903 
L 9587.454545 106.280302 
L 9587.454545 106.280302 
" clip-path="url(#pf0213263fa)" style="fill: none; stroke: #1f77b4; stroke-width: 1.5; stroke-linecap: square"/>
   </g>
  </g>
 </g>
 <defs>
  <clipPath id="pf0213263fa">
   <rect x="0" y="-0" width="10044" height="221.76"/>
  </clipPath>
 </defs>
</svg>
