<?xml version="1.0" encoding="utf-8" standalone="no"?>
<!DOCTYPE svg PUBLIC "-//W3C//DTD SVG 1.1//EN"
  "http://www.w3.org/Graphics/SVG/1.1/DTD/svg11.dtd">
<svg xmlns:xlink="http://www.w3.org/1999/xlink" width="10044pt" height="221.76pt" viewBox="0 0 10044 221.76" xmlns="http://www.w3.org/2000/svg" version="1.1">
 <metadata>
  <rdf:RDF xmlns:dc="http://purl.org/dc/elements/1.1/" xmlns:cc="http://creativecommons.org/ns#" xmlns:rdf="http://www.w3.org/1999/02/22-rdf-syntax-ns#">
   <cc:Work>
    <dc:type rdf:resource="http://purl.org/dc/dcmitype/StillImage"/>
    <dc:date>2025-08-12T08:23:40.440327</dc:date>
    <dc:format>image/svg+xml</dc:format>
    <dc:creator>
     <cc:Agent>
      <dc:title>Matplotlib v3.9.2, https://matplotlib.org/</dc:title>
     </cc:Agent>
    </dc:creator>
   </cc:Work>
  </rdf:RDF>
 </metadata>
 <defs>
  <style type="text/css">*{stroke-linejoin: round; stroke-linecap: butt}</style>
 </defs>
 <g id="figure_1">
  <g id="patch_1">
   <path d="M 0 221.76 
L 10044 221.76 
L 10044 0 
L 0 0 
z
" style="fill: #ffffff"/>
  </g>
  <g id="axes_1">
   <g id="line2d_1">
    <path d="M 456.545455 118.356078 
L 460.130421 128.078431 
L 463.715387 83.629804 
L 467.300353 87.541961 
L 470.88532 122.494118 
L 474.470286 105.458824 
L 478.055252 68.495686 
L 481.640218 78.224314 
L 485.225185 69.904314 
L 488.810151 64.577255 
L 492.395117 95.256471 
L 495.980084 108.96 
L 499.56505 102.302745 
L 503.150016 116.759216 
L 506.734982 112.341961 
L 510.319949 74.75451 
L 513.904915 66.839216 
L 517.489881 76.360784 
L 521.074847 84.276078 
L 524.659814 111.654902 
L 528.24478 86.563137 
L 531.829746 83.673725 
L 535.414712 102.029804 
L 538.999679 102.11451 
L 542.584645 114.001569 
L 546.169611 119.300392 
L 549.754578 112.862745 
L 553.339544 118.751373 
L 556.92451 90.632157 
L 560.509476 89.37098 
L 564.094443 110.334118 
L 567.679409 79.043137 
L 571.264375 93.367843 
L 574.849341 110.519216 
L 578.434308 135.00549 
L 582.019274 122.534902 
L 585.60424 130.450196 
L 589.189207 120.326275 
L 592.774173 133.612549 
L 596.359139 157.490196 
L 599.944105 128.028235 
L 603.529072 113.578039 
L 607.114038 115.585882 
L 610.699004 81.289412 
L 614.28397 73.72549 
L 617.868937 109.113725 
L 621.453903 114.607059 
L 625.038869 148.787451 
L 628.623836 130.447059 
L 632.208802 131.858824 
L 635.793768 136.887843 
L 639.378734 120.266667 
L 642.963701 110.036078 
L 646.548667 120.398431 
L 650.133633 110.861176 
L 653.718599 102.453333 
L 657.303566 99.865098 
L 660.888532 123.698824 
L 664.473498 106.007843 
L 668.058465 131.316078 
L 671.643431 125.869804 
L 675.228397 123.140392 
L 678.813363 126.14902 
L 682.39833 119.570196 
L 685.983296 142.343529 
L 689.568262 114.202353 
L 693.153228 84.821961 
L 696.738195 85.82902 
L 700.323161 94.142745 
L 703.908127 98.230588 
L 707.493093 154.905098 
L 711.07806 145.69098 
L 714.663026 137.072941 
L 718.247992 112.875294 
L 721.832959 113.327059 
L 725.417925 126.832941 
L 729.002891 118.246275 
L 732.587857 114.409412 
L 736.172824 95.827451 
L 739.75779 102.895686 
L 743.342756 88.260392 
L 746.927722 106.867451 
L 750.512689 117.781961 
L 757.682621 188.567843 
L 761.267588 153.653333 
L 764.852554 136.112941 
L 768.43752 130.30902 
L 772.022486 125.957647 
L 775.607453 111.642353 
L 779.192419 111.118431 
L 782.777385 118.120784 
L 786.362351 84.511373 
L 789.947318 113.803922 
L 793.532284 95.196863 
L 797.11725 106.625882 
L 800.702217 134.258824 
L 804.287183 156.727843 
L 807.872149 129.110588 
L 811.457115 139.55451 
L 815.042082 88.053333 
L 818.627048 87.689412 
L 822.212014 91.978039 
L 825.79698 71.07451 
L 829.381947 94.381176 
L 832.966913 132.931765 
L 836.551879 112.793725 
L 840.136845 104.57098 
L 843.721812 117.305098 
L 847.306778 132.712157 
L 850.891744 107.764706 
L 854.476711 93.66902 
L 858.061677 110.757647 
L 861.646643 105.665882 
L 865.231609 94.763922 
L 868.816576 102.164706 
L 872.401542 98.406275 
L 875.986508 125.618824 
L 879.571474 80.06902 
L 883.156441 133.113725 
L 886.741407 150.230588 
L 890.326373 142.33098 
L 893.91134 148.461176 
L 897.496306 126.340392 
L 901.081272 101.901176 
L 904.666238 92.687059 
L 908.251205 74.478431 
L 911.836171 76.473725 
L 915.421137 69.082353 
L 919.006103 72.781176 
L 922.59107 74.064314 
L 926.176036 105.502745 
L 929.761002 92.417255 
L 933.345969 147.32549 
L 936.930935 152.06902 
L 940.515901 124.32 
L 944.100867 109.612549 
L 947.685834 65.813333 
L 951.2708 66.870588 
L 954.855766 56.511373 
L 958.440732 72.464314 
L 962.025699 93.778824 
L 965.610665 124 
L 969.195631 120.244706 
L 972.780597 110.534902 
L 976.365564 152.859608 
L 979.95053 121.072941 
L 983.535496 127.592157 
L 987.120463 109.088627 
L 990.705429 132.699608 
L 994.290395 99.48549 
L 997.875361 78.152157 
L 1001.460328 92.131765 
L 1005.045294 100.790588 
L 1008.63026 118.356078 
L 1012.215226 173.926275 
L 1015.800193 169.358431 
L 1019.385159 162.782745 
L 1022.970125 151.943529 
L 1026.555092 151.827451 
L 1030.140058 148.878431 
L 1033.725024 119.134118 
L 1037.30999 101.044706 
L 1040.894957 120.618039 
L 1044.479923 117.722353 
L 1048.064889 108.451765 
L 1051.649855 104.35451 
L 1055.234822 119.648627 
L 1058.819788 168.081569 
L 1062.404754 184.266667 
L 1065.989721 153.21098 
L 1069.574687 139.149804 
L 1073.159653 130.544314 
L 1076.744619 106.246275 
L 1080.329586 84.774902 
L 1083.914552 84.602353 
L 1087.499518 92.912941 
L 1091.084484 130.462745 
L 1094.669451 121.098039 
L 1098.254417 115.10902 
L 1101.839383 117.132549 
L 1105.42435 143.943529 
L 1109.009316 135.435294 
L 1112.594282 108.094118 
L 1116.179248 122.967843 
L 1119.764215 109.546667 
L 1123.349181 83.827451 
L 1126.934147 90.961569 
L 1130.519113 108.683922 
L 1134.10408 105.367843 
L 1137.689046 121.433725 
L 1141.274012 153.022745 
L 1144.858978 167.523137 
L 1148.443945 154.516078 
L 1152.028911 149.681569 
L 1155.613877 171.661176 
L 1159.198844 121.383529 
L 1162.78381 121.499608 
L 1166.368776 113.072941 
L 1173.538709 116.185098 
L 1177.123675 120.812549 
L 1180.708641 107.912157 
L 1184.293607 112.690196 
L 1187.878574 112.345098 
L 1191.46354 164.944314 
L 1195.048506 178.36549 
L 1198.633473 175.978039 
L 1205.803405 117.192157 
L 1209.388371 78.189804 
L 1212.973338 102.261961 
L 1216.558304 112.740392 
L 1220.14327 114.421961 
L 1223.728236 101.659608 
L 1227.313203 136.624314 
L 1230.898169 158.092549 
L 1234.483135 143.441569 
L 1238.068102 156.338824 
L 1241.653068 144.545882 
L 1245.238034 115.541961 
L 1248.823 97.480784 
L 1252.407967 97.941961 
L 1255.992933 98.578824 
L 1259.577899 83.278431 
L 1263.162865 101.195294 
L 1266.747832 117.129412 
L 1270.332798 127.48549 
L 1273.917764 134.848627 
L 1277.50273 142.481569 
L 1281.087697 130.729412 
L 1284.672663 123.736471 
L 1288.257629 100.225882 
L 1291.842596 110.817255 
L 1295.427562 62.475294 
L 1299.012528 77.766275 
L 1302.597494 51.855686 
L 1306.182461 71.843137 
L 1309.767427 66.494118 
L 1313.352393 107.510588 
L 1316.937359 97.12 
L 1320.522326 140.128627 
L 1324.107292 154.174118 
L 1327.692258 97.160784 
L 1331.277225 79.579608 
L 1334.862191 71.26902 
L 1338.447157 65.653333 
L 1342.032123 49.016471 
L 1345.61709 68.313725 
L 1349.202056 65.979608 
L 1352.787022 93.769412 
L 1356.371988 74.748235 
L 1359.956955 87.466667 
L 1363.541921 91.783529 
L 1367.126887 120.432941 
L 1370.711854 123.896471 
L 1374.29682 118.318431 
L 1377.881786 97.847843 
L 1381.466752 40.473725 
L 1385.051719 47.68 
L 1388.636685 50.908235 
L 1392.221651 54.487843 
L 1395.806617 104.272941 
L 1399.391584 131.397647 
L 1402.97655 118.17098 
L 1406.561516 113.455686 
L 1410.146482 114.958431 
L 1413.731449 121.47451 
L 1417.316415 96.517647 
L 1420.901381 110.967843 
L 1424.486348 86.672941 
L 1428.071314 89.574902 
L 1431.65628 75.993725 
L 1435.241246 83.64549 
L 1438.826213 71.736471 
L 1442.411179 91.642353 
L 1445.996145 135.156078 
L 1449.581111 139.372549 
L 1453.166078 151.651765 
L 1456.751044 141.879216 
L 1460.33601 126.378039 
L 1463.920977 75.043137 
L 1467.505943 63.774118 
L 1471.090909 37.888627 
L 1474.675875 77.524706 
L 1478.260842 114.550588 
L 1481.845808 109.345882 
L 1485.430774 78.020392 
L 1489.01574 123.551373 
L 1492.600707 111.937255 
L 1496.185673 127.636078 
L 1499.770639 122.585098 
L 1503.355606 112.586667 
L 1506.940572 97.298824 
L 1510.525538 67.463529 
L 1514.110504 76.38902 
L 1517.695471 74.610196 
L 1521.280437 84.981961 
L 1524.865403 79.654902 
L 1528.450369 93.198431 
L 1532.035336 137.025882 
L 1535.620302 132.881569 
L 1539.205268 136.859608 
L 1542.790235 130.773333 
L 1546.375201 132.414118 
L 1549.960167 120.263529 
L 1553.545133 103.193725 
L 1557.1301 80.235294 
L 1560.715066 78.293333 
L 1564.300032 77.694118 
L 1567.884998 54.817255 
L 1571.469965 100.821961 
L 1575.054931 124.558431 
L 1578.639897 131.607843 
L 1582.224863 153.141961 
L 1585.80983 136.219608 
L 1589.394796 93.298824 
L 1592.979762 65.483922 
L 1596.564729 83.338039 
L 1600.149695 103.77098 
L 1603.734661 76.627451 
L 1607.319627 92.803137 
L 1610.904594 92.018824 
L 1614.48956 95.391373 
L 1618.074526 89.201569 
L 1621.659492 114.396863 
L 1625.244459 120.621176 
L 1628.829425 131.021176 
L 1632.414391 106.68549 
L 1635.999358 88.790588 
L 1639.584324 57.618824 
L 1643.16929 51.334902 
L 1646.754256 58.409412 
L 1650.339223 43.58902 
L 1653.924189 77.248627 
L 1657.509155 88.172549 
L 1661.094121 83.595294 
L 1664.679088 100.665098 
L 1668.264054 94.779608 
L 1671.84902 119.287843 
L 1675.433987 83.689412 
L 1679.018953 89.330196 
L 1682.603919 112.279216 
L 1686.188885 60.696471 
L 1689.773852 37.612549 
L 1693.358818 56.900392 
L 1696.943784 46.180392 
L 1704.113717 113.113725 
L 1707.698683 132.564706 
L 1711.283649 124.313725 
L 1714.868615 103.858824 
L 1718.453582 61.098039 
L 1722.038548 72.734118 
L 1725.623514 61.621961 
L 1729.208481 63.303529 
L 1732.793447 70.908235 
L 1736.378413 54.064314 
L 1739.963379 67.755294 
L 1743.548346 78.751373 
L 1747.133312 73.970196 
L 1750.718278 85.364706 
L 1754.303244 141.876078 
L 1757.888211 104.545882 
L 1761.473177 114.704314 
L 1765.058143 92.345098 
L 1768.64311 58.826667 
L 1772.228076 14.302745 
L 1775.813042 32.762353 
L 1779.398008 22.751373 
L 1782.982975 51.736471 
L 1786.567941 90.644706 
L 1790.152907 81.016471 
L 1793.737873 79.043137 
L 1797.32284 77.411765 
L 1800.907806 95.240784 
L 1804.492772 62.647843 
L 1808.077739 83.883922 
L 1811.662705 74.597647 
L 1815.247671 81.016471 
L 1818.832637 73.386667 
L 1822.417604 40.661961 
L 1826.00257 47.692549 
L 1829.587536 83.607843 
L 1833.172502 74.218039 
L 1836.757469 130.961569 
L 1840.342435 119.306667 
L 1843.927401 110.032941 
L 1847.512367 88.552157 
L 1851.097334 93.261176 
L 1854.6823 49.123137 
L 1858.267266 67.400784 
L 1861.852233 57.126275 
L 1865.437199 69.286275 
L 1869.022165 85.665882 
L 1872.607131 66.01098 
L 1876.192098 90.083137 
L 1879.777064 115.689412 
L 1883.36203 115.761569 
L 1886.946996 128.100392 
L 1890.531963 131.742745 
L 1894.116929 79.761569 
L 1897.701895 62.321569 
L 1901.286862 34.738824 
L 1904.871828 58.067451 
L 1908.456794 62.503529 
L 1912.04176 91.488627 
L 1915.626727 106.186667 
L 1919.211693 95.312941 
L 1922.796659 101.327059 
L 1926.381625 103.974902 
L 1929.966592 125.872941 
L 1933.551558 119.090196 
L 1937.136524 80.903529 
L 1940.721491 105.254902 
L 1944.306457 78.563137 
L 1947.891423 77.490196 
L 1951.476389 70.418824 
L 1955.061356 83.29098 
L 1958.646322 97.345882 
L 1962.231288 126.989804 
L 1965.816254 136.025098 
L 1969.401221 148.633725 
L 1972.986187 109.869804 
L 1976.571153 144.803137 
L 1980.156119 103.221961 
L 1983.741086 76.12549 
L 1987.326052 94.083137 
L 1990.911018 82.017255 
L 1994.495985 82.230588 
L 1998.080951 86.318431 
L 2001.665917 93.386667 
L 2005.250883 132.09098 
L 2008.83585 120.003137 
L 2012.420816 138.189804 
L 2016.005782 151.761569 
L 2019.590748 128.310588 
L 2023.175715 130.701176 
L 2026.760681 83.476078 
L 2030.345647 97.650196 
L 2033.930614 99.00549 
L 2037.51558 114.760784 
L 2041.100546 111.887059 
L 2044.685512 113.675294 
L 2048.270479 128.740392 
L 2051.855445 136.705882 
L 2055.440411 129.192157 
L 2059.025377 162.939608 
L 2062.610344 155.701961 
L 2066.19531 120.881569 
L 2069.780276 121.496471 
L 2073.365243 91.435294 
L 2076.950209 95.974902 
L 2080.535175 124.956863 
L 2084.120141 103.322353 
L 2087.705108 90.603922 
L 2091.290074 119.849412 
L 2094.87504 166.522353 
L 2098.460006 172.043922 
L 2102.044973 144.235294 
L 2105.629939 134.27451 
L 2109.214905 144.329412 
L 2112.799872 146.30902 
L 2116.384838 84.473725 
L 2119.969804 85.091765 
L 2123.55477 116.294902 
L 2127.139737 91.466667 
L 2130.724703 90.497255 
L 2134.309669 110.763922 
L 2137.894635 126.450196 
L 2141.479602 167.033725 
L 2145.064568 165.402353 
L 2148.649534 136.586667 
L 2152.2345 91.742745 
L 2155.819467 92.988235 
L 2159.404433 85.003922 
L 2162.989399 79.796078 
L 2166.574366 81.493333 
L 2170.159332 104.451765 
L 2173.744298 105.888627 
L 2177.329264 115.256471 
L 2180.914231 140.99451 
L 2184.499197 128.367059 
L 2188.084163 147.607843 
L 2191.669129 154.17098 
L 2195.254096 115.397647 
L 2198.839062 154.832941 
L 2202.424028 90.59451 
L 2206.008995 83.181176 
L 2209.593961 85.734902 
L 2213.178927 106.676078 
L 2216.763893 119.196863 
L 2220.34886 128.197647 
L 2223.933826 153.703529 
L 2227.518792 176.018824 
L 2231.103758 143.686275 
L 2234.688725 118.186667 
L 2238.273691 123.275294 
L 2241.858657 110.393725 
L 2245.443624 114.33098 
L 2249.02859 80.938039 
L 2252.613556 108.60549 
L 2256.198522 98.566275 
L 2259.783489 98.967843 
L 2263.368455 130.403137 
L 2266.953421 149.276863 
L 2270.538387 160.806275 
L 2274.123354 163.896471 
L 2281.293286 101.800784 
L 2284.878252 147.836863 
L 2288.463219 114.017255 
L 2292.048185 114.409412 
L 2295.633151 106.779608 
L 2299.218118 133.113725 
L 2302.803084 134.017255 
L 2306.38805 131.115294 
L 2309.973016 146.961569 
L 2313.557983 139.720784 
L 2317.142949 156.279216 
L 2320.727915 161.625098 
L 2324.312881 130.443922 
L 2327.897848 135.824314 
L 2331.482814 85.28 
L 2335.06778 78.585098 
L 2338.652747 86.406275 
L 2342.237713 112.985098 
L 2345.822679 114.061176 
L 2349.407645 139.843137 
L 2352.992612 141.236078 
L 2356.577578 124.298039 
L 2360.162544 120.784314 
L 2363.74751 109.499608 
L 2367.332477 99.717647 
L 2370.917443 124.60549 
L 2374.502409 98.007843 
L 2378.087376 106.908235 
L 2381.672342 96.483137 
L 2385.257308 74.092549 
L 2388.842274 90.196078 
L 2392.427241 93.819608 
L 2396.012207 153.662745 
L 2399.597173 152.702745 
L 2403.182139 160.414118 
L 2406.767106 106.271373 
L 2410.352072 112.73098 
L 2413.937038 125.926275 
L 2417.522004 63.196863 
L 2421.106971 89.449412 
L 2424.691937 67.102745 
L 2428.276903 97.364706 
L 2431.86187 95.667451 
L 2435.446836 108.916078 
L 2439.031802 95.592157 
L 2442.616768 120.567843 
L 2446.201735 120.244706 
L 2449.786701 104.059608 
L 2453.371667 128.83451 
L 2456.956633 113.590588 
L 2460.5416 82.462745 
L 2464.126566 88.003137 
L 2467.711532 85.443137 
L 2471.296499 92.338824 
L 2474.881465 98.923922 
L 2478.466431 107.890196 
L 2482.051397 120.398431 
L 2485.636364 137.603137 
L 2489.22133 111.303529 
L 2492.806296 103.604706 
L 2499.976229 124.28549 
L 2503.561195 94.352941 
L 2507.146161 102.487843 
L 2510.731128 93.894902 
L 2514.316094 91.585882 
L 2517.90106 72.134902 
L 2521.486026 108.298039 
L 2525.070993 102.211765 
L 2528.655959 163.472941 
L 2532.240925 141.982745 
L 2535.825891 126.095686 
L 2539.410858 119.905882 
L 2542.995824 83.595294 
L 2546.58079 99.253333 
L 2550.165757 93.810196 
L 2553.750723 82.048627 
L 2557.335689 120.451765 
L 2560.920655 114.111373 
L 2564.505622 109.163922 
L 2568.090588 122.898824 
L 2571.675554 131.774118 
L 2575.26052 121.907451 
L 2578.845487 142.136471 
L 2582.430453 144.743529 
L 2586.015419 117.609412 
L 2589.600385 98.516078 
L 2593.185352 101.226667 
L 2596.770318 66.321569 
L 2600.355284 100.35451 
L 2603.940251 111.639216 
L 2607.525217 139.469804 
L 2611.110183 140.357647 
L 2614.695149 138.196078 
L 2618.280116 126.773333 
L 2621.865082 86.418824 
L 2625.450048 124.687059 
L 2629.035014 123.711373 
L 2632.619981 122.334118 
L 2636.204947 97.50902 
L 2639.789913 82.396863 
L 2643.37488 71.632941 
L 2646.959846 109.95451 
L 2650.544812 105.549804 
L 2654.129778 125.132549 
L 2657.714745 147.742745 
L 2661.299711 147.036863 
L 2664.884677 142.462745 
L 2668.469643 134.989804 
L 2672.05461 89.18902 
L 2675.639576 126.56 
L 2679.224542 118.359216 
L 2682.809509 133.264314 
L 2686.394475 109.857255 
L 2689.979441 128.395294 
L 2693.564407 97.643922 
L 2697.149374 126.858039 
L 2700.73434 117.248627 
L 2704.319306 145.355294 
L 2707.904272 163.29098 
L 2711.489239 134.236863 
L 2715.074205 107.049412 
L 2718.659171 86.384314 
L 2722.244137 88.392157 
L 2725.829104 75.843137 
L 2729.41407 109.552941 
L 2732.999036 81.126275 
L 2736.584003 113.929412 
L 2740.168969 120.432941 
L 2743.753935 124.094118 
L 2747.338901 118.11451 
L 2750.923868 122.669804 
L 2754.508834 140.555294 
L 2758.0938 110.487843 
L 2761.678766 145.923137 
L 2765.263733 119.353725 
L 2768.848699 76.831373 
L 2772.433665 77.148235 
L 2776.018632 95.598431 
L 2779.603598 111.127843 
L 2783.188564 135.469804 
L 2786.77353 151.378824 
L 2790.358497 136.244706 
L 2793.943463 145.612549 
L 2797.528429 110.49098 
L 2801.113395 96.825098 
L 2804.698362 107.642353 
L 2808.283328 113.433725 
L 2815.453261 127.196863 
L 2819.038227 105.750588 
L 2822.623193 95.127843 
L 2826.208159 110.280784 
L 2829.793126 133.010196 
L 2833.378092 163.099608 
L 2836.963058 156.116078 
L 2840.548024 134.832941 
L 2844.132991 125.057255 
L 2847.717957 125.239216 
L 2851.302923 95.912157 
L 2854.887889 101.894902 
L 2858.472856 95.228235 
L 2862.057822 107.786667 
L 2865.642788 117.69098 
L 2869.227755 125.461961 
L 2872.812721 134.773333 
L 2876.397687 109.352157 
L 2879.982653 99.582745 
L 2883.56762 168.558431 
L 2887.152586 147.378824 
L 2890.737552 146.315294 
L 2894.322518 134.108235 
L 2897.907485 116.489412 
L 2901.492451 106.503529 
L 2905.077417 112.448627 
L 2908.662384 99.730196 
L 2912.24735 168.941176 
L 2915.832316 178.054902 
L 2919.417282 169.038431 
L 2923.002249 169.69098 
L 2926.587215 137.6 
L 2930.172181 134.553725 
L 2933.757147 116.291765 
L 2937.342114 153.659608 
L 2940.92708 125.876078 
L 2944.512046 145.345882 
L 2948.097013 123.642353 
L 2951.681979 125.132549 
L 2955.266945 133.038431 
L 2958.851911 148.414118 
L 2962.436878 169.465098 
L 2966.021844 211.68 
L 2969.60681 173.195294 
L 2973.191776 150.676078 
L 2976.776743 138.265098 
L 2980.361709 110.961569 
L 2983.946675 92.112941 
L 2987.531642 123.843137 
L 2991.116608 151.535686 
L 2994.701574 115.422745 
L 2998.28654 163.598431 
L 3001.871507 144.216471 
L 3005.456473 132.501961 
L 3009.041439 135.221961 
L 3012.626405 163.52 
L 3016.211372 144.075294 
L 3019.796338 143.356863 
L 3023.381304 119.80549 
L 3026.96627 111.792941 
L 3030.551237 78.986667 
L 3034.136203 106.036078 
L 3037.721169 95.723922 
L 3041.306136 133.000784 
L 3044.891102 147.435294 
L 3048.476068 154.227451 
L 3052.061034 140.06902 
L 3055.646001 128.966275 
L 3059.230967 120.087843 
L 3062.815933 120.100392 
L 3066.400899 127.287843 
L 3069.985866 117.214118 
L 3073.570832 134.801569 
L 3077.155798 106.136471 
L 3080.740765 111.849412 
L 3084.325731 110.01098 
L 3087.910697 122.534902 
L 3095.08063 183.55451 
L 3098.665596 152.053333 
L 3102.250562 157.179608 
L 3105.835528 120.586667 
L 3109.420495 100.555294 
L 3113.005461 101.731765 
L 3116.590427 71.934118 
L 3120.175394 124.92549 
L 3123.76036 141.019608 
L 3127.345326 148.128627 
L 3130.930292 126.804706 
L 3134.515259 115.011765 
L 3138.100225 123.949804 
L 3141.685191 161.226667 
L 3145.270157 129.546667 
L 3148.855124 130.506667 
L 3152.44009 136.037647 
L 3156.025056 107.758431 
L 3159.610022 88.106667 
L 3166.779955 121.414902 
L 3170.364921 116.442353 
L 3173.949888 147.664314 
L 3177.534854 155.871373 
L 3181.11982 124.759216 
L 3184.704786 116.752941 
L 3188.289753 109.941961 
L 3191.874719 99.265882 
L 3195.459685 142.792157 
L 3199.044651 133.305098 
L 3202.629618 95.463529 
L 3206.214584 71.529412 
L 3209.79955 105.803922 
L 3213.384517 108.040784 
L 3216.969483 110.901961 
L 3220.554449 138.996078 
L 3224.139415 130.578824 
L 3227.724382 146.716863 
L 3231.309348 100.966275 
L 3234.894314 112.22902 
L 3238.47928 101.342745 
L 3242.064247 72.269804 
L 3245.649213 75.880784 
L 3249.234179 88.784314 
L 3252.819146 117.094902 
L 3256.404112 124.138039 
L 3259.989078 89.377255 
L 3263.574044 81.932549 
L 3267.159011 106.271373 
L 3270.743977 117.98902 
L 3274.328943 154.983529 
L 3277.913909 164.100392 
L 3281.498876 124.875294 
L 3285.083842 121.041569 
L 3288.668808 67.664314 
L 3292.253774 63.852549 
L 3295.838741 102.318431 
L 3299.423707 97.336471 
L 3303.008673 125.270588 
L 3306.59364 115.378824 
L 3310.178606 110.387451 
L 3313.763572 127.212549 
L 3317.348538 114.023529 
L 3320.933505 88.881569 
L 3324.518471 93.430588 
L 3328.103437 149.377255 
L 3331.688403 107.827451 
L 3335.27337 117.364706 
L 3338.858336 79.821176 
L 3342.443302 73.352157 
L 3346.028269 122.105098 
L 3349.613235 90.553725 
L 3353.198201 143.708235 
L 3356.783167 157.342745 
L 3360.368134 116.232157 
L 3363.9531 112.467451 
L 3367.538066 91.651765 
L 3371.123032 113.342745 
L 3374.707999 104.54902 
L 3378.292965 131.686275 
L 3381.877931 93.361569 
L 3385.462898 87.121569 
L 3389.047864 94.039216 
L 3392.63283 77.185882 
L 3396.217796 61.647059 
L 3399.802763 122.378039 
L 3403.387729 155.896471 
L 3410.557661 108.831373 
L 3414.142628 102.001569 
L 3417.727594 70.023529 
L 3421.31256 70.873725 
L 3424.897527 86.415686 
L 3428.482493 107.535686 
L 3432.067459 127.582745 
L 3435.652425 99.143529 
L 3439.237392 93.502745 
L 3442.822358 86.161569 
L 3446.407324 120.084706 
L 3449.99229 137.176471 
L 3453.577257 114.218039 
L 3457.162223 128.084706 
L 3460.747189 81.170196 
L 3464.332155 95.2 
L 3467.917122 84.382745 
L 3471.502088 71.64549 
L 3475.087054 99.419608 
L 3478.672021 122.704314 
L 3482.256987 174.023529 
L 3485.841953 159.209412 
L 3489.426919 123.124706 
L 3493.011886 92.06902 
L 3496.596852 88.865882 
L 3500.181818 80.078431 
L 3503.766784 97.992157 
L 3507.351751 121.515294 
L 3510.936717 130.672941 
L 3514.521683 111.513725 
L 3518.10665 99.316078 
L 3521.691616 93.016471 
L 3525.276582 112.436078 
L 3528.861548 125.574902 
L 3532.446515 116.191373 
L 3536.031481 150.512941 
L 3539.616447 115.959216 
L 3543.201413 85.643922 
L 3546.78638 80.865882 
L 3550.371346 36.451765 
L 3553.956312 108.495686 
L 3557.541279 118.522353 
L 3561.126245 127.984314 
L 3564.711211 120.269804 
L 3568.296177 124.988235 
L 3571.881144 90.431373 
L 3575.46611 91.099608 
L 3579.051076 115.112157 
L 3582.636042 86.84549 
L 3586.221009 138.62902 
L 3589.805975 108.370196 
L 3593.390941 87.259608 
L 3596.975907 59.403922 
L 3600.560874 79.545098 
L 3604.14584 104.70902 
L 3607.730806 121.681569 
L 3611.315773 150.390588 
L 3614.900739 128.574118 
L 3618.485705 120.200784 
L 3622.070671 103.228235 
L 3625.655638 83.024314 
L 3629.240604 69.342745 
L 3632.82557 79.112157 
L 3636.410536 127.570196 
L 3639.995503 115.372549 
L 3643.580469 94.581961 
L 3647.165435 78.290196 
L 3650.750402 65.982745 
L 3654.335368 72.825098 
L 3657.920334 95.570196 
L 3661.5053 138.312157 
L 3665.090267 108.103529 
L 3668.675233 129.985882 
L 3672.260199 104.329412 
L 3675.845165 83.814902 
L 3679.430132 46.553725 
L 3683.015098 63.792941 
L 3686.600064 98.083137 
L 3690.185031 84.850196 
L 3693.769997 70.927059 
L 3697.354963 91.124706 
L 3700.939929 51.13098 
L 3704.524896 74.120784 
L 3711.694828 86.691765 
L 3715.279794 125.709804 
L 3718.864761 87.871373 
L 3722.449727 85.543529 
L 3726.034693 17.132549 
L 3729.619659 49.778824 
L 3733.204626 68.916078 
L 3736.789592 115.319216 
L 3740.374558 131.203137 
L 3743.959525 109.772549 
L 3747.544491 100.853333 
L 3751.129457 105.383529 
L 3754.714423 98.01098 
L 3758.29939 110.644706 
L 3761.884356 83.134118 
L 3765.469322 95.334902 
L 3769.054288 86.56 
L 3772.639255 80.373333 
L 3776.224221 66.415686 
L 3779.809187 44.191373 
L 3783.394154 81.612549 
L 3786.97912 88.269804 
L 3790.564086 118.415686 
L 3794.149052 125.502745 
L 3797.734019 67.802353 
L 3801.318985 87.802353 
L 3804.903951 44.197647 
L 3808.488917 79.04 
L 3812.073884 61.367843 
L 3815.65885 115.215686 
L 3819.243816 86.258824 
L 3822.828783 128.348235 
L 3826.413749 81.468235 
L 3829.998715 99.880784 
L 3837.168648 95.174902 
L 3840.753614 134.710588 
L 3844.33858 123.115294 
L 3847.923546 98.854902 
L 3851.508513 72.627451 
L 3855.093479 58.613333 
L 3858.678445 10.08 
L 3862.263412 70.497255 
L 3865.848378 88.928627 
L 3869.433344 116.963137 
L 3873.01831 114.174118 
L 3876.603277 113.258039 
L 3880.188243 70.465882 
L 3883.773209 87.300392 
L 3887.358175 85.264314 
L 3890.943142 81.37098 
L 3894.528108 104.705882 
L 3898.113074 64.404706 
L 3901.69804 58.199216 
L 3905.283007 48.859608 
L 3908.867973 38.732549 
L 3912.452939 45.170196 
L 3916.037906 102.180392 
L 3919.622872 124.047059 
L 3923.207838 135.422745 
L 3926.792804 108.200784 
L 3930.377771 90.249412 
L 3933.962737 48.116078 
L 3937.547703 47.087059 
L 3941.132669 44.611765 
L 3944.717636 91.664314 
L 3948.302602 66.384314 
L 3951.887568 72.291765 
L 3955.472535 70.384314 
L 3959.057501 53.141961 
L 3962.642467 66.415686 
L 3966.227433 106.81098 
L 3969.8124 125.471373 
L 3973.397366 115.535686 
L 3976.982332 74.258824 
L 3980.567298 62.663529 
L 3984.152265 49.160784 
L 3987.737231 29.515294 
L 3991.322197 49.358431 
L 3994.907164 84.608627 
L 3998.49213 64.417255 
L 4002.077096 88.668235 
L 4005.662062 65.452549 
L 4009.247029 62.393725 
L 4012.831995 66.726275 
L 4016.416961 77.041569 
L 4020.001927 25.248627 
L 4023.586894 97.662745 
L 4027.17186 97.951373 
L 4030.756826 82.440784 
L 4034.341792 47.956078 
L 4037.926759 69.863529 
L 4041.511725 65.035294 
L 4045.096691 83.090196 
L 4048.681658 126.020392 
L 4052.266624 148.48 
L 4055.85159 111.723922 
L 4059.436556 76.856471 
L 4063.021523 72.850196 
L 4066.606489 58.136471 
L 4070.191455 96 
L 4073.776421 109.571765 
L 4077.361388 78.625882 
L 4080.946354 78.832941 
L 4084.53132 94.487843 
L 4088.116287 67.777255 
L 4091.701253 89.910588 
L 4095.286219 83.218824 
L 4098.871185 115.560784 
L 4102.456152 105.618824 
L 4106.041118 77.110588 
L 4109.626084 78.36549 
L 4113.21105 42.901961 
L 4116.796017 55.548235 
L 4120.380983 70.748235 
L 4123.965949 114.218039 
L 4127.550916 109.327059 
L 4131.135882 109.28 
L 4134.720848 113.339608 
L 4138.305814 97.311373 
L 4141.890781 86.296471 
L 4145.475747 84.009412 
L 4149.060713 114.233725 
L 4152.645679 92.476863 
L 4156.230646 93.145098 
L 4159.815612 60.887843 
L 4163.400578 106.920784 
L 4166.985544 61.104314 
L 4170.570511 71.532549 
L 4174.155477 96.436078 
L 4177.740443 145.659608 
L 4181.32541 123.403922 
L 4184.910376 129.631373 
L 4188.495342 116.294902 
L 4192.080308 102.302745 
L 4195.665275 89.659608 
L 4199.250241 111.727059 
L 4202.835207 112.03451 
L 4206.420173 130.293333 
L 4210.00514 129.267451 
L 4213.590106 70.550588 
L 4217.175072 118.20549 
L 4220.760039 119.632941 
L 4224.345005 140.501961 
L 4227.929971 122.556863 
L 4231.514937 147.692549 
L 4235.099904 115.705098 
L 4238.68487 77.929412 
L 4242.269836 81.578039 
L 4245.854802 67.956078 
L 4249.439769 88.078431 
L 4253.024735 131.952941 
L 4256.609701 140.86902 
L 4260.194668 124.931765 
L 4263.779634 98.59451 
L 4267.3646 130.396863 
L 4270.949566 128.094118 
L 4274.534533 117.173333 
L 4278.119499 128.83451 
L 4281.704465 134.343529 
L 4285.289431 101.948235 
L 4288.874398 106.039216 
L 4292.459364 55.388235 
L 4296.04433 100.100392 
L 4299.629296 83.695686 
L 4303.214263 139.661176 
L 4306.799229 150.152157 
L 4310.384195 173.810196 
L 4313.969162 119.410196 
L 4317.554128 130.873725 
L 4321.139094 79.375686 
L 4324.72406 97.825882 
L 4328.309027 91.692549 
L 4331.893993 111.469804 
L 4335.478959 124.423529 
L 4339.063925 122.52549 
L 4342.648892 106.908235 
L 4346.233858 84.859608 
L 4349.818824 122.751373 
L 4353.403791 141.113725 
L 4356.988757 177.05098 
L 4360.573723 155.811765 
L 4364.158689 129.618824 
L 4367.743656 90.20549 
L 4371.328622 88.094118 
L 4374.913588 111.237647 
L 4378.498554 98.359216 
L 4382.083521 103.328627 
L 4385.668487 122.362353 
L 4389.253453 131.827451 
L 4392.83842 133.788235 
L 4396.423386 137.342745 
L 4400.008352 106.36549 
L 4403.593318 141.182745 
L 4407.178285 129.857255 
L 4410.763251 133.609412 
L 4414.348217 136.294902 
L 4417.933183 102.84549 
L 4421.51815 77.844706 
L 4425.103116 84.41098 
L 4428.688082 69.380392 
L 4432.273049 130.851765 
L 4435.858015 155.595294 
L 4439.442981 154.196078 
L 4443.027947 146.955294 
L 4446.612914 99.140392 
L 4450.19788 94.393725 
L 4453.782846 131.156078 
L 4457.367812 76.122353 
L 4460.952779 140.712157 
L 4464.537745 85.013333 
L 4468.122711 109.214118 
L 4471.707677 98.117647 
L 4475.292644 86.17098 
L 4478.87761 120.401569 
L 4482.462576 130.381176 
L 4486.047543 151.312941 
L 4489.632509 129.941961 
L 4493.217475 136.589804 
L 4496.802441 73.392941 
L 4500.387408 94.249412 
L 4503.972374 106.224314 
L 4507.55734 79.058824 
L 4511.142306 92.200784 
L 4514.727273 89.750588 
L 4518.312239 123.61098 
L 4521.897205 118.94902 
L 4525.482172 102.287059 
L 4529.067138 124.235294 
L 4532.652104 118.447059 
L 4536.23707 125.336471 
L 4539.822037 113.239216 
L 4543.407003 91.043137 
L 4546.991969 99.105882 
L 4550.576935 33.12 
L 4554.161902 47.893333 
L 4557.746868 80.138039 
L 4564.916801 130.177255 
L 4568.501767 137.995294 
L 4572.086733 125.327059 
L 4575.671699 115.632941 
L 4579.256666 99.203137 
L 4582.841632 111.215686 
L 4586.426598 79.385098 
L 4590.011564 128.25098 
L 4593.596531 95.71451 
L 4597.181497 112.461176 
L 4600.766463 82.735686 
L 4604.351429 80.210196 
L 4607.936396 93.47451 
L 4611.521362 119.717647 
L 4615.106328 143.356863 
L 4618.691295 124.981961 
L 4622.276261 138.396863 
L 4625.861227 60.643137 
L 4629.446193 55.008627 
L 4633.03116 50.164706 
L 4636.616126 86.180392 
L 4640.201092 100.103529 
L 4643.786058 86.268235 
L 4647.371025 88.567843 
L 4650.955991 88.862745 
L 4654.540957 110.048627 
L 4658.125924 119.84 
L 4661.71089 131.943529 
L 4665.295856 139.363137 
L 4668.880822 138.807843 
L 4672.465789 108.749804 
L 4676.050755 102.616471 
L 4679.635721 55.353725 
L 4683.220687 89.967059 
L 4686.805654 74.710588 
L 4690.39062 118.682353 
L 4693.975586 130.773333 
L 4697.560553 142.412549 
L 4701.145519 162.123922 
L 4704.730485 155.598431 
L 4708.315451 117.524706 
L 4711.900418 120.558431 
L 4715.485384 129.041569 
L 4719.07035 136.608627 
L 4722.655316 101.819608 
L 4726.240283 72.279216 
L 4729.825249 122.105098 
L 4733.410215 95.140392 
L 4736.995181 143.146667 
L 4740.580148 151.121569 
L 4744.165114 174.763922 
L 4747.75008 139.692549 
L 4751.335047 143.87451 
L 4754.920013 128.382745 
L 4758.504979 81.223529 
L 4762.089945 77.126275 
L 4765.674912 133.295686 
L 4769.259878 107.642353 
L 4772.844844 123.024314 
L 4776.42981 81.659608 
L 4780.014777 128.828235 
L 4783.599743 117.007059 
L 4787.184709 119.137255 
L 4790.769676 132.442353 
L 4794.354642 136.040784 
L 4797.939608 108.301176 
L 4801.524574 105.568627 
L 4805.109541 61.913725 
L 4808.694507 45.198431 
L 4812.279473 68.530196 
L 4815.864439 84.988235 
L 4819.449406 87.112157 
L 4823.034372 121.753725 
L 4826.619338 124.988235 
L 4830.204305 116.021961 
L 4833.789271 119.23451 
L 4837.374237 91.736471 
L 4840.959203 103.717647 
L 4844.54417 83.984314 
L 4848.129136 81.876078 
L 4851.714102 69.753725 
L 4855.299068 75.338039 
L 4858.884035 72.988235 
L 4862.469001 80.059608 
L 4866.053967 112.843922 
L 4869.638934 121.647059 
L 4873.2239 144.307451 
L 4876.808866 127.156078 
L 4880.393832 118.75451 
L 4883.978799 114.327843 
L 4887.563765 97.923137 
L 4891.148731 88.144314 
L 4894.733697 86.224314 
L 4898.318664 94.710588 
L 4901.90363 108.740392 
L 4905.488596 115.736471 
L 4909.073562 126.36549 
L 4912.658529 142.876863 
L 4916.243495 125.195294 
L 4919.828461 155.996863 
L 4923.413428 160.624314 
L 4926.998394 121.145098 
L 4930.58336 127.319216 
L 4934.168326 85.361569 
L 4937.753293 67.764706 
L 4941.338259 74.362353 
L 4944.923225 123.962353 
L 4948.508191 119.61098 
L 4952.093158 160.655686 
L 4955.678124 169.738039 
L 4959.26309 131.755294 
L 4962.848057 143.984314 
L 4966.433023 118.503529 
L 4970.017989 118.258824 
L 4973.602955 110.258824 
L 4977.187922 121.505882 
L 4980.772888 128.944314 
L 4984.357854 84.106667 
L 4987.94282 114.528627 
L 4991.527787 98.145882 
L 4995.112753 134.49098 
L 4998.697719 150.293333 
L 5002.282686 185.418039 
L 5005.867652 183.156078 
L 5009.452618 146.196078 
L 5013.037584 139.868235 
L 5016.622551 92.16 
L 5020.207517 129.207843 
L 5023.792483 118.964706 
L 5027.377449 124.906667 
L 5030.962416 104.216471 
L 5034.547382 155.181176 
L 5038.132348 120.323137 
L 5041.717314 177.251765 
L 5045.302281 144.332549 
L 5048.887247 162.713725 
L 5052.472213 157.345882 
L 5056.05718 160.683922 
L 5063.227112 86.352941 
L 5066.812078 97.107451 
L 5070.397045 73.825882 
L 5073.982011 124.407843 
L 5077.566977 133.967059 
L 5081.151943 151.865098 
L 5084.73691 153.549804 
L 5088.321876 136.963137 
L 5091.906842 145.835294 
L 5095.491809 151.658039 
L 5099.076775 140.266667 
L 5102.661741 131.143529 
L 5106.246707 125.239216 
L 5109.831674 98.180392 
L 5113.41664 106.334118 
L 5117.001606 121.490196 
L 5120.586572 119.858824 
L 5124.171539 120.558431 
L 5127.756505 158.04549 
L 5131.341471 157.948235 
L 5134.926438 165.160784 
L 5138.511404 123.187451 
L 5142.09637 128.197647 
L 5145.681336 135.604706 
L 5149.266303 117.753725 
L 5152.851269 104.552157 
L 5156.436235 133.6 
L 5160.021201 123.080784 
L 5163.606168 129.66902 
L 5167.191134 110.892549 
L 5170.7761 134.428235 
L 5174.361066 170.59451 
L 5177.946033 148.448627 
L 5181.530999 141.424314 
L 5185.115965 124.981961 
L 5188.700932 112.169412 
L 5192.285898 124.003137 
L 5195.870864 91.036863 
L 5199.45583 79.940392 
L 5203.040797 123.347451 
L 5206.625763 103.993725 
L 5210.210729 154.801569 
L 5213.795695 151.272157 
L 5217.380662 125.813333 
L 5220.965628 148.266667 
L 5228.135561 114.174118 
L 5231.720527 89.98902 
L 5235.305493 121.728627 
L 5238.890459 114.575686 
L 5242.475426 88.759216 
L 5246.060392 77.581176 
L 5249.645358 85.392941 
L 5253.230324 135.664314 
L 5256.815291 170.707451 
L 5260.400257 140.787451 
L 5263.985223 134.632157 
L 5267.57019 134.481569 
L 5271.155156 105.201569 
L 5274.740122 101.323922 
L 5278.325088 110.487843 
L 5281.910055 111.494902 
L 5285.495021 112.332549 
L 5289.079987 108.862745 
L 5292.664953 111.400784 
L 5296.24992 131.623529 
L 5299.834886 150.070588 
L 5303.419852 158.923922 
L 5307.004819 171.808627 
L 5310.589785 108.203922 
L 5314.174751 160.260392 
L 5317.759717 93.380392 
L 5321.344684 88.774902 
L 5324.92965 99.626667 
L 5328.514616 85.411765 
L 5332.099582 129.847843 
L 5335.684549 109.025882 
L 5339.269515 128.062745 
L 5342.854481 111.366275 
L 5346.439447 127.397647 
L 5350.024414 122.271373 
L 5353.60938 132.555294 
L 5357.194346 141.647059 
L 5360.779313 93.236078 
L 5364.364279 100.087843 
L 5367.949245 94.989804 
L 5371.534211 73.901176 
L 5375.119178 75.774118 
L 5378.704144 98.409412 
L 5382.28911 98.227451 
L 5385.874076 130.440784 
L 5389.459043 131.10902 
L 5393.044009 153.835294 
L 5396.628975 129.838431 
L 5400.213942 110.654118 
L 5403.798908 92.134902 
L 5407.383874 90.578824 
L 5410.96884 101.383529 
L 5414.553807 88.621176 
L 5418.138773 111.218824 
L 5421.723739 81.185882 
L 5425.308705 140.094118 
L 5428.893672 119.294118 
L 5432.478638 122.261961 
L 5436.063604 181.229804 
L 5439.648571 132.508235 
L 5443.233537 102.007843 
L 5446.818503 97.63451 
L 5450.403469 70.352941 
L 5453.988436 86.186667 
L 5457.573402 54.083137 
L 5461.158368 91.45098 
L 5464.743334 89.141961 
L 5468.328301 126.183529 
L 5471.913267 131.366275 
L 5475.498233 128.169412 
L 5479.083199 150.807843 
L 5482.668166 142.233725 
L 5486.253132 133.236078 
L 5489.838098 143.294118 
L 5493.423065 86.563137 
L 5497.008031 92.687059 
L 5500.592997 82.073725 
L 5504.177963 102.17098 
L 5507.76293 113.66902 
L 5511.347896 104.22902 
L 5514.932862 128.843922 
L 5518.517828 148.969412 
L 5522.102795 140.417255 
L 5525.687761 136.92549 
L 5529.272727 134.641569 
L 5532.857694 104.596078 
L 5536.44266 144.25098 
L 5540.027626 105.756863 
L 5543.612592 91.316078 
L 5547.197559 103.507451 
L 5550.782525 82.669804 
L 5554.367491 98.211765 
L 5557.952457 124.919216 
L 5561.537424 148.351373 
L 5565.12239 169.612549 
L 5568.707356 145.807059 
L 5572.292323 112.803137 
L 5575.877289 115.799216 
L 5579.462255 82.199216 
L 5583.047221 86.741961 
L 5586.632188 92.310588 
L 5590.217154 110.974118 
L 5593.80212 94.858039 
L 5597.387086 115.196863 
L 5600.972053 121.276863 
L 5604.557019 112.429804 
L 5608.141985 121.496471 
L 5611.726951 107.118431 
L 5615.311918 114.459608 
L 5618.896884 100.172549 
L 5622.48185 82.575686 
L 5626.066817 77.825882 
L 5629.651783 70.663529 
L 5633.236749 70.547451 
L 5636.821715 89.003922 
L 5640.406682 99.890196 
L 5643.991648 105.653333 
L 5647.576614 125.173333 
L 5651.16158 138.221176 
L 5654.746547 83.262745 
L 5658.331513 130.892549 
L 5661.916479 98.814118 
L 5665.501446 113.69098 
L 5669.086412 87.13098 
L 5672.671378 106.964706 
L 5676.256344 71.959216 
L 5679.841311 80.401569 
L 5683.426277 97.035294 
L 5687.011243 126.716863 
L 5690.596209 104.60549 
L 5694.181176 121.386667 
L 5697.766142 107.557647 
L 5704.936075 95.178039 
L 5708.521041 44.043922 
L 5712.106007 52.583529 
L 5715.690973 78.81098 
L 5719.27594 64.567843 
L 5722.860906 75.065098 
L 5726.445872 80.244706 
L 5730.030838 110.829804 
L 5733.615805 104.021961 
L 5737.200771 111.937255 
L 5740.785737 86.127059 
L 5744.370704 117.537255 
L 5747.95567 98.24 
L 5751.540636 87.852549 
L 5755.125602 70.782745 
L 5758.710569 55.366275 
L 5762.295535 77.750588 
L 5765.880501 80.778039 
L 5769.465467 94.246275 
L 5773.050434 94.428235 
L 5776.6354 121.236078 
L 5780.220366 102.456471 
L 5783.805332 128.611765 
L 5787.390299 113.606275 
L 5790.975265 108.09098 
L 5794.560231 105.941961 
L 5798.145198 101.891765 
L 5801.730164 82.792157 
L 5805.31513 73.452549 
L 5808.900096 85.637647 
L 5812.485063 90.048627 
L 5816.070029 112.22902 
L 5819.654995 129.458824 
L 5823.239961 124.44549 
L 5826.824928 110.889412 
L 5830.409894 87.341176 
L 5833.99486 83.730196 
L 5837.579827 78.569412 
L 5841.164793 83.002353 
L 5844.749759 84.351373 
L 5848.334725 100.680784 
L 5851.919692 84.837647 
L 5855.504658 95.880784 
L 5859.089624 80.298039 
L 5862.67459 108.912941 
L 5866.259557 119.306667 
L 5869.844523 104.781176 
L 5873.429489 107.463529 
L 5877.014456 111.215686 
L 5880.599422 93.781961 
L 5884.184388 52.498824 
L 5887.769354 74.086275 
L 5891.354321 58.716863 
L 5894.939287 97.647059 
L 5898.524253 107.04 
L 5902.109219 93.615686 
L 5905.694186 98.431373 
L 5909.279152 86.443922 
L 5912.864118 115.545098 
L 5916.449084 85.192157 
L 5920.034051 81.687843 
L 5923.619017 105.471373 
L 5927.203983 106.660392 
L 5930.78895 93.044706 
L 5934.373916 61.339608 
L 5937.958882 51.614118 
L 5941.543848 75.193725 
L 5945.128815 78.958431 
L 5948.713781 142.983529 
L 5952.298747 118.544314 
L 5955.883713 132.505098 
L 5959.46868 79.940392 
L 5963.053646 84.163137 
L 5966.638612 83.783529 
L 5970.223579 95.228235 
L 5973.808545 93.201569 
L 5977.393511 81.424314 
L 5980.978477 98.923922 
L 5984.563444 84.407843 
L 5988.14841 88.012549 
L 5991.733376 62.305882 
L 5995.318342 103.996863 
L 5998.903309 110.770196 
L 6002.488275 120.96 
L 6006.073241 159.331765 
L 6009.658208 91.61098 
L 6013.243174 83.661176 
L 6020.413106 95.952941 
L 6023.998073 109.226667 
L 6027.583039 135.469804 
L 6031.168005 146.064314 
L 6034.752971 141.932549 
L 6038.337938 124.498824 
L 6041.922904 125.854118 
L 6045.50787 128.031373 
L 6049.092836 121.775686 
L 6052.677803 114.43451 
L 6056.262769 140.621176 
L 6059.847735 120.22902 
L 6063.432702 77.95451 
L 6067.017668 89.69098 
L 6070.602634 106.073725 
L 6074.1876 127.974902 
L 6077.772567 137.408627 
L 6081.357533 160.916078 
L 6084.942499 139.990588 
L 6088.527465 125.72549 
L 6092.112432 93.79451 
L 6095.697398 122.917647 
L 6099.282364 112.614902 
L 6102.867331 93.603137 
L 6106.452297 87.996863 
L 6110.037263 82.08 
L 6113.622229 55.755294 
L 6117.207196 84.724706 
L 6120.792162 83.880784 
L 6124.377128 131.651765 
L 6127.962094 128.627451 
L 6131.547061 153.857255 
L 6135.132027 139.046275 
L 6138.716993 95.692549 
L 6142.30196 116.156863 
L 6145.886926 79.701961 
L 6149.471892 98.020392 
L 6153.056858 115.26902 
L 6156.641825 144.533333 
L 6160.226791 129.945098 
L 6163.811757 128.043922 
L 6167.396723 128.76549 
L 6170.98169 101.879216 
L 6174.566656 109.609412 
L 6178.151622 136.385882 
L 6181.736588 133.559216 
L 6185.321555 141.295686 
L 6188.906521 119.58902 
L 6192.491487 88.520784 
L 6196.076454 102.876863 
L 6199.66142 99.532549 
L 6203.246386 124.774902 
L 6206.831352 167.733333 
L 6210.416319 155.447843 
L 6214.001285 133.976471 
L 6217.586251 148.288627 
L 6221.171217 144.407843 
L 6224.756184 122.78902 
L 6228.34115 114.061176 
L 6231.926116 131.432157 
L 6235.511083 147.39451 
L 6239.096049 111.632941 
L 6242.681015 83.949804 
L 6246.265981 101.430588 
L 6249.850948 142.058039 
L 6253.435914 123.021176 
L 6257.02088 148.015686 
L 6260.605846 149.571765 
L 6264.190813 131.824314 
L 6267.775779 133.574902 
L 6271.360745 126.892549 
L 6274.945712 87.620392 
L 6278.530678 94.876863 
L 6282.115644 133.292549 
L 6285.70061 105.361569 
L 6289.285577 114.032941 
L 6292.870543 116.181961 
L 6296.455509 121.844706 
L 6300.040475 100.737255 
L 6303.625442 101.615686 
L 6307.210408 120.991373 
L 6310.795374 145.672157 
L 6314.380341 150.020392 
L 6317.965307 73.628235 
L 6321.550273 78.989804 
L 6325.135239 104.793725 
L 6328.720206 90.343529 
L 6332.305172 93.05098 
L 6335.890138 129.722353 
L 6339.475104 147.526275 
L 6346.645037 91.413333 
L 6350.230003 110.992941 
L 6353.814969 112.147451 
L 6357.399936 126.88 
L 6360.984902 131.777255 
L 6364.569868 110.895686 
L 6368.154835 138.271373 
L 6371.739801 107.171765 
L 6375.324767 86.820392 
L 6378.909733 125.010196 
L 6382.4947 110.230588 
L 6386.079666 130.886275 
L 6389.664632 120.367059 
L 6393.249598 130.867451 
L 6396.834565 111.338039 
L 6400.419531 111.676863 
L 6404.004497 108.99451 
L 6407.589464 99.259608 
L 6411.17443 98.007843 
L 6414.759396 107.620392 
L 6418.344362 109.860392 
L 6421.929329 121.916863 
L 6425.514295 90.707451 
L 6429.099261 133.960784 
L 6432.684227 115.341176 
L 6436.269194 114.039216 
L 6439.85416 144.740392 
L 6443.439126 140.928627 
L 6447.024093 121.615686 
L 6450.609059 91.316078 
L 6454.194025 70.324706 
L 6457.778991 104.693333 
L 6461.363958 106.465882 
L 6464.948924 148.015686 
L 6468.53389 140.86902 
L 6472.118856 124.865882 
L 6475.703823 143.664314 
L 6479.288789 122.46902 
L 6482.873755 103.64549 
L 6486.458721 99.968627 
L 6490.043688 107.607843 
L 6493.628654 97.694118 
L 6497.21362 85.151373 
L 6500.798587 103.949804 
L 6504.383553 99.676863 
L 6507.968519 86.716863 
L 6511.553485 136.385882 
L 6515.138452 124.881569 
L 6518.723418 143.510588 
L 6522.308384 132.235294 
L 6525.89335 90.798431 
L 6529.478317 98.46902 
L 6533.063283 52.636863 
L 6536.648249 94.208627 
L 6543.818182 108.266667 
L 6547.403148 112.166275 
L 6550.988114 102.252549 
L 6554.573081 110.795294 
L 6558.158047 105.141961 
L 6561.743013 153.320784 
L 6565.327979 143.218824 
L 6568.912946 154.368627 
L 6572.497912 142.4 
L 6576.082878 98.839216 
L 6579.667845 82.368627 
L 6583.252811 63.789804 
L 6586.837777 119.789804 
L 6590.422743 121.938824 
L 6594.00771 145.995294 
L 6597.592676 133.963922 
L 6601.177642 151.027451 
L 6604.762608 137.15451 
L 6608.347575 128.476863 
L 6611.932541 133.537255 
L 6615.517507 129.091765 
L 6619.102473 137.392941 
L 6622.68744 133.298824 
L 6626.272406 95.206275 
L 6629.857372 64.41098 
L 6633.442339 79.783529 
L 6637.027305 96.203922 
L 6640.612271 119.934118 
L 6644.197237 133.872941 
L 6647.782204 155.830588 
L 6651.36717 153.512157 
L 6654.952136 114.004706 
L 6658.537102 118.713725 
L 6662.122069 132.404706 
L 6665.707035 126.563137 
L 6669.292001 131.632941 
L 6672.876968 97.392941 
L 6676.461934 96.759216 
L 6680.0469 85.496471 
L 6683.631866 97.807059 
L 6687.216833 115.792941 
L 6690.801799 130.531765 
L 6694.386765 134.581961 
L 6697.971731 147.667451 
L 6701.556698 133.791373 
L 6705.141664 115.410196 
L 6708.72663 105.603137 
L 6712.311597 52.207059 
L 6715.896563 75.868235 
L 6719.481529 90.760784 
L 6723.066495 126.62902 
L 6726.651462 139.043137 
L 6730.236428 113.69098 
L 6733.821394 86.230588 
L 6737.40636 116.06902 
L 6740.991327 127.152941 
L 6744.576293 91.96549 
L 6748.161259 118.302745 
L 6751.746226 98.478431 
L 6755.331192 51.174902 
L 6758.916158 85.763137 
L 6762.501124 70.512941 
L 6766.086091 77.201569 
L 6769.671057 111.422745 
L 6773.256023 121.355294 
L 6776.840989 138.647843 
L 6780.425956 123.949804 
L 6784.010922 136.875294 
L 6787.595888 85.123137 
L 6791.180854 117.418039 
L 6794.765821 88.483137 
L 6798.350787 96.847059 
L 6801.935753 109.298824 
L 6805.52072 114.142745 
L 6809.105686 98.462745 
L 6812.690652 94.280784 
L 6816.275618 117.458824 
L 6819.860585 116.269804 
L 6823.445551 158.443922 
L 6827.030517 149.50902 
L 6830.615483 117.945098 
L 6834.20045 125.973333 
L 6837.785416 68.244706 
L 6841.370382 73.656471 
L 6844.955349 76.288627 
L 6848.540315 106.356078 
L 6852.125281 128.966275 
L 6855.710247 129.386667 
L 6859.295214 96.072157 
L 6862.88018 97.923137 
L 6866.465146 112.398431 
L 6870.050112 120.909804 
L 6873.635079 121.013333 
L 6877.220045 100.859608 
L 6880.805011 96.420392 
L 6884.389978 57.179608 
L 6887.974944 90.999216 
L 6891.55991 79.243922 
L 6895.144876 77.217255 
L 6898.729843 123.711373 
L 6902.314809 123.974902 
L 6905.899775 127.134118 
L 6909.484741 123.883922 
L 6913.069708 114.541176 
L 6916.654674 72.630588 
L 6920.23964 97.778824 
L 6923.824606 84.392157 
L 6927.409573 95.858824 
L 6930.994539 79.865098 
L 6934.579505 90.453333 
L 6938.164472 77.229804 
L 6941.749438 73.879216 
L 6945.334404 96.884706 
L 6948.91937 108.985098 
L 6952.504337 125.56549 
L 6956.089303 132.922353 
L 6959.674269 124.323137 
L 6963.259235 95.670588 
L 6966.844202 73.399216 
L 6970.429168 71.623529 
L 6974.014134 76.06902 
L 6977.599101 92.981961 
L 6981.184067 89.022745 
L 6984.769033 102.553725 
L 6988.353999 113.34902 
L 6991.938966 90.362353 
L 6995.523932 128.310588 
L 6999.108898 107.416471 
L 7002.693864 118.487843 
L 7006.278831 127.488627 
L 7009.863797 109.025882 
L 7013.448763 104.423529 
L 7017.03373 77.719216 
L 7020.618696 56.269804 
L 7024.203662 90.578824 
L 7027.788628 94.421961 
L 7031.373595 96.075294 
L 7034.958561 141.741176 
L 7038.543527 140.796863 
L 7042.128493 124.947451 
L 7045.71346 97.910588 
L 7049.298426 110.842353 
L 7052.883392 95.90902 
L 7056.468358 102.246275 
L 7060.053325 119.730196 
L 7063.638291 103.893333 
L 7067.223257 93.336471 
L 7070.808224 73.223529 
L 7074.39319 88.12549 
L 7077.978156 98.255686 
L 7081.563122 120.141176 
L 7085.148089 140.329412 
L 7088.733055 115.319216 
L 7092.318021 134.039216 
L 7095.902987 89.982745 
L 7099.487954 92.078431 
L 7103.07292 80.897255 
L 7106.657886 79.011765 
L 7110.242853 91.046275 
L 7113.827819 98.230588 
L 7117.412785 83.821176 
L 7120.997751 93.091765 
L 7124.582718 112.241569 
L 7128.167684 132.379608 
L 7131.75265 112.131765 
L 7135.337616 129.935686 
L 7138.922583 126.952157 
L 7142.507549 89.603137 
L 7146.092515 45.659608 
L 7149.677482 71.162353 
L 7153.262448 79.670588 
L 7156.847414 101.019608 
L 7160.43238 105.355294 
L 7164.017347 135.127843 
L 7167.602313 138.01098 
L 7171.187279 131.42902 
L 7174.772245 108.348235 
L 7178.357212 138.14902 
L 7181.942178 103.852549 
L 7185.527144 115.880784 
L 7189.112111 102.506667 
L 7192.697077 70.409412 
L 7196.282043 93.527843 
L 7199.867009 108.429804 
L 7203.451976 87.149804 
L 7207.036942 90.72 
L 7210.621908 130.49098 
L 7214.206874 136.624314 
L 7217.791841 120.988235 
L 7221.376807 126.553725 
L 7224.961773 71.560784 
L 7228.546739 71.259608 
L 7232.131706 39.711373 
L 7235.716672 106.757647 
L 7239.301638 96.254118 
L 7242.886605 104.247843 
L 7246.471571 123.218824 
L 7250.056537 112.310588 
L 7253.641503 122.616471 
L 7257.22647 109.352157 
L 7260.811436 112.756078 
L 7264.396402 111.272157 
L 7267.981368 77.010196 
L 7271.566335 102.817255 
L 7275.151301 85.938824 
L 7278.736267 66.538039 
L 7282.321234 57.82902 
L 7285.9062 117.647059 
L 7289.491166 122.663529 
L 7293.076132 113.151373 
L 7296.661099 118.318431 
L 7300.246065 132.76549 
L 7303.831031 122.004706 
L 7307.415997 125.15451 
L 7311.000964 91.221961 
L 7314.58593 93.738039 
L 7318.170896 82.462745 
L 7321.755863 57.72549 
L 7325.340829 46.676078 
L 7328.925795 38.076863 
L 7332.510761 80.094118 
L 7336.095728 94.999216 
L 7339.680694 137.311373 
L 7343.26566 124.040784 
L 7346.850626 143.824314 
L 7350.435593 109.465098 
L 7354.020559 91.563922 
L 7357.605525 92.837647 
L 7361.190491 90.183529 
L 7364.775458 62.381176 
L 7368.360424 96.225882 
L 7371.94539 93.596863 
L 7375.530357 99.648627 
L 7379.115323 73.003922 
L 7382.700289 114.30902 
L 7386.285255 89.995294 
L 7389.870222 158.431373 
L 7393.455188 150.406275 
L 7397.040154 132.235294 
L 7400.62512 98.779608 
L 7404.210087 74.026667 
L 7407.795053 76.884706 
L 7411.380019 53.98902 
L 7414.964986 81.421176 
L 7418.549952 91.494902 
L 7422.134918 113.424314 
L 7425.719884 81.703529 
L 7429.304851 101.163922 
L 7432.889817 116.38902 
L 7436.474783 118.842353 
L 7440.059749 123.369412 
L 7443.644716 113.377255 
L 7447.229682 81.223529 
L 7450.814648 80.269804 
L 7454.399615 48.489412 
L 7457.984581 52.473725 
L 7461.569547 87.366275 
L 7465.154513 108.70902 
L 7468.73948 104.41098 
L 7472.324446 146.500392 
L 7475.909412 153.12 
L 7479.494378 108.633725 
L 7483.079345 80.175686 
L 7486.664311 96.269804 
L 7490.249277 63.26902 
L 7493.834243 89.552941 
L 7497.41921 67.115294 
L 7501.004176 79.567059 
L 7504.589142 87.905882 
L 7508.174109 101.163922 
L 7511.759075 110.061176 
L 7515.344041 129.493333 
L 7518.929007 146.49098 
L 7522.513974 138.980392 
L 7526.09894 128.181961 
L 7529.683906 85.678431 
L 7533.268872 90.255686 
L 7536.853839 73.609412 
L 7540.438805 83.099608 
L 7544.023771 78.91451 
L 7547.608738 86.854902 
L 7551.193704 66.952157 
L 7554.77867 95.344314 
L 7558.363636 68.19451 
L 7561.948603 101.584314 
L 7565.533569 112 
L 7569.118535 101.007059 
L 7572.703501 90.569412 
L 7576.288468 84.269804 
L 7579.873434 47.513725 
L 7583.4584 63.767843 
L 7587.043367 56.972549 
L 7590.628333 88.969412 
L 7594.213299 119.008627 
L 7597.798265 119.033725 
L 7601.383232 138.456471 
L 7604.968198 107.626667 
L 7608.553164 117.333333 
L 7612.13813 104.897255 
L 7615.723097 101.665882 
L 7619.308063 105.345882 
L 7622.893029 115.887059 
L 7626.477996 88.821961 
L 7630.062962 87.890196 
L 7633.647928 72.414118 
L 7637.232894 115.381961 
L 7640.817861 102.406275 
L 7644.402827 153.204706 
L 7647.987793 168.197647 
L 7651.572759 156.188235 
L 7655.157726 134.152157 
L 7658.742692 88.401569 
L 7662.327658 69.505882 
L 7665.912624 81.31451 
L 7669.497591 105.458824 
L 7673.082557 95.363137 
L 7676.667523 108.70902 
L 7680.25249 117.502745 
L 7683.837456 128.404706 
L 7687.422422 112.520784 
L 7691.007388 123.764706 
L 7694.592355 136.376471 
L 7698.177321 151.2 
L 7701.762287 135.755294 
L 7705.347253 102.058039 
L 7708.93222 95.767843 
L 7712.517186 95.921569 
L 7716.102152 81.452549 
L 7719.687119 124.602353 
L 7723.272085 148.06902 
L 7726.857051 161.041569 
L 7730.442017 166.691765 
L 7734.026984 138.265098 
L 7737.61195 146.346667 
L 7741.196916 136.837647 
L 7744.781882 120.065882 
L 7748.366849 137.101176 
L 7751.951815 130.556863 
L 7755.536781 133.236078 
L 7759.121748 89.653333 
L 7762.706714 97.938824 
L 7766.29168 133.797647 
L 7769.876646 148.407843 
L 7773.461613 160.059608 
L 7777.046579 168.596078 
L 7780.631545 158.672941 
L 7784.216511 126.337255 
L 7787.801478 108.586667 
L 7791.386444 95.058824 
L 7794.97141 84.828235 
L 7798.556376 111.761569 
L 7802.141343 115.843137 
L 7805.726309 118.243137 
L 7809.311275 134.625882 
L 7812.896242 139.002353 
L 7816.481208 167.651765 
L 7820.066174 161.44 
L 7823.65114 167.391373 
L 7827.236107 164.244706 
L 7830.821073 135.858824 
L 7834.406039 117.396078 
L 7837.991005 99.84 
L 7841.575972 57.907451 
L 7845.160938 69.361569 
L 7848.745904 87.243922 
L 7852.330871 152.103529 
L 7855.915837 163.843137 
L 7859.500803 160.774902 
L 7863.085769 176.486275 
L 7866.670736 159.124706 
L 7870.255702 134.952157 
L 7873.840668 125.496471 
L 7877.425634 111.792941 
L 7881.010601 99.225098 
L 7884.595567 93.631373 
L 7888.180533 93.552941 
L 7891.7655 73.659608 
L 7895.350466 126.378039 
L 7898.935432 134.051765 
L 7902.520398 136.533333 
L 7906.105365 185.703529 
L 7909.690331 153.938824 
L 7913.275297 163.639216 
L 7916.860263 111.39451 
L 7920.44523 99.598431 
L 7924.030196 72.138039 
L 7927.615162 95.26902 
L 7931.200128 96.38902 
L 7934.785095 113.82902 
L 7938.370061 112.307451 
L 7941.955027 130.136471 
L 7945.539994 113.932549 
L 7949.12496 157.907451 
L 7952.709926 134.462745 
L 7956.294892 151.112157 
L 7959.879859 135.767843 
L 7963.464825 111.918431 
L 7967.049791 85.948235 
L 7970.634757 73.34902 
L 7974.219724 83.00549 
L 7977.80469 102.236863 
L 7981.389656 128.059608 
L 7984.974623 170.895686 
L 7988.559589 151.720784 
L 7992.144555 165.408627 
L 7995.729521 141.176471 
L 7999.314488 126.180392 
L 8002.899454 123.23451 
L 8006.48442 122.001569 
L 8010.069386 143.002353 
L 8013.654353 96.969412 
L 8017.239319 101.926275 
L 8020.824285 93.232941 
L 8024.409252 102.974118 
L 8027.994218 106.616471 
L 8031.579184 138.450196 
L 8035.16415 179.171765 
L 8038.749117 149.552941 
L 8042.334083 117.923137 
L 8045.919049 88.536471 
L 8049.504015 68.574118 
L 8053.088982 78.403137 
L 8056.673948 95.212549 
L 8060.258914 102.04549 
L 8063.843881 75.391373 
L 8067.428847 140.329412 
L 8071.013813 99.846275 
L 8074.598779 130.283922 
L 8078.183746 113.239216 
L 8081.768712 158.428235 
L 8085.353678 146.901961 
L 8088.938644 139.482353 
L 8092.523611 111.033725 
L 8096.108577 86.763922 
L 8099.693543 52.947451 
L 8103.278509 76.680784 
L 8106.863476 84.316863 
L 8110.448442 132.831373 
L 8114.033408 138.233725 
L 8117.618375 151.356863 
L 8121.203341 138.246275 
L 8124.788307 122.352941 
L 8128.373273 128.116078 
L 8131.95824 105.182745 
L 8135.543206 121.515294 
L 8139.128172 102.694902 
L 8142.713138 91.661176 
L 8146.298105 64.608627 
L 8149.883071 67.115294 
L 8153.468037 52.583529 
L 8157.053004 120.075294 
L 8160.63797 142.892549 
L 8164.222936 136.633725 
L 8167.807902 140.401569 
L 8171.392869 115.174902 
L 8174.977835 73.126275 
L 8178.562801 90.660392 
L 8182.147767 76.25098 
L 8185.732734 61.163922 
L 8189.3177 69.320784 
L 8192.902666 96.89098 
L 8196.487633 81.618824 
L 8200.072599 53.898039 
L 8203.657565 93.000784 
L 8207.242531 129.872941 
L 8210.827498 147.021176 
L 8214.412464 143.159216 
L 8217.99743 132.953725 
L 8221.582396 77.706667 
L 8225.167363 68.404706 
L 8228.752329 47.924706 
L 8232.337295 57.088627 
L 8235.922261 76.985098 
L 8239.507228 111.149804 
L 8243.092194 129.907451 
L 8246.67716 125.606275 
L 8250.262127 110.751373 
L 8253.847093 91.632941 
L 8257.432059 96.86902 
L 8261.017025 112.19451 
L 8264.601992 96.734118 
L 8268.186958 102.955294 
L 8271.771924 72.51451 
L 8275.35689 61.559216 
L 8278.941857 63.927843 
L 8282.526823 63.378824 
L 8289.696756 125.926275 
L 8293.281722 144.793725 
L 8296.866688 147.363137 
L 8300.451654 89.386667 
L 8304.036621 72.219608 
L 8307.621587 71.723922 
L 8311.206553 41.841569 
L 8314.791519 62.62902 
L 8318.376486 94.669804 
L 8321.961452 90.933333 
L 8325.546418 54.133333 
L 8329.131385 103.570196 
L 8332.716351 111.228235 
L 8336.301317 109.207843 
L 8339.886283 110.183529 
L 8343.47125 116.520784 
L 8347.056216 99.491765 
L 8350.641182 64.76549 
L 8354.226148 38.635294 
L 8357.811115 36.953725 
L 8361.396081 47.658039 
L 8364.981047 91.454118 
L 8368.566013 139.61098 
L 8372.15098 102.710588 
L 8375.735946 112.862745 
L 8379.320912 99.043137 
L 8382.905879 104.065882 
L 8386.490845 114.870588 
L 8390.075811 108.64 
L 8393.660777 113.687843 
L 8397.245744 88.96 
L 8404.415676 61.305098 
L 8408.000642 24.357647 
L 8411.585609 67.45098 
L 8415.170575 88.897255 
L 8418.755541 123.516863 
L 8422.340508 125.706667 
L 8425.925474 114.447059 
L 8429.51044 99.416471 
L 8433.095406 76.191373 
L 8436.680373 48.787451 
L 8440.265339 47.764706 
L 8443.850305 81.606275 
L 8447.435271 56.599216 
L 8451.020238 76.831373 
L 8454.605204 52.144314 
L 8458.19017 80.589804 
L 8461.775137 91.275294 
L 8465.360103 134.911373 
L 8468.945069 119.341176 
L 8472.530035 140.712157 
L 8476.115002 126.120784 
L 8479.699968 113.559216 
L 8483.284934 52.661961 
L 8486.8699 59.952941 
L 8490.454867 50.443922 
L 8494.039833 115.250196 
L 8497.624799 96.156863 
L 8501.209765 117.163922 
L 8504.794732 124.856471 
L 8508.379698 112.266667 
L 8511.964664 112.059608 
L 8515.549631 95.306667 
L 8519.134597 101.000784 
L 8522.719563 134.707451 
L 8526.304529 121.355294 
L 8529.889496 63.04 
L 8533.474462 49.756863 
L 8537.059428 51.2 
L 8540.644394 72.163137 
L 8544.229361 114.641569 
L 8547.814327 131.143529 
L 8551.399293 162.487843 
L 8554.98426 164.407843 
L 8558.569226 144.367059 
L 8562.154192 108.341961 
L 8565.739158 97.141961 
L 8569.324125 128.831373 
L 8572.909091 106.180392 
L 8576.494057 91.661176 
L 8580.079023 84.614902 
L 8583.66399 94.767059 
L 8587.248956 106.983529 
L 8590.833922 103.259608 
L 8594.418889 120.812549 
L 8598.003855 124.668235 
L 8601.588821 176.470588 
L 8605.173787 136.790588 
L 8608.758754 134.823529 
L 8612.34372 97.816471 
L 8615.928686 82.076863 
L 8619.513652 84.19451 
L 8623.098619 94.78902 
L 8626.683585 111.454118 
L 8630.268551 151.083922 
L 8633.853518 99.87451 
L 8637.438484 109.731765 
L 8641.02345 92.699608 
L 8644.608416 130.409412 
L 8648.193383 116.690196 
L 8651.778349 160.872157 
L 8655.363315 136.712157 
L 8658.948281 99.905882 
L 8662.533248 95.403922 
L 8666.118214 82.56 
L 8669.70318 94.870588 
L 8673.288146 129.254902 
L 8676.873113 158.390588 
L 8680.458079 172.22902 
L 8684.043045 142.745098 
L 8687.628012 111.651765 
L 8691.212978 107.905882 
L 8694.797944 98.334118 
L 8698.38291 122.183529 
L 8701.967877 105.05098 
L 8705.552843 116.86902 
L 8709.137809 118.054902 
L 8712.722775 95.156078 
L 8716.307742 114.751373 
L 8719.892708 121.697255 
L 8723.477674 177.21098 
L 8727.062641 138.349804 
L 8730.647607 164.740392 
L 8734.232573 149.123137 
L 8737.817539 109.907451 
L 8741.402506 128.163137 
L 8744.987472 86.763922 
L 8748.572438 95.225098 
L 8752.157404 104.401569 
L 8755.742371 122.698039 
L 8759.327337 175.607843 
L 8762.912303 126.553725 
L 8766.49727 136.699608 
L 8770.082236 124.60549 
L 8773.667202 136.448627 
L 8777.252168 151.181176 
L 8780.837135 119.789804 
L 8784.422101 110.644706 
L 8788.007067 115.196863 
L 8791.592033 68.454902 
L 8795.177 55.425882 
L 8798.761966 78.086275 
L 8802.346932 115.400784 
L 8805.931898 139.068235 
L 8809.516865 130.81098 
L 8813.101831 159.987451 
L 8816.686797 101.888627 
L 8820.271764 116.862745 
L 8823.85673 96.57098 
L 8827.441696 83.74902 
L 8831.026662 94.544314 
L 8834.611629 87.143529 
L 8838.196595 107.23451 
L 8841.781561 110.164706 
L 8845.366527 92.012549 
L 8848.951494 126.164706 
L 8852.53646 117.69098 
L 8856.121426 136.577255 
L 8859.706393 137.951373 
L 8863.291359 138.776471 
L 8866.876325 132.956863 
L 8870.461291 63.193725 
L 8874.046258 49.094902 
L 8877.631224 80.884706 
L 8881.21619 108.235294 
L 8884.801156 114.343529 
L 8888.386123 130.042353 
L 8891.971089 118.318431 
L 8895.556055 83.162353 
L 8899.141022 100.112941 
L 8902.725988 94.638431 
L 8906.310954 116.737255 
L 8909.89592 125.098039 
L 8913.480887 125.540392 
L 8920.650819 64.153725 
L 8924.235785 79.259608 
L 8927.820752 61.471373 
L 8931.405718 92.916078 
L 8934.990684 120.787451 
L 8938.57565 119.140392 
L 8942.160617 151.752157 
L 8945.745583 109.129412 
L 8949.330549 95.096471 
L 8952.915516 101.107451 
L 8956.500482 85.192157 
L 8960.085448 91.372549 
L 8963.670414 93.838431 
L 8967.255381 69.270588 
L 8970.840347 78.494118 
L 8974.425313 53.709804 
L 8978.010279 71.717647 
L 8981.595246 112.363922 
L 8985.180212 131.372549 
L 8988.765178 134.65098 
L 8992.350145 120.448627 
L 8995.935111 124.991373 
L 8999.520077 107.482353 
L 9003.105043 74.293333 
L 9006.69001 92.326275 
L 9010.274976 121.483922 
L 9013.859942 139.143529 
L 9017.444908 115.407059 
L 9021.029875 107.407059 
L 9024.614841 100.997647 
L 9028.199807 103.648627 
L 9031.784774 113.945098 
L 9035.36974 163.664314 
L 9038.954706 161.079216 
L 9042.539672 162.723137 
L 9046.124639 107.061961 
L 9049.709605 65.170196 
L 9053.294571 83.284706 
L 9056.879537 51.636078 
L 9060.464504 86.340392 
L 9064.04947 106.625882 
L 9067.634436 125.013333 
L 9071.219403 132.050196 
L 9074.804369 105.910588 
L 9078.389335 113.295686 
L 9081.974301 97.12 
L 9085.559268 115.623529 
L 9089.144234 117.342745 
L 9092.7292 99.463529 
L 9096.314166 114.406275 
L 9099.899133 93.706667 
L 9103.484099 65.251765 
L 9107.069065 86.760784 
L 9110.654031 133.631373 
L 9114.238998 132.555294 
L 9117.823964 142.296471 
L 9121.40893 136.018824 
L 9124.993897 115.934118 
L 9128.578863 84.09098 
L 9132.163829 99.582745 
L 9135.748795 87.115294 
L 9139.333762 84.473725 
L 9142.918728 97.192157 
L 9146.503694 120.075294 
L 9150.08866 111.102745 
L 9153.673627 104.872157 
L 9157.258593 112.489412 
L 9160.843559 142.94902 
L 9164.428526 105.894902 
L 9168.013492 129.427451 
L 9171.598458 118.105098 
L 9175.183424 91.454118 
L 9178.768391 70.349804 
L 9182.353357 54.785882 
L 9185.938323 66.75451 
L 9189.523289 95.344314 
L 9193.108256 97.490196 
L 9196.693222 143.981176 
L 9200.278188 122.942745 
L 9203.863155 94.280784 
L 9207.448121 73.88549 
L 9211.033087 96.470588 
L 9214.618053 90.211765 
L 9218.20302 122.999216 
L 9221.787986 100.671373 
L 9225.372952 72.705882 
L 9228.957918 57.032157 
L 9232.542885 13.854118 
L 9236.127851 71.861961 
L 9239.712817 93.201569 
L 9243.297783 120.448627 
L 9246.88275 167.959216 
L 9250.467716 134.839216 
L 9254.052682 117.587451 
L 9257.637649 88.35451 
L 9261.222615 85.258039 
L 9264.807581 68.67451 
L 9268.392547 87.432157 
L 9271.977514 112.721569 
L 9275.56248 130.986667 
L 9279.147446 123.152941 
L 9282.732412 124.44549 
L 9286.317379 121.697255 
L 9289.902345 129.546667 
L 9293.487311 144.96 
L 9297.072278 167.538824 
L 9300.657244 138.073725 
L 9304.24221 101.574902 
L 9307.827176 79.887059 
L 9311.412143 54.007843 
L 9314.997109 102.287059 
L 9318.582075 93.465098 
L 9322.167041 132.966275 
L 9325.752008 127.284706 
L 9329.336974 136.906667 
L 9332.92194 120.031373 
L 9336.506907 93.967059 
L 9340.091873 110.763922 
L 9343.676839 140.401569 
L 9347.261805 151.209412 
L 9350.846772 133.951373 
L 9354.431738 121.932549 
L 9358.016704 93.923137 
L 9361.60167 85.129412 
L 9365.186637 117.502745 
L 9368.771603 133.540392 
L 9372.356569 134.475294 
L 9375.941535 178.042353 
L 9379.526502 166.958431 
L 9383.111468 104.213333 
L 9386.696434 124.643137 
L 9390.281401 102.101961 
L 9393.866367 117.753725 
L 9397.451333 146.287059 
L 9401.036299 137.094902 
L 9404.621266 151.667451 
L 9408.206232 100.881569 
L 9411.791198 101.716078 
L 9415.376164 113.449412 
L 9418.961131 137.242353 
L 9422.546097 125.728627 
L 9426.131063 144.517647 
L 9429.71603 144.724706 
L 9433.300996 108.934902 
L 9436.885962 76.916078 
L 9440.470928 90.506667 
L 9444.055895 71.184314 
L 9447.640861 134.767059 
L 9451.225827 104.774902 
L 9454.810793 120.414118 
L 9458.39576 155.811765 
L 9461.980726 114.698039 
L 9465.565692 110.854902 
L 9469.150659 111.099608 
L 9472.735625 150.265098 
L 9476.320591 126.901961 
L 9479.905557 116.03451 
L 9483.490524 83.764706 
L 9487.07549 76.122353 
L 9490.660456 74.713725 
L 9494.245422 93.342745 
L 9497.830389 101.515294 
L 9501.415355 121.40549 
L 9505.000321 157.44 
L 9508.585288 144.407843 
L 9512.170254 96.859608 
L 9515.75522 88.850196 
L 9522.925153 100.875294 
L 9526.510119 138.271373 
L 9530.095085 71.272157 
L 9533.680051 110.713725 
L 9537.265018 124.950588 
L 9540.849984 111.29098 
L 9544.43495 115.240784 
L 9548.019916 115.595294 
L 9551.604883 156.985098 
L 9555.189849 140.028235 
L 9558.774815 157.465098 
L 9562.359782 139.237647 
L 9565.944748 93.678431 
L 9569.529714 52.301176 
L 9573.11468 88.828235 
L 9576.699647 119.987451 
L 9580.284613 120.501961 
L 9583.869579 163.789804 
L 9587.454545 121.584314 
L 9587.454545 121.584314 
" clip-path="url(#p45b7ddac90)" style="fill: none; stroke: #1f77b4; stroke-width: 1.5; stroke-linecap: square"/>
   </g>
  </g>
 </g>
 <defs>
  <clipPath id="p45b7ddac90">
   <rect x="0" y="-0" width="10044" height="221.76"/>
  </clipPath>
 </defs>
</svg>
