<?xml version="1.0" encoding="utf-8" standalone="no"?>
<!DOCTYPE svg PUBLIC "-//W3C//DTD SVG 1.1//EN"
  "http://www.w3.org/Graphics/SVG/1.1/DTD/svg11.dtd">
<svg xmlns:xlink="http://www.w3.org/1999/xlink" width="10044pt" height="221.76pt" viewBox="0 0 10044 221.76" xmlns="http://www.w3.org/2000/svg" version="1.1">
 <metadata>
  <rdf:RDF xmlns:dc="http://purl.org/dc/elements/1.1/" xmlns:cc="http://creativecommons.org/ns#" xmlns:rdf="http://www.w3.org/1999/02/22-rdf-syntax-ns#">
   <cc:Work>
    <dc:type rdf:resource="http://purl.org/dc/dcmitype/StillImage"/>
    <dc:date>2025-08-12T08:23:40.418467</dc:date>
    <dc:format>image/svg+xml</dc:format>
    <dc:creator>
     <cc:Agent>
      <dc:title>Matplotlib v3.9.2, https://matplotlib.org/</dc:title>
     </cc:Agent>
    </dc:creator>
   </cc:Work>
  </rdf:RDF>
 </metadata>
 <defs>
  <style type="text/css">*{stroke-linejoin: round; stroke-linecap: butt}</style>
 </defs>
 <g id="figure_1">
  <g id="patch_1">
   <path d="M 0 221.76 
L 10044 221.76 
L 10044 0 
L 0 0 
z
" style="fill: #ffffff"/>
  </g>
  <g id="axes_1">
   <g id="line2d_1">
    <path d="M 456.545455 96.915168 
L 460.130421 95.471906 
L 463.715387 99.814463 
L 467.300353 109.79915 
L 470.88532 154.284812 
L 474.470286 163.991703 
L 478.055252 172.331966 
L 481.640218 167.606243 
L 485.225185 132.425148 
L 488.810151 141.027242 
L 492.395117 145.427273 
L 495.980084 133.948236 
L 499.56505 151.794228 
L 503.150016 120.154232 
L 506.734982 121.080219 
L 510.319949 126.993759 
L 513.904915 138.865543 
L 517.489881 117.733895 
L 521.074847 172.296843 
L 524.659814 166.236422 
L 528.24478 167.152829 
L 531.829746 121.06106 
L 535.414712 108.438908 
L 538.999679 93.147361 
L 542.584645 89.922375 
L 546.169611 109.19247 
L 549.754578 141.049593 
L 553.339544 157.289478 
L 556.92451 128.536005 
L 560.509476 120.713017 
L 564.094443 145.92539 
L 567.679409 141.77761 
L 571.264375 150.325422 
L 574.849341 145.906232 
L 578.434308 141.675432 
L 582.019274 133.740687 
L 585.60424 124.614932 
L 589.189207 100.963963 
L 592.774173 64.550349 
L 596.359139 125.068346 
L 599.944105 150.903365 
L 603.529072 160.648573 
L 607.114038 152.943728 
L 610.699004 130.21236 
L 614.28397 121.262223 
L 617.868937 102.34975 
L 621.453903 105.632212 
L 625.038869 113.043296 
L 628.623836 121.326084 
L 632.208802 104.92016 
L 635.793768 106.123943 
L 639.378734 89.973463 
L 642.963701 125.777204 
L 646.548667 143.747726 
L 650.133633 173.411219 
L 653.718599 174.375522 
L 657.303566 169.477374 
L 660.888532 138.584554 
L 664.473498 128.385932 
L 668.058465 101.851633 
L 671.643431 83.462821 
L 675.228397 103.824942 
L 678.813363 118.589635 
L 682.39833 122.628851 
L 685.983296 149.041813 
L 689.568262 146.056305 
L 693.153228 145.008983 
L 696.738195 139.801108 
L 700.323161 138.073665 
L 703.908127 172.197858 
L 707.493093 157.998336 
L 711.07806 138.134333 
L 714.663026 92.693947 
L 718.247992 80.825357 
L 721.832959 70.738492 
L 725.417925 113.771313 
L 729.002891 146.231924 
L 732.587857 173.548521 
L 736.172824 181.457721 
L 739.75779 180.343345 
L 743.342756 138.195001 
L 746.927722 123.063107 
L 750.512689 111.580876 
L 754.097655 129.854737 
L 757.682621 125.646289 
L 761.267588 96.902396 
L 764.852554 103.077767 
L 768.43752 97.566551 
L 772.022486 118.675847 
L 775.607453 130.554017 
L 779.192419 146.627863 
L 782.777385 143.070798 
L 786.362351 170.990883 
L 789.947318 126.508414 
L 793.532284 120.230866 
L 797.11725 96.455368 
L 800.702217 76.901091 
L 807.872149 116.29702 
L 811.457115 125.786784 
L 815.042082 126.562696 
L 818.627048 128.497689 
L 822.212014 127.24601 
L 825.79698 142.326816 
L 829.381947 149.460104 
L 832.966913 169.45183 
L 836.551879 165.22103 
L 840.136845 133.651281 
L 847.306778 77.55886 
L 850.891744 79.762069 
L 854.476711 98.364816 
L 858.061677 140.452492 
L 861.646643 152.30831 
L 865.231609 167.456169 
L 868.816576 164.978358 
L 872.401542 141.065558 
L 875.986508 119.288914 
L 879.571474 124.298819 
L 883.156441 129.803649 
L 886.741407 129.781297 
L 890.326373 128.702044 
L 893.91134 92.1639 
L 897.496306 95.58047 
L 901.081272 89.417872 
L 904.666238 126.604206 
L 908.251205 133.967394 
L 911.836171 150.925716 
L 915.421137 162.807079 
L 919.006103 141.854243 
L 922.59107 112.465352 
L 926.176036 91.969124 
L 929.761002 83.558613 
L 933.345969 100.916068 
L 936.930935 120.827967 
L 940.515901 117.325184 
L 944.100867 110.025857 
L 947.685834 113.515868 
L 951.2708 108.183464 
L 954.855766 129.327883 
L 958.440732 156.315596 
L 962.025699 165.901151 
L 965.610665 169.656185 
L 969.195631 106.628445 
L 972.780597 78.401827 
L 976.365564 68.081869 
L 979.95053 85.397814 
L 983.535496 99.734637 
L 987.120463 112.822975 
L 990.705429 146.043533 
L 994.290395 156.912697 
L 997.875361 142.920724 
L 1001.460328 117.609366 
L 1005.045294 117.088898 
L 1008.63026 161.517084 
L 1012.215226 131.387405 
L 1015.800193 127.536579 
L 1019.385159 104.131475 
L 1022.970125 85.496798 
L 1026.555092 71.840096 
L 1030.140058 88.66431 
L 1033.725024 98.131722 
L 1037.30999 128.820187 
L 1040.894957 178.459442 
L 1044.479923 162.277032 
L 1048.064889 134.443159 
L 1051.649855 108.557051 
L 1055.234822 97.914595 
L 1058.819788 107.011612 
L 1062.404754 104.058035 
L 1065.989721 98.862932 
L 1069.574687 103.266157 
L 1073.159653 96.653337 
L 1076.744619 98.106178 
L 1080.329586 93.945626 
L 1083.914552 113.004979 
L 1087.499518 121.124921 
L 1091.084484 128.644569 
L 1094.669451 148.061545 
L 1098.254417 94.581044 
L 1101.839383 76.91067 
L 1105.42435 57.640575 
L 1109.009316 65.172995 
L 1112.594282 88.830349 
L 1116.179248 132.294233 
L 1119.764215 136.09397 
L 1123.349181 134.966821 
L 1126.934147 145.861529 
L 1130.519113 122.766152 
L 1134.10408 100.702133 
L 1137.689046 110.246178 
L 1141.274012 110.389866 
L 1144.858978 78.98935 
L 1148.443945 70.518171 
L 1152.028911 56.947681 
L 1155.613877 43.964714 
L 1159.198844 72.791627 
L 1162.78381 111.798004 
L 1166.368776 138.169456 
L 1169.953742 144.236263 
L 1173.538709 141.103875 
L 1177.123675 119.199508 
L 1180.708641 115.099624 
L 1184.293607 108.595368 
L 1187.878574 79.21925 
L 1191.46354 57.710822 
L 1195.048506 83.360644 
L 1198.633473 91.461428 
L 1202.218439 86.295062 
L 1205.803405 86.406819 
L 1209.388371 95.644332 
L 1212.973338 124.586194 
L 1216.558304 125.697378 
L 1220.14327 127.935711 
L 1223.728236 134.462318 
L 1227.313203 94.351144 
L 1230.898169 61.507366 
L 1234.483135 63.158176 
L 1238.068102 53.131979 
L 1241.653068 85.260512 
L 1245.238034 92.559839 
L 1248.823 106.973296 
L 1252.407967 120.157425 
L 1255.992933 109.629918 
L 1259.577899 93.65825 
L 1263.162865 104.294321 
L 1266.747832 67.41452 
L 1270.332798 92.547067 
L 1273.917764 94.376688 
L 1277.50273 61.194446 
L 1281.087697 41.707223 
L 1284.672663 29.643856 
L 1288.257629 63.950054 
L 1291.842596 78.992543 
L 1295.427562 103.6142 
L 1299.012528 126.48287 
L 1302.597494 100.38602 
L 1306.182461 87.741517 
L 1309.767427 95.028072 
L 1313.352393 52.39119 
L 1316.937359 59.664972 
L 1320.522326 30.646476 
L 1324.107292 47.055593 
L 1327.692258 48.067792 
L 1331.277225 43.409122 
L 1334.862191 57.710822 
L 1338.447157 49.329049 
L 1342.032123 98.460607 
L 1345.61709 113.388146 
L 1349.202056 121.670934 
L 1352.787022 92.770581 
L 1356.371988 75.716467 
L 1359.956955 48.521206 
L 1363.541921 20.387186 
L 1367.126887 10.376954 
L 1370.711854 50.92877 
L 1374.29682 76.323147 
L 1377.881786 60.555835 
L 1381.466752 70.942847 
L 1385.051719 86.984763 
L 1388.636685 95.586857 
L 1392.221651 85.484026 
L 1395.806617 76.038965 
L 1399.391584 91.39118 
L 1402.97655 56.759291 
L 1406.561516 28.302773 
L 1410.146482 23.015071 
L 1413.731449 36.754793 
L 1417.316415 32.17595 
L 1420.901381 59.281806 
L 1424.486348 113.29874 
L 1428.071314 125.71015 
L 1431.65628 127.766479 
L 1435.241246 80.748724 
L 1438.826213 73.733579 
L 1442.411179 78.871206 
L 1445.996145 66.086209 
L 1449.581111 57.774683 
L 1453.166078 53.553462 
L 1456.751044 50.373178 
L 1460.33601 46.059359 
L 1463.920977 52.780743 
L 1467.505943 88.000155 
L 1471.090909 120.294727 
L 1474.675875 141.930877 
L 1478.260842 129.889861 
L 1481.845808 134.430387 
L 1485.430774 88.348198 
L 1489.01574 67.162269 
L 1492.600707 43.287786 
L 1496.185673 66.571553 
L 1499.770639 60.041753 
L 1503.355606 84.283437 
L 1506.940572 94.865226 
L 1510.525538 98.048703 
L 1514.110504 103.358756 
L 1517.695471 87.945873 
L 1521.280437 118.212854 
L 1524.865403 124.528719 
L 1528.450369 128.229472 
L 1532.035336 93.536914 
L 1535.620302 64.805793 
L 1539.205268 64.95906 
L 1542.790235 38.277881 
L 1546.375201 69.381443 
L 1549.960167 71.239802 
L 1553.545133 106.031344 
L 1557.1301 109.511775 
L 1560.715066 118.056394 
L 1564.300032 110.929492 
L 1567.884998 76.40936 
L 1571.469965 95.219655 
L 1575.054931 94.874805 
L 1578.639897 93.022832 
L 1582.224863 79.528976 
L 1585.80983 92.604542 
L 1589.394796 66.022348 
L 1592.979762 48.026282 
L 1596.564729 70.166935 
L 1600.149695 89.187972 
L 1603.734661 125.94005 
L 1607.319627 155.213991 
L 1610.904594 129.449219 
L 1614.48956 105.561965 
L 1618.074526 58.678318 
L 1621.659492 41.260195 
L 1625.244459 55.696003 
L 1628.829425 67.628455 
L 1632.414391 98.435063 
L 1635.999358 85.998108 
L 1639.584324 65.14745 
L 1643.16929 90.589723 
L 1646.754256 83.55542 
L 1650.339223 102.34975 
L 1653.924189 101.596189 
L 1657.509155 116.820681 
L 1661.094121 105.332065 
L 1664.679088 76.786141 
L 1668.264054 56.219665 
L 1671.84902 53.16391 
L 1675.433987 47.208859 
L 1679.018953 95.439976 
L 1682.603919 114.99106 
L 1686.188885 121.651776 
L 1689.773852 127.258783 
L 1693.358818 94.054189 
L 1696.943784 84.938014 
L 1700.52875 88.217282 
L 1704.113717 84.854994 
L 1707.698683 107.184037 
L 1711.283649 82.045104 
L 1714.868615 97.074821 
L 1718.453582 69.767803 
L 1722.038548 81.473547 
L 1725.623514 73.650559 
L 1729.208481 119.349582 
L 1732.793447 129.541818 
L 1736.378413 144.84933 
L 1739.963379 142.144811 
L 1743.548346 89.194358 
L 1747.133312 85.51915 
L 1750.718278 74.308329 
L 1754.303244 69.822085 
L 1757.888211 109.004079 
L 1761.473177 134.954048 
L 1765.058143 114.422696 
L 1768.64311 130.209167 
L 1772.228076 103.403459 
L 1775.813042 118.394858 
L 1779.398008 144.229877 
L 1782.982975 128.724396 
L 1786.567941 140.16831 
L 1790.152907 104.859492 
L 1793.737873 82.763542 
L 1797.32284 86.97199 
L 1800.907806 54.84665 
L 1804.492772 61.45947 
L 1811.662705 134.682639 
L 1815.247671 138.635642 
L 1818.832637 113.18379 
L 1822.417604 113.72661 
L 1826.00257 113.38176 
L 1829.587536 113.273196 
L 1833.172502 86.483453 
L 1836.757469 101.407798 
L 1840.342435 85.014647 
L 1843.927401 59.249875 
L 1847.512367 73.439818 
L 1851.097334 55.644914 
L 1854.6823 64.971832 
L 1858.267266 114.336484 
L 1861.852233 152.116726 
L 1865.437199 150.45953 
L 1869.022165 131.566216 
L 1872.607131 117.056968 
L 1876.192098 56.213278 
L 1879.777064 77.431138 
L 1883.36203 67.107987 
L 1886.946996 96.107325 
L 1890.531963 115.319945 
L 1894.116929 104.176178 
L 1897.701895 110.032244 
L 1901.286862 84.225962 
L 1904.871828 92.662017 
L 1908.456794 148.269094 
L 1912.04176 154.029367 
L 1915.626727 157.359725 
L 1919.211693 131.141539 
L 1922.796659 111.865058 
L 1926.381625 56.934909 
L 1929.966592 40.794009 
L 1933.551558 58.039707 
L 1937.136524 98.051896 
L 1940.721491 139.386011 
L 1944.306457 139.401976 
L 1947.891423 148.62033 
L 1951.476389 131.352281 
L 1955.061356 130.190008 
L 1958.646322 117.031423 
L 1962.231288 124.643669 
L 1965.816254 137.173223 
L 1969.401221 121.469771 
L 1972.986187 103.278929 
L 1976.571153 66.836577 
L 1980.156119 72.782048 
L 1983.741086 101.046983 
L 1987.326052 126.313638 
L 1990.911018 153.211945 
L 1994.495985 174.241414 
L 1998.080951 171.450683 
L 2001.665917 124.177483 
L 2005.250883 124.656442 
L 2008.83585 123.698525 
L 2012.420816 94.740697 
L 2016.005782 128.06024 
L 2019.590748 118.525773 
L 2023.175715 102.854253 
L 2026.760681 111.740529 
L 2030.345647 117.302833 
L 2033.930614 128.044275 
L 2037.51558 142.534364 
L 2041.100546 158.41982 
L 2044.685512 161.654386 
L 2048.270479 141.5062 
L 2051.855445 134.768851 
L 2055.440411 87.872432 
L 2059.025377 93.156941 
L 2062.610344 90.340665 
L 2066.19531 116.028803 
L 2069.780276 122.299966 
L 2073.365243 152.432839 
L 2076.950209 131.457652 
L 2080.535175 143.153817 
L 2084.120141 145.887074 
L 2087.705108 160.338847 
L 2091.290074 147.119593 
L 2094.87504 139.456258 
L 2098.460006 126.342375 
L 2102.044973 109.732096 
L 2105.629939 78.17512 
L 2109.214905 73.663331 
L 2112.799872 108.841234 
L 2116.384838 105.769513 
L 2119.969804 142.626963 
L 2123.55477 156.245348 
L 2127.139737 156.385843 
L 2130.724703 143.134659 
L 2134.309669 121.265416 
L 2137.894635 113.06884 
L 2141.479602 99.661196 
L 2145.064568 136.288746 
L 2148.649534 135.104122 
L 2152.2345 104.265584 
L 2159.404433 101.356709 
L 2162.989399 120.058441 
L 2166.574366 133.066952 
L 2170.159332 168.356611 
L 2173.744298 186.336712 
L 2177.329264 154.741419 
L 2180.914231 135.605432 
L 2184.499197 124.158325 
L 2188.084163 77.785567 
L 2191.669129 68.394788 
L 2195.254096 117.270902 
L 2198.839062 137.556389 
L 2202.424028 152.854323 
L 2206.008995 147.952981 
L 2209.593961 159.776869 
L 2213.178927 141.937263 
L 2216.763893 133.970587 
L 2220.34886 153.413107 
L 2223.933826 139.398783 
L 2227.518792 123.225952 
L 2231.103758 116.52692 
L 2234.688725 91.870139 
L 2238.273691 82.610275 
L 2241.858657 85.851228 
L 2245.443624 132.744453 
L 2249.02859 173.736911 
L 2252.613556 149.434559 
L 2256.198522 161.8779 
L 2259.783489 139.935216 
L 2263.368455 111.989587 
L 2266.953421 108.157919 
L 2270.538387 129.28318 
L 2274.123354 152.812813 
L 2277.70832 113.966089 
L 2281.293286 136.467557 
L 2284.878252 101.743069 
L 2288.463219 142.559909 
L 2292.048185 138.626063 
L 2295.633151 172.050977 
L 2299.218118 211.68 
L 2302.803084 204.693593 
L 2306.38805 166.613202 
L 2309.973016 140.704743 
L 2313.557983 112.321665 
L 2317.142949 108.078093 
L 2320.727915 120.783264 
L 2324.312881 119.978614 
L 2327.897848 153.732413 
L 2331.482814 162.548442 
L 2335.06778 159.377737 
L 2338.652747 136.454785 
L 2342.237713 132.498588 
L 2345.822679 135.334022 
L 2349.407645 159.61083 
L 2352.992612 175.06203 
L 2356.577578 131.812081 
L 2360.162544 116.063927 
L 2363.74751 93.996714 
L 2367.332477 102.937272 
L 2370.917443 114.116163 
L 2374.502409 132.999898 
L 2378.087376 161.600104 
L 2381.672342 179.021419 
L 2385.257308 144.715222 
L 2388.842274 154.917037 
L 2392.427241 119.550745 
L 2396.012207 117.136794 
L 2399.597173 108.595368 
L 2403.182139 109.735289 
L 2406.767106 116.309792 
L 2410.352072 99.175852 
L 2413.937038 102.704179 
L 2417.522004 91.902069 
L 2421.106971 98.779913 
L 2424.691937 143.604038 
L 2428.276903 186.247306 
L 2431.86187 172.986543 
L 2435.446836 164.703755 
L 2439.031802 130.748793 
L 2442.616768 100.296615 
L 2446.201735 73.656945 
L 2449.786701 66.989844 
L 2453.371667 111.18813 
L 2456.956633 114.221533 
L 2460.5416 153.476968 
L 2464.126566 127.961255 
L 2467.711532 123.561223 
L 2471.296499 130.857357 
L 2474.881465 144.804627 
L 2478.466431 156.692376 
L 2482.051397 121.172817 
L 2485.636364 108.355889 
L 2489.22133 114.288588 
L 2492.806296 80.873253 
L 2496.391262 49.405682 
L 2499.976229 63.084736 
L 2503.561195 105.932359 
L 2507.146161 123.928425 
L 2510.731128 150.970419 
L 2514.316094 135.835332 
L 2517.90106 112.56753 
L 2521.486026 101.142775 
L 2525.070993 90.455615 
L 2528.655959 96.570318 
L 2532.240925 93.853027 
L 2535.825891 95.251586 
L 2539.410858 83.207377 
L 2542.995824 42.955708 
L 2546.58079 62.10766 
L 2550.165757 89.999008 
L 2553.750723 132.52094 
L 2557.335689 152.576527 
L 2560.920655 145.950935 
L 2564.505622 134.226032 
L 2568.090588 118.085132 
L 2571.675554 67.966919 
L 2575.26052 56.682658 
L 2578.845487 89.24864 
L 2582.430453 91.062296 
L 2589.600385 120.476731 
L 2593.185352 125.780398 
L 2596.770318 101.599382 
L 2600.355284 114.678141 
L 2603.940251 135.254196 
L 2607.525217 143.565722 
L 2611.110183 126.32641 
L 2614.695149 122.175437 
L 2618.280116 79.650312 
L 2621.865082 56.609217 
L 2625.450048 43.195188 
L 2629.035014 58.729407 
L 2632.619981 91.174053 
L 2636.204947 119.585868 
L 2639.789913 168.615249 
L 2643.37488 117.197462 
L 2646.959846 125.170524 
L 2654.129778 102.496631 
L 2657.714745 109.374474 
L 2661.299711 117.012265 
L 2664.884677 119.68166 
L 2668.469643 104.41885 
L 2672.05461 72.350985 
L 2675.639576 68.519318 
L 2679.224542 90.915415 
L 2682.809509 128.63499 
L 2686.394475 162.87094 
L 2689.979441 162.162082 
L 2693.564407 145.267621 
L 2697.149374 129.078825 
L 2700.73434 89.140076 
L 2704.319306 98.253059 
L 2707.904272 94.140402 
L 2711.489239 97.844347 
L 2715.074205 118.75248 
L 2718.659171 102.008093 
L 2722.244137 113.582922 
L 2725.829104 110.635731 
L 2729.41407 108.69116 
L 2732.999036 115.907467 
L 2736.584003 146.714075 
L 2740.168969 155.932429 
L 2743.753935 144.913191 
L 2747.338901 88.105525 
L 2750.923868 66.619449 
L 2754.508834 71.5623 
L 2758.0938 68.247908 
L 2761.678766 103.148014 
L 2765.263733 123.305779 
L 2768.848699 132.252723 
L 2772.433665 150.232823 
L 2776.018632 137.253049 
L 2779.603598 109.56925 
L 2783.188564 102.199676 
L 2786.77353 123.040755 
L 2790.358497 114.64621 
L 2793.943463 134.724148 
L 2797.528429 82.955126 
L 2801.113395 83.315941 
L 2804.698362 78.67643 
L 2808.283328 89.443416 
L 2811.868294 136.304711 
L 2815.453261 132.482623 
L 2819.038227 157.621556 
L 2822.623193 159.64276 
L 2826.208159 127.415242 
L 2829.793126 108.924253 
L 2833.378092 84.411159 
L 2836.963058 99.092832 
L 2840.548024 125.780398 
L 2844.132991 110.721944 
L 2847.717957 98.534048 
L 2851.302923 94.38946 
L 2854.887889 97.914595 
L 2858.472856 99.977309 
L 2862.057822 128.583901 
L 2865.642788 139.619104 
L 2869.227755 158.403854 
L 2872.812721 115.79571 
L 2876.397687 92.78016 
L 2879.982653 82.926388 
L 2883.56762 65.131485 
L 2887.152586 77.392821 
L 2890.737552 117.155952 
L 2897.907485 141.2763 
L 2901.492451 139.887321 
L 2905.077417 116.772786 
L 2908.662384 96.58309 
L 2912.24735 111.734143 
L 2915.832316 117.175111 
L 2919.417282 150.759678 
L 2923.002249 95.823143 
L 2926.587215 96.330839 
L 2930.172181 85.298829 
L 2933.757147 68.200012 
L 2937.342114 96.669303 
L 2940.92708 115.744621 
L 2944.512046 165.039026 
L 2948.097013 157.021261 
L 2951.681979 136.74216 
L 2958.851911 111.191323 
L 2962.436878 83.798092 
L 2966.021844 66.325688 
L 2969.60681 91.841401 
L 2973.191776 123.535679 
L 2976.776743 112.235452 
L 2980.361709 114.892075 
L 2983.946675 111.111497 
L 2987.531642 124.86399 
L 2991.116608 147.917857 
L 2994.701574 149.076937 
L 2998.28654 171.671004 
L 3001.871507 135.870456 
L 3005.456473 96.222275 
L 3009.041439 80.924342 
L 3012.626405 68.829044 
L 3016.211372 72.79482 
L 3019.796338 112.618619 
L 3023.381304 135.282933 
L 3026.96627 159.920556 
L 3030.551237 149.428173 
L 3034.136203 121.53044 
L 3037.721169 129.557783 
L 3041.306136 112.382333 
L 3044.891102 121.798656 
L 3048.476068 126.78621 
L 3052.061034 112.45258 
L 3055.646001 100.034784 
L 3059.230967 82.121738 
L 3062.815933 77.983537 
L 3066.400899 106.021765 
L 3069.985866 137.763938 
L 3073.570832 155.622702 
L 3077.155798 157.238389 
L 3080.740765 154.182634 
L 3084.325731 132.399603 
L 3087.910697 104.46036 
L 3091.495663 115.511528 
L 3095.08063 98.147688 
L 3098.665596 87.173153 
L 3102.250562 104.476325 
L 3105.835528 96.404279 
L 3109.420495 107.350076 
L 3113.005461 89.216709 
L 3116.590427 137.502107 
L 3120.175394 151.669699 
L 3123.76036 191.305107 
L 3127.345326 167.887232 
L 3130.930292 176.460588 
L 3134.515259 126.182723 
L 3138.100225 88.194931 
L 3141.685191 68.065904 
L 3145.270157 58.138691 
L 3148.855124 65.042079 
L 3152.44009 127.951676 
L 3156.025056 139.363659 
L 3159.610022 129.656768 
L 3163.194989 117.4561 
L 3166.779955 144.067031 
L 3170.364921 136.885848 
L 3173.949888 150.912944 
L 3177.534854 134.356947 
L 3181.11982 123.692139 
L 3184.704786 85.356304 
L 3188.289753 65.770096 
L 3191.874719 59.677745 
L 3195.459685 99.712285 
L 3199.044651 101.877178 
L 3202.629618 167.066616 
L 3206.214584 155.367258 
L 3209.79955 165.195485 
L 3213.384517 122.590534 
L 3216.969483 114.160865 
L 3220.554449 97.097172 
L 3224.139415 83.737424 
L 3227.724382 113.439235 
L 3231.309348 111.948077 
L 3234.894314 86.946446 
L 3238.47928 71.951853 
L 3242.064247 66.488534 
L 3245.649213 119.442181 
L 3249.234179 125.872996 
L 3252.819146 160.776295 
L 3256.404112 162.328121 
L 3259.989078 140.88994 
L 3263.574044 116.530113 
L 3267.159011 82.144089 
L 3270.743977 68.158502 
L 3274.328943 88.309881 
L 3277.913909 116.491797 
L 3281.498876 121.498509 
L 3285.083842 118.279908 
L 3288.668808 109.732096 
L 3292.253774 124.966168 
L 3295.838741 94.699187 
L 3299.423707 127.319451 
L 3303.008673 146.956747 
L 3306.59364 135.908772 
L 3310.178606 129.347042 
L 3313.763572 110.013085 
L 3317.348538 77.201238 
L 3320.933505 77.881359 
L 3324.518471 90.93138 
L 3328.103437 132.198441 
L 3331.688403 129.503501 
L 3335.27337 176.403113 
L 3338.858336 129.86751 
L 3342.443302 137.329682 
L 3346.028269 115.201802 
L 3349.613235 118.912133 
L 3353.198201 117.430555 
L 3356.783167 110.827315 
L 3360.368134 122.571376 
L 3363.9531 108.560245 
L 3367.538066 97.081207 
L 3371.123032 102.458314 
L 3374.707999 123.736841 
L 3378.292965 116.520534 
L 3381.877931 167.098547 
L 3385.462898 156.047379 
L 3389.047864 164.18648 
L 3392.63283 124.033796 
L 3396.217796 93.246346 
L 3399.802763 95.257972 
L 3403.387729 90.337472 
L 3406.972695 90.043711 
L 3410.557661 123.605926 
L 3414.142628 146.017989 
L 3417.727594 144.421461 
L 3421.31256 109.894942 
L 3424.897527 136.28236 
L 3428.482493 154.613697 
L 3432.067459 141.950035 
L 3435.652425 148.051966 
L 3439.237392 131.460845 
L 3442.822358 92.080881 
L 3446.407324 87.74471 
L 3449.99229 86.205657 
L 3453.577257 89.312501 
L 3457.162223 110.281302 
L 3460.747189 154.256074 
L 3464.332155 178.992682 
L 3467.917122 156.040993 
L 3471.502088 135.36276 
L 3475.087054 101.5451 
L 3478.672021 112.602654 
L 3482.256987 93.843448 
L 3485.841953 92.339518 
L 3489.426919 120.463959 
L 3493.011886 96.152027 
L 3496.596852 76.217777 
L 3500.181818 81.70664 
L 3503.766784 104.166599 
L 3507.351751 133.232991 
L 3510.936717 181.151188 
L 3514.521683 146.605511 
L 3518.10665 145.89346 
L 3521.691616 91.426304 
L 3525.276582 74.285977 
L 3528.861548 54.051579 
L 3532.446515 82.977477 
L 3536.031481 92.093653 
L 3539.616447 139.063512 
L 3543.201413 116.520534 
L 3546.78638 128.919172 
L 3550.371346 120.224479 
L 3553.956312 116.115016 
L 3557.541279 124.180676 
L 3561.126245 118.03085 
L 3564.711211 144.830172 
L 3568.296177 103.231033 
L 3571.881144 99.357856 
L 3575.46611 53.38423 
L 3579.051076 35.982073 
L 3582.636042 70.875793 
L 3586.221009 102.397646 
L 3589.805975 148.202039 
L 3593.390941 150.255175 
L 3596.975907 145.561382 
L 3600.560874 112.232259 
L 3604.14584 97.033311 
L 3607.730806 69.975351 
L 3611.315773 93.916888 
L 3614.900739 89.424258 
L 3618.485705 66.533237 
L 3622.070671 70.661858 
L 3625.655638 73.347219 
L 3629.240604 60.862369 
L 3632.82557 88.083174 
L 3636.410536 94.015873 
L 3639.995503 159.444791 
L 3647.165435 131.250103 
L 3650.750402 115.016605 
L 3654.335368 64.460943 
L 3657.920334 62.557881 
L 3661.5053 60.408954 
L 3665.090267 61.724494 
L 3668.675233 92.748229 
L 3672.260199 110.629345 
L 3675.845165 88.766488 
L 3679.430132 113.966089 
L 3683.015098 101.759034 
L 3686.600064 102.784006 
L 3690.185031 139.290219 
L 3693.769997 139.018809 
L 3697.354963 102.301854 
L 3700.939929 98.508503 
L 3704.524896 63.91493 
L 3708.109862 49.003357 
L 3711.694828 66.664152 
L 3715.279794 90.05329 
L 3718.864761 127.718583 
L 3722.449727 139.74044 
L 3726.034693 149.278099 
L 3729.619659 107.487378 
L 3733.204626 111.676668 
L 3736.789592 111.14662 
L 3740.374558 119.266563 
L 3747.544491 97.378161 
L 3751.129457 79.011701 
L 3754.714423 56.545356 
L 3758.29939 77.667424 
L 3761.884356 84.771975 
L 3765.469322 116.424742 
L 3769.054288 146.4267 
L 3772.639255 161.667158 
L 3776.224221 164.595191 
L 3779.809187 140.902713 
L 3783.394154 95.730544 
L 3786.97912 58.57614 
L 3790.564086 95.462327 
L 3794.149052 98.179618 
L 3797.734019 94.418198 
L 3801.318985 107.819455 
L 3804.903951 114.128935 
L 3808.488917 94.798172 
L 3812.073884 124.506368 
L 3819.243816 154.265653 
L 3822.828783 133.753459 
L 3826.413749 143.323049 
L 3829.998715 88.584484 
L 3833.583681 80.75511 
L 3837.168648 61.571227 
L 3840.753614 72.204105 
L 3844.33858 107.283022 
L 3847.923546 119.985 
L 3851.508513 127.677073 
L 3855.093479 128.500882 
L 3858.678445 113.301933 
L 3862.263412 130.949956 
L 3865.848378 91.63066 
L 3869.433344 99.188624 
L 3873.01831 114.892075 
L 3876.603277 90.462001 
L 3880.188243 76.789334 
L 3883.773209 88.881438 
L 3887.358175 59.69371 
L 3890.943142 96.19673 
L 3894.528108 112.126889 
L 3898.113074 137.569162 
L 3901.69804 155.533297 
L 3905.283007 130.410329 
L 3908.867973 95.040844 
L 3912.452939 74.279591 
L 3916.037906 71.533563 
L 3919.622872 73.344026 
L 3923.207838 78.535936 
L 3926.792804 107.551239 
L 3930.377771 75.326914 
L 3933.962737 92.227761 
L 3937.547703 101.395026 
L 3941.132669 104.038877 
L 3944.717636 122.379793 
L 3948.302602 151.254601 
L 3951.887568 146.075464 
L 3955.472535 121.322891 
L 3959.057501 83.845988 
L 3966.227433 38.565256 
L 3969.8124 72.670291 
L 3973.397366 101.567451 
L 3976.982332 125.52176 
L 3980.567298 141.107068 
L 3984.152265 131.323543 
L 3987.737231 117.551891 
L 3991.322197 127.000145 
L 3994.907164 140.107641 
L 3998.49213 120.333043 
L 4002.077096 120.920566 
L 4005.662062 115.182643 
L 4009.247029 87.39986 
L 4012.831995 74.052884 
L 4016.416961 83.105199 
L 4020.001927 98.898056 
L 4023.586894 127.696231 
L 4027.17186 161.076443 
L 4030.756826 166.865454 
L 4034.341792 144.089383 
L 4037.926759 119.419829 
L 4041.511725 86.805952 
L 4045.096691 98.150881 
L 4048.681658 104.18895 
L 4052.266624 108.57621 
L 4055.85159 112.136468 
L 4059.436556 113.474358 
L 4063.021523 107.873737 
L 4066.606489 107.474605 
L 4070.191455 125.86661 
L 4073.776421 152.116726 
L 4077.361388 165.387069 
L 4080.946354 138.868736 
L 4084.53132 124.75862 
L 4088.116287 104.699839 
L 4091.701253 78.912716 
L 4095.286219 62.286472 
L 4098.871185 68.257487 
L 4102.456152 105.708845 
L 4106.041118 133.55549 
L 4109.626084 163.474428 
L 4113.21105 144.475743 
L 4116.796017 134.883801 
L 4120.380983 156.296437 
L 4123.965949 115.517914 
L 4127.550916 136.327063 
L 4131.135882 130.911639 
L 4134.720848 114.438661 
L 4138.305814 74.934168 
L 4141.890781 60.389796 
L 4145.475747 55.759864 
L 4149.060713 98.217935 
L 4152.645679 128.772291 
L 4156.230646 151.621803 
L 4159.815612 179.321567 
L 4166.985544 109.134995 
L 4170.570511 100.175279 
L 4174.155477 72.746924 
L 4177.740443 88.079981 
L 4181.32541 83.003021 
L 4184.910376 99.201396 
L 4188.495342 83.290396 
L 4192.080308 93.252732 
L 4195.665275 97.853927 
L 4199.250241 126.923512 
L 4202.835207 128.309298 
L 4206.420173 145.628436 
L 4210.00514 170.812072 
L 4213.590106 154.885106 
L 4217.175072 110.798577 
L 4220.760039 84.296209 
L 4224.345005 69.509165 
L 4227.929971 80.21229 
L 4231.514937 119.522007 
L 4235.099904 139.366852 
L 4238.68487 144.11812 
L 4242.269836 137.342455 
L 4245.854802 134.063186 
L 4249.439769 151.510046 
L 4253.024735 134.293086 
L 4256.609701 136.148252 
L 4260.194668 128.56155 
L 4263.779634 121.396331 
L 4267.3646 86.483453 
L 4270.949566 69.231369 
L 4274.534533 58.627229 
L 4278.119499 73.283358 
L 4281.704465 129.86751 
L 4285.289431 161.411714 
L 4288.874398 151.139651 
L 4292.459364 148.227584 
L 4296.04433 127.032076 
L 4299.629296 125.240771 
L 4303.214263 99.418524 
L 4306.799229 79.497045 
L 4310.384195 93.686988 
L 4313.969162 84.775168 
L 4317.554128 68.270259 
L 4321.139094 74.579739 
L 4324.72406 97.279176 
L 4328.309027 114.87611 
L 4331.893993 143.964854 
L 4335.478959 157.787595 
L 4339.063925 168.669531 
L 4342.648892 132.227178 
L 4346.233858 104.016525 
L 4349.818824 51.283199 
L 4353.403791 62.059765 
L 4356.988757 62.439738 
L 4360.573723 95.797598 
L 4364.158689 102.38168 
L 4367.743656 108.563438 
L 4371.328622 119.818961 
L 4374.913588 129.260829 
L 4378.498554 147.825259 
L 4382.083521 123.704911 
L 4385.668487 144.5875 
L 4389.253453 112.928346 
L 4392.83842 109.540513 
L 4396.423386 74.06885 
L 4400.008352 36.914446 
L 4403.593318 42.626824 
L 4407.178285 65.83715 
L 4410.763251 108.707125 
L 4414.348217 122.695905 
L 4417.933183 142.73872 
L 4421.51815 123.756 
L 4425.103116 122.360634 
L 4428.688082 112.050255 
L 4432.273049 83.421312 
L 4435.858015 95.270744 
L 4439.442981 93.907309 
L 4443.027947 94.443742 
L 4446.612914 88.095946 
L 4450.19788 74.036919 
L 4453.782846 83.549034 
L 4457.367812 92.543874 
L 4460.952779 138.527079 
L 4464.537745 161.127532 
L 4468.122711 165.696795 
L 4471.707677 132.849824 
L 4475.292644 125.556884 
L 4478.87761 93.303821 
L 4482.462576 64.547156 
L 4486.047543 88.054437 
L 4489.632509 99.249292 
L 4493.217475 84.823063 
L 4496.802441 130.7456 
L 4500.387408 110.546326 
L 4503.972374 102.451928 
L 4507.55734 119.847699 
L 4511.142306 140.640882 
L 4514.727273 158.253781 
L 4518.312239 155.597158 
L 4521.897205 129.356621 
L 4525.482172 92.93662 
L 4529.067138 59.977892 
L 4532.652104 72.750117 
L 4536.23707 103.777046 
L 4539.822037 119.997772 
L 4543.407003 149.399436 
L 4546.991969 153.004396 
L 4550.576935 133.957815 
L 4554.161902 121.099377 
L 4557.746868 99.772953 
L 4561.331834 110.935878 
L 4564.916801 107.158493 
L 4568.501767 102.88299 
L 4572.086733 110.440955 
L 4575.671699 77.501385 
L 4579.256666 78.871206 
L 4582.841632 87.722359 
L 4586.426598 98.725631 
L 4590.011564 110.872017 
L 4593.596531 165.182713 
L 4597.181497 167.213497 
L 4600.766463 111.178551 
L 4604.351429 113.353022 
L 4607.936396 80.812585 
L 4611.521362 89.401906 
L 4615.106328 105.226694 
L 4618.691295 96.876851 
L 4622.276261 95.385694 
L 4625.861227 120.189356 
L 4629.446193 123.711297 
L 4633.03116 134.08873 
L 4636.616126 129.014964 
L 4640.201092 136.020529 
L 4643.786058 147.1164 
L 4647.371025 149.776216 
L 4650.955991 110.38348 
L 4654.540957 66.207545 
L 4658.125924 81.725799 
L 4661.71089 64.502453 
L 4665.295856 104.600855 
L 4668.880822 133.322397 
L 4672.465789 146.570388 
L 4676.050755 149.444138 
L 4679.635721 159.447984 
L 4683.220687 146.966327 
L 4686.805654 94.903542 
L 4690.39062 121.683706 
L 4693.975586 117.127215 
L 4697.560553 102.247572 
L 4701.145519 116.325758 
L 4704.730485 90.886678 
L 4708.315451 84.136556 
L 4711.900418 76.109213 
L 4715.485384 128.325263 
L 4719.07035 144.785469 
L 4722.655316 172.16912 
L 4726.240283 133.376679 
L 4729.825249 144.226684 
L 4733.410215 114.464206 
L 4736.995181 67.22613 
L 4740.580148 61.906498 
L 4744.165114 75.572779 
L 4747.75008 90.637619 
L 4751.335047 94.373495 
L 4754.920013 83.149902 
L 4758.504979 93.62632 
L 4762.089945 70.336167 
L 4765.674912 119.486883 
L 4769.259878 129.206547 
L 4772.844844 162.344086 
L 4776.42981 148.815106 
L 4780.014777 109.489424 
L 4783.599743 84.883732 
L 4787.184709 46.401016 
L 4790.769676 38.919685 
L 4794.354642 84.912469 
L 4797.939608 99.865552 
L 4801.524574 116.574816 
L 4805.109541 134.886994 
L 4808.694507 120.962075 
L 4812.279473 118.107483 
L 4815.864439 107.982301 
L 4819.449406 112.344016 
L 4823.034372 102.669056 
L 4826.619338 104.026105 
L 4830.204305 65.064431 
L 4833.789271 62.972979 
L 4837.374237 46.110448 
L 4840.959203 93.677409 
L 4844.54417 99.185431 
L 4848.129136 112.047062 
L 4851.714102 142.799388 
L 4855.299068 175.224875 
L 4858.884035 129.506694 
L 4862.469001 111.117883 
L 4866.053967 78.108066 
L 4869.638934 81.167014 
L 4873.2239 99.086446 
L 4876.808866 83.964131 
L 4880.393832 101.375868 
L 4883.978799 92.965357 
L 4887.563765 85.295636 
L 4891.148731 90.698287 
L 4894.733697 120.173391 
L 4898.318664 157.404428 
L 4901.90363 158.991377 
L 4905.488596 161.437258 
L 4909.073562 112.739955 
L 4912.658529 88.466341 
L 4916.243495 70.508592 
L 4919.828461 51.624856 
L 4923.413428 78.072942 
L 4926.998394 92.531102 
L 4930.58336 133.165937 
L 4934.168326 130.940377 
L 4937.753293 124.691565 
L 4941.338259 110.421796 
L 4944.923225 142.154391 
L 4952.093158 125.3653 
L 4955.678124 128.86489 
L 4959.26309 113.043296 
L 4962.848057 110.067367 
L 4966.433023 65.907398 
L 4970.017989 96.263784 
L 4973.602955 106.155873 
L 4977.187922 134.909346 
L 4980.772888 150.319036 
L 4984.357854 172.94184 
L 4987.94282 147.330335 
L 4991.527787 113.040103 
L 4995.112753 110.961423 
L 4998.697719 100.389213 
L 5002.282686 83.063689 
L 5005.867652 120.208514 
L 5009.452618 104.891423 
L 5013.037584 129.267215 
L 5016.622551 118.733322 
L 5020.207517 125.560077 
L 5023.792483 138.514306 
L 5027.377449 150.133838 
L 5030.962416 197.589042 
L 5034.547382 184.369789 
L 5041.717314 112.398298 
L 5045.302281 104.568924 
L 5048.887247 68.07229 
L 5052.472213 98.074247 
L 5056.05718 145.564575 
L 5059.642146 146.343681 
L 5063.227112 139.561629 
L 5066.812078 149.712355 
L 5070.397045 142.489662 
L 5073.982011 124.250924 
L 5077.566977 132.607152 
L 5081.151943 137.846958 
L 5084.73691 147.448478 
L 5088.321876 136.180182 
L 5091.906842 86.946446 
L 5095.491809 90.848361 
L 5099.076775 83.970517 
L 5102.661741 96.595862 
L 5106.246707 153.575953 
L 5109.831674 158.202692 
L 5113.41664 167.983024 
L 5117.001606 163.60215 
L 5120.586572 133.970587 
L 5124.171539 121.693285 
L 5127.756505 137.97468 
L 5131.341471 130.375206 
L 5134.926438 142.457731 
L 5138.511404 153.630235 
L 5142.09637 126.645716 
L 5145.681336 107.18723 
L 5149.266303 108.614527 
L 5152.851269 164.560067 
L 5156.436235 171.70932 
L 5160.021201 199.795444 
L 5163.606168 185.608695 
L 5167.191134 142.872828 
L 5170.7761 131.304385 
L 5174.361066 89.255026 
L 5177.946033 104.46036 
L 5181.530999 130.841392 
L 5185.115965 108.375047 
L 5188.700932 158.266553 
L 5192.285898 151.120493 
L 5195.870864 140.915485 
L 5199.45583 152.301924 
L 5203.040797 150.226437 
L 5206.625763 164.486627 
L 5210.210729 159.614023 
L 5213.795695 157.873807 
L 5217.380662 129.634417 
L 5220.965628 106.788098 
L 5224.550594 81.661938 
L 5228.135561 70.920496 
L 5231.720527 101.184284 
L 5235.305493 145.752965 
L 5238.890459 168.305522 
L 5242.475426 145.612471 
L 5246.060392 134.669866 
L 5249.645358 106.931786 
L 5253.230324 128.076205 
L 5256.815291 122.746994 
L 5260.400257 108.755021 
L 5263.985223 129.471571 
L 5267.57019 127.974027 
L 5271.155156 106.123943 
L 5274.740122 101.490818 
L 5278.325088 98.799071 
L 5281.910055 113.38176 
L 5285.495021 151.829351 
L 5289.079987 167.366764 
L 5292.664953 153.282192 
L 5296.24992 130.486963 
L 5299.834886 84.063116 
L 5303.419852 86.16734 
L 5307.004819 62.695183 
L 5310.589785 88.038471 
L 5314.174751 90.088413 
L 5317.759717 115.431702 
L 5321.344684 122.552218 
L 5324.92965 116.143753 
L 5328.514616 102.368908 
L 5332.099582 119.815768 
L 5335.684549 143.533791 
L 5339.269515 150.989578 
L 5342.854481 150.989578 
L 5346.439447 89.871286 
L 5350.024414 94.782206 
L 5353.60938 64.923936 
L 5357.194346 69.199439 
L 5360.779313 89.737177 
L 5364.364279 128.341229 
L 5367.949245 137.441439 
L 5371.534211 151.267373 
L 5375.119178 150.951261 
L 5378.704144 98.358429 
L 5382.28911 118.503422 
L 5385.874076 97.390933 
L 5389.459043 99.035357 
L 5393.044009 108.569824 
L 5396.628975 99.993274 
L 5400.213942 75.777135 
L 5403.798908 43.227118 
L 5407.383874 73.56754 
L 5410.96884 116.482217 
L 5414.553807 130.688125 
L 5418.138773 169.965912 
L 5421.723739 182.246406 
L 5425.308705 119.266563 
L 5428.893672 103.064995 
L 5432.478638 71.632548 
L 5436.063604 75.250281 
L 5439.648571 72.073189 
L 5443.233537 77.619528 
L 5446.818503 103.633359 
L 5450.403469 67.72744 
L 5453.988436 107.337304 
L 5457.573402 128.270982 
L 5461.158368 141.860629 
L 5464.743334 111.529787 
L 5468.328301 140.797342 
L 5471.913267 130.965921 
L 5479.083199 76.9426 
L 5482.668166 34.270595 
L 5486.253132 57.547976 
L 5489.838098 56.890206 
L 5493.423065 88.606835 
L 5497.008031 139.62549 
L 5500.592997 129.822807 
L 5504.177963 134.293086 
L 5507.76293 119.426215 
L 5511.347896 97.039697 
L 5514.932862 98.732017 
L 5518.517828 120.633191 
L 5522.102795 113.461586 
L 5525.687761 100.012433 
L 5529.272727 62.624936 
L 5532.857694 69.898718 
L 5536.44266 92.256499 
L 5540.027626 98.853353 
L 5543.612592 141.598799 
L 5547.197559 151.203512 
L 5550.782525 169.780714 
L 5554.367491 135.579888 
L 5557.952457 96.959871 
L 5561.537424 74.991643 
L 5565.12239 90.129923 
L 5568.707356 72.695835 
L 5572.292323 86.266325 
L 5575.877289 122.309545 
L 5579.462255 86.764442 
L 5583.047221 116.383233 
L 5586.632188 92.943006 
L 5590.217154 132.185669 
L 5593.80212 129.848351 
L 5597.387086 139.676579 
L 5600.972053 154.696716 
L 5604.557019 121.916799 
L 5608.141985 84.021606 
L 5611.726951 60.210985 
L 5615.311918 72.686256 
L 5618.896884 62.267313 
L 5622.48185 100.235947 
L 5626.066817 107.921633 
L 5629.651783 125.477057 
L 5633.236749 123.532486 
L 5636.821715 108.445295 
L 5640.406682 105.69288 
L 5643.991648 89.462574 
L 5647.576614 106.871118 
L 5651.16158 95.36015 
L 5654.746547 79.573679 
L 5658.331513 52.502947 
L 5661.916479 47.422794 
L 5665.501446 56.181348 
L 5669.086412 78.341159 
L 5672.671378 119.059014 
L 5676.256344 120.920566 
L 5679.841311 126.648909 
L 5683.426277 125.614359 
L 5687.011243 88.980423 
L 5690.596209 70.125425 
L 5694.181176 64.278939 
L 5697.766142 60.964546 
L 5701.351108 79.672664 
L 5704.936075 82.540028 
L 5708.521041 54.246356 
L 5712.106007 81.269192 
L 5715.690973 77.817498 
L 5719.27594 83.117971 
L 5722.860906 131.67478 
L 5726.445872 127.178956 
L 5730.030838 132.642276 
L 5733.615805 92.802511 
L 5737.200771 69.266493 
L 5740.785737 50.223105 
L 5744.370704 50.647781 
L 5747.95567 70.543715 
L 5751.540636 88.121491 
L 5755.125602 121.559177 
L 5758.710569 127.28752 
L 5762.295535 127.073585 
L 5765.880501 140.784569 
L 5769.465467 82.201564 
L 5773.050434 107.848193 
L 5776.6354 108.0749 
L 5780.220366 104.511449 
L 5783.805332 103.326825 
L 5787.390299 80.854094 
L 5790.975265 74.362611 
L 5794.560231 92.230954 
L 5798.145198 87.811764 
L 5801.730164 150.242402 
L 5805.31513 145.044107 
L 5808.900096 157.292671 
L 5812.485063 131.639656 
L 5816.070029 103.234227 
L 5819.654995 73.312095 
L 5823.239961 86.85704 
L 5826.824928 91.911649 
L 5830.409894 109.738482 
L 5833.99486 87.039045 
L 5837.579827 83.446856 
L 5841.164793 102.978782 
L 5844.749759 95.008913 
L 5848.334725 139.341308 
L 5851.919692 144.261808 
L 5855.504658 153.805853 
L 5859.089624 132.86579 
L 5862.67459 98.642611 
L 5866.259557 89.328466 
L 5869.844523 71.316435 
L 5873.429489 42.463978 
L 5877.014456 94.529955 
L 5880.599422 92.301202 
L 5884.184388 115.495563 
L 5887.769354 134.54853 
L 5891.354321 136.189761 
L 5894.939287 112.963469 
L 5898.524253 123.452659 
L 5902.109219 145.992444 
L 5905.694186 119.978614 
L 5909.279152 102.107078 
L 5912.864118 100.740449 
L 5916.449084 69.668818 
L 5920.034051 74.579739 
L 5923.619017 73.41108 
L 5927.203983 95.095126 
L 5930.78895 139.660614 
L 5934.373916 150.4276 
L 5937.958882 166.220456 
L 5941.543848 138.482376 
L 5945.128815 121.278188 
L 5948.713781 114.872917 
L 5952.298747 81.818397 
L 5955.883713 102.554106 
L 5959.46868 102.333785 
L 5963.053646 117.385852 
L 5966.638612 79.193705 
L 5970.223579 99.262064 
L 5973.808545 126.492449 
L 5977.393511 111.667088 
L 5980.978477 160.773102 
L 5984.563444 175.199331 
L 5988.14841 154.045333 
L 5991.733376 128.021923 
L 5995.318342 90.008587 
L 5998.903309 73.529223 
L 6002.488275 99.357856 
L 6006.073241 88.380128 
L 6009.658208 123.439887 
L 6013.243174 107.45864 
L 6016.82814 125.221613 
L 6020.413106 122.472391 
L 6023.998073 107.774753 
L 6027.583039 132.029209 
L 6031.168005 144.379951 
L 6034.752971 151.791035 
L 6038.337938 132.996705 
L 6041.922904 107.222354 
L 6045.50787 89.769108 
L 6049.092836 36.742021 
L 6052.677803 63.269933 
L 6056.262769 97.525042 
L 6059.847735 126.233812 
L 6063.432702 153.61427 
L 6067.017668 151.781456 
L 6070.602634 150.807573 
L 6074.1876 122.94177 
L 6077.772567 119.164385 
L 6081.357533 96.911975 
L 6084.942499 105.673722 
L 6088.527465 106.136715 
L 6092.112432 92.029792 
L 6095.697398 86.834689 
L 6099.282364 92.729071 
L 6102.867331 111.386099 
L 6106.452297 118.963222 
L 6110.037263 141.35932 
L 6113.622229 168.046885 
L 6117.207196 166.763276 
L 6120.792162 129.857931 
L 6124.377128 110.281302 
L 6127.962094 84.299402 
L 6131.547061 87.489266 
L 6135.132027 98.942759 
L 6138.716993 112.388719 
L 6142.30196 115.808483 
L 6145.886926 134.797589 
L 6149.471892 121.444227 
L 6153.056858 135.691645 
L 6156.641825 147.055732 
L 6160.226791 133.938657 
L 6163.811757 158.5667 
L 6170.98169 129.28318 
L 6174.566656 113.694679 
L 6178.151622 61.606351 
L 6185.321555 120.87267 
L 6188.906521 146.177642 
L 6192.491487 173.091914 
L 6196.076454 186.550646 
L 6199.66142 171.275065 
L 6203.246386 142.735527 
L 6206.831352 127.36096 
L 6210.416319 120.821581 
L 6214.001285 124.005058 
L 6217.586251 143.051639 
L 6221.171217 121.83378 
L 6224.756184 107.327725 
L 6228.34115 115.169871 
L 6231.926116 110.887983 
L 6235.511083 139.293412 
L 6239.096049 134.197294 
L 6242.681015 178.181646 
L 6246.265981 174.710793 
L 6249.850948 134.452739 
L 6253.435914 130.17085 
L 6257.02088 106.254858 
L 6264.190813 87.658498 
L 6267.775779 107.765174 
L 6271.360745 131.234138 
L 6274.945712 141.257142 
L 6278.530678 155.910077 
L 6282.115644 135.653328 
L 6285.70061 159.958873 
L 6289.285577 148.173302 
L 6292.870543 161.172234 
L 6296.455509 161.775722 
L 6300.040475 118.886589 
L 6303.625442 39.111269 
L 6307.210408 63.451937 
L 6310.795374 81.895031 
L 6314.380341 80.605036 
L 6317.965307 115.591355 
L 6321.550273 145.634822 
L 6325.135239 147.266474 
L 6328.720206 142.54075 
L 6335.890138 97.869892 
L 6339.475104 129.608872 
L 6343.060071 112.19075 
L 6346.645037 125.010871 
L 6350.230003 90.688708 
L 6353.814969 84.104626 
L 6357.399936 84.580391 
L 6360.984902 83.258466 
L 6364.569868 115.102817 
L 6368.154835 133.494822 
L 6375.324767 175.505864 
L 6378.909733 133.006284 
L 6386.079666 72.009328 
L 6389.664632 59.010396 
L 6393.249598 75.285404 
L 6396.834565 118.825921 
L 6400.419531 113.004979 
L 6404.004497 131.310771 
L 6407.589464 124.576615 
L 6411.17443 117.334763 
L 6414.759396 123.072686 
L 6418.344362 146.15529 
L 6421.929329 129.921792 
L 6425.514295 130.221939 
L 6429.099261 94.456515 
L 6432.684227 81.000975 
L 6436.269194 75.639833 
L 6439.85416 68.672584 
L 6443.439126 98.821423 
L 6447.024093 141.148578 
L 6450.609059 131.620498 
L 6454.194025 158.997763 
L 6457.778991 140.947415 
L 6461.363958 147.547463 
L 6464.948924 111.520208 
L 6468.53389 109.863012 
L 6472.118856 121.182396 
L 6475.703823 91.2443 
L 6479.288789 98.50531 
L 6482.873755 87.361543 
L 6486.458721 83.772548 
L 6490.043688 98.540434 
L 6493.628654 122.667168 
L 6497.21362 165.035833 
L 6500.798587 171.747637 
L 6504.383553 140.992118 
L 6507.968519 129.078825 
L 6511.553485 105.079813 
L 6515.138452 77.775988 
L 6518.723418 70.850249 
L 6522.308384 84.628287 
L 6525.89335 77.581212 
L 6529.478317 90.947346 
L 6533.063283 110.891176 
L 6536.648249 105.319292 
L 6540.233216 126.026263 
L 6543.818182 148.898126 
L 6547.403148 162.650619 
L 6550.988114 141.222018 
L 6554.573081 150.137032 
L 6558.158047 92.464047 
L 6561.743013 53.505567 
L 6565.327979 55.973799 
L 6568.912946 33.59686 
L 6572.497912 76.987303 
L 6576.082878 95.698613 
L 6579.667845 136.432434 
L 6583.252811 149.725127 
L 6586.837777 138.207773 
L 6590.422743 128.673307 
L 6594.00771 132.907299 
L 6597.592676 106.475179 
L 6601.177642 104.163406 
L 6604.762608 75.282211 
L 6608.347575 72.778855 
L 6611.932541 64.898392 
L 6615.517507 54.932863 
L 6619.102473 70.923689 
L 6622.68744 103.125663 
L 6626.272406 131.687552 
L 6629.857372 145.031334 
L 6633.442339 150.465916 
L 6637.027305 110.233406 
L 6640.612271 79.835509 
L 6644.197237 75.879313 
L 6647.782204 86.116251 
L 6651.36717 56.46553 
L 6654.952136 70.783195 
L 6662.122069 108.726283 
L 6665.707035 79.905757 
L 6669.292001 99.50793 
L 6672.876968 123.018404 
L 6676.461934 161.750178 
L 6680.0469 138.329109 
L 6683.631866 159.751324 
L 6687.216833 110.610187 
L 6690.801799 88.05763 
L 6694.386765 67.117566 
L 6697.971731 47.873015 
L 6701.556698 77.424752 
L 6705.141664 111.178551 
L 6708.72663 131.47681 
L 6712.311597 117.852039 
L 6715.896563 117.746668 
L 6719.481529 110.520781 
L 6723.066495 103.681254 
L 6726.651462 102.493437 
L 6730.236428 109.004079 
L 6733.821394 107.382007 
L 6737.40636 91.448655 
L 6740.991327 74.816025 
L 6744.576293 54.032421 
L 6748.161259 88.530202 
L 6751.746226 103.323632 
L 6755.331192 137.05508 
L 6758.916158 158.145217 
L 6762.501124 160.693276 
L 6766.086091 144.925964 
L 6769.671057 131.911066 
L 6773.256023 94.769434 
L 6776.840989 99.935799 
L 6780.425956 113.040103 
L 6784.010922 114.796284 
L 6787.595888 113.196562 
L 6791.180854 96.844921 
L 6794.765821 101.136388 
L 6798.350787 103.205489 
L 6801.935753 112.484511 
L 6805.52072 143.833938 
L 6809.105686 144.450198 
L 6812.690652 140.254522 
L 6816.275618 146.841797 
L 6819.860585 93.176099 
L 6823.445551 78.207051 
L 6827.030517 90.385368 
L 6830.615483 89.200744 
L 6834.20045 115.086852 
L 6837.785416 138.262055 
L 6844.955349 128.510461 
L 6848.540315 102.815936 
L 6852.125281 99.111991 
L 6855.710247 131.230945 
L 6859.295214 106.34107 
L 6862.88018 109.968382 
L 6866.465146 83.747004 
L 6870.050112 75.732432 
L 6873.635079 78.660465 
L 6877.220045 74.56058 
L 6880.805011 97.151454 
L 6884.389978 143.821166 
L 6887.974944 146.053112 
L 6891.55991 151.966653 
L 6895.144876 126.243391 
L 6898.729843 96.953485 
L 6902.314809 107.947178 
L 6905.899775 81.962085 
L 6909.484741 114.579156 
L 6913.069708 91.011207 
L 6916.654674 97.748556 
L 6920.23964 111.980008 
L 6923.824606 90.149082 
L 6927.409573 103.607814 
L 6930.994539 108.799724 
L 6934.579505 156.124012 
L 6938.164472 153.508899 
L 6941.749438 131.796116 
L 6945.334404 137.502107 
L 6948.91937 94.121244 
L 6952.504337 76.396588 
L 6956.089303 92.764195 
L 6963.259235 111.724563 
L 6966.844202 132.144159 
L 6970.429168 120.045668 
L 6974.014134 114.575963 
L 6977.599101 117.357115 
L 6981.184067 118.053201 
L 6984.769033 133.050987 
L 6988.353999 143.160203 
L 6991.938966 124.74904 
L 6995.523932 85.081701 
L 6999.108898 81.355404 
L 7002.693864 76.454063 
L 7006.278831 87.642532 
L 7009.863797 113.177404 
L 7013.448763 135.00833 
L 7017.03373 164.001282 
L 7020.618696 163.493586 
L 7024.203662 129.873896 
L 7027.788628 117.088898 
L 7031.373595 113.276389 
L 7034.958561 92.939813 
L 7038.543527 101.768614 
L 7042.128493 104.875457 
L 7045.71346 108.755021 
L 7049.298426 66.625835 
L 7052.883392 77.680196 
L 7060.053325 123.251497 
L 7063.638291 158.228236 
L 7067.223257 174.902377 
L 7070.808224 149.364312 
L 7074.39319 111.791618 
L 7077.978156 125.410003 
L 7081.563122 48.31685 
L 7085.148089 66.929176 
L 7088.733055 81.879066 
L 7092.318021 105.245852 
L 7095.902987 108.410171 
L 7099.487954 118.072359 
L 7103.07292 120.438414 
L 7106.657886 109.371281 
L 7110.242853 116.479024 
L 7113.827819 129.765332 
L 7117.412785 110.223827 
L 7120.997751 109.821502 
L 7124.582718 92.946199 
L 7128.167684 55.392663 
L 7131.75265 51.43008 
L 7135.337616 78.044205 
L 7138.922583 108.435715 
L 7146.092515 132.05156 
L 7149.677482 134.612391 
L 7153.262448 112.72399 
L 7156.847414 116.364074 
L 7160.43238 101.120423 
L 7164.017347 101.337551 
L 7167.602313 102.333785 
L 7171.187279 95.602822 
L 7174.772245 82.789087 
L 7178.357212 80.649739 
L 7181.942178 86.138603 
L 7185.527144 93.789166 
L 7189.112111 116.823874 
L 7192.697077 129.248057 
L 7196.282043 153.512092 
L 7199.867009 150.564901 
L 7203.451976 113.959703 
L 7207.036942 107.04035 
L 7210.621908 63.867035 
L 7214.206874 84.350491 
L 7217.791841 80.723179 
L 7221.376807 93.536914 
L 7224.961773 103.521602 
L 7228.546739 75.799486 
L 7232.131706 100.258298 
L 7235.716672 105.242659 
L 7239.301638 109.067941 
L 7242.886605 129.75256 
L 7246.471571 117.459293 
L 7250.056537 115.131555 
L 7253.641503 73.375956 
L 7257.22647 63.771243 
L 7260.811436 52.988291 
L 7264.396402 43.868923 
L 7267.981368 70.789581 
L 7271.566335 117.564664 
L 7275.151301 101.088493 
L 7278.736267 120.307499 
L 7282.321234 124.314785 
L 7285.9062 101.631312 
L 7289.491166 103.54076 
L 7296.661099 84.922048 
L 7300.246065 82.389955 
L 7303.831031 92.588577 
L 7307.415997 73.350412 
L 7311.000964 63.560501 
L 7314.58593 72.437198 
L 7318.170896 100.481812 
L 7321.755863 125.582428 
L 7325.340829 109.42237 
L 7328.925795 129.960108 
L 7332.510761 108.614527 
L 7336.095728 93.300628 
L 7339.680694 72.954473 
L 7343.26566 66.629028 
L 7346.850626 86.298256 
L 7350.435593 55.153184 
L 7354.020559 83.654405 
L 7357.605525 93.588003 
L 7361.190491 99.428103 
L 7364.775458 99.891097 
L 7368.360424 140.672812 
L 7371.94539 132.990319 
L 7375.530357 115.310366 
L 7379.115323 124.643669 
L 7382.700289 83.549034 
L 7386.285255 68.896098 
L 7389.870222 73.768702 
L 7393.455188 74.171027 
L 7397.040154 89.529629 
L 7400.62512 128.178383 
L 7404.210087 114.010792 
L 7407.795053 124.13278 
L 7411.380019 115.252891 
L 7414.964986 112.219487 
L 7418.549952 127.552544 
L 7422.134918 117.516768 
L 7425.719884 112.158819 
L 7429.304851 90.446036 
L 7432.889817 54.92967 
L 7436.474783 72.919349 
L 7440.059749 61.296624 
L 7443.644716 64.901585 
L 7447.229682 106.57097 
L 7450.814648 146.717268 
L 7454.399615 153.88568 
L 7457.984581 131.457652 
L 7461.569547 108.036583 
L 7465.154513 105.210728 
L 7468.73948 99.447262 
L 7472.324446 84.254699 
L 7475.909412 69.962579 
L 7479.494378 81.218103 
L 7483.079345 85.072122 
L 7486.664311 99.028971 
L 7490.249277 97.984842 
L 7493.834243 98.617067 
L 7497.41921 103.422617 
L 7501.004176 102.458314 
L 7504.589142 132.789156 
L 7508.174109 104.722191 
L 7511.759075 70.60119 
L 7515.344041 71.271732 
L 7518.929007 61.948008 
L 7522.513974 63.755278 
L 7526.09894 79.311848 
L 7529.683906 91.193211 
L 7533.268872 119.978614 
L 7536.853839 107.088246 
L 7540.438805 103.914348 
L 7544.023771 128.06024 
L 7547.608738 100.864979 
L 7551.193704 109.824695 
L 7554.77867 108.205815 
L 7558.363636 96.282943 
L 7561.948603 59.703289 
L 7565.533569 59.655393 
L 7569.118535 77.479034 
L 7572.703501 78.009081 
L 7576.288468 100.932033 
L 7579.873434 130.122954 
L 7583.4584 160.964686 
L 7587.043367 146.857763 
L 7590.628333 120.566136 
L 7594.213299 112.554758 
L 7597.798265 88.565326 
L 7601.383232 67.446451 
L 7604.968198 84.870959 
L 7608.553164 91.499744 
L 7612.13813 92.221375 
L 7615.723097 81.125504 
L 7619.308063 94.699187 
L 7622.893029 96.669303 
L 7626.477996 147.132365 
L 7630.062962 143.926537 
L 7633.647928 144.552376 
L 7637.232894 123.376026 
L 7640.817861 106.197383 
L 7644.402827 70.22441 
L 7647.987793 64.199112 
L 7651.572759 55.57786 
L 7655.157726 71.476088 
L 7658.742692 118.969608 
L 7665.912624 144.638588 
L 7669.497591 125.802749 
L 7673.082557 145.922197 
L 7676.667523 136.844338 
L 7680.25249 147.573007 
L 7683.837456 140.439719 
L 7687.422422 123.206794 
L 7691.007388 72.782048 
L 7694.592355 76.090054 
L 7698.177321 71.25896 
L 7701.762287 82.032332 
L 7705.347253 110.357935 
L 7708.93222 133.172323 
L 7712.517186 156.810519 
L 7716.102152 159.534196 
L 7719.687119 133.12762 
L 7723.272085 112.050255 
L 7726.857051 87.591443 
L 7730.442017 82.693295 
L 7734.026984 94.47248 
L 7737.61195 94.223421 
L 7741.196916 93.664637 
L 7744.781882 83.450049 
L 7748.366849 102.940465 
L 7751.951815 106.874311 
L 7755.536781 141.151771 
L 7759.121748 150.967226 
L 7762.706714 140.966574 
L 7766.29168 137.479756 
L 7769.876646 110.72833 
L 7773.461613 79.436377 
L 7777.046579 95.069581 
L 7780.631545 102.196483 
L 7784.216511 98.872512 
L 7787.801478 102.04641 
L 7791.386444 130.637036 
L 7794.97141 150.890593 
L 7798.556376 143.980819 
L 7802.141343 138.262055 
L 7805.726309 170.684349 
L 7809.311275 143.489088 
L 7812.896242 123.64105 
L 7816.481208 108.834847 
L 7820.066174 99.824042 
L 7823.65114 58.997624 
L 7827.236107 59.904452 
L 7830.821073 85.292443 
L 7834.406039 101.280076 
L 7837.991005 159.029694 
L 7841.575972 155.083076 
L 7845.160938 154.754191 
L 7848.745904 162.289804 
L 7852.330871 133.612965 
L 7855.915837 124.183869 
L 7859.500803 108.834847 
L 7863.085769 95.634752 
L 7866.670736 91.653011 
L 7870.255702 91.343285 
L 7873.840668 93.096273 
L 7877.425634 78.015467 
L 7881.010601 120.735368 
L 7884.595567 153.004396 
L 7888.180533 158.914743 
L 7891.7655 169.413513 
L 7895.350466 165.980977 
L 7898.935432 125.464285 
L 7902.520398 106.366615 
L 7906.105365 90.378982 
L 7909.690331 91.541254 
L 7913.275297 92.12239 
L 7916.860263 119.161192 
L 7920.44523 149.048199 
L 7924.030196 138.198194 
L 7927.615162 140.934643 
L 7931.200128 158.071777 
L 7934.785095 150.414827 
L 7938.370061 170.432098 
L 7941.955027 156.535916 
L 7945.539994 156.982944 
L 7949.12496 101.107651 
L 7952.709926 93.351717 
L 7956.294892 101.213022 
L 7959.879859 102.895763 
L 7963.464825 102.413611 
L 7967.049791 133.603386 
L 7970.634757 168.784481 
L 7974.219724 153.406721 
L 7977.80469 160.690083 
L 7981.389656 119.458146 
L 7984.974623 107.746015 
L 7988.559589 127.453559 
L 7992.144555 117.232586 
L 7995.729521 89.312501 
L 7999.314488 100.46904 
L 8002.899454 78.223016 
L 8006.48442 100.478619 
L 8010.069386 98.320113 
L 8013.654353 156.542303 
L 8017.239319 176.498905 
L 8020.824285 163.659625 
L 8024.409252 167.590278 
L 8027.994218 110.709171 
L 8031.579184 86.326993 
L 8035.16415 75.716467 
L 8038.749117 82.070649 
L 8042.334083 81.827977 
L 8045.919049 99.30996 
L 8049.504015 127.648336 
L 8053.088982 113.835174 
L 8056.673948 129.25125 
L 8060.258914 155.025601 
L 8063.843881 150.421214 
L 8067.428847 149.233397 
L 8071.013813 145.823212 
L 8074.598779 110.747488 
L 8078.183746 90.037325 
L 8081.768712 73.481327 
L 8085.353678 46.359506 
L 8088.938644 78.433758 
L 8092.523611 122.236105 
L 8096.108577 153.135311 
L 8099.693543 155.737652 
L 8103.278509 148.262707 
L 8106.863476 147.362266 
L 8110.448442 116.290634 
L 8114.033408 108.138761 
L 8117.618375 109.946031 
L 8121.203341 90.104379 
L 8124.788307 71.045025 
L 8128.373273 66.038313 
L 8131.95824 68.120186 
L 8135.543206 102.145394 
L 8139.128172 99.096025 
L 8142.713138 140.206626 
L 8146.298105 167.437011 
L 8149.883071 179.404586 
L 8153.468037 156.896732 
L 8157.053004 130.084638 
L 8160.63797 75.662185 
L 8164.222936 69.330354 
L 8167.807902 71.440964 
L 8171.392869 75.639833 
L 8174.977835 100.746836 
L 8178.562801 113.193369 
L 8182.147767 125.068346 
L 8185.732734 113.116736 
L 8189.3177 155.76639 
L 8192.902666 153.438652 
L 8196.487633 147.100435 
L 8200.072599 162.45265 
L 8203.657565 122.181823 
L 8207.242531 77.625914 
L 8210.827498 58.64958 
L 8214.412464 74.982064 
L 8217.99743 111.769266 
L 8221.582396 117.053774 
L 8225.167363 150.663886 
L 8228.752329 144.261808 
L 8232.337295 166.18214 
L 8235.922261 131.760992 
L 8239.507228 118.404437 
L 8243.092194 115.150713 
L 8246.67716 113.231686 
L 8250.262127 115.374227 
L 8253.847093 104.613627 
L 8257.432059 80.158008 
L 8261.017025 70.122232 
L 8264.601992 101.126809 
L 8268.186958 120.138267 
L 8271.771924 154.41892 
L 8275.35689 178.807485 
L 8278.941857 188.5495 
L 8282.526823 147.5762 
L 8286.111789 132.220792 
L 8289.696756 116.079892 
L 8293.281722 74.490333 
L 8296.866688 101.359902 
L 8300.451654 106.168645 
L 8304.036621 95.577277 
L 8307.621587 102.154973 
L 8311.206553 86.5537 
L 8314.791519 113.062454 
L 8318.376486 147.218578 
L 8321.961452 170.630067 
L 8325.546418 189.925707 
L 8329.131385 173.091914 
L 8332.716351 115.406157 
L 8336.301317 98.240286 
L 8339.886283 76.744631 
L 8343.47125 79.286304 
L 8347.056216 93.498598 
L 8350.641182 114.623859 
L 8354.226148 144.641782 
L 8357.811115 154.779735 
L 8364.981047 143.549756 
L 8368.566013 147.566621 
L 8372.15098 107.77156 
L 8375.735946 149.76983 
L 8379.320912 104.163406 
L 8382.905879 113.582922 
L 8386.490845 56.835924 
L 8390.075811 51.477976 
L 8393.660777 63.26674 
L 8397.245744 110.444148 
L 8400.83071 143.687058 
L 8404.415676 175.531409 
L 8408.000642 175.502671 
L 8411.585609 142.722755 
L 8415.170575 118.63753 
L 8418.755541 100.609534 
L 8422.340508 95.369729 
L 8425.925474 75.167261 
L 8429.51044 89.516856 
L 8433.095406 94.354337 
L 8436.680373 105.65137 
L 8440.265339 101.816509 
L 8443.850305 133.258536 
L 8447.435271 140.04378 
L 8451.020238 153.365212 
L 8454.605204 174.097727 
L 8458.19017 192.681315 
L 8461.775137 148.566048 
L 8465.360103 101.23218 
L 8468.945069 92.125583 
L 8472.530035 72.561727 
L 8476.115002 109.582023 
L 8479.699968 137.208346 
L 8483.284934 157.739699 
L 8486.8699 163.464849 
L 8490.454867 163.774575 
L 8494.039833 155.69295 
L 8497.624799 152.857516 
L 8501.209765 153.895259 
L 8504.794732 175.917769 
L 8508.379698 153.955927 
L 8511.964664 117.57105 
L 8515.549631 103.377914 
L 8519.134597 104.422043 
L 8522.719563 89.315694 
L 8526.304529 145.245269 
L 8529.889496 189.85546 
L 8533.474462 195.682788 
L 8537.059428 192.128916 
L 8540.644394 173.404833 
L 8544.229361 159.058431 
L 8547.814327 135.531992 
L 8551.399293 119.132454 
L 8554.98426 110.57187 
L 8558.569226 131.297999 
L 8562.154192 136.09397 
L 8565.739158 132.412376 
L 8569.324125 126.955442 
L 8572.909091 155.277852 
L 8576.494057 154.556222 
L 8580.079023 180.844655 
L 8583.66399 179.270478 
L 8587.248956 175.457969 
L 8590.833922 134.184522 
L 8594.418889 97.046083 
L 8598.003855 97.109944 
L 8601.588821 105.166026 
L 8605.173787 113.969282 
L 8608.758754 152.34024 
L 8612.34372 164.508978 
L 8615.928686 139.62549 
L 8619.513652 169.684923 
L 8623.098619 153.017168 
L 8626.683585 144.325669 
L 8630.268551 173.174933 
L 8633.853518 153.419493 
L 8637.438484 129.145879 
L 8641.02345 118.002112 
L 8644.608416 74.423279 
L 8648.193383 97.665536 
L 8651.778349 95.848687 
L 8655.363315 132.000471 
L 8658.948281 178.951172 
L 8662.533248 175.659131 
L 8666.118214 191.27637 
L 8669.70318 159.607637 
L 8673.288146 134.928504 
L 8676.873113 135.956668 
L 8680.458079 123.992286 
L 8684.043045 111.453154 
L 8687.628012 103.623779 
L 8691.212978 120.400098 
L 8694.797944 111.210481 
L 8698.38291 117.762633 
L 8701.967877 138.907052 
L 8705.552843 154.412534 
L 8709.137809 193.495544 
L 8712.722775 172.165927 
L 8716.307742 189.995954 
L 8719.892708 142.808967 
L 8723.477674 118.87701 
L 8727.062641 82.099386 
L 8730.647607 81.792853 
L 8734.232573 96.873658 
L 8741.402506 163.333934 
L 8744.987472 158.193113 
L 8748.572438 156.270893 
L 8752.157404 174.503245 
L 8755.742371 153.15447 
L 8759.327337 155.175674 
L 8762.912303 156.906311 
L 8766.49727 139.159304 
L 8770.082236 123.088651 
L 8773.667202 120.023317 
L 8777.252168 91.688135 
L 8780.837135 86.873006 
L 8784.422101 114.757967 
L 8788.007067 131.374632 
L 8791.592033 176.738384 
L 8795.177 184.414492 
L 8798.761966 158.116479 
L 8802.346932 137.039114 
L 8805.931898 104.27197 
L 8809.516865 93.160134 
L 8813.101831 117.9159 
L 8816.686797 125.547304 
L 8820.271764 95.666683 
L 8823.85673 80.522017 
L 8827.441696 116.574816 
L 8831.026662 111.587262 
L 8834.611629 129.200161 
L 8838.196595 151.688857 
L 8841.781561 167.235848 
L 8848.951494 143.048446 
L 8852.53646 98.339271 
L 8856.121426 93.964784 
L 8859.706393 110.680434 
L 8863.291359 104.121896 
L 8866.876325 131.396984 
L 8870.461291 125.042802 
L 8874.046258 145.414501 
L 8877.631224 127.619598 
L 8881.21619 121.492123 
L 8884.801156 143.370945 
L 8888.386123 153.065064 
L 8891.971089 134.928504 
L 8895.556055 147.173875 
L 8899.141022 111.389292 
L 8902.725988 99.891097 
L 8906.310954 78.440144 
L 8909.89592 100.101838 
L 8913.480887 96.104132 
L 8917.065853 131.521513 
L 8920.650819 155.281045 
L 8924.235785 141.215632 
L 8927.820752 150.293491 
L 8931.405718 148.345727 
L 8934.990684 113.675521 
L 8938.57565 123.960355 
L 8942.160617 120.052054 
L 8945.745583 123.018404 
L 8949.330549 116.750434 
L 8952.915516 110.124842 
L 8956.500482 83.44047 
L 8960.085448 108.135568 
L 8963.670414 129.841965 
L 8967.255381 144.405495 
L 8970.840347 179.264092 
L 8974.425313 159.444791 
L 8978.010279 154.96174 
L 8981.595246 126.949056 
L 8985.180212 95.165373 
L 8988.765178 96.516036 
L 8992.350145 83.060496 
L 8995.935111 108.761407 
L 8999.520077 112.056641 
L 9003.105043 110.808156 
L 9006.69001 123.854985 
L 9010.274976 124.87357 
L 9013.859942 133.102076 
L 9017.444908 125.21842 
L 9021.029875 157.065964 
L 9024.614841 122.497936 
L 9028.199807 125.026836 
L 9031.784774 103.761081 
L 9035.36974 88.830349 
L 9038.954706 58.113147 
L 9042.539672 100.711712 
L 9046.124639 145.69549 
L 9049.709605 160.41548 
L 9053.294571 154.652013 
L 9056.879537 155.795127 
L 9060.464504 111.612806 
L 9064.04947 110.721944 
L 9067.634436 123.040755 
L 9071.219403 124.28924 
L 9074.804369 114.160865 
L 9078.389335 99.763374 
L 9081.974301 82.785894 
L 9085.559268 74.448823 
L 9089.144234 88.51743 
L 9092.7292 134.67306 
L 9096.314166 142.952655 
L 9099.899133 166.740925 
L 9103.484099 146.567195 
L 9107.069065 160.214317 
L 9110.654031 127.405663 
L 9114.238998 110.868824 
L 9117.823964 89.85532 
L 9121.40893 89.044284 
L 9124.993897 118.164958 
L 9128.578863 106.468793 
L 9132.163829 104.147441 
L 9135.748795 114.349256 
L 9139.333762 110.147194 
L 9142.918728 129.877089 
L 9146.503694 147.410161 
L 9150.08866 146.203186 
L 9153.673627 134.77843 
L 9157.258593 126.495642 
L 9160.843559 91.812664 
L 9164.428526 82.504905 
L 9168.013492 54.811527 
L 9171.598458 104.15702 
L 9175.183424 110.543133 
L 9178.768391 131.824853 
L 9182.353357 157.311829 
L 9185.938323 132.230371 
L 9189.523289 124.02741 
L 9193.108256 135.078578 
L 9196.693222 124.752233 
L 9200.278188 131.527899 
L 9203.863155 102.218835 
L 9207.448121 101.385447 
L 9211.033087 80.649739 
L 9214.618053 81.630007 
L 9218.20302 88.792033 
L 9221.787986 120.160618 
L 9225.372952 132.418762 
L 9228.957918 143.307084 
L 9232.542885 162.618689 
L 9236.127851 98.760755 
L 9239.712817 109.390439 
L 9243.297783 94.763048 
L 9246.88275 81.115925 
L 9250.467716 84.545268 
L 9254.052682 101.005473 
L 9261.222615 82.093 
L 9264.807581 82.393148 
L 9268.392547 86.16734 
L 9271.977514 101.008666 
L 9275.56248 137.585127 
L 9279.147446 136.521839 
L 9282.732412 122.101997 
L 9286.317379 116.632291 
L 9289.902345 57.369165 
L 9293.487311 57.924757 
L 9297.072278 51.098002 
L 9300.657244 88.415252 
L 9304.24221 81.339439 
L 9307.827176 106.4656 
L 9311.412143 128.034695 
L 9314.997109 107.528887 
L 9318.582075 108.84762 
L 9322.167041 97.087593 
L 9325.752008 75.796293 
L 9329.336974 89.931954 
L 9332.92194 76.387009 
L 9336.506907 67.68593 
L 9340.091873 43.048307 
L 9343.676839 67.408134 
L 9347.261805 42.837565 
L 9350.846772 77.562053 
L 9354.431738 125.285474 
L 9358.016704 136.639982 
L 9361.60167 125.968788 
L 9365.186637 114.486557 
L 9368.771603 78.944647 
L 9372.356569 58.528244 
L 9375.941535 58.793268 
L 9379.526502 40.452352 
L 9383.111468 31.722536 
L 9386.696434 58.285572 
L 9390.281401 42.543804 
L 9393.866367 73.56754 
L 9397.451333 79.985583 
L 9401.036299 99.19501 
L 9404.621266 89.788266 
L 9408.206232 119.196315 
L 9411.791198 105.782286 
L 9415.376164 73.474941 
L 9418.961131 57.45857 
L 9422.546097 39.574262 
L 9426.131063 10.08 
L 9429.71603 33.117902 
L 9433.300996 57.008349 
L 9436.885962 70.307429 
L 9440.470928 101.308814 
L 9444.055895 78.33158 
L 9447.640861 91.518903 
L 9451.225827 102.707372 
L 9454.810793 81.460775 
L 9458.39576 72.561727 
L 9461.980726 78.200665 
L 9465.565692 43.348454 
L 9469.150659 12.592935 
L 9476.320591 21.533493 
L 9479.905557 52.96594 
L 9483.490524 62.161942 
L 9487.07549 95.516609 
L 9490.660456 110.814542 
L 9494.245422 122.248877 
L 9497.830389 81.227682 
L 9501.415355 84.114205 
L 9505.000321 55.510806 
L 9508.585288 40.937697 
L 9512.170254 44.009417 
L 9515.75522 54.725314 
L 9519.340186 46.966187 
L 9522.925153 37.888328 
L 9526.510119 79.778034 
L 9530.095085 75.713274 
L 9533.680051 75.713274 
L 9537.265018 90.810044 
L 9540.849984 126.243391 
L 9544.43495 70.278692 
L 9548.019916 40.848291 
L 9551.604883 16.600221 
L 9555.189849 19.544219 
L 9558.774815 17.845513 
L 9562.359782 25.278948 
L 9565.944748 63.592432 
L 9569.529714 73.510065 
L 9573.11468 54.105861 
L 9576.699647 87.700007 
L 9580.284613 70.115846 
L 9583.869579 81.138276 
L 9587.454545 83.443663 
L 9587.454545 83.443663 
" clip-path="url(#p590cfbc5d9)" style="fill: none; stroke: #1f77b4; stroke-width: 1.5; stroke-linecap: square"/>
   </g>
  </g>
 </g>
 <defs>
  <clipPath id="p590cfbc5d9">
   <rect x="0" y="-0" width="10044" height="221.76"/>
  </clipPath>
 </defs>
</svg>
