<?xml version="1.0" encoding="utf-8" standalone="no"?>
<!DOCTYPE svg PUBLIC "-//W3C//DTD SVG 1.1//EN"
  "http://www.w3.org/Graphics/SVG/1.1/DTD/svg11.dtd">
<svg xmlns:xlink="http://www.w3.org/1999/xlink" width="10044pt" height="221.76pt" viewBox="0 0 10044 221.76" xmlns="http://www.w3.org/2000/svg" version="1.1">
 <metadata>
  <rdf:RDF xmlns:dc="http://purl.org/dc/elements/1.1/" xmlns:cc="http://creativecommons.org/ns#" xmlns:rdf="http://www.w3.org/1999/02/22-rdf-syntax-ns#">
   <cc:Work>
    <dc:type rdf:resource="http://purl.org/dc/dcmitype/StillImage"/>
    <dc:date>2025-08-12T08:23:40.345826</dc:date>
    <dc:format>image/svg+xml</dc:format>
    <dc:creator>
     <cc:Agent>
      <dc:title>Matplotlib v3.9.2, https://matplotlib.org/</dc:title>
     </cc:Agent>
    </dc:creator>
   </cc:Work>
  </rdf:RDF>
 </metadata>
 <defs>
  <style type="text/css">*{stroke-linejoin: round; stroke-linecap: butt}</style>
 </defs>
 <g id="figure_1">
  <g id="patch_1">
   <path d="M 0 221.76 
L 10044 221.76 
L 10044 0 
L 0 0 
z
" style="fill: #ffffff"/>
  </g>
  <g id="axes_1">
   <g id="line2d_1">
    <path d="M 456.545455 116.995614 
L 460.130421 101.434791 
L 463.715387 106.179851 
L 467.300353 95.841072 
L 470.88532 102.562207 
L 474.470286 76.216595 
L 478.055252 94.431801 
L 481.640218 100.418878 
L 485.225185 137.440875 
L 488.810151 176.943808 
L 492.395117 169.398791 
L 495.980084 171.94477 
L 499.56505 138.097502 
L 503.150016 76.476768 
L 506.734982 81.828898 
L 510.319949 57.474847 
L 513.904915 68.306097 
L 517.489881 98.792796 
L 521.074847 126.866701 
L 524.659814 121.629171 
L 528.24478 143.009816 
L 531.829746 128.418447 
L 535.414712 147.237627 
L 538.999679 158.846298 
L 542.584645 167.42891 
L 549.754578 90.492039 
L 553.339544 58.862436 
L 556.92451 44.5777 
L 560.509476 55.003204 
L 564.094443 94.484455 
L 567.679409 154.640168 
L 571.264375 172.384586 
L 574.849341 179.341116 
L 582.019274 131.357783 
L 585.60424 131.717069 
L 589.189207 92.870763 
L 592.774173 97.01185 
L 596.359139 106.291354 
L 599.944105 81.568725 
L 603.529072 69.145464 
L 607.114038 85.139909 
L 610.699004 91.170347 
L 614.28397 133.594032 
L 617.868937 183.568927 
L 621.453903 194.133809 
L 625.038869 166.199283 
L 628.623836 121.700409 
L 632.208802 98.950758 
L 635.793768 64.889777 
L 639.378734 36.397737 
L 642.963701 85.260703 
L 646.548667 105.377651 
L 650.133633 123.221182 
L 653.718599 135.672318 
L 657.303566 120.077425 
L 664.473498 162.346245 
L 668.058465 178.755727 
L 671.643431 167.930672 
L 675.228397 149.436709 
L 678.813363 103.602899 
L 682.39833 59.348712 
L 685.983296 67.785751 
L 689.568262 62.569902 
L 693.153228 104.448462 
L 696.738195 131.224599 
L 700.323161 166.549277 
L 703.908127 161.070158 
L 707.493093 176.52877 
L 711.07806 149.065033 
L 714.663026 131.788307 
L 718.247992 119.101776 
L 721.832959 109.1037 
L 725.417925 92.815012 
L 729.002891 78.539568 
L 732.587857 67.516286 
L 736.172824 69.448999 
L 739.75779 106.303743 
L 743.342756 125.215842 
L 746.927722 176.500894 
L 750.512689 171.362478 
L 754.097655 165.068769 
L 757.682621 136.725399 
L 761.267588 103.974575 
L 768.43752 68.460961 
L 772.022486 73.302038 
L 775.607453 101.391429 
L 779.192419 116.007576 
L 782.777385 133.745799 
L 786.362351 105.81437 
L 793.532284 159.701153 
L 797.11725 184.101663 
L 800.702217 179.96677 
L 804.287183 171.526635 
L 807.872149 116.100495 
L 811.457115 78.675849 
L 815.042082 58.091209 
L 818.627048 81.732881 
L 822.212014 116.754025 
L 825.79698 139.432437 
L 829.381947 152.304806 
L 832.966913 162.203769 
L 836.551879 146.859757 
L 840.136845 144.035022 
L 843.721812 115.069095 
L 847.306778 120.486268 
L 850.891744 118.723906 
L 854.476711 104.330764 
L 858.061677 59.413755 
L 861.646643 63.39688 
L 865.231609 64.750399 
L 868.816576 85.387693 
L 872.401542 108.419197 
L 875.986508 145.431903 
L 879.571474 171.858045 
L 883.156441 147.788946 
L 886.741407 117.766841 
L 890.326373 84.511157 
L 893.91134 43.744527 
L 897.496306 71.106054 
L 901.081272 57.124852 
L 904.666238 70.585708 
L 908.251205 82.528887 
L 911.836171 93.093769 
L 915.421137 92.746872 
L 919.006103 111.962505 
L 922.59107 116.555798 
L 926.176036 133.04581 
L 929.761002 154.147698 
L 933.345969 126.937939 
L 936.930935 111.262516 
L 940.515901 58.317312 
L 944.100867 53.569155 
L 947.685834 64.112356 
L 951.2708 85.350525 
L 958.440732 134.04314 
L 962.025699 130.998496 
L 965.610665 144.530589 
L 969.195631 141.80187 
L 972.780597 152.592855 
L 976.365564 104.178997 
L 979.95053 110.472705 
L 983.535496 124.441517 
L 987.120463 90.290715 
L 990.705429 43.679484 
L 994.290395 67.101248 
L 997.875361 77.706395 
L 1001.460328 110.652349 
L 1005.045294 114.183268 
L 1008.63026 159.787877 
L 1012.215226 126.182199 
L 1015.800193 120.699982 
L 1019.385159 86.028833 
L 1022.970125 65.484459 
L 1026.555092 81.401471 
L 1030.140058 63.164583 
L 1033.725024 69.377762 
L 1037.30999 73.676811 
L 1040.894957 84.207622 
L 1044.479923 102.614861 
L 1048.064889 102.664418 
L 1051.649855 140.559854 
L 1055.234822 140.448351 
L 1058.819788 152.636217 
L 1062.404754 134.284729 
L 1065.989721 78.214351 
L 1069.574687 92.901736 
L 1073.159653 50.89309 
L 1076.744619 50.704155 
L 1080.329586 89.293385 
L 1083.914552 98.814477 
L 1087.499518 128.111815 
L 1091.084484 108.728927 
L 1094.669451 118.321257 
L 1098.254417 119.792474 
L 1101.839383 118.77656 
L 1105.42435 127.080415 
L 1109.009316 104.098467 
L 1116.179248 93.490223 
L 1119.764215 61.07081 
L 1123.349181 35.645094 
L 1126.934147 65.794188 
L 1130.519113 111.547468 
L 1134.10408 123.057025 
L 1137.689046 136.567437 
L 1141.274012 136.716107 
L 1144.858978 135.542232 
L 1148.443945 109.583781 
L 1152.028911 101.060018 
L 1155.613877 88.893833 
L 1159.198844 84.672217 
L 1162.78381 106.830283 
L 1166.368776 69.387053 
L 1169.953742 85.313357 
L 1173.538709 83.795682 
L 1177.123675 119.851322 
L 1180.708641 134.467469 
L 1187.878574 161.07945 
L 1191.46354 149.089811 
L 1195.048506 100.548964 
L 1198.633473 104.315278 
L 1202.218439 61.835842 
L 1205.803405 56.300971 
L 1209.388371 88.172163 
L 1212.973338 103.460424 
L 1216.558304 113.402749 
L 1220.14327 123.918074 
L 1223.728236 130.236561 
L 1227.313203 148.005757 
L 1230.898169 147.884962 
L 1234.483135 149.826968 
L 1238.068102 143.502286 
L 1241.653068 115.25803 
L 1245.238034 82.863395 
L 1248.823 78.248422 
L 1252.407967 64.567658 
L 1255.992933 78.771865 
L 1259.577899 103.200251 
L 1263.162865 149.49246 
L 1266.747832 153.141076 
L 1270.332798 135.94488 
L 1273.917764 127.046345 
L 1277.50273 125.451236 
L 1281.087697 115.564663 
L 1284.672663 109.249273 
L 1288.257629 92.090244 
L 1291.842596 94.561888 
L 1295.427562 65.453486 
L 1299.012528 66.447718 
L 1302.597494 94.552596 
L 1306.182461 107.976284 
L 1309.767427 145.899595 
L 1313.352393 165.223634 
L 1316.937359 165.043991 
L 1320.522326 150.186255 
L 1324.107292 129.75648 
L 1327.692258 122.220755 
L 1331.277225 98.114488 
L 1334.862191 81.181562 
L 1338.447157 88.392071 
L 1342.032123 108.425392 
L 1345.61709 130.846729 
L 1349.202056 105.294024 
L 1352.787022 133.302886 
L 1356.371988 141.104978 
L 1359.956955 149.353081 
L 1363.541921 163.238266 
L 1367.126887 160.010882 
L 1370.711854 118.801338 
L 1374.29682 79.787779 
L 1377.881786 77.421443 
L 1381.466752 38.469829 
L 1385.051719 84.074438 
L 1388.636685 92.821207 
L 1392.221651 128.375085 
L 1395.806617 132.863069 
L 1399.391584 128.749858 
L 1402.97655 132.085648 
L 1406.561516 136.809026 
L 1410.146482 125.615393 
L 1413.731449 118.922133 
L 1417.316415 111.674457 
L 1420.901381 95.398158 
L 1428.071314 64.338458 
L 1431.65628 100.264013 
L 1435.241246 94.543304 
L 1438.826213 132.93121 
L 1442.411179 163.380742 
L 1445.996145 178.030959 
L 1449.581111 152.534006 
L 1453.166078 122.06589 
L 1456.751044 99.049872 
L 1460.33601 87.577482 
L 1467.505943 92.26679 
L 1471.090909 111.767376 
L 1474.675875 75.036524 
L 1478.260842 96.78265 
L 1481.845808 88.351806 
L 1485.430774 131.376367 
L 1489.01574 140.454546 
L 1492.600707 155.160514 
L 1496.185673 171.232391 
L 1499.770639 114.090349 
L 1503.355606 66.580902 
L 1506.940572 49.852398 
L 1510.525538 55.656733 
L 1514.110504 68.067605 
L 1521.280437 114.42176 
L 1524.865403 117.215522 
L 1528.450369 123.549496 
L 1532.035336 132.516172 
L 1535.620302 143.121319 
L 1539.205268 125.370707 
L 1542.790235 124.326917 
L 1546.375201 130.097183 
L 1549.960167 82.448357 
L 1553.545133 70.678626 
L 1557.1301 51.274057 
L 1560.715066 79.772292 
L 1564.300032 104.628105 
L 1567.884998 124.020285 
L 1571.469965 159.134347 
L 1575.054931 146.308438 
L 1578.639897 153.09152 
L 1582.224863 137.67627 
L 1585.80983 104.216164 
L 1589.394796 71.8556 
L 1592.979762 97.58485 
L 1596.564729 88.413752 
L 1600.149695 70.325535 
L 1603.734661 79.416103 
L 1607.319627 71.583037 
L 1610.904594 78.836908 
L 1614.48956 117.584101 
L 1618.074526 155.110958 
L 1621.659492 150.149087 
L 1625.244459 143.003622 
L 1628.829425 107.232932 
L 1632.414391 75.036524 
L 1635.999358 60.689842 
L 1639.584324 42.431273 
L 1643.16929 64.951723 
L 1646.754256 76.036951 
L 1650.339223 105.622337 
L 1653.924189 105.687381 
L 1657.509155 134.247561 
L 1661.094121 122.115447 
L 1664.679088 129.425069 
L 1668.264054 138.376259 
L 1671.84902 145.035449 
L 1675.433987 127.975534 
L 1679.018953 85.558044 
L 1682.603919 62.569902 
L 1686.188885 36.992418 
L 1689.773852 61.064615 
L 1693.358818 90.197796 
L 1696.943784 130.654696 
L 1700.52875 164.687802 
L 1704.113717 156.520228 
L 1707.698683 157.712688 
L 1711.283649 133.532086 
L 1714.868615 116.150052 
L 1718.453582 88.333223 
L 1722.038548 92.257499 
L 1725.623514 86.149628 
L 1729.208481 81.602795 
L 1732.793447 65.68888 
L 1736.378413 78.474524 
L 1739.963379 98.538818 
L 1743.548346 103.060872 
L 1747.133312 142.464692 
L 1750.718278 174.905786 
L 1754.303244 149.981833 
L 1757.888211 121.173868 
L 1761.473177 80.878027 
L 1765.058143 62.086723 
L 1768.64311 44.097619 
L 1772.228076 53.655879 
L 1775.813042 86.419093 
L 1779.398008 92.876958 
L 1782.982975 108.924057 
L 1786.567941 97.448569 
L 1790.152907 114.1461 
L 1793.737873 128.694107 
L 1797.32284 130.18081 
L 1800.907806 124.875139 
L 1804.492772 109.469181 
L 1808.077739 86.419093 
L 1811.662705 53.658976 
L 1815.247671 42.607819 
L 1818.832637 56.945209 
L 1822.417604 72.156037 
L 1826.00257 93.595531 
L 1829.587536 125.191063 
L 1833.172502 146.023487 
L 1836.757469 126.742809 
L 1840.342435 146.125697 
L 1843.927401 114.257603 
L 1847.512367 99.821099 
L 1851.097334 71.208264 
L 1854.6823 84.257179 
L 1858.267266 46.33077 
L 1861.852233 66.320729 
L 1865.437199 56.006728 
L 1869.022165 66.196837 
L 1872.607131 97.495029 
L 1876.192098 157.883039 
L 1879.777064 171.461591 
L 1883.36203 160.363974 
L 1886.946996 127.696777 
L 1894.116929 54.464274 
L 1897.701895 29.942969 
L 1901.286862 52.587312 
L 1904.871828 53.209868 
L 1908.456794 86.096974 
L 1912.04176 87.156249 
L 1915.626727 92.465017 
L 1919.211693 97.176007 
L 1922.796659 106.619667 
L 1926.381625 135.226307 
L 1929.966592 148.77079 
L 1933.551558 118.596917 
L 1937.136524 94.329591 
L 1940.721491 45.54096 
L 1944.306457 28.227066 
L 1947.891423 34.777851 
L 1955.061356 94.332688 
L 1958.646322 130.818853 
L 1962.231288 140.420475 
L 1965.816254 130.078599 
L 1969.401221 133.209967 
L 1972.986187 123.707458 
L 1976.571153 102.131683 
L 1980.156119 99.328629 
L 1983.741086 91.068136 
L 1987.326052 60.516393 
L 1990.911018 41.876857 
L 1994.495985 48.570117 
L 1998.080951 67.002134 
L 2001.665917 127.278642 
L 2005.250883 156.622439 
L 2008.83585 177.327873 
L 2012.420816 168.444824 
L 2016.005782 139.029789 
L 2019.590748 80.016979 
L 2023.175715 70.288367 
L 2026.760681 54.910285 
L 2030.345647 60.076577 
L 2033.930614 73.159562 
L 2037.51558 80.209011 
L 2041.100546 93.189785 
L 2044.685512 89.77966 
L 2048.270479 121.706604 
L 2051.855445 142.03107 
L 2055.440411 183.293268 
L 2059.025377 176.41417 
L 2062.610344 156.805179 
L 2066.19531 99.23571 
L 2069.780276 59.512869 
L 2073.365243 16.952903 
L 2076.950209 31.922142 
L 2080.535175 63.746875 
L 2084.120141 105.755521 
L 2087.705108 130.118864 
L 2091.290074 150.40926 
L 2094.87504 127.244572 
L 2098.460006 134.836048 
L 2102.044973 143.675735 
L 2105.629939 113.359387 
L 2109.214905 111.185084 
L 2112.799872 103.59051 
L 2116.384838 70.635264 
L 2119.969804 26.72178 
L 2123.55477 39.48884 
L 2127.139737 64.007048 
L 2130.724703 101.933456 
L 2134.309669 144.617314 
L 2137.894635 170.024445 
L 2141.479602 169.14791 
L 2145.064568 142.108503 
L 2148.649534 95.221612 
L 2152.2345 76.845346 
L 2155.819467 67.243724 
L 2159.404433 61.578766 
L 2162.989399 71.044108 
L 2166.574366 73.590086 
L 2170.159332 99.353407 
L 2173.744298 91.027871 
L 2177.329264 111.940824 
L 2180.914231 137.617421 
L 2184.499197 169.643478 
L 2188.084163 170.829743 
L 2191.669129 154.376898 
L 2195.254096 91.012385 
L 2198.839062 55.870447 
L 2202.424028 26.87045 
L 2206.008995 22.921396 
L 2209.593961 79.521411 
L 2213.178927 122.384912 
L 2216.763893 125.572031 
L 2220.34886 140.19747 
L 2223.933826 127.105193 
L 2227.518792 139.785529 
L 2231.103758 118.70842 
L 2234.688725 117.308441 
L 2238.273691 113.074435 
L 2241.858657 99.948088 
L 2245.443624 63.05308 
L 2249.02859 39.696359 
L 2252.613556 45.562641 
L 2256.198522 69.439707 
L 2259.783489 114.638571 
L 2263.368455 152.202595 
L 2266.953421 171.167348 
L 2270.538387 176.847792 
L 2274.123354 146.937189 
L 2277.70832 90.349563 
L 2281.293286 78.886465 
L 2284.878252 61.733631 
L 2288.463219 66.072945 
L 2292.048185 52.07316 
L 2295.633151 80.18733 
L 2299.218118 91.669012 
L 2302.803084 72.230373 
L 2306.38805 137.186897 
L 2309.973016 166.025834 
L 2313.557983 169.668256 
L 2317.142949 148.501325 
L 2320.727915 149.185827 
L 2324.312881 112.132857 
L 2327.897848 50.728933 
L 2331.482814 23.698817 
L 2335.06778 42.905159 
L 2338.652747 69.461389 
L 2342.237713 129.75648 
L 2345.822679 131.063539 
L 2349.407645 161.311747 
L 2352.992612 157.564017 
L 2356.577578 153.066741 
L 2360.162544 153.624255 
L 2363.74751 123.769404 
L 2367.332477 134.210394 
L 2370.917443 121.691117 
L 2374.502409 82.386411 
L 2378.087376 41.7127 
L 2381.672342 51.624052 
L 2385.257308 83.489049 
L 2388.842274 147.067276 
L 2392.427241 152.803471 
L 2396.012207 188.781679 
L 2399.597173 170.433289 
L 2403.182139 146.444719 
L 2410.352072 95.240196 
L 2413.937038 68.702551 
L 2417.522004 84.316028 
L 2421.106971 77.195341 
L 2424.691937 57.366442 
L 2428.276903 86.196087 
L 2431.86187 96.934418 
L 2435.446836 117.992944 
L 2439.031802 161.581212 
L 2442.616768 192.885598 
L 2446.201735 206.783173 
L 2449.786701 158.579931 
L 2453.371667 106.882938 
L 2456.956633 83.4302 
L 2460.5416 30.454023 
L 2464.126566 55.291252 
L 2467.711532 68.157426 
L 2471.296499 118.894257 
L 2474.881465 154.841493 
L 2478.466431 156.668898 
L 2482.051397 157.982152 
L 2485.636364 166.409899 
L 2489.22133 164.570104 
L 2492.806296 172.508478 
L 2496.391262 141.603643 
L 2499.976229 117.004906 
L 2503.561195 78.895757 
L 2507.146161 55.570009 
L 2510.731128 51.964755 
L 2514.316094 69.668907 
L 2517.90106 133.219259 
L 2521.486026 175.339408 
L 2525.070993 197.584199 
L 2528.655959 194.446636 
L 2532.240925 163.424104 
L 2535.825891 139.289962 
L 2539.410858 119.31549 
L 2542.995824 87.264655 
L 2546.58079 83.585065 
L 2550.165757 94.521623 
L 2553.750723 76.681189 
L 2557.335689 93.31058 
L 2560.920655 102.472386 
L 2564.505622 135.26967 
L 2568.090588 171.895213 
L 2571.675554 188.190095 
L 2575.26052 183.510079 
L 2578.845487 176.271694 
L 2582.430453 120.737149 
L 2586.015419 69.365372 
L 2589.600385 51.047955 
L 2593.185352 67.215848 
L 2596.770318 98.086612 
L 2600.355284 102.075932 
L 2603.940251 149.489363 
L 2607.525217 151.663665 
L 2611.110183 159.732126 
L 2614.695149 168.094829 
L 2618.280116 177.076992 
L 2621.865082 157.585698 
L 2625.450048 175.299143 
L 2629.035014 131.769723 
L 2632.619981 64.27961 
L 2636.204947 75.528994 
L 2639.789913 61.903983 
L 2643.37488 82.699238 
L 2646.959846 122.40969 
L 2650.544812 154.565833 
L 2654.129778 201.706702 
L 2657.714745 181.682673 
L 2661.299711 149.799092 
L 2664.884677 128.418447 
L 2668.469643 92.424753 
L 2672.05461 105.575878 
L 2675.639576 87.605358 
L 2679.224542 67.085761 
L 2682.809509 70.062264 
L 2686.394475 66.249491 
L 2689.979441 89.767271 
L 2693.564407 96.06098 
L 2697.149374 161.977666 
L 2700.73434 175.977451 
L 2704.319306 186.734366 
L 2707.904272 134.544902 
L 2711.489239 113.743452 
L 2715.074205 65.468972 
L 2718.659171 37.593294 
L 2722.244137 68.885291 
L 2725.829104 64.926945 
L 2729.41407 120.207512 
L 2732.999036 125.472917 
L 2736.584003 126.244144 
L 2740.168969 156.473769 
L 2743.753935 154.327341 
L 2747.338901 159.642304 
L 2750.923868 178.898203 
L 2754.508834 150.845979 
L 2758.0938 97.702548 
L 2761.678766 72.081702 
L 2765.263733 62.139377 
L 2768.848699 68.473351 
L 2772.433665 96.983975 
L 2776.018632 108.295305 
L 2779.603598 153.949471 
L 2783.188564 165.657256 
L 2786.77353 155.584844 
L 2790.358497 174.884105 
L 2793.943463 135.988243 
L 2797.528429 112.6563 
L 2801.113395 100.366223 
L 2804.698362 75.525897 
L 2808.283328 76.167038 
L 2811.868294 64.552172 
L 2815.453261 76.987822 
L 2819.038227 99.204737 
L 2822.623193 103.389186 
L 2826.208159 150.632265 
L 2829.793126 168.571813 
L 2833.378092 185.916679 
L 2836.963058 149.303525 
L 2840.548024 121.604393 
L 2844.132991 88.327028 
L 2847.717957 59.658442 
L 2851.302923 84.743455 
L 2854.887889 108.236457 
L 2858.472856 108.670078 
L 2862.057822 129.109145 
L 2865.642788 136.997962 
L 2869.227755 151.285795 
L 2872.812721 146.77613 
L 2876.397687 167.05104 
L 2879.982653 160.069731 
L 2883.56762 164.043564 
L 2887.152586 119.467257 
L 2890.737552 95.311434 
L 2894.322518 62.266366 
L 2897.907485 59.707999 
L 2901.492451 93.595531 
L 2905.077417 103.915726 
L 2908.662384 124.772928 
L 2912.24735 138.063432 
L 2915.832316 158.824617 
L 2919.417282 139.094832 
L 2923.002249 114.016014 
L 2926.587215 114.331938 
L 2930.172181 98.105196 
L 2933.757147 98.154753 
L 2937.342114 71.830821 
L 2940.92708 88.088536 
L 2944.512046 58.592971 
L 2948.097013 77.573211 
L 2951.681979 101.893191 
L 2955.266945 145.298719 
L 2958.851911 169.209856 
L 2962.436878 182.345495 
L 2966.021844 151.806141 
L 2969.60681 106.842673 
L 2973.191776 68.526005 
L 2976.776743 71.830821 
L 2980.361709 64.16501 
L 2983.946675 87.918185 
L 2987.531642 106.381175 
L 2991.116608 91.046455 
L 2994.701574 120.157955 
L 2998.28654 139.8196 
L 3001.871507 138.884216 
L 3005.456473 173.933235 
L 3009.041439 156.455185 
L 3012.626405 147.259308 
L 3016.211372 99.136596 
L 3019.796338 78.898854 
L 3023.381304 69.380859 
L 3026.96627 58.12528 
L 3030.551237 64.127842 
L 3034.136203 97.20698 
L 3037.721169 125.593712 
L 3041.306136 141.436389 
L 3044.891102 137.140437 
L 3048.476068 149.198217 
L 3052.061034 148.975211 
L 3055.646001 128.043674 
L 3059.230967 122.846409 
L 3062.815933 102.37637 
L 3066.400899 63.650858 
L 3069.985866 70.152086 
L 3073.570832 55.368685 
L 3077.155798 57.843425 
L 3084.325731 143.948297 
L 3087.910697 147.65886 
L 3091.495663 154.677336 
L 3095.08063 157.944985 
L 3098.665596 109.032462 
L 3102.250562 85.731493 
L 3105.835528 61.315496 
L 3109.420495 77.096227 
L 3113.005461 62.17035 
L 3116.590427 77.443124 
L 3120.175394 69.758729 
L 3123.76036 91.634942 
L 3127.345326 101.64231 
L 3130.930292 131.70468 
L 3134.515259 148.03673 
L 3138.100225 158.552055 
L 3141.685191 144.635897 
L 3145.270157 106.148878 
L 3148.855124 83.151444 
L 3152.44009 58.224393 
L 3156.025056 51.735555 
L 3159.610022 57.31069 
L 3163.194989 69.064934 
L 3166.779955 101.769299 
L 3170.364921 112.086397 
L 3173.949888 119.389825 
L 3177.534854 131.794502 
L 3181.11982 137.605032 
L 3184.704786 116.100495 
L 3188.289753 81.475806 
L 3191.874719 86.778379 
L 3195.459685 75.755097 
L 3199.044651 48.02809 
L 3202.629618 27.883266 
L 3206.214584 58.723058 
L 3209.79955 77.034281 
L 3213.384517 91.024774 
L 3216.969483 118.420371 
L 3220.554449 123.094193 
L 3224.139415 135.300643 
L 3227.724382 106.220116 
L 3231.309348 74.962189 
L 3234.894314 55.765139 
L 3238.47928 64.338458 
L 3242.064247 62.867242 
L 3245.649213 60.318166 
L 3249.234179 59.587204 
L 3252.819146 75.290503 
L 3256.404112 84.861152 
L 3259.989078 126.578653 
L 3263.574044 140.463838 
L 3267.159011 150.127406 
L 3270.743977 143.285476 
L 3274.328943 105.578975 
L 3277.913909 53.736409 
L 3281.498876 73.521946 
L 3285.083842 59.788528 
L 3288.668808 68.625118 
L 3292.253774 91.458396 
L 3295.838741 92.483601 
L 3299.423707 86.220866 
L 3303.008673 95.014093 
L 3306.59364 102.373272 
L 3310.178606 100.892764 
L 3313.763572 115.564663 
L 3317.348538 122.703933 
L 3320.933505 82.665168 
L 3324.518471 67.023815 
L 3328.103437 46.200684 
L 3331.688403 46.340062 
L 3335.27337 41.613586 
L 3338.858336 84.582395 
L 3342.443302 112.052327 
L 3346.028269 114.554944 
L 3349.613235 119.157528 
L 3353.198201 99.644553 
L 3356.783167 93.341553 
L 3360.368134 79.128054 
L 3363.9531 80.298833 
L 3367.538066 53.665171 
L 3371.123032 63.272988 
L 3374.707999 63.24821 
L 3378.292965 53.339955 
L 3381.877931 67.844599 
L 3385.462898 98.588375 
L 3389.047864 124.116301 
L 3392.63283 141.005865 
L 3396.217796 131.961756 
L 3399.802763 120.842458 
L 3403.387729 113.76823 
L 3406.972695 86.530595 
L 3410.557661 70.127308 
L 3414.142628 76.578978 
L 3417.727594 87.754028 
L 3421.31256 97.259634 
L 3424.897527 103.640067 
L 3428.482493 108.577159 
L 3432.067459 103.299364 
L 3435.652425 112.897889 
L 3439.237392 131.351588 
L 3442.822358 126.018042 
L 3446.407324 107.415673 
L 3449.99229 90.061515 
L 3453.577257 87.063331 
L 3457.162223 41.585711 
L 3460.747189 63.898642 
L 3464.332155 54.82356 
L 3467.917122 103.977672 
L 3471.502088 105.6657 
L 3475.087054 130.292312 
L 3478.672021 133.789161 
L 3482.256987 113.870441 
L 3485.841953 114.037695 
L 3489.426919 106.542235 
L 3493.011886 90.780088 
L 3496.596852 94.273839 
L 3500.181818 88.512866 
L 3503.766784 82.432871 
L 3507.351751 72.685675 
L 3510.936717 96.819818 
L 3514.521683 85.616893 
L 3518.10665 111.535078 
L 3521.691616 127.628636 
L 3525.276582 159.112666 
L 3528.861548 144.505811 
L 3532.446515 133.135632 
L 3536.031481 90.845131 
L 3539.616447 74.751573 
L 3543.201413 65.877815 
L 3546.78638 103.379894 
L 3550.371346 116.143857 
L 3553.956312 91.213709 
L 3557.541279 102.103807 
L 3561.126245 109.363873 
L 3568.296177 127.678193 
L 3571.881144 110.395273 
L 3575.46611 135.820988 
L 3579.051076 111.6249 
L 3582.636042 102.466191 
L 3586.221009 50.400619 
L 3589.805975 63.979172 
L 3593.390941 62.950869 
L 3596.975907 88.940293 
L 3600.560874 97.906969 
L 3604.14584 125.40168 
L 3607.730806 148.792471 
L 3614.900739 126.906966 
L 3618.485705 114.276187 
L 3622.070671 111.693041 
L 3625.655638 114.124419 
L 3629.240604 91.904407 
L 3632.82557 62.597777 
L 3636.410536 57.53989 
L 3639.995503 67.711415 
L 3643.580469 88.237206 
L 3647.165435 124.800804 
L 3650.750402 141.45807 
L 3654.335368 155.556968 
L 3657.920334 150.554833 
L 3661.5053 125.702117 
L 3665.090267 124.001701 
L 3668.675233 83.157638 
L 3672.260199 98.631737 
L 3675.845165 87.608455 
L 3679.430132 103.355116 
L 3683.015098 90.402217 
L 3686.600064 106.749754 
L 3690.185031 88.088536 
L 3693.769997 116.0943 
L 3697.354963 157.59499 
L 3700.939929 160.236985 
L 3704.524896 152.348168 
L 3708.109862 127.953853 
L 3711.694828 109.388651 
L 3715.279794 71.762681 
L 3718.864761 63.495993 
L 3722.449727 80.738649 
L 3726.034693 110.980662 
L 3729.619659 117.373484 
L 3733.204626 132.12901 
L 3736.789592 138.915189 
L 3740.374558 141.550989 
L 3743.959525 133.894469 
L 3747.544491 161.513072 
L 3751.129457 143.722195 
L 3754.714423 144.422184 
L 3758.29939 99.18925 
L 3761.884356 108.741316 
L 3765.469322 84.638147 
L 3769.054288 78.288687 
L 3772.639255 111.78596 
L 3776.224221 153.50346 
L 3779.809187 155.975104 
L 3783.394154 173.809343 
L 3786.97912 160.556007 
L 3790.564086 153.178244 
L 3794.149052 126.606528 
L 3797.734019 98.275548 
L 3801.318985 93.580045 
L 3804.903951 108.456365 
L 3808.488917 105.913483 
L 3812.073884 101.843634 
L 3815.65885 110.057668 
L 3819.243816 102.47858 
L 3822.828783 123.787988 
L 3826.413749 137.636005 
L 3829.998715 171.576191 
L 3833.583681 175.865948 
L 3837.168648 140.070481 
L 3840.753614 128.684815 
L 3844.33858 77.024989 
L 3847.923546 65.205702 
L 3851.508513 84.563811 
L 3855.093479 95.580899 
L 3858.678445 112.315597 
L 3862.263412 122.236241 
L 3865.848378 140.54127 
L 3869.433344 147.020816 
L 3873.01831 154.550347 
L 3876.603277 150.37519 
L 3880.188243 144.589438 
L 3883.773209 141.37754 
L 3887.358175 125.782647 
L 3890.943142 107.505494 
L 3894.528108 92.046882 
L 3898.113074 87.066428 
L 3901.69804 86.660682 
L 3905.283007 117.280565 
L 3908.867973 156.901196 
L 3912.452939 138.924481 
L 3916.037906 144.914654 
L 3919.622872 142.275757 
L 3923.207838 127.07422 
L 3926.792804 107.898851 
L 3930.377771 113.031073 
L 3933.962737 95.71718 
L 3937.547703 87.558898 
L 3941.132669 83.4302 
L 3944.717636 92.650855 
L 3948.302602 118.349133 
L 3951.887568 147.550454 
L 3955.472535 153.069839 
L 3959.057501 163.018358 
L 3962.642467 166.908564 
L 3966.227433 125.819815 
L 3969.8124 113.254079 
L 3973.397366 73.943178 
L 3976.982332 90.529206 
L 3980.567298 80.518741 
L 3984.152265 98.498553 
L 3987.737231 109.007684 
L 3991.322197 129.452945 
L 3994.907164 122.487123 
L 3998.49213 136.239124 
L 4002.077096 135.650637 
L 4005.662062 146.763741 
L 4009.247029 148.219471 
L 4012.831995 142.071335 
L 4016.416961 130.704253 
L 4020.001927 82.3988 
L 4023.586894 87.128374 
L 4027.17186 70.121113 
L 4030.756826 104.940932 
L 4034.341792 113.123992 
L 4037.926759 130.859118 
L 4041.511725 159.945839 
L 4045.096691 162.73031 
L 4048.681658 156.972433 
L 4052.266624 154.234422 
L 4055.85159 124.153469 
L 4059.436556 129.799842 
L 4063.021523 101.143645 
L 4066.606489 94.016764 
L 4070.191455 92.604396 
L 4073.776421 89.541169 
L 4077.361388 81.172271 
L 4080.946354 117.655338 
L 4084.53132 135.969659 
L 4088.116287 163.687375 
L 4091.701253 177.383624 
L 4095.286219 132.494491 
L 4098.871185 109.599267 
L 4102.456152 79.741319 
L 4106.041118 76.173232 
L 4109.626084 87.95845 
L 4113.21105 95.020288 
L 4116.796017 125.776453 
L 4120.380983 114.740781 
L 4123.965949 131.329907 
L 4127.550916 154.15699 
L 4131.135882 161.42325 
L 4134.720848 181.187106 
L 4138.305814 184.454755 
L 4141.890781 136.003729 
L 4145.475747 119.553982 
L 4149.060713 123.822058 
L 4152.645679 94.890201 
L 4156.230646 86.168212 
L 4159.815612 94.744628 
L 4163.400578 127.829961 
L 4166.985544 154.565833 
L 4170.570511 158.790547 
L 4174.155477 178.176532 
L 4177.740443 156.966239 
L 4181.32541 163.966131 
L 4184.910376 126.820242 
L 4188.495342 142.749643 
L 4192.080308 116.218192 
L 4195.665275 107.592219 
L 4199.250241 61.244258 
L 4202.835207 72.475059 
L 4206.420173 87.196514 
L 4210.00514 104.011743 
L 4213.590106 161.705104 
L 4217.175072 175.237197 
L 4220.760039 174.915078 
L 4224.345005 159.39452 
L 4227.929971 126.767588 
L 4231.514937 108.772289 
L 4235.099904 85.920428 
L 4238.68487 78.195768 
L 4242.269836 82.906757 
L 4245.854802 103.677235 
L 4249.439769 120.077425 
L 4253.024735 99.468007 
L 4256.609701 142.393454 
L 4260.194668 141.708951 
L 4263.779634 167.236878 
L 4267.3646 162.643585 
L 4270.949566 165.297969 
L 4274.534533 123.48755 
L 4278.119499 89.903552 
L 4281.704465 98.322007 
L 4285.289431 78.493108 
L 4288.874398 98.774213 
L 4292.459364 114.381495 
L 4296.04433 147.42966 
L 4299.629296 140.906751 
L 4303.214263 153.178244 
L 4306.799229 180.942419 
L 4310.384195 175.388965 
L 4313.969162 145.410222 
L 4317.554128 149.901303 
L 4321.139094 101.233467 
L 4324.72406 90.334077 
L 4328.309027 53.851009 
L 4331.893993 61.67788 
L 4335.478959 92.669439 
L 4339.063925 132.739177 
L 4342.648892 153.546822 
L 4346.233858 157.502071 
L 4349.818824 180.601716 
L 4353.403791 159.995396 
L 4356.988757 133.429875 
L 4360.573723 116.050938 
L 4364.158689 96.206553 
L 4367.743656 102.887424 
L 4371.328622 109.840857 
L 4374.913588 100.013132 
L 4378.498554 81.141298 
L 4382.083521 99.598094 
L 4385.668487 116.088106 
L 4389.253453 147.801335 
L 4392.83842 172.421754 
L 4396.423386 161.621477 
L 4400.008352 153.61806 
L 4403.593318 133.411291 
L 4407.178285 93.062796 
L 4410.763251 48.114814 
L 4414.348217 63.381393 
L 4417.933183 68.733524 
L 4421.51815 81.701908 
L 4425.103116 107.071873 
L 4428.688082 122.707031 
L 4432.273049 135.306837 
L 4435.858015 151.753487 
L 4439.442981 165.254607 
L 4443.027947 137.877594 
L 4446.612914 118.652668 
L 4450.19788 101.68877 
L 4453.782846 74.513081 
L 4457.367812 52.949695 
L 4460.952779 52.965182 
L 4464.537745 72.329486 
L 4468.122711 83.489049 
L 4471.707677 107.059483 
L 4475.292644 151.223849 
L 4478.87761 151.524287 
L 4482.462576 141.975319 
L 4486.047543 111.804543 
L 4489.632509 78.728503 
L 4493.217475 92.303958 
L 4496.802441 61.238064 
L 4500.387408 50.109473 
L 4503.972374 59.760653 
L 4507.55734 66.875145 
L 4511.142306 66.76674 
L 4514.727273 103.104235 
L 4518.312239 132.959086 
L 4521.897205 134.188713 
L 4525.482172 152.509228 
L 4529.067138 139.924908 
L 4532.652104 107.170986 
L 4536.23707 70.526859 
L 4539.822037 51.082025 
L 4543.407003 58.716863 
L 4546.991969 93.031823 
L 4550.576935 90.860617 
L 4554.161902 116.685884 
L 4557.746868 114.483706 
L 4561.331834 145.546503 
L 4564.916801 153.023379 
L 4568.501767 164.526742 
L 4572.086733 140.473129 
L 4575.671699 125.677339 
L 4579.256666 102.562207 
L 4582.841632 94.063223 
L 4586.426598 56.239025 
L 4590.011564 66.512761 
L 4593.596531 77.607281 
L 4597.181497 95.395061 
L 4600.766463 141.938151 
L 4604.351429 167.949256 
L 4607.936396 137.998389 
L 4611.521362 142.312924 
L 4615.106328 128.87375 
L 4618.691295 108.487338 
L 4622.276261 99.787029 
L 4625.861227 79.574065 
L 4629.446193 94.757018 
L 4633.03116 63.93581 
L 4636.616126 69.904302 
L 4640.201092 82.618709 
L 4643.786058 119.882295 
L 4647.371025 147.194265 
L 4650.955991 175.49737 
L 4654.540957 176.903543 
L 4658.125924 166.022737 
L 4661.71089 118.813728 
L 4665.295856 94.434899 
L 4668.880822 85.719103 
L 4672.465789 44.367084 
L 4676.050755 90.860617 
L 4679.635721 89.342942 
L 4686.805654 123.106582 
L 4690.39062 119.851322 
L 4693.975586 133.637394 
L 4697.560553 145.856233 
L 4701.145519 150.923411 
L 4704.730485 132.863069 
L 4708.315451 107.945311 
L 4711.900418 82.011638 
L 4715.485384 70.195448 
L 4719.07035 39.092386 
L 4722.655316 67.513188 
L 4726.240283 83.089498 
L 4729.825249 126.426885 
L 4733.410215 130.716642 
L 4736.995181 162.262618 
L 4740.580148 162.566153 
L 4744.165114 127.467577 
L 4747.75008 112.501435 
L 4751.335047 114.304062 
L 4754.920013 80.345292 
L 4758.504979 78.638681 
L 4762.089945 77.8148 
L 4765.674912 44.766635 
L 4769.259878 76.083411 
L 4772.844844 104.563062 
L 4776.42981 154.197255 
L 4780.014777 168.478894 
L 4783.599743 155.659179 
L 4787.184709 129.867983 
L 4790.769676 110.624473 
L 4794.354642 94.924272 
L 4797.939608 80.667411 
L 4801.524574 79.899281 
L 4805.109541 71.815335 
L 4812.279473 73.980346 
L 4815.864439 89.875677 
L 4819.449406 121.11502 
L 4823.034372 156.690579 
L 4826.619338 157.554725 
L 4830.204305 168.624467 
L 4833.789271 146.274368 
L 4837.374237 100.093661 
L 4840.959203 71.38481 
L 4844.54417 75.209973 
L 4848.129136 42.66357 
L 4851.714102 44.847165 
L 4855.299068 80.02627 
L 4858.884035 106.198435 
L 4862.469001 139.621373 
L 4866.053967 141.684173 
L 4869.638934 130.10028 
L 4873.2239 142.309827 
L 4876.808866 122.886674 
L 4880.393832 92.486699 
L 4883.978799 94.11278 
L 4887.563765 54.798782 
L 4891.148731 63.551745 
L 4894.733697 50.453274 
L 4898.318664 65.363664 
L 4901.90363 93.914553 
L 4909.073562 173.638992 
L 4912.658529 182.370273 
L 4916.243495 154.575125 
L 4919.828461 134.873215 
L 4923.413428 76.808178 
L 4926.998394 79.19 
L 4930.58336 55.570009 
L 4934.168326 66.518956 
L 4937.753293 82.804546 
L 4941.338259 77.471 
L 4944.923225 102.565305 
L 4948.508191 120.11769 
L 4952.093158 133.903761 
L 4955.678124 158.502498 
L 4959.26309 167.568288 
L 4962.848057 122.44376 
L 4966.433023 98.191921 
L 4970.017989 66.745059 
L 4973.602955 43.738332 
L 4977.187922 49.644879 
L 4980.772888 54.913382 
L 4984.357854 81.590406 
L 4987.94282 88.082341 
L 4991.527787 127.052539 
L 4995.112753 139.776237 
L 4998.697719 130.620626 
L 5002.282686 140.9656 
L 5005.867652 139.333324 
L 5009.452618 126.77688 
L 5013.037584 82.662071 
L 5016.622551 63.084053 
L 5020.207517 53.308982 
L 5023.792483 61.885399 
L 5027.377449 56.288582 
L 5030.962416 84.226206 
L 5034.547382 113.693895 
L 5038.132348 145.140757 
L 5041.717314 164.954169 
L 5045.302281 133.361734 
L 5048.887247 124.757442 
L 5052.472213 126.553874 
L 5056.05718 93.80305 
L 5059.642146 88.525255 
L 5063.227112 60.085869 
L 5066.812078 74.3768 
L 5070.397045 88.011104 
L 5073.982011 112.275333 
L 5077.566977 118.036306 
L 5081.151943 144.964211 
L 5084.73691 140.838611 
L 5088.321876 164.917002 
L 5091.906842 155.426882 
L 5095.491809 128.161372 
L 5099.076775 86.347855 
L 5102.661741 49.756382 
L 5106.246707 38.708321 
L 5109.831674 66.494178 
L 5113.41664 72.639216 
L 5117.001606 97.098575 
L 5120.586572 122.576944 
L 5124.171539 142.198324 
L 5127.756505 151.852601 
L 5131.341471 141.386832 
L 5134.926438 129.075074 
L 5138.511404 117.943387 
L 5142.09637 96.494602 
L 5145.681336 56.251415 
L 5149.266303 39.423797 
L 5152.851269 56.149204 
L 5156.436235 67.184875 
L 5160.021201 101.639213 
L 5163.606168 122.022528 
L 5167.191134 148.343362 
L 5170.7761 154.349022 
L 5174.361066 137.815648 
L 5177.946033 131.518842 
L 5181.530999 129.960902 
L 5185.115965 82.504109 
L 5188.700932 82.891271 
L 5192.285898 72.444086 
L 5195.870864 73.983443 
L 5199.45583 65.462777 
L 5203.040797 108.001062 
L 5206.625763 127.483063 
L 5210.210729 160.150261 
L 5213.795695 147.178779 
L 5217.380662 167.178029 
L 5220.965628 131.707777 
L 5224.550594 80.655022 
L 5228.135561 78.105946 
L 5231.720527 60.045604 
L 5235.305493 52.054576 
L 5238.890459 45.525473 
L 5242.475426 93.830926 
L 5246.060392 96.441947 
L 5249.645358 101.806467 
L 5253.230324 117.116409 
L 5256.815291 136.313459 
L 5260.400257 137.846621 
L 5267.57019 118.878771 
L 5271.155156 105.972332 
L 5274.740122 44.041868 
L 5278.325088 44.5777 
L 5281.910055 43.406922 
L 5285.495021 48.712592 
L 5289.079987 85.703617 
L 5292.664953 121.192452 
L 5296.24992 142.861146 
L 5299.834886 139.460313 
L 5303.419852 138.874924 
L 5307.004819 123.998604 
L 5310.589785 113.947873 
L 5314.174751 100.601618 
L 5317.759717 92.629174 
L 5321.344684 57.341663 
L 5324.92965 61.123464 
L 5328.514616 42.335257 
L 5332.099582 72.608243 
L 5335.684549 113.944776 
L 5339.269515 159.060012 
L 5342.854481 153.822482 
L 5346.439447 161.296261 
L 5350.024414 149.452195 
L 5353.60938 118.222144 
L 5357.194346 78.533373 
L 5360.779313 61.63142 
L 5364.364279 51.713874 
L 5367.949245 40.151662 
L 5371.534211 78.406384 
L 5375.119178 93.564558 
L 5378.704144 117.227911 
L 5382.28911 109.602365 
L 5385.874076 126.43308 
L 5389.459043 152.332682 
L 5393.044009 142.690794 
L 5400.213942 90.396023 
L 5403.798908 54.238171 
L 5407.383874 61.142047 
L 5410.96884 54.687279 
L 5414.553807 62.799102 
L 5418.138773 82.872687 
L 5421.723739 113.60717 
L 5425.308705 126.727323 
L 5428.893672 147.051789 
L 5432.478638 141.677978 
L 5439.648571 116.010673 
L 5443.233537 99.787029 
L 5446.818503 73.710881 
L 5450.403469 80.410335 
L 5453.988436 36.871624 
L 5457.573402 50.865214 
L 5461.158368 70.734378 
L 5464.743334 93.685353 
L 5468.328301 158.459136 
L 5471.913267 167.710764 
L 5475.498233 172.849181 
L 5479.083199 159.462661 
L 5482.668166 112.845235 
L 5486.253132 82.578444 
L 5489.838098 62.003096 
L 5493.423065 72.30161 
L 5497.008031 61.687172 
L 5500.592997 65.112783 
L 5504.177963 85.716006 
L 5507.76293 86.062903 
L 5511.347896 131.472383 
L 5514.932862 161.218828 
L 5518.517828 159.667082 
L 5522.102795 173.710229 
L 5525.687761 155.110958 
L 5529.272727 134.517026 
L 5532.857694 109.59617 
L 5536.44266 54.72135 
L 5540.027626 64.645091 
L 5543.612592 84.136384 
L 5547.197559 92.632272 
L 5550.782525 134.250659 
L 5554.367491 165.276288 
L 5557.952457 167.11918 
L 5561.537424 159.382131 
L 5565.12239 163.393131 
L 5568.707356 139.190848 
L 5572.292323 132.798026 
L 5575.877289 127.504745 
L 5579.462255 104.064397 
L 5583.047221 75.067497 
L 5586.632188 57.905371 
L 5590.217154 77.907719 
L 5593.80212 108.877597 
L 5597.387086 146.782325 
L 5600.972053 177.169911 
L 5604.557019 186.759144 
L 5608.141985 169.414278 
L 5611.726951 119.287614 
L 5615.311918 103.28078 
L 5618.896884 113.015587 
L 5622.48185 75.959519 
L 5626.066817 77.257286 
L 5629.651783 86.459357 
L 5633.236749 89.09206 
L 5636.821715 105.213494 
L 5640.406682 104.315278 
L 5643.991648 156.510936 
L 5647.576614 155.513606 
L 5651.16158 168.946586 
L 5654.746547 171.06204 
L 5658.331513 128.904723 
L 5661.916479 78.418773 
L 5665.501446 44.478587 
L 5669.086412 65.292426 
L 5672.671378 61.510626 
L 5676.256344 88.395168 
L 5679.841311 130.595848 
L 5683.426277 155.213168 
L 5690.596209 159.868407 
L 5694.181176 138.577583 
L 5697.766142 141.80187 
L 5701.351108 111.092165 
L 5704.936075 121.198647 
L 5708.521041 60.977891 
L 5712.106007 60.677453 
L 5715.690973 51.95856 
L 5719.27594 68.194594 
L 5722.860906 99.275975 
L 5726.445872 143.390784 
L 5730.030838 185.625533 
L 5733.615805 168.720483 
L 5737.200771 152.738428 
L 5740.785737 135.985145 
L 5744.370704 109.586878 
L 5747.95567 90.259742 
L 5751.540636 76.62234 
L 5755.125602 74.435648 
L 5758.710569 79.316989 
L 5762.295535 74.367508 
L 5765.880501 79.670081 
L 5769.465467 114.595208 
L 5773.050434 134.417913 
L 5776.6354 160.995823 
L 5780.220366 179.437133 
L 5783.805332 172.424851 
L 5787.390299 131.05115 
L 5790.975265 118.324355 
L 5798.145198 40.935278 
L 5801.730164 73.484778 
L 5805.31513 99.529953 
L 5808.900096 131.150264 
L 5812.485063 147.293379 
L 5816.070029 166.344856 
L 5819.654995 155.789266 
L 5823.239961 142.892119 
L 5826.824928 149.238481 
L 5830.409894 167.078915 
L 5833.99486 139.599691 
L 5837.579827 108.964321 
L 5844.749759 50.518317 
L 5851.919692 94.506137 
L 5855.504658 154.736185 
L 5859.089624 183.206544 
L 5862.67459 165.843094 
L 5866.259557 149.2168 
L 5869.844523 131.67061 
L 5873.429489 107.629386 
L 5877.014456 96.197261 
L 5880.599422 106.666127 
L 5884.184388 57.697852 
L 5887.769354 71.158708 
L 5891.354321 87.128374 
L 5894.939287 81.008114 
L 5898.524253 116.707565 
L 5902.109219 143.79653 
L 5905.694186 173.527489 
L 5909.279152 194.945301 
L 5912.864118 190.42015 
L 5916.449084 147.562843 
L 5920.034051 97.460958 
L 5923.619017 74.813519 
L 5927.203983 55.966463 
L 5930.78895 59.088539 
L 5934.373916 93.391109 
L 5937.958882 107.059483 
L 5941.543848 140.866486 
L 5945.128815 136.285583 
L 5948.713781 149.167244 
L 5952.298747 135.765237 
L 5955.883713 147.178779 
L 5959.46868 147.169487 
L 5963.053646 116.834555 
L 5966.638612 96.928223 
L 5970.223579 65.097296 
L 5973.808545 62.380966 
L 5977.393511 63.82121 
L 5980.978477 108.536894 
L 5984.563444 147.020816 
L 5988.14841 161.810412 
L 5991.733376 163.619234 
L 5995.318342 148.746011 
L 5998.903309 129.75648 
L 6002.488275 97.795467 
L 6009.658208 91.226098 
L 6013.243174 75.377227 
L 6016.82814 69.526432 
L 6020.413106 57.220869 
L 6023.998073 55.842571 
L 6027.583039 97.247245 
L 6031.168005 131.676804 
L 6034.752971 177.773884 
L 6038.337938 163.213488 
L 6041.922904 165.068769 
L 6045.50787 154.138406 
L 6049.092836 87.961547 
L 6052.677803 71.558259 
L 6056.262769 37.980456 
L 6059.847735 65.986221 
L 6063.432702 79.865211 
L 6067.017668 99.077748 
L 6070.602634 116.769511 
L 6074.1876 118.039403 
L 6077.772567 130.905577 
L 6081.357533 127.879518 
L 6084.942499 138.181129 
L 6088.527465 158.425066 
L 6092.112432 126.659182 
L 6095.697398 73.720173 
L 6099.282364 37.76984 
L 6102.867331 25.544807 
L 6106.452297 45.866176 
L 6110.037263 74.878562 
L 6113.622229 110.612084 
L 6117.207196 157.737466 
L 6120.792162 173.539878 
L 6124.377128 163.814364 
L 6127.962094 119.615928 
L 6131.547061 109.747938 
L 6135.132027 102.156461 
L 6138.716993 98.820672 
L 6142.30196 89.036309 
L 6145.886926 67.860086 
L 6149.471892 38.203462 
L 6153.056858 44.974154 
L 6156.641825 94.812769 
L 6163.811757 151.632692 
L 6167.396723 168.599688 
L 6170.98169 162.240937 
L 6174.566656 136.257707 
L 6178.151622 119.513717 
L 6181.736588 71.425075 
L 6185.321555 69.006086 
L 6188.906521 74.280784 
L 6192.491487 77.647546 
L 6196.076454 102.989635 
L 6199.66142 123.75082 
L 6203.246386 108.372738 
L 6206.831352 114.663349 
L 6210.416319 149.03406 
L 6214.001285 168.766942 
L 6217.586251 164.322321 
L 6221.171217 131.800696 
L 6228.34115 79.211681 
L 6231.926116 24.54438 
L 6235.511083 60.634091 
L 6239.096049 70.288367 
L 6242.681015 108.623619 
L 6246.265981 144.982795 
L 6249.850948 155.928644 
L 6253.435914 130.772393 
L 6257.02088 116.71376 
L 6260.605846 117.441625 
L 6264.190813 112.132857 
L 6267.775779 119.265933 
L 6271.360745 87.469076 
L 6274.945712 67.652567 
L 6278.530678 46.4113 
L 6282.115644 49.592225 
L 6285.70061 65.794188 
L 6289.285577 113.957165 
L 6292.870543 144.189886 
L 6296.455509 143.090346 
L 6300.040475 154.126017 
L 6303.625442 111.9687 
L 6307.210408 88.088536 
L 6310.795374 83.585065 
L 6314.380341 88.441628 
L 6317.965307 73.856454 
L 6321.550273 80.243081 
L 6325.135239 97.169812 
L 6328.720206 106.53604 
L 6332.305172 102.887424 
L 6335.890138 128.901626 
L 6339.475104 157.533044 
L 6343.060071 169.730202 
L 6346.645037 151.623401 
L 6350.230003 139.931102 
L 6353.814969 110.159878 
L 6357.399936 74.841394 
L 6360.984902 53.550571 
L 6364.569868 65.013669 
L 6368.154835 92.375196 
L 6371.739801 106.876743 
L 6375.324767 140.792151 
L 6378.909733 159.406909 
L 6382.4947 141.349665 
L 6386.079666 126.875993 
L 6389.664632 135.18914 
L 6393.249598 124.649036 
L 6396.834565 101.162229 
L 6400.419531 89.48232 
L 6404.004497 75.767486 
L 6407.589464 67.587524 
L 6411.17443 68.727329 
L 6414.759396 85.180174 
L 6418.344362 112.699662 
L 6421.929329 136.657259 
L 6425.514295 149.49246 
L 6429.099261 148.882292 
L 6432.684227 150.102627 
L 6436.269194 101.084797 
L 6439.85416 96.739288 
L 6443.439126 81.026698 
L 6447.024093 88.354904 
L 6450.609059 94.379147 
L 6454.194025 97.968915 
L 6457.778991 99.424645 
L 6461.363958 117.05756 
L 6464.948924 141.783286 
L 6468.53389 142.557611 
L 6472.118856 169.463834 
L 6475.703823 168.633759 
L 6479.288789 151.288892 
L 6482.873755 111.163403 
L 6486.458721 85.406276 
L 6490.043688 72.815762 
L 6493.628654 73.385665 
L 6497.21362 89.696033 
L 6500.798587 115.106263 
L 6504.383553 154.445039 
L 6507.968519 143.245211 
L 6511.553485 145.775703 
L 6515.138452 150.592 
L 6518.723418 147.538065 
L 6522.308384 159.310893 
L 6525.89335 145.754022 
L 6529.478317 113.8023 
L 6533.063283 75.594038 
L 6536.648249 62.966356 
L 6540.233216 70.077751 
L 6543.818182 96.708315 
L 6547.403148 126.070696 
L 6550.988114 157.087033 
L 6554.573081 161.980764 
L 6558.158047 176.534965 
L 6561.743013 148.972114 
L 6565.327979 119.324782 
L 6568.912946 101.171521 
L 6572.497912 95.088428 
L 6576.082878 113.204522 
L 6579.667845 98.188823 
L 6583.252811 100.657369 
L 6586.837777 105.73384 
L 6590.422743 102.407343 
L 6594.00771 143.046984 
L 6597.592676 157.238801 
L 6601.177642 170.501429 
L 6604.762608 175.131889 
L 6608.347575 167.760321 
L 6611.932541 106.186046 
L 6615.517507 89.739396 
L 6619.102473 66.738864 
L 6622.68744 59.435436 
L 6626.272406 87.001385 
L 6629.857372 131.565302 
L 6633.442339 134.114378 
L 6637.027305 131.503356 
L 6640.612271 115.264225 
L 6644.197237 115.967311 
L 6647.782204 141.585059 
L 6651.36717 140.535075 
L 6654.952136 129.146312 
L 6658.537102 117.376582 
L 6662.122069 93.291996 
L 6665.707035 65.911886 
L 6669.292001 14.598957 
L 6672.876968 64.570756 
L 6676.461934 89.999569 
L 6680.0469 111.872684 
L 6683.631866 149.380957 
L 6687.216833 136.849291 
L 6690.801799 137.967416 
L 6694.386765 108.385127 
L 6697.971731 86.171309 
L 6701.556698 86.446968 
L 6705.141664 78.722308 
L 6708.72663 95.772931 
L 6712.311597 71.000745 
L 6715.896563 75.383421 
L 6719.481529 69.919789 
L 6723.066495 105.142256 
L 6726.651462 111.844808 
L 6730.236428 149.960152 
L 6733.821394 167.655013 
L 6737.40636 117.782328 
L 6740.991327 106.672321 
L 6744.576293 73.769729 
L 6748.161259 42.168003 
L 6751.746226 68.470253 
L 6755.331192 84.263374 
L 6758.916158 98.297229 
L 6762.501124 74.7206 
L 6766.086091 128.30075 
L 6769.671057 108.524505 
L 6773.256023 131.373269 
L 6776.840989 137.951929 
L 6780.425956 158.799839 
L 6784.010922 127.960047 
L 6787.595888 115.081484 
L 6791.180854 83.566482 
L 6794.765821 41.629073 
L 6798.350787 55.080636 
L 6801.935753 67.56894 
L 6805.52072 100.517991 
L 6809.105686 134.73074 
L 6812.690652 137.227162 
L 6816.275618 142.19213 
L 6819.860585 128.870653 
L 6823.445551 108.574062 
L 6827.030517 106.368786 
L 6830.615483 118.503998 
L 6834.20045 99.898532 
L 6837.785416 90.05532 
L 6841.370382 98.792796 
L 6844.955349 45.785646 
L 6848.540315 63.381393 
L 6852.125281 83.944352 
L 6855.710247 137.583351 
L 6859.295214 150.592 
L 6862.88018 150.220325 
L 6866.465146 142.582389 
L 6870.050112 112.987711 
L 6873.635079 92.489796 
L 6877.220045 64.236248 
L 6880.805011 64.765885 
L 6884.389978 95.181347 
L 6887.974944 81.141298 
L 6891.55991 75.073692 
L 6895.144876 94.493747 
L 6898.729843 91.08672 
L 6902.314809 110.302354 
L 6905.899775 116.927473 
L 6909.484741 130.506026 
L 6913.069708 131.147166 
L 6916.654674 117.351803 
L 6920.23964 83.467368 
L 6923.824606 20.948417 
L 6927.409573 31.051802 
L 6930.994539 54.129766 
L 6934.579505 96.476018 
L 6938.164472 105.938262 
L 6941.749438 120.133176 
L 6945.334404 125.265398 
L 6948.91937 145.915081 
L 6952.504337 117.261982 
L 6956.089303 106.780727 
L 6959.674269 91.607066 
L 6963.259235 111.20057 
L 6966.844202 88.503574 
L 6970.429168 37.937094 
L 6974.014134 40.585284 
L 6977.599101 35.824737 
L 6981.184067 71.49941 
L 6984.769033 113.597879 
L 6988.353999 147.259308 
L 6991.938966 145.081908 
L 6995.523932 134.482956 
L 6999.108898 104.944029 
L 7002.693864 84.808498 
L 7006.278831 48.000214 
L 7009.863797 61.439388 
L 7013.448763 64.69155 
L 7017.03373 89.538071 
L 7020.618696 73.227702 
L 7024.203662 74.540957 
L 7027.788628 89.280996 
L 7031.373595 96.767164 
L 7034.958561 130.419302 
L 7038.543527 137.849718 
L 7042.128493 138.720059 
L 7045.71346 111.293489 
L 7049.298426 69.102102 
L 7052.883392 38.516289 
L 7056.468358 23.590412 
L 7060.053325 41.446332 
L 7063.638291 66.330021 
L 7067.223257 109.41343 
L 7070.808224 118.912841 
L 7074.39319 151.861892 
L 7077.978156 117.497376 
L 7081.563122 96.153899 
L 7085.148089 97.882191 
L 7088.733055 130.877702 
L 7092.318021 98.932175 
L 7095.902987 82.203671 
L 7099.487954 58.221296 
L 7103.07292 29.19652 
L 7106.657886 48.734273 
L 7110.242853 86.998287 
L 7113.827819 104.996683 
L 7117.412785 134.414815 
L 7120.997751 165.347526 
L 7124.582718 148.513714 
L 7128.167684 102.540526 
L 7131.75265 87.100498 
L 7135.337616 75.553773 
L 7138.922583 44.729468 
L 7142.507549 76.346681 
L 7146.092515 79.713443 
L 7149.677482 42.288797 
L 7153.262448 64.666772 
L 7156.847414 61.619031 
L 7160.43238 85.908039 
L 7164.017347 134.718351 
L 7167.602313 136.248416 
L 7171.187279 146.562416 
L 7174.772245 119.643803 
L 7178.357212 49.548863 
L 7181.942178 17.60953 
L 7185.527144 10.08 
L 7189.112111 20.220552 
L 7192.697077 79.865211 
L 7196.282043 83.873114 
L 7199.867009 111.250127 
L 7203.451976 113.774425 
L 7207.036942 100.425072 
L 7210.621908 103.838294 
L 7214.206874 118.888063 
L 7217.791841 126.640599 
L 7221.376807 94.029153 
L 7224.961773 78.068778 
L 7228.546739 55.576204 
L 7232.131706 37.438429 
L 7235.716672 41.406067 
L 7239.301638 81.819606 
L 7242.886605 119.770793 
L 7246.471571 158.951607 
L 7250.056537 150.406163 
L 7253.641503 158.000736 
L 7257.22647 141.210286 
L 7260.811436 91.523439 
L 7264.396402 92.818109 
L 7267.981368 69.02467 
L 7271.566335 76.820568 
L 7275.151301 88.237206 
L 7278.736267 81.658546 
L 7282.321234 83.036844 
L 7285.9062 69.613156 
L 7289.491166 111.027122 
L 7293.076132 134.417913 
L 7296.661099 162.182088 
L 7300.246065 158.98258 
L 7303.831031 133.690048 
L 7307.415997 86.42219 
L 7311.000964 57.945636 
L 7314.58593 66.305242 
L 7318.170896 50.007263 
L 7321.755863 95.234001 
L 7325.340829 102.041861 
L 7328.925795 132.39228 
L 7332.510761 136.626286 
L 7336.095728 129.468431 
L 7339.680694 128.33482 
L 7343.26566 147.231433 
L 7346.850626 136.322751 
L 7350.435593 126.052112 
L 7357.605525 83.402325 
L 7361.190491 63.554842 
L 7364.775458 67.813626 
L 7368.360424 83.882406 
L 7371.94539 139.701902 
L 7375.530357 173.369527 
L 7379.115323 177.272122 
L 7382.700289 177.95043 
L 7386.285255 153.596379 
L 7389.870222 132.66794 
L 7393.455188 113.455403 
L 7397.040154 90.702655 
L 7400.62512 71.502508 
L 7404.210087 78.598416 
L 7407.795053 77.260384 
L 7411.380019 88.200039 
L 7414.964986 84.963363 
L 7422.134918 158.028612 
L 7425.719884 173.902262 
L 7429.304851 184.005646 
L 7432.889817 148.374335 
L 7436.474783 104.81704 
L 7440.059749 63.613691 
L 7443.644716 64.756594 
L 7447.229682 58.831463 
L 7450.814648 62.529637 
L 7454.399615 103.767056 
L 7457.984581 112.454976 
L 7461.569547 131.803794 
L 7465.154513 130.183907 
L 7468.73948 139.965173 
L 7472.324446 150.316341 
L 7475.909412 153.453903 
L 7479.494378 132.268388 
L 7483.079345 106.867451 
L 7486.664311 56.839901 
L 7490.249277 36.797289 
L 7493.834243 55.164263 
L 7497.41921 87.496952 
L 7501.004176 112.092592 
L 7504.589142 160.599369 
L 7508.174109 168.104121 
L 7511.759075 163.37145 
L 7515.344041 127.092804 
L 7518.929007 124.292847 
L 7522.513974 109.812981 
L 7526.09894 103.256002 
L 7529.683906 78.059487 
L 7533.268872 72.744524 
L 7536.853839 75.83253 
L 7540.438805 53.157214 
L 7544.023771 76.566589 
L 7547.608738 132.221929 
L 7551.193704 138.261659 
L 7554.77867 185.164036 
L 7558.363636 152.70126 
L 7561.948603 134.396232 
L 7565.533569 103.646262 
L 7569.118535 67.246821 
L 7572.703501 51.859447 
L 7576.288468 53.658976 
L 7579.873434 76.693578 
L 7583.4584 108.9891 
L 7587.043367 137.208578 
L 7590.628333 141.45807 
L 7594.213299 129.282593 
L 7597.798265 161.321039 
L 7601.383232 179.591997 
L 7604.968198 151.840211 
L 7608.553164 134.659502 
L 7612.13813 99.210931 
L 7615.723097 62.467691 
L 7619.308063 68.114064 
L 7622.893029 63.942004 
L 7626.477996 88.779233 
L 7630.062962 117.231009 
L 7633.647928 130.893188 
L 7637.232894 164.285153 
L 7640.817861 185.941457 
L 7644.402827 164.000202 
L 7647.987793 158.852493 
L 7651.572759 149.718563 
L 7655.157726 123.568079 
L 7658.742692 127.650318 
L 7662.327658 83.612941 
L 7665.912624 84.693898 
L 7669.497591 78.30727 
L 7673.082557 96.457434 
L 7676.667523 126.708739 
L 7680.25249 172.514673 
L 7683.837456 182.933981 
L 7687.422422 183.296365 
L 7691.007388 166.183796 
L 7694.592355 122.121641 
L 7698.177321 90.603542 
L 7701.762287 60.850901 
L 7705.347253 67.277794 
L 7708.93222 86.279714 
L 7712.517186 97.761396 
L 7716.102152 123.115874 
L 7719.687119 117.128798 
L 7723.272085 155.835725 
L 7726.857051 149.244676 
L 7730.442017 159.629915 
L 7734.026984 159.332574 
L 7737.61195 143.815113 
L 7741.196916 113.495668 
L 7744.781882 81.398373 
L 7748.366849 64.140231 
L 7751.951815 63.23582 
L 7755.536781 66.153475 
L 7759.121748 116.143857 
L 7762.706714 134.761713 
L 7766.29168 149.80219 
L 7769.876646 162.525888 
L 7773.461613 150.907925 
L 7777.046579 164.440018 
L 7780.631545 140.383308 
L 7784.216511 120.873431 
L 7787.801478 82.538179 
L 7791.386444 62.861047 
L 7794.97141 50.539998 
L 7798.556376 58.23988 
L 7802.141343 89.547363 
L 7805.726309 118.358425 
L 7809.311275 152.527811 
L 7812.896242 158.025515 
L 7816.481208 179.21103 
L 7820.066174 169.07977 
L 7823.65114 138.667405 
L 7827.236107 83.420909 
L 7830.821073 78.613903 
L 7834.406039 73.320621 
L 7837.991005 70.883048 
L 7841.575972 87.695179 
L 7845.160938 96.866277 
L 7848.745904 124.137982 
L 7852.330871 148.361946 
L 7855.915837 179.830489 
L 7859.500803 178.229186 
L 7863.085769 180.118538 
L 7866.670736 149.665909 
L 7870.255702 126.256534 
L 7873.840668 97.197688 
L 7877.425634 62.13628 
L 7881.010601 72.180816 
L 7884.595567 99.560926 
L 7888.180533 122.567652 
L 7891.7655 130.890091 
L 7895.350466 168.698802 
L 7898.935432 178.058835 
L 7902.520398 171.693889 
L 7906.105365 158.908244 
L 7909.690331 135.793113 
L 7913.275297 145.007573 
L 7916.860263 92.022104 
L 7920.44523 102.106905 
L 7924.030196 75.32767 
L 7927.615162 89.163298 
L 7931.200128 89.466833 
L 7934.785095 152.097287 
L 7938.370061 162.817034 
L 7941.955027 197.853664 
L 7945.539994 195.964312 
L 7949.12496 171.077526 
L 7952.709926 135.25728 
L 7956.294892 126.408301 
L 7959.879859 92.192455 
L 7963.464825 78.954606 
L 7967.049791 84.882833 
L 7970.634757 123.40702 
L 7974.219724 102.518845 
L 7977.80469 113.024879 
L 7981.389656 148.845125 
L 7984.974623 167.357672 
L 7988.559589 171.60097 
L 7992.144555 198.042599 
L 7995.729521 151.388006 
L 7999.314488 127.198112 
L 8002.899454 74.825908 
L 8006.48442 68.052118 
L 8010.069386 67.008329 
L 8013.654353 94.809672 
L 8017.239319 100.632591 
L 8020.824285 144.948724 
L 8024.409252 164.210818 
L 8027.994218 184.683955 
L 8031.579184 165.214342 
L 8035.16415 160.503353 
L 8038.749117 144.205373 
L 8042.334083 136.25461 
L 8045.919049 122.044209 
L 8049.504015 98.002985 
L 8053.088982 76.101994 
L 8056.673948 63.551745 
L 8060.258914 96.643272 
L 8063.843881 133.367929 
L 8067.428847 159.397617 
L 8071.013813 163.557288 
L 8074.598779 211.68 
L 8078.183746 153.46939 
L 8081.768712 152.50613 
L 8085.353678 112.603646 
L 8088.938644 97.439277 
L 8092.523611 78.294881 
L 8096.108577 83.594357 
L 8099.693543 97.278218 
L 8103.278509 99.84278 
L 8106.863476 116.750927 
L 8110.448442 158.233034 
L 8114.033408 170.504526 
L 8117.618375 190.931204 
L 8121.203341 187.895852 
L 8124.788307 156.458282 
L 8128.373273 134.715253 
L 8131.95824 97.513612 
L 8135.543206 67.813626 
L 8139.128172 71.902059 
L 8142.713138 78.034708 
L 8146.298105 107.477619 
L 8149.883071 131.689194 
L 8153.468037 145.645616 
L 8157.053004 152.434893 
L 8160.63797 189.317512 
L 8164.222936 182.5685 
L 8167.807902 159.663985 
L 8171.392869 121.907928 
L 8174.977835 99.66004 
L 8178.562801 80.162552 
L 8182.147767 65.456583 
L 8185.732734 87.614649 
L 8189.3177 76.383849 
L 8192.902666 90.417704 
L 8196.487633 172.762456 
L 8200.072599 166.648391 
L 8203.657565 188.856014 
L 8207.242531 164.474088 
L 8210.827498 153.46939 
L 8214.412464 124.054355 
L 8217.99743 104.8635 
L 8221.582396 95.203028 
L 8225.167363 98.764921 
L 8228.752329 100.158705 
L 8232.337295 103.519272 
L 8235.922261 122.920744 
L 8239.507228 129.682145 
L 8243.092194 152.388433 
L 8246.67716 184.702538 
L 8253.847093 170.984608 
L 8257.432059 137.220967 
L 8261.017025 106.42144 
L 8264.601992 71.517994 
L 8268.186958 84.412044 
L 8271.771924 88.426141 
L 8275.35689 112.194803 
L 8278.941857 122.79995 
L 8282.526823 137.902372 
L 8286.111789 159.753807 
L 8289.696756 170.566472 
L 8293.281722 158.911342 
L 8296.866688 152.729136 
L 8300.451654 123.165431 
L 8304.036621 106.288256 
L 8307.621587 75.287405 
L 8311.206553 70.969772 
L 8314.791519 73.258675 
L 8318.376486 81.314746 
L 8321.961452 100.041007 
L 8325.546418 128.387474 
L 8329.131385 164.148872 
L 8332.716351 175.057554 
L 8336.301317 151.725611 
L 8339.886283 136.468324 
L 8343.47125 97.968915 
L 8347.056216 82.795254 
L 8350.641182 48.780733 
L 8354.226148 71.152513 
L 8357.811115 62.647334 
L 8361.396081 79.406811 
L 8364.981047 88.258887 
L 8368.566013 117.05756 
L 8372.15098 131.302031 
L 8375.735946 166.679364 
L 8379.320912 165.843094 
L 8382.905879 142.148767 
L 8386.490845 120.749539 
L 8390.075811 84.715579 
L 8393.660777 61.21948 
L 8397.245744 56.716009 
L 8400.83071 65.078713 
L 8404.415676 87.611552 
L 8408.000642 95.515856 
L 8411.585609 126.35255 
L 8415.170575 173.840316 
L 8418.755541 176.726997 
L 8422.340508 150.111919 
L 8425.925474 158.957801 
L 8429.51044 120.774317 
L 8433.095406 87.83146 
L 8436.680373 81.116519 
L 8440.265339 86.415995 
L 8443.850305 72.289221 
L 8447.435271 79.56787 
L 8451.020238 115.536787 
L 8454.605204 150.111919 
L 8458.19017 160.93078 
L 8461.775137 176.194262 
L 8465.360103 166.927148 
L 8468.945069 153.630449 
L 8472.530035 125.649463 
L 8476.115002 101.121964 
L 8479.699968 74.129016 
L 8483.284934 64.666772 
L 8486.8699 47.774111 
L 8490.454867 44.184343 
L 8494.039833 92.15219 
L 8497.624799 97.547683 
L 8501.209765 158.846298 
L 8504.794732 151.626498 
L 8508.379698 156.442796 
L 8511.964664 137.605032 
L 8515.549631 121.319441 
L 8519.134597 87.543412 
L 8522.719563 75.742708 
L 8526.304529 59.68322 
L 8529.889496 50.131155 
L 8533.474462 72.109578 
L 8537.059428 85.056282 
L 8540.644394 126.454761 
L 8544.229361 143.585913 
L 8547.814327 158.353828 
L 8551.399293 159.273726 
L 8554.98426 132.596702 
L 8558.569226 137.626713 
L 8562.154192 118.534971 
L 8569.324125 63.000426 
L 8572.909091 47.606857 
L 8576.494057 79.180708 
L 8580.079023 97.863607 
L 8583.66399 93.750396 
L 8587.248956 133.374123 
L 8590.833922 123.47516 
L 8594.418889 142.117794 
L 8598.003855 118.640279 
L 8601.588821 106.093127 
L 8605.173787 86.530595 
L 8608.758754 62.631847 
L 8612.34372 73.515751 
L 8615.928686 65.153048 
L 8619.513652 78.620097 
L 8623.098619 90.66239 
L 8626.683585 106.458608 
L 8630.268551 131.512648 
L 8633.853518 147.630984 
L 8637.438484 157.229509 
L 8641.02345 139.989951 
L 8644.608416 103.039191 
L 8648.193383 96.469823 
L 8651.778349 84.548325 
L 8655.363315 71.521091 
L 8658.948281 56.081063 
L 8662.533248 81.773146 
L 8666.118214 73.825481 
L 8669.70318 85.790341 
L 8673.288146 135.37188 
L 8676.873113 152.394628 
L 8680.458079 157.437028 
L 8684.043045 145.757119 
L 8687.628012 119.300003 
L 8691.212978 116.348279 
L 8694.797944 53.606322 
L 8698.38291 53.092171 
L 8701.967877 59.952685 
L 8705.552843 57.149631 
L 8709.137809 75.13254 
L 8712.722775 79.248849 
L 8716.307742 97.807856 
L 8719.892708 121.963679 
L 8723.477674 129.530377 
L 8727.062641 124.983544 
L 8730.647607 109.546613 
L 8734.232573 88.53145 
L 8737.817539 49.880273 
L 8741.402506 50.137349 
L 8744.987472 39.727332 
L 8748.572438 48.684717 
L 8752.157404 71.5118 
L 8755.742371 89.999569 
L 8759.327337 120.006187 
L 8762.912303 123.549496 
L 8766.49727 132.996253 
L 8770.082236 134.560388 
L 8773.667202 97.736618 
L 8777.252168 95.909212 
L 8780.837135 54.343479 
L 8784.422101 52.255901 
L 8788.007067 53.076685 
L 8791.592033 56.545658 
L 8795.177 73.326816 
L 8798.761966 82.686849 
L 8802.346932 107.084262 
L 8805.931898 149.557503 
L 8809.516865 143.059373 
L 8813.101831 113.560711 
L 8816.686797 102.277256 
L 8820.271764 76.421016 
L 8823.85673 51.66122 
L 8827.441696 52.243511 
L 8831.026662 44.168857 
L 8834.611629 50.118765 
L 8838.196595 57.803161 
L 8841.781561 89.637185 
L 8845.366527 92.412363 
L 8848.951494 120.365474 
L 8852.53646 140.677551 
L 8856.121426 153.608768 
L 8859.706393 124.636647 
L 8863.291359 84.250984 
L 8866.876325 70.557832 
L 8870.461291 46.392716 
L 8874.046258 33.659726 
L 8877.631224 42.815338 
L 8881.21619 85.793439 
L 8884.801156 105.105089 
L 8888.386123 116.840749 
L 8891.971089 125.014517 
L 8895.556055 124.354793 
L 8899.141022 118.491609 
L 8902.725988 111.374019 
L 8906.310954 90.25045 
L 8909.89592 75.2936 
L 8913.480887 56.338139 
L 8917.065853 41.638365 
L 8920.650819 46.011749 
L 8924.235785 62.830075 
L 8927.820752 92.19865 
L 8931.405718 111.404992 
L 8934.990684 134.894897 
L 8938.57565 149.018573 
L 8942.160617 137.143535 
L 8945.745583 114.291673 
L 8949.330549 88.373487 
L 8952.915516 67.197264 
L 8956.500482 54.935063 
L 8960.085448 58.150058 
L 8963.670414 71.812237 
L 8967.255381 73.751146 
L 8970.840347 83.547898 
L 8974.425313 97.383526 
L 8978.010279 115.019538 
L 8981.595246 127.281739 
L 8985.180212 135.359491 
L 8988.765178 115.090776 
L 8992.350145 110.175365 
L 8995.935111 81.159881 
L 8999.520077 53.637295 
L 9003.105043 38.677348 
L 9006.69001 57.923955 
L 9010.274976 75.696249 
L 9013.859942 89.234536 
L 9017.444908 103.593608 
L 9021.029875 132.791831 
L 9024.614841 141.987708 
L 9028.199807 147.240725 
L 9031.784774 129.075074 
L 9035.36974 89.21905 
L 9038.954706 103.801126 
L 9042.539672 83.743028 
L 9046.124639 70.229518 
L 9049.709605 72.388335 
L 9053.294571 65.967637 
L 9056.879537 90.941147 
L 9060.464504 141.414708 
L 9064.04947 137.970513 
L 9067.634436 164.018785 
L 9071.219403 136.211248 
L 9074.804369 118.020819 
L 9078.389335 95.32692 
L 9081.974301 104.203775 
L 9085.559268 94.701266 
L 9089.144234 81.64306 
L 9092.7292 86.542985 
L 9096.314166 92.746872 
L 9099.899133 88.41685 
L 9103.484099 129.555156 
L 9107.069065 120.439809 
L 9114.238998 163.101985 
L 9117.823964 154.677336 
L 9121.40893 121.613685 
L 9124.993897 100.369321 
L 9128.578863 82.293492 
L 9132.163829 78.403287 
L 9135.748795 74.119724 
L 9139.333762 107.45284 
L 9142.918728 120.334501 
L 9146.503694 139.726681 
L 9150.08866 136.112134 
L 9153.673627 146.999135 
L 9157.258593 159.716639 
L 9160.843559 153.46939 
L 9164.428526 157.644547 
L 9168.013492 103.156889 
L 9171.598458 99.331726 
L 9175.183424 84.740357 
L 9178.768391 65.456583 
L 9182.353357 72.92107 
L 9185.938323 85.827509 
L 9189.523289 108.784678 
L 9193.108256 145.82526 
L 9196.693222 158.719309 
L 9200.278188 147.559746 
L 9203.863155 168.940391 
L 9207.448121 133.110853 
L 9211.033087 123.323393 
L 9214.618053 107.375408 
L 9218.20302 104.498018 
L 9221.787986 82.693044 
L 9225.372952 93.790661 
L 9228.957918 91.901309 
L 9232.542885 124.302139 
L 9236.127851 130.59275 
L 9239.712817 163.06172 
L 9243.297783 166.109461 
L 9246.88275 156.126871 
L 9250.467716 132.918821 
L 9254.052682 122.18049 
L 9257.637649 94.750823 
L 9261.222615 85.291676 
L 9264.807581 80.020076 
L 9268.392547 87.273947 
L 9271.977514 100.242332 
L 9275.56248 116.71376 
L 9279.147446 120.786706 
L 9282.732412 133.38961 
L 9286.317379 145.01067 
L 9289.902345 138.391745 
L 9293.487311 140.061189 
L 9297.072278 129.02242 
L 9300.657244 90.733628 
L 9304.24221 80.270957 
L 9307.827176 65.484459 
L 9311.412143 57.155825 
L 9314.997109 101.87151 
L 9318.582075 122.967204 
L 9322.167041 126.002555 
L 9325.752008 145.809773 
L 9329.336974 125.163188 
L 9332.92194 127.504745 
L 9336.506907 114.297868 
L 9340.091873 105.978527 
L 9343.676839 108.986003 
L 9347.261805 76.482962 
L 9350.846772 57.375734 
L 9354.431738 46.203781 
L 9358.016704 59.345615 
L 9361.60167 71.496313 
L 9365.186637 107.719208 
L 9368.771603 123.050831 
L 9372.356569 144.660676 
L 9375.941535 126.519804 
L 9379.526502 127.938366 
L 9383.111468 86.979703 
L 9386.696434 80.112995 
L 9390.281401 72.719746 
L 9393.866367 54.055431 
L 9397.451333 78.641778 
L 9401.036299 75.826335 
L 9404.621266 88.546936 
L 9408.206232 122.37562 
L 9411.791198 119.28142 
L 9415.376164 145.723049 
L 9418.961131 145.208897 
L 9422.546097 133.281205 
L 9426.131063 136.555048 
L 9429.71603 115.790765 
L 9433.300996 83.606746 
L 9436.885962 67.956102 
L 9440.470928 71.267113 
L 9444.055895 89.56285 
L 9447.640861 100.679051 
L 9451.225827 121.898636 
L 9454.810793 140.627994 
L 9458.39576 143.728389 
L 9461.980726 116.806679 
L 9465.565692 121.019004 
L 9469.150659 104.58784 
L 9472.735625 108.902376 
L 9476.320591 80.964752 
L 9479.905557 93.806147 
L 9483.490524 69.873329 
L 9487.07549 63.694221 
L 9490.660456 75.315281 
L 9494.245422 104.321472 
L 9497.830389 128.015799 
L 9501.415355 139.296156 
L 9505.000321 135.068345 
L 9508.585288 137.775383 
L 9512.170254 102.013986 
L 9515.75522 81.18466 
L 9519.340186 83.368255 
L 9522.925153 68.665383 
L 9526.510119 82.702336 
L 9530.095085 87.044747 
L 9533.680051 72.385237 
L 9537.265018 112.993906 
L 9540.849984 112.430197 
L 9544.43495 127.362269 
L 9548.019916 145.902692 
L 9551.604883 137.236453 
L 9555.189849 135.523648 
L 9558.774815 120.836263 
L 9562.359782 71.487021 
L 9565.944748 45.903343 
L 9569.529714 64.041118 
L 9576.699647 92.254401 
L 9580.284613 130.877702 
L 9583.869579 131.472383 
L 9587.454545 128.533047 
L 9587.454545 128.533047 
" clip-path="url(#pfa2c757e0a)" style="fill: none; stroke: #1f77b4; stroke-width: 1.5; stroke-linecap: square"/>
   </g>
  </g>
 </g>
 <defs>
  <clipPath id="pfa2c757e0a">
   <rect x="0" y="-0" width="10044" height="221.76"/>
  </clipPath>
 </defs>
</svg>
