<?xml version="1.0" encoding="utf-8" standalone="no"?>
<!DOCTYPE svg PUBLIC "-//W3C//DTD SVG 1.1//EN"
  "http://www.w3.org/Graphics/SVG/1.1/DTD/svg11.dtd">
<svg xmlns:xlink="http://www.w3.org/1999/xlink" width="10044pt" height="221.76pt" viewBox="0 0 10044 221.76" xmlns="http://www.w3.org/2000/svg" version="1.1">
 <metadata>
  <rdf:RDF xmlns:dc="http://purl.org/dc/elements/1.1/" xmlns:cc="http://creativecommons.org/ns#" xmlns:rdf="http://www.w3.org/1999/02/22-rdf-syntax-ns#">
   <cc:Work>
    <dc:type rdf:resource="http://purl.org/dc/dcmitype/StillImage"/>
    <dc:date>2025-08-12T08:23:40.357784</dc:date>
    <dc:format>image/svg+xml</dc:format>
    <dc:creator>
     <cc:Agent>
      <dc:title>Matplotlib v3.9.2, https://matplotlib.org/</dc:title>
     </cc:Agent>
    </dc:creator>
   </cc:Work>
  </rdf:RDF>
 </metadata>
 <defs>
  <style type="text/css">*{stroke-linejoin: round; stroke-linecap: butt}</style>
 </defs>
 <g id="figure_1">
  <g id="patch_1">
   <path d="M 0 221.76 
L 10044 221.76 
L 10044 0 
L 0 0 
z
" style="fill: #ffffff"/>
  </g>
  <g id="axes_1">
   <g id="line2d_1">
    <path d="M 456.545455 50.277456 
L 460.130421 52.059052 
L 463.715387 82.270773 
L 467.300353 89.63596 
L 470.88532 120.661496 
L 474.470286 166.84788 
L 478.055252 173.779451 
L 481.640218 160.02 
L 485.225185 140.111372 
L 488.810151 119.059002 
L 492.395117 97.070274 
L 495.980084 84.432569 
L 499.56505 69.136608 
L 503.150016 68.263092 
L 506.734982 84.316309 
L 510.319949 95.40808 
L 513.904915 139.159302 
L 517.489881 135.12793 
L 521.074847 164.334165 
L 524.659814 166.225736 
L 528.24478 167.092968 
L 535.414712 94.531421 
L 538.999679 73.083142 
L 542.584645 43.14793 
L 546.169611 68.12798 
L 549.754578 86.905436 
L 553.339544 110.405536 
L 556.92451 147.580249 
L 560.509476 168.962544 
L 564.094443 180.381097 
L 567.679409 161.393117 
L 571.264375 159.825187 
L 574.849341 145.509576 
L 578.434308 106.939751 
L 582.019274 75.845087 
L 585.60424 65.114663 
L 589.189207 48.923192 
L 592.774173 76.080748 
L 596.359139 96.460698 
L 599.944105 146.059451 
L 603.529072 169.697805 
L 607.114038 177.226384 
L 610.699004 161.402544 
L 614.28397 174.184788 
L 617.868937 127.982693 
L 621.453903 102.129127 
L 625.038869 92.319352 
L 628.623836 56.715711 
L 632.208802 75.270075 
L 635.793768 82.610125 
L 639.378734 101.114214 
L 642.963701 132.428828 
L 646.548667 146.5999 
L 650.133633 154.791471 
L 653.718599 170.272818 
L 657.303566 166.879302 
L 660.888532 155.702693 
L 664.473498 104.020698 
L 668.058465 64.285137 
L 671.643431 45.557955 
L 675.228397 62.773766 
L 678.813363 71.420948 
L 682.39833 87.835511 
L 685.983296 138.508878 
L 689.568262 143.570873 
L 693.153228 159.903741 
L 696.738195 164.230474 
L 700.323161 155.196808 
L 703.908127 142.097207 
L 707.493093 123.879052 
L 711.07806 78.792419 
L 714.663026 68.065137 
L 718.247992 47.807731 
L 721.832959 56.278953 
L 725.417925 82.273915 
L 729.002891 121.965486 
L 732.587857 154.694065 
L 736.172824 179.18394 
L 739.75779 179.363042 
L 743.342756 155.872369 
L 746.927722 148.013865 
L 750.512689 115.586933 
L 754.097655 90.569177 
L 757.682621 71.373815 
L 761.267588 67.999152 
L 764.852554 57.922294 
L 768.43752 92.542444 
L 772.022486 113.462843 
L 775.607453 140.127082 
L 779.192419 186.212918 
L 782.777385 189.51217 
L 786.362351 180.497357 
L 789.947318 143.181247 
L 793.532284 115.492668 
L 800.702217 55.430574 
L 804.287183 62.157905 
L 807.872149 93.067182 
L 811.457115 98.490524 
L 815.042082 133.82394 
L 818.627048 155.837805 
L 822.212014 171.576808 
L 825.79698 173.462095 
L 829.381947 178.536658 
L 832.966913 157.349177 
L 836.551879 118.949027 
L 840.136845 100.586334 
L 843.721812 75.251222 
L 847.306778 52.45182 
L 850.891744 67.901746 
L 858.061677 128.65197 
L 861.646643 151.850424 
L 865.231609 177.210673 
L 868.816576 184.208229 
L 872.401542 172.764539 
L 875.986508 160.164539 
L 879.571474 116.724389 
L 883.156441 111.634115 
L 886.741407 90.867681 
L 890.326373 78.949526 
L 893.91134 73.215112 
L 897.496306 86.98399 
L 901.081272 108.517107 
L 904.666238 155.476459 
L 908.251205 177.892519 
L 911.836171 193.009377 
L 915.421137 201.760249 
L 919.006103 157.295761 
L 922.59107 131.966933 
L 926.176036 85.566883 
L 929.761002 70.223791 
L 933.345969 60.109227 
L 936.930935 74.311721 
L 940.515901 94.58798 
L 944.100867 119.960798 
L 947.685834 143.982494 
L 951.2708 148.934514 
L 954.855766 182.536608 
L 958.440732 184.271072 
L 962.025699 156.661047 
L 965.610665 131.153117 
L 969.195631 100.372668 
L 972.780597 61.020449 
L 976.365564 62.732918 
L 979.95053 52.370125 
L 983.535496 59.062893 
L 987.120463 104.58 
L 990.705429 156.604489 
L 994.290395 161.393117 
L 997.875361 180.054314 
L 1001.460328 168.629476 
L 1005.045294 155.451322 
L 1008.63026 121.453317 
L 1012.215226 91.112768 
L 1015.800193 76.058753 
L 1019.385159 45.630224 
L 1022.970125 55.817057 
L 1026.555092 66.682594 
L 1030.140058 97.582444 
L 1033.725024 142.533965 
L 1037.30999 168.610623 
L 1040.894957 197.266983 
L 1044.479923 196.827082 
L 1048.064889 174.385885 
L 1051.649855 136.887531 
L 1055.234822 88.765586 
L 1058.819788 74.459401 
L 1062.404754 58.886933 
L 1065.989721 78.270823 
L 1069.574687 87.873217 
L 1073.159653 104.733965 
L 1076.744619 141.522195 
L 1080.329586 150.11596 
L 1083.914552 157.933616 
L 1087.499518 175.108579 
L 1091.084484 151.746733 
L 1094.669451 122.169726 
L 1098.254417 103.93586 
L 1101.839383 56.662294 
L 1105.42435 40.436259 
L 1109.009316 48.992319 
L 1112.594282 52.398404 
L 1116.179248 93.821297 
L 1119.764215 140.730374 
L 1123.349181 157.082095 
L 1126.934147 154.505536 
L 1130.519113 168.673466 
L 1134.10408 141.098005 
L 1137.689046 134.684888 
L 1141.274012 97.579302 
L 1144.858978 63.48389 
L 1148.443945 57.865736 
L 1152.028911 54.827282 
L 1155.613877 60.564838 
L 1159.198844 96.391571 
L 1162.78381 124.130424 
L 1169.953742 195.479102 
L 1173.538709 198.322743 
L 1180.708641 120.240449 
L 1184.293607 83.898404 
L 1187.878574 50.767631 
L 1191.46354 48.910623 
L 1195.048506 71.163292 
L 1198.633473 78.292818 
L 1202.218439 88.394813 
L 1205.803405 113.13606 
L 1209.388371 141.490773 
L 1212.973338 146.973815 
L 1216.558304 160.959501 
L 1220.14327 150.502444 
L 1223.728236 137.308579 
L 1227.313203 85.262095 
L 1230.898169 55.898753 
L 1234.483135 48.618404 
L 1238.068102 35.713616 
L 1241.653068 54.79586 
L 1245.238034 95.49606 
L 1252.407967 174.23192 
L 1255.992933 181.57197 
L 1259.577899 174.024539 
L 1263.162865 141.770424 
L 1266.747832 128.353466 
L 1270.332798 99.602843 
L 1273.917764 73.145985 
L 1277.50273 72.429576 
L 1281.087697 52.649776 
L 1284.672663 52.951421 
L 1288.257629 88.77187 
L 1291.842596 116.969476 
L 1295.427562 152.683092 
L 1299.012528 193.125636 
L 1302.597494 195.702195 
L 1306.182461 163.84399 
L 1309.767427 141.085436 
L 1313.352393 84.611671 
L 1316.937359 74.814464 
L 1320.522326 56.030723 
L 1324.107292 52.734613 
L 1327.692258 88.344539 
L 1331.277225 93.183441 
L 1334.862191 116.127382 
L 1338.447157 137.270873 
L 1342.032123 165.521895 
L 1345.61709 171.831322 
L 1349.202056 179.894065 
L 1352.787022 158.216409 
L 1356.371988 95.467781 
L 1359.956955 60.954464 
L 1363.541921 29.627282 
L 1367.126887 41.897357 
L 1370.711854 45.334863 
L 1374.29682 78.456209 
L 1377.881786 136.117706 
L 1381.466752 158.499202 
L 1385.051719 167.840798 
L 1388.636685 174.483292 
L 1392.221651 161.867581 
L 1395.806617 125.029077 
L 1399.391584 109.566584 
L 1402.97655 84.655661 
L 1410.146482 54.010324 
L 1413.731449 64.985835 
L 1417.316415 88.306833 
L 1420.901381 113.114065 
L 1424.486348 182.30409 
L 1428.071314 185.081746 
L 1431.65628 182.970224 
L 1435.241246 172.858803 
L 1438.826213 149.647781 
L 1442.411179 99.458304 
L 1445.996145 63.99606 
L 1449.581111 65.82793 
L 1453.166078 55.8799 
L 1456.751044 64.099751 
L 1467.505943 136.221397 
L 1471.090909 167.953915 
L 1474.675875 164.133067 
L 1481.845808 145.610125 
L 1485.430774 107.609027 
L 1489.01574 59.317406 
L 1492.600707 47.314414 
L 1496.185673 23.990274 
L 1499.770639 57.589227 
L 1503.355606 69.193167 
L 1506.940572 111.53985 
L 1510.525538 131.297656 
L 1514.110504 149.742045 
L 1517.695471 163.02389 
L 1521.280437 132.633067 
L 1524.865403 134.493217 
L 1528.450369 100.444938 
L 1532.035336 80.627431 
L 1535.620302 36.489726 
L 1539.205268 42.453516 
L 1546.375201 63.662993 
L 1549.960167 101.041945 
L 1553.545133 120.177606 
L 1557.1301 175.290823 
L 1560.715066 169.48414 
L 1564.300032 166.298005 
L 1567.884998 130.61581 
L 1571.469965 99.169227 
L 1575.054931 56.599451 
L 1578.639897 55.681945 
L 1582.224863 65.120948 
L 1585.80983 52.945137 
L 1589.394796 72.702943 
L 1592.979762 88.391671 
L 1596.564729 115.033915 
L 1600.149695 139.34783 
L 1603.734661 156.199152 
L 1607.319627 167.27207 
L 1610.904594 145.94005 
L 1614.48956 97.726983 
L 1618.074526 69.570224 
L 1621.659492 46.588579 
L 1625.244459 33.093067 
L 1632.414391 74.072918 
L 1635.999358 110.433815 
L 1639.584324 140.004539 
L 1643.16929 146.618753 
L 1646.754256 158.577756 
L 1650.339223 156.15202 
L 1653.924189 135.190773 
L 1657.509155 129.336958 
L 1661.094121 109.252369 
L 1664.679088 61.441496 
L 1668.264054 59.427382 
L 1671.84902 41.834514 
L 1675.433987 64.300848 
L 1679.018953 116.661546 
L 1682.603919 136.601596 
L 1686.188885 157.559701 
L 1689.773852 185.779302 
L 1693.358818 151.693317 
L 1696.943784 140.039102 
L 1700.52875 92.734115 
L 1704.113717 78.355661 
L 1707.698683 52.373267 
L 1711.283649 61.922244 
L 1714.868615 52.049626 
L 1718.453582 68.153117 
L 1722.038548 89.463142 
L 1725.623514 128.633117 
L 1729.208481 134.86399 
L 1732.793447 154.703491 
L 1736.378413 154.565237 
L 1739.963379 141.409077 
L 1747.133312 80.979352 
L 1750.718278 51.399202 
L 1754.303244 49.749576 
L 1757.888211 39.276808 
L 1761.473177 62.157905 
L 1765.058143 92.664988 
L 1768.64311 111.395312 
L 1775.813042 152.786783 
L 1779.398008 134.213566 
L 1782.982975 138.298354 
L 1786.567941 109.902793 
L 1790.152907 88.80015 
L 1793.737873 61.504339 
L 1797.32284 45.900449 
L 1800.907806 27.069576 
L 1804.492772 46.261796 
L 1808.077739 79.197756 
L 1815.247671 140.2402 
L 1818.832637 163.042743 
L 1826.00257 131.50818 
L 1829.587536 99.109526 
L 1833.172502 79.948728 
L 1836.757469 68.866384 
L 1840.342435 56.008728 
L 1843.927401 49.909825 
L 1847.512367 50.82419 
L 1854.6823 100.137007 
L 1858.267266 133.836509 
L 1861.852233 147.06808 
L 1865.437199 161.942993 
L 1869.022165 140.130224 
L 1872.607131 119.379501 
L 1876.192098 78.214264 
L 1879.777064 55.490274 
L 1883.36203 18.790025 
L 1886.946996 31.239202 
L 1890.531963 75.860798 
L 1894.116929 94.826783 
L 1897.701895 110.57207 
L 1901.286862 147.140349 
L 1904.871828 140.265337 
L 1912.04176 164.818055 
L 1915.626727 136.142843 
L 1919.211693 88.281696 
L 1922.796659 75.534015 
L 1926.381625 49.325387 
L 1929.966592 41.457456 
L 1933.551558 58.289925 
L 1937.136524 77.315611 
L 1940.721491 111.103092 
L 1944.306457 147.94788 
L 1947.891423 158.690873 
L 1951.476389 168.308978 
L 1955.061356 146.430224 
L 1958.646322 128.457157 
L 1962.231288 96.991721 
L 1965.816254 75.593716 
L 1969.401221 67.807481 
L 1972.986187 69.950424 
L 1980.156119 52.725187 
L 1983.741086 104.297207 
L 1987.326052 116.322195 
L 1990.911018 168.045037 
L 1994.495985 160.940648 
L 1998.080951 138.2198 
L 2001.665917 141.38394 
L 2005.250883 96.586384 
L 2008.83585 69.259152 
L 2012.420816 60.024389 
L 2016.005782 57.306434 
L 2019.590748 63.157107 
L 2023.175715 91.797756 
L 2030.345647 131.734414 
L 2033.930614 138.018703 
L 2037.51558 170.555611 
L 2041.100546 155.11197 
L 2044.685512 154.156758 
L 2048.270479 129.478354 
L 2055.440411 70.745387 
L 2059.025377 73.626733 
L 2062.610344 76.093317 
L 2066.19531 80.187531 
L 2073.365243 132.485387 
L 2076.950209 178.668628 
L 2080.535175 179.91606 
L 2084.120141 152.890474 
L 2087.705108 120.743192 
L 2091.290074 117.97182 
L 2094.87504 93.6202 
L 2098.460006 80.705985 
L 2102.044973 73.076858 
L 2105.629939 72.636958 
L 2109.214905 55.13207 
L 2112.799872 92.966633 
L 2116.384838 128.529426 
L 2119.969804 147.15606 
L 2123.55477 172.327781 
L 2127.139737 172.387481 
L 2130.724703 146.779002 
L 2134.309669 108.708778 
L 2137.894635 90.490623 
L 2141.479602 64.709327 
L 2145.064568 74.610224 
L 2148.649534 78.311671 
L 2152.2345 90.657157 
L 2155.819467 115.288429 
L 2159.404433 128.692818 
L 2162.989399 153.936808 
L 2166.574366 149.28015 
L 2170.159332 160.06399 
L 2173.744298 156.661047 
L 2177.329264 128.322045 
L 2180.914231 111.411022 
L 2184.499197 72.379302 
L 2188.084163 63.86409 
L 2191.669129 66.129576 
L 2195.254096 76.646334 
L 2198.839062 122.157157 
L 2202.424028 123.115511 
L 2206.008995 173.122743 
L 2209.593961 172.613716 
L 2213.178927 155.906933 
L 2216.763893 140.457007 
L 2220.34886 119.599451 
L 2223.933826 107.508479 
L 2227.518792 76.43581 
L 2231.103758 81.189875 
L 2234.688725 82.135661 
L 2238.273691 81.758603 
L 2241.858657 97.758404 
L 2245.443624 123.417157 
L 2249.02859 164.868329 
L 2252.613556 190.030623 
L 2256.198522 178.725187 
L 2259.783489 159.680648 
L 2263.368455 124.941097 
L 2266.953421 100.190424 
L 2270.538387 79.317157 
L 2274.123354 74.842743 
L 2277.70832 95.194414 
L 2281.293286 75.540299 
L 2284.878252 120.202743 
L 2288.463219 126.684988 
L 2292.048185 153.223541 
L 2295.633151 167.083541 
L 2299.218118 182.734564 
L 2302.803084 162.866783 
L 2306.38805 154.668928 
L 2309.973016 135.33217 
L 2313.557983 101.205337 
L 2317.142949 92.350773 
L 2320.727915 67.791771 
L 2324.312881 102.886384 
L 2327.897848 120.538953 
L 2331.482814 151.372818 
L 2335.06778 172.431471 
L 2338.652747 171.290873 
L 2342.237713 179.457307 
L 2345.822679 161.063192 
L 2349.407645 156.375112 
L 2352.992612 125.996858 
L 2356.577578 101.686085 
L 2360.162544 80.146683 
L 2363.74751 69.086334 
L 2367.332477 84.394863 
L 2370.917443 81.117606 
L 2374.502409 123.693666 
L 2378.087376 143.834813 
L 2381.672342 174.674963 
L 2385.257308 181.776209 
L 2388.842274 168.865137 
L 2392.427241 155.077406 
L 2396.012207 124.457207 
L 2403.182139 78.390224 
L 2406.767106 75.838803 
L 2410.352072 86.481247 
L 2413.937038 115.822594 
L 2417.522004 129.918254 
L 2421.106971 149.079052 
L 2424.691937 158.45207 
L 2428.276903 172.965636 
L 2431.86187 155.001995 
L 2435.446836 156.525935 
L 2439.031802 127.077756 
L 2442.616768 95.090723 
L 2446.201735 87.401895 
L 2449.786701 54.5602 
L 2453.371667 85.133267 
L 2456.956633 94.415162 
L 2460.5416 127.225436 
L 2464.126566 161.276858 
L 2467.711532 162.411172 
L 2471.296499 171.718204 
L 2474.881465 170.420499 
L 2478.466431 145.682394 
L 2482.051397 124.180698 
L 2485.636364 98.669626 
L 2489.22133 77.391022 
L 2492.806296 80.658853 
L 2496.391262 84.617955 
L 2499.976229 78.066584 
L 2503.561195 116.868928 
L 2507.146161 151.938404 
L 2510.731128 165.427631 
L 2514.316094 171.661646 
L 2517.90106 175.171421 
L 2521.486026 138.578005 
L 2525.070993 112.774713 
L 2528.655959 93.126883 
L 2532.240925 86.189027 
L 2535.825891 66.095012 
L 2539.410858 73.120848 
L 2542.995824 89.601397 
L 2546.58079 119.326085 
L 2550.165757 123.602544 
L 2553.750723 146.593616 
L 2557.335689 166.329426 
L 2560.920655 177.019002 
L 2564.505622 157.738803 
L 2568.090588 122.342544 
L 2571.675554 105.258703 
L 2575.26052 90.446633 
L 2578.845487 60.021247 
L 2582.430453 62.86803 
L 2586.015419 80.671421 
L 2589.600385 114.320648 
L 2593.185352 144.834015 
L 2596.770318 172.742544 
L 2603.940251 173.427531 
L 2607.525217 152.551122 
L 2611.110183 135.869476 
L 2614.695149 110.685187 
L 2618.280116 86.42783 
L 2621.865082 88.520499 
L 2625.450048 61.906534 
L 2629.035014 87.238504 
L 2632.619981 105.334115 
L 2636.204947 137.798753 
L 2639.789913 150.907781 
L 2643.37488 179.331621 
L 2646.959846 173.037905 
L 2650.544812 150.442743 
L 2654.129778 124.925387 
L 2657.714745 106.729227 
L 2661.299711 77.60783 
L 2664.884677 59.48394 
L 2668.469643 61.689726 
L 2672.05461 58.66384 
L 2675.639576 93.705037 
L 2679.224542 123.231771 
L 2682.809509 146.637606 
L 2686.394475 150.417606 
L 2689.979441 160.968928 
L 2693.564407 155.309925 
L 2697.149374 133.399751 
L 2700.73434 102.613017 
L 2704.319306 80.017855 
L 2707.904272 47.839152 
L 2711.489239 67.515262 
L 2715.074205 73.699002 
L 2718.659171 98.855012 
L 2722.244137 109.010424 
L 2725.829104 143.847382 
L 2729.41407 149.267581 
L 2732.999036 159.561247 
L 2736.584003 151.608479 
L 2740.168969 122.106883 
L 2743.753935 103.901297 
L 2747.338901 87.794663 
L 2750.923868 66.421796 
L 2754.508834 48.546135 
L 2758.0938 67.251322 
L 2761.678766 68.17197 
L 2765.263733 102.61616 
L 2768.848699 143.052419 
L 2772.433665 152.912469 
L 2776.018632 155.570723 
L 2779.603598 145.151372 
L 2783.188564 121.220798 
L 2786.77353 87.197656 
L 2790.358497 66.767431 
L 2793.943463 62.09192 
L 2797.528429 48.945187 
L 2801.113395 73.874963 
L 2804.698362 78.76414 
L 2808.283328 109.535162 
L 2811.868294 124.055012 
L 2815.453261 139.621197 
L 2819.038227 171.407132 
L 2822.623193 142.628229 
L 2826.208159 119.404638 
L 2829.793126 92.407332 
L 2833.378092 70.050973 
L 2836.963058 41.906783 
L 2840.548024 55.286035 
L 2844.132991 63.185387 
L 2847.717957 85.387781 
L 2851.302923 93.931272 
L 2854.887889 138.709975 
L 2858.472856 146.791571 
L 2862.057822 154.455262 
L 2865.642788 137.679352 
L 2869.227755 131.068279 
L 2872.812721 114.496608 
L 2876.397687 62.5601 
L 2879.982653 61.604888 
L 2883.56762 48.121945 
L 2887.152586 40.797606 
L 2890.737552 53.909776 
L 2894.322518 92.24394 
L 2897.907485 121.69212 
L 2901.492451 133.745387 
L 2905.077417 165.311372 
L 2908.662384 143.454613 
L 2912.24735 114.317506 
L 2915.832316 101.70808 
L 2919.417282 80.988778 
L 2923.002249 43.710374 
L 2926.587215 64.027481 
L 2930.172181 55.232618 
L 2933.757147 67.933167 
L 2937.342114 94.855062 
L 2940.92708 109.189526 
L 2944.512046 154.210175 
L 2948.097013 165.399352 
L 2951.681979 146.713017 
L 2955.266945 136.975511 
L 2958.851911 103.960998 
L 2962.436878 90.478055 
L 2966.021844 61.017307 
L 2969.60681 51.810823 
L 2973.191776 58.04798 
L 2976.776743 81.639202 
L 2980.361709 96.925736 
L 2983.946675 128.956758 
L 2987.531642 153.836259 
L 2991.116608 166.213167 
L 2994.701574 145.880349 
L 2998.28654 137.660499 
L 3001.871507 102.358504 
L 3005.456473 80.061845 
L 3009.041439 58.95606 
L 3012.626405 60.316608 
L 3016.211372 41.721397 
L 3019.796338 63.565586 
L 3023.381304 93.50394 
L 3026.96627 130.100499 
L 3030.551237 147.357157 
L 3034.136203 167.495162 
L 3037.721169 152.573117 
L 3041.306136 133.578853 
L 3044.891102 109.748828 
L 3048.476068 86.971421 
L 3052.061034 62.569526 
L 3059.230967 44.9201 
L 3062.815933 58.233367 
L 3066.400899 81.658055 
L 3069.985866 111.45187 
L 3073.570832 137.025786 
L 3077.155798 174.52414 
L 3080.740765 184.31192 
L 3084.325731 146.992668 
L 3087.910697 111.888628 
L 3091.495663 82.980898 
L 3095.08063 62.230175 
L 3098.665596 58.167382 
L 3102.250562 35.000349 
L 3105.835528 77.730374 
L 3109.420495 80.963641 
L 3113.005461 112.086584 
L 3116.590427 134.430374 
L 3123.76036 158.621746 
L 3127.345326 132.230873 
L 3130.930292 133.154663 
L 3138.100225 60.417157 
L 3141.685191 47.361546 
L 3145.270157 25.819002 
L 3148.855124 43.386733 
L 3156.025056 109.880798 
L 3159.610022 123.586833 
L 3163.194989 164.393865 
L 3166.779955 157.012968 
L 3170.364921 139.061895 
L 3173.949888 122.663042 
L 3177.534854 95.791421 
L 3181.11982 67.35187 
L 3184.704786 35.41197 
L 3188.289753 41.708828 
L 3191.874719 34.478753 
L 3195.459685 62.905736 
L 3199.044651 103.480249 
L 3202.629618 141.487631 
L 3206.214584 170.096858 
L 3209.79955 164.205337 
L 3216.969483 117.010324 
L 3220.554449 99.395461 
L 3224.139415 53.268778 
L 3227.724382 37.649177 
L 3231.309348 31.072668 
L 3234.894314 55.851621 
L 3238.47928 74.594514 
L 3242.064247 91.345287 
L 3245.649213 134.182145 
L 3249.234179 139.394963 
L 3252.819146 136.466484 
L 3256.404112 142.722494 
L 3259.989078 131.307082 
L 3263.574044 72.30389 
L 3267.159011 48.92005 
L 3270.743977 15.842693 
L 3274.328943 10.08 
L 3277.913909 28.329576 
L 3281.498876 57.498105 
L 3285.083842 103.197456 
L 3288.668808 112.375661 
L 3292.253774 126.873516 
L 3295.838741 152.029526 
L 3299.423707 130.213616 
L 3303.008673 110.782594 
L 3306.59364 94.408878 
L 3310.178606 55.766783 
L 3313.763572 28.964289 
L 3317.348538 19.402743 
L 3320.933505 37.633466 
L 3324.518471 48.021397 
L 3328.103437 71.760299 
L 3331.688403 119.693716 
L 3335.27337 152.299751 
L 3338.858336 154.907731 
L 3342.443302 138.584289 
L 3346.028269 110.719751 
L 3349.613235 81.551222 
L 3353.198201 73.296808 
L 3356.783167 44.587032 
L 3360.368134 35.515661 
L 3363.9531 51.795112 
L 3367.538066 62.761197 
L 3371.123032 84.93217 
L 3374.707999 109.654564 
L 3378.292965 152.447431 
L 3381.877931 161.273716 
L 3385.462898 159.840898 
L 3389.047864 141.189127 
L 3392.63283 104.897357 
L 3396.217796 66.358953 
L 3399.802763 38.129925 
L 3403.387729 25.62419 
L 3406.972695 25.253416 
L 3410.557661 86.1199 
L 3414.142628 106.437007 
L 3417.727594 139.72803 
L 3421.31256 158.458354 
L 3424.897527 165.754414 
L 3428.482493 170.065436 
L 3432.067459 131.753267 
L 3435.652425 124.435212 
L 3439.237392 89.711372 
L 3442.822358 80.328928 
L 3446.407324 47.226434 
L 3449.99229 52.65606 
L 3453.577257 72.737506 
L 3457.162223 98.320848 
L 3460.747189 147.872469 
L 3464.332155 169.688379 
L 3467.917122 180.996958 
L 3471.502088 178.253865 
L 3475.087054 153.110424 
L 3482.256987 77.020249 
L 3485.841953 66.849127 
L 3489.426919 45.570524 
L 3493.011886 52.401546 
L 3496.596852 66.431222 
L 3500.181818 115.671771 
L 3503.766784 122.207431 
L 3507.351751 151.438803 
L 3510.936717 161.694763 
L 3514.521683 174.514713 
L 3518.10665 159.37586 
L 3521.691616 127.520798 
L 3525.276582 86.214165 
L 3528.861548 47.028479 
L 3532.446515 24.684688 
L 3536.031481 50.698504 
L 3539.616447 88.790723 
L 3543.201413 124.249825 
L 3546.78638 153.19212 
L 3550.371346 159.652369 
L 3553.956312 163.963392 
L 3557.541279 168.070175 
L 3561.126245 164.016808 
L 3564.711211 122.518504 
L 3568.296177 99.986185 
L 3571.881144 69.645636 
L 3575.46611 54.924688 
L 3579.051076 59.135162 
L 3582.636042 70.871072 
L 3589.805975 144.852868 
L 3593.390941 166.404838 
L 3596.975907 181.166633 
L 3600.560874 182.027581 
L 3604.14584 164.164489 
L 3607.730806 125.468978 
L 3611.315773 106.176209 
L 3614.900739 59.6599 
L 3618.485705 61.988229 
L 3622.070671 59.006334 
L 3625.655638 86.782893 
L 3629.240604 108.064638 
L 3632.82557 130.99601 
L 3636.410536 163.297257 
L 3639.995503 184.767531 
L 3643.580469 191.9599 
L 3647.165435 173.477805 
L 3650.750402 138.235511 
L 3654.335368 96.790623 
L 3657.920334 51.939651 
L 3661.5053 74.003791 
L 3665.090267 60.426584 
L 3668.675233 87.58414 
L 3672.260199 131.08399 
L 3675.845165 141.597606 
L 3679.430132 172.968778 
L 3683.015098 171.825037 
L 3686.600064 185.383392 
L 3690.185031 164.447282 
L 3693.769997 153.550324 
L 3697.354963 126.930075 
L 3700.939929 95.646883 
L 3704.524896 61.721147 
L 3708.109862 71.675461 
L 3711.694828 80.674564 
L 3715.279794 114.062993 
L 3718.864761 134.056459 
L 3722.449727 178.153317 
L 3726.034693 211.68 
L 3729.619659 178.279002 
L 3733.204626 174.165935 
L 3736.789592 128.699102 
L 3740.374558 103.313716 
L 3743.959525 79.8199 
L 3747.544491 62.107631 
L 3751.129457 61.011022 
L 3754.714423 72.489277 
L 3758.29939 89.645387 
L 3761.884356 130.442993 
L 3765.469322 150.650125 
L 3769.054288 177.040998 
L 3772.639255 186.445436 
L 3776.224221 171.724489 
L 3779.809187 155.529875 
L 3783.394154 99.430025 
L 3790.564086 34.686135 
L 3794.149052 57.253017 
L 3797.734019 69.03606 
L 3801.318985 105.324688 
L 3804.903951 117.965536 
L 3808.488917 143.159252 
L 3812.073884 171.834464 
L 3815.65885 167.363192 
L 3819.243816 164.698653 
L 3822.828783 150.93606 
L 3826.413749 118.99616 
L 3829.998715 58.729825 
L 3833.583681 42.456658 
L 3837.168648 44.367082 
L 3840.753614 62.057357 
L 3844.33858 90.889676 
L 3847.923546 126.980349 
L 3851.508513 164.962594 
L 3855.093479 184.38419 
L 3858.678445 191.328329 
L 3862.263412 175.956958 
L 3865.848378 126.452469 
L 3869.433344 99.995611 
L 3873.01831 79.332868 
L 3876.603277 72.385586 
L 3880.188243 59.70389 
L 3883.773209 63.015711 
L 3887.358175 83.609327 
L 3890.943142 105.799152 
L 3894.528108 137.60394 
L 3898.113074 153.63202 
L 3901.69804 185.826434 
L 3905.283007 164.120499 
L 3908.867973 140.101945 
L 3912.452939 92.768678 
L 3916.037906 65.237207 
L 3919.622872 49.693017 
L 3923.207838 49.49192 
L 3926.792804 72.37616 
L 3930.377771 77.774364 
L 3933.962737 111.323042 
L 3937.547703 138.254364 
L 3941.132669 148.799401 
L 3944.717636 168.202145 
L 3948.302602 166.225736 
L 3951.887568 155.306783 
L 3955.472535 117.53192 
L 3959.057501 88.614763 
L 3962.642467 77.746085 
L 3966.227433 51.980499 
L 3969.8124 73.554464 
L 3973.397366 97.381347 
L 3976.982332 123.486284 
L 3980.567298 139.998254 
L 3984.152265 172.48803 
L 3987.737231 183.674065 
L 3991.322197 160.481895 
L 3994.907164 150.45217 
L 3998.49213 112.586185 
L 4002.077096 82.066534 
L 4005.662062 64.765885 
L 4009.247029 73.614165 
L 4012.831995 64.966983 
L 4016.416961 76.457805 
L 4020.001927 114.311222 
L 4023.586894 142.763342 
L 4027.17186 161.000349 
L 4030.756826 192.129576 
L 4034.341792 175.048878 
L 4037.926759 164.978304 
L 4041.511725 124.890823 
L 4045.096691 73.796409 
L 4048.681658 52.150175 
L 4052.266624 51.79197 
L 4055.85159 69.014065 
L 4059.436556 98.258005 
L 4063.021523 125.855461 
L 4066.606489 163.001895 
L 4070.191455 160.346783 
L 4073.776421 192.676309 
L 4077.361388 165.594165 
L 4080.946354 156.249426 
L 4084.53132 137.299152 
L 4088.116287 92.228229 
L 4091.701253 56.552319 
L 4095.286219 60.94818 
L 4098.871185 82.478155 
L 4102.456152 88.627332 
L 4106.041118 114.26409 
L 4109.626084 167.583142 
L 4113.21105 186.137506 
L 4116.796017 188.880599 
L 4120.380983 170.103142 
L 4123.965949 153.98394 
L 4127.550916 139.310125 
L 4131.135882 112.457357 
L 4134.720848 81.815162 
L 4138.305814 55.402294 
L 4141.890781 83.367382 
L 4145.475747 86.440399 
L 4149.060713 112.341097 
L 4152.645679 148.789975 
L 4156.230646 179.161945 
L 4159.815612 188.962294 
L 4163.400578 192.984239 
L 4166.985544 178.549227 
L 4170.570511 134.04389 
L 4174.155477 86.921147 
L 4177.740443 75.138105 
L 4181.32541 60.17207 
L 4184.910376 81.318703 
L 4188.495342 99.326334 
L 4192.080308 106.710374 
L 4195.665275 146.926683 
L 4199.250241 148.334364 
L 4202.835207 179.017406 
L 4206.420173 187.658304 
L 4210.00514 180.761297 
L 4213.590106 137.016359 
L 4217.175072 107.916958 
L 4220.760039 72.363591 
L 4224.345005 66.327531 
L 4227.929971 66.654314 
L 4231.514937 76.401247 
L 4235.099904 125.063641 
L 4238.68487 138.90793 
L 4242.269836 182.514613 
L 4245.854802 176.220898 
L 4249.439769 183.422693 
L 4253.024735 156.042045 
L 4256.609701 117.098304 
L 4260.194668 105.547781 
L 4263.779634 76.325835 
L 4267.3646 73.843541 
L 4270.949566 63.754115 
L 4274.534533 64.715611 
L 4281.704465 117.31197 
L 4288.874398 182.765985 
L 4292.459364 167.564289 
L 4296.04433 137.365137 
L 4299.629296 120.834314 
L 4303.214263 94.723092 
L 4306.799229 55.656808 
L 4310.384195 49.576758 
L 4313.969162 68.64015 
L 4317.554128 81.796309 
L 4321.139094 100.363242 
L 4324.72406 116.894065 
L 4328.309027 140.815212 
L 4331.893993 169.226484 
L 4335.478959 177.19182 
L 4339.063925 146.681596 
L 4342.648892 147.929027 
L 4346.233858 100.3601 
L 4349.818824 79.549676 
L 4353.403791 54.437656 
L 4356.988757 58.412469 
L 4360.573723 85.46005 
L 4364.158689 103.524239 
L 4367.743656 130.276459 
L 4371.328622 161.738753 
L 4374.913588 172.365486 
L 4378.498554 178.106185 
L 4382.083521 162.134663 
L 4385.668487 142.430274 
L 4389.253453 108.523392 
L 4392.83842 71.794863 
L 4396.423386 71.939401 
L 4400.008352 62.217606 
L 4403.593318 54.255411 
L 4407.178285 95.342095 
L 4410.763251 123.577406 
L 4414.348217 149.644638 
L 4417.933183 155.108828 
L 4421.51815 165.305087 
L 4425.103116 160.843242 
L 4428.688082 115.17217 
L 4432.273049 99.037257 
L 4435.858015 63.295362 
L 4439.442981 44.577606 
L 4443.027947 60.17207 
L 4446.612914 67.882893 
L 4450.19788 84.438853 
L 4453.782846 117.491072 
L 4457.367812 119.159551 
L 4460.952779 146.904688 
L 4464.537745 168.745736 
L 4468.122711 155.749825 
L 4471.707677 132.296858 
L 4475.292644 102.782693 
L 4478.87761 80.479751 
L 4482.462576 56.91995 
L 4486.047543 55.405436 
L 4489.632509 70.085536 
L 4493.217475 90.311521 
L 4500.387408 143.853666 
L 4503.972374 168.148728 
L 4507.55734 158.043591 
L 4511.142306 160.368778 
L 4514.727273 126.103691 
L 4518.312239 110.326983 
L 4521.897205 73.69586 
L 4525.482172 58.641845 
L 4529.067138 41.583142 
L 4532.652104 49.033167 
L 4536.23707 62.26788 
L 4539.822037 112.130574 
L 4543.407003 144.516658 
L 4546.991969 152.095511 
L 4550.576935 162.162943 
L 4554.161902 139.275561 
L 4557.746868 112.554763 
L 4561.331834 88.687032 
L 4564.916801 71.992818 
L 4568.501767 65.82793 
L 4572.086733 48.385885 
L 4575.671699 71.684888 
L 4579.256666 78.239401 
L 4582.841632 104.388329 
L 4586.426598 129.60404 
L 4590.011564 153.36808 
L 4593.596531 163.994813 
L 4597.181497 151.423092 
L 4600.766463 134.141297 
L 4604.351429 96.834613 
L 4607.936396 78.95581 
L 4611.521362 43.477855 
L 4615.106328 44.392219 
L 4618.691295 61.146135 
L 4622.276261 81.554364 
L 4625.861227 96.862893 
L 4629.446193 122.904988 
L 4633.03116 140.193067 
L 4636.616126 174.473865 
L 4640.201092 159.206185 
L 4643.786058 123.608828 
L 4647.371025 114.160399 
L 4650.955991 79.920449 
L 4654.540957 61.674015 
L 4658.125924 55.839052 
L 4661.71089 55.342594 
L 4665.295856 74.89616 
L 4668.880822 84.555112 
L 4672.465789 136.001446 
L 4676.050755 145.204788 
L 4679.635721 159.746633 
L 4683.220687 137.959002 
L 4686.805654 118.515411 
L 4690.39062 101.2399 
L 4693.975586 68.071421 
L 4697.560553 67.675511 
L 4701.145519 53.187082 
L 4704.730485 46.10783 
L 4708.315451 68.338504 
L 4711.900418 97.8998 
L 4715.485384 97.337357 
L 4719.07035 142.392569 
L 4722.655316 153.663441 
L 4726.240283 150.29192 
L 4729.825249 122.116309 
L 4733.410215 112.79985 
L 4736.995181 78.742145 
L 4744.165114 44.134564 
L 4747.75008 45.356858 
L 4751.335047 81.394115 
L 4754.920013 74.660499 
L 4758.504979 99.414314 
L 4762.089945 142.628229 
L 4765.674912 145.475012 
L 4769.259878 143.768828 
L 4772.844844 134.326683 
L 4776.42981 98.364838 
L 4780.014777 105.541496 
L 4783.599743 66.503491 
L 4787.184709 32.310673 
L 4790.769676 46.503741 
L 4794.354642 59.345686 
L 4797.939608 83.961247 
L 4801.524574 113.726783 
L 4805.109541 139.105885 
L 4808.694507 149.669776 
L 4812.279473 144.808878 
L 4815.864439 139.699751 
L 4819.449406 98.930424 
L 4823.034372 82.528429 
L 4826.619338 72.602394 
L 4830.204305 55.427431 
L 4833.789271 62.673217 
L 4837.374237 71.185287 
L 4840.959203 86.804888 
L 4844.54417 122.619052 
L 4848.129136 147.266035 
L 4851.714102 153.258105 
L 4855.299068 154.345287 
L 4858.884035 145.487581 
L 4862.469001 120.516958 
L 4866.053967 98.76389 
L 4869.638934 85.441197 
L 4873.2239 57.38813 
L 4876.808866 65.724239 
L 4880.393832 85.321796 
L 4883.978799 86.361845 
L 4887.563765 112.378803 
L 4891.148731 131.363641 
L 4894.733697 151.020898 
L 4898.318664 157.430873 
L 4901.90363 151.140299 
L 4905.488596 125.010224 
L 4909.073562 90.405786 
L 4912.658529 81.0799 
L 4916.243495 49.152569 
L 4919.828461 62.481546 
L 4923.413428 61.630025 
L 4926.998394 89.255761 
L 4930.58336 105.75202 
L 4934.168326 129.412369 
L 4941.338259 142.068928 
L 4944.923225 139.055611 
L 4948.508191 118.694514 
L 4952.093158 91.200748 
L 4955.678124 90.462344 
L 4959.26309 61.287531 
L 4962.848057 66.25212 
L 4966.433023 68.674713 
L 4970.017989 78.371372 
L 4973.602955 97.651571 
L 4977.187922 130.392718 
L 4980.772888 150.983192 
L 4984.357854 159.215611 
L 4987.94282 147.803342 
L 4991.527787 138.992768 
L 4995.112753 120.001646 
L 4998.697719 83.449077 
L 5002.282686 72.794065 
L 5005.867652 77.727232 
L 5009.452618 63.575012 
L 5013.037584 84.784489 
L 5016.622551 96.988579 
L 5020.207517 135.357307 
L 5023.792483 152.221197 
L 5027.377449 164.060798 
L 5030.962416 159.152768 
L 5034.547382 142.260599 
L 5038.132348 120.187032 
L 5041.717314 87.967481 
L 5045.302281 77.334464 
L 5048.887247 71.618903 
L 5052.472213 63.094264 
L 5056.05718 64.759601 
L 5059.642146 93.808728 
L 5063.227112 144.312419 
L 5066.812078 148.522893 
L 5070.397045 155.602145 
L 5073.982011 152.824489 
L 5077.566977 140.818354 
L 5081.151943 106.10394 
L 5084.73691 96.061646 
L 5088.321876 78.547332 
L 5091.906842 64.341696 
L 5095.491809 58.729825 
L 5099.076775 74.710773 
L 5102.661741 96.256459 
L 5106.246707 129.622893 
L 5109.831674 152.711372 
L 5113.41664 160.305935 
L 5117.001606 159.928878 
L 5120.586572 151.869277 
L 5124.171539 114.930224 
L 5127.756505 94.506284 
L 5131.341471 85.868529 
L 5134.926438 71.310973 
L 5138.511404 71.854564 
L 5142.09637 69.962993 
L 5145.681336 88.583342 
L 5149.266303 106.364738 
L 5152.851269 146.486783 
L 5156.436235 149.072768 
L 5160.021201 150.392469 
L 5163.606168 137.91187 
L 5167.191134 104.740249 
L 5170.7761 79.77591 
L 5174.361066 82.773516 
L 5177.946033 52.121895 
L 5181.530999 53.630125 
L 5185.115965 69.721047 
L 5188.700932 80.275511 
L 5192.285898 117.161147 
L 5199.45583 146.524489 
L 5203.040797 145.723242 
L 5206.625763 146.345387 
L 5213.795695 90.54404 
L 5220.965628 63.587581 
L 5224.550594 62.6198 
L 5228.135561 63.449327 
L 5231.720527 82.113666 
L 5238.890459 141.679302 
L 5242.475426 158.298105 
L 5246.060392 163.407232 
L 5249.645358 146.050025 
L 5253.230324 108.118055 
L 5256.815291 92.328778 
L 5260.400257 70.751671 
L 5263.985223 53.78409 
L 5267.57019 51.154115 
L 5271.155156 59.179152 
L 5274.740122 55.52798 
L 5278.325088 108.042643 
L 5281.910055 137.242594 
L 5285.495021 141.314813 
L 5289.079987 158.323242 
L 5292.664953 133.453167 
L 5296.24992 117.264838 
L 5299.834886 111.165935 
L 5303.419852 76.442095 
L 5307.004819 56.417207 
L 5310.589785 54.481646 
L 5314.174751 61.325237 
L 5317.759717 84.002095 
L 5321.344684 101.422145 
L 5324.92965 143.856808 
L 5328.514616 141.748429 
L 5332.099582 156.742743 
L 5335.684549 140.133367 
L 5339.269515 113.896459 
L 5342.854481 106.908329 
L 5346.439447 63.386484 
L 5350.024414 55.295461 
L 5353.60938 42.422095 
L 5357.194346 56.065287 
L 5360.779313 80.28808 
L 5364.364279 103.546234 
L 5367.949245 137.057207 
L 5371.534211 142.100349 
L 5375.119178 156.613915 
L 5378.704144 149.980848 
L 5382.28911 126.188529 
L 5385.874076 110.534364 
L 5389.459043 88.02404 
L 5393.044009 60.187781 
L 5396.628975 52.165885 
L 5400.213942 45.118055 
L 5403.798908 77.595262 
L 5407.383874 88.806434 
L 5410.96884 119.822544 
L 5414.553807 136.805835 
L 5418.138773 139.781446 
L 5421.723739 167.909925 
L 5425.308705 130.43985 
L 5428.893672 120.011072 
L 5432.478638 81.991122 
L 5436.063604 51.813965 
L 5439.648571 45.369426 
L 5443.233537 56.561746 
L 5446.818503 69.6802 
L 5450.403469 101.814913 
L 5453.988436 117.855561 
L 5457.573402 154.719202 
L 5461.158368 160.481895 
L 5464.743334 154.596658 
L 5468.328301 133.607132 
L 5471.913267 123.376309 
L 5475.498233 104.639701 
L 5479.083199 74.588229 
L 5482.668166 63.273367 
L 5486.253132 61.881397 
L 5489.838098 77.32818 
L 5493.423065 95.621746 
L 5497.008031 130.125636 
L 5504.177963 177.842244 
L 5507.76293 171.303441 
L 5511.347896 142.433416 
L 5514.932862 129.468928 
L 5518.517828 93.667332 
L 5522.102795 83.103441 
L 5525.687761 62.629227 
L 5529.272727 53.513865 
L 5532.857694 75.857656 
L 5536.44266 111.891771 
L 5540.027626 153.258105 
L 5543.612592 152.874763 
L 5547.197559 175.69616 
L 5550.782525 172.415761 
L 5554.367491 148.733416 
L 5557.952457 128.513716 
L 5565.12239 62.082494 
L 5568.707356 44.684439 
L 5572.292323 52.941995 
L 5575.877289 61.639451 
L 5579.462255 96.168479 
L 5583.047221 129.547481 
L 5586.632188 150.156808 
L 5590.217154 177.427481 
L 5593.80212 155.196808 
L 5597.387086 157.415162 
L 5600.972053 130.936309 
L 5604.557019 98.547082 
L 5608.141985 86.255012 
L 5611.726951 46.777107 
L 5615.311918 42.789726 
L 5618.896884 76.668329 
L 5622.48185 103.304289 
L 5626.066817 123.989027 
L 5629.651783 161.616209 
L 5633.236749 154.285586 
L 5636.821715 169.251621 
L 5640.406682 152.076658 
L 5643.991648 129.795711 
L 5647.576614 102.726135 
L 5654.746547 52.310424 
L 5658.331513 68.332219 
L 5661.916479 80.2598 
L 5665.501446 84.372868 
L 5669.086412 107.882394 
L 5672.671378 150.392469 
L 5676.256344 161.258005 
L 5679.841311 164.013666 
L 5683.426277 153.399501 
L 5687.011243 135.30389 
L 5690.596209 95.040449 
L 5694.181176 86.654065 
L 5697.766142 41.84394 
L 5701.351108 60.234913 
L 5704.936075 66.673167 
L 5708.521041 102.609875 
L 5712.106007 122.628479 
L 5715.690973 151.086883 
L 5719.27594 175.900399 
L 5722.860906 174.536708 
L 5726.445872 148.535461 
L 5730.030838 137.820748 
L 5733.615805 99.338903 
L 5737.200771 82.823791 
L 5740.785737 50.949875 
L 5744.370704 52.957706 
L 5747.95567 60.134364 
L 5751.540636 67.735212 
L 5755.125602 111.172219 
L 5758.710569 169.298753 
L 5762.295535 155.28793 
L 5765.880501 170.9201 
L 5769.465467 150.989476 
L 5773.050434 129.3998 
L 5776.6354 102.019152 
L 5780.220366 63.725835 
L 5783.805332 64.021197 
L 5787.390299 58.051122 
L 5790.975265 67.992868 
L 5794.560231 76.043042 
L 5798.145198 94.826783 
L 5801.730164 134.546633 
L 5805.31513 151.536209 
L 5808.900096 179.460449 
L 5816.070029 142.650224 
L 5819.654995 107.228828 
L 5823.239961 77.249626 
L 5826.824928 57.331571 
L 5830.409894 35.672768 
L 5833.99486 58.519302 
L 5841.164793 118.898753 
L 5844.749759 146.175711 
L 5848.334725 164.082793 
L 5851.919692 158.879401 
L 5855.504658 141.314813 
L 5859.089624 136.145985 
L 5862.67459 119.665436 
L 5866.259557 88.416808 
L 5869.844523 49.821845 
L 5873.429489 49.787282 
L 5877.014456 52.857157 
L 5880.599422 95.411222 
L 5884.184388 123.021247 
L 5887.769354 151.910125 
L 5891.354321 177.710274 
L 5894.939287 181.647382 
L 5898.524253 178.954564 
L 5902.109219 132.029776 
L 5909.279152 94.276908 
L 5912.864118 70.64798 
L 5916.449084 65.09581 
L 5920.034051 68.429626 
L 5923.619017 99.122095 
L 5927.203983 114.804539 
L 5930.78895 150.232219 
L 5934.373916 168.516359 
L 5937.958882 166.546234 
L 5941.543848 178.948279 
L 5945.128815 155.630424 
L 5948.713781 134.826284 
L 5952.298747 94.977606 
L 5955.883713 46.849377 
L 5959.46868 59.710175 
L 5963.053646 65.366035 
L 5966.638612 86.914863 
L 5970.223579 135.319601 
L 5973.808545 156.651621 
L 5977.393511 171.152618 
L 5980.978477 184.239651 
L 5984.563444 168.456658 
L 5988.14841 148.805686 
L 5991.733376 141.478204 
L 5995.318342 111.678105 
L 5998.903309 74.971571 
L 6002.488275 74.500249 
L 6006.073241 64.693616 
L 6009.658208 86.842594 
L 6013.243174 115.228728 
L 6016.82814 154.376708 
L 6020.413106 196.176658 
L 6023.998073 186.520848 
L 6027.583039 193.694364 
L 6031.168005 172.04813 
L 6034.752971 129.704589 
L 6038.337938 85.268379 
L 6041.922904 74.704489 
L 6045.50787 69.25601 
L 6049.092836 82.148229 
L 6052.677803 89.824489 
L 6056.262769 108.366284 
L 6059.847735 120.639501 
L 6063.432702 148.312369 
L 6067.017668 183.969426 
L 6070.602634 176.060648 
L 6074.1876 179.721247 
L 6077.772567 126.760399 
L 6081.357533 85.714564 
L 6084.942499 59.904988 
L 6088.527465 50.459701 
L 6092.112432 58.613566 
L 6095.697398 80.822244 
L 6099.282364 104.953915 
L 6102.867331 144.324988 
L 6106.452297 154.929726 
L 6110.037263 162.147232 
L 6113.622229 177.958504 
L 6117.207196 151.407382 
L 6120.792162 125.893167 
L 6124.377128 111.398454 
L 6127.962094 74.616509 
L 6131.547061 51.119551 
L 6135.132027 51.08813 
L 6138.716993 79.474264 
L 6142.30196 105.899701 
L 6145.886926 140.513566 
L 6149.471892 173.433815 
L 6153.056858 186.464289 
L 6156.641825 177.019002 
L 6160.226791 138.178953 
L 6163.811757 134.323541 
L 6170.98169 84.756209 
L 6174.566656 64.61192 
L 6178.151622 60.184638 
L 6181.736588 61.061297 
L 6185.321555 90.254963 
L 6188.906521 126.622145 
L 6192.491487 147.658803 
L 6196.076454 173.320698 
L 6199.66142 184.051122 
L 6203.246386 149.902294 
L 6206.831352 130.348728 
L 6210.416319 101.516409 
L 6214.001285 74.446833 
L 6217.586251 40.291721 
L 6221.171217 41.341197 
L 6224.756184 66.098155 
L 6228.34115 95.345237 
L 6231.926116 134.826284 
L 6235.511083 160.397057 
L 6239.096049 168.079601 
L 6242.681015 168.723741 
L 6246.265981 172.406334 
L 6249.850948 155.928928 
L 6253.435914 114.072419 
L 6257.02088 91.914015 
L 6260.605846 54.277406 
L 6264.190813 48.973466 
L 6271.360745 103.272868 
L 6274.945712 149.317855 
L 6278.530678 178.621496 
L 6282.115644 184.8398 
L 6285.70061 190.077756 
L 6289.285577 160.595012 
L 6292.870543 161.927282 
L 6296.455509 115.326135 
L 6300.040475 93.72389 
L 6303.625442 79.24803 
L 6307.210408 61.482344 
L 6310.795374 65.780798 
L 6314.380341 109.902793 
L 6317.965307 125.918304 
L 6321.550273 166.348279 
L 6325.135239 198.24419 
L 6328.720206 191.639401 
L 6332.305172 177.92394 
L 6335.890138 163.592618 
L 6339.475104 121.060549 
L 6343.060071 80.357207 
L 6346.645037 58.007132 
L 6350.230003 62.076209 
L 6353.814969 83.559052 
L 6357.399936 106.480998 
L 6360.984902 135.52384 
L 6364.569868 156.126883 
L 6368.154835 165.345935 
L 6371.739801 193.065935 
L 6375.324767 184.132818 
L 6378.909733 154.851172 
L 6382.4947 107.018304 
L 6386.079666 93.444239 
L 6389.664632 50.75192 
L 6393.249598 51.741696 
L 6396.834565 59.062893 
L 6400.419531 91.235312 
L 6404.004497 146.920399 
L 6407.589464 153.669726 
L 6411.17443 183.381845 
L 6414.759396 192.503491 
L 6418.344362 182.228678 
L 6421.929329 148.37207 
L 6425.514295 116.626983 
L 6432.684227 75.534015 
L 6436.269194 52.970274 
L 6439.85416 60.489426 
L 6443.439126 54.60419 
L 6447.024093 112.859551 
L 6450.609059 144.0202 
L 6454.194025 169.320748 
L 6457.778991 188.47212 
L 6461.363958 176.503691 
L 6464.948924 151.928978 
L 6468.53389 107.206833 
L 6472.118856 73.5199 
L 6475.703823 56.536608 
L 6479.288789 47.085037 
L 6482.873755 59.056608 
L 6486.458721 94.01611 
L 6490.043688 124.708579 
L 6493.628654 156.959551 
L 6497.21362 171.825037 
L 6500.798587 182.12813 
L 6504.383553 172.585436 
L 6507.968519 167.206085 
L 6511.553485 138.527731 
L 6515.138452 102.817257 
L 6518.723418 65.03611 
L 6522.308384 45.425985 
L 6525.89335 73.843541 
L 6529.478317 83.527631 
L 6533.063283 126.691272 
L 6536.648249 162.703392 
L 6540.233216 180.173716 
L 6543.818182 184.352768 
L 6547.403148 167.617706 
L 6550.988114 153.135561 
L 6554.573081 113.538254 
L 6558.158047 92.225087 
L 6561.743013 64.828728 
L 6565.327979 40.656209 
L 6568.912946 49.045736 
L 6572.497912 90.478055 
L 6576.082878 110.063042 
L 6583.252811 174.976608 
L 6586.837777 188.406135 
L 6590.422743 174.285337 
L 6594.00771 147.203192 
L 6597.592676 114.669426 
L 6601.177642 91.89202 
L 6604.762608 53.680399 
L 6608.347575 40.96414 
L 6611.932541 71.310973 
L 6615.517507 85.780549 
L 6619.102473 109.651421 
L 6622.68744 143.055561 
L 6626.272406 154.109626 
L 6629.857372 170.894963 
L 6633.442339 184.56015 
L 6637.027305 166.860449 
L 6640.612271 140.526135 
L 6644.197237 80.979352 
L 6647.782204 69.6802 
L 6651.36717 49.369377 
L 6654.952136 46.849377 
L 6658.537102 69.375411 
L 6662.122069 122.568778 
L 6665.707035 125.688928 
L 6669.292001 178.269576 
L 6672.876968 183.121047 
L 6676.461934 170.191122 
L 6680.0469 139.963691 
L 6683.631866 121.157955 
L 6687.216833 85.777406 
L 6690.801799 58.22394 
L 6694.386765 54.723591 
L 6697.971731 54.729875 
L 6701.556698 50.849327 
L 6705.141664 86.550374 
L 6708.72663 118.537406 
L 6712.311597 169.091372 
L 6715.896563 162.869925 
L 6719.481529 147.951022 
L 6723.066495 140.16793 
L 6726.651462 112.539052 
L 6730.236428 77.287332 
L 6733.821394 51.367781 
L 6737.40636 33.256459 
L 6744.576293 67.930025 
L 6748.161259 95.920249 
L 6751.746226 109.641995 
L 6755.331192 125.468978 
L 6758.916158 166.53995 
L 6762.501124 166.147182 
L 6766.086091 157.892768 
L 6769.671057 136.274813 
L 6773.256023 104.325486 
L 6776.840989 66.500349 
L 6780.425956 32.879401 
L 6784.010922 35.446534 
L 6787.595888 50.786484 
L 6791.180854 101.302743 
L 6794.765821 131.234813 
L 6798.350787 147.781347 
L 6801.935753 178.015062 
L 6805.52072 155.564439 
L 6809.105686 146.002893 
L 6812.690652 118.622244 
L 6816.275618 95.728579 
L 6819.860585 66.695162 
L 6823.445551 43.493566 
L 6827.030517 57.912868 
L 6830.615483 58.513017 
L 6834.20045 79.401995 
L 6837.785416 114.989925 
L 6841.370382 157.144938 
L 6844.955349 191.560848 
L 6848.540315 164.865187 
L 6852.125281 139.074464 
L 6855.710247 118.534264 
L 6859.295214 82.770374 
L 6862.88018 75.826234 
L 6866.465146 50.736209 
L 6870.050112 42.855711 
L 6873.635079 77.969177 
L 6877.220045 109.349776 
L 6880.805011 128.252918 
L 6884.389978 151.033466 
L 6887.974944 153.371222 
L 6891.55991 172.334065 
L 6895.144876 172.076409 
L 6898.729843 153.911671 
L 6902.314809 111.345037 
L 6905.899775 82.035112 
L 6909.484741 58.31192 
L 6913.069708 64.822444 
L 6916.654674 78.952668 
L 6920.23964 106.446434 
L 6923.824606 122.037756 
L 6927.409573 157.679102 
L 6930.994539 171.014364 
L 6934.579505 155.089975 
L 6938.164472 167.884788 
L 6941.749438 142.983292 
L 6945.334404 97.302793 
L 6948.91937 82.952618 
L 6952.504337 68.068279 
L 6956.089303 53.689825 
L 6959.674269 64.036908 
L 6963.259235 82.600698 
L 6966.844202 110.339551 
L 6970.429168 151.394813 
L 6974.014134 168.4001 
L 6977.599101 160.742693 
L 6981.184067 132.507382 
L 6984.769033 138.012419 
L 6988.353999 91.530673 
L 6991.938966 79.719352 
L 6995.523932 52.869726 
L 6999.108898 58.864938 
L 7002.693864 66.937107 
L 7006.278831 72.621247 
L 7009.863797 106.179352 
L 7013.448763 128.120948 
L 7017.03373 139.784589 
L 7020.618696 164.535262 
L 7024.203662 173.785736 
L 7027.788628 145.918055 
L 7031.373595 107.781845 
L 7034.958561 88.646185 
L 7038.543527 67.876608 
L 7042.128493 44.074863 
L 7045.71346 57.868878 
L 7049.298426 89.789925 
L 7052.883392 114.57202 
L 7056.468358 145.823791 
L 7060.053325 154.376708 
L 7063.638291 149.594364 
L 7067.223257 154.964289 
L 7070.808224 133.220648 
L 7074.39319 114.078703 
L 7077.978156 80.925935 
L 7081.563122 53.620698 
L 7085.148089 56.605736 
L 7088.733055 58.729825 
L 7092.318021 70.98419 
L 7095.902987 110.260998 
L 7099.487954 126.097406 
L 7103.07292 159.573815 
L 7106.657886 158.675162 
L 7110.242853 162.722244 
L 7113.827819 130.446135 
L 7117.412785 114.069277 
L 7120.997751 79.081496 
L 7124.582718 50.412569 
L 7128.167684 56.024439 
L 7131.75265 61.31581 
L 7135.337616 76.34783 
L 7138.922583 88.72788 
L 7142.507549 116.127382 
L 7146.092515 147.281746 
L 7153.262448 167.451172 
L 7156.847414 138.873367 
L 7160.43238 106.854913 
L 7164.017347 88.536209 
L 7167.602313 64.222294 
L 7171.187279 50.330873 
L 7174.772245 63.826384 
L 7178.357212 62.044788 
L 7181.942178 88.385387 
L 7185.527144 106.735511 
L 7189.112111 157.352319 
L 7192.697077 135.900898 
L 7196.282043 144.334414 
L 7199.867009 130.420998 
L 7203.451976 103.910723 
L 7207.036942 87.351621 
L 7210.621908 60.706234 
L 7214.206874 40.225736 
L 7217.791841 56.718853 
L 7221.376807 68.530175 
L 7224.961773 102.085137 
L 7228.546739 125.101347 
L 7232.131706 132.81217 
L 7235.716672 156.573067 
L 7239.301638 138.618853 
L 7242.886605 117.908978 
L 7246.471571 93.192868 
L 7250.056537 64.102893 
L 7253.641503 67.455561 
L 7257.22647 42.026185 
L 7260.811436 51.779401 
L 7264.396402 60.813067 
L 7267.981368 82.644688 
L 7271.566335 110.276708 
L 7275.151301 148.013865 
L 7278.736267 142.361147 
L 7282.321234 149.823741 
L 7285.9062 143.624289 
L 7289.491166 107.56818 
L 7293.076132 85.004439 
L 7296.661099 77.114514 
L 7300.246065 45.391421 
L 7303.831031 50.764489 
L 7307.415997 65.196359 
L 7311.000964 86.943142 
L 7314.58593 107.561895 
L 7318.170896 126.936359 
L 7321.755863 141.95581 
L 7325.340829 155.338204 
L 7328.925795 117.462793 
L 7332.510761 108.972718 
L 7336.095728 76.891421 
L 7339.680694 67.534115 
L 7343.26566 44.530474 
L 7346.850626 41.004988 
L 7350.435593 54.877556 
L 7354.020559 59.201147 
L 7357.605525 85.390923 
L 7361.190491 116.306484 
L 7364.775458 135.869476 
L 7368.360424 148.962793 
L 7371.94539 123.231771 
L 7375.530357 100.143292 
L 7379.115323 77.950324 
L 7382.700289 46.19581 
L 7386.285255 38.994015 
L 7389.870222 45.928728 
L 7393.455188 54.233416 
L 7397.040154 59.169726 
L 7400.62512 94.179501 
L 7404.210087 108.894165 
L 7407.795053 133.874214 
L 7411.380019 150.785237 
L 7414.964986 157.996459 
L 7418.549952 109.893367 
L 7422.134918 85.208678 
L 7425.719884 64.599352 
L 7429.304851 42.04818 
L 7432.889817 50.334015 
L 7436.474783 59.590773 
L 7440.059749 73.403641 
L 7447.229682 136.507332 
L 7450.814648 138.933067 
L 7454.399615 147.504838 
L 7457.984581 130.763491 
L 7461.569547 103.753616 
L 7465.154513 85.887382 
L 7468.73948 68.593017 
L 7472.324446 42.642045 
L 7475.909412 41.429177 
L 7479.494378 44.389077 
L 7483.079345 57.454115 
L 7486.664311 88.492219 
L 7490.249277 107.753566 
L 7493.834243 125.767481 
L 7497.41921 137.013217 
L 7501.004176 130.917456 
L 7504.589142 120.878304 
L 7508.174109 82.201646 
L 7511.759075 66.783142 
L 7515.344041 48.059102 
L 7518.929007 30.290274 
L 7522.513974 48.794364 
L 7526.09894 70.899352 
L 7529.683906 84.627382 
L 7533.268872 106.977456 
L 7536.853839 136.466484 
L 7540.438805 134.634613 
L 7544.023771 143.696559 
L 7547.608738 123.448579 
L 7554.77867 64.966983 
L 7558.363636 46.604289 
L 7561.948603 37.715162 
L 7565.533569 48.508429 
L 7569.118535 63.546733 
L 7572.703501 107.181696 
L 7576.288468 118.370873 
L 7579.873434 142.870175 
L 7583.4584 140.808928 
L 7587.043367 142.169476 
L 7590.628333 121.833516 
L 7594.213299 100.642893 
L 7597.798265 77.2402 
L 7601.383232 65.001546 
L 7604.968198 43.053666 
L 7608.553164 57.953716 
L 7612.13813 75.188379 
L 7615.723097 78.459352 
L 7619.308063 113.949875 
L 7622.893029 133.541147 
L 7626.477996 158.254115 
L 7630.062962 149.481247 
L 7633.647928 122.465087 
L 7637.232894 116.22793 
L 7644.402827 70.522294 
L 7647.987793 71.60005 
L 7651.572759 55.345736 
L 7655.157726 79.307731 
L 7658.742692 99.448878 
L 7662.327658 112.504489 
L 7665.912624 149.229875 
L 7669.497591 165.609875 
L 7673.082557 156.406534 
L 7676.667523 152.777357 
L 7680.25249 137.748479 
L 7683.837456 97.463042 
L 7687.422422 77.966035 
L 7691.007388 62.333865 
L 7694.592355 75.398903 
L 7698.177321 82.911771 
L 7701.762287 117.805287 
L 7705.347253 136.991222 
L 7708.93222 164.682943 
L 7712.517186 169.48414 
L 7716.102152 159.862893 
L 7719.687119 161.031771 
L 7723.272085 143.168678 
L 7726.857051 111.872918 
L 7730.442017 94.58798 
L 7734.026984 60.068379 
L 7737.61195 69.309426 
L 7741.196916 72.784638 
L 7744.781882 113.202045 
L 7748.366849 124.824838 
L 7751.951815 154.527531 
L 7755.536781 175.699302 
L 7759.121748 173.735461 
L 7762.706714 157.188928 
L 7766.29168 123.102943 
L 7769.876646 101.434713 
L 7773.461613 81.444389 
L 7777.046579 77.629825 
L 7780.631545 63.587581 
L 7784.216511 75.354913 
L 7787.801478 103.794464 
L 7791.386444 128.356608 
L 7794.97141 156.208579 
L 7798.556376 176.233466 
L 7802.141343 173.085037 
L 7805.726309 155.146534 
L 7809.311275 141.767282 
L 7812.896242 110.770025 
L 7816.481208 87.734963 
L 7820.066174 63.106833 
L 7823.65114 59.39596 
L 7827.236107 71.851421 
L 7830.821073 115.621496 
L 7834.406039 126.358204 
L 7837.991005 164.06394 
L 7841.575972 147.178055 
L 7845.160938 191.52 
L 7848.745904 149.050773 
L 7852.330871 142.411421 
L 7855.915837 114.276658 
L 7859.500803 105.378105 
L 7863.085769 63.948928 
L 7866.670736 70.336908 
L 7870.255702 68.065137 
L 7873.840668 83.408229 
L 7877.425634 115.382693 
L 7881.010601 150.317057 
L 7884.595567 159.391571 
L 7888.180533 181.917606 
L 7891.7655 168.510075 
L 7895.350466 151.027182 
L 7898.935432 119.624589 
L 7902.520398 84.008379 
L 7906.105365 71.483791 
L 7909.690331 61.491771 
L 7913.275297 65.909626 
L 7916.860263 107.125137 
L 7920.44523 115.018204 
L 7924.030196 142.034364 
L 7927.615162 171.938155 
L 7931.200128 184.459601 
L 7934.785095 176.739352 
L 7938.370061 170.316808 
L 7941.955027 134.213566 
L 7945.539994 106.44015 
L 7949.12496 65.52 
L 7952.709926 54.245985 
L 7956.294892 73.497905 
L 7959.879859 99.725387 
L 7963.464825 129.616608 
L 7967.049791 132.494813 
L 7970.634757 163.19985 
L 7974.219724 158.200698 
L 7977.80469 165.876958 
L 7981.389656 167.209227 
L 7984.974623 125.654364 
L 7988.559589 98.886434 
L 7992.144555 82.179651 
L 7995.729521 73.749277 
L 7999.314488 77.350175 
L 8002.899454 79.725636 
L 8006.48442 114.57202 
L 8010.069386 130.958304 
L 8013.654353 174.888628 
L 8017.239319 170.828978 
L 8020.824285 178.087332 
L 8024.409252 164.387581 
L 8027.994218 135.033666 
L 8031.579184 100.576908 
L 8035.16415 78.104289 
L 8038.749117 67.581247 
L 8042.334083 84.240898 
L 8045.919049 89.412868 
L 8049.504015 114.795112 
L 8053.088982 136.419352 
L 8056.673948 171.124339 
L 8060.258914 175.174564 
L 8063.843881 171.05207 
L 8067.428847 150.744389 
L 8071.013813 126.465037 
L 8074.598779 103.156608 
L 8078.183746 65.969327 
L 8081.768712 67.574963 
L 8085.353678 62.742344 
L 8088.938644 89.095511 
L 8092.523611 104.532868 
L 8096.108577 145.044539 
L 8099.693543 156.912419 
L 8103.278509 168.293267 
L 8106.863476 168.645187 
L 8110.448442 163.407232 
L 8114.033408 139.731172 
L 8117.618375 107.954663 
L 8121.203341 73.63616 
L 8124.788307 41.133815 
L 8128.373273 57.27187 
L 8131.95824 62.468978 
L 8135.543206 93.912419 
L 8139.128172 120.331571 
L 8142.713138 164.739501 
L 8146.298105 184.098254 
L 8149.883071 167.44803 
L 8153.468037 156.648479 
L 8157.053004 134.179002 
L 8160.63797 90.11985 
L 8164.222936 71.301546 
L 8167.807902 44.828978 
L 8171.392869 52.646633 
L 8174.977835 65.570274 
L 8178.562801 95.904539 
L 8182.147767 131.206534 
L 8185.732734 158.819701 
L 8189.3177 176.44399 
L 8192.902666 185.477656 
L 8196.487633 173.638055 
L 8200.072599 139.897706 
L 8203.657565 113.893317 
L 8207.242531 84.149776 
L 8210.827498 67.835761 
L 8214.412464 48.279052 
L 8217.99743 59.238853 
L 8221.582396 96.620948 
L 8225.167363 135.935461 
L 8228.752329 144.164738 
L 8232.337295 180.032319 
L 8235.922261 154.907731 
L 8239.507228 167.306633 
L 8243.092194 134.757157 
L 8246.67716 89.029526 
L 8250.262127 80.369776 
L 8253.847093 48.926334 
L 8257.432059 33.212469 
L 8261.017025 36.162943 
L 8264.601992 74.393416 
L 8268.186958 121.682693 
L 8271.771924 148.221247 
L 8275.35689 178.05591 
L 8278.941857 169.157357 
L 8282.526823 158.316958 
L 8286.111789 131.954364 
L 8289.696756 104.435461 
L 8293.281722 79.939302 
L 8296.866688 57.482394 
L 8300.451654 47.32384 
L 8304.036621 55.760499 
L 8307.621587 90.434065 
L 8311.206553 107.631022 
L 8314.791519 146.518204 
L 8318.376486 159.674364 
L 8321.961452 182.941945 
L 8325.546418 174.442444 
L 8329.131385 149.317855 
L 8332.716351 111.737805 
L 8336.301317 71.77601 
L 8339.886283 57.397556 
L 8343.47125 41.215511 
L 8347.056216 62.701496 
L 8350.641182 91.194464 
L 8354.226148 121.905786 
L 8357.811115 149.537805 
L 8361.396081 182.784838 
L 8364.981047 186.014963 
L 8368.566013 171.649077 
L 8372.15098 161.053766 
L 8375.735946 123.498853 
L 8379.320912 99.216359 
L 8382.905879 78.317955 
L 8386.490845 69.274863 
L 8390.075811 71.091022 
L 8393.660777 104.793666 
L 8397.245744 145.264489 
L 8400.83071 157.600549 
L 8404.415676 201.917357 
L 8408.000642 194.263092 
L 8411.585609 166.706484 
L 8415.170575 157.07581 
L 8418.755541 129.186135 
L 8422.340508 102.210823 
L 8425.925474 85.59202 
L 8429.51044 71.213566 
L 8433.095406 70.710823 
L 8436.680373 89.230623 
L 8440.265339 123.929327 
L 8443.850305 165.54389 
L 8447.435271 192.676309 
L 8451.020238 210.922743 
L 8458.19017 167.705686 
L 8461.775137 134.722594 
L 8468.945069 73.922095 
L 8472.530035 56.897955 
L 8479.699968 94.58798 
L 8483.284934 127.649626 
L 8486.8699 170.159701 
L 8490.454867 188.1799 
L 8494.039833 186.932469 
L 8497.624799 181.370873 
L 8501.209765 162.1598 
L 8504.794732 136.545037 
L 8511.964664 67.534115 
L 8515.549631 35.757606 
L 8519.134597 55.207481 
L 8522.719563 78.883541 
L 8526.304529 127.549077 
L 8529.889496 150.7601 
L 8533.474462 183.416409 
L 8537.059428 178.244439 
L 8540.644394 184.783242 
L 8544.229361 169.575262 
L 8547.814327 129.450075 
L 8551.399293 96.715212 
L 8554.98426 67.216758 
L 8558.569226 39.125985 
L 8562.154192 64.175162 
L 8565.739158 100.036459 
L 8569.324125 116.498155 
L 8572.909091 139.64005 
L 8576.494057 169.107082 
L 8580.079023 187.934813 
L 8583.66399 188.343292 
L 8587.248956 148.585736 
L 8590.833922 113.522544 
L 8594.418889 95.857406 
L 8598.003855 57.05192 
L 8601.588821 49.328529 
L 8605.173787 64.203441 
L 8608.758754 68.046284 
L 8615.928686 123.498853 
L 8619.513652 154.741197 
L 8623.098619 168.855711 
L 8626.683585 166.709626 
L 8630.268551 133.720249 
L 8633.853518 113.371721 
L 8637.438484 74.138903 
L 8641.02345 61.03616 
L 8644.608416 47.125885 
L 8648.193383 38.704938 
L 8651.778349 49.715012 
L 8655.363315 95.210125 
L 8658.948281 127.106035 
L 8662.533248 150.42389 
L 8666.118214 171.84389 
L 8669.70318 170.263392 
L 8673.288146 155.410474 
L 8676.873113 106.540698 
L 8684.043045 56.869676 
L 8687.628012 23.320998 
L 8691.212978 44.84783 
L 8694.797944 41.642843 
L 8698.38291 84.325736 
L 8701.967877 131.83182 
L 8705.552843 164.359302 
L 8709.137809 187.560898 
L 8712.722775 166.310574 
L 8716.307742 156.400249 
L 8719.892708 124.919102 
L 8723.477674 99.078105 
L 8727.062641 71.857706 
L 8730.647607 42.758304 
L 8734.232573 39.74813 
L 8737.817539 57.428978 
L 8741.402506 82.446733 
L 8744.987472 124.21212 
L 8748.572438 148.368928 
L 8752.157404 165.666434 
L 8755.742371 166.401696 
L 8759.327337 162.756808 
L 8762.912303 120.894015 
L 8766.49727 75.141247 
L 8770.082236 55.062943 
L 8773.667202 29.385337 
L 8777.252168 36.565137 
L 8780.837135 46.522594 
L 8784.422101 86.135611 
L 8788.007067 116.363042 
L 8791.592033 141.713865 
L 8795.177 174.008828 
L 8798.761966 169.10394 
L 8802.346932 147.564539 
L 8805.931898 118.861047 
L 8809.516865 103.719052 
L 8813.101831 55.622244 
L 8816.686797 43.773217 
L 8820.271764 41.991621 
L 8823.85673 59.713317 
L 8827.441696 92.53616 
L 8831.026662 133.129526 
L 8834.611629 176.773915 
L 8838.196595 194.294514 
L 8841.781561 188.538105 
L 8845.366527 155.284788 
L 8848.951494 137.173466 
L 8852.53646 102.185686 
L 8856.121426 60.90419 
L 8859.706393 57.09591 
L 8863.291359 44.172269 
L 8866.876325 48.882344 
L 8870.461291 89.852768 
L 8874.046258 121.167382 
L 8877.631224 171.485686 
L 8881.21619 187.347232 
L 8884.801156 197.021895 
L 8888.386123 162.84793 
L 8891.971089 153.968229 
L 8895.556055 108.187182 
L 8899.141022 59.801297 
L 8902.725988 45.466833 
L 8906.310954 41.834514 
L 8909.89592 48.131372 
L 8913.480887 69.243441 
L 8917.065853 119.932519 
L 8920.650819 157.96818 
L 8924.235785 166.719052 
L 8927.820752 172.616858 
L 8931.405718 178.266434 
L 8934.990684 143.335212 
L 8938.57565 100.595761 
L 8942.160617 85.708279 
L 8945.745583 45.941297 
L 8949.330549 47.971122 
L 8952.915516 66.412369 
L 8956.500482 83.84813 
L 8960.085448 108.259451 
L 8963.670414 160.673566 
L 8967.255381 177.839102 
L 8970.840347 172.541446 
L 8974.425313 157.767082 
L 8978.010279 135.869476 
L 8981.595246 126.631571 
L 8985.180212 78.748429 
L 8988.765178 56.982793 
L 8992.350145 60.718803 
L 8995.935111 58.066833 
L 8999.520077 77.180499 
L 9003.105043 118.461995 
L 9006.69001 135.753217 
L 9010.274976 156.450524 
L 9013.859942 192.42808 
L 9017.444908 175.460499 
L 9021.029875 139.316409 
L 9024.614841 113.689077 
L 9028.199807 70.025835 
L 9031.784774 43.735511 
L 9035.36974 38.101646 
L 9038.954706 52.326135 
L 9042.539672 84.058653 
L 9046.124639 118.260898 
L 9053.294571 172.934214 
L 9056.879537 172.513167 
L 9060.464504 169.041097 
L 9064.04947 144.042195 
L 9067.634436 123.778504 
L 9074.804369 62.616658 
L 9078.389335 37.884838 
L 9081.974301 62.459551 
L 9085.559268 84.919601 
L 9089.144234 106.141646 
L 9092.7292 142.229177 
L 9096.314166 158.442643 
L 9099.899133 184.346484 
L 9103.484099 173.217007 
L 9107.069065 131.706135 
L 9110.654031 127.916708 
L 9114.238998 81.689476 
L 9117.823964 56.414065 
L 9121.40893 38.990873 
L 9124.993897 47.003342 
L 9128.578863 64.888429 
L 9132.163829 98.487382 
L 9135.748795 126.845237 
L 9139.333762 165.741845 
L 9142.918728 174.23192 
L 9146.503694 161.305137 
L 9150.08866 142.961297 
L 9153.673627 101.35616 
L 9157.258593 84.897606 
L 9160.843559 46.066983 
L 9164.428526 45.71192 
L 9168.013492 64.244289 
L 9171.598458 67.879751 
L 9175.183424 115.448678 
L 9178.768391 129.437506 
L 9182.353357 154.185037 
L 9185.938323 176.0198 
L 9189.523289 156.155162 
L 9193.108256 146.345387 
L 9196.693222 110.829726 
L 9200.278188 101.362444 
L 9203.863155 53.674115 
L 9207.448121 55.106933 
L 9211.033087 65.925337 
L 9214.618053 72.649526 
L 9218.20302 110.562643 
L 9221.787986 143.574015 
L 9225.372952 159.671222 
L 9228.957918 181.273466 
L 9232.542885 161.471671 
L 9236.127851 161.999551 
L 9239.712817 129.786284 
L 9243.297783 83.537057 
L 9246.88275 51.292369 
L 9250.467716 34.06399 
L 9254.052682 37.828279 
L 9257.637649 60.062095 
L 9261.222615 112.919252 
L 9264.807581 116.733815 
L 9268.392547 144.997406 
L 9271.977514 155.281646 
L 9275.56248 148.337506 
L 9279.147446 149.390125 
L 9282.732412 100.356958 
L 9286.317379 61.089576 
L 9289.902345 45.557955 
L 9293.487311 28.310723 
L 9297.072278 54.667032 
L 9300.657244 55.647382 
L 9304.24221 94.23606 
L 9307.827176 106.980599 
L 9311.412143 147.90389 
L 9314.997109 167.715112 
L 9318.582075 137.965287 
L 9322.167041 134.970823 
L 9325.752008 121.164239 
L 9329.336974 80.724838 
L 9332.92194 49.086584 
L 9336.506907 31.776509 
L 9340.091873 37.523491 
L 9343.676839 58.456459 
L 9347.261805 71.125586 
L 9350.846772 105.032469 
L 9354.431738 130.031372 
L 9358.016704 156.463092 
L 9361.60167 163.539202 
L 9365.186637 157.258055 
L 9372.356569 87.920349 
L 9375.941535 50.465985 
L 9379.526502 32.957955 
L 9383.111468 24.844938 
L 9386.696434 52.414115 
L 9390.281401 66.993666 
L 9393.866367 102.405636 
L 9397.451333 120.69606 
L 9401.036299 163.985387 
L 9404.621266 153.308379 
L 9408.206232 157.242344 
L 9411.791198 114.138404 
L 9415.376164 78.729576 
L 9418.961131 47.518653 
L 9426.131063 37.102444 
L 9429.71603 53.105387 
L 9433.300996 75.015561 
L 9436.885962 115.454963 
L 9440.470928 147.652519 
L 9444.055895 174.706384 
L 9447.640861 165.999501 
L 9451.225827 152.950175 
L 9454.810793 130.226185 
L 9458.39576 88.768728 
L 9461.980726 67.411571 
L 9465.565692 50.566534 
L 9469.150659 49.130574 
L 9472.735625 64.181446 
L 9476.320591 106.644389 
L 9479.905557 118.593965 
L 9483.490524 132.284289 
L 9487.07549 163.545486 
L 9490.660456 167.099252 
L 9494.245422 153.848828 
L 9497.830389 136.818404 
L 9501.415355 89.598254 
L 9508.585288 32.835411 
L 9512.170254 38.965736 
L 9515.75522 48.181646 
L 9519.340186 70.396608 
L 9522.925153 96.303591 
L 9526.510119 133.217506 
L 9530.095085 165.408778 
L 9533.680051 152.81192 
L 9537.265018 157.047531 
L 9540.849984 133.365187 
L 9544.43495 99.489726 
L 9548.019916 55.100648 
L 9551.604883 38.199052 
L 9555.189849 36.360898 
L 9558.774815 46.192668 
L 9562.359782 71.021895 
L 9565.944748 101.1802 
L 9569.529714 124.287531 
L 9573.11468 148.293516 
L 9576.699647 152.478853 
L 9580.284613 160.852668 
L 9583.869579 118.251471 
L 9587.454545 104.309776 
L 9587.454545 104.309776 
" clip-path="url(#p93878485de)" style="fill: none; stroke: #1f77b4; stroke-width: 1.5; stroke-linecap: square"/>
   </g>
  </g>
 </g>
 <defs>
  <clipPath id="p93878485de">
   <rect x="0" y="-0" width="10044" height="221.76"/>
  </clipPath>
 </defs>
</svg>
