<?xml version="1.0" encoding="utf-8" standalone="no"?>
<!DOCTYPE svg PUBLIC "-//W3C//DTD SVG 1.1//EN"
  "http://www.w3.org/Graphics/SVG/1.1/DTD/svg11.dtd">
<svg xmlns:xlink="http://www.w3.org/1999/xlink" width="10044pt" height="221.76pt" viewBox="0 0 10044 221.76" xmlns="http://www.w3.org/2000/svg" version="1.1">
 <metadata>
  <rdf:RDF xmlns:dc="http://purl.org/dc/elements/1.1/" xmlns:cc="http://creativecommons.org/ns#" xmlns:rdf="http://www.w3.org/1999/02/22-rdf-syntax-ns#">
   <cc:Work>
    <dc:type rdf:resource="http://purl.org/dc/dcmitype/StillImage"/>
    <dc:date>2025-08-12T08:23:40.459257</dc:date>
    <dc:format>image/svg+xml</dc:format>
    <dc:creator>
     <cc:Agent>
      <dc:title>Matplotlib v3.9.2, https://matplotlib.org/</dc:title>
     </cc:Agent>
    </dc:creator>
   </cc:Work>
  </rdf:RDF>
 </metadata>
 <defs>
  <style type="text/css">*{stroke-linejoin: round; stroke-linecap: butt}</style>
 </defs>
 <g id="figure_1">
  <g id="patch_1">
   <path d="M 0 221.76 
L 10044 221.76 
L 10044 0 
L 0 0 
z
" style="fill: #ffffff"/>
  </g>
  <g id="axes_1">
   <g id="line2d_1">
    <path d="M 456.545455 77.74966 
L 460.130421 58.210512 
L 463.715387 35.296888 
L 467.300353 33.115864 
L 470.88532 27.251546 
L 478.055252 103.092006 
L 481.640218 151.273988 
L 485.225185 187.460335 
L 488.810151 165.524634 
L 492.395117 163.736065 
L 495.980084 129.585984 
L 499.56505 86.200326 
L 503.150016 38.787171 
L 506.734982 25.575567 
L 510.319949 33.749584 
L 513.904915 52.561723 
L 517.489881 75.195481 
L 521.074847 114.376716 
L 524.659814 138.239311 
L 528.24478 171.118736 
L 531.829746 182.065677 
L 535.414712 182.702614 
L 538.999679 140.034313 
L 542.584645 105.379186 
L 546.169611 56.335089 
L 549.754578 32.141158 
L 553.339544 30.928406 
L 556.92451 45.156534 
L 560.509476 67.262729 
L 564.094443 107.859378 
L 567.679409 142.14135 
L 571.264375 162.828913 
L 574.849341 160.782997 
L 578.434308 157.579014 
L 582.019274 135.720517 
L 589.189207 62.723753 
L 592.774173 41.888214 
L 596.359139 33.730282 
L 599.944105 36.924615 
L 603.529072 55.936199 
L 607.114038 95.014495 
L 610.699004 139.194715 
L 614.28397 167.174878 
L 617.868937 173.988167 
L 621.453903 155.954505 
L 625.038869 133.414035 
L 628.623836 94.901905 
L 632.208802 47.315041 
L 635.793768 41.399253 
L 639.378734 26.26719 
L 642.963701 33.636994 
L 646.548667 59.622709 
L 650.133633 83.585026 
L 653.718599 132.596955 
L 657.303566 162.037568 
L 660.888532 166.830675 
L 664.473498 172.157779 
L 668.058465 138.158889 
L 671.643431 105.56898 
L 675.228397 58.184777 
L 678.813363 38.269258 
L 682.39833 32.311652 
L 685.983296 45.516821 
L 689.568262 60.185658 
L 693.153228 106.858937 
L 696.738195 130.602508 
L 700.323161 166.943265 
L 703.908127 183.030732 
L 707.493093 166.10045 
L 711.07806 142.064146 
L 714.663026 94.811833 
L 718.247992 73.741465 
L 721.832959 51.928004 
L 725.417925 27.743724 
L 729.002891 32.353471 
L 732.587857 51.899052 
L 736.172824 92.666194 
L 739.75779 123.760268 
L 743.342756 163.941944 
L 746.927722 176.757875 
L 754.097655 141.179512 
L 757.682621 105.453174 
L 761.267588 64.026577 
L 764.852554 25.803964 
L 768.43752 26.357262 
L 772.022486 32.334169 
L 775.607453 47.048042 
L 779.192419 92.473183 
L 782.777385 129.051987 
L 786.362351 158.782116 
L 789.947318 170.89999 
L 793.532284 174.940354 
L 797.11725 165.296237 
L 800.702217 115.689191 
L 804.287183 84.994007 
L 807.872149 44.60967 
L 811.457115 45.349545 
L 815.042082 32.903552 
L 818.627048 63.312437 
L 822.212014 99.209268 
L 825.79698 139.606472 
L 829.381947 170.497884 
L 832.966913 188.248463 
L 836.551879 179.147994 
L 840.136845 158.357492 
L 843.721812 129.328636 
L 847.306778 90.652446 
L 850.891744 49.93034 
L 854.476711 26.299359 
L 858.061677 31.536391 
L 861.646643 35.493116 
L 865.231609 78.003791 
L 868.816576 119.137654 
L 872.401542 158.158047 
L 875.986508 178.572178 
L 879.571474 182.387362 
L 883.156441 148.864567 
L 886.741407 124.641685 
L 890.326373 79.995022 
L 893.91134 49.055357 
L 897.496306 35.332274 
L 901.081272 54.559387 
L 904.666238 52.719349 
L 908.251205 83.787688 
L 911.836171 111.378612 
L 919.006103 171.832877 
L 922.59107 179.035404 
L 926.176036 176.416888 
L 929.761002 128.739952 
L 933.345969 87.914907 
L 936.930935 59.548722 
L 940.515901 38.459052 
L 944.100867 44.072456 
L 947.685834 53.407755 
L 951.2708 84.579033 
L 954.855766 130.055644 
L 958.440732 152.567161 
L 962.025699 166.811374 
L 965.610665 173.495989 
L 969.195631 165.17078 
L 972.780597 122.882068 
L 976.365564 96.034236 
L 983.535496 37.921838 
L 987.120463 24.1119 
L 990.705429 39.382288 
L 994.290395 71.184069 
L 1001.460328 150.801111 
L 1005.045294 178.433854 
L 1008.63026 182.351977 
L 1012.215226 157.472858 
L 1019.385159 80.902173 
L 1022.970125 57.779454 
L 1026.555092 31.346596 
L 1030.140058 33.595175 
L 1033.725024 51.377922 
L 1037.30999 59.182001 
L 1040.894957 110.957204 
L 1044.479923 142.96808 
L 1048.064889 184.10516 
L 1051.649855 176.349335 
L 1055.234822 167.605936 
L 1058.819788 129.791862 
L 1062.404754 95.493806 
L 1065.989721 69.659282 
L 1069.574687 50.17482 
L 1073.159653 34.531278 
L 1076.744619 55.89438 
L 1080.329586 80.290972 
L 1083.914552 118.861005 
L 1087.499518 144.553988 
L 1091.084484 167.544816 
L 1094.669451 169.696888 
L 1098.254417 165.820584 
L 1101.839383 135.414916 
L 1105.42435 94.416161 
L 1109.009316 67.484691 
L 1112.594282 30.268952 
L 1116.179248 29.927966 
L 1119.764215 37.72561 
L 1123.349181 65.171776 
L 1126.934147 105.948569 
L 1130.519113 150.971604 
L 1134.10408 164.141388 
L 1137.689046 180.791805 
L 1141.274012 169.449191 
L 1144.858978 136.457176 
L 1148.443945 104.677913 
L 1152.028911 58.744509 
L 1155.613877 40.633643 
L 1159.198844 24.401417 
L 1162.78381 36.969651 
L 1166.368776 64.969114 
L 1169.953742 100.328731 
L 1173.538709 137.357894 
L 1177.123675 178.768406 
L 1180.708641 189.689612 
L 1184.293607 181.319368 
L 1187.878574 149.955079 
L 1191.46354 101.831 
L 1195.048506 73.439081 
L 1198.633473 49.563619 
L 1202.218439 34.582748 
L 1205.803405 52.346194 
L 1209.388371 68.105543 
L 1212.973338 116.030177 
L 1216.558304 140.957549 
L 1220.14327 164.70112 
L 1223.728236 190.628933 
L 1227.313203 184.857903 
L 1230.898169 166.444653 
L 1234.483135 124.413289 
L 1238.068102 68.382192 
L 1241.653068 50.290627 
L 1245.238034 41.112954 
L 1248.823 47.916592 
L 1252.407967 71.20337 
L 1255.992933 98.894016 
L 1259.577899 139.474581 
L 1263.162865 170.945026 
L 1266.747832 178.681551 
L 1270.332798 175.731699 
L 1273.917764 151.273988 
L 1277.50273 121.759387 
L 1281.087697 76.472571 
L 1288.257629 51.011202 
L 1291.842596 49.463897 
L 1295.427562 53.906367 
L 1299.012528 100.338382 
L 1302.597494 143.363753 
L 1306.182461 163.144165 
L 1309.767427 203.55102 
L 1313.352393 200.671939 
L 1316.937359 162.41394 
L 1320.522326 131.046434 
L 1324.107292 78.856257 
L 1327.692258 60.98022 
L 1331.277225 49.920689 
L 1334.862191 62.530742 
L 1338.447157 72.342135 
L 1342.032123 100.743705 
L 1345.61709 125.571355 
L 1349.202056 168.921628 
L 1352.787022 194.193202 
L 1356.371988 188.747075 
L 1359.956955 158.688827 
L 1363.541921 136.122623 
L 1367.126887 88.770589 
L 1370.711854 51.947305 
L 1374.29682 41.051833 
L 1377.881786 33.299225 
L 1385.051719 87.393777 
L 1388.636685 130.994964 
L 1392.221651 169.867382 
L 1395.806617 175.892542 
L 1399.391584 187.338095 
L 1402.97655 159.354715 
L 1406.561516 130.071728 
L 1410.146482 80.979378 
L 1413.731449 57.403083 
L 1417.316415 38.101982 
L 1420.901381 46.443274 
L 1424.486348 48.370168 
L 1428.071314 92.315558 
L 1431.65628 129.074505 
L 1435.241246 156.742633 
L 1438.826213 194.891259 
L 1442.411179 190.320115 
L 1445.996145 169.915634 
L 1449.581111 127.836017 
L 1453.166078 82.980258 
L 1456.751044 53.700488 
L 1460.33601 42.50585 
L 1463.920977 51.889402 
L 1467.505943 55.746405 
L 1471.090909 79.615433 
L 1474.675875 128.350713 
L 1478.260842 156.678296 
L 1481.845808 177.729363 
L 1485.430774 167.573767 
L 1489.01574 165.254418 
L 1492.600707 130.11033 
L 1496.185673 86.949852 
L 1499.770639 51.21708 
L 1503.355606 36.493557 
L 1506.940572 32.597951 
L 1510.525538 40.929593 
L 1514.110504 76.263475 
L 1517.695471 116.744318 
L 1521.280437 155.278966 
L 1524.865403 162.606951 
L 1528.450369 172.489114 
L 1532.035336 145.059033 
L 1535.620302 113.730129 
L 1539.205268 92.939627 
L 1542.790235 50.419301 
L 1546.375201 26.695031 
L 1549.960167 25.958372 
L 1553.545133 30.889804 
L 1557.1301 54.224835 
L 1560.715066 103.506979 
L 1564.300032 147.532791 
L 1567.884998 162.684155 
L 1571.469965 173.354447 
L 1575.054931 162.108339 
L 1578.639897 141.317836 
L 1582.224863 96.349488 
L 1585.80983 66.606491 
L 1589.394796 27.77911 
L 1592.979762 32.787745 
L 1596.564729 47.556304 
L 1600.149695 57.933863 
L 1603.734661 98.810378 
L 1607.319627 126.690819 
L 1610.904594 158.730646 
L 1614.48956 184.256352 
L 1618.074526 167.522298 
L 1621.659492 136.035768 
L 1625.244459 88.43282 
L 1628.829425 53.845247 
L 1632.414391 21.104146 
L 1635.999358 12.199904 
L 1639.584324 24.559043 
L 1646.754256 81.818976 
L 1650.339223 127.668741 
L 1653.924189 168.133499 
L 1657.509155 156.893825 
L 1661.094121 151.090627 
L 1664.679088 132.693461 
L 1668.264054 88.101484 
L 1671.84902 53.282298 
L 1675.433987 32.469277 
L 1679.018953 16.703494 
L 1682.603919 29.020814 
L 1686.188885 45.745218 
L 1689.773852 91.340852 
L 1693.358818 134.703992 
L 1696.943784 150.762508 
L 1700.52875 180.187037 
L 1704.113717 171.06405 
L 1707.698683 136.589067 
L 1711.283649 99.058076 
L 1714.868615 71.618344 
L 1718.453582 31.75192 
L 1722.038548 26.399081 
L 1725.623514 39.494878 
L 1729.208481 53.716573 
L 1732.793447 87.493499 
L 1736.378413 123.071862 
L 1739.963379 160.142843 
L 1743.548346 168.619244 
L 1747.133312 159.039464 
L 1750.718278 157.360268 
L 1754.303244 99.511652 
L 1757.888211 68.057291 
L 1761.473177 46.855031 
L 1765.058143 31.729402 
L 1768.64311 31.143935 
L 1772.228076 47.739665 
L 1775.813042 93.531527 
L 1779.398008 115.528348 
L 1782.982975 156.240804 
L 1786.567941 174.013901 
L 1790.152907 155.266099 
L 1793.737873 127.282719 
L 1797.32284 112.990254 
L 1800.907806 79.872781 
L 1808.077739 27.148607 
L 1811.662705 32.285917 
L 1815.247671 58.767027 
L 1818.832637 96.114658 
L 1822.417604 139.725495 
L 1826.00257 164.46629 
L 1829.587536 179.308837 
L 1833.172502 176.587382 
L 1836.757469 148.436726 
L 1840.342435 113.936008 
L 1843.927401 71.84674 
L 1847.512367 51.805764 
L 1851.097334 34.746807 
L 1854.6823 34.791843 
L 1858.267266 59.27529 
L 1861.852233 91.691489 
L 1865.437199 125.365476 
L 1869.022165 153.397109 
L 1872.607131 174.477128 
L 1876.192098 179.952207 
L 1879.777064 157.505026 
L 1883.36203 126.388435 
L 1886.946996 71.56044 
L 1890.531963 41.293097 
L 1894.116929 26.402298 
L 1897.701895 33.077262 
L 1901.286862 61.105677 
L 1904.871828 67.706654 
L 1908.456794 116.284308 
L 1912.04176 149.610876 
L 1915.626727 167.921187 
L 1919.211693 165.81415 
L 1922.796659 159.415835 
L 1926.381625 109.377731 
L 1929.966592 92.643676 
L 1933.551558 39.099205 
L 1937.136524 31.398066 
L 1940.721491 22.493825 
L 1944.306457 56.25145 
L 1947.891423 86.303265 
L 1951.476389 121.817291 
L 1955.061356 152.695835 
L 1958.646322 171.591613 
L 1962.231288 185.301829 
L 1965.816254 150.328234 
L 1969.401221 119.169823 
L 1972.986187 86.57348 
L 1976.571153 57.975682 
L 1980.156119 30.667841 
L 1983.741086 34.122738 
L 1987.326052 33.292791 
L 1990.911018 73.651393 
L 1994.495985 108.448061 
L 1998.080951 139.654725 
L 2001.665917 169.815912 
L 2005.250883 176.442623 
L 2008.83585 169.976754 
L 2012.420816 123.387113 
L 2016.005782 86.094169 
L 2019.590748 67.9254 
L 2023.175715 34.225677 
L 2026.760681 31.671498 
L 2030.345647 39.861599 
L 2033.930614 59.400747 
L 2037.51558 109.548224 
L 2041.100546 131.268396 
L 2044.685512 167.576984 
L 2048.270479 181.724691 
L 2051.855445 159.399751 
L 2059.025377 107.164538 
L 2062.610344 60.767908 
L 2066.19531 29.522642 
L 2069.780276 32.559349 
L 2073.365243 45.532906 
L 2076.950209 56.943073 
L 2080.535175 108.431977 
L 2084.120141 149.137999 
L 2087.705108 184.742097 
L 2091.290074 187.299493 
L 2094.87504 168.545256 
L 2098.460006 132.494016 
L 2102.044973 94.786099 
L 2105.629939 64.37078 
L 2109.214905 48.148205 
L 2112.799872 25.134859 
L 2116.384838 43.104184 
L 2119.969804 70.15146 
L 2127.139737 142.327927 
L 2130.724703 167.165227 
L 2134.309669 179.392475 
L 2137.894635 163.263188 
L 2141.479602 134.504548 
L 2145.064568 109.972848 
L 2148.649534 61.832685 
L 2152.2345 29.532293 
L 2155.819467 32.205495 
L 2159.404433 53.787343 
L 2162.989399 64.911211 
L 2166.574366 104.217903 
L 2170.159332 139.439196 
L 2173.744298 168.271824 
L 2177.329264 170.961111 
L 2180.914231 172.714294 
L 2184.499197 145.628416 
L 2188.084163 110.426424 
L 2191.669129 74.098535 
L 2195.254096 49.888521 
L 2198.839062 37.008253 
L 2202.424028 57.531757 
L 2206.008995 76.440402 
L 2209.593961 110.255931 
L 2213.178927 145.290646 
L 2216.763893 182.078545 
L 2220.34886 175.197702 
L 2223.933826 170.826003 
L 2227.518792 152.194007 
L 2234.688725 69.816908 
L 2238.273691 44.191479 
L 2241.858657 40.244404 
L 2245.443624 39.797262 
L 2249.02859 70.666156 
L 2252.613556 111.362528 
L 2256.198522 143.444174 
L 2259.783489 171.662384 
L 2263.368455 184.838602 
L 2266.953421 178.77484 
L 2270.538387 160.770129 
L 2274.123354 111.87079 
L 2277.70832 87.197549 
L 2281.293286 53.681187 
L 2284.878252 55.37325 
L 2288.463219 56.53775 
L 2292.048185 64.325744 
L 2295.633151 113.077109 
L 2299.218118 152.142537 
L 2302.803084 162.105122 
L 2306.38805 188.155175 
L 2309.973016 182.950311 
L 2313.557983 161.863858 
L 2320.727915 93.711671 
L 2324.312881 53.230828 
L 2327.897848 37.18518 
L 2331.482814 41.264146 
L 2335.06778 64.007276 
L 2338.652747 98.160574 
L 2342.237713 144.804902 
L 2345.822679 189.055893 
L 2349.407645 205.841417 
L 2352.992612 196.946826 
L 2356.577578 171.475807 
L 2360.162544 133.436553 
L 2363.74751 101.467496 
L 2367.332477 77.019435 
L 2370.917443 49.438162 
L 2374.502409 52.281857 
L 2378.087376 78.003791 
L 2381.672342 97.189086 
L 2388.842274 179.41821 
L 2392.427241 196.18765 
L 2396.012207 195.463858 
L 2399.597173 164.437338 
L 2403.182139 135.176869 
L 2406.767106 99.646759 
L 2410.352072 56.640689 
L 2413.937038 63.521532 
L 2417.522004 50.718468 
L 2421.106971 74.912398 
L 2424.691937 85.354294 
L 2428.276903 140.401034 
L 2431.86187 174.432092 
L 2435.446836 189.049459 
L 2439.031802 183.159406 
L 2442.616768 176.265697 
L 2446.201735 122.508913 
L 2449.786701 102.628779 
L 2453.371667 75.475347 
L 2456.956633 46.568731 
L 2460.5416 41.544011 
L 2464.126566 55.366817 
L 2467.711532 80.741331 
L 2471.296499 136.048636 
L 2474.881465 164.430905 
L 2478.466431 185.925898 
L 2482.051397 183.403887 
L 2485.636364 166.097233 
L 2489.22133 128.846108 
L 2492.806296 97.394964 
L 2496.391262 71.460718 
L 2499.976229 43.290761 
L 2503.561195 41.286663 
L 2507.146161 56.933423 
L 2510.731128 79.699071 
L 2514.316094 107.795041 
L 2517.90106 150.302499 
L 2521.486026 160.49348 
L 2525.070993 180.219205 
L 2528.655959 167.934055 
L 2532.240925 140.198372 
L 2535.825891 88.510024 
L 2539.410858 58.805629 
L 2542.995824 53.459225 
L 2546.58079 37.712743 
L 2550.165757 57.065314 
L 2553.750723 85.312475 
L 2557.335689 111.121264 
L 2560.920655 149.163734 
L 2564.505622 171.58518 
L 2568.090588 186.102824 
L 2571.675554 172.88157 
L 2575.26052 141.407908 
L 2578.845487 107.396151 
L 2582.430453 70.460278 
L 2586.015419 44.049938 
L 2589.600385 23.275519 
L 2593.185352 55.604864 
L 2596.770318 81.799674 
L 2600.355284 117.506711 
L 2603.940251 151.457348 
L 2607.525217 176.551996 
L 2611.110183 177.25327 
L 2614.695149 164.366568 
L 2618.280116 145.248827 
L 2621.865082 102.043313 
L 2629.035014 47.585256 
L 2632.619981 28.937176 
L 2636.204947 36.072149 
L 2639.789913 85.788569 
L 2643.37488 107.328597 
L 2646.959846 151.074543 
L 2650.544812 175.355328 
L 2654.129778 184.256352 
L 2657.714745 173.248291 
L 2661.299711 146.564519 
L 2664.884677 118.153298 
L 2668.469643 76.295644 
L 2672.05461 52.114581 
L 2675.639576 41.347784 
L 2679.224542 59.561589 
L 2682.809509 95.046663 
L 2686.394475 101.959674 
L 2689.979441 142.861924 
L 2693.564407 169.355902 
L 2697.149374 194.717549 
L 2700.73434 191.079292 
L 2704.319306 154.802872 
L 2707.904272 94.419378 
L 2711.489239 74.17574 
L 2715.074205 38.578076 
L 2718.659171 19.975031 
L 2722.244137 46.781044 
L 2725.829104 80.67056 
L 2729.41407 110.82853 
L 2732.999036 145.88898 
L 2736.584003 162.742058 
L 2740.168969 173.495989 
L 2743.753935 173.634313 
L 2747.338901 139.085342 
L 2754.508834 93.396419 
L 2758.0938 45.587592 
L 2761.678766 39.752226 
L 2765.263733 35.615357 
L 2768.848699 61.774782 
L 2772.433665 93.151939 
L 2776.018632 135.13505 
L 2779.603598 166.599062 
L 2783.188564 187.991115 
L 2786.77353 176.873681 
L 2790.358497 146.429411 
L 2793.943463 121.592111 
L 2797.528429 83.813423 
L 2801.113395 56.026271 
L 2804.698362 43.589928 
L 2808.283328 48.096735 
L 2811.868294 63.801398 
L 2815.453261 89.101924 
L 2819.038227 116.863341 
L 2822.623193 153.905371 
L 2826.208159 173.058497 
L 2829.793126 177.78405 
L 2833.378092 153.474313 
L 2836.963058 119.250244 
L 2840.548024 78.56674 
L 2844.132991 47.076994 
L 2847.717957 29.207391 
L 2851.302923 31.565342 
L 2854.887889 57.734418 
L 2858.472856 87.593222 
L 2862.057822 121.254342 
L 2865.642788 152.335548 
L 2869.227755 163.009057 
L 2872.812721 167.895452 
L 2876.397687 154.629162 
L 2879.982653 115.174495 
L 2883.56762 79.483542 
L 2887.152586 53.353068 
L 2890.737552 18.659339 
L 2894.322518 17.896946 
L 2897.907485 45.613327 
L 2905.077417 118.323791 
L 2908.662384 147.799789 
L 2912.24735 185.79079 
L 2915.832316 179.965074 
L 2919.417282 151.949526 
L 2923.002249 126.034581 
L 2930.172181 55.054782 
L 2933.757147 47.469449 
L 2937.342114 37.42001 
L 2940.92708 48.286529 
L 2944.512046 80.860354 
L 2948.097013 99.254303 
L 2951.681979 146.419761 
L 2955.266945 178.819876 
L 2958.851911 166.245208 
L 2962.436878 169.101771 
L 2966.021844 119.224509 
L 2973.191776 46.298516 
L 2976.776743 45.61011 
L 2980.361709 51.316802 
L 2983.946675 54.636592 
L 2991.116608 108.930589 
L 2994.701574 138.010914 
L 2998.28654 161.4328 
L 3001.871507 169.680804 
L 3005.456473 155.259665 
L 3009.041439 129.019818 
L 3012.626405 88.857444 
L 3016.211372 57.618612 
L 3019.796338 27.444557 
L 3023.381304 26.723983 
L 3026.96627 33.778535 
L 3030.551237 54.569038 
L 3034.136203 106.608023 
L 3037.721169 141.665256 
L 3041.306136 170.706979 
L 3044.891102 171.170206 
L 3048.476068 140.594045 
L 3055.646001 88.445687 
L 3059.230967 60.870847 
L 3062.815933 36.261944 
L 3066.400899 31.378765 
L 3069.985866 38.713183 
L 3073.570832 56.421944 
L 3077.155798 80.300622 
L 3080.740765 126.938516 
L 3084.325731 167.09124 
L 3087.910697 174.161876 
L 3091.495663 148.723025 
L 3095.08063 116.361513 
L 3098.665596 104.320843 
L 3102.250562 54.961494 
L 3105.835528 37.477913 
L 3109.420495 36.718736 
L 3113.005461 36.905314 
L 3116.590427 61.189315 
L 3120.175394 104.903092 
L 3123.76036 146.35864 
L 3127.345326 169.822346 
L 3130.930292 160.374457 
L 3134.515259 163.449765 
L 3141.685191 119.163389 
L 3145.270157 61.903456 
L 3148.855124 34.248195 
L 3152.44009 24.732753 
L 3156.025056 46.07977 
L 3159.610022 65.393739 
L 3163.194989 118.558621 
L 3166.779955 137.032992 
L 3170.364921 160.055989 
L 3173.949888 162.754926 
L 3177.534854 160.622154 
L 3181.11982 125.416946 
L 3184.704786 95.004844 
L 3188.289753 72.345352 
L 3191.874719 43.602796 
L 3195.459685 33.588741 
L 3199.044651 34.492676 
L 3202.629618 63.804615 
L 3206.214584 95.384433 
L 3209.79955 129.248214 
L 3213.384517 156.192551 
L 3216.969483 171.70742 
L 3220.554449 168.825122 
L 3224.139415 142.115615 
L 3227.724382 116.918028 
L 3231.309348 65.779761 
L 3234.894314 40.318392 
L 3238.47928 43.216774 
L 3242.064247 61.227918 
L 3245.649213 74.722604 
L 3249.234179 106.051508 
L 3252.819146 124.992322 
L 3256.404112 150.768942 
L 3259.989078 171.620565 
L 3263.574044 188.049019 
L 3267.159011 162.574782 
L 3270.743977 111.7582 
L 3274.328943 69.932714 
L 3277.913909 40.376295 
L 3281.498876 30.365457 
L 3285.083842 44.600019 
L 3288.668808 55.212408 
L 3292.253774 95.947382 
L 3299.423707 166.69235 
L 3303.008673 174.747343 
L 3306.59364 164.106003 
L 3310.178606 141.546233 
L 3313.763572 115.772829 
L 3317.348538 85.730665 
L 3320.933505 69.398717 
L 3324.518471 43.62853 
L 3328.103437 40.781618 
L 3331.688403 54.257003 
L 3335.27337 88.542192 
L 3338.858336 130.773001 
L 3342.443302 181.094189 
L 3346.028269 178.765189 
L 3349.613235 183.291297 
L 3353.198201 151.779033 
L 3356.783167 114.038947 
L 3360.368134 83.823073 
L 3363.9531 66.619359 
L 3367.538066 45.359196 
L 3371.123032 44.963523 
L 3374.707999 60.243562 
L 3378.292965 88.542192 
L 3381.877931 118.793451 
L 3385.462898 165.360574 
L 3389.047864 174.239081 
L 3392.63283 179.936123 
L 3396.217796 165.624356 
L 3399.802763 122.132542 
L 3403.387729 83.260124 
L 3406.972695 56.412293 
L 3410.557661 36.348798 
L 3414.142628 25.469411 
L 3417.727594 52.735433 
L 3421.31256 87.702595 
L 3424.897527 126.520326 
L 3428.482493 157.357051 
L 3432.067459 164.594964 
L 3435.652425 155.024835 
L 3439.237392 151.283638 
L 3442.822358 138.69932 
L 3446.407324 99.325074 
L 3449.99229 76.530474 
L 3453.577257 51.632054 
L 3457.162223 27.550713 
L 3460.747189 51.236381 
L 3464.332155 84.12224 
L 3467.917122 130.152149 
L 3471.502088 158.495816 
L 3475.087054 198.802949 
L 3478.672021 191.545735 
L 3482.256987 158.714562 
L 3485.841953 139.793049 
L 3489.426919 90.797204 
L 3493.011886 64.467286 
L 3496.596852 63.782097 
L 3500.181818 56.618171 
L 3503.766784 66.365227 
L 3507.351751 81.54876 
L 3510.936717 114.817425 
L 3514.521683 137.927276 
L 3518.10665 168.690014 
L 3521.691616 192.600862 
L 3525.276582 178.006012 
L 3528.861548 152.682968 
L 3532.446515 107.852944 
L 3536.031481 59.11123 
L 3539.616447 43.50629 
L 3543.201413 35.901656 
L 3546.78638 61.21505 
L 3550.371346 74.526376 
L 3553.956312 107.209574 
L 3557.541279 142.311843 
L 3561.126245 173.708301 
L 3564.711211 186.784797 
L 3568.296177 174.721608 
L 3571.881144 136.52473 
L 3575.46611 106.653059 
L 3579.051076 81.233509 
L 3582.636042 47.07056 
L 3586.221009 32.552915 
L 3589.805975 51.79933 
L 3593.390941 69.475921 
L 3596.975907 110.278449 
L 3600.560874 153.8346 
L 3604.14584 190.255778 
L 3607.730806 176.188492 
L 3611.315773 170.546137 
L 3618.485705 110.075787 
L 3622.070671 75.35954 
L 3625.655638 70.042087 
L 3629.240604 51.850799 
L 3632.82557 51.760728 
L 3636.410536 77.601685 
L 3639.995503 100.888463 
L 3643.580469 136.605151 
L 3647.165435 166.467171 
L 3650.750402 198.246434 
L 3654.335368 174.210129 
L 3657.920334 143.296199 
L 3661.5053 121.296161 
L 3665.090267 89.516898 
L 3668.675233 51.882968 
L 3672.260199 56.164596 
L 3675.845165 49.129344 
L 3679.430132 86.801876 
L 3683.015098 110.989373 
L 3690.185031 179.865352 
L 3693.769997 178.047831 
L 3697.354963 180.103399 
L 3700.939929 163.810053 
L 3704.524896 137.579856 
L 3708.109862 97.813155 
L 3711.694828 62.238009 
L 3715.279794 38.642413 
L 3718.864761 46.597683 
L 3722.449727 60.295031 
L 3726.034693 100.026348 
L 3729.619659 151.476649 
L 3733.204626 187.141867 
L 3736.789592 189.503035 
L 3740.374558 183.204442 
L 3747.544491 128.167353 
L 3751.129457 101.731278 
L 3758.29939 46.761742 
L 3761.884356 61.102461 
L 3765.469322 74.00203 
L 3769.054288 112.510943 
L 3772.639255 129.090589 
L 3776.224221 164.492025 
L 3779.809187 187.556841 
L 3783.394154 187.614744 
L 3786.97912 165.920306 
L 3790.564086 129.11954 
L 3794.149052 85.325342 
L 3797.734019 50.683083 
L 3801.318985 39.626769 
L 3804.903951 44.757645 
L 3808.488917 87.425945 
L 3812.073884 105.501427 
L 3815.65885 143.537463 
L 3819.243816 157.846012 
L 3822.828783 185.266443 
L 3826.413749 183.957185 
L 3829.998715 169.14359 
L 3833.583681 133.32718 
L 3837.168648 93.142288 
L 3840.753614 61.083159 
L 3844.33858 34.762891 
L 3847.923546 54.736314 
L 3851.508513 49.251584 
L 3855.093479 96.574667 
L 3858.678445 145.99192 
L 3862.263412 166.843542 
L 3865.848378 186.401991 
L 3869.433344 183.436056 
L 3873.01831 156.942078 
L 3876.603277 118.693729 
L 3880.188243 90.411182 
L 3883.773209 64.901561 
L 3887.358175 40.331259 
L 3890.943142 42.930474 
L 3894.528108 48.186807 
L 3898.113074 72.358219 
L 3901.69804 117.201111 
L 3905.283007 167.786079 
L 3908.867973 180.692082 
L 3912.452939 178.43707 
L 3916.037906 155.497712 
L 3923.207838 85.370378 
L 3926.792804 59.658095 
L 3930.377771 29.271728 
L 3933.962737 43.744337 
L 3937.547703 60.137405 
L 3941.132669 91.151058 
L 3944.717636 127.980775 
L 3948.302602 156.610742 
L 3951.887568 174.853499 
L 3955.472535 183.130455 
L 3962.642467 155.433375 
L 3966.227433 112.874447 
L 3969.8124 66.770551 
L 3973.397366 29.706003 
L 3976.982332 34.450857 
L 3980.567298 60.964136 
L 3984.152265 82.150311 
L 3987.737231 123.342078 
L 3991.322197 157.730206 
L 3994.907164 175.577291 
L 3998.49213 163.565572 
L 4002.077096 169.873815 
L 4005.662062 138.043083 
L 4009.247029 103.973423 
L 4012.831995 72.290665 
L 4016.416961 50.609095 
L 4020.001927 35.940258 
L 4023.586894 56.952724 
L 4027.17186 63.293135 
L 4030.756826 115.824299 
L 4034.341792 155.372255 
L 4037.926759 172.093442 
L 4041.511725 186.331221 
L 4045.096691 167.776429 
L 4048.681658 144.978612 
L 4052.266624 129.881934 
L 4055.85159 67.027899 
L 4059.436556 39.343686 
L 4063.021523 48.042049 
L 4066.606489 51.075539 
L 4070.191455 74.201474 
L 4073.776421 121.833375 
L 4077.361388 149.745984 
L 4080.946354 182.924576 
L 4084.53132 194.688597 
L 4088.116287 188.962604 
L 4091.701253 151.865888 
L 4095.286219 112.324366 
L 4098.871185 84.247697 
L 4102.456152 45.439617 
L 4106.041118 38.787171 
L 4109.626084 43.86336 
L 4116.796017 119.025065 
L 4120.380983 163.276056 
L 4123.965949 180.215989 
L 4127.550916 191.613289 
L 4131.135882 179.781714 
L 4134.720848 152.419186 
L 4138.305814 120.466213 
L 4141.890781 96.741944 
L 4145.475747 58.960038 
L 4149.060713 41.701637 
L 4152.645679 47.665677 
L 4156.230646 72.017233 
L 4159.815612 112.970953 
L 4163.400578 146.950541 
L 4166.985544 179.180163 
L 4170.570511 201.543705 
L 4174.155477 178.575395 
L 4177.740443 156.565706 
L 4181.32541 103.947688 
L 4184.910376 78.946328 
L 4188.495342 48.109603 
L 4192.080308 42.338573 
L 4195.665275 54.305256 
L 4199.250241 71.132599 
L 4210.00514 175.902192 
L 4213.590106 179.94899 
L 4217.175072 191.153279 
L 4220.760039 155.648904 
L 4224.345005 129.981656 
L 4227.929971 78.142116 
L 4231.514937 55.472973 
L 4235.099904 39.234313 
L 4238.68487 43.268243 
L 4242.269836 57.795539 
L 4245.854802 100.23866 
L 4249.439769 156.211853 
L 4253.024735 168.776869 
L 4256.609701 177.915941 
L 4260.194668 170.941809 
L 4263.779634 151.634275 
L 4267.3646 130.98853 
L 4270.949566 87.271537 
L 4274.534533 55.83326 
L 4278.119499 21.58989 
L 4281.704465 37.793164 
L 4285.289431 50.168387 
L 4288.874398 94.908339 
L 4292.459364 129.907669 
L 4296.04433 160.351939 
L 4299.629296 184.767831 
L 4303.214263 185.414418 
L 4310.384195 108.895203 
L 4313.969162 72.264931 
L 4317.554128 42.103743 
L 4321.139094 17.298612 
L 4324.72406 29.072283 
L 4328.309027 47.701063 
L 4335.478959 113.028856 
L 4339.063925 162.790311 
L 4342.648892 191.326989 
L 4346.233858 191.436362 
L 4349.818824 174.583284 
L 4353.403791 132.024356 
L 4360.573723 40.771967 
L 4364.158689 30.667841 
L 4367.743656 26.714332 
L 4371.328622 51.760728 
L 4374.913588 101.94359 
L 4378.498554 145.3582 
L 4382.083521 165.839885 
L 4385.668487 184.333557 
L 4389.253453 190.445572 
L 4392.83842 164.450206 
L 4403.593318 50.975816 
L 4407.178285 19.711249 
L 4410.763251 27.714773 
L 4414.348217 47.089861 
L 4417.933183 84.093289 
L 4421.51815 117.638602 
L 4425.103116 170.269488 
L 4428.688082 185.083083 
L 4432.273049 176.683887 
L 4435.858015 152.544643 
L 4439.442981 99.936276 
L 4443.027947 69.450187 
L 4446.612914 47.903724 
L 4453.782846 21.982346 
L 4457.367812 46.822863 
L 4460.952779 73.860488 
L 4464.537745 119.211642 
L 4468.122711 150.167391 
L 4471.707677 171.388952 
L 4475.292644 182.548205 
L 4478.87761 163.7618 
L 4482.462576 131.329517 
L 4486.047543 75.832417 
L 4489.632509 47.06091 
L 4493.217475 24.559043 
L 4496.802441 19.617961 
L 4500.387408 50.496506 
L 4503.972374 88.38135 
L 4507.55734 128.723868 
L 4511.142306 159.853327 
L 4514.727273 171.691336 
L 4518.312239 167.451527 
L 4521.897205 156.070311 
L 4525.482172 127.35349 
L 4529.067138 89.294935 
L 4532.652104 52.642145 
L 4536.23707 23.352724 
L 4539.822037 10.324481 
L 4543.407003 25.199196 
L 4546.991969 67.770991 
L 4550.576935 126.330531 
L 4554.161902 156.1636 
L 4557.746868 168.162451 
L 4561.331834 166.315979 
L 4564.916801 151.750081 
L 4568.501767 123.721666 
L 4575.671699 42.634524 
L 4579.256666 20.634485 
L 4582.841632 20.399655 
L 4586.426598 44.040287 
L 4590.011564 76.382499 
L 4593.596531 96.671173 
L 4597.181497 129.061637 
L 4600.766463 178.121819 
L 4604.351429 182.680096 
L 4607.936396 172.894438 
L 4611.521362 127.462863 
L 4615.106328 90.652446 
L 4618.691295 52.185352 
L 4622.276261 19.560057 
L 4625.861227 26.202853 
L 4629.446193 52.889842 
L 4633.03116 75.986826 
L 4636.616126 115.155194 
L 4640.201092 151.592456 
L 4643.786058 163.481934 
L 4647.371025 168.686798 
L 4650.955991 150.891182 
L 4654.540957 121.254342 
L 4658.125924 90.095931 
L 4661.71089 50.779588 
L 4665.295856 22.921666 
L 4668.880822 14.310158 
L 4672.465789 26.395864 
L 4676.050755 63.14516 
L 4679.635721 113.244385 
L 4683.220687 145.676668 
L 4686.805654 173.621446 
L 4690.39062 178.012446 
L 4693.975586 155.99954 
L 4701.145519 80.4872 
L 4704.730485 49.084308 
L 4708.315451 31.494572 
L 4711.900418 24.674849 
L 4715.485384 24.903246 
L 4719.07035 56.058439 
L 4722.655316 83.604327 
L 4726.240283 124.85078 
L 4729.825249 157.170474 
L 4733.410215 186.379473 
L 4736.995181 170.591173 
L 4740.580148 148.172944 
L 4744.165114 106.244519 
L 4747.75008 74.404136 
L 4751.335047 33.33461 
L 4754.920013 22.873413 
L 4758.504979 30.275385 
L 4762.089945 65.734725 
L 4765.674912 103.921953 
L 4769.259878 125.574572 
L 4772.844844 154.159502 
L 4776.42981 177.176065 
L 4780.014777 158.473298 
L 4787.184709 111.526587 
L 4790.769676 68.22135 
L 4794.354642 27.865965 
L 4797.939608 17.03483 
L 4801.524574 24.848559 
L 4805.109541 50.57371 
L 4808.694507 100.331948 
L 4812.279473 136.405706 
L 4815.864439 168.934495 
L 4819.449406 169.851297 
L 4823.034372 155.430158 
L 4826.619338 126.751939 
L 4830.204305 86.734323 
L 4833.789271 53.697271 
L 4837.374237 29.960134 
L 4840.959203 17.38225 
L 4844.54417 18.633605 
L 4848.129136 32.11864 
L 4851.714102 68.565553 
L 4855.299068 120.080191 
L 4858.884035 149.993681 
L 4862.469001 165.492465 
L 4866.053967 165.2319 
L 4869.638934 148.057137 
L 4876.808866 73.722164 
L 4880.393832 24.488272 
L 4883.978799 14.692963 
L 4887.563765 19.698382 
L 4891.148731 51.014418 
L 4894.733697 78.901292 
L 4898.318664 115.528348 
L 4901.90363 139.439196 
L 4905.488596 151.177482 
L 4909.073562 149.569057 
L 4912.658529 139.895989 
L 4916.243495 95.583877 
L 4919.828461 71.341695 
L 4923.413428 27.274064 
L 4926.998394 13.12314 
L 4930.58336 13.255031 
L 4934.168326 43.560977 
L 4937.753293 86.653901 
L 4941.338259 119.526893 
L 4944.923225 153.757396 
L 4948.508191 169.6036 
L 4952.093158 148.420641 
L 4955.678124 130.412714 
L 4959.26309 109.384165 
L 4962.848057 76.282776 
L 4966.433023 48.151422 
L 4970.017989 35.210034 
L 4973.602955 27.177559 
L 4977.187922 39.131374 
L 4980.772888 63.769229 
L 4984.357854 105.057501 
L 4987.94282 132.770665 
L 4991.527787 157.791326 
L 4995.112753 168.609593 
L 4998.697719 135.7173 
L 5002.282686 120.434045 
L 5005.867652 63.688808 
L 5009.452618 29.799292 
L 5013.037584 10.08 
L 5016.622551 19.695165 
L 5020.207517 48.370168 
L 5023.792483 63.174112 
L 5027.377449 94.297137 
L 5030.962416 123.863207 
L 5034.547382 141.304969 
L 5038.132348 152.239043 
L 5041.717314 141.218114 
L 5045.302281 117.638602 
L 5048.887247 83.372714 
L 5052.472213 39.797262 
L 5056.05718 16.320689 
L 5059.642146 12.129134 
L 5063.227112 40.717281 
L 5066.812078 60.957702 
L 5070.397045 121.190005 
L 5073.982011 139.728712 
L 5077.566977 154.461886 
L 5081.151943 159.692484 
L 5084.73691 147.1146 
L 5088.321876 108.66359 
L 5091.906842 79.991805 
L 5095.491809 58.204079 
L 5099.076775 28.95326 
L 5102.661741 19.926778 
L 5106.246707 25.726759 
L 5109.831674 58.46786 
L 5113.41664 103.223897 
L 5117.001606 144.158315 
L 5120.586572 176.654935 
L 5124.171539 168.844423 
L 5127.756505 169.629335 
L 5131.341471 124.352169 
L 5134.926438 91.778344 
L 5138.511404 52.828722 
L 5142.09637 34.483025 
L 5145.681336 33.546922 
L 5149.266303 47.916592 
L 5152.851269 75.594371 
L 5156.436235 110.574399 
L 5163.606168 173.013461 
L 5167.191134 177.915941 
L 5170.7761 170.999713 
L 5174.361066 139.799483 
L 5177.946033 97.649095 
L 5181.530999 58.850665 
L 5185.115965 43.869794 
L 5188.700932 32.34382 
L 5192.285898 32.955022 
L 5195.870864 74.989603 
L 5199.45583 111.134131 
L 5203.040797 163.417597 
L 5206.625763 176.564864 
L 5210.210729 178.343782 
L 5213.795695 171.446855 
L 5220.965628 108.152111 
L 5224.550594 83.453135 
L 5228.135561 48.154639 
L 5231.720527 44.107841 
L 5235.305493 53.803427 
L 5238.890459 69.241091 
L 5242.475426 100.885247 
L 5246.060392 138.467707 
L 5249.645358 167.165227 
L 5253.230324 178.221541 
L 5256.815291 185.835826 
L 5260.400257 139.944241 
L 5263.985223 106.984394 
L 5267.57019 65.828013 
L 5271.155156 58.11079 
L 5274.740122 43.020546 
L 5278.325088 49.312705 
L 5281.910055 62.678717 
L 5285.495021 102.191288 
L 5289.079987 136.225562 
L 5296.24992 172.794715 
L 5299.834886 178.244059 
L 5303.419852 155.578133 
L 5307.004819 128.913662 
L 5310.589785 81.259244 
L 5314.174751 32.080038 
L 5317.759717 28.924308 
L 5321.344684 34.647085 
L 5324.92965 67.629449 
L 5328.514616 108.821216 
L 5332.099582 129.698573 
L 5335.684549 163.176333 
L 5339.269515 166.277377 
L 5342.854481 171.6463 
L 5346.439447 150.045151 
L 5350.024414 120.659225 
L 5353.60938 89.639138 
L 5357.194346 56.679292 
L 5360.779313 39.099205 
L 5364.364279 45.565074 
L 5367.949245 64.106999 
L 5371.534211 102.393949 
L 5375.119178 152.776257 
L 5378.704144 169.413806 
L 5382.28911 194.556707 
L 5385.874076 186.212197 
L 5389.459043 171.205591 
L 5396.628975 83.105716 
L 5400.213942 54.990445 
L 5403.798908 50.541541 
L 5407.383874 53.529995 
L 5410.96884 77.141675 
L 5414.553807 104.758334 
L 5418.138773 131.258746 
L 5421.723739 166.203389 
L 5425.308705 182.570723 
L 5428.893672 182.744433 
L 5432.478638 165.254418 
L 5436.063604 127.421044 
L 5439.648571 87.680077 
L 5443.233537 68.362891 
L 5446.818503 38.642413 
L 5453.988436 73.995596 
L 5457.573402 94.702461 
L 5461.158368 143.859148 
L 5464.743334 158.315673 
L 5468.328301 171.057616 
L 5471.913267 170.208368 
L 5475.498233 155.874083 
L 5479.083199 134.935606 
L 5482.668166 100.129287 
L 5486.253132 81.744988 
L 5489.838098 54.253787 
L 5493.423065 55.296046 
L 5497.008031 68.041206 
L 5500.592997 92.048559 
L 5511.347896 196.586539 
L 5514.932862 187.901044 
L 5518.517828 167.689574 
L 5522.102795 130.255089 
L 5525.687761 86.669986 
L 5529.272727 55.997319 
L 5532.857694 46.674888 
L 5536.44266 48.18359 
L 5540.027626 64.679598 
L 5543.612592 86.171374 
L 5547.197559 119.147305 
L 5550.782525 154.81574 
L 5554.367491 169.214361 
L 5557.952457 188.878966 
L 5561.537424 158.431479 
L 5565.12239 135.083581 
L 5568.707356 87.364825 
L 5572.292323 67.951135 
L 5575.877289 39.675022 
L 5579.462255 43.21999 
L 5583.047221 44.37484 
L 5586.632188 77.112724 
L 5590.217154 127.06719 
L 5593.80212 133.356132 
L 5597.387086 175.004691 
L 5600.972053 181.914485 
L 5604.557019 160.876285 
L 5608.141985 140.989718 
L 5611.726951 110.152992 
L 5615.311918 69.993834 
L 5618.896884 52.101714 
L 5622.48185 50.888961 
L 5626.066817 56.341522 
L 5629.651783 79.364519 
L 5633.236749 119.674868 
L 5636.821715 154.262441 
L 5640.406682 198.394409 
L 5643.991648 184.21775 
L 5647.576614 183.918583 
L 5651.16158 142.543456 
L 5654.746547 99.518085 
L 5658.331513 68.382192 
L 5661.916479 43.673566 
L 5665.501446 57.81484 
L 5669.086412 55.71102 
L 5672.671378 79.448157 
L 5676.256344 107.341465 
L 5679.841311 142.832973 
L 5683.426277 165.868837 
L 5687.011243 173.766204 
L 5690.596209 167.551249 
L 5694.181176 149.015759 
L 5697.766142 108.644289 
L 5701.351108 60.938401 
L 5704.936075 41.177291 
L 5708.521041 22.992437 
L 5712.106007 42.718162 
L 5715.690973 68.269603 
L 5719.27594 103.745026 
L 5722.860906 137.673145 
L 5726.445872 169.343035 
L 5730.030838 179.936123 
L 5733.615805 169.484576 
L 5737.200771 144.293423 
L 5740.785737 106.714179 
L 5744.370704 76.35033 
L 5747.95567 57.721551 
L 5751.540636 43.946999 
L 5755.125602 46.880766 
L 5758.710569 64.367563 
L 5762.295535 93.486491 
L 5765.880501 146.570953 
L 5769.465467 176.934801 
L 5773.050434 189.264988 
L 5776.6354 174.467477 
L 5780.220366 153.641589 
L 5783.805332 125.246453 
L 5787.390299 79.728023 
L 5790.975265 52.236821 
L 5794.560231 46.411106 
L 5798.145198 49.40921 
L 5801.730164 77.431192 
L 5805.31513 90.639579 
L 5808.900096 131.39707 
L 5812.485063 166.058631 
L 5816.070029 182.368061 
L 5819.654995 186.302269 
L 5823.239961 175.200919 
L 5830.409894 75.861369 
L 5833.99486 55.804308 
L 5837.579827 42.753547 
L 5844.749759 52.954179 
L 5848.334725 118.568272 
L 5851.919692 138.017348 
L 5855.504658 156.189335 
L 5859.089624 176.02765 
L 5862.67459 170.735931 
L 5866.259557 156.478851 
L 5869.844523 112.285764 
L 5873.429489 85.254572 
L 5877.014456 40.807353 
L 5880.599422 40.533921 
L 5884.184388 46.912934 
L 5887.769354 53.72944 
L 5891.354321 94.306788 
L 5894.939287 107.901197 
L 5898.524253 170.494667 
L 5902.109219 186.96494 
L 5905.694186 183.738439 
L 5909.279152 158.621273 
L 5912.864118 128.768904 
L 5920.034051 53.214744 
L 5927.203983 39.539914 
L 5930.78895 71.418899 
L 5934.373916 98.95192 
L 5937.958882 114.675883 
L 5941.543848 153.091508 
L 5945.128815 166.949698 
L 5948.713781 167.728176 
L 5952.298747 166.065065 
L 5955.883713 134.729727 
L 5963.053646 42.68921 
L 5966.638612 40.688329 
L 5970.223579 41.598698 
L 5973.808545 62.630464 
L 5977.393511 86.570263 
L 5980.978477 124.706022 
L 5988.14841 161.680498 
L 5991.733376 171.327831 
L 5995.318342 158.933308 
L 5998.903309 121.826941 
L 6002.488275 101.827784 
L 6006.073241 63.582652 
L 6009.658208 47.961628 
L 6013.243174 37.632322 
L 6016.82814 35.042757 
L 6020.413106 84.984356 
L 6023.998073 109.699416 
L 6027.583039 156.414514 
L 6031.168005 184.491182 
L 6034.752971 185.005878 
L 6038.337938 166.666616 
L 6041.922904 135.115749 
L 6045.50787 90.948396 
L 6049.092836 56.676075 
L 6052.677803 45.584375 
L 6056.262769 34.869047 
L 6059.847735 41.103303 
L 6063.432702 57.071747 
L 6067.017668 112.707171 
L 6070.602634 151.071326 
L 6074.1876 169.252963 
L 6077.772567 186.569268 
L 6081.357533 169.938152 
L 6088.527465 106.267037 
L 6092.112432 60.204959 
L 6095.697398 31.632896 
L 6099.282364 29.847544 
L 6102.867331 47.482317 
L 6106.452297 74.529593 
L 6110.037263 121.865543 
L 6113.622229 147.848042 
L 6117.207196 177.912724 
L 6120.792162 174.92427 
L 6124.377128 165.286587 
L 6127.962094 135.833107 
L 6131.547061 98.401838 
L 6135.132027 79.33235 
L 6138.716993 46.491527 
L 6142.30196 38.002259 
L 6145.886926 47.231403 
L 6149.471892 71.171202 
L 6153.056858 111.661695 
L 6156.641825 156.858439 
L 6160.226791 177.648942 
L 6163.811757 176.706405 
L 6167.396723 172.070924 
L 6170.98169 151.727563 
L 6174.566656 89.639138 
L 6178.151622 71.174418 
L 6181.736588 54.906807 
L 6185.321555 53.150407 
L 6188.906521 58.783112 
L 6192.491487 80.821752 
L 6196.076454 104.877358 
L 6199.66142 148.484978 
L 6203.246386 180.154868 
L 6206.831352 182.972829 
L 6210.416319 181.493078 
L 6214.001285 164.980986 
L 6217.586251 127.00607 
L 6221.171217 72.699205 
L 6224.756184 46.240613 
L 6228.34115 37.107975 
L 6231.926116 54.623724 
L 6235.511083 87.908473 
L 6239.096049 122.730876 
L 6246.265981 175.551556 
L 6249.850948 187.49572 
L 6253.435914 177.874122 
L 6257.02088 152.245476 
L 6260.605846 130.586424 
L 6264.190813 86.872647 
L 6267.775779 60.404404 
L 6271.360745 37.374974 
L 6274.945712 39.501312 
L 6278.530678 69.32473 
L 6282.115644 101.483581 
L 6285.70061 146.802566 
L 6292.870543 195.274064 
L 6296.455509 174.602585 
L 6300.040475 144.849938 
L 6303.625442 110.789928 
L 6307.210408 73.091661 
L 6310.795374 56.042355 
L 6314.380341 34.769325 
L 6317.965307 41.534361 
L 6321.550273 56.216065 
L 6325.135239 93.837128 
L 6328.720206 133.346482 
L 6332.305172 167.078372 
L 6335.890138 171.662384 
L 6339.475104 198.404059 
L 6343.060071 141.665256 
L 6346.645037 103.616352 
L 6350.230003 69.839426 
L 6353.814969 37.13371 
L 6357.399936 31.16967 
L 6360.984902 37.474696 
L 6364.569868 49.772714 
L 6368.154835 87.956726 
L 6371.739801 138.062384 
L 6375.324767 159.953049 
L 6378.909733 175.072245 
L 6382.4947 175.136582 
L 6386.079666 163.694246 
L 6389.664632 123.634811 
L 6393.249598 92.260871 
L 6396.834565 53.507477 
L 6400.419531 25.861867 
L 6404.004497 29.509775 
L 6407.589464 54.073643 
L 6411.17443 85.315692 
L 6414.759396 139.735146 
L 6418.344362 171.0737 
L 6421.929329 175.927927 
L 6425.514295 180.07123 
L 6429.099261 144.032858 
L 6432.684227 119.201991 
L 6436.269194 88.91213 
L 6439.85416 57.18112 
L 6443.439126 30.246434 
L 6447.024093 31.864509 
L 6450.609059 47.324691 
L 6454.194025 84.517913 
L 6457.778991 114.003562 
L 6461.363958 164.566012 
L 6464.948924 179.543667 
L 6468.53389 178.704069 
L 6472.118856 160.210397 
L 6475.703823 122.914236 
L 6479.288789 81.449038 
L 6482.873755 45.056812 
L 6486.458721 30.889804 
L 6490.043688 19.865658 
L 6493.628654 54.829603 
L 6497.21362 81.677434 
L 6500.798587 121.897712 
L 6504.383553 154.368597 
L 6507.968519 181.354753 
L 6511.553485 176.146673 
L 6515.138452 178.932465 
L 6518.723418 145.354983 
L 6522.308384 99.029124 
L 6525.89335 70.489229 
L 6529.478317 49.70516 
L 6533.063283 32.009268 
L 6536.648249 47.157415 
L 6540.233216 83.35663 
L 6543.818182 128.694916 
L 6547.403148 150.501944 
L 6550.988114 188.270981 
L 6554.573081 185.810091 
L 6558.158047 171.115519 
L 6561.743013 133.713202 
L 6565.327979 94.950158 
L 6568.912946 66.81237 
L 6572.497912 45.233739 
L 6576.082878 29.529076 
L 6579.667845 50.071881 
L 6583.252811 67.835328 
L 6586.837777 113.170397 
L 6590.422743 147.220756 
L 6594.00771 176.0373 
L 6597.592676 184.941541 
L 6601.177642 170.501101 
L 6604.762608 129.63102 
L 6608.347575 95.715768 
L 6611.932541 56.084174 
L 6615.517507 23.664758 
L 6619.102473 22.596764 
L 6622.68744 45.857808 
L 6626.272406 74.796592 
L 6629.857372 121.434485 
L 6633.442339 144.730914 
L 6637.027305 175.204136 
L 6640.612271 162.899684 
L 6644.197237 159.38045 
L 6647.782204 133.713202 
L 6651.36717 100.193624 
L 6654.952136 63.60517 
L 6658.537102 39.182843 
L 6662.122069 18.488846 
L 6665.707035 34.939818 
L 6669.292001 60.362585 
L 6672.876968 108.412676 
L 6676.461934 164.434122 
L 6680.0469 170.600823 
L 6683.631866 180.080881 
L 6687.216833 162.886817 
L 6690.801799 136.399272 
L 6694.386765 108.467362 
L 6697.971731 45.902843 
L 6701.556698 46.337118 
L 6705.141664 44.326587 
L 6708.72663 39.443408 
L 6712.311597 62.292695 
L 6715.896563 94.64134 
L 6719.481529 132.925074 
L 6723.066495 164.421254 
L 6726.651462 184.433279 
L 6730.236428 169.404155 
L 6733.821394 149.662346 
L 6737.40636 106.022556 
L 6740.991327 59.420048 
L 6744.576293 38.056946 
L 6748.161259 31.903112 
L 6751.746226 37.18518 
L 6755.331192 56.470196 
L 6758.916158 109.126817 
L 6762.501124 128.154485 
L 6766.086091 161.519655 
L 6769.671057 187.524672 
L 6773.256023 169.359119 
L 6776.840989 156.916343 
L 6780.425956 126.861312 
L 6784.010922 64.029794 
L 6787.595888 48.749756 
L 6791.180854 28.879272 
L 6794.765821 27.96247 
L 6798.350787 47.138114 
L 6801.935753 114.73057 
L 6805.52072 140.301312 
L 6809.105686 174.715175 
L 6812.690652 184.471881 
L 6816.275618 158.09371 
L 6819.860585 145.882547 
L 6827.030517 63.598736 
L 6830.615483 51.940871 
L 6834.20045 37.963657 
L 6837.785416 25.839349 
L 6841.370382 49.981809 
L 6844.955349 85.33821 
L 6848.540315 124.38112 
L 6852.125281 161.998966 
L 6855.710247 173.869143 
L 6859.295214 172.460163 
L 6862.88018 137.148798 
L 6866.465146 108.721494 
L 6870.050112 62.981101 
L 6873.635079 46.745658 
L 6877.220045 13.985256 
L 6880.805011 21.560938 
L 6887.974944 81.979818 
L 6895.144876 153.628722 
L 6898.729843 156.131431 
L 6902.314809 162.124423 
L 6905.899775 161.519655 
L 6909.484741 113.569287 
L 6913.069708 86.653901 
L 6916.654674 46.227745 
L 6920.23964 31.70045 
L 6923.824606 28.802068 
L 6927.409573 43.91483 
L 6930.994539 78.750101 
L 6934.579505 136.621235 
L 6938.164472 164.035232 
L 6941.749438 173.717951 
L 6945.334404 161.574342 
L 6948.91937 154.452236 
L 6952.504337 119.29528 
L 6956.089303 76.27956 
L 6959.674269 64.30966 
L 6963.259235 46.063686 
L 6966.844202 30.500565 
L 6970.429168 41.399253 
L 6974.014134 61.507784 
L 6977.599101 122.077855 
L 6981.184067 155.291833 
L 6984.769033 182.274773 
L 6988.353999 173.17752 
L 6991.938966 157.733423 
L 6999.108898 81.526242 
L 7002.693864 46.42719 
L 7006.278831 17.900163 
L 7009.863797 33.701331 
L 7013.448763 54.807085 
L 7017.03373 93.261312 
L 7020.618696 120.006204 
L 7024.203662 143.917051 
L 7027.788628 165.061407 
L 7031.373595 180.029411 
L 7034.958561 156.244021 
L 7038.543527 136.341369 
L 7042.128493 111.391479 
L 7045.71346 53.526778 
L 7049.298426 29.226692 
L 7052.883392 31.909545 
L 7056.468358 43.97595 
L 7060.053325 74.497425 
L 7063.638291 125.072743 
L 7067.223257 161.809172 
L 7070.808224 166.3964 
L 7074.39319 177.311173 
L 7077.978156 159.0845 
L 7081.563122 126.59753 
L 7085.148089 88.731987 
L 7088.733055 63.367123 
L 7092.318021 44.776946 
L 7095.902987 17.288961 
L 7099.487954 35.943475 
L 7103.07292 63.238449 
L 7106.657886 98.434007 
L 7110.242853 150.887966 
L 7113.827819 175.873241 
L 7117.412785 188.560498 
L 7120.997751 174.152226 
L 7124.582718 139.622556 
L 7128.167684 74.799809 
L 7131.75265 50.51259 
L 7135.337616 31.674715 
L 7138.922583 30.104892 
L 7142.507549 45.748435 
L 7146.092515 74.417003 
L 7149.677482 118.458899 
L 7153.262448 142.389047 
L 7156.847414 172.508416 
L 7160.43238 181.554198 
L 7164.017347 164.553145 
L 7167.602313 148.542882 
L 7171.187279 122.100373 
L 7174.772245 67.983303 
L 7178.357212 36.104318 
L 7181.942178 22.310464 
L 7185.527144 34.859397 
L 7189.112111 77.173844 
L 7192.697077 115.859684 
L 7196.282043 159.975567 
L 7199.867009 175.188052 
L 7203.451976 186.884519 
L 7207.036942 163.079828 
L 7210.621908 127.556151 
L 7214.206874 98.212044 
L 7217.791841 72.544797 
L 7221.376807 44.976391 
L 7224.961773 29.815376 
L 7228.546739 30.416927 
L 7232.131706 50.760287 
L 7235.716672 115.303169 
L 7239.301638 148.74876 
L 7242.886605 173.859493 
L 7246.471571 185.961283 
L 7250.056537 179.94899 
L 7253.641503 156.353394 
L 7257.22647 102.104433 
L 7260.811436 65.815146 
L 7264.396402 36.554677 
L 7267.981368 33.98763 
L 7271.566335 47.134897 
L 7275.151301 62.189756 
L 7278.736267 112.517377 
L 7282.321234 146.892638 
L 7285.9062 169.590732 
L 7289.491166 183.902499 
L 7293.076132 168.567774 
L 7296.661099 155.085955 
L 7300.246065 115.907937 
L 7303.831031 80.278104 
L 7307.415997 48.93955 
L 7311.000964 24.189105 
L 7314.58593 49.492848 
L 7318.170896 71.132599 
L 7321.755863 112.75864 
L 7328.925795 185.987018 
L 7332.510761 193.424375 
L 7336.095728 169.259397 
L 7339.680694 143.498861 
L 7343.26566 122.679406 
L 7346.850626 77.04517 
L 7350.435593 65.06562 
L 7354.020559 38.510522 
L 7357.605525 49.309488 
L 7361.190491 61.488483 
L 7364.775458 90.803638 
L 7371.94539 185.938765 
L 7375.530357 195.570014 
L 7379.115323 190.191441 
L 7382.700289 155.031269 
L 7386.285255 115.296735 
L 7389.870222 73.397262 
L 7393.455188 54.195883 
L 7397.040154 33.521187 
L 7400.62512 52.876975 
L 7404.210087 73.387611 
L 7407.795053 103.246415 
L 7411.380019 137.743916 
L 7414.964986 169.693672 
L 7418.549952 193.167027 
L 7422.134918 186.363389 
L 7425.719884 167.467611 
L 7429.304851 129.357587 
L 7432.889817 99.675711 
L 7436.474783 51.715692 
L 7440.059749 32.588301 
L 7443.644716 29.159138 
L 7447.229682 61.723313 
L 7454.399615 149.257022 
L 7457.984581 169.301216 
L 7461.569547 192.909679 
L 7465.154513 189.969478 
L 7468.73948 154.423284 
L 7475.909412 95.413384 
L 7479.494378 70.688674 
L 7483.079345 42.287104 
L 7486.664311 50.145869 
L 7490.249277 45.55864 
L 7493.834243 92.630809 
L 7497.41921 145.387152 
L 7501.004176 169.002049 
L 7504.589142 197.89258 
L 7508.174109 199.507439 
L 7511.759075 170.070043 
L 7515.344041 127.742729 
L 7518.929007 87.21685 
L 7522.513974 58.091489 
L 7526.09894 43.795807 
L 7529.683906 47.446932 
L 7533.268872 70.02922 
L 7536.853839 100.956017 
L 7540.438805 130.734399 
L 7544.023771 164.800843 
L 7547.608738 184.796783 
L 7551.193704 201.209153 
L 7554.77867 176.745007 
L 7558.363636 140.632647 
L 7561.948603 107.061599 
L 7565.533569 48.711154 
L 7569.118535 34.618133 
L 7572.703501 39.642853 
L 7576.288468 62.733404 
L 7579.873434 88.809191 
L 7583.4584 141.111958 
L 7587.043367 170.591173 
L 7590.628333 189.940527 
L 7594.213299 174.354888 
L 7597.798265 166.769555 
L 7601.383232 148.533231 
L 7604.968198 96.182212 
L 7608.553164 70.360555 
L 7612.13813 36.088234 
L 7615.723097 32.868167 
L 7619.308063 27.904567 
L 7622.893029 68.401494 
L 7626.477996 118.639043 
L 7630.062962 165.56967 
L 7633.647928 193.630254 
L 7637.232894 191.484615 
L 7640.817861 177.526702 
L 7647.987793 98.800728 
L 7651.572759 69.440536 
L 7655.157726 52.774035 
L 7658.742692 43.91483 
L 7662.327658 62.180105 
L 7665.912624 73.599923 
L 7669.497591 116.416199 
L 7673.082557 153.345639 
L 7676.667523 176.587382 
L 7680.25249 195.505677 
L 7683.837456 184.047257 
L 7687.422422 158.656659 
L 7691.007388 96.201513 
L 7694.592355 73.432647 
L 7698.177321 51.924787 
L 7701.762287 26.38943 
L 7705.347253 61.990311 
L 7708.93222 84.479311 
L 7712.517186 125.838353 
L 7716.102152 161.374897 
L 7719.687119 181.152092 
L 7723.272085 171.816793 
L 7726.857051 188.837147 
L 7730.442017 151.335108 
L 7734.026984 111.664911 
L 7737.61195 75.864586 
L 7741.196916 46.221312 
L 7744.781882 39.572082 
L 7748.366849 42.007238 
L 7751.951815 74.722604 
L 7755.536781 117.123906 
L 7759.121748 153.162279 
L 7762.706714 170.555787 
L 7766.29168 186.366606 
L 7769.876646 175.342461 
L 7773.461613 150.807544 
L 7777.046579 103.294667 
L 7780.631545 67.832111 
L 7784.216511 30.01482 
L 7787.801478 32.588301 
L 7791.386444 52.204653 
L 7794.97141 80.699512 
L 7798.556376 124.49371 
L 7802.141343 147.864126 
L 7809.311275 187.730551 
L 7812.896242 177.217884 
L 7816.481208 165.016371 
L 7820.066174 109.149335 
L 7823.65114 71.518621 
L 7827.236107 31.391632 
L 7830.821073 27.824146 
L 7834.406039 35.348358 
L 7837.991005 59.751383 
L 7841.575972 103.053404 
L 7845.160938 149.054361 
L 7848.745904 162.114773 
L 7852.330871 176.191709 
L 7855.915837 169.487793 
L 7863.085769 113.701178 
L 7866.670736 76.74922 
L 7870.255702 49.274102 
L 7873.840668 24.793873 
L 7877.425634 49.05214 
L 7881.010601 54.369593 
L 7884.595567 101.12651 
L 7888.180533 157.376352 
L 7891.7655 176.539129 
L 7895.350466 184.478315 
L 7898.935432 185.56561 
L 7902.520398 153.853901 
L 7906.105365 103.677472 
L 7909.690331 78.483102 
L 7913.275297 45.95753 
L 7916.860263 34.444423 
L 7920.44523 52.709698 
L 7924.030196 64.280708 
L 7927.615162 95.92808 
L 7931.200128 142.582058 
L 7934.785095 168.445534 
L 7938.370061 188.801762 
L 7941.955027 187.589009 
L 7945.539994 160.25865 
L 7949.12496 130.329076 
L 7952.709926 88.957166 
L 7956.294892 44.963523 
L 7959.879859 23.738746 
L 7963.464825 39.913068 
L 7967.049791 59.873624 
L 7970.634757 88.73842 
L 7974.219724 141.613787 
L 7977.80469 167.490129 
L 7981.389656 177.61034 
L 7984.974623 191.896371 
L 7988.559589 146.377942 
L 7992.144555 131.261963 
L 7995.729521 84.331336 
L 7999.314488 47.379378 
L 8002.899454 34.730723 
L 8006.48442 34.798277 
L 8010.069386 32.015701 
L 8013.654353 93.267745 
L 8017.239319 132.14338 
L 8020.824285 173.608578 
L 8024.409252 189.210302 
L 8027.994218 182.142882 
L 8031.579184 146.551652 
L 8035.16415 126.632915 
L 8038.749117 89.394658 
L 8042.334083 61.263303 
L 8045.919049 43.757204 
L 8049.504015 35.306539 
L 8053.088982 63.753145 
L 8056.673948 81.442604 
L 8060.258914 119.993337 
L 8063.843881 161.600077 
L 8067.428847 178.803791 
L 8071.013813 185.909813 
L 8074.598779 179.41821 
L 8078.183746 122.064988 
L 8081.768712 93.660201 
L 8085.353678 41.714505 
L 8088.938644 14.664011 
L 8092.523611 29.792858 
L 8096.108577 56.534533 
L 8099.693543 74.223992 
L 8103.278509 122.45101 
L 8106.863476 145.869679 
L 8110.448442 166.354581 
L 8114.033408 166.673049 
L 8117.618375 168.628894 
L 8121.203341 122.04247 
L 8124.788307 80.461465 
L 8128.373273 54.60764 
L 8131.95824 22.738305 
L 8139.128172 42.110177 
L 8142.713138 69.244308 
L 8146.298105 103.722508 
L 8149.883071 141.462595 
L 8153.468037 170.809919 
L 8157.053004 171.76854 
L 8160.63797 160.715443 
L 8164.222936 127.482164 
L 8167.807902 87.435596 
L 8171.392869 54.671977 
L 8174.977835 35.361225 
L 8178.562801 44.046721 
L 8182.147767 43.216774 
L 8185.732734 70.685457 
L 8189.3177 95.773672 
L 8192.902666 143.36697 
L 8196.487633 168.233222 
L 8200.072599 172.823667 
L 8203.657565 160.213614 
L 8207.242531 126.044232 
L 8210.827498 74.320498 
L 8214.412464 46.182709 
L 8217.99743 30.072724 
L 8221.582396 28.654093 
L 8225.167363 34.762891 
L 8228.752329 73.500201 
L 8232.337295 105.652618 
L 8235.922261 148.73911 
L 8239.507228 153.548301 
L 8243.092194 154.394332 
L 8246.67716 147.17572 
L 8250.262127 129.10989 
L 8253.847093 89.896486 
L 8257.432059 60.27573 
L 8261.017025 26.913777 
L 8264.601992 20.206644 
L 8268.186958 33.492236 
L 8271.771924 59.912226 
L 8275.35689 111.526587 
L 8278.941857 140.410685 
L 8282.526823 174.042853 
L 8286.111789 163.948377 
L 8289.696756 158.428262 
L 8293.281722 121.724002 
L 8296.866688 98.919751 
L 8300.451654 60.233911 
L 8304.036621 41.968636 
L 8307.621587 29.352149 
L 8311.206553 28.120096 
L 8314.791519 53.465658 
L 8318.376486 92.894591 
L 8321.961452 116.789354 
L 8325.546418 152.042815 
L 8329.131385 169.436324 
L 8332.716351 157.559713 
L 8336.301317 134.993509 
L 8347.056216 20.110139 
L 8350.641182 22.030598 
L 8354.226148 14.792685 
L 8357.811115 62.37955 
L 8361.396081 89.816065 
L 8364.981047 124.410072 
L 8368.566013 141.858267 
L 8372.15098 157.411738 
L 8375.735946 158.521551 
L 8379.320912 131.615816 
L 8382.905879 103.15956 
L 8386.490845 59.738516 
L 8390.075811 24.253442 
L 8393.660777 26.193202 
L 8397.245744 24.700584 
L 8400.83071 58.648004 
L 8404.415676 101.975759 
L 8408.000642 127.186213 
L 8415.170575 165.791632 
L 8418.755541 155.243581 
L 8422.340508 130.419148 
L 8425.925474 95.374782 
L 8433.095406 30.973442 
L 8436.680373 23.047123 
L 8440.265339 42.409344 
L 8443.850305 56.177463 
L 8447.435271 81.954083 
L 8451.020238 111.085878 
L 8454.605204 146.313605 
L 8458.19017 164.34405 
L 8461.775137 164.845878 
L 8465.360103 138.895548 
L 8468.945069 97.452867 
L 8472.530035 66.503552 
L 8476.115002 32.913202 
L 8479.699968 24.890378 
L 8483.284934 30.063073 
L 8486.8699 50.445036 
L 8490.454867 88.825275 
L 8494.039833 108.82765 
L 8497.624799 141.491546 
L 8501.209765 154.342863 
L 8504.794732 159.126319 
L 8508.379698 137.98518 
L 8511.964664 111.915826 
L 8515.549631 76.012561 
L 8519.134597 37.42966 
L 8522.719563 21.05911 
L 8526.304529 10.60113 
L 8529.889496 50.107267 
L 8533.474462 75.990043 
L 8537.059428 117.24293 
L 8540.644394 148.73911 
L 8544.229361 166.904663 
L 8547.814327 168.08203 
L 8551.399293 147.564959 
L 8554.98426 108.174629 
L 8558.569226 92.913892 
L 8565.739158 34.183858 
L 8569.324125 20.550847 
L 8572.909091 49.132561 
L 8576.494057 57.274409 
L 8580.079023 100.930282 
L 8583.66399 151.43483 
L 8587.248956 138.869813 
L 8590.833922 164.401953 
L 8594.418889 140.918947 
L 8598.003855 106.170531 
L 8601.588821 79.959636 
L 8605.173787 24.838909 
L 8608.758754 20.174476 
L 8612.34372 22.34585 
L 8615.928686 25.916553 
L 8619.513652 69.176754 
L 8623.098619 92.913892 
L 8626.683585 126.143954 
L 8630.268551 140.590828 
L 8633.853518 162.687372 
L 8641.02345 119.472207 
L 8644.608416 69.115634 
L 8648.193383 41.87213 
L 8651.778349 24.710235 
L 8655.363315 19.827056 
L 8658.948281 39.700756 
L 8662.533248 60.44944 
L 8666.118214 109.551441 
L 8669.70318 136.817463 
L 8673.288146 171.581963 
L 8676.873113 177.053825 
L 8680.458079 159.805074 
L 8684.043045 122.2773 
L 8687.628012 88.657999 
L 8691.212978 57.367697 
L 8694.797944 38.024777 
L 8698.38291 32.790962 
L 8701.967877 31.655414 
L 8705.552843 63.260967 
L 8709.137809 98.334284 
L 8712.722775 130.747267 
L 8716.307742 168.79617 
L 8719.892708 168.226788 
L 8723.477674 169.462058 
L 8727.062641 124.619167 
L 8730.647607 85.608425 
L 8734.232573 49.846702 
L 8737.817539 20.071537 
L 8741.402506 27.43169 
L 8744.987472 32.675156 
L 8748.572438 54.774916 
L 8752.157404 77.804347 
L 8755.742371 130.599292 
L 8759.327337 147.249708 
L 8762.912303 164.540278 
L 8766.49727 145.345333 
L 8770.082236 130.203619 
L 8773.667202 103.236764 
L 8777.252168 50.081532 
L 8780.837135 30.053423 
L 8784.422101 26.405515 
L 8788.007067 27.763025 
L 8791.592033 69.813691 
L 8795.177 96.741944 
L 8798.761966 125.973461 
L 8802.346932 156.880957 
L 8805.931898 156.91956 
L 8809.516865 149.144433 
L 8813.101831 136.621235 
L 8816.686797 92.312341 
L 8820.271764 66.651527 
L 8823.85673 54.926108 
L 8827.441696 47.88764 
L 8831.026662 35.637875 
L 8834.611629 50.332446 
L 8838.196595 74.684002 
L 8841.781561 128.730302 
L 8845.366527 168.374763 
L 8848.951494 161.436017 
L 8852.53646 163.864739 
L 8856.121426 134.494897 
L 8859.706393 102.143035 
L 8866.876325 29.873279 
L 8870.461291 15.246261 
L 8874.046258 26.276841 
L 8877.631224 55.231709 
L 8881.21619 78.409114 
L 8884.801156 116.560957 
L 8888.386123 143.965304 
L 8891.971089 160.602853 
L 8895.556055 160.863418 
L 8899.141022 141.333921 
L 8902.725988 104.706865 
L 8906.310954 84.128674 
L 8909.89592 44.834849 
L 8913.480887 25.791096 
L 8917.065853 23.053557 
L 8920.650819 45.111498 
L 8924.235785 70.897769 
L 8927.820752 115.37394 
L 8931.405718 146.316821 
L 8934.990684 164.189641 
L 8938.57565 154.571259 
L 8942.160617 125.02449 
L 8945.745583 119.562279 
L 8949.330549 75.259818 
L 8952.915516 52.445917 
L 8956.500482 31.861292 
L 8960.085448 31.488138 
L 8963.670414 41.096869 
L 8967.255381 69.031996 
L 8970.840347 124.159157 
L 8974.425313 137.042642 
L 8978.010279 172.119177 
L 8981.595246 158.740297 
L 8985.180212 143.955653 
L 8988.765178 105.240862 
L 8992.350145 69.900546 
L 8995.935111 44.001685 
L 8999.520077 32.414591 
L 9003.105043 20.267764 
L 9006.69001 59.146616 
L 9010.274976 88.178688 
L 9013.859942 112.433739 
L 9017.444908 147.664682 
L 9021.029875 172.222116 
L 9024.614841 167.017252 
L 9028.199807 160.712226 
L 9035.36974 95.74472 
L 9038.954706 64.177769 
L 9042.539672 31.565342 
L 9046.124639 36.651182 
L 9049.709605 59.584107 
L 9053.294571 86.885515 
L 9056.879537 138.815127 
L 9060.464504 158.315673 
L 9064.04947 189.187784 
L 9067.634436 185.311479 
L 9071.219403 174.470694 
L 9074.804369 134.414476 
L 9078.389335 107.180622 
L 9081.974301 64.547707 
L 9085.559268 53.082853 
L 9089.144234 53.906367 
L 9092.7292 58.017501 
L 9096.314166 93.505792 
L 9099.899133 113.350541 
L 9103.484099 172.823667 
L 9107.069065 189.023724 
L 9110.654031 198.880153 
L 9114.238998 169.571431 
L 9117.823964 152.007429 
L 9121.40893 105.440306 
L 9124.993897 71.682681 
L 9128.578863 60.394753 
L 9132.163829 38.468703 
L 9135.748795 45.42675 
L 9139.333762 84.977922 
L 9142.918728 130.641111 
L 9146.503694 162.06652 
L 9150.08866 186.578918 
L 9153.673627 182.284423 
L 9157.258593 193.147726 
L 9160.843559 156.485285 
L 9164.428526 109.506405 
L 9168.013492 71.508971 
L 9171.598458 59.542288 
L 9175.183424 46.259914 
L 9178.768391 66.657961 
L 9182.353357 79.637951 
L 9185.938323 126.970685 
L 9189.523289 154.754619 
L 9193.108256 176.188492 
L 9196.693222 198.313988 
L 9200.278188 178.89708 
L 9203.863155 147.561742 
L 9207.448121 113.582154 
L 9211.033087 91.855548 
L 9214.618053 58.979339 
L 9218.20302 51.046587 
L 9221.787986 60.574897 
L 9225.372952 78.814438 
L 9228.957918 136.129057 
L 9232.542885 153.631939 
L 9236.127851 193.121991 
L 9239.712817 203.383743 
L 9243.297783 191.57147 
L 9246.88275 156.594658 
L 9250.467716 128.382882 
L 9254.052682 78.21932 
L 9257.637649 50.63483 
L 9261.222615 40.044959 
L 9264.807581 53.787343 
L 9268.392547 77.05482 
L 9271.977514 119.774591 
L 9275.56248 155.098822 
L 9279.147446 174.325936 
L 9282.732412 206.500871 
L 9286.317379 191.372025 
L 9289.902345 170.565438 
L 9293.487311 124.26853 
L 9297.072278 98.3182 
L 9300.657244 65.07527 
L 9304.24221 53.870981 
L 9307.827176 44.287985 
L 9311.412143 85.965495 
L 9314.997109 106.965093 
L 9318.582075 151.068109 
L 9322.167041 179.852484 
L 9325.752008 211.68 
L 9329.336974 195.6054 
L 9332.92194 176.561647 
L 9336.506907 142.463035 
L 9340.091873 105.871364 
L 9343.676839 61.211833 
L 9347.261805 51.220297 
L 9350.846772 58.86675 
L 9354.431738 78.798353 
L 9358.016704 120.678526 
L 9361.60167 152.004213 
L 9365.186637 176.519828 
L 9368.771603 207.601034 
L 9372.356569 197.242776 
L 9375.941535 167.959789 
L 9383.111468 97.916094 
L 9386.696434 71.425333 
L 9390.281401 52.979914 
L 9393.866367 44.690091 
L 9397.451333 66.226903 
L 9401.036299 95.651431 
L 9404.621266 141.005802 
L 9408.206232 176.143456 
L 9411.791198 195.672954 
L 9415.376164 202.080919 
L 9418.961131 172.469813 
L 9422.546097 133.545926 
L 9426.131063 87.084959 
L 9433.300996 37.300986 
L 9436.885962 39.195711 
L 9440.470928 65.567449 
L 9444.055895 101.93394 
L 9447.640861 143.022767 
L 9451.225827 177.362642 
L 9454.810793 204.995385 
L 9458.39576 201.250972 
L 9461.980726 181.959521 
L 9465.565692 133.26606 
L 9469.150659 91.282949 
L 9472.735625 54.890723 
L 9476.320591 52.413748 
L 9479.905557 41.51506 
L 9483.490524 64.097348 
L 9487.07549 104.491336 
L 9490.660456 141.61057 
L 9494.245422 184.259569 
L 9497.830389 193.829698 
L 9501.415355 193.987324 
L 9505.000321 175.03686 
L 9508.585288 141.510847 
L 9512.170254 94.92764 
L 9515.75522 63.531182 
L 9519.340186 46.205227 
L 9522.925153 42.238851 
L 9526.510119 56.367257 
L 9530.095085 101.470713 
L 9533.680051 132.950809 
L 9537.265018 166.512207 
L 9540.849984 206.301427 
L 9544.43495 193.903686 
L 9548.019916 170.465716 
L 9551.604883 132.754581 
L 9555.189849 103.223897 
L 9558.774815 87.38091 
L 9562.359782 46.24383 
L 9565.944748 50.937214 
L 9569.529714 62.241225 
L 9573.11468 106.617674 
L 9576.699647 141.697425 
L 9580.284613 174.499646 
L 9583.869579 201.463284 
L 9587.454545 209.791709 
L 9587.454545 209.791709 
" clip-path="url(#pc41093b832)" style="fill: none; stroke: #1f77b4; stroke-width: 1.5; stroke-linecap: square"/>
   </g>
  </g>
 </g>
 <defs>
  <clipPath id="pc41093b832">
   <rect x="0" y="-0" width="10044" height="221.76"/>
  </clipPath>
 </defs>
</svg>
