<?xml version="1.0" encoding="utf-8" standalone="no"?>
<!DOCTYPE svg PUBLIC "-//W3C//DTD SVG 1.1//EN"
  "http://www.w3.org/Graphics/SVG/1.1/DTD/svg11.dtd">
<svg xmlns:xlink="http://www.w3.org/1999/xlink" width="10044pt" height="221.76pt" viewBox="0 0 10044 221.76" xmlns="http://www.w3.org/2000/svg" version="1.1">
 <metadata>
  <rdf:RDF xmlns:dc="http://purl.org/dc/elements/1.1/" xmlns:cc="http://creativecommons.org/ns#" xmlns:rdf="http://www.w3.org/1999/02/22-rdf-syntax-ns#">
   <cc:Work>
    <dc:type rdf:resource="http://purl.org/dc/dcmitype/StillImage"/>
    <dc:date>2025-08-12T08:23:40.408996</dc:date>
    <dc:format>image/svg+xml</dc:format>
    <dc:creator>
     <cc:Agent>
      <dc:title>Matplotlib v3.9.2, https://matplotlib.org/</dc:title>
     </cc:Agent>
    </dc:creator>
   </cc:Work>
  </rdf:RDF>
 </metadata>
 <defs>
  <style type="text/css">*{stroke-linejoin: round; stroke-linecap: butt}</style>
 </defs>
 <g id="figure_1">
  <g id="patch_1">
   <path d="M 0 221.76 
L 10044 221.76 
L 10044 0 
L 0 0 
z
" style="fill: #ffffff"/>
  </g>
  <g id="axes_1">
   <g id="line2d_1">
    <path d="M 456.545455 97.554034 
L 460.130421 134.018273 
L 463.715387 163.831879 
L 467.300353 173.974557 
L 470.88532 175.379403 
L 474.470286 151.20988 
L 478.055252 124.579562 
L 481.640218 87.124212 
L 485.225185 51.527582 
L 488.810151 24.517492 
L 492.395117 33.996341 
L 495.980084 64.640505 
L 499.56505 94.061989 
L 503.150016 141.128954 
L 506.734982 173.363217 
L 510.319949 183.579997 
L 513.904915 174.913179 
L 521.074847 119.312162 
L 524.659814 80.072195 
L 528.24478 50.937855 
L 531.829746 27.879859 
L 535.414712 30.760565 
L 538.999679 45.241283 
L 542.584645 83.264746 
L 546.169611 136.232063 
L 549.754578 161.883621 
L 553.339544 185.812312 
L 556.92451 175.296038 
L 560.509476 162.868556 
L 564.094443 108.400679 
L 567.679409 75.017838 
L 571.264375 42.990442 
L 574.849341 28.994473 
L 578.434308 38.732679 
L 582.019274 61.420166 
L 585.60424 86.549924 
L 589.189207 110.86765 
L 592.774173 162.476435 
L 596.359139 178.408312 
L 599.944105 183.814652 
L 603.529072 168.20697 
L 607.114038 126.373442 
L 610.699004 93.885997 
L 614.28397 42.125922 
L 617.868937 23.649884 
L 621.453903 29.652126 
L 625.038869 55.794608 
L 628.623836 91.863637 
L 632.208802 138.32235 
L 635.793768 160.559052 
L 639.378734 184.534057 
L 642.963701 178.272459 
L 646.548667 164.980456 
L 650.133633 131.718031 
L 653.718599 96.112138 
L 657.303566 62.364963 
L 660.888532 42.842238 
L 664.473498 37.238293 
L 668.058465 41.946842 
L 671.643431 84.678854 
L 675.228397 124.545599 
L 678.813363 173.211926 
L 682.39833 191.836167 
L 685.983296 201.423082 
L 689.568262 174.826727 
L 696.738195 90.140771 
L 700.323161 73.937187 
L 703.908127 47.56005 
L 707.493093 40.137524 
L 711.07806 55.035065 
L 714.663026 76.089226 
L 718.247992 131.826096 
L 721.832959 161.065414 
L 725.417925 182.409807 
L 729.002891 197.730345 
L 732.587857 183.320641 
L 736.172824 149.854436 
L 739.75779 109.252849 
L 743.342756 73.541978 
L 746.927722 49.286004 
L 750.512689 43.700584 
L 754.097655 58.613562 
L 757.682621 92.462626 
L 761.267588 131.242545 
L 764.852554 166.496455 
L 768.43752 194.710698 
L 772.022486 192.99092 
L 775.607453 186.775635 
L 779.192419 151.62979 
L 782.777385 125.011822 
L 786.362351 74.110092 
L 789.947318 55.127692 
L 793.532284 40.004759 
L 797.11725 46.868434 
L 800.702217 77.401445 
L 804.287183 128.364927 
L 807.872149 162.464084 
L 811.457115 184.744012 
L 815.042082 193.867791 
L 818.627048 179.643341 
L 825.79698 110.030917 
L 829.381947 72.631144 
L 832.966913 45.784696 
L 836.551879 35.021416 
L 840.136845 55.004189 
L 843.721812 74.26447 
L 847.306778 108.808238 
L 850.891744 130.288485 
L 854.476711 177.071393 
L 858.061677 191.576811 
L 861.646643 184.172811 
L 865.231609 165.107047 
L 868.816576 115.758366 
L 872.401542 82.634881 
L 875.986508 54.226121 
L 879.571474 39.291529 
L 883.156441 50.128911 
L 886.741407 74.730694 
L 890.326373 111.065254 
L 893.91134 150.87951 
L 897.496306 173.483633 
L 901.081272 187.958176 
L 904.666238 181.925058 
L 908.251205 162.587587 
L 911.836171 123.708866 
L 915.421137 82.168657 
L 919.006103 46.556589 
L 922.59107 31.007571 
L 926.176036 36.398473 
L 929.761002 61.951229 
L 933.345969 108.727962 
L 936.930935 145.229251 
L 940.515901 178.781908 
L 944.100867 190.770955 
L 947.685834 186.843562 
L 951.2708 156.486543 
L 954.855766 118.225336 
L 958.440732 81.702434 
L 962.025699 49.653425 
L 965.610665 37.30622 
L 969.195631 38.902495 
L 972.780597 59.246515 
L 976.365564 95.723104 
L 979.95053 126.456806 
L 983.535496 172.257866 
L 987.120463 189.119103 
L 990.705429 183.05511 
L 994.290395 160.765919 
L 997.875361 128.420503 
L 1001.460328 80.881139 
L 1005.045294 49.74914 
L 1008.63026 36.290408 
L 1012.215226 47.112352 
L 1015.800193 63.402388 
L 1019.385159 91.33875 
L 1022.970125 139.603693 
L 1026.555092 168.537341 
L 1030.140058 188.615829 
L 1033.725024 175.539957 
L 1037.30999 160.009464 
L 1040.894957 122.760981 
L 1044.479923 83.011565 
L 1048.064889 46.164467 
L 1051.649855 34.014867 
L 1055.234822 32.34449 
L 1058.819788 53.417176 
L 1062.404754 86.574624 
L 1065.989721 134.305417 
L 1069.574687 180.084864 
L 1073.159653 184.768713 
L 1076.744619 184.024607 
L 1080.329586 149.931625 
L 1083.914552 123.054301 
L 1087.499518 95.0531 
L 1091.084484 63.371512 
L 1094.669451 37.158016 
L 1098.254417 37.655116 
L 1101.839383 53.911188 
L 1105.42435 89.714686 
L 1109.009316 133.36062 
L 1112.594282 168.021716 
L 1116.179248 196.359462 
L 1119.764215 198.375647 
L 1123.349181 170.868458 
L 1126.934147 137.019394 
L 1130.519113 95.411259 
L 1134.10408 57.693465 
L 1137.689046 35.753171 
L 1141.274012 46.108891 
L 1144.858978 49.286004 
L 1148.443945 96.501172 
L 1152.028911 130.381112 
L 1155.613877 167.188071 
L 1159.198844 181.878744 
L 1162.78381 182.962482 
L 1166.368776 164.958843 
L 1169.953742 133.46251 
L 1173.538709 93.69148 
L 1177.123675 55.263545 
L 1180.708641 34.388463 
L 1184.293607 27.080178 
L 1187.878574 39.007473 
L 1191.46354 81.3134 
L 1195.048506 128.405065 
L 1198.633473 162.572149 
L 1202.218439 187.229508 
L 1205.803405 177.093006 
L 1209.388371 160.194718 
L 1212.973338 133.67864 
L 1216.558304 95.48536 
L 1220.14327 62.161184 
L 1223.728236 48.007748 
L 1227.313203 32.489606 
L 1230.898169 39.655863 
L 1234.483135 71.133671 
L 1238.068102 104.5443 
L 1241.653068 155.584971 
L 1245.238034 177.624068 
L 1248.823 190.752429 
L 1252.407967 178.155131 
L 1255.992933 146.316077 
L 1259.577899 101.475252 
L 1263.162865 63.550591 
L 1266.747832 41.55472 
L 1270.332798 35.53704 
L 1273.917764 40.375268 
L 1277.50273 74.610278 
L 1281.087697 112.846784 
L 1284.672663 154.093674 
L 1288.257629 172.754966 
L 1291.842596 178.646055 
L 1295.427562 178.618267 
L 1299.012528 140.761533 
L 1302.597494 110.209997 
L 1306.182461 68.404256 
L 1309.767427 29.281617 
L 1313.352393 27.154279 
L 1316.937359 36.969674 
L 1320.522326 64.767095 
L 1324.107292 103.39881 
L 1327.692258 146.800826 
L 1331.277225 179.698918 
L 1334.862191 187.204808 
L 1338.447157 175.129309 
L 1342.032123 143.265555 
L 1345.61709 109.731423 
L 1349.202056 67.474897 
L 1352.787022 36.836909 
L 1356.371988 26.388561 
L 1359.956955 37.815669 
L 1363.541921 65.708805 
L 1367.126887 104.618402 
L 1370.711854 136.676674 
L 1374.29682 165.400366 
L 1377.881786 181.452659 
L 1381.466752 181.461922 
L 1385.051719 148.168621 
L 1388.636685 111.519128 
L 1392.221651 65.350647 
L 1395.806617 38.482585 
L 1399.391584 30.285079 
L 1402.97655 33.891364 
L 1406.561516 64.77327 
L 1410.146482 107.418831 
L 1413.731449 146.606309 
L 1417.316415 164.70875 
L 1420.901381 167.750009 
L 1424.486348 170.325045 
L 1428.071314 157.070094 
L 1431.65628 107.61026 
L 1435.241246 78.086886 
L 1438.826213 39.269916 
L 1442.411179 26.706581 
L 1445.996145 25.119569 
L 1449.581111 58.215265 
L 1453.166078 95.47301 
L 1456.751044 135.960357 
L 1460.33601 170.346658 
L 1463.920977 182.175151 
L 1467.505943 166.755811 
L 1471.090909 153.068599 
L 1478.260842 79.717124 
L 1481.845808 50.233889 
L 1485.430774 29.318668 
L 1489.01574 36.716493 
L 1492.600707 60.679148 
L 1496.185673 91.940826 
L 1499.770639 134.527723 
L 1503.355606 167.750009 
L 1506.940572 179.522926 
L 1510.525538 188.797996 
L 1514.110504 149.375862 
L 1517.695471 108.721786 
L 1521.280437 81.239298 
L 1524.865403 45.874235 
L 1528.450369 33.783299 
L 1532.035336 33.594957 
L 1535.620302 57.474248 
L 1539.205268 79.497907 
L 1542.790235 135.253302 
L 1546.375201 160.16693 
L 1549.960167 173.847966 
L 1553.545133 181.134639 
L 1557.1301 151.104903 
L 1560.715066 133.357532 
L 1567.884998 41.381816 
L 1571.469965 22.44573 
L 1575.054931 32.044995 
L 1578.639897 48.708627 
L 1585.80983 128.577969 
L 1589.394796 161.213617 
L 1592.979762 178.920849 
L 1596.564729 179.245044 
L 1600.149695 160.994399 
L 1603.734661 135.876992 
L 1607.319627 91.286261 
L 1610.904594 56.896871 
L 1614.48956 31.28854 
L 1618.074526 38.556687 
L 1621.659492 54.698519 
L 1625.244459 79.513345 
L 1628.829425 118.191373 
L 1632.414391 159.558678 
L 1635.999358 194.834201 
L 1639.584324 194.272263 
L 1643.16929 169.769282 
L 1646.754256 130.273047 
L 1650.339223 82.310686 
L 1653.924189 45.445063 
L 1657.509155 35.21902 
L 1661.094121 35.293122 
L 1664.679088 54.63368 
L 1668.264054 93.432124 
L 1671.84902 125.796066 
L 1675.433987 156.267325 
L 1679.018953 177.716696 
L 1682.603919 183.184788 
L 1686.188885 175.26825 
L 1689.773852 151.179005 
L 1693.358818 99.567132 
L 1696.943784 56.421385 
L 1700.52875 42.453204 
L 1704.113717 30.884068 
L 1707.698683 47.822494 
L 1711.283649 86.126926 
L 1718.453582 169.614904 
L 1722.038548 190.036112 
L 1725.623514 188.714631 
L 1729.208481 174.289489 
L 1732.793447 137.621471 
L 1736.378413 105.569374 
L 1739.963379 75.11664 
L 1743.548346 39.705264 
L 1747.133312 29.525536 
L 1750.718278 46.284883 
L 1754.303244 75.11664 
L 1757.888211 119.272024 
L 1761.473177 159.290059 
L 1765.058143 189.359934 
L 1768.64311 192.305479 
L 1772.228076 178.099555 
L 1775.813042 140.341623 
L 1779.398008 90.279712 
L 1782.982975 61.417078 
L 1786.567941 36.707231 
L 1790.152907 37.411197 
L 1793.737873 56.890696 
L 1797.32284 81.977228 
L 1800.907806 114.699328 
L 1804.492772 148.603969 
L 1808.077739 179.627903 
L 1811.662705 188.455275 
L 1815.247671 177.651857 
L 1818.832637 146.967555 
L 1822.417604 109.468979 
L 1826.00257 54.976401 
L 1829.587536 31.572597 
L 1833.172502 27.537138 
L 1836.757469 39.415032 
L 1840.342435 68.879743 
L 1843.927401 113.519875 
L 1847.512367 154.022659 
L 1851.097334 177.235034 
L 1854.6823 189.489612 
L 1858.267266 177.818585 
L 1865.437199 105.924445 
L 1869.022165 72.773172 
L 1872.607131 44.68552 
L 1876.192098 36.864697 
L 1879.777064 47.050601 
L 1883.36203 67.749691 
L 1886.946996 114.717853 
L 1890.531963 155.513957 
L 1894.116929 180.619014 
L 1897.701895 196.18347 
L 1901.286862 181.93432 
L 1904.871828 155.995619 
L 1908.456794 115.094537 
L 1912.04176 79.30339 
L 1915.626727 41.591771 
L 1919.211693 37.568664 
L 1922.796659 47.63724 
L 1926.381625 74.391061 
L 1929.966592 112.389823 
L 1933.551558 144.756852 
L 1937.136524 173.316904 
L 1940.721491 195.84075 
L 1944.306457 175.895027 
L 1947.891423 157.067006 
L 1951.476389 122.745544 
L 1955.061356 79.216938 
L 1958.646322 39.973883 
L 1962.231288 27.50935 
L 1965.816254 41.079234 
L 1969.401221 65.708805 
L 1976.571153 147.554194 
L 1980.156119 174.323453 
L 1983.741086 191.792941 
L 1987.326052 185.617795 
L 1990.911018 161.383434 
L 1994.495985 124.502373 
L 1998.080951 91.548705 
L 2001.665917 57.224154 
L 2005.250883 40.789002 
L 2008.83585 33.727723 
L 2012.420816 64.378061 
L 2019.590748 143.50021 
L 2023.175715 178.315685 
L 2026.760681 192.154188 
L 2030.345647 198.421961 
L 2033.930614 167.638857 
L 2037.51558 126.200538 
L 2041.100546 91.718521 
L 2044.685512 53.688883 
L 2048.270479 41.551633 
L 2051.855445 51.484356 
L 2055.440411 65.900235 
L 2059.025377 89.2392 
L 2062.610344 133.947259 
L 2066.19531 171.331594 
L 2069.780276 186.309412 
L 2073.365243 193.577559 
L 2076.950209 175.706685 
L 2080.535175 132.156466 
L 2084.120141 98.548233 
L 2087.705108 60.070897 
L 2091.290074 39.677476 
L 2094.87504 39.680564 
L 2098.460006 68.611124 
L 2102.044973 105.671264 
L 2105.629939 129.998253 
L 2109.214905 165.554745 
L 2112.799872 187.180107 
L 2116.384838 181.857131 
L 2119.969804 163.658975 
L 2123.55477 131.983562 
L 2127.139737 94.20093 
L 2130.724703 61.880214 
L 2134.309669 41.039096 
L 2137.894635 46.661566 
L 2141.479602 53.874137 
L 2145.064568 85.966372 
L 2148.649534 134.941457 
L 2152.2345 177.747571 
L 2155.819467 191.888656 
L 2159.404433 187.402412 
L 2162.989399 175.323826 
L 2166.574366 137.000869 
L 2170.159332 95.417434 
L 2173.744298 58.690751 
L 2177.329264 39.760841 
L 2180.914231 34.88865 
L 2184.499197 57.854019 
L 2188.084163 86.09605 
L 2191.669129 133.289606 
L 2195.254096 164.143724 
L 2198.839062 188.797996 
L 2202.424028 203.278714 
L 2206.008995 179.887259 
L 2209.593961 144.96372 
L 2213.178927 96.374581 
L 2216.763893 56.21143 
L 2220.34886 35.601879 
L 2223.933826 30.782178 
L 2227.518792 51.941317 
L 2231.103758 86.769141 
L 2234.688725 130.566366 
L 2238.273691 159.574116 
L 2241.858657 171.208091 
L 2245.443624 192.533959 
L 2249.02859 184.049308 
L 2252.613556 142.447348 
L 2256.198522 105.519973 
L 2259.783489 66.465261 
L 2263.368455 50.240064 
L 2266.953421 41.060709 
L 2270.538387 50.255502 
L 2274.123354 77.197665 
L 2277.70832 115.106888 
L 2281.293286 159.919924 
L 2284.878252 188.825784 
L 2288.463219 190.02685 
L 2292.048185 174.345066 
L 2295.633151 146.211099 
L 2299.218118 105.377945 
L 2302.803084 54.402112 
L 2306.38805 40.248677 
L 2309.973016 32.718086 
L 2313.557983 45.191882 
L 2317.142949 72.850362 
L 2320.727915 113.643378 
L 2324.312881 147.443041 
L 2327.897848 183.651011 
L 2331.482814 188.183568 
L 2335.06778 190.517774 
L 2338.652747 153.176664 
L 2342.237713 111.052904 
L 2345.822679 64.399674 
L 2349.407645 40.826053 
L 2352.992612 36.027965 
L 2356.577578 39.121713 
L 2360.162544 86.926608 
L 2363.74751 123.146928 
L 2367.332477 153.828142 
L 2370.917443 176.802774 
L 2374.502409 186.429827 
L 2378.087376 182.298654 
L 2381.672342 153.312518 
L 2385.257308 118.321051 
L 2388.842274 76.268305 
L 2392.427241 44.728746 
L 2396.012207 29.784892 
L 2399.597173 39.726877 
L 2403.182139 75.447011 
L 2406.767106 99.891327 
L 2410.352072 157.733922 
L 2413.937038 177.766097 
L 2417.522004 190.820356 
L 2421.106971 169.945274 
L 2424.691937 153.016111 
L 2428.276903 114.5573 
L 2431.86187 71.340538 
L 2435.446836 48.569687 
L 2439.031802 34.453302 
L 2442.616768 35.907549 
L 2446.201735 67.885544 
L 2449.786701 97.36878 
L 2453.371667 137.862302 
L 2456.956633 170.538088 
L 2460.5416 189.032651 
L 2464.126566 180.34422 
L 2467.711532 159.438263 
L 2471.296499 118.450729 
L 2474.881465 74.721431 
L 2478.466431 36.102066 
L 2482.051397 25.79266 
L 2485.636364 46.951798 
L 2489.22133 70.760075 
L 2492.806296 105.362507 
L 2499.976229 178.315685 
L 2503.561195 188.25767 
L 2507.146161 187.921125 
L 2510.731128 165.270688 
L 2514.316094 124.804955 
L 2517.90106 82.758384 
L 2521.486026 56.603552 
L 2525.070993 32.582233 
L 2528.655959 41.51767 
L 2532.240925 59.860942 
L 2535.825891 102.02484 
L 2539.410858 151.926197 
L 2542.995824 169.79707 
L 2546.58079 188.282371 
L 2550.165757 178.806609 
L 2553.750723 170.606015 
L 2557.335689 127.574508 
L 2560.920655 81.276349 
L 2564.505622 58.505497 
L 2568.090588 33.104033 
L 2571.675554 42.061082 
L 2575.26052 62.645933 
L 2578.845487 89.069383 
L 2582.430453 131.699506 
L 2586.015419 164.430868 
L 2589.600385 185.8154 
L 2593.185352 185.565306 
L 2596.770318 158.25881 
L 2600.355284 113.059827 
L 2603.940251 76.206554 
L 2607.525217 49.526834 
L 2611.110183 29.735491 
L 2614.695149 41.659698 
L 2618.280116 54.278609 
L 2621.865082 86.383195 
L 2625.450048 122.442961 
L 2629.035014 161.355646 
L 2632.619981 181.100676 
L 2636.204947 178.701631 
L 2639.789913 155.232988 
L 2643.37488 133.811406 
L 2646.959846 92.959726 
L 2650.544812 55.414836 
L 2654.129778 33.971641 
L 2657.714745 41.872741 
L 2661.299711 57.406321 
L 2664.884677 81.514092 
L 2668.469643 127.99133 
L 2672.05461 161.812606 
L 2675.639576 182.718564 
L 2679.224542 193.413917 
L 2682.809509 169.346285 
L 2686.394475 130.952313 
L 2689.979441 86.509785 
L 2693.564407 55.152393 
L 2697.149374 36.259533 
L 2700.73434 32.569883 
L 2704.319306 52.506342 
L 2707.904272 83.842122 
L 2711.489239 122.909185 
L 2715.074205 158.901025 
L 2718.659171 185.648671 
L 2722.244137 190.403534 
L 2725.829104 170.94256 
L 2729.41407 132.530063 
L 2732.999036 100.891701 
L 2736.584003 60.703849 
L 2740.168969 31.27619 
L 2743.753935 32.214812 
L 2747.338901 53.444965 
L 2750.923868 91.493128 
L 2754.508834 126.60501 
L 2758.0938 158.956601 
L 2761.678766 184.055483 
L 2765.263733 197.650068 
L 2768.848699 183.765251 
L 2772.433665 144.892706 
L 2776.018632 99.511556 
L 2779.603598 59.904168 
L 2783.188564 37.034513 
L 2786.77353 35.876674 
L 2790.358497 47.260556 
L 2797.528429 105.788592 
L 2801.113395 153.053161 
L 2804.698362 181.724365 
L 2808.283328 182.002247 
L 2811.868294 172.699389 
L 2815.453261 140.54849 
L 2822.623193 62.911464 
L 2826.208159 39.992408 
L 2829.793126 20.809317 
L 2833.378092 44.775059 
L 2836.963058 72.621881 
L 2840.548024 105.921358 
L 2844.132991 144.11155 
L 2847.717957 166.410003 
L 2851.302923 177.395588 
L 2854.887889 169.775457 
L 2862.057822 101.932213 
L 2865.642788 60.070897 
L 2869.227755 33.585694 
L 2872.812721 21.408306 
L 2876.397687 38.37452 
L 2879.982653 63.553679 
L 2883.56762 107.085373 
L 2887.152586 139.838348 
L 2890.737552 166.227836 
L 2894.322518 176.296412 
L 2897.907485 166.351339 
L 2901.492451 137.516493 
L 2905.077417 92.181657 
L 2908.662384 68.453658 
L 2912.24735 35.039941 
L 2915.832316 31.662136 
L 2919.417282 35.395012 
L 2923.002249 63.127594 
L 2926.587215 101.181933 
L 2930.172181 133.014812 
L 2933.757147 171.665052 
L 2937.342114 176.487841 
L 2940.92708 170.652328 
L 2944.512046 146.297551 
L 2948.097013 105.995459 
L 2955.266945 28.975948 
L 2958.851911 18.234281 
L 2962.436878 28.346083 
L 2966.021844 57.304431 
L 2969.60681 97.439794 
L 2976.776743 165.425067 
L 2980.361709 177.874162 
L 2983.946675 160.92956 
L 2987.531642 151.713155 
L 2991.116608 104.448585 
L 2994.701574 67.820705 
L 2998.28654 39.868906 
L 3001.871507 22.519832 
L 3005.456473 30.6525 
L 3009.041439 44.691695 
L 3012.626405 84.194105 
L 3016.211372 125.728139 
L 3019.796338 160.941911 
L 3023.381304 179.887259 
L 3026.96627 176.969503 
L 3030.551237 164.452481 
L 3034.136203 113.803932 
L 3037.721169 76.370195 
L 3041.306136 48.430746 
L 3044.891102 29.321756 
L 3048.476068 35.503077 
L 3052.061034 44.203858 
L 3062.815933 163.109387 
L 3066.400899 175.836364 
L 3069.985866 179.970624 
L 3073.570832 159.200519 
L 3077.155798 119.793824 
L 3080.740765 75.595214 
L 3084.325731 50.823615 
L 3087.910697 28.55295 
L 3091.495663 29.130326 
L 3095.08063 60.178962 
L 3098.665596 88.992194 
L 3102.250562 133.5644 
L 3105.835528 166.462491 
L 3109.420495 193.376866 
L 3113.005461 182.070174 
L 3116.590427 169.4667 
L 3120.175394 133.616889 
L 3123.76036 84.891897 
L 3127.345326 56.365809 
L 3130.930292 35.688332 
L 3134.515259 42.746524 
L 3138.100225 63.701883 
L 3141.685191 98.048046 
L 3145.270157 130.773234 
L 3148.855124 169.806333 
L 3152.44009 193.886316 
L 3156.025056 198.208918 
L 3159.610022 173.650362 
L 3163.194989 140.069916 
L 3166.779955 104.809831 
L 3170.364921 64.566403 
L 3173.949888 40.860017 
L 3177.534854 38.325119 
L 3181.11982 57.841669 
L 3184.704786 91.172021 
L 3188.289753 132.761631 
L 3191.874719 164.792114 
L 3195.459685 189.600765 
L 3199.044651 198.863484 
L 3202.629618 178.556515 
L 3206.214584 144.488234 
L 3209.79955 98.486481 
L 3213.384517 63.951976 
L 3216.969483 47.096914 
L 3220.554449 38.930283 
L 3224.139415 47.399496 
L 3227.724382 86.892644 
L 3231.309348 123.079001 
L 3234.894314 157.604244 
L 3238.47928 181.245792 
L 3242.064247 181.776854 
L 3245.649213 169.806333 
L 3249.234179 140.131668 
L 3252.819146 107.486757 
L 3256.404112 58.378906 
L 3263.574044 25.289385 
L 3267.159011 54.420638 
L 3270.743977 76.913608 
L 3274.328943 121.776046 
L 3277.913909 151.472324 
L 3281.498876 182.295567 
L 3285.083842 190.496161 
L 3288.668808 174.425343 
L 3292.253774 136.389529 
L 3295.838741 107.956068 
L 3299.423707 67.595312 
L 3303.008673 34.792935 
L 3306.59364 35.373399 
L 3310.178606 43.33625 
L 3313.763572 74.230507 
L 3317.348538 111.920512 
L 3320.933505 153.908419 
L 3324.518471 177.843286 
L 3328.103437 185.691897 
L 3331.688403 169.253658 
L 3335.27337 148.925076 
L 3338.858336 105.164902 
L 3342.443302 59.197113 
L 3346.028269 37.043776 
L 3349.613235 27.182068 
L 3353.198201 41.245963 
L 3356.783167 68.969282 
L 3360.368134 113.248169 
L 3363.9531 140.233558 
L 3367.538066 171.121639 
L 3371.123032 176.12042 
L 3374.707999 175.06447 
L 3378.292965 145.584322 
L 3381.877931 105.063012 
L 3385.462898 62.01298 
L 3389.047864 40.27029 
L 3392.63283 29.704615 
L 3396.217796 37.272257 
L 3399.802763 62.161184 
L 3403.387729 107.227401 
L 3406.972695 141.437711 
L 3410.557661 179.090666 
L 3414.142628 185.969779 
L 3417.727594 172.656163 
L 3421.31256 158.354524 
L 3424.897527 119.867925 
L 3428.482493 85.44766 
L 3432.067459 46.575114 
L 3435.652425 37.028338 
L 3439.237392 36.327459 
L 3446.407324 109.663496 
L 3449.99229 155.180499 
L 3453.577257 174.341978 
L 3457.162223 185.602357 
L 3460.747189 182.366581 
L 3464.332155 165.53622 
L 3467.917122 113.881121 
L 3471.502088 80.047495 
L 3475.087054 52.707035 
L 3478.672021 35.608055 
L 3482.256987 38.183091 
L 3485.841953 62.596531 
L 3493.011886 144.587036 
L 3496.596852 169.571678 
L 3500.181818 182.848242 
L 3503.766784 184.830464 
L 3507.351751 166.712585 
L 3510.936717 122.872134 
L 3514.521683 81.822849 
L 3518.10665 53.642569 
L 3521.691616 44.206946 
L 3525.276582 40.245589 
L 3528.861548 66.64434 
L 3532.446515 99.449804 
L 3536.031481 148.242722 
L 3539.616447 176.318025 
L 3543.201413 198.511501 
L 3546.78638 187.60928 
L 3550.371346 168.904762 
L 3553.956312 129.884013 
L 3557.541279 89.242287 
L 3561.126245 57.190191 
L 3564.711211 41.863478 
L 3568.296177 50.400618 
L 3571.881144 67.589137 
L 3575.46611 106.393756 
L 3579.051076 153.920769 
L 3582.636042 183.348429 
L 3586.221009 195.562868 
L 3589.805975 193.833827 
L 3596.975907 137.707923 
L 3600.560874 94.589964 
L 3604.14584 57.566875 
L 3607.730806 38.674015 
L 3611.315773 40.798265 
L 3614.900739 70.090071 
L 3618.485705 100.533542 
L 3622.070671 138.470553 
L 3625.655638 177.945176 
L 3629.240604 196.445914 
L 3632.82557 189.171592 
L 3636.410536 166.771249 
L 3639.995503 137.80055 
L 3643.580469 95.503886 
L 3647.165435 68.413519 
L 3650.750402 50.419143 
L 3654.335368 52.111133 
L 3657.920334 55.967512 
L 3661.5053 96.970483 
L 3665.090267 126.963168 
L 3668.675233 169.127067 
L 3672.260199 192.101699 
L 3675.845165 194.485305 
L 3679.430132 176.487841 
L 3683.015098 136.546995 
L 3686.600064 103.204293 
L 3690.185031 59.919605 
L 3693.769997 40.06651 
L 3697.354963 39.192727 
L 3700.939929 60.703849 
L 3704.524896 85.796556 
L 3708.109862 129.065806 
L 3711.694828 164.628473 
L 3715.279794 194.757012 
L 3718.864761 185.111433 
L 3722.449727 178.781908 
L 3726.034693 146.85949 
L 3729.619659 99.317039 
L 3733.204626 69.481819 
L 3736.789592 47.686641 
L 3740.374558 41.437393 
L 3743.959525 56.572676 
L 3747.544491 78.293753 
L 3751.129457 122.016876 
L 3754.714423 167.333187 
L 3758.29939 187.312873 
L 3761.884356 200.058375 
L 3765.469322 178.290984 
L 3769.054288 148.097607 
L 3772.639255 103.454387 
L 3776.224221 72.98004 
L 3779.809187 49.446557 
L 3783.394154 46.93636 
L 3786.97912 56.767193 
L 3790.564086 83.644517 
L 3794.149052 128.528568 
L 3797.734019 165.696773 
L 3801.318985 194.482218 
L 3804.903951 209.901558 
L 3808.488917 183.237276 
L 3812.073884 162.988972 
L 3815.65885 112.077978 
L 3819.243816 81.8352 
L 3822.828783 52.63602 
L 3826.413749 48.687014 
L 3829.998715 52.898464 
L 3833.583681 92.061242 
L 3837.168648 128.28465 
L 3840.753614 158.993652 
L 3844.33858 184.35189 
L 3847.923546 198.252144 
L 3851.508513 180.399797 
L 3855.093479 156.369215 
L 3858.678445 122.053927 
L 3862.263412 78.429606 
L 3865.848378 46.683179 
L 3869.433344 36.278058 
L 3876.603277 70.124035 
L 3880.188243 114.930896 
L 3883.773209 165.193499 
L 3887.358175 183.678799 
L 3890.943142 192.784052 
L 3894.528108 180.779568 
L 3898.113074 159.311672 
L 3901.69804 127.917229 
L 3905.283007 80.387128 
L 3908.867973 58.397432 
L 3912.452939 47.510649 
L 3916.037906 65.020276 
L 3919.622872 79.525695 
L 3923.207838 115.532973 
L 3926.792804 162.726528 
L 3930.377771 192.623499 
L 3933.962737 200.024411 
L 3937.547703 195.454803 
L 3941.132669 165.971567 
L 3944.717636 133.944171 
L 3948.302602 82.637969 
L 3951.887568 61.336802 
L 3955.472535 48.359732 
L 3959.057501 55.035065 
L 3966.227433 116.45307 
L 3969.8124 158.511991 
L 3973.397366 182.101049 
L 3976.982332 200.932158 
L 3980.567298 189.316708 
L 3984.152265 170.658503 
L 3987.737231 125.462608 
L 3991.322197 92.731245 
L 3994.907164 56.409035 
L 3998.49213 41.773938 
L 4002.077096 41.792464 
L 4009.247029 106.264078 
L 4012.831995 154.408606 
L 4020.001927 199.079614 
L 4023.586894 185.975954 
L 4027.17186 161.127165 
L 4030.756826 130.853511 
L 4034.341792 85.941672 
L 4037.926759 54.908474 
L 4041.511725 50.110386 
L 4045.096691 41.140986 
L 4048.681658 68.790203 
L 4052.266624 100.456353 
L 4055.85159 146.43958 
L 4059.436556 182.956307 
L 4063.021523 191.734278 
L 4066.606489 197.393799 
L 4070.191455 168.234758 
L 4073.776421 120.874474 
L 4077.361388 87.170526 
L 4080.946354 49.461995 
L 4084.53132 39.291529 
L 4088.116287 42.962654 
L 4095.286219 95.633564 
L 4098.871185 144.299892 
L 4102.456152 175.641846 
L 4106.041118 185.951253 
L 4109.626084 179.260482 
L 4113.21105 165.758525 
L 4116.796017 129.884013 
L 4120.380983 89.402841 
L 4123.965949 56.83512 
L 4127.550916 37.500737 
L 4131.135882 32.532832 
L 4134.720848 57.05125 
L 4138.305814 93.521664 
L 4141.890781 132.320108 
L 4145.475747 174.450043 
L 4149.060713 186.503929 
L 4152.645679 184.660648 
L 4156.230646 162.951921 
L 4159.815612 136.395704 
L 4163.400578 90.233398 
L 4166.985544 71.158372 
L 4170.570511 42.101221 
L 4174.155477 37.658203 
L 4177.740443 53.732109 
L 4181.32541 86.463472 
L 4184.910376 132.412735 
L 4188.495342 167.499916 
L 4192.080308 187.062779 
L 4195.665275 192.25299 
L 4199.250241 174.731012 
L 4206.420173 92.255759 
L 4210.00514 55.874885 
L 4213.590106 38.312769 
L 4217.175072 30.637062 
L 4220.760039 51.586246 
L 4224.345005 87.417532 
L 4227.929971 120.198296 
L 4231.514937 165.428155 
L 4235.099904 175.765349 
L 4238.68487 187.362274 
L 4242.269836 166.169172 
L 4245.854802 134.712977 
L 4249.439769 87.136563 
L 4253.024735 47.924384 
L 4256.609701 24.810811 
L 4260.194668 19.750279 
L 4263.779634 44.802847 
L 4267.3646 73.356724 
L 4270.949566 114.211491 
L 4274.534533 151.135778 
L 4278.119499 173.752252 
L 4281.704465 183.351517 
L 4285.289431 162.155327 
L 4288.874398 133.234029 
L 4292.459364 93.722356 
L 4296.04433 58.236878 
L 4299.629296 25.662982 
L 4303.214263 23.70546 
L 4306.799229 30.319042 
L 4313.969162 108.907041 
L 4317.554128 144.923581 
L 4321.139094 175.604796 
L 4324.72406 170.374447 
L 4328.309027 160.512738 
L 4331.893993 131.647017 
L 4335.478959 91.276998 
L 4339.063925 54.411375 
L 4342.648892 27.209856 
L 4346.233858 19.768804 
L 4349.818824 23.714723 
L 4353.403791 59.518221 
L 4356.988757 92.376174 
L 4360.573723 138.078432 
L 4364.158689 164.878566 
L 4367.743656 172.526485 
L 4371.328622 167.574018 
L 4374.913588 134.138688 
L 4378.498554 88.884129 
L 4382.083521 47.621802 
L 4385.668487 21.815865 
L 4389.253453 10.08 
L 4396.423386 54.482389 
L 4400.008352 89.717774 
L 4403.593318 132.922185 
L 4407.178285 155.427505 
L 4410.763251 164.267227 
L 4414.348217 163.439757 
L 4417.933183 139.189958 
L 4421.51815 100.891701 
L 4425.103116 60.453756 
L 4428.688082 26.116855 
L 4432.273049 14.689747 
L 4435.858015 26.292847 
L 4439.442981 58.588861 
L 4443.027947 95.556375 
L 4446.612914 139.424614 
L 4450.19788 171.717541 
L 4453.782846 165.520782 
L 4457.367812 170.291082 
L 4460.952779 132.474486 
L 4464.537745 108.199987 
L 4468.122711 73.755021 
L 4471.707677 32.270388 
L 4475.292644 27.259257 
L 4478.87761 33.026844 
L 4482.462576 55.992212 
L 4486.047543 90.18091 
L 4489.632509 132.71223 
L 4493.217475 156.026494 
L 4496.802441 182.885293 
L 4500.387408 172.384457 
L 4503.972374 147.152809 
L 4507.55734 112.973375 
L 4511.142306 69.1885 
L 4514.727273 34.592243 
L 4518.312239 26.150818 
L 4521.897205 33.557906 
L 4525.482172 55.152393 
L 4529.067138 99.449804 
L 4532.652104 133.187716 
L 4536.23707 164.236351 
L 4539.822037 182.428332 
L 4543.407003 173.844879 
L 4546.991969 161.077764 
L 4550.576935 122.924623 
L 4554.161902 77.944857 
L 4557.746868 44.169895 
L 4561.331834 34.44404 
L 4564.916801 25.696945 
L 4568.501767 53.784598 
L 4572.086733 95.009874 
L 4575.671699 133.530436 
L 4579.256666 174.073359 
L 4582.841632 182.403632 
L 4586.426598 178.170569 
L 4590.011564 150.265083 
L 4593.596531 119.799999 
L 4597.181497 87.933156 
L 4600.766463 53.66727 
L 4604.351429 36.398473 
L 4607.936396 30.865542 
L 4611.521362 49.372456 
L 4615.106328 87.692326 
L 4618.691295 131.878585 
L 4622.276261 158.882499 
L 4625.861227 181.418696 
L 4629.446193 177.960614 
L 4633.03116 157.888301 
L 4636.616126 121.396274 
L 4640.201092 91.406676 
L 4643.786058 48.612913 
L 4647.371025 27.503175 
L 4650.955991 32.270388 
L 4654.540957 51.342327 
L 4658.125924 89.415192 
L 4661.71089 130.137194 
L 4665.295856 165.338615 
L 4668.880822 177.49439 
L 4672.465789 179.627903 
L 4676.050755 166.366777 
L 4683.220687 97.174263 
L 4686.805654 54.707782 
L 4690.39062 33.116383 
L 4693.975586 27.580365 
L 4697.560553 51.635647 
L 4701.145519 88.998369 
L 4704.730485 124.490022 
L 4708.315451 158.286598 
L 4711.900418 184.611246 
L 4715.485384 187.309785 
L 4719.07035 160.525088 
L 4722.655316 136.763126 
L 4729.825249 48.566599 
L 4733.410215 25.323349 
L 4736.995181 37.034513 
L 4740.580148 57.069775 
L 4744.165114 75.477886 
L 4747.75008 118.493955 
L 4751.335047 159.784071 
L 4754.920013 177.716696 
L 4758.504979 185.923465 
L 4762.089945 168.114343 
L 4765.674912 133.752742 
L 4769.259878 86.664164 
L 4772.844844 61.380028 
L 4776.42981 24.174771 
L 4780.014777 23.838226 
L 4783.599743 47.260556 
L 4787.184709 86.852506 
L 4794.354642 152.429472 
L 4797.939608 176.154384 
L 4801.524574 186.22296 
L 4805.109541 171.087676 
L 4812.279473 103.025214 
L 4815.864439 60.632835 
L 4819.449406 29.791067 
L 4823.034372 22.245038 
L 4826.619338 37.42046 
L 4830.204305 70.383391 
L 4833.789271 109.209623 
L 4837.374237 157.459128 
L 4840.959203 179.05979 
L 4844.54417 184.994105 
L 4848.129136 172.440033 
L 4851.714102 136.482156 
L 4855.299068 97.186613 
L 4858.884035 56.331845 
L 4862.469001 29.479222 
L 4866.053967 25.286298 
L 4869.638934 35.481464 
L 4873.2239 61.861689 
L 4876.808866 107.616435 
L 4880.393832 142.243568 
L 4883.978799 170.865371 
L 4887.563765 174.434605 
L 4891.148731 174.366679 
L 4894.733697 145.565797 
L 4898.318664 101.169583 
L 4901.90363 61.438691 
L 4905.488596 32.823064 
L 4909.073562 25.965564 
L 4912.658529 25.002241 
L 4916.243495 69.849241 
L 4919.828461 110.750322 
L 4926.998394 176.101895 
L 4930.58336 182.996446 
L 4934.168326 173.650362 
L 4937.753293 146.868752 
L 4941.338259 115.900394 
L 4944.923225 75.033276 
L 4948.508191 42.962654 
L 4952.093158 37.167279 
L 4955.678124 45.633405 
L 4959.26309 61.200948 
L 4962.848057 104.593701 
L 4966.433023 151.490849 
L 4970.017989 179.686567 
L 4973.602955 193.09281 
L 4977.187922 182.307917 
L 4980.772888 153.584224 
L 4984.357854 120.309448 
L 4987.94282 74.178018 
L 4991.527787 50.057897 
L 4995.112753 43.157171 
L 4998.697719 44.738008 
L 5002.282686 61.05892 
L 5005.867652 99.425104 
L 5009.452618 143.682377 
L 5013.037584 173.106949 
L 5016.622551 186.713884 
L 5020.207517 184.920004 
L 5023.792483 161.117902 
L 5027.377449 122.831996 
L 5030.962416 78.330804 
L 5034.547382 46.704792 
L 5038.132348 34.706483 
L 5041.717314 44.271785 
L 5045.302281 69.691774 
L 5048.887247 99.69681 
L 5052.472213 146.161698 
L 5056.05718 163.276116 
L 5059.642146 187.056604 
L 5063.227112 183.539858 
L 5066.812078 159.620429 
L 5070.397045 132.502275 
L 5073.982011 81.52953 
L 5077.566977 47.881158 
L 5081.151943 36.185431 
L 5084.73691 42.851501 
L 5088.321876 60.41053 
L 5091.906842 96.319005 
L 5095.491809 137.973454 
L 5099.076775 165.323177 
L 5102.661741 188.924586 
L 5106.246707 181.860219 
L 5109.831674 164.850778 
L 5113.41664 130.022953 
L 5117.001606 80.961416 
L 5120.586572 43.506067 
L 5124.171539 39.356368 
L 5127.756505 33.428228 
L 5131.341471 50.619835 
L 5134.926438 85.265493 
L 5138.511404 130.634293 
L 5142.09637 163.235978 
L 5145.681336 172.402982 
L 5149.266303 186.821949 
L 5152.851269 162.985884 
L 5156.436235 128.482254 
L 5160.021201 83.567328 
L 5163.606168 51.762237 
L 5167.191134 37.040689 
L 5170.7761 32.100572 
L 5174.361066 55.319122 
L 5177.946033 85.472361 
L 5181.530999 129.979727 
L 5185.115965 169.633429 
L 5188.700932 176.429178 
L 5192.285898 184.790326 
L 5195.870864 167.333187 
L 5199.45583 139.890837 
L 5203.040797 98.325928 
L 5206.625763 48.983421 
L 5210.210729 29.852818 
L 5213.795695 28.824656 
L 5217.380662 47.896596 
L 5220.965628 87.744815 
L 5224.550594 119.398614 
L 5228.135561 153.892981 
L 5231.720527 175.493643 
L 5235.305493 184.537145 
L 5238.890459 166.323551 
L 5242.475426 131.285771 
L 5246.060392 86.126926 
L 5249.645358 47.862632 
L 5253.230324 39.155676 
L 5256.815291 26.490451 
L 5260.400257 42.450117 
L 5263.985223 84.490512 
L 5267.57019 117.425655 
L 5271.155156 156.038845 
L 5274.740122 176.753373 
L 5278.325088 182.675338 
L 5281.910055 158.163095 
L 5285.495021 142.666565 
L 5289.079987 105.063012 
L 5292.664953 60.401267 
L 5296.24992 31.368817 
L 5299.834886 34.311274 
L 5303.419852 51.138547 
L 5307.004819 81.026255 
L 5310.589785 121.504339 
L 5314.174751 160.278083 
L 5317.759717 189.078965 
L 5321.344684 190.181228 
L 5324.92965 174.2123 
L 5328.514616 142.35472 
L 5332.099582 107.131686 
L 5335.684549 66.900608 
L 5339.269515 38.942634 
L 5342.854481 28.920371 
L 5346.439447 46.27562 
L 5350.024414 73.461701 
L 5353.60938 112.704756 
L 5357.194346 153.556436 
L 5360.779313 187.343749 
L 5364.364279 190.452935 
L 5367.949245 178.624442 
L 5371.534211 142.22813 
L 5375.119178 108.786625 
L 5378.704144 71.800587 
L 5382.28911 39.887431 
L 5385.874076 35.444413 
L 5389.459043 45.445063 
L 5393.044009 72.773172 
L 5396.628975 109.941378 
L 5400.213942 143.975696 
L 5403.798908 170.849933 
L 5407.383874 183.610873 
L 5410.96884 179.541451 
L 5414.553807 149.060929 
L 5418.138773 109.339301 
L 5421.723739 72.195796 
L 5425.308705 43.274499 
L 5428.893672 27.941611 
L 5432.478638 41.712187 
L 5436.063604 75.514937 
L 5439.648571 113.5384 
L 5443.233537 152.904958 
L 5446.818503 182.048561 
L 5450.403469 183.132299 
L 5453.988436 176.64222 
L 5457.573402 157.054656 
L 5461.158368 116.820491 
L 5464.743334 75.027101 
L 5468.328301 41.267576 
L 5471.913267 37.20433 
L 5475.498233 38.470235 
L 5479.083199 64.628155 
L 5482.668166 97.850441 
L 5486.253132 144.667313 
L 5489.838098 177.04978 
L 5493.423065 193.151474 
L 5497.008031 184.475393 
L 5500.592997 149.311023 
L 5504.177963 111.222721 
L 5511.347896 47.504474 
L 5514.932862 36.061928 
L 5518.517828 43.669708 
L 5522.102795 69.72265 
L 5525.687761 97.90293 
L 5529.272727 131.909461 
L 5532.857694 176.586644 
L 5536.44266 198.261407 
L 5540.027626 191.09515 
L 5543.612592 163.34713 
L 5547.197559 130.378024 
L 5550.782525 84.305258 
L 5554.367491 54.627505 
L 5557.952457 34.635469 
L 5565.12239 67.505773 
L 5572.292323 149.388212 
L 5575.877289 177.503653 
L 5579.462255 198.320071 
L 5583.047221 185.8154 
L 5586.632188 172.847593 
L 5590.217154 136.701374 
L 5593.80212 92.629355 
L 5597.387086 62.479204 
L 5600.972053 43.354776 
L 5604.557019 45.049853 
L 5608.141985 65.390785 
L 5611.726951 96.955045 
L 5615.311918 139.705583 
L 5618.896884 170.939473 
L 5622.48185 189.486524 
L 5626.066817 194.723048 
L 5629.651783 175.203411 
L 5633.236749 129.8871 
L 5636.821715 87.713939 
L 5643.991648 37.794056 
L 5647.576614 40.051072 
L 5651.16158 51.23735 
L 5654.746547 98.41238 
L 5658.331513 141.731031 
L 5661.916479 166.221661 
L 5665.501446 188.270021 
L 5669.086412 185.518993 
L 5672.671378 170.757306 
L 5676.256344 136.760038 
L 5679.841311 95.275405 
L 5683.426277 62.8528 
L 5687.011243 41.943755 
L 5690.596209 34.079706 
L 5694.181176 51.589333 
L 5697.766142 92.731245 
L 5701.351108 131.881672 
L 5704.936075 168.311948 
L 5708.521041 188.646704 
L 5712.106007 187.871724 
L 5715.690973 176.611344 
L 5719.27594 143.101913 
L 5722.860906 96.383844 
L 5726.445872 56.903047 
L 5730.030838 37.219768 
L 5733.615805 43.422702 
L 5737.200771 59.116836 
L 5740.785737 94.750518 
L 5744.370704 138.896639 
L 5751.540636 190.425147 
L 5755.125602 187.427113 
L 5758.710569 175.231199 
L 5769.465467 60.382741 
L 5773.050434 38.498023 
L 5776.6354 33.653621 
L 5780.220366 41.817164 
L 5787.390299 131.751994 
L 5790.975265 155.232988 
L 5794.560231 190.147265 
L 5798.145198 189.066614 
L 5801.730164 178.874535 
L 5805.31513 142.379421 
L 5808.900096 104.217017 
L 5812.485063 63.513541 
L 5816.070029 38.924108 
L 5819.654995 34.181596 
L 5823.239961 56.134241 
L 5826.824928 81.248561 
L 5830.409894 127.185474 
L 5833.99486 161.710716 
L 5837.579827 186.185909 
L 5841.164793 202.003546 
L 5844.749759 185.883326 
L 5848.334725 156.789125 
L 5851.919692 106.186889 
L 5855.504658 67.6231 
L 5859.089624 50.644536 
L 5862.67459 42.372927 
L 5866.259557 61.623946 
L 5869.844523 82.764559 
L 5873.429489 126.336391 
L 5877.014456 157.928439 
L 5880.599422 186.519367 
L 5884.184388 201.429257 
L 5887.769354 189.310533 
L 5891.354321 150.90421 
L 5894.939287 116.659937 
L 5898.524253 73.687094 
L 5902.109219 48.0695 
L 5905.694186 38.689453 
L 5909.279152 54.108793 
L 5912.864118 74.502213 
L 5916.449084 116.724776 
L 5920.034051 164.399993 
L 5923.619017 187.136881 
L 5927.203983 200.469022 
L 5930.78895 186.139595 
L 5934.373916 160.398498 
L 5937.958882 113.143191 
L 5941.543848 78.142462 
L 5945.128815 47.44581 
L 5948.713781 37.253731 
L 5952.298747 48.612913 
L 5955.883713 77.386007 
L 5959.46868 114.313381 
L 5963.053646 161.272281 
L 5970.223579 211.68 
L 5973.808545 196.9214 
L 5977.393511 176.43844 
L 5980.978477 129.223272 
L 5984.563444 84.536826 
L 5991.733376 28.98521 
L 5995.318342 42.06417 
L 5998.903309 73.174557 
L 6002.488275 99.863539 
L 6006.073241 148.560742 
L 6009.658208 182.585798 
L 6013.243174 198.777032 
L 6016.82814 192.453682 
L 6020.413106 167.793236 
L 6023.998073 119.068244 
L 6027.583039 81.050956 
L 6031.168005 44.348974 
L 6034.752971 34.592243 
L 6038.337938 35.543216 
L 6041.922904 61.102146 
L 6045.50787 101.459814 
L 6049.092836 147.38129 
L 6052.677803 178.803521 
L 6056.262769 195.173834 
L 6059.847735 184.997193 
L 6063.432702 169.889698 
L 6067.017668 126.61736 
L 6070.602634 93.453737 
L 6074.1876 47.501386 
L 6077.772567 35.845798 
L 6081.357533 41.221263 
L 6084.942499 70.787863 
L 6088.527465 89.974042 
L 6092.112432 138.936777 
L 6095.697398 176.645308 
L 6099.282364 199.601414 
L 6102.867331 199.823719 
L 6106.452297 176.42609 
L 6110.037263 139.866137 
L 6113.622229 84.941298 
L 6117.207196 63.047317 
L 6120.792162 39.791716 
L 6124.377128 39.909044 
L 6127.962094 61.092883 
L 6131.547061 92.894887 
L 6135.132027 139.578992 
L 6138.716993 170.476337 
L 6142.30196 195.291162 
L 6145.886926 190.999435 
L 6149.471892 173.523771 
L 6153.056858 121.411712 
L 6156.641825 91.314049 
L 6160.226791 57.332219 
L 6163.811757 45.926724 
L 6167.396723 48.523373 
L 6170.98169 59.660249 
L 6174.566656 96.751265 
L 6178.151622 140.005077 
L 6181.736588 176.330375 
L 6185.321555 187.238771 
L 6188.906521 192.780965 
L 6192.491487 180.952472 
L 6196.076454 138.686684 
L 6199.66142 99.752386 
L 6203.246386 68.694488 
L 6206.831352 47.64959 
L 6210.416319 42.518043 
L 6214.001285 55.516726 
L 6221.171217 133.98431 
L 6224.756184 155.10331 
L 6228.34115 188.433662 
L 6231.926116 186.66757 
L 6235.511083 164.881654 
L 6239.096049 134.515372 
L 6242.681015 90.585382 
L 6246.265981 65.437099 
L 6249.850948 45.269071 
L 6253.435914 33.076245 
L 6257.02088 48.328856 
L 6260.605846 90.045057 
L 6264.190813 125.416294 
L 6267.775779 164.168425 
L 6271.360745 191.505797 
L 6274.945712 191.113675 
L 6278.530678 168.401487 
L 6282.115644 136.695199 
L 6285.70061 100.836125 
L 6289.285577 62.099432 
L 6292.870543 43.20966 
L 6296.455509 37.435898 
L 6300.040475 48.649964 
L 6307.210408 124.894494 
L 6310.795374 165.489906 
L 6314.380341 185.380052 
L 6317.965307 191.956583 
L 6321.550273 179.976799 
L 6325.135239 144.905056 
L 6328.720206 104.828357 
L 6332.305172 59.505871 
L 6335.890138 46.334284 
L 6339.475104 35.947688 
L 6343.060071 44.626856 
L 6346.645037 86.713565 
L 6350.230003 120.000691 
L 6353.814969 170.053339 
L 6357.399936 186.148858 
L 6360.984902 186.991765 
L 6364.569868 180.810444 
L 6368.154835 148.915813 
L 6371.739801 106.665463 
L 6375.324767 71.899389 
L 6378.909733 42.200023 
L 6382.4947 37.448248 
L 6386.079666 47.621802 
L 6389.664632 77.240891 
L 6393.249598 121.806921 
L 6400.419531 179.612465 
L 6404.004497 188.069328 
L 6407.589464 178.522552 
L 6411.17443 151.901497 
L 6414.759396 103.855771 
L 6421.929329 45.546953 
L 6425.514295 37.923734 
L 6429.099261 41.279926 
L 6432.684227 71.633858 
L 6439.85416 163.223627 
L 6443.439126 180.069426 
L 6447.024093 202.719863 
L 6450.609059 182.35423 
L 6454.194025 158.863974 
L 6457.778991 110.336587 
L 6461.363958 69.753526 
L 6464.948924 48.890794 
L 6468.53389 40.075773 
L 6472.118856 39.93992 
L 6475.703823 70.57482 
L 6482.873755 147.896914 
L 6486.458721 182.974833 
L 6490.043688 187.893337 
L 6493.628654 186.14577 
L 6497.21362 156.05737 
L 6504.383553 74.04834 
L 6507.968519 44.765797 
L 6511.553485 26.462663 
L 6515.138452 33.523943 
L 6518.723418 62.016068 
L 6522.308384 91.595018 
L 6525.89335 147.835163 
L 6529.478317 177.207246 
L 6533.063283 187.281997 
L 6536.648249 187.325223 
L 6540.233216 151.351909 
L 6543.818182 114.013887 
L 6547.403148 70.173436 
L 6554.573081 32.576058 
L 6558.158047 38.917933 
L 6561.743013 60.472281 
L 6565.327979 97.242189 
L 6568.912946 138.770048 
L 6572.497912 178.216882 
L 6576.082878 195.186184 
L 6579.667845 183.465757 
L 6583.252811 161.23523 
L 6586.837777 123.057388 
L 6590.422743 83.31106 
L 6594.00771 60.367304 
L 6597.592676 34.295836 
L 6601.177642 31.91223 
L 6604.762608 62.259986 
L 6608.347575 105.482922 
L 6611.932541 145.714 
L 6615.517507 170.365184 
L 6619.102473 188.019927 
L 6622.68744 191.802204 
L 6626.272406 163.445933 
L 6629.857372 124.517811 
L 6633.442339 75.851483 
L 6637.027305 42.81445 
L 6640.612271 27.444511 
L 6644.197237 33.483804 
L 6647.782204 56.470786 
L 6651.36717 87.213752 
L 6654.952136 130.52314 
L 6658.537102 175.345439 
L 6662.122069 189.088227 
L 6665.707035 186.226047 
L 6669.292001 165.773963 
L 6672.876968 123.631677 
L 6676.461934 88.80694 
L 6680.0469 50.30799 
L 6683.631866 27.864421 
L 6687.216833 32.659422 
L 6690.801799 45.9576 
L 6694.386765 91.471515 
L 6697.971731 132.502275 
L 6701.556698 164.128286 
L 6705.141664 178.257021 
L 6708.72663 182.199852 
L 6712.311597 168.404575 
L 6715.896563 124.625876 
L 6719.481529 85.10494 
L 6723.066495 61.543669 
L 6726.651462 36.546677 
L 6730.236428 23.109559 
L 6733.821394 52.642196 
L 6737.40636 78.309191 
L 6740.991327 126.379617 
L 6748.161259 183.870229 
L 6751.746226 183.082898 
L 6755.331192 167.212772 
L 6766.086091 55.368523 
L 6769.671057 27.950873 
L 6773.256023 18.194142 
L 6776.840989 41.023658 
L 6784.010922 110.76576 
L 6787.595888 149.758721 
L 6791.180854 175.221936 
L 6794.765821 180.551088 
L 6798.350787 158.098256 
L 6801.935753 130.763971 
L 6805.52072 88.686524 
L 6809.105686 45.269071 
L 6812.690652 25.218371 
L 6816.275618 25.999527 
L 6819.860585 43.410352 
L 6823.445551 67.416233 
L 6830.615483 154.062798 
L 6834.20045 173.511421 
L 6837.785416 177.69817 
L 6841.370382 167.419639 
L 6844.955349 144.179476 
L 6848.540315 98.313577 
L 6852.125281 70.321639 
L 6855.710247 46.426911 
L 6859.295214 30.35918 
L 6862.88018 41.857303 
L 6866.465146 71.328188 
L 6870.050112 114.739466 
L 6873.635079 143.176015 
L 6877.220045 172.943308 
L 6880.805011 182.394369 
L 6884.389978 165.89129 
L 6887.974944 141.203056 
L 6895.144876 64.319397 
L 6898.729843 41.906704 
L 6902.314809 34.227909 
L 6905.899775 41.878916 
L 6909.484741 74.403411 
L 6913.069708 108.237037 
L 6916.654674 144.929756 
L 6923.824606 182.030035 
L 6927.409573 162.365282 
L 6930.994539 141.314208 
L 6934.579505 102.580603 
L 6938.164472 66.378808 
L 6941.749438 36.756632 
L 6945.334404 30.254203 
L 6948.91937 40.67785 
L 6952.504337 65.755119 
L 6956.089303 96.461033 
L 6959.674269 140.699781 
L 6963.259235 177.830936 
L 6966.844202 175.728298 
L 6970.429168 173.088423 
L 6974.014134 152.259655 
L 6977.599101 114.396746 
L 6981.184067 66.378808 
L 6984.769033 40.807528 
L 6988.353999 25.900725 
L 6991.938966 37.559401 
L 6995.523932 67.122914 
L 6999.108898 97.91528 
L 7002.693864 139.656182 
L 7006.278831 168.213145 
L 7009.863797 180.594314 
L 7013.448763 166.94724 
L 7017.03373 147.643733 
L 7020.618696 110.05253 
L 7024.203662 68.700663 
L 7027.788628 43.573993 
L 7031.373595 22.742137 
L 7034.958561 40.449369 
L 7038.543527 54.988751 
L 7042.128493 104.037938 
L 7045.71346 134.360994 
L 7049.298426 161.374171 
L 7052.883392 171.572425 
L 7056.468358 167.589456 
L 7060.053325 147.455391 
L 7063.638291 115.372419 
L 7067.223257 68.851955 
L 7070.808224 42.90399 
L 7074.39319 27.873684 
L 7077.978156 37.562488 
L 7081.563122 55.902673 
L 7085.148089 104.235543 
L 7088.733055 126.135699 
L 7092.318021 165.733824 
L 7095.902987 177.957526 
L 7099.487954 180.5233 
L 7103.07292 161.207442 
L 7106.657886 121.822359 
L 7110.242853 85.401347 
L 7113.827819 44.27796 
L 7117.412785 37.618065 
L 7120.997751 33.684497 
L 7124.582718 49.88808 
L 7128.167684 80.578557 
L 7131.75265 134.901319 
L 7135.337616 170.797444 
L 7138.922583 185.914202 
L 7142.507549 183.221838 
L 7146.092515 156.761337 
L 7149.677482 120.331061 
L 7153.262448 80.050582 
L 7156.847414 41.53002 
L 7160.43238 28.139215 
L 7164.017347 36.907923 
L 7167.602313 48.001573 
L 7171.187279 82.437276 
L 7174.772245 124.863619 
L 7178.357212 157.909914 
L 7181.942178 179.952099 
L 7185.527144 179.297533 
L 7189.112111 170.976523 
L 7192.697077 129.78521 
L 7196.282043 95.287756 
L 7199.867009 49.122362 
L 7203.451976 29.559499 
L 7207.036942 28.481936 
L 7214.206874 74.307696 
L 7217.791841 129.420877 
L 7221.376807 162.306618 
L 7224.961773 177.707433 
L 7228.546739 185.568394 
L 7232.131706 166.212398 
L 7235.716672 134.002835 
L 7242.886605 48.304155 
L 7246.471571 34.650907 
L 7250.056537 25.764872 
L 7253.641503 50.573522 
L 7257.22647 74.440462 
L 7260.811436 116.89768 
L 7264.396402 152.167028 
L 7267.981368 182.360406 
L 7271.566335 178.676931 
L 7275.151301 164.014046 
L 7278.736267 130.967751 
L 7285.9062 51.394816 
L 7289.491166 24.421777 
L 7293.076132 31.473794 
L 7296.661099 39.72379 
L 7300.246065 71.93644 
L 7307.415997 150.774532 
L 7311.000964 169.818683 
L 7314.58593 186.185909 
L 7318.170896 166.181522 
L 7325.340829 96.998271 
L 7328.925795 56.424473 
L 7332.510761 32.183936 
L 7336.095728 27.648291 
L 7339.680694 45.395661 
L 7346.850626 118.370452 
L 7350.435593 143.744128 
L 7354.020559 179.837858 
L 7357.605525 185.605445 
L 7361.190491 175.138572 
L 7364.775458 152.410946 
L 7368.360424 100.607644 
L 7371.94539 59.357667 
L 7375.530357 34.691045 
L 7379.115323 29.624338 
L 7382.700289 41.094672 
L 7386.285255 71.738835 
L 7389.870222 111.580879 
L 7393.455188 148.338437 
L 7397.040154 174.09806 
L 7400.62512 184.138848 
L 7404.210087 163.606486 
L 7407.795053 139.239359 
L 7411.380019 100.073494 
L 7414.964986 65.60074 
L 7418.549952 36.821471 
L 7422.134918 26.005702 
L 7425.719884 38.359082 
L 7429.304851 63.683357 
L 7436.474783 149.178257 
L 7440.059749 177.923563 
L 7443.644716 181.545286 
L 7447.229682 173.909718 
L 7450.814648 151.663753 
L 7454.399615 103.633466 
L 7457.984581 66.854295 
L 7461.569547 49.798541 
L 7465.154513 33.338688 
L 7468.73948 47.062951 
L 7472.324446 71.105883 
L 7475.909412 105.127851 
L 7479.494378 143.846018 
L 7483.079345 173.965294 
L 7486.664311 191.419345 
L 7490.249277 180.418322 
L 7493.834243 151.703892 
L 7497.41921 108.968792 
L 7501.004176 73.359811 
L 7504.589142 39.859643 
L 7508.174109 39.461346 
L 7511.759075 33.301638 
L 7515.344041 62.753998 
L 7518.929007 102.781296 
L 7522.513974 145.328053 
L 7526.09894 168.935638 
L 7529.683906 187.71117 
L 7533.268872 177.315311 
L 7536.853839 154.386993 
L 7540.438805 116.437632 
L 7544.023771 76.070701 
L 7547.608738 44.26561 
L 7551.193704 23.869102 
L 7554.77867 35.302385 
L 7561.948603 98.674823 
L 7565.533569 141.774257 
L 7569.118535 174.820552 
L 7572.703501 184.876778 
L 7576.288468 187.180107 
L 7579.873434 159.191257 
L 7583.4584 111.942125 
L 7587.043367 75.505675 
L 7590.628333 50.459281 
L 7594.213299 39.192727 
L 7597.798265 46.507188 
L 7601.383232 67.286555 
L 7604.968198 97.587998 
L 7608.553164 142.722142 
L 7612.13813 168.027891 
L 7615.723097 189.94966 
L 7619.308063 188.34721 
L 7622.893029 165.33244 
L 7626.477996 131.001714 
L 7630.062962 93.561802 
L 7633.647928 53.355425 
L 7637.232894 38.649314 
L 7640.817861 48.427658 
L 7644.402827 65.236406 
L 7647.987793 97.680625 
L 7651.572759 134.93837 
L 7655.157726 173.885017 
L 7658.742692 187.09983 
L 7662.327658 186.886788 
L 7665.912624 167.02443 
L 7669.497591 132.95306 
L 7673.082557 97.730026 
L 7676.667523 50.175225 
L 7680.25249 34.626206 
L 7683.837456 32.208637 
L 7687.422422 58.403607 
L 7691.007388 94.719642 
L 7694.592355 137.627646 
L 7698.177321 165.721474 
L 7701.762287 188.680668 
L 7705.347253 186.476141 
L 7708.93222 172.656163 
L 7712.517186 138.167971 
L 7719.687119 57.566875 
L 7723.272085 34.431689 
L 7726.857051 46.17373 
L 7730.442017 62.42054 
L 7734.026984 89.652935 
L 7737.61195 135.447819 
L 7741.196916 166.061107 
L 7744.781882 190.551737 
L 7748.366849 194.222862 
L 7751.951815 171.606388 
L 7755.536781 137.430041 
L 7762.706714 61.04657 
L 7766.29168 41.341678 
L 7769.876646 37.837282 
L 7777.046579 90.406303 
L 7780.631545 126.540171 
L 7784.216511 164.449394 
L 7787.801478 184.852077 
L 7791.386444 188.001402 
L 7794.97141 172.900081 
L 7798.556376 138.871938 
L 7802.141343 97.59726 
L 7805.726309 60.790301 
L 7809.311275 40.399968 
L 7812.896242 22.461168 
L 7816.481208 45.472851 
L 7820.066174 80.637221 
L 7823.65114 125.98132 
L 7827.236107 157.956228 
L 7830.821073 180.899983 
L 7834.406039 184.311752 
L 7837.991005 165.699861 
L 7841.575972 135.389156 
L 7845.160938 106.841454 
L 7848.745904 62.630495 
L 7852.330871 43.086157 
L 7855.915837 41.696749 
L 7859.500803 49.54536 
L 7863.085769 77.20384 
L 7866.670736 121.495076 
L 7870.255702 159.172731 
L 7873.840668 182.817366 
L 7877.425634 191.792941 
L 7881.010601 180.767218 
L 7884.595567 152.957447 
L 7891.7655 70.772425 
L 7895.350466 41.838777 
L 7898.935432 36.812208 
L 7902.520398 48.724065 
L 7906.105365 73.440088 
L 7909.690331 115.656476 
L 7913.275297 152.534449 
L 7916.860263 180.804269 
L 7920.44523 193.611522 
L 7924.030196 180.035463 
L 7927.615162 145.565797 
L 7931.200128 108.187636 
L 7934.785095 66.239868 
L 7938.370061 33.625833 
L 7941.955027 23.412141 
L 7945.539994 48.433833 
L 7949.12496 65.974336 
L 7952.709926 106.77044 
L 7956.294892 140.353973 
L 7959.879859 176.734847 
L 7963.464825 182.607411 
L 7967.049791 166.255624 
L 7970.634757 152.617814 
L 7974.219724 106.075736 
L 7977.80469 69.559009 
L 7981.389656 50.737163 
L 7984.974623 34.975102 
L 7988.559589 43.648095 
L 7992.144555 70.414267 
L 7999.314488 146.717461 
L 8002.899454 176.969503 
L 8006.48442 183.678799 
L 8010.069386 186.911488 
L 8013.654353 160.095916 
L 8017.239319 117.996856 
L 8020.824285 69.117486 
L 8024.409252 48.863006 
L 8027.994218 36.688705 
L 8031.579184 43.478279 
L 8035.16415 65.878622 
L 8042.334083 140.634942 
L 8045.919049 174.113498 
L 8049.504015 191.83308 
L 8053.088982 180.325695 
L 8056.673948 150.700431 
L 8060.258914 117.811602 
L 8063.843881 75.342033 
L 8067.428847 43.682058 
L 8071.013813 33.264587 
L 8074.598779 31.958543 
L 8078.183746 52.750261 
L 8081.768712 93.009127 
L 8085.353678 139.044842 
L 8088.938644 166.061107 
L 8092.523611 185.386227 
L 8096.108577 188.072416 
L 8099.693543 162.281917 
L 8103.278509 121.843972 
L 8106.863476 79.235463 
L 8114.033408 35.527778 
L 8117.618375 35.135656 
L 8121.203341 59.965919 
L 8124.788307 94.64554 
L 8128.373273 141.576652 
L 8131.95824 170.352834 
L 8135.543206 191.545936 
L 8139.128172 184.382766 
L 8142.713138 162.016386 
L 8146.298105 133.255642 
L 8149.883071 90.782986 
L 8153.468037 54.451513 
L 8157.053004 41.672048 
L 8160.63797 48.038624 
L 8164.222936 62.303212 
L 8167.807902 95.627389 
L 8171.392869 134.083112 
L 8174.977835 167.404201 
L 8178.562801 185.818487 
L 8182.147767 194.488393 
L 8185.732734 171.955284 
L 8189.3177 129.612306 
L 8192.902666 96.72039 
L 8196.487633 50.502507 
L 8200.072599 43.104682 
L 8203.657565 39.390332 
L 8207.242531 69.972744 
L 8210.827498 91.619719 
L 8214.412464 131.001714 
L 8217.99743 160.796795 
L 8221.582396 189.471086 
L 8225.167363 187.118356 
L 8228.752329 171.007399 
L 8232.337295 136.682849 
L 8235.922261 92.218708 
L 8239.507228 63.223309 
L 8243.092194 42.944128 
L 8246.67716 37.309307 
L 8250.262127 64.998663 
L 8253.847093 91.381976 
L 8257.432059 138.631107 
L 8261.017025 168.460151 
L 8264.601992 189.767493 
L 8268.186958 194.704523 
L 8271.771924 176.65457 
L 8278.941857 102.13908 
L 8282.526823 66.246043 
L 8286.111789 47.603276 
L 8289.696756 43.811736 
L 8293.281722 58.459183 
L 8296.866688 87.96712 
L 8300.451654 130.791759 
L 8304.036621 164.974281 
L 8307.621587 186.507016 
L 8311.206553 197.134443 
L 8314.791519 180.492424 
L 8318.376486 138.720647 
L 8321.961452 102.463276 
L 8325.546418 56.384334 
L 8329.131385 30.751302 
L 8332.716351 32.523569 
L 8336.301317 51.141635 
L 8339.886283 91.446815 
L 8343.47125 138.134008 
L 8347.056216 162.519661 
L 8350.641182 192.97857 
L 8354.226148 202.284515 
L 8357.811115 188.89371 
L 8361.396081 147.196035 
L 8364.981047 108.931741 
L 8368.566013 72.899763 
L 8372.15098 53.503629 
L 8375.735946 44.139019 
L 8379.320912 57.724341 
L 8382.905879 83.394424 
L 8386.490845 127.503494 
L 8390.075811 161.615002 
L 8393.660777 189.375372 
L 8397.245744 200.055287 
L 8400.83071 187.109093 
L 8404.415676 155.455293 
L 8411.585609 70.35869 
L 8415.170575 45.710594 
L 8418.755541 36.481838 
L 8422.340508 49.739877 
L 8425.925474 73.60373 
L 8429.51044 119.21336 
L 8433.095406 154.686488 
L 8436.680373 191.721927 
L 8440.265339 194.330927 
L 8443.850305 191.41317 
L 8447.435271 162.16459 
L 8451.020238 104.67089 
L 8454.605204 66.527012 
L 8458.19017 46.000826 
L 8461.775137 37.797144 
L 8465.360103 48.115813 
L 8468.945069 70.386478 
L 8472.530035 110.96954 
L 8476.115002 158.092081 
L 8479.699968 187.448726 
L 8483.284934 198.724543 
L 8486.8699 193.617697 
L 8490.454867 158.978214 
L 8494.039833 117.796164 
L 8497.624799 73.955713 
L 8501.209765 47.112352 
L 8504.794732 37.778619 
L 8508.379698 49.86338 
L 8511.964664 78.164075 
L 8515.549631 108.693998 
L 8519.134597 151.774906 
L 8522.719563 175.654197 
L 8526.304529 196.118631 
L 8529.889496 186.686096 
L 8533.474462 165.739999 
L 8537.059428 125.419382 
L 8540.644394 82.681195 
L 8544.229361 50.443844 
L 8547.814327 40.029459 
L 8551.399293 52.515605 
L 8554.98426 69.024859 
L 8558.569226 120.318711 
L 8562.154192 143.061775 
L 8565.739158 181.279755 
L 8569.324125 194.531619 
L 8572.909091 184.864427 
L 8576.494057 167.101619 
L 8580.079023 123.884858 
L 8583.66399 73.856911 
L 8587.248956 46.948711 
L 8590.833922 37.899034 
L 8598.003855 61.27505 
L 8601.588821 107.863441 
L 8605.173787 143.395233 
L 8608.758754 173.526859 
L 8612.34372 190.403534 
L 8615.928686 186.899138 
L 8619.513652 169.497576 
L 8623.098619 133.088914 
L 8626.683585 85.43531 
L 8630.268551 56.365809 
L 8633.853518 29.497747 
L 8637.438484 52.037031 
L 8641.02345 64.297784 
L 8644.608416 102.4324 
L 8648.193383 134.089287 
L 8651.778349 176.950977 
L 8655.363315 185.271987 
L 8658.948281 195.266461 
L 8662.533248 168.957251 
L 8669.70318 84.90116 
L 8673.288146 52.373577 
L 8676.873113 39.232866 
L 8680.458079 40.131349 
L 8684.043045 61.787587 
L 8687.628012 95.161165 
L 8691.212978 134.567861 
L 8694.797944 170.368272 
L 8698.38291 184.839727 
L 8701.967877 178.238495 
L 8705.552843 163.452108 
L 8709.137809 136.077684 
L 8712.722775 96.890206 
L 8716.307742 52.033944 
L 8719.892708 40.406143 
L 8723.477674 44.620681 
L 8727.062641 52.450766 
L 8730.647607 92.879449 
L 8734.232573 130.316273 
L 8737.817539 174.96258 
L 8741.402506 184.379678 
L 8744.987472 190.190491 
L 8748.572438 174.08571 
L 8752.157404 138.609494 
L 8755.742371 91.622806 
L 8759.327337 55.207969 
L 8762.912303 41.486794 
L 8766.49727 40.853841 
L 8770.082236 51.428779 
L 8777.252168 125.03961 
L 8780.837135 169.605641 
L 8784.422101 193.061934 
L 8788.007067 194.074658 
L 8791.592033 168.651581 
L 8795.177 140.462038 
L 8798.761966 99.573307 
L 8802.346932 60.23145 
L 8805.931898 44.716395 
L 8809.516865 39.680564 
L 8813.101831 59.706563 
L 8816.686797 85.972548 
L 8820.271764 125.6633 
L 8823.85673 163.032198 
L 8827.441696 182.193677 
L 8831.026662 184.65756 
L 8834.611629 172.21464 
L 8841.781561 103.778582 
L 8845.366527 64.520089 
L 8848.951494 39.575586 
L 8852.53646 38.914845 
L 8856.121426 46.945623 
L 8859.706393 77.515685 
L 8863.291359 121.624754 
L 8866.876325 158.37305 
L 8870.461291 186.611994 
L 8874.046258 192.058473 
L 8877.631224 177.806235 
L 8881.21619 145.920867 
L 8884.801156 110.537279 
L 8888.386123 61.438691 
L 8891.971089 41.178037 
L 8895.556055 36.009439 
L 8899.141022 51.823989 
L 8902.725988 70.065371 
L 8906.310954 110.580505 
L 8909.89592 148.301386 
L 8913.480887 181.366207 
L 8917.065853 193.370691 
L 8920.650819 183.437969 
L 8924.235785 151.345733 
L 8931.405718 55.936636 
L 8934.990684 44.858424 
L 8938.57565 30.269641 
L 8942.160617 50.873016 
L 8945.745583 74.153318 
L 8949.330549 109.725248 
L 8952.915516 148.965215 
L 8956.500482 179.177118 
L 8960.085448 188.757857 
L 8963.670414 181.875657 
L 8967.255381 152.046613 
L 8970.840347 104.519599 
L 8974.425313 61.864777 
L 8978.010279 37.099352 
L 8981.595246 24.55763 
L 8985.180212 38.59065 
L 8988.765178 71.661646 
L 8992.350145 106.152926 
L 8995.935111 142.43191 
L 8999.520077 172.301092 
L 9003.105043 183.218751 
L 9006.69001 172.961833 
L 9010.274976 143.148227 
L 9013.859942 109.712897 
L 9017.444908 72.529254 
L 9021.029875 41.264489 
L 9024.614841 29.463784 
L 9028.199807 41.048359 
L 9031.784774 62.581094 
L 9035.36974 92.913412 
L 9038.954706 142.663478 
L 9042.539672 167.805586 
L 9046.124639 190.724641 
L 9049.709605 185.148484 
L 9053.294571 149.341898 
L 9056.879537 105.535411 
L 9060.464504 71.646208 
L 9064.04947 44.444689 
L 9067.634436 28.423272 
L 9071.219403 36.290408 
L 9074.804369 66.255306 
L 9078.389335 98.109798 
L 9081.974301 138.637282 
L 9085.559268 169.716794 
L 9089.144234 176.842912 
L 9092.7292 180.078689 
L 9096.314166 152.318319 
L 9099.899133 114.65919 
L 9103.484099 85.216092 
L 9107.069065 43.873488 
L 9110.654031 28.728942 
L 9114.238998 35.589529 
L 9117.823964 60.589609 
L 9121.40893 97.887492 
L 9124.993897 139.14982 
L 9128.578863 175.607883 
L 9132.163829 181.610125 
L 9135.748795 185.343001 
L 9142.918728 122.146554 
L 9146.503694 84.629453 
L 9150.08866 54.395937 
L 9153.673627 47.155578 
L 9157.258593 34.663257 
L 9160.843559 62.284686 
L 9164.428526 103.738443 
L 9168.013492 140.063741 
L 9171.598458 175.225024 
L 9175.183424 179.964449 
L 9178.768391 185.333738 
L 9182.353357 165.425067 
L 9185.938323 117.286714 
L 9189.523289 81.557318 
L 9193.108256 48.220791 
L 9196.693222 38.612263 
L 9200.278188 37.790969 
L 9203.863155 54.581192 
L 9207.448121 94.117565 
L 9211.033087 125.796066 
L 9214.618053 165.360228 
L 9218.20302 183.91963 
L 9221.787986 185.062032 
L 9225.372952 170.52265 
L 9228.957918 134.243666 
L 9232.542885 94.611577 
L 9236.127851 59.759052 
L 9239.712817 40.15605 
L 9243.297783 37.321658 
L 9246.88275 60.392004 
L 9250.467716 95.954671 
L 9254.052682 127.376903 
L 9257.637649 160.173105 
L 9261.222615 178.822047 
L 9264.807581 187.346836 
L 9268.392547 167.175721 
L 9271.977514 127.605384 
L 9275.56248 97.168088 
L 9279.147446 63.853174 
L 9282.732412 37.111703 
L 9286.317379 34.67252 
L 9289.902345 46.769632 
L 9293.487311 76.990797 
L 9297.072278 120.997977 
L 9300.657244 149.956326 
L 9304.24221 185.796874 
L 9307.827176 183.308291 
L 9311.412143 160.68873 
L 9318.582075 87.077899 
L 9322.167041 59.882555 
L 9325.752008 36.03414 
L 9329.336974 34.771322 
L 9336.506907 70.491456 
L 9340.091873 115.267441 
L 9343.676839 147.652996 
L 9347.261805 168.111256 
L 9350.846772 182.687688 
L 9354.431738 167.194246 
L 9358.016704 131.211669 
L 9361.60167 99.70916 
L 9365.186637 59.530571 
L 9368.771603 34.385376 
L 9372.356569 35.481464 
L 9375.941535 45.284509 
L 9379.526502 67.215541 
L 9383.111468 115.1038 
L 9386.696434 140.823284 
L 9390.281401 169.442 
L 9393.866367 174.372854 
L 9397.451333 162.853119 
L 9401.036299 134.178827 
L 9404.621266 101.870462 
L 9408.206232 62.757085 
L 9411.791198 39.368719 
L 9415.376164 31.495407 
L 9418.961131 43.746897 
L 9422.546097 69.315091 
L 9426.131063 109.820962 
L 9429.71603 156.7953 
L 9433.300996 172.193027 
L 9436.885962 180.933947 
L 9440.470928 168.429276 
L 9447.640861 94.037289 
L 9451.225827 52.481642 
L 9454.810793 29.046962 
L 9458.39576 23.78265 
L 9461.980726 44.287223 
L 9465.565692 62.167359 
L 9469.150659 105.637301 
L 9472.735625 145.263214 
L 9476.320591 175.715948 
L 9479.905557 180.032375 
L 9483.490524 175.851801 
L 9487.07549 143.0803 
L 9490.660456 106.474033 
L 9494.245422 64.007552 
L 9497.830389 40.813703 
L 9501.415355 24.801549 
L 9505.000321 36.05884 
L 9508.585288 62.463766 
L 9512.170254 104.433147 
L 9515.75522 143.571224 
L 9519.340186 169.608729 
L 9522.925153 185.880239 
L 9526.510119 170.516475 
L 9530.095085 143.083388 
L 9533.680051 119.778386 
L 9537.265018 62.377314 
L 9540.849984 40.091211 
L 9544.43495 31.856653 
L 9548.019916 43.073806 
L 9551.604883 57.829318 
L 9555.189849 93.645167 
L 9558.774815 144.256666 
L 9562.359782 173.551559 
L 9565.944748 184.710049 
L 9569.529714 167.296136 
L 9573.11468 145.751051 
L 9576.699647 106.069561 
L 9580.284613 69.355229 
L 9583.869579 42.187673 
L 9587.454545 20.837105 
L 9587.454545 20.837105 
" clip-path="url(#pdc6b00e695)" style="fill: none; stroke: #1f77b4; stroke-width: 1.5; stroke-linecap: square"/>
   </g>
  </g>
 </g>
 <defs>
  <clipPath id="pdc6b00e695">
   <rect x="0" y="-0" width="10044" height="221.76"/>
  </clipPath>
 </defs>
</svg>
