<?xml version="1.0" encoding="utf-8" standalone="no"?>
<!DOCTYPE svg PUBLIC "-//W3C//DTD SVG 1.1//EN"
  "http://www.w3.org/Graphics/SVG/1.1/DTD/svg11.dtd">
<svg xmlns:xlink="http://www.w3.org/1999/xlink" width="10044pt" height="221.76pt" viewBox="0 0 10044 221.76" xmlns="http://www.w3.org/2000/svg" version="1.1">
 <metadata>
  <rdf:RDF xmlns:dc="http://purl.org/dc/elements/1.1/" xmlns:cc="http://creativecommons.org/ns#" xmlns:rdf="http://www.w3.org/1999/02/22-rdf-syntax-ns#">
   <cc:Work>
    <dc:type rdf:resource="http://purl.org/dc/dcmitype/StillImage"/>
    <dc:date>2025-08-12T08:23:40.449546</dc:date>
    <dc:format>image/svg+xml</dc:format>
    <dc:creator>
     <cc:Agent>
      <dc:title>Matplotlib v3.9.2, https://matplotlib.org/</dc:title>
     </cc:Agent>
    </dc:creator>
   </cc:Work>
  </rdf:RDF>
 </metadata>
 <defs>
  <style type="text/css">*{stroke-linejoin: round; stroke-linecap: butt}</style>
 </defs>
 <g id="figure_1">
  <g id="patch_1">
   <path d="M 0 221.76 
L 10044 221.76 
L 10044 0 
L 0 0 
z
" style="fill: #ffffff"/>
  </g>
  <g id="axes_1">
   <g id="line2d_1">
    <path d="M 456.545455 96.982338 
L 460.130421 54.037686 
L 463.715387 30.319134 
L 467.300353 28.253036 
L 470.88532 52.559703 
L 474.470286 87.166066 
L 478.055252 125.879991 
L 481.640218 174.82895 
L 485.225185 196.299736 
L 488.810151 202.941424 
L 492.395117 184.331151 
L 495.980084 141.996167 
L 499.56505 98.226308 
L 503.150016 58.927348 
L 506.734982 30.417666 
L 510.319949 31.215161 
L 513.904915 46.786331 
L 517.489881 85.940572 
L 524.659814 174.345526 
L 528.24478 195.255911 
L 531.829746 200.099385 
L 535.414712 180.571531 
L 538.999679 145.854319 
L 542.584645 99.975255 
L 546.169611 57.726486 
L 549.754578 35.806147 
L 553.339544 29.038215 
L 556.92451 44.892665 
L 560.509476 76.130457 
L 564.094443 126.936133 
L 567.679409 165.452993 
L 571.264375 196.610729 
L 574.849341 203.190833 
L 578.434308 184.057108 
L 582.019274 151.849389 
L 585.60424 102.894272 
L 589.189207 61.920264 
L 592.774173 31.199765 
L 596.359139 19.696129 
L 599.944105 46.013469 
L 603.529072 73.42698 
L 607.114038 122.508341 
L 610.699004 163.664018 
L 614.28397 189.282395 
L 617.868937 199.794551 
L 621.453903 188.959086 
L 625.038869 159.522585 
L 628.623836 106.712395 
L 632.208802 59.20447 
L 635.793768 35.282694 
L 639.378734 26.701154 
L 642.963701 42.974366 
L 646.548667 73.186807 
L 650.133633 111.922286 
L 653.718599 160.486354 
L 657.303566 192.383081 
L 660.888532 197.596051 
L 664.473498 188.143116 
L 668.058465 156.893007 
L 675.228397 64.294275 
L 678.813363 35.178004 
L 682.39833 20.453595 
L 685.983296 34.919357 
L 689.568262 69.143907 
L 693.153228 108.701514 
L 696.738195 150.186658 
L 700.323161 188.463346 
L 703.908127 197.161893 
L 707.493093 186.88683 
L 711.07806 154.254191 
L 714.663026 113.846744 
L 718.247992 66.157149 
L 721.832959 35.815384 
L 725.417925 26.464061 
L 729.002891 30.86414 
L 732.587857 56.621078 
L 736.172824 101.970532 
L 739.75779 154.08176 
L 743.342756 178.363793 
L 746.927722 198.331963 
L 750.512689 195.597694 
L 754.097655 164.168995 
L 757.682621 117.332321 
L 761.267588 77.349794 
L 764.852554 32.234354 
L 768.43752 26.134593 
L 772.022486 29.65712 
L 775.607453 58.166802 
L 779.192419 100.858965 
L 782.777385 148.037424 
L 786.362351 179.986496 
L 789.947318 195.209724 
L 793.532284 196.656916 
L 797.11725 170.142511 
L 804.287183 81.44196 
L 807.872149 42.327748 
L 811.457115 26.356291 
L 815.042082 29.755653 
L 818.627048 52.612048 
L 822.212014 92.440619 
L 825.79698 143.631186 
L 829.381947 170.487374 
L 832.966913 194.132028 
L 836.551879 192.712548 
L 840.136845 166.013395 
L 843.721812 127.872189 
L 847.306778 80.34271 
L 850.891744 43.180667 
L 854.476711 24.484179 
L 858.061677 29.687912 
L 861.646643 54.108506 
L 865.231609 94.70686 
L 868.816576 140.592083 
L 872.401542 177.763363 
L 875.986508 198.584452 
L 879.571474 192.672519 
L 883.156441 169.252642 
L 886.741407 126.94537 
L 890.326373 76.946427 
L 893.91134 50.234959 
L 897.496306 25.435631 
L 901.081272 24.545761 
L 904.666238 50.758411 
L 908.251205 86.393204 
L 911.836171 139.154128 
L 915.421137 169.357333 
L 919.006103 197.297375 
L 922.59107 188.98064 
L 926.176036 167.014113 
L 929.761002 134.082798 
L 933.345969 82.205585 
L 936.930935 45.650131 
L 940.515901 15.865689 
L 944.100867 20.388933 
L 947.685834 48.461379 
L 951.2708 83.061583 
L 954.855766 124.386612 
L 958.440732 168.793852 
L 962.025699 186.905305 
L 965.610665 189.220812 
L 969.195631 165.816331 
L 972.780597 132.986627 
L 976.365564 87.948166 
L 979.95053 52.439617 
L 983.535496 25.706594 
L 987.120463 23.23713 
L 990.705429 46.00731 
L 1001.460328 161.379302 
L 1005.045294 195.653119 
L 1008.63026 194.747854 
L 1012.215226 176.442415 
L 1015.800193 134.495402 
L 1019.385159 95.864614 
L 1022.970125 55.842058 
L 1026.555092 33.820107 
L 1030.140058 26.599542 
L 1033.725024 47.309783 
L 1037.30999 73.28226 
L 1040.894957 125.184107 
L 1044.479923 169.314225 
L 1048.064889 190.04602 
L 1051.649855 198.476683 
L 1055.234822 182.948621 
L 1058.819788 144.995241 
L 1062.404754 95.645995 
L 1065.989721 57.36007 
L 1069.574687 28.828834 
L 1073.159653 24.508812 
L 1076.744619 39.627349 
L 1080.329586 74.350719 
L 1083.914552 123.284283 
L 1087.499518 163.023558 
L 1091.084484 189.602625 
L 1094.669451 197.830065 
L 1098.254417 183.773828 
L 1101.839383 145.623384 
L 1105.42435 101.841208 
L 1109.009316 59.694052 
L 1112.594282 31.581578 
L 1116.179248 19.813136 
L 1119.764215 37.795266 
L 1123.349181 69.23936 
L 1126.934147 112.590458 
L 1130.519113 160.064513 
L 1134.10408 191.847312 
L 1137.689046 201.164765 
L 1141.274012 181.033401 
L 1144.858978 146.491699 
L 1148.443945 106.860193 
L 1152.028911 65.313467 
L 1155.613877 29.654041 
L 1159.198844 22.054744 
L 1162.78381 34.491357 
L 1166.368776 68.321779 
L 1169.953742 110.124073 
L 1173.538709 159.614959 
L 1177.123675 187.413362 
L 1180.708641 204.730399 
L 1184.293607 188.795892 
L 1187.878574 155.224117 
L 1191.46354 103.67945 
L 1195.048506 70.44638 
L 1198.633473 35.532104 
L 1202.218439 23.800612 
L 1205.803405 26.935168 
L 1209.388371 62.009559 
L 1212.973338 104.507737 
L 1216.558304 149.804845 
L 1220.14327 185.793738 
L 1223.728236 199.212595 
L 1227.313203 184.029396 
L 1230.898169 159.7566 
L 1238.068102 68.063132 
L 1241.653068 36.209513 
L 1245.238034 19.597597 
L 1248.823 29.771048 
L 1252.407967 55.503353 
L 1255.992933 100.572606 
L 1259.577899 152.151144 
L 1263.162865 179.099706 
L 1266.747832 195.185091 
L 1270.332798 184.251093 
L 1273.917764 156.012375 
L 1277.50273 112.692069 
L 1284.672663 44.132119 
L 1288.257629 24.816725 
L 1291.842596 27.076808 
L 1295.427562 60.473072 
L 1299.012528 99.969096 
L 1302.597494 140.899996 
L 1306.182461 180.429891 
L 1309.767427 198.09487 
L 1313.352393 190.526364 
L 1316.937359 161.74264 
L 1320.522326 120.864085 
L 1324.107292 70.104596 
L 1327.692258 40.150802 
L 1331.277225 24.995315 
L 1334.862191 35.966262 
L 1338.447157 54.348679 
L 1342.032123 92.415986 
L 1345.61709 140.321119 
L 1349.202056 176.491681 
L 1352.787022 198.085633 
L 1356.371988 194.329092 
L 1359.956955 169.797648 
L 1367.126887 80.407372 
L 1370.711854 43.891947 
L 1374.29682 24.034626 
L 1377.881786 25.04766 
L 1381.466752 49.816197 
L 1385.051719 93.136503 
L 1388.636685 137.974821 
L 1392.221651 171.623574 
L 1395.806617 198.756884 
L 1399.391584 195.997981 
L 1402.97655 170.318022 
L 1406.561516 129.565712 
L 1410.146482 82.565843 
L 1413.731449 48.424429 
L 1417.316415 19.163439 
L 1420.901381 21.389651 
L 1424.486348 50.111793 
L 1428.071314 88.015906 
L 1431.65628 134.988063 
L 1435.241246 174.400951 
L 1438.826213 195.79168 
L 1442.411179 195.831708 
L 1445.996145 167.885508 
L 1449.581111 131.09604 
L 1453.166078 89.992709 
L 1456.751044 42.00136 
L 1460.33601 27.036779 
L 1463.920977 25.61422 
L 1467.505943 40.806657 
L 1471.090909 87.874266 
L 1474.675875 130.058373 
L 1478.260842 169.335779 
L 1481.845808 195.899449 
L 1485.430774 189.855113 
L 1489.01574 170.875345 
L 1492.600707 133.300699 
L 1499.770639 54.564218 
L 1503.355606 22.128643 
L 1506.940572 23.520411 
L 1510.525538 40.283204 
L 1514.110504 85.469464 
L 1517.695471 126.209458 
L 1521.280437 164.935699 
L 1524.865403 189.953646 
L 1528.450369 191.878103 
L 1532.035336 175.118388 
L 1539.205268 98.543458 
L 1542.790235 55.802029 
L 1546.375201 27.683397 
L 1549.960167 29.697149 
L 1553.545133 50.19493 
L 1557.1301 78.165764 
L 1560.715066 124.799216 
L 1564.300032 163.639385 
L 1567.884998 189.775056 
L 1571.469965 199.862292 
L 1575.054931 176.350041 
L 1578.639897 144.955213 
L 1582.224863 103.35922 
L 1585.80983 57.418573 
L 1589.394796 32.489922 
L 1592.979762 28.031339 
L 1596.564729 43.657933 
L 1600.149695 71.160739 
L 1603.734661 119.814101 
L 1607.319627 162.909631 
L 1610.904594 191.708751 
L 1614.48956 198.122582 
L 1618.074526 178.114384 
L 1621.659492 147.243008 
L 1625.244459 99.066911 
L 1628.829425 53.107789 
L 1632.414391 34.435933 
L 1635.999358 27.357009 
L 1639.584324 40.357104 
L 1643.16929 77.673103 
L 1646.754256 117.554018 
L 1650.339223 158.851335 
L 1653.924189 190.286192 
L 1657.509155 195.902528 
L 1661.094121 183.650663 
L 1664.679088 150.648527 
L 1668.264054 111.263352 
L 1671.84902 68.965318 
L 1675.433987 31.507679 
L 1679.018953 28.761093 
L 1682.603919 37.207152 
L 1686.188885 74.584733 
L 1693.358818 160.086067 
L 1696.943784 188.084613 
L 1700.52875 207.076698 
L 1704.113717 186.612788 
L 1707.698683 151.88018 
L 1711.283649 109.369686 
L 1718.453582 36.486635 
L 1722.038548 27.061412 
L 1725.623514 30.482328 
L 1729.208481 68.931447 
L 1732.793447 111.51892 
L 1736.378413 148.040503 
L 1739.963379 188.26936 
L 1743.548346 200.54278 
L 1747.133312 188.965244 
L 1750.718278 159.387104 
L 1754.303244 122.646902 
L 1757.888211 75.166689 
L 1761.473177 45.4777 
L 1765.058143 26.448665 
L 1768.64311 33.801632 
L 1772.228076 64.854677 
L 1775.813042 113.058486 
L 1779.398008 149.774054 
L 1782.982975 188.860554 
L 1786.567941 207.064381 
L 1790.152907 200.468881 
L 1797.32284 131.668759 
L 1800.907806 76.921794 
L 1804.492772 46.496892 
L 1808.077739 28.326935 
L 1811.662705 30.22676 
L 1815.247671 62.240494 
L 1818.832637 107.106524 
L 1826.00257 187.487261 
L 1829.587536 202.14085 
L 1833.172502 193.30682 
L 1836.757469 166.567639 
L 1840.342435 127.930693 
L 1843.927401 77.020327 
L 1847.512367 49.30814 
L 1851.097334 27.470937 
L 1854.6823 27.095283 
L 1858.267266 58.191435 
L 1861.852233 95.024011 
L 1865.437199 144.136164 
L 1869.022165 174.453296 
L 1872.607131 199.317286 
L 1876.192098 193.953438 
L 1879.777064 170.010109 
L 1883.36203 128.063095 
L 1886.946996 79.289647 
L 1890.531963 37.801424 
L 1894.116929 27.923569 
L 1897.701895 30.100515 
L 1901.286862 58.539377 
L 1904.871828 92.606892 
L 1908.456794 142.547332 
L 1912.04176 172.84291 
L 1915.626727 196.900167 
L 1919.211693 198.670668 
L 1922.796659 173.671196 
L 1926.381625 134.60933 
L 1929.966592 89.903414 
L 1933.551558 48.686155 
L 1937.136524 25.121559 
L 1940.721491 30.362242 
L 1944.306457 48.285868 
L 1947.891423 87.627936 
L 1951.476389 135.185127 
L 1955.061356 179.318324 
L 1958.646322 196.789318 
L 1962.231288 201.565052 
L 1965.816254 181.144249 
L 1969.401221 139.224948 
L 1972.986187 94.414342 
L 1976.571153 52.25179 
L 1980.156119 32.400627 
L 1983.741086 30.919564 
L 1987.326052 55.223152 
L 1990.911018 92.283583 
L 1998.080951 179.441489 
L 2001.665917 196.090355 
L 2005.250883 203.701969 
L 2008.83585 178.80103 
L 2012.420816 141.977692 
L 2016.005782 100.960577 
L 2019.590748 53.825226 
L 2023.175715 37.219468 
L 2026.760681 29.379998 
L 2030.345647 49.1665 
L 2033.930614 83.400288 
L 2037.51558 126.498896 
L 2041.100546 167.836242 
L 2044.685512 194.941839 
L 2048.270479 197.894727 
L 2051.855445 181.335156 
L 2055.440411 144.724278 
L 2059.025377 99.100781 
L 2062.610344 63.444434 
L 2066.19531 40.655779 
L 2069.780276 32.406785 
L 2073.365243 43.282279 
L 2076.950209 78.190397 
L 2080.535175 127.696679 
L 2084.120141 165.631583 
L 2087.705108 189.682682 
L 2091.290074 198.30733 
L 2094.87504 182.13573 
L 2098.460006 151.095002 
L 2102.044973 106.16431 
L 2105.629939 63.250449 
L 2109.214905 31.18437 
L 2112.799872 27.095283 
L 2116.384838 46.419914 
L 2119.969804 76.15509 
L 2123.55477 122.794701 
L 2127.139737 166.247409 
L 2130.724703 188.180066 
L 2134.309669 201.888361 
L 2137.894635 180.282092 
L 2141.479602 147.526288 
L 2145.064568 102.931221 
L 2148.649534 62.834766 
L 2152.2345 32.807072 
L 2155.819467 21.786859 
L 2159.404433 39.692011 
L 2162.989399 68.805203 
L 2170.159332 159.987534 
L 2173.744298 187.579635 
L 2177.329264 192.758735 
L 2180.914231 185.374977 
L 2184.499197 149.89414 
L 2188.084163 106.241288 
L 2191.669129 58.838053 
L 2195.254096 33.182726 
L 2198.839062 20.970889 
L 2202.424028 36.375786 
L 2206.008995 62.967169 
L 2213.178927 154.826909 
L 2216.763893 189.023748 
L 2220.34886 194.957235 
L 2223.933826 183.856965 
L 2227.518792 152.763891 
L 2231.103758 110.428907 
L 2234.688725 58.465478 
L 2238.273691 35.239586 
L 2241.858657 21.343464 
L 2245.443624 30.639363 
L 2249.02859 56.667265 
L 2252.613556 102.771106 
L 2256.198522 151.951 
L 2259.783489 175.768085 
L 2263.368455 192.537037 
L 2266.953421 185.085538 
L 2270.538387 161.345432 
L 2274.123354 117.90196 
L 2277.70832 76.364471 
L 2281.293286 39.193192 
L 2284.878252 18.310519 
L 2288.463219 25.093847 
L 2292.048185 58.761075 
L 2295.633151 96.335721 
L 2299.218118 144.708882 
L 2302.803084 185.190229 
L 2306.38805 194.806357 
L 2309.973016 186.954571 
L 2313.557983 159.553377 
L 2320.727915 77.001852 
L 2324.312881 37.062432 
L 2327.897848 23.16631 
L 2331.482814 32.471447 
L 2335.06778 50.268829 
L 2338.652747 101.068346 
L 2342.237713 146.87967 
L 2345.822679 178.899562 
L 2349.407645 200.154809 
L 2352.992612 187.619664 
L 2356.577578 168.085651 
L 2360.162544 125.501258 
L 2363.74751 79.071028 
L 2367.332477 42.805013 
L 2370.917443 24.813646 
L 2374.502409 28.447022 
L 2378.087376 49.539075 
L 2381.672342 100.101499 
L 2385.257308 139.566732 
L 2388.842274 180.993372 
L 2392.427241 197.879331 
L 2396.012207 192.84803 
L 2399.597173 166.118086 
L 2403.182139 130.892817 
L 2406.767106 85.635737 
L 2410.352072 48.091883 
L 2413.937038 25.771256 
L 2417.522004 25.318624 
L 2421.106971 52.455013 
L 2424.691937 94.269623 
L 2428.276903 139.776113 
L 2431.86187 176.112948 
L 2435.446836 198.347359 
L 2439.031802 197.368195 
L 2442.616768 181.168882 
L 2446.201735 135.816349 
L 2449.786701 86.420916 
L 2453.371667 47.097323 
L 2456.956633 25.512609 
L 2460.5416 27.698792 
L 2464.126566 51.903848 
L 2467.711532 86.534844 
L 2471.296499 135.606968 
L 2474.881465 177.920398 
L 2478.466431 195.092717 
L 2482.051397 200.804506 
L 2485.636364 177.957348 
L 2489.22133 139.809983 
L 2492.806296 90.275989 
L 2496.391262 59.112096 
L 2499.976229 32.332886 
L 2503.561195 28.480892 
L 2507.146161 47.334416 
L 2510.731128 85.995996 
L 2514.316094 126.615903 
L 2517.90106 172.787486 
L 2521.486026 195.61309 
L 2525.070993 197.17421 
L 2528.655959 178.699419 
L 2532.240925 138.870848 
L 2539.410858 53.60045 
L 2542.995824 26.630334 
L 2546.58079 30.457695 
L 2550.165757 45.200578 
L 2553.750723 81.635945 
L 2557.335689 128.275555 
L 2560.920655 168.667607 
L 2564.505622 197.488281 
L 2568.090588 205.139924 
L 2571.675554 186.689766 
L 2575.26052 149.798687 
L 2578.845487 108.969399 
L 2582.430453 61.707804 
L 2586.015419 34.867011 
L 2589.600385 32.252828 
L 2593.185352 48.073408 
L 2596.770318 81.919225 
L 2600.355284 127.693599 
L 2603.940251 165.53613 
L 2607.525217 190.520206 
L 2611.110183 201.284851 
L 2614.695149 182.566808 
L 2618.280116 146.103729 
L 2621.865082 106.265921 
L 2625.450048 63.256607 
L 2629.035014 31.800196 
L 2632.619981 19.529856 
L 2636.204947 40.464873 
L 2639.789913 69.59654 
L 2643.37488 121.171998 
L 2646.959846 159.873607 
L 2650.544812 185.692127 
L 2654.129778 200.653629 
L 2657.714745 185.599753 
L 2661.299711 152.12959 
L 2664.884677 104.286039 
L 2668.469643 63.262765 
L 2672.05461 34.177286 
L 2675.639576 17.67006 
L 2679.224542 38.34951 
L 2682.809509 66.26184 
L 2686.394475 114.3548 
L 2689.979441 153.139545 
L 2693.564407 183.90931 
L 2697.149374 195.948715 
L 2700.73434 188.241648 
L 2704.319306 154.118709 
L 2707.904272 108.027184 
L 2711.489239 65.793812 
L 2715.074205 31.150499 
L 2718.659171 15.105143 
L 2722.244137 30.620889 
L 2725.829104 66.966961 
L 2729.41407 105.403764 
L 2732.999036 148.326862 
L 2736.584003 182.283528 
L 2740.168969 188.16467 
L 2743.753935 179.558496 
L 2747.338901 153.835429 
L 2754.508834 63.604549 
L 2758.0938 38.934545 
L 2761.678766 26.125356 
L 2765.263733 29.247596 
L 2768.848699 62.585356 
L 2772.433665 98.92835 
L 2776.018632 149.204415 
L 2779.603598 181.559932 
L 2783.188564 194.492286 
L 2786.77353 183.55521 
L 2790.358497 157.628919 
L 2793.943463 111.383438 
L 2797.528429 72.069083 
L 2801.113395 29.903451 
L 2804.698362 20.139524 
L 2808.283328 31.030413 
L 2811.868294 57.53558 
L 2815.453261 96.203318 
L 2819.038227 141.481952 
L 2822.623193 176.70722 
L 2826.208159 192.731023 
L 2829.793126 183.946259 
L 2833.378092 157.764401 
L 2836.963058 122.465234 
L 2840.548024 70.363243 
L 2844.132991 39.898313 
L 2847.717957 19.828531 
L 2851.302923 23.662051 
L 2854.887889 49.69611 
L 2858.472856 93.336646 
L 2862.057822 141.571247 
L 2865.642788 170.687518 
L 2869.227755 190.723429 
L 2872.812721 178.200599 
L 2876.397687 161.028281 
L 2879.982653 121.101178 
L 2883.56762 73.645598 
L 2887.152586 36.283412 
L 2890.737552 19.012562 
L 2894.322518 22.775261 
L 2897.907485 46.770935 
L 2901.492451 87.877345 
L 2905.077417 136.367514 
L 2908.662384 174.33321 
L 2912.24735 195.924082 
L 2915.832316 190.741903 
L 2919.417282 163.851845 
L 2923.002249 122.200428 
L 2926.587215 78.442885 
L 2930.172181 41.428641 
L 2933.757147 25.875946 
L 2937.342114 27.421671 
L 2940.92708 51.842265 
L 2944.512046 87.64949 
L 2948.097013 130.769652 
L 2951.681979 165.416044 
L 2955.266945 198.054842 
L 2958.851911 191.794966 
L 2962.436878 164.667815 
L 2966.021844 127.878347 
L 2969.60681 86.072974 
L 2973.191776 37.749079 
L 2976.776743 17.888678 
L 2980.361709 17.842491 
L 2983.946675 44.23681 
L 2987.531642 85.611104 
L 2991.116608 124.873115 
L 2994.701574 168.014831 
L 2998.28654 191.915053 
L 3001.871507 193.476172 
L 3009.041439 133.396152 
L 3012.626405 89.558551 
L 3016.211372 48.387479 
L 3019.796338 20.582919 
L 3023.381304 16.6755 
L 3026.96627 39.005365 
L 3030.551237 73.183728 
L 3037.721169 164.954174 
L 3041.306136 187.856757 
L 3044.891102 193.580863 
L 3048.476068 167.777738 
L 3052.061034 137.863972 
L 3055.646001 87.79113 
L 3059.230967 48.215048 
L 3062.815933 21.885392 
L 3066.400899 24.672006 
L 3069.985866 39.599637 
L 3073.570832 72.173773 
L 3077.155798 119.884921 
L 3080.740765 159.852053 
L 3084.325731 196.010298 
L 3087.910697 201.21711 
L 3091.495663 176.56558 
L 3095.08063 141.078586 
L 3098.665596 92.514518 
L 3102.250562 53.360277 
L 3105.835528 23.098569 
L 3109.420495 21.1464 
L 3113.005461 36.187959 
L 3116.590427 72.697225 
L 3120.175394 116.824264 
L 3123.76036 153.807717 
L 3127.345326 178.55162 
L 3130.930292 189.90438 
L 3134.515259 172.445702 
L 3138.100225 145.435557 
L 3141.685191 98.334077 
L 3145.270157 58.256097 
L 3148.855124 31.766326 
L 3152.44009 11.394789 
L 3156.025056 28.520921 
L 3159.610022 66.372689 
L 3166.779955 151.91713 
L 3170.364921 181.661544 
L 3173.949888 188.685043 
L 3177.534854 173.16006 
L 3181.11982 144.440998 
L 3184.704786 100.181556 
L 3188.289753 61.923343 
L 3191.874719 33.167331 
L 3195.459685 22.128643 
L 3199.044651 30.199048 
L 3202.629618 61.335229 
L 3206.214584 106.76474 
L 3209.79955 150.46378 
L 3213.384517 186.683608 
L 3216.969483 191.542478 
L 3220.554449 183.847727 
L 3224.139415 154.448176 
L 3227.724382 108.492133 
L 3231.309348 64.365095 
L 3234.894314 25.5434 
L 3238.47928 20.626027 
L 3242.064247 36.304966 
L 3245.649213 65.535165 
L 3249.234179 110.567468 
L 3252.819146 149.955723 
L 3256.404112 176.029811 
L 3259.989078 195.557666 
L 3263.574044 190.985155 
L 3267.159011 160.551016 
L 3270.743977 118.437729 
L 3274.328943 69.211648 
L 3277.913909 41.179232 
L 3281.498876 24.561157 
L 3285.083842 24.902941 
L 3288.668808 63.336665 
L 3292.253774 106.961805 
L 3295.838741 153.176495 
L 3299.423707 188.103087 
L 3303.008673 194.095078 
L 3306.59364 189.08533 
L 3310.178606 166.225856 
L 3313.763572 120.466877 
L 3317.348538 77.174283 
L 3320.933505 43.411602 
L 3324.518471 28.905812 
L 3328.103437 32.074239 
L 3331.688403 68.608138 
L 3338.858336 151.113476 
L 3342.443302 183.641425 
L 3346.028269 206.910425 
L 3349.613235 194.864861 
L 3353.198201 168.858513 
L 3356.783167 121.686213 
L 3360.368134 77.805505 
L 3363.9531 44.008954 
L 3367.538066 27.985152 
L 3371.123032 32.569979 
L 3374.707999 63.656894 
L 3378.292965 101.539454 
L 3381.877931 154.343486 
L 3385.462898 183.776907 
L 3389.047864 202.962978 
L 3392.63283 195.705464 
L 3396.217796 173.637326 
L 3403.387729 81.066306 
L 3406.972695 45.819483 
L 3410.557661 23.585072 
L 3414.142628 29.912688 
L 3417.727594 56.199237 
L 3421.31256 99.060752 
L 3424.897527 147.52013 
L 3428.482493 183.699929 
L 3432.067459 204.382458 
L 3435.652425 205.038313 
L 3439.237392 175.811193 
L 3442.822358 132.204528 
L 3446.407324 92.200447 
L 3449.99229 50.743015 
L 3453.577257 32.412943 
L 3457.162223 34.796191 
L 3460.747189 55.937511 
L 3464.332155 94.094113 
L 3467.917122 145.133802 
L 3471.502088 176.577897 
L 3475.087054 200.638233 
L 3478.672021 198.775358 
L 3482.256987 173.923685 
L 3485.841953 139.886962 
L 3489.426919 86.085291 
L 3493.011886 43.285358 
L 3496.596852 30.325292 
L 3500.181818 29.441581 
L 3503.766784 52.396509 
L 3510.936717 134.122827 
L 3514.521683 171.558912 
L 3518.10665 190.538681 
L 3521.691616 193.239079 
L 3525.276582 179.435331 
L 3528.861548 144.028394 
L 3532.446515 89.222926 
L 3536.031481 51.980826 
L 3539.616447 23.388008 
L 3543.201413 25.718911 
L 3546.78638 47.934847 
L 3550.371346 82.904548 
L 3553.956312 129.568791 
L 3557.541279 164.82793 
L 3561.126245 193.211367 
L 3564.711211 197.069519 
L 3568.296177 182.714607 
L 3571.881144 141.823736 
L 3575.46611 93.669192 
L 3579.051076 54.133139 
L 3582.636042 31.941836 
L 3586.221009 20.04715 
L 3589.805975 38.475754 
L 3593.390941 76.065796 
L 3596.975907 125.501258 
L 3600.560874 162.164481 
L 3604.14584 189.670365 
L 3607.730806 202.99069 
L 3611.315773 180.60848 
L 3618.485705 102.866559 
L 3622.070671 62.222019 
L 3625.655638 32.249749 
L 3629.240604 24.065417 
L 3632.82557 37.930748 
L 3636.410536 69.060771 
L 3639.995503 121.021121 
L 3643.580469 161.647186 
L 3647.165435 188.823604 
L 3650.750402 195.499162 
L 3654.335368 182.154205 
L 3657.920334 148.055898 
L 3665.090267 58.998168 
L 3668.675233 35.415097 
L 3672.260199 23.581993 
L 3675.845165 37.582806 
L 3679.430132 70.258553 
L 3683.015098 114.173132 
L 3686.600064 156.523511 
L 3690.185031 190.726508 
L 3693.769997 197.762324 
L 3697.354963 192.019743 
L 3700.939929 153.924724 
L 3704.524896 113.917564 
L 3708.109862 65.224172 
L 3711.694828 37.810661 
L 3715.279794 26.485615 
L 3718.864761 39.294803 
L 3722.449727 67.105522 
L 3726.034693 113.732816 
L 3729.619659 157.160891 
L 3733.204626 191.841153 
L 3736.789592 203.48643 
L 3740.374558 188.755863 
L 3743.959525 157.20092 
L 3747.544491 111.842229 
L 3751.129457 70.44638 
L 3754.714423 34.278897 
L 3758.29939 21.414284 
L 3761.884356 39.147005 
L 3765.469322 61.994163 
L 3769.054288 105.111246 
L 3772.639255 152.856265 
L 3776.224221 184.857682 
L 3779.809187 194.951077 
L 3783.394154 182.031039 
L 3786.97912 157.758243 
L 3790.564086 114.148498 
L 3794.149052 72.675671 
L 3797.734019 38.426488 
L 3801.318985 21.315752 
L 3804.903951 28.579424 
L 3808.488917 58.083666 
L 3812.073884 104.347622 
L 3815.65885 146.750347 
L 3819.243816 177.332284 
L 3822.828783 192.500088 
L 3826.413749 186.985363 
L 3829.998715 158.641954 
L 3833.583681 115.983661 
L 3837.168648 71.631846 
L 3840.753614 40.738916 
L 3844.33858 27.440145 
L 3847.923546 31.596973 
L 3851.508513 56.759639 
L 3858.678445 142.187073 
L 3862.263412 173.363283 
L 3865.848378 191.696434 
L 3869.433344 193.445381 
L 3873.01831 165.42836 
L 3876.603277 124.232655 
L 3880.188243 78.368986 
L 3883.773209 37.536619 
L 3887.358175 21.928499 
L 3890.943142 26.405557 
L 3894.528108 52.473487 
L 3898.113074 98.688177 
L 3901.69804 143.415647 
L 3905.283007 174.890533 
L 3908.867973 195.751651 
L 3912.452939 187.397966 
L 3916.037906 163.257572 
L 3919.622872 122.985607 
L 3923.207838 75.440732 
L 3926.792804 41.724238 
L 3930.377771 21.457392 
L 3933.962737 19.659179 
L 3937.547703 48.833954 
L 3941.132669 94.152616 
L 3944.717636 133.008181 
L 3948.302602 177.557061 
L 3951.887568 202.470317 
L 3955.472535 192.878821 
L 3959.057501 167.851637 
L 3962.642467 131.551752 
L 3966.227433 80.197991 
L 3969.8124 46.466101 
L 3973.397366 26.063773 
L 3976.982332 26.174622 
L 3980.567298 49.55755 
L 3984.152265 85.598788 
L 3987.737231 132.555549 
L 3991.322197 169.446627 
L 3994.907164 200.302608 
L 3998.49213 199.831501 
L 4002.077096 179.903359 
L 4005.662062 135.237473 
L 4009.247029 86.577952 
L 4012.831995 46.090447 
L 4016.416961 26.414794 
L 4020.001927 22.10401 
L 4023.586894 45.502333 
L 4027.17186 84.619624 
L 4030.756826 126.766781 
L 4034.341792 165.597713 
L 4037.926759 193.20213 
L 4041.511725 196.524513 
L 4045.096691 176.467048 
L 4048.681658 138.569093 
L 4052.266624 91.307498 
L 4055.85159 51.263389 
L 4059.436556 29.078244 
L 4063.021523 17.56229 
L 4066.606489 42.92202 
L 4073.776421 122.129608 
L 4077.361388 167.235811 
L 4080.946354 194.717063 
L 4084.53132 198.104108 
L 4088.116287 180.642351 
L 4091.701253 147.085972 
L 4095.286219 95.479722 
L 4098.871185 57.504789 
L 4102.456152 38.343351 
L 4106.041118 27.357009 
L 4109.626084 46.426072 
L 4113.21105 71.080681 
L 4116.796017 121.901752 
L 4120.380983 168.162629 
L 4123.965949 195.295939 
L 4127.550916 197.288138 
L 4131.135882 183.185714 
L 4134.720848 149.081249 
L 4138.305814 100.264693 
L 4141.890781 59.139808 
L 4145.475747 35.230349 
L 4149.060713 24.237848 
L 4152.645679 41.357821 
L 4156.230646 70.246236 
L 4159.815612 117.15681 
L 4163.400578 167.281998 
L 4166.985544 190.372408 
L 4170.570511 198.796912 
L 4174.155477 186.323349 
L 4177.740443 157.154733 
L 4181.32541 110.582864 
L 4184.910376 65.535165 
L 4188.495342 35.741485 
L 4192.080308 23.692842 
L 4195.665275 39.248616 
L 4199.250241 69.910611 
L 4202.835207 112.26407 
L 4206.420173 157.30869 
L 4210.00514 187.499578 
L 4213.590106 200.659787 
L 4217.175072 190.846594 
L 4224.345005 111.549711 
L 4227.929971 67.462701 
L 4231.514937 40.822052 
L 4235.099904 22.405765 
L 4238.68487 38.953019 
L 4242.269836 67.551996 
L 4245.854802 108.8216 
L 4249.439769 152.671517 
L 4253.024735 185.18407 
L 4256.609701 197.294296 
L 4260.194668 192.577066 
L 4263.779634 162.330754 
L 4270.949566 64.66685 
L 4274.534533 31.71706 
L 4278.119499 18.44908 
L 4281.704465 34.602206 
L 4285.289431 65.821524 
L 4292.459364 152.468294 
L 4296.04433 184.069425 
L 4299.629296 200.398061 
L 4303.214263 195.619248 
L 4306.799229 165.163555 
L 4310.384195 118.847254 
L 4313.969162 77.565333 
L 4317.554128 41.302397 
L 4321.139094 20.432041 
L 4324.72406 31.763247 
L 4328.309027 62.810133 
L 4331.893993 112.239437 
L 4335.478959 153.746134 
L 4339.063925 190.591026 
L 4342.648892 204.715004 
L 4346.233858 200.490435 
L 4349.818824 167.654573 
L 4356.988757 78.211951 
L 4360.573723 47.023424 
L 4364.158689 30.066645 
L 4367.743656 29.447739 
L 4371.328622 57.609479 
L 4374.913588 97.271777 
L 4378.498554 146.861195 
L 4382.083521 187.613505 
L 4385.668487 203.600358 
L 4389.253453 197.7069 
L 4392.83842 167.066459 
L 4396.423386 117.415457 
L 4400.008352 81.294162 
L 4403.593318 39.584241 
L 4407.178285 27.797325 
L 4410.763251 30.590097 
L 4414.348217 56.387064 
L 4417.933183 93.022575 
L 4421.51815 144.582638 
L 4425.103116 181.058034 
L 4428.688082 198.445891 
L 4432.273049 192.518562 
L 4435.858015 167.713076 
L 4439.442981 130.584904 
L 4443.027947 85.52181 
L 4446.612914 52.584336 
L 4450.19788 28.530158 
L 4453.782846 27.560232 
L 4457.367812 52.230236 
L 4460.952779 92.850143 
L 4464.537745 138.107223 
L 4468.122711 171.796005 
L 4471.707677 204.049911 
L 4475.292644 189.818164 
L 4478.87761 172.861385 
L 4482.462576 135.563861 
L 4486.047543 83.7821 
L 4489.632509 53.471126 
L 4493.217475 26.307025 
L 4496.802441 23.831403 
L 4500.387408 46.262878 
L 4503.972374 85.962125 
L 4507.55734 136.410622 
L 4511.142306 171.269474 
L 4514.727273 196.601491 
L 4518.312239 195.597694 
L 4521.897205 175.611049 
L 4525.482172 136.02573 
L 4529.067138 89.330696 
L 4532.652104 50.111793 
L 4536.23707 23.585072 
L 4539.822037 21.069422 
L 4543.407003 45.76098 
L 4546.991969 86.574873 
L 4550.576935 124.026353 
L 4554.161902 165.529972 
L 4557.746868 196.60765 
L 4561.331834 196.601491 
L 4564.916801 176.467048 
L 4568.501767 143.963732 
L 4572.086733 92.43754 
L 4575.671699 56.553337 
L 4579.256666 24.391805 
L 4582.841632 26.063773 
L 4586.426598 49.098759 
L 4590.011564 87.301548 
L 4593.596531 129.531841 
L 4597.181497 166.693884 
L 4600.766463 195.693147 
L 4604.351429 198.670668 
L 4607.936396 180.54074 
L 4611.521362 142.864482 
L 4618.691295 53.625083 
L 4622.276261 31.230557 
L 4625.861227 22.938455 
L 4629.446193 40.01532 
L 4633.03116 71.37012 
L 4636.616126 115.946711 
L 4640.201092 164.051988 
L 4643.786058 190.877385 
L 4647.371025 203.98217 
L 4650.955991 175.53715 
L 4654.540957 146.042146 
L 4658.125924 94.679148 
L 4661.71089 53.311011 
L 4665.295856 25.290911 
L 4668.880822 14.895762 
L 4672.465789 31.153578 
L 4676.050755 67.518126 
L 4679.635721 115.090713 
L 4683.220687 158.51263 
L 4686.805654 188.715835 
L 4690.39062 195.951794 
L 4693.975586 185.47043 
L 4697.560553 151.615375 
L 4701.145519 98.629674 
L 4704.730485 53.311011 
L 4708.315451 23.966885 
L 4711.900418 22.550484 
L 4715.485384 32.533029 
L 4719.07035 60.740956 
L 4722.655316 115.906683 
L 4726.240283 158.044602 
L 4729.825249 183.94318 
L 4733.410215 198.723013 
L 4736.995181 184.417367 
L 4740.580148 150.383722 
L 4744.165114 97.093187 
L 4747.75008 58.81342 
L 4751.335047 22.784498 
L 4754.920013 14.661748 
L 4758.504979 24.558078 
L 4762.089945 58.875003 
L 4765.674912 103.639421 
L 4769.259878 150.645448 
L 4772.844844 182.622233 
L 4776.42981 194.914127 
L 4780.014777 181.932507 
L 4783.599743 151.479893 
L 4787.184709 110.613655 
L 4790.769676 64.648375 
L 4794.354642 35.141054 
L 4797.939608 17.143528 
L 4801.524574 27.42475 
L 4805.109541 63.191945 
L 4812.279473 145.235414 
L 4815.864439 181.987932 
L 4819.449406 194.661638 
L 4823.034372 185.590516 
L 4826.619338 159.873607 
L 4830.204305 116.119143 
L 4833.789271 64.876231 
L 4837.374237 29.786444 
L 4840.959203 13.405462 
L 4844.54417 22.661333 
L 4848.129136 56.177683 
L 4851.714102 95.726053 
L 4855.299068 143.809776 
L 4858.884035 180.910235 
L 4862.469001 194.319855 
L 4866.053967 183.315037 
L 4869.638934 165.483785 
L 4873.2239 120.568488 
L 4876.808866 78.873964 
L 4880.393832 43.571717 
L 4883.978799 18.843209 
L 4887.563765 26.969038 
L 4891.148731 56.122259 
L 4894.733697 95.196442 
L 4898.318664 146.528649 
L 4901.90363 179.336799 
L 4905.488596 200.345716 
L 4909.073562 188.694281 
L 4912.658529 161.677978 
L 4916.243495 123.761548 
L 4919.828461 79.058712 
L 4923.413428 42.78038 
L 4926.998394 23.267922 
L 4930.58336 22.390369 
L 4934.168326 50.253433 
L 4941.338259 137.263541 
L 4944.923225 175.450935 
L 4948.508191 196.432139 
L 4952.093158 196.290499 
L 4955.678124 168.62142 
L 4959.26309 132.392355 
L 4962.848057 82.729037 
L 4966.433023 40.092298 
L 4970.017989 23.834482 
L 4973.602955 24.394884 
L 4977.187922 47.774732 
L 4987.94282 174.551828 
L 4991.527787 189.710394 
L 4995.112753 190.674162 
L 4998.697719 169.298829 
L 5002.282686 129.707352 
L 5005.867652 81.950017 
L 5009.452618 43.928896 
L 5013.037584 26.959801 
L 5016.622551 21.913104 
L 5020.207517 54.869052 
L 5023.792483 85.546443 
L 5027.377449 132.866541 
L 5030.962416 172.427227 
L 5034.547382 194.729379 
L 5038.132348 194.643163 
L 5041.717314 172.972233 
L 5045.302281 131.09604 
L 5048.887247 93.11187 
L 5052.472213 51.61441 
L 5056.05718 29.013582 
L 5059.642146 30.568543 
L 5063.227112 52.981544 
L 5066.812078 84.31479 
L 5070.397045 126.609745 
L 5073.982011 173.474132 
L 5077.566977 196.666153 
L 5081.151943 201.21711 
L 5084.73691 183.392016 
L 5088.321876 147.997395 
L 5091.906842 99.122335 
L 5095.491809 53.446493 
L 5099.076775 32.231275 
L 5102.661741 29.272229 
L 5106.246707 40.917506 
L 5109.831674 82.159398 
L 5113.41664 128.43567 
L 5117.001606 165.603871 
L 5120.586572 193.405352 
L 5124.171539 201.257139 
L 5127.756505 185.32571 
L 5131.341471 147.273799 
L 5134.926438 96.19716 
L 5138.511404 58.711809 
L 5142.09637 32.924079 
L 5145.681336 29.379998 
L 5149.266303 43.448552 
L 5152.851269 82.174793 
L 5160.021201 170.173303 
L 5163.606168 198.606006 
L 5167.191134 197.996338 
L 5170.7761 181.054955 
L 5174.361066 150.097363 
L 5177.946033 104.036629 
L 5181.530999 61.159718 
L 5185.115965 31.667793 
L 5188.700932 26.143831 
L 5192.285898 42.333906 
L 5195.870864 76.967981 
L 5199.45583 123.887793 
L 5203.040797 166.195064 
L 5206.625763 192.657123 
L 5210.210729 205.623348 
L 5213.795695 185.368818 
L 5217.380662 153.26271 
L 5220.965628 109.064852 
L 5224.550594 69.029979 
L 5228.135561 33.678467 
L 5231.720527 26.128435 
L 5235.305493 45.736347 
L 5238.890459 69.011505 
L 5242.475426 118.203715 
L 5246.060392 161.31464 
L 5249.645358 192.056693 
L 5253.230324 199.187962 
L 5256.815291 189.753502 
L 5260.400257 155.282621 
L 5263.985223 107.165027 
L 5267.57019 69.017663 
L 5271.155156 35.741485 
L 5274.740122 23.526569 
L 5278.325088 37.863007 
L 5281.910055 67.983075 
L 5285.495021 109.35429 
L 5289.079987 157.764401 
L 5292.664953 190.11684 
L 5296.24992 203.163121 
L 5299.834886 186.812931 
L 5303.419852 157.789034 
L 5307.004819 117.79727 
L 5310.589785 70.249316 
L 5314.174751 38.959178 
L 5317.759717 27.363167 
L 5321.344684 35.174925 
L 5324.92965 62.523774 
L 5328.514616 104.436917 
L 5332.099582 150.251319 
L 5335.684549 185.553566 
L 5339.269515 196.918642 
L 5342.854481 189.694999 
L 5346.439447 166.161194 
L 5350.024414 117.960464 
L 5353.60938 75.302171 
L 5357.194346 40.341708 
L 5360.779313 27.532519 
L 5364.364279 35.199558 
L 5367.949245 66.803767 
L 5371.534211 106.265921 
L 5375.119178 151.187376 
L 5378.704144 184.676014 
L 5382.28911 199.717573 
L 5385.874076 196.262787 
L 5389.459043 169.93313 
L 5393.044009 122.529895 
L 5400.213942 38.543495 
L 5403.798908 25.22625 
L 5407.383874 36.000132 
L 5410.96884 54.41642 
L 5414.553807 100.353988 
L 5418.138773 149.047379 
L 5421.723739 184.842287 
L 5425.308705 206.427001 
L 5428.893672 196.912484 
L 5432.478638 175.441697 
L 5436.063604 131.410112 
L 5439.648571 91.076563 
L 5443.233537 49.252715 
L 5446.818503 35.507471 
L 5450.403469 39.393335 
L 5453.988436 64.140318 
L 5457.573402 98.688177 
L 5461.158368 149.275235 
L 5464.743334 189.858193 
L 5468.328301 205.731117 
L 5471.913267 203.738919 
L 5475.498233 180.423733 
L 5479.083199 131.896614 
L 5482.668166 90.857945 
L 5486.253132 54.986059 
L 5489.838098 37.099382 
L 5493.423065 37.841453 
L 5497.008031 56.707294 
L 5500.592997 104.17827 
L 5504.177963 150.032701 
L 5507.76293 186.277162 
L 5511.347896 199.963903 
L 5514.932862 202.796705 
L 5518.517828 189.220812 
L 5522.102795 147.089051 
L 5525.687761 101.970532 
L 5529.272727 60.842568 
L 5532.857694 34.297372 
L 5536.44266 28.622532 
L 5540.027626 53.985341 
L 5543.612592 97.216352 
L 5547.197559 145.574118 
L 5550.782525 185.202545 
L 5554.367491 205.269247 
L 5557.952457 205.734196 
L 5561.537424 180.331359 
L 5565.12239 145.263126 
L 5568.707356 98.654307 
L 5572.292323 56.470201 
L 5575.877289 39.436443 
L 5579.462255 28.91197 
L 5583.047221 51.910006 
L 5586.632188 84.585754 
L 5590.217154 132.555549 
L 5593.80212 175.666474 
L 5597.387086 198.990898 
L 5600.972053 211.68 
L 5604.557019 190.898939 
L 5608.141985 149.940327 
L 5611.726951 98.346394 
L 5615.311918 54.865973 
L 5618.896884 34.281976 
L 5622.48185 35.501313 
L 5626.066817 51.759129 
L 5629.651783 83.7821 
L 5633.236749 134.239834 
L 5636.821715 170.970798 
L 5640.406682 199.634436 
L 5643.991648 201.829857 
L 5647.576614 186.292558 
L 5651.16158 152.024899 
L 5654.746547 112.923004 
L 5658.331513 64.814648 
L 5661.916479 38.272531 
L 5665.501446 26.796607 
L 5669.086412 43.285358 
L 5672.671378 79.477474 
L 5676.256344 125.587473 
L 5679.841311 169.751462 
L 5683.426277 196.001061 
L 5687.011243 201.454203 
L 5690.596209 184.414287 
L 5694.181176 153.164178 
L 5697.766142 114.148498 
L 5701.351108 73.276102 
L 5704.936075 39.414889 
L 5708.521041 36.908476 
L 5712.106007 45.899541 
L 5715.690973 82.855281 
L 5719.27594 124.460511 
L 5722.860906 169.22493 
L 5726.445872 199.902321 
L 5730.030838 208.508494 
L 5733.615805 200.016249 
L 5737.200771 161.653345 
L 5740.785737 114.0007 
L 5744.370704 72.370837 
L 5747.95567 41.989043 
L 5751.540636 31.015017 
L 5755.125602 49.705348 
L 5758.710569 78.649187 
L 5762.295535 122.563766 
L 5765.880501 159.525665 
L 5769.465467 192.838792 
L 5773.050434 201.832936 
L 5776.6354 189.445589 
L 5780.220366 166.829365 
L 5787.390299 73.491641 
L 5790.975265 37.465799 
L 5794.560231 24.785934 
L 5798.145198 40.917506 
L 5801.730164 69.254756 
L 5808.900096 162.118294 
L 5812.485063 184.303439 
L 5816.070029 200.712132 
L 5819.654995 186.135522 
L 5823.239961 155.806073 
L 5826.824928 119.373785 
L 5830.409894 71.08376 
L 5833.99486 42.740352 
L 5837.579827 25.959083 
L 5841.164793 32.409864 
L 5844.749759 62.492982 
L 5848.334725 107.719271 
L 5851.919692 150.03578 
L 5855.504658 188.521849 
L 5859.089624 196.167334 
L 5862.67459 195.822471 
L 5866.259557 170.490453 
L 5869.844523 116.202279 
L 5877.014456 34.897803 
L 5880.599422 26.753499 
L 5884.184388 36.637512 
L 5887.769354 59.262973 
L 5891.354321 104.7787 
L 5894.939287 147.449309 
L 5898.524253 180.109661 
L 5902.109219 201.035441 
L 5905.694186 192.681756 
L 5909.279152 167.091092 
L 5912.864118 123.444398 
L 5916.449084 76.225911 
L 5920.034051 34.66071 
L 5923.619017 21.983924 
L 5927.203983 17.956419 
L 5930.78895 51.842265 
L 5934.373916 96.3388 
L 5937.958882 145.755787 
L 5941.543848 176.269984 
L 5945.128815 192.968116 
L 5948.713781 186.862197 
L 5952.298747 161.699532 
L 5955.883713 122.8686 
L 5959.46868 75.480761 
L 5963.053646 40.486427 
L 5966.638612 19.071065 
L 5970.223579 21.89155 
L 5973.808545 44.292234 
L 5977.393511 85.669608 
L 5980.978477 133.22372 
L 5984.563444 171.980753 
L 5988.14841 198.039446 
L 5991.733376 187.724354 
L 5995.318342 169.532843 
L 5998.903309 128.343296 
L 6002.488275 74.861855 
L 6006.073241 38.038517 
L 6009.658208 17.645427 
L 6013.243174 19.009482 
L 6016.82814 45.339139 
L 6020.413106 76.860212 
L 6023.998073 123.832368 
L 6027.583039 166.678488 
L 6031.168005 185.408847 
L 6034.752971 186.92378 
L 6038.337938 166.001079 
L 6049.092836 47.522243 
L 6052.677803 10.08 
L 6056.262769 12.438615 
L 6059.847735 34.768479 
L 6070.602634 163.405371 
L 6074.1876 182.548334 
L 6077.772567 191.237644 
L 6081.357533 165.354461 
L 6084.942499 127.881427 
L 6088.527465 81.940779 
L 6092.112432 45.822563 
L 6095.697398 16.838694 
L 6099.282364 14.144454 
L 6102.867331 33.210439 
L 6106.452297 71.019099 
L 6110.037263 118.64711 
L 6113.622229 159.879765 
L 6117.207196 189.919775 
L 6120.792162 186.628183 
L 6124.377128 171.485013 
L 6127.962094 135.52999 
L 6131.547061 85.977521 
L 6135.132027 49.76693 
L 6138.716993 26.174622 
L 6142.30196 21.223378 
L 6145.886926 33.875531 
L 6149.471892 77.436009 
L 6153.056858 118.25606 
L 6156.641825 157.160891 
L 6160.226791 188.293994 
L 6163.811757 196.17965 
L 6167.396723 177.350759 
L 6170.98169 143.895991 
L 6174.566656 88.982754 
L 6178.151622 46.792489 
L 6181.736588 20.234977 
L 6185.321555 11.07456 
L 6188.906521 31.649319 
L 6192.491487 66.123279 
L 6196.076454 110.484332 
L 6199.66142 148.945768 
L 6203.246386 176.941234 
L 6206.831352 188.253965 
L 6210.416319 176.654875 
L 6214.001285 138.880086 
L 6217.586251 96.883806 
L 6221.171217 57.390861 
L 6224.756184 21.244932 
L 6228.34115 15.914955 
L 6231.926116 29.527797 
L 6235.511083 56.350114 
L 6239.096049 105.502296 
L 6242.681015 150.787088 
L 6246.265981 182.246579 
L 6249.850948 186.600471 
L 6253.435914 182.911671 
L 6257.02088 143.258611 
L 6264.190813 54.524189 
L 6267.775779 28.117554 
L 6271.360745 15.526984 
L 6274.945712 28.927366 
L 6278.530678 57.449364 
L 6282.115644 100.178477 
L 6285.70061 145.494061 
L 6289.285577 181.861687 
L 6292.870543 195.723939 
L 6296.455509 180.722408 
L 6300.040475 146.057542 
L 6307.210408 58.154486 
L 6310.795374 22.168672 
L 6314.380341 11.293178 
L 6317.965307 28.13295 
L 6321.550273 52.685947 
L 6328.720206 142.421087 
L 6332.305172 179.980338 
L 6335.890138 192.013585 
L 6339.475104 178.296052 
L 6343.060071 150.777851 
L 6346.645037 109.575988 
L 6350.230003 61.596955 
L 6353.814969 23.538885 
L 6357.399936 12.466327 
L 6360.984902 22.719836 
L 6364.569868 53.049285 
L 6368.154835 99.260896 
L 6371.739801 138.997093 
L 6375.324767 180.913314 
L 6378.909733 191.289989 
L 6382.4947 185.205624 
L 6386.079666 151.800123 
L 6389.664632 115.577216 
L 6393.249598 69.187015 
L 6396.834565 37.628993 
L 6400.419531 15.945746 
L 6404.004497 21.987003 
L 6407.589464 46.078131 
L 6411.17443 96.582051 
L 6414.759396 138.704575 
L 6418.344362 173.104636 
L 6421.929329 192.912691 
L 6425.514295 194.738617 
L 6429.099261 162.376941 
L 6432.684227 118.656348 
L 6436.269194 68.912972 
L 6439.85416 37.154806 
L 6443.439126 13.054441 
L 6447.024093 25.056897 
L 6450.609059 46.869467 
L 6454.194025 89.339933 
L 6457.778991 129.904416 
L 6461.363958 172.993787 
L 6464.948924 187.745908 
L 6468.53389 188.420238 
L 6472.118856 163.248335 
L 6475.703823 119.801785 
L 6479.288789 79.939344 
L 6482.873755 35.556737 
L 6486.458721 14.319965 
L 6490.043688 22.836843 
L 6493.628654 43.547084 
L 6497.21362 85.192342 
L 6500.798587 135.60081 
L 6504.383553 176.402386 
L 6507.968519 196.071881 
L 6511.553485 189.781214 
L 6515.138452 169.18798 
L 6522.308384 81.266449 
L 6525.89335 44.901902 
L 6529.478317 26.704233 
L 6533.063283 29.149064 
L 6536.648249 40.292442 
L 6543.818182 127.225571 
L 6547.403148 173.206247 
L 6550.988114 196.681549 
L 6554.573081 191.052896 
L 6558.158047 171.719027 
L 6561.743013 133.125188 
L 6565.327979 83.46187 
L 6568.912946 46.1859 
L 6572.497912 22.196384 
L 6576.082878 20.666055 
L 6579.667845 43.039027 
L 6583.252811 80.869241 
L 6586.837777 121.258214 
L 6590.422743 160.270815 
L 6594.00771 186.2864 
L 6597.592676 195.123508 
L 6601.177642 174.838187 
L 6604.762608 132.771088 
L 6608.347575 86.744225 
L 6611.932541 43.922738 
L 6615.517507 23.535806 
L 6619.102473 23.209418 
L 6622.68744 38.1001 
L 6626.272406 73.996619 
L 6633.442339 162.869602 
L 6637.027305 194.51384 
L 6640.612271 193.146705 
L 6644.197237 176.694904 
L 6647.782204 140.687536 
L 6651.36717 94.888529 
L 6654.952136 53.535788 
L 6658.537102 25.795889 
L 6662.122069 19.930143 
L 6665.707035 40.354024 
L 6669.292001 73.303814 
L 6672.876968 112.525796 
L 6676.461934 162.641746 
L 6680.0469 191.474737 
L 6683.631866 190.591026 
L 6687.216833 175.783481 
L 6690.801799 142.107016 
L 6694.386765 97.194798 
L 6697.971731 55.454087 
L 6701.556698 28.564029 
L 6705.141664 19.582201 
L 6708.72663 30.513119 
L 6712.311597 67.083968 
L 6715.896563 109.9578 
L 6719.481529 155.879973 
L 6723.066495 193.008144 
L 6726.651462 194.69243 
L 6730.236428 174.462533 
L 6733.821394 141.02932 
L 6737.40636 99.845931 
L 6740.991327 55.86977 
L 6744.576293 29.644804 
L 6748.161259 25.454105 
L 6751.746226 30.380716 
L 6755.331192 62.36058 
L 6758.916158 118.037442 
L 6762.501124 157.324085 
L 6766.086091 189.568754 
L 6769.671057 202.374864 
L 6773.256023 194.747854 
L 6776.840989 156.403425 
L 6784.010922 69.63041 
L 6787.595888 37.536619 
L 6791.180854 27.233844 
L 6794.765821 38.635869 
L 6798.350787 66.489696 
L 6801.935753 110.34885 
L 6805.52072 160.113779 
L 6809.105686 189.9752 
L 6812.690652 200.15173 
L 6816.275618 195.366759 
L 6819.860585 160.85277 
L 6823.445551 112.313336 
L 6827.030517 71.477889 
L 6830.615483 37.49659 
L 6834.20045 26.122277 
L 6837.785416 30.922644 
L 6841.370382 62.36058 
L 6844.955349 100.443283 
L 6848.540315 156.652835 
L 6852.125281 188.826683 
L 6855.710247 203.1662 
L 6859.295214 195.776284 
L 6862.88018 164.270607 
L 6866.465146 116.901242 
L 6870.050112 75.135898 
L 6873.635079 38.364905 
L 6877.220045 25.318624 
L 6880.805011 37.151727 
L 6884.389978 69.13467 
L 6887.974944 104.153636 
L 6891.55991 151.141189 
L 6895.144876 189.965962 
L 6898.729843 208.049704 
L 6902.314809 199.526667 
L 6905.899775 172.565788 
L 6909.484741 128.096966 
L 6913.069708 80.114854 
L 6916.654674 45.154391 
L 6920.23964 28.231482 
L 6923.824606 34.882407 
L 6927.409573 63.047226 
L 6930.994539 94.725335 
L 6934.579505 148.422315 
L 6938.164472 184.017079 
L 6941.749438 200.050119 
L 6945.334404 194.757091 
L 6948.91937 170.804525 
L 6952.504337 121.23666 
L 6956.089303 80.161041 
L 6959.674269 44.923456 
L 6963.259235 27.030621 
L 6966.844202 21.826888 
L 6970.429168 53.326407 
L 6977.599101 142.584281 
L 6981.184067 185.014718 
L 6984.769033 204.114573 
L 6988.353999 199.83458 
L 6991.938966 176.99358 
L 6995.523932 138.529064 
L 6999.108898 87.520166 
L 7002.693864 47.42679 
L 7006.278831 27.587944 
L 7009.863797 32.483763 
L 7013.448763 55.364792 
L 7017.03373 96.662109 
L 7020.618696 142.849086 
L 7024.203662 177.48932 
L 7027.788628 202.608878 
L 7031.373595 203.446401 
L 7034.958561 182.994808 
L 7038.543527 131.607176 
L 7045.71346 54.330204 
L 7049.298426 26.92901 
L 7052.883392 27.307743 
L 7056.468358 53.092393 
L 7060.053325 92.797798 
L 7067.223257 182.095701 
L 7070.808224 204.216184 
L 7074.39319 197.235792 
L 7077.978156 175.580258 
L 7081.563122 141.013924 
L 7085.148089 93.801595 
L 7088.733055 56.839696 
L 7092.318021 28.967395 
L 7095.902987 32.462209 
L 7099.487954 54.939872 
L 7103.07292 88.659445 
L 7106.657886 134.520035 
L 7110.242853 174.878216 
L 7113.827819 202.390259 
L 7117.412785 205.995923 
L 7120.997751 191.099083 
L 7124.582718 144.973687 
L 7128.167684 103.747191 
L 7131.75265 57.295408 
L 7135.337616 35.550579 
L 7138.922583 32.101951 
L 7142.507549 46.952604 
L 7146.092515 86.26388 
L 7153.262448 172.427227 
L 7156.847414 201.916073 
L 7160.43238 204.379378 
L 7164.017347 193.146705 
L 7171.187279 102.395452 
L 7174.772245 61.778624 
L 7178.357212 34.740767 
L 7181.942178 26.867427 
L 7185.527144 44.073616 
L 7189.112111 81.241816 
L 7192.697077 124.734554 
L 7196.282043 174.97059 
L 7199.867009 202.248619 
L 7203.451976 206.904266 
L 7207.036942 189.448668 
L 7210.621908 147.963525 
L 7214.206874 108.880104 
L 7217.791841 64.497497 
L 7221.376807 36.104822 
L 7224.961773 29.888055 
L 7228.546739 43.873472 
L 7232.131706 80.30576 
L 7235.716672 121.781666 
L 7239.301638 165.74859 
L 7242.886605 199.33884 
L 7246.471571 207.597071 
L 7250.056537 196.777002 
L 7253.641503 161.249978 
L 7257.22647 109.403556 
L 7260.811436 65.993955 
L 7264.396402 32.74549 
L 7267.981368 29.687912 
L 7271.566335 42.906625 
L 7275.151301 73.103671 
L 7282.321234 170.35805 
L 7285.9062 196.35824 
L 7289.491166 208.477703 
L 7293.076132 195.539191 
L 7296.661099 164.190549 
L 7300.246065 115.931316 
L 7303.831031 73.494721 
L 7307.415997 37.277972 
L 7311.000964 31.279823 
L 7314.58593 34.014092 
L 7318.170896 74.264504 
L 7321.755863 113.036932 
L 7325.340829 157.404143 
L 7328.925795 195.945636 
L 7332.510761 205.0106 
L 7336.095728 197.614526 
L 7339.680694 166.38905 
L 7343.26566 116.66107 
L 7346.850626 75.868731 
L 7350.435593 45.26524 
L 7354.020559 30.282184 
L 7357.605525 40.474111 
L 7361.190491 66.15407 
L 7364.775458 108.017947 
L 7368.360424 157.364114 
L 7371.94539 193.719424 
L 7375.530357 205.269247 
L 7379.115323 197.660713 
L 7382.700289 164.880275 
L 7386.285255 126.2033 
L 7389.870222 76.429133 
L 7393.455188 44.824924 
L 7397.040154 30.525436 
L 7400.62512 38.746718 
L 7404.210087 63.216578 
L 7407.795053 109.769973 
L 7411.380019 153.912407 
L 7414.964986 185.140963 
L 7418.549952 200.555097 
L 7422.134918 195.431421 
L 7425.719884 169.797648 
L 7432.889817 82.177872 
L 7436.474783 51.112511 
L 7440.059749 30.300659 
L 7443.644716 31.861779 
L 7447.229682 61.285963 
L 7450.814648 99.704291 
L 7454.399615 150.870225 
L 7457.984581 187.616585 
L 7461.569547 204.222343 
L 7465.154513 194.911048 
L 7468.73948 174.086879 
L 7472.324446 128.746663 
L 7475.909412 85.648054 
L 7479.494378 46.235166 
L 7483.079345 23.997676 
L 7486.664311 33.02877 
L 7490.249277 58.253018 
L 7493.834243 96.520469 
L 7497.41921 142.399533 
L 7501.004176 185.455034 
L 7504.589142 197.352799 
L 7508.174109 193.750215 
L 7511.759075 175.330848 
L 7515.344041 129.96292 
L 7518.929007 79.132611 
L 7522.513974 43.965846 
L 7526.09894 26.18078 
L 7529.683906 32.533029 
L 7533.268872 52.793717 
L 7536.853839 96.077074 
L 7540.438805 134.944955 
L 7544.023771 182.572967 
L 7547.608738 200.829139 
L 7551.193704 194.319855 
L 7554.77867 175.367798 
L 7558.363636 128.140074 
L 7565.533569 47.399078 
L 7569.118535 22.732153 
L 7572.703501 23.246368 
L 7576.288468 46.136634 
L 7579.873434 87.230728 
L 7583.4584 130.353969 
L 7587.043367 177.449291 
L 7590.628333 191.831916 
L 7594.213299 193.725582 
L 7597.798265 175.00754 
L 7604.968198 88.708711 
L 7608.553164 46.373727 
L 7612.13813 24.484179 
L 7615.723097 23.668209 
L 7619.308063 40.181593 
L 7622.893029 82.710562 
L 7626.477996 127.518089 
L 7630.062962 170.647489 
L 7633.647928 197.860856 
L 7637.232894 194.560027 
L 7640.817861 178.930354 
L 7644.402827 139.157207 
L 7647.987793 92.914805 
L 7651.572759 52.716739 
L 7655.157726 26.230047 
L 7658.742692 23.766741 
L 7662.327658 40.899031 
L 7665.912624 76.780154 
L 7669.497591 120.928747 
L 7673.082557 161.148367 
L 7676.667523 184.86692 
L 7680.25249 193.907251 
L 7683.837456 177.600169 
L 7687.422422 140.844572 
L 7691.007388 93.225798 
L 7694.592355 56.787351 
L 7698.177321 25.845155 
L 7701.762287 18.750835 
L 7705.347253 36.923872 
L 7708.93222 69.113116 
L 7712.517186 113.033853 
L 7716.102152 169.502052 
L 7719.687119 187.588872 
L 7723.272085 195.11735 
L 7726.857051 179.672424 
L 7734.026984 99.614996 
L 7737.61195 60.722482 
L 7741.196916 34.928594 
L 7744.781882 22.904584 
L 7748.366849 38.158603 
L 7751.951815 69.039217 
L 7755.536781 115.1369 
L 7759.121748 155.020895 
L 7762.706714 188.774338 
L 7766.29168 196.906325 
L 7769.876646 186.600471 
L 7773.461613 150.688556 
L 7777.046579 106.407561 
L 7780.631545 58.514744 
L 7784.216511 34.315847 
L 7787.801478 23.449591 
L 7791.386444 38.167841 
L 7794.97141 65.83692 
L 7798.556376 110.81072 
L 7802.141343 151.615375 
L 7805.726309 185.655178 
L 7809.311275 201.417254 
L 7812.896242 187.148557 
L 7816.481208 157.003856 
L 7823.65114 69.079245 
L 7827.236107 34.867011 
L 7830.821073 15.200596 
L 7834.406039 37.216389 
L 7837.991005 65.495136 
L 7841.575972 109.600621 
L 7845.160938 150.916412 
L 7848.745904 189.460985 
L 7852.330871 200.481197 
L 7855.915837 186.230975 
L 7859.500803 159.658067 
L 7863.085769 109.261916 
L 7870.255702 37.200993 
L 7873.840668 22.264125 
L 7877.425634 28.653323 
L 7881.010601 61.236697 
L 7884.595567 99.270133 
L 7888.180533 147.239929 
L 7891.7655 183.262692 
L 7895.350466 201.204793 
L 7898.935432 193.73174 
L 7902.520398 159.242384 
L 7906.105365 122.311277 
L 7909.690331 72.952793 
L 7913.275297 42.315431 
L 7916.860263 21.762226 
L 7920.44523 29.281466 
L 7924.030196 60.707086 
L 7927.615162 96.563576 
L 7931.200128 138.332 
L 7934.785095 176.128344 
L 7938.370061 193.232921 
L 7941.955027 191.440866 
L 7945.539994 169.425074 
L 7949.12496 120.879481 
L 7952.709926 73.842662 
L 7956.294892 40.899031 
L 7959.879859 21.586716 
L 7963.464825 27.292347 
L 7967.049791 49.37896 
L 7970.634757 96.665188 
L 7974.219724 142.371821 
L 7977.80469 173.674276 
L 7981.389656 191.234564 
L 7984.974623 190.267717 
L 7988.559589 159.208514 
L 7992.144555 121.741638 
L 7995.729521 74.612445 
L 7999.314488 39.085422 
L 8002.899454 23.391087 
L 8006.48442 16.087386 
L 8010.069386 42.358539 
L 8013.654353 87.812684 
L 8017.239319 137.078793 
L 8020.824285 174.832029 
L 8024.409252 203.110776 
L 8027.994218 184.697568 
L 8031.579184 173.538794 
L 8035.16415 129.00531 
L 8038.749117 80.773788 
L 8042.334083 44.19986 
L 8045.919049 26.96288 
L 8049.504015 20.139524 
L 8053.088982 42.195345 
L 8056.673948 84.382531 
L 8060.258914 129.972157 
L 8063.843881 173.09232 
L 8067.428847 193.657841 
L 8071.013813 192.77413 
L 8074.598779 169.181822 
L 8078.183746 137.476001 
L 8081.768712 82.251772 
L 8085.353678 47.229726 
L 8088.938644 18.20275 
L 8092.523611 25.004552 
L 8096.108577 44.738708 
L 8099.693543 75.804069 
L 8103.278509 123.170355 
L 8106.863476 162.73412 
L 8110.448442 185.408847 
L 8114.033408 189.174625 
L 8117.618375 173.745096 
L 8121.203341 127.111644 
L 8124.788307 84.259366 
L 8128.373273 48.984831 
L 8131.95824 25.066135 
L 8135.543206 19.027957 
L 8139.128172 30.928802 
L 8146.298105 123.496743 
L 8149.883071 163.334551 
L 8153.468037 184.238777 
L 8157.053004 194.209006 
L 8160.63797 173.258593 
L 8167.807902 90.928765 
L 8174.977835 20.943177 
L 8178.562801 22.744469 
L 8182.147767 37.139411 
L 8185.732734 74.193684 
L 8189.3177 114.068441 
L 8192.902666 165.289799 
L 8196.487633 189.384006 
L 8200.072599 189.436351 
L 8203.657565 178.499275 
L 8207.242531 137.734648 
L 8214.412464 48.655364 
L 8217.99743 28.419309 
L 8221.582396 15.607042 
L 8225.167363 38.223265 
L 8228.752329 71.594896 
L 8232.337295 112.464213 
L 8235.922261 155.405786 
L 8239.507228 180.836336 
L 8243.092194 195.779363 
L 8246.67716 182.70229 
L 8250.262127 139.809983 
L 8253.847093 101.607194 
L 8257.432059 57.079869 
L 8261.017025 22.664412 
L 8264.601992 18.954058 
L 8268.186958 33.847819 
L 8271.771924 63.820088 
L 8278.941857 154.645241 
L 8282.526823 188.078454 
L 8286.111789 192.266074 
L 8289.696756 178.961145 
L 8293.281722 150.796326 
L 8296.866688 102.312316 
L 8300.451654 65.926214 
L 8304.036621 35.193399 
L 8307.621587 17.42065 
L 8311.206553 33.681546 
L 8314.791519 60.37454 
L 8321.961452 151.461418 
L 8325.546418 186.203263 
L 8329.131385 198.09487 
L 8332.716351 185.47043 
L 8336.301317 142.661259 
L 8339.886283 103.171393 
L 8343.47125 55.23239 
L 8347.056216 32.101951 
L 8350.641182 22.596671 
L 8354.226148 31.387592 
L 8357.811115 61.421445 
L 8361.396081 105.178987 
L 8364.981047 144.36094 
L 8368.566013 182.286607 
L 8372.15098 193.700949 
L 8375.735946 185.156358 
L 8379.320912 154.987024 
L 8382.905879 114.453333 
L 8386.490845 70.609574 
L 8390.075811 35.578291 
L 8393.660777 18.162721 
L 8397.245744 25.404839 
L 8400.83071 56.316244 
L 8404.415676 100.883598 
L 8408.000642 143.039993 
L 8411.585609 183.364303 
L 8415.170575 192.084405 
L 8418.755541 183.176476 
L 8422.340508 158.161609 
L 8425.925474 115.795834 
L 8429.51044 70.708106 
L 8433.095406 34.568336 
L 8436.680373 21.127925 
L 8440.265339 23.320267 
L 8443.850305 49.748456 
L 8451.020238 147.135238 
L 8454.605204 184.620589 
L 8458.19017 202.119296 
L 8461.775137 193.771769 
L 8465.360103 166.539927 
L 8468.945069 116.654912 
L 8472.530035 74.187525 
L 8476.115002 36.637512 
L 8479.699968 23.480382 
L 8483.284934 25.617299 
L 8486.8699 56.630315 
L 8490.454867 90.16514 
L 8494.039833 130.006028 
L 8497.624799 172.802881 
L 8501.209765 200.197917 
L 8504.794732 191.447025 
L 8508.379698 170.588985 
L 8511.964664 128.851353 
L 8515.549631 81.990045 
L 8519.134597 41.653418 
L 8522.719563 22.935375 
L 8526.304529 22.119406 
L 8529.889496 52.017776 
L 8533.474462 90.577744 
L 8537.059428 135.10507 
L 8540.644394 175.552546 
L 8544.229361 197.537547 
L 8547.814327 193.118993 
L 8551.399293 168.424356 
L 8554.98426 134.612409 
L 8558.569226 83.948373 
L 8562.154192 42.928179 
L 8565.739158 24.16087 
L 8569.324125 20.432041 
L 8572.909091 48.159624 
L 8576.494057 90.389917 
L 8580.079023 136.804751 
L 8583.66399 177.957348 
L 8587.248956 193.941121 
L 8590.833922 193.482331 
L 8594.418889 177.717176 
L 8598.003855 130.661883 
L 8601.588821 88.440827 
L 8605.173787 48.150386 
L 8608.758754 24.619661 
L 8612.34372 21.21722 
L 8615.928686 41.317793 
L 8619.513652 82.067024 
L 8623.098619 125.128683 
L 8626.683585 166.392129 
L 8630.268551 196.561463 
L 8633.853518 194.205927 
L 8637.438484 180.137373 
L 8641.02345 141.826815 
L 8644.608416 89.410753 
L 8648.193383 47.660804 
L 8651.778349 27.409354 
L 8655.363315 26.497931 
L 8658.948281 46.549238 
L 8662.533248 85.383249 
L 8669.70318 167.925536 
L 8673.288146 190.686479 
L 8676.873113 200.096306 
L 8680.458079 181.535299 
L 8684.043045 146.682606 
L 8691.212978 60.500784 
L 8694.797944 25.454105 
L 8698.38291 21.799176 
L 8701.967877 39.919867 
L 8705.552843 77.922512 
L 8709.137809 123.382815 
L 8712.722775 173.609614 
L 8716.307742 197.814669 
L 8719.892708 205.592556 
L 8723.477674 185.393451 
L 8727.062641 146.836562 
L 8730.647607 100.018362 
L 8734.232573 57.837335 
L 8737.817539 36.825339 
L 8741.402506 26.812003 
L 8744.987472 42.866596 
L 8748.572438 72.866578 
L 8752.157404 118.71793 
L 8755.742371 168.362773 
L 8759.327337 198.775358 
L 8762.912303 208.369933 
L 8766.49727 188.324785 
L 8770.082236 156.000059 
L 8773.667202 107.448308 
L 8777.252168 63.419801 
L 8780.837135 34.084912 
L 8784.422101 27.073729 
L 8788.007067 41.628785 
L 8791.592033 81.33419 
L 8795.177 117.243026 
L 8798.761966 168.393564 
L 8802.346932 193.337612 
L 8805.931898 202.550374 
L 8809.516865 194.23056 
L 8813.101831 159.812024 
L 8820.271764 63.598391 
L 8823.85673 36.332678 
L 8827.441696 26.091486 
L 8831.026662 36.82226 
L 8834.611629 77.125017 
L 8841.781561 163.294522 
L 8845.366527 195.419105 
L 8848.951494 205.654139 
L 8852.53646 189.417877 
L 8856.121426 159.802786 
L 8859.706393 113.797477 
L 8863.291359 66.26184 
L 8866.876325 37.875323 
L 8870.461291 24.964523 
L 8874.046258 34.639156 
L 8877.631224 62.948694 
L 8881.21619 111.820675 
L 8888.386123 190.661846 
L 8891.971089 205.407808 
L 8895.556055 197.097232 
L 8899.141022 166.425999 
L 8902.725988 126.671328 
L 8906.310954 76.884845 
L 8909.89592 35.030205 
L 8913.480887 24.287114 
L 8917.065853 35.559816 
L 8920.650819 64.448231 
L 8924.235785 108.442867 
L 8927.820752 149.589306 
L 8931.405718 183.98013 
L 8934.990684 200.856852 
L 8938.57565 194.12279 
L 8942.160617 167.328185 
L 8949.330549 78.239663 
L 8952.915516 42.139921 
L 8956.500482 25.300149 
L 8960.085448 28.862704 
L 8963.670414 50.117952 
L 8967.255381 98.509588 
L 8970.840347 142.541173 
L 8974.425313 171.294107 
L 8978.010279 193.888776 
L 8981.595246 190.129156 
L 8985.180212 163.328392 
L 8988.765178 122.138846 
L 8992.350145 75.16361 
L 8995.935111 37.515065 
L 8999.520077 23.040066 
L 9003.105043 21.777622 
L 9006.69001 53.754406 
L 9010.274976 89.74022 
L 9013.859942 140.552054 
L 9017.444908 177.184486 
L 9021.029875 197.586813 
L 9024.614841 191.727226 
L 9028.199807 169.535922 
L 9031.784774 128.768217 
L 9035.36974 78.96018 
L 9038.954706 44.122882 
L 9042.539672 20.481307 
L 9046.124639 32.31749 
L 9049.709605 57.406257 
L 9053.294571 90.897974 
L 9056.879537 133.993503 
L 9060.464504 174.428663 
L 9064.04947 195.880974 
L 9067.634436 200.47196 
L 9071.219403 172.901413 
L 9074.804369 133.266828 
L 9078.389335 91.892533 
L 9081.974301 47.177381 
L 9085.559268 25.641932 
L 9089.144234 25.266278 
L 9092.7292 42.764985 
L 9096.314166 86.445549 
L 9099.899133 132.801879 
L 9103.484099 172.581184 
L 9107.069065 192.025901 
L 9110.654031 192.192174 
L 9114.238998 172.719745 
L 9117.823964 138.258101 
L 9121.40893 93.576819 
L 9124.993897 52.722897 
L 9128.578863 29.201409 
L 9132.163829 23.036987 
L 9135.748795 48.735421 
L 9139.333762 86.916656 
L 9146.503694 171.013906 
L 9150.08866 194.215164 
L 9153.673627 201.186319 
L 9157.258593 178.046643 
L 9160.843559 140.533579 
L 9164.428526 92.194288 
L 9168.013492 51.78992 
L 9171.598458 27.338534 
L 9175.183424 27.095283 
L 9178.768391 45.422275 
L 9182.353357 78.49831 
L 9185.938323 129.267036 
L 9189.523289 172.254796 
L 9193.108256 192.118275 
L 9196.693222 200.690578 
L 9200.278188 183.73072 
L 9203.863155 144.853601 
L 9207.448121 104.199823 
L 9211.033087 58.967376 
L 9214.618053 30.199048 
L 9218.20302 22.368815 
L 9221.787986 39.285566 
L 9225.372952 78.458281 
L 9228.957918 121.781666 
L 9232.542885 160.905116 
L 9236.127851 194.270588 
L 9239.712817 200.50891 
L 9243.297783 189.978279 
L 9246.88275 152.572985 
L 9250.467716 104.670931 
L 9254.052682 60.097418 
L 9257.637649 27.313901 
L 9261.222615 22.38729 
L 9264.807581 39.103897 
L 9268.392547 74.855697 
L 9271.977514 115.555662 
L 9275.56248 160.212311 
L 9279.147446 193.759453 
L 9282.732412 198.045604 
L 9286.317379 186.775982 
L 9289.902345 149.915694 
L 9300.657244 33.385949 
L 9304.24221 21.866917 
L 9307.827176 39.966054 
L 9311.412143 74.359957 
L 9314.997109 112.430343 
L 9318.582075 162.897314 
L 9322.167041 196.118068 
L 9325.752008 198.076395 
L 9329.336974 190.089127 
L 9332.92194 163.845687 
L 9340.091873 67.013148 
L 9343.676839 37.653626 
L 9347.261805 27.803483 
L 9350.846772 35.806147 
L 9354.431738 65.150273 
L 9358.016704 109.221887 
L 9361.60167 155.42734 
L 9365.186637 193.80256 
L 9368.771603 204.967493 
L 9372.356569 194.695509 
L 9375.941535 158.943709 
L 9379.526502 115.481763 
L 9383.111468 78.365907 
L 9386.696434 33.34592 
L 9390.281401 22.070139 
L 9393.866367 32.061922 
L 9397.451333 65.430474 
L 9401.036299 106.595388 
L 9404.621266 150.623894 
L 9408.206232 182.831614 
L 9411.791198 202.889079 
L 9415.376164 191.798046 
L 9418.961131 161.73956 
L 9422.546097 123.9309 
L 9426.131063 73.405426 
L 9429.71603 41.767346 
L 9433.300996 27.735742 
L 9436.885962 33.715416 
L 9440.470928 67.317982 
L 9444.055895 108.836996 
L 9447.640861 146.300793 
L 9451.225827 185.088617 
L 9454.810793 202.205511 
L 9458.39576 192.767972 
L 9461.980726 170.598223 
L 9465.565692 127.12396 
L 9469.150659 81.15868 
L 9472.735625 44.806449 
L 9476.320591 30.784083 
L 9479.905557 36.194117 
L 9483.490524 56.867409 
L 9487.07549 97.902999 
L 9494.245422 185.378056 
L 9497.830389 202.845971 
L 9501.415355 195.446817 
L 9505.000321 170.435029 
L 9508.585288 134.621646 
L 9512.170254 84.484142 
L 9515.75522 45.206736 
L 9519.340186 28.31154 
L 9522.925153 36.243383 
L 9526.510119 57.683378 
L 9530.095085 99.347112 
L 9533.680051 147.714115 
L 9537.265018 178.83798 
L 9540.849984 194.723221 
L 9544.43495 204.086861 
L 9548.019916 176.134502 
L 9551.604883 136.607686 
L 9555.189849 90.842549 
L 9558.774815 42.974366 
L 9562.359782 25.986795 
L 9565.944748 27.042937 
L 9569.529714 50.539793 
L 9573.11468 89.678638 
L 9576.699647 142.217864 
L 9580.284613 180.051158 
L 9583.869579 196.807793 
L 9587.454545 194.258272 
L 9587.454545 194.258272 
" clip-path="url(#p23ed475a01)" style="fill: none; stroke: #1f77b4; stroke-width: 1.5; stroke-linecap: square"/>
   </g>
  </g>
 </g>
 <defs>
  <clipPath id="p23ed475a01">
   <rect x="0" y="-0" width="10044" height="221.76"/>
  </clipPath>
 </defs>
</svg>
