<?xml version="1.0" encoding="utf-8" standalone="no"?>
<!DOCTYPE svg PUBLIC "-//W3C//DTD SVG 1.1//EN"
  "http://www.w3.org/Graphics/SVG/1.1/DTD/svg11.dtd">
<svg xmlns:xlink="http://www.w3.org/1999/xlink" width="10044pt" height="221.76pt" viewBox="0 0 10044 221.76" xmlns="http://www.w3.org/2000/svg" version="1.1">
 <metadata>
  <rdf:RDF xmlns:dc="http://purl.org/dc/elements/1.1/" xmlns:cc="http://creativecommons.org/ns#" xmlns:rdf="http://www.w3.org/1999/02/22-rdf-syntax-ns#">
   <cc:Work>
    <dc:type rdf:resource="http://purl.org/dc/dcmitype/StillImage"/>
    <dc:date>2025-08-12T08:23:40.376608</dc:date>
    <dc:format>image/svg+xml</dc:format>
    <dc:creator>
     <cc:Agent>
      <dc:title>Matplotlib v3.9.2, https://matplotlib.org/</dc:title>
     </cc:Agent>
    </dc:creator>
   </cc:Work>
  </rdf:RDF>
 </metadata>
 <defs>
  <style type="text/css">*{stroke-linejoin: round; stroke-linecap: butt}</style>
 </defs>
 <g id="figure_1">
  <g id="patch_1">
   <path d="M 0 221.76 
L 10044 221.76 
L 10044 0 
L 0 0 
z
" style="fill: #ffffff"/>
  </g>
  <g id="axes_1">
   <g id="line2d_1">
    <path d="M 456.545455 46.351025 
L 460.130421 26.73567 
L 463.715387 25.783559 
L 467.300353 52.286056 
L 470.88532 89.45908 
L 474.470286 138.326777 
L 478.055252 180.166396 
L 481.640218 202.32802 
L 485.225185 204.855498 
L 488.810151 183.811977 
L 492.395117 144.183509 
L 495.980084 92.653661 
L 499.56505 47.754135 
L 503.150016 23.118276 
L 506.734982 23.973296 
L 510.319949 47.597538 
L 513.904915 86.417964 
L 517.489881 129.363158 
L 521.074847 177.635786 
L 524.659814 199.913292 
L 528.24478 201.122222 
L 531.829746 183.62406 
L 535.414712 145.87789 
L 538.999679 96.515346 
L 542.584645 57.294032 
L 546.169611 24.599685 
L 549.754578 24.843976 
L 553.339544 39.504599 
L 556.92451 78.246726 
L 560.509476 132.971156 
L 564.094443 173.711462 
L 567.679409 199.565647 
L 571.264375 205.535129 
L 574.849341 184.021817 
L 578.434308 146.804945 
L 582.019274 98.776609 
L 585.60424 57.682392 
L 589.189207 31.596444 
L 592.774173 25.501684 
L 596.359139 42.896492 
L 599.944105 81.087398 
L 603.529072 125.977528 
L 607.114038 167.018501 
L 610.699004 197.661426 
L 614.28397 206.042504 
L 617.868937 188.585057 
L 621.453903 153.169052 
L 625.038869 100.258017 
L 628.623836 59.433148 
L 632.208802 30.318612 
L 635.793768 24.746886 
L 639.378734 38.505509 
L 642.963701 74.147014 
L 646.548667 117.793763 
L 650.133633 166.99971 
L 653.718599 197.742856 
L 657.303566 200.762049 
L 660.888532 189.941188 
L 664.473498 160.1157 
L 668.058465 107.859242 
L 671.643431 63.764625 
L 675.228397 29.939647 
L 678.813363 22.57645 
L 682.39833 35.404886 
L 685.983296 70.43253 
L 689.568262 116.904291 
L 693.153228 170.235006 
L 696.738195 197.955828 
L 700.323161 206.982086 
L 703.908127 193.715178 
L 707.493093 160.215923 
L 711.07806 113.264974 
L 714.663026 70.000322 
L 718.247992 37.537739 
L 721.832959 24.264567 
L 725.417925 33.506929 
L 729.002891 68.446878 
L 736.172824 163.639136 
L 739.75779 193.495942 
L 743.342756 210.283154 
L 746.927722 196.693656 
L 750.512689 166.576898 
L 757.682621 71.876355 
L 761.267588 34.744046 
L 764.852554 22.554527 
L 768.43752 36.848712 
L 772.022486 68.268358 
L 775.607453 112.472593 
L 779.192419 158.530938 
L 782.777385 192.55636 
L 786.362351 211.68 
L 789.947318 200.37682 
L 793.532284 166.075787 
L 797.11725 117.668485 
L 800.702217 73.639639 
L 804.287183 41.321125 
L 807.872149 25.633226 
L 811.457115 34.299311 
L 815.042082 66.075998 
L 822.212014 152.119851 
L 825.79698 190.191743 
L 829.381947 206.377622 
L 832.966913 199.985327 
L 836.551879 163.585893 
L 840.136845 123.180704 
L 843.721812 77.072248 
L 847.306778 37.05542 
L 850.891744 25.724052 
L 854.476711 31.220611 
L 858.061677 58.230482 
L 861.646643 100.182851 
L 865.231609 145.307877 
L 868.816576 187.55778 
L 872.401542 202.694457 
L 875.986508 199.230529 
L 879.571474 168.797445 
L 883.156441 125.924285 
L 886.741407 79.778246 
L 890.326373 41.227167 
L 893.91134 22.504415 
L 897.496306 29.532494 
L 901.081272 54.268575 
L 904.666238 97.642845 
L 908.251205 145.433154 
L 911.836171 185.005247 
L 915.421137 202.371867 
L 919.006103 198.046655 
L 922.59107 171.137006 
L 926.176036 130.277685 
L 929.761002 82.434133 
L 933.345969 41.299202 
L 936.930935 22.429249 
L 940.515901 23.381359 
L 944.100867 46.598448 
L 951.2708 137.490549 
L 954.855766 179.377146 
L 958.440732 203.157985 
L 962.025699 200.975021 
L 965.610665 176.386141 
L 969.195631 129.388214 
L 972.780597 84.075271 
L 976.365564 41.399424 
L 979.95053 18.3358 
L 983.535496 24.599685 
L 987.120463 45.492873 
L 990.705429 89.208525 
L 994.290395 134.440037 
L 997.875361 173.877455 
L 1001.460328 197.705273 
L 1005.045294 199.982195 
L 1008.63026 176.574058 
L 1012.215226 135.730397 
L 1015.800193 85.45959 
L 1019.385159 45.073192 
L 1022.970125 21.552305 
L 1026.555092 19.056147 
L 1030.140058 44.813241 
L 1033.725024 86.922207 
L 1037.30999 133.6226 
L 1040.894957 170.573256 
L 1044.479923 199.919556 
L 1048.064889 204.636262 
L 1051.649855 182.358755 
L 1055.234822 142.498524 
L 1058.819788 96.076874 
L 1062.404754 52.054292 
L 1065.989721 24.627872 
L 1069.574687 22.698596 
L 1073.159653 39.902355 
L 1076.744619 78.299969 
L 1080.329586 124.377106 
L 1083.914552 166.266835 
L 1087.499518 194.41047 
L 1091.084484 200.004119 
L 1094.669451 180.344916 
L 1098.254417 144.252412 
L 1101.839383 93.092133 
L 1105.42435 52.975083 
L 1109.009316 24.449352 
L 1112.594282 20.102216 
L 1116.179248 32.47652 
L 1119.764215 73.780576 
L 1123.349181 120.274261 
L 1126.934147 164.03376 
L 1130.519113 191.516555 
L 1134.10408 198.247099 
L 1137.689046 184.394518 
L 1141.274012 145.890418 
L 1148.443945 53.642187 
L 1152.028911 28.849731 
L 1155.613877 18.370252 
L 1159.198844 28.968745 
L 1166.368776 115.141008 
L 1169.953742 160.820387 
L 1173.538709 192.897741 
L 1177.123675 198.835904 
L 1180.708641 184.973927 
L 1184.293607 147.591063 
L 1187.878574 99.302775 
L 1191.46354 54.481547 
L 1195.048506 22.037756 
L 1198.633473 12.858033 
L 1202.218439 29.645244 
L 1205.803405 65.064381 
L 1209.388371 111.401468 
L 1212.973338 155.718453 
L 1216.558304 189.148806 
L 1220.14327 197.871266 
L 1223.728236 184.516664 
L 1227.313203 152.050949 
L 1234.483135 59.912335 
L 1238.068102 25.999663 
L 1241.653068 15.445017 
L 1245.238034 25.902573 
L 1248.823 61.462647 
L 1252.407967 107.189006 
L 1255.992933 154.641065 
L 1259.577899 187.808335 
L 1263.162865 201.917736 
L 1266.747832 186.480391 
L 1270.332798 158.609236 
L 1273.917764 112.911065 
L 1277.50273 65.161471 
L 1281.087697 30.584827 
L 1284.672663 16.857523 
L 1288.257629 30.255973 
L 1291.842596 60.626418 
L 1299.012528 152.696129 
L 1302.597494 183.8339 
L 1306.182461 197.664558 
L 1309.767427 188.788633 
L 1313.352393 156.441932 
L 1316.937359 112.513308 
L 1320.522326 65.668846 
L 1324.107292 31.442979 
L 1327.692258 18.467342 
L 1331.277225 24.724963 
L 1334.862191 57.059136 
L 1338.447157 97.31086 
L 1342.032123 147.252813 
L 1345.61709 183.157401 
L 1349.202056 196.665468 
L 1352.787022 190.758625 
L 1356.371988 161.844533 
L 1359.956955 116.694451 
L 1363.541921 68.211983 
L 1367.126887 34.8474 
L 1370.711854 17.308523 
L 1374.29682 23.403283 
L 1377.881786 54.140166 
L 1381.466752 93.778029 
L 1385.051719 144.318183 
L 1388.636685 183.561421 
L 1392.221651 200.783972 
L 1395.806617 199.161626 
L 1399.391584 164.591246 
L 1402.97655 122.911357 
L 1406.561516 73.56134 
L 1410.146482 35.931053 
L 1413.731449 19.666876 
L 1417.316415 21.72143 
L 1420.901381 50.901737 
L 1424.486348 87.20095 
L 1428.071314 137.781819 
L 1431.65628 174.979899 
L 1435.241246 193.276706 
L 1438.826213 193.574241 
L 1442.411179 164.121455 
L 1445.996145 121.918531 
L 1449.581111 73.987285 
L 1453.166078 39.485807 
L 1456.751044 13.951081 
L 1460.33601 19.453904 
L 1463.920977 41.809708 
L 1467.505943 84.983534 
L 1471.090909 134.198877 
L 1474.675875 170.592048 
L 1478.260842 187.391787 
L 1481.845808 188.459779 
L 1485.430774 169.677521 
L 1489.01574 127.784659 
L 1496.185673 34.690803 
L 1499.770639 17.934912 
L 1503.355606 18.551904 
L 1506.940572 36.015615 
L 1510.525538 76.110742 
L 1514.110504 126.084014 
L 1517.695471 173.586185 
L 1521.280437 194.601518 
L 1524.865403 192.904005 
L 1528.450369 167.710661 
L 1532.035336 129.911248 
L 1535.620302 80.132156 
L 1539.205268 41.94125 
L 1542.790235 18.085245 
L 1546.375201 13.121116 
L 1549.960167 35.561483 
L 1557.1301 121.257691 
L 1560.715066 165.061037 
L 1564.300032 186.132746 
L 1567.884998 193.492811 
L 1571.469965 167.895445 
L 1575.054931 137.490549 
L 1578.639897 87.905637 
L 1582.224863 42.48934 
L 1585.80983 16.70719 
L 1589.394796 13.835199 
L 1592.979762 30.155751 
L 1600.149695 116.11191 
L 1603.734661 158.386868 
L 1607.319627 187.9618 
L 1610.904594 192.343388 
L 1614.48956 175.139628 
L 1618.074526 139.422957 
L 1625.244459 48.963065 
L 1628.829425 16.964009 
L 1632.414391 12.519783 
L 1635.999358 31.173632 
L 1639.584324 71.406564 
L 1643.16929 113.496738 
L 1646.754256 161.218144 
L 1650.339223 192.384103 
L 1653.924189 195.78226 
L 1657.509155 179.687208 
L 1661.094121 146.08773 
L 1664.679088 95.732361 
L 1668.264054 51.907091 
L 1671.84902 21.70577 
L 1675.433987 10.08 
L 1679.018953 29.30073 
L 1682.603919 64.102874 
L 1686.188885 105.945625 
L 1689.773852 151.459012 
L 1693.358818 184.526059 
L 1696.943784 195.318733 
L 1700.52875 183.63972 
L 1704.113717 145.207655 
L 1707.698683 96.380673 
L 1711.283649 55.289588 
L 1714.868615 20.954104 
L 1718.453582 11.229423 
L 1722.038548 23.88247 
L 1725.623514 57.550851 
L 1729.208481 104.708508 
L 1732.793447 154.706836 
L 1736.378413 184.936344 
L 1739.963379 191.366222 
L 1743.548346 180.395027 
L 1747.133312 152.0854 
L 1754.303244 58.409003 
L 1757.888211 27.528051 
L 1761.473177 11.846416 
L 1765.058143 22.867721 
L 1768.64311 59.11369 
L 1772.228076 102.766703 
L 1775.813042 153.501038 
L 1779.398008 181.986054 
L 1782.982975 199.349543 
L 1786.567941 186.915731 
L 1790.152907 156.379293 
L 1797.32284 66.790081 
L 1800.907806 32.933784 
L 1804.492772 17.108079 
L 1808.077739 26.798309 
L 1811.662705 56.595608 
L 1815.247671 101.282163 
L 1818.832637 149.097527 
L 1822.417604 181.35027 
L 1826.00257 196.784482 
L 1829.587536 190.147896 
L 1833.172502 160.447686 
L 1836.757469 116.127569 
L 1840.342435 69.781086 
L 1843.927401 34.299311 
L 1847.512367 16.989065 
L 1851.097334 25.100796 
L 1854.6823 50.801515 
L 1858.267266 101.153753 
L 1861.852233 146.325758 
L 1865.437199 182.534144 
L 1869.022165 198.579085 
L 1872.607131 192.399763 
L 1876.192098 166.426564 
L 1879.777064 122.031281 
L 1883.36203 74.86736 
L 1886.946996 35.561483 
L 1890.531963 15.38551 
L 1894.116929 26.685559 
L 1897.701895 51.593896 
L 1901.286862 95.24691 
L 1904.871828 142.288684 
L 1908.456794 180.423215 
L 1912.04176 198.218912 
L 1915.626727 193.712046 
L 1919.211693 166.197933 
L 1922.796659 126.597653 
L 1926.381625 77.532643 
L 1929.966592 41.148869 
L 1933.551558 23.963901 
L 1937.136524 24.371053 
L 1940.721491 46.74565 
L 1944.306457 91.288134 
L 1947.891423 138.896791 
L 1951.476389 176.170037 
L 1955.061356 200.517757 
L 1958.646322 196.13617 
L 1962.231288 172.759352 
L 1965.816254 128.924686 
L 1969.401221 83.580424 
L 1972.986187 41.891139 
L 1976.571153 20.38409 
L 1980.156119 22.376006 
L 1983.741086 44.412353 
L 1987.326052 90.00717 
L 1990.911018 139.141082 
L 1994.495985 171.478387 
L 1998.080951 192.528172 
L 2001.665917 192.124152 
L 2005.250883 169.975055 
L 2008.83585 135.724133 
L 2012.420816 83.624271 
L 2016.005782 42.505 
L 2019.590748 20.214966 
L 2023.175715 17.953703 
L 2026.760681 40.381543 
L 2030.345647 81.544662 
L 2033.930614 129.438325 
L 2037.51558 174.544559 
L 2041.100546 190.749229 
L 2044.685512 193.768421 
L 2048.270479 174.669837 
L 2051.855445 134.537127 
L 2055.440411 88.791976 
L 2059.025377 44.982366 
L 2062.610344 21.975117 
L 2066.19531 13.963609 
L 2069.780276 38.47419 
L 2073.365243 77.354123 
L 2076.950209 123.04603 
L 2080.535175 165.095489 
L 2084.120141 194.407338 
L 2087.705108 196.533927 
L 2091.290074 175.280565 
L 2094.87504 139.654721 
L 2098.460006 86.73429 
L 2102.044973 49.006912 
L 2105.629939 20.255681 
L 2109.214905 17.837821 
L 2112.799872 37.791426 
L 2116.384838 71.691571 
L 2119.969804 121.777594 
L 2123.55477 164.306239 
L 2127.139737 190.47675 
L 2130.724703 192.171131 
L 2134.309669 177.864418 
L 2137.894635 143.81394 
L 2141.479602 98.128297 
L 2145.064568 54.13077 
L 2148.649534 22.958547 
L 2152.2345 16.688398 
L 2155.819467 32.774055 
L 2159.404433 70.532752 
L 2162.989399 116.973194 
L 2166.574366 160.601151 
L 2170.159332 188.851272 
L 2173.744298 194.607782 
L 2177.329264 179.192362 
L 2180.914231 143.519538 
L 2184.499197 97.426741 
L 2188.084163 59.868488 
L 2191.669129 19.857924 
L 2195.254096 10.712652 
L 2198.839062 32.504708 
L 2202.424028 64.992346 
L 2206.008995 111.971482 
L 2209.593961 155.712189 
L 2213.178927 189.317931 
L 2216.763893 201.873888 
L 2220.34886 185.055358 
L 2223.933826 154.662989 
L 2227.518792 104.899556 
L 2231.103758 52.549139 
L 2234.688725 27.68778 
L 2238.273691 14.499171 
L 2241.858657 31.571389 
L 2245.443624 63.050542 
L 2249.02859 105.832875 
L 2252.613556 152.624094 
L 2256.198522 184.845518 
L 2259.783489 195.744677 
L 2263.368455 186.828037 
L 2266.953421 154.371718 
L 2270.538387 107.82479 
L 2274.123354 59.383037 
L 2277.70832 24.076651 
L 2281.293286 12.626269 
L 2284.878252 22.805082 
L 2288.463219 57.425573 
L 2292.048185 101.000288 
L 2295.633151 150.05277 
L 2299.218118 183.038387 
L 2302.803084 197.714669 
L 2306.38805 187.730037 
L 2309.973016 157.256237 
L 2313.557983 112.663641 
L 2317.142949 65.900609 
L 2320.727915 29.939647 
L 2324.312881 12.2567 
L 2327.897848 24.734358 
L 2331.482814 51.916487 
L 2338.652747 145.426891 
L 2342.237713 181.478679 
L 2345.822679 198.735682 
L 2349.407645 188.641432 
L 2352.992612 156.758258 
L 2356.577578 116.4345 
L 2360.162544 68.478198 
L 2363.74751 33.816991 
L 2367.332477 19.460167 
L 2370.917443 25.498552 
L 2374.502409 54.844853 
L 2381.672342 140.318693 
L 2385.257308 178.547181 
L 2388.842274 198.027863 
L 2392.427241 193.655672 
L 2396.012207 167.710661 
L 2399.597173 124.505515 
L 2403.182139 78.572448 
L 2406.767106 39.238384 
L 2410.352072 20.287 
L 2413.937038 27.214857 
L 2417.522004 53.648451 
L 2421.106971 96.6187 
L 2424.691937 145.098037 
L 2428.276903 179.229945 
L 2431.86187 201.300743 
L 2435.446836 196.198809 
L 2439.031802 171.453332 
L 2442.616768 128.49561 
L 2446.201735 81.181356 
L 2449.786701 39.579765 
L 2453.371667 20.49684 
L 2456.956633 19.601105 
L 2460.5416 46.523282 
L 2464.126566 88.431803 
L 2467.711532 134.746967 
L 2471.296499 174.221969 
L 2474.881465 199.340147 
L 2478.466431 193.583637 
L 2482.051397 170.35402 
L 2485.636364 126.826285 
L 2489.22133 80.514253 
L 2492.806296 40.203022 
L 2496.391262 20.349639 
L 2499.976229 21.30175 
L 2503.561195 42.843249 
L 2507.146161 83.23591 
L 2510.731128 132.889725 
L 2514.316094 171.049311 
L 2517.90106 196.101719 
L 2521.486026 200.37682 
L 2525.070993 174.290872 
L 2528.655959 135.567536 
L 2532.240925 86.208124 
L 2535.825891 45.724636 
L 2539.410858 20.164855 
L 2542.995824 21.232847 
L 2546.58079 41.762729 
L 2550.165757 85.237222 
L 2553.750723 130.215046 
L 2557.335689 171.616193 
L 2560.920655 193.686991 
L 2564.505622 199.305696 
L 2568.090588 176.185697 
L 2571.675554 143.788885 
L 2575.26052 92.193266 
L 2578.845487 51.907091 
L 2582.430453 24.925407 
L 2586.015419 20.499972 
L 2589.600385 39.8773 
L 2593.185352 76.373825 
L 2596.770318 126.669688 
L 2600.355284 172.101644 
L 2603.940251 196.201941 
L 2607.525217 205.406719 
L 2611.110183 183.116685 
L 2614.695149 140.948213 
L 2621.865082 52.311111 
L 2625.450048 26.491378 
L 2629.035014 23.894998 
L 2632.619981 39.548446 
L 2636.204947 74.137618 
L 2639.789913 120.020574 
L 2643.37488 170.689138 
L 2646.959846 194.194366 
L 2650.544812 200.251542 
L 2654.129778 186.86562 
L 2657.714745 147.262209 
L 2661.299711 100.398955 
L 2664.884677 56.911935 
L 2668.469643 25.332559 
L 2672.05461 16.397128 
L 2675.639576 39.611085 
L 2679.224542 72.985063 
L 2682.809509 121.855892 
L 2686.394475 164.90444 
L 2689.979441 197.241746 
L 2693.564407 201.867624 
L 2697.149374 191.754582 
L 2700.73434 155.377072 
L 2704.319306 102.873189 
L 2707.904272 60.382127 
L 2711.489239 31.010771 
L 2715.074205 21.743353 
L 2718.659171 34.390137 
L 2722.244137 67.688948 
L 2725.829104 117.248805 
L 2729.41407 161.052151 
L 2732.999036 194.585858 
L 2736.584003 207.614739 
L 2740.168969 192.803783 
L 2743.753935 156.905459 
L 2747.338901 109.077567 
L 2750.923868 66.508206 
L 2754.508834 30.152619 
L 2758.0938 22.551395 
L 2761.678766 35.852754 
L 2765.263733 67.51356 
L 2768.848699 112.795183 
L 2772.433665 155.727849 
L 2776.018632 191.67002 
L 2779.603598 204.554831 
L 2783.188564 194.886525 
L 2786.77353 161.988602 
L 2790.358497 118.567353 
L 2793.943463 71.603876 
L 2797.528429 34.267991 
L 2801.113395 18.467342 
L 2804.698362 30.212126 
L 2808.283328 67.053164 
L 2811.868294 102.685273 
L 2815.453261 150.428603 
L 2819.038227 188.444119 
L 2822.623193 201.573222 
L 2826.208159 193.154561 
L 2829.793126 161.493755 
L 2836.963058 69.890704 
L 2840.548024 33.456818 
L 2844.132991 19.485223 
L 2847.717957 27.650197 
L 2851.302923 55.220686 
L 2858.472856 143.109253 
L 2862.057822 183.025859 
L 2865.642788 201.225576 
L 2869.227755 189.972507 
L 2872.812721 162.780983 
L 2876.397687 118.185256 
L 2879.982653 71.071446 
L 2883.56762 36.181608 
L 2887.152586 19.07807 
L 2890.737552 25.783559 
L 2894.322518 53.090965 
L 2897.907485 97.101019 
L 2901.492451 147.165119 
L 2905.077417 180.745805 
L 2908.662384 199.578175 
L 2912.24735 193.871776 
L 2915.832316 169.408173 
L 2919.417282 124.452272 
L 2923.002249 74.062451 
L 2926.587215 38.881342 
L 2930.172181 22.191221 
L 2933.757147 24.230116 
L 2937.342114 53.983568 
L 2940.92708 94.79591 
L 2944.512046 140.938817 
L 2948.097013 178.597292 
L 2951.681979 200.69941 
L 2955.266945 190.664667 
L 2958.851911 167.738848 
L 2962.436878 123.697474 
L 2966.021844 78.02749 
L 2969.60681 42.514395 
L 2973.191776 18.592619 
L 2976.776743 21.101305 
L 2980.361709 42.439229 
L 2983.946675 86.239443 
L 2987.531642 134.646745 
L 2991.116608 174.698024 
L 2994.701574 196.23326 
L 2998.28654 197.592523 
L 3001.871507 173.066282 
L 3005.456473 130.102296 
L 3009.041439 81.694995 
L 3012.626405 41.026723 
L 3016.211372 19.748306 
L 3019.796338 23.700817 
L 3023.381304 46.413664 
L 3026.96627 86.148617 
L 3034.136203 171.544158 
L 3037.721169 199.371466 
L 3041.306136 196.919155 
L 3044.891102 174.413017 
L 3048.476068 137.033285 
L 3052.061034 89.020608 
L 3055.646001 46.078546 
L 3059.230967 22.955415 
L 3062.815933 19.519674 
L 3066.400899 41.249091 
L 3069.985866 80.886954 
L 3073.570832 127.671909 
L 3077.155798 172.878366 
L 3080.740765 196.070399 
L 3084.325731 197.849342 
L 3087.910697 176.605377 
L 3091.495663 142.119559 
L 3095.08063 88.970497 
L 3098.665596 52.765243 
L 3102.250562 26.103017 
L 3105.835528 19.810945 
L 3109.420495 38.850023 
L 3113.005461 75.465561 
L 3120.175394 172.749956 
L 3123.76036 199.16789 
L 3127.345326 198.50705 
L 3130.930292 183.335921 
L 3134.515259 144.932044 
L 3138.100225 91.901995 
L 3141.685191 50.682501 
L 3145.270157 23.014922 
L 3148.855124 18.389043 
L 3152.44009 36.952066 
L 3156.025056 73.385952 
L 3159.610022 117.919041 
L 3163.194989 163.927274 
L 3166.779955 194.050296 
L 3170.364921 207.877822 
L 3173.949888 183.718018 
L 3177.534854 147.988819 
L 3184.704786 53.999228 
L 3188.289753 23.506637 
L 3191.874719 18.714765 
L 3195.459685 33.099777 
L 3199.044651 67.300588 
L 3202.629618 119.347206 
L 3206.214584 164.25926 
L 3209.79955 192.791255 
L 3213.384517 198.519578 
L 3216.969483 183.696095 
L 3220.554449 149.075603 
L 3227.724382 57.788878 
L 3231.309348 28.652418 
L 3234.894314 19.86732 
L 3238.47928 30.337403 
L 3242.064247 67.454053 
L 3245.649213 106.72861 
L 3249.234179 158.1645 
L 3252.819146 190.752361 
L 3256.404112 202.158895 
L 3259.989078 186.157801 
L 3263.574044 155.539933 
L 3270.743977 58.656427 
L 3274.328943 26.557149 
L 3277.913909 16.613232 
L 3281.498876 33.237582 
L 3285.083842 61.284126 
L 3288.668808 109.741539 
L 3292.253774 154.13369 
L 3295.838741 190.423507 
L 3299.423707 198.945522 
L 3303.008673 190.182347 
L 3306.59364 162.329984 
L 3310.178606 111.4046 
L 3313.763572 68.346656 
L 3317.348538 28.276585 
L 3320.933505 14.552414 
L 3324.518471 27.872565 
L 3328.103437 62.461737 
L 3331.688403 103.559085 
L 3335.27337 149.839797 
L 3338.858336 184.970795 
L 3342.443302 198.550897 
L 3346.028269 190.295097 
L 3349.613235 157.757348 
L 3356.783167 67.15965 
L 3360.368134 31.834472 
L 3363.9531 16.857523 
L 3367.538066 20.446729 
L 3371.123032 51.280702 
L 3374.707999 94.567278 
L 3378.292965 142.529844 
L 3381.877931 176.86846 
L 3385.462898 196.302163 
L 3389.047864 192.164867 
L 3392.63283 159.332715 
L 3396.217796 118.366908 
L 3399.802763 68.926066 
L 3403.387729 30.716368 
L 3406.972695 17.721939 
L 3410.557661 23.873074 
L 3414.142628 51.496806 
L 3417.727594 95.98918 
L 3421.31256 145.016606 
L 3424.897527 176.799558 
L 3428.482493 196.828329 
L 3432.067459 189.383702 
L 3435.652425 165.98496 
L 3439.237392 121.091698 
L 3442.822358 72.440105 
L 3446.407324 38.286273 
L 3449.99229 13.669206 
L 3453.577257 19.579181 
L 3457.162223 45.483477 
L 3460.747189 89.324406 
L 3464.332155 135.279397 
L 3467.917122 178.356133 
L 3471.502088 194.686081 
L 3475.087054 194.438657 
L 3478.672021 167.857862 
L 3482.256987 128.022687 
L 3485.841953 80.345128 
L 3489.426919 43.259798 
L 3493.011886 21.192132 
L 3496.596852 20.778715 
L 3500.181818 47.027524 
L 3503.766784 85.681957 
L 3510.936717 176.123058 
L 3514.521683 199.37773 
L 3518.10665 196.082927 
L 3521.691616 173.830476 
L 3528.861548 85.685089 
L 3532.446515 44.637852 
L 3536.031481 22.050284 
L 3539.616447 25.254261 
L 3543.201413 45.555512 
L 3546.78638 80.974648 
L 3550.371346 137.224333 
L 3553.956312 172.583963 
L 3557.541279 200.752653 
L 3561.126245 201.469868 
L 3564.711211 179.518084 
L 3568.296177 137.415382 
L 3575.46611 48.812732 
L 3579.051076 24.133026 
L 3582.636042 20.355903 
L 3586.221009 41.383764 
L 3589.805975 80.207322 
L 3593.390941 125.686258 
L 3596.975907 168.875743 
L 3600.560874 193.574241 
L 3604.14584 199.606362 
L 3607.730806 178.559709 
L 3611.315773 139.920936 
L 3618.485705 53.256958 
L 3622.070671 24.508859 
L 3625.655638 21.81852 
L 3629.240604 37.810218 
L 3632.82557 80.069517 
L 3636.410536 124.574418 
L 3639.995503 166.767946 
L 3643.580469 194.128595 
L 3647.165435 199.766091 
L 3650.750402 180.764597 
L 3654.335368 140.127644 
L 3657.920334 92.443821 
L 3661.5053 55.997407 
L 3665.090267 28.433182 
L 3668.675233 21.677583 
L 3672.260199 37.020968 
L 3675.845165 69.752898 
L 3679.430132 120.944497 
L 3683.015098 163.360393 
L 3686.600064 193.455227 
L 3690.185031 199.468557 
L 3693.769997 187.936745 
L 3697.354963 148.859499 
L 3700.939929 100.452198 
L 3704.524896 57.093587 
L 3708.109862 26.964301 
L 3711.694828 19.09373 
L 3715.279794 33.773144 
L 3718.864761 70.504565 
L 3722.449727 118.698894 
L 3729.619659 193.351873 
L 3733.204626 201.889548 
L 3736.789592 185.127392 
L 3740.374558 151.167741 
L 3743.959525 104.122834 
L 3747.544491 61.866667 
L 3751.129457 25.955816 
L 3754.714423 18.761744 
L 3758.29939 28.830939 
L 3761.884356 62.536903 
L 3769.054288 158.537201 
L 3772.639255 194.269532 
L 3776.224221 199.650209 
L 3779.809187 186.665176 
L 3783.394154 155.220474 
L 3786.97912 106.443604 
L 3790.564086 62.120355 
L 3794.149052 30.882361 
L 3797.734019 18.943397 
L 3801.318985 29.607661 
L 3804.903951 61.017911 
L 3808.488917 106.960374 
L 3812.073884 154.496996 
L 3815.65885 185.772573 
L 3819.243816 203.038971 
L 3822.828783 187.545252 
L 3826.413749 161.180561 
L 3829.998715 110.076657 
L 3833.583681 65.211582 
L 3837.168648 30.500264 
L 3840.753614 18.555036 
L 3844.33858 28.733849 
L 3847.923546 56.958914 
L 3851.508513 104.263772 
L 3855.093479 148.718562 
L 3858.678445 182.518484 
L 3862.263412 192.474929 
L 3865.848378 189.862889 
L 3869.433344 158.06741 
L 3876.603277 66.552053 
L 3880.188243 32.310527 
L 3883.773209 15.053525 
L 3887.358175 22.736179 
L 3890.943142 57.669865 
L 3894.528108 99.716191 
L 3898.113074 150.018318 
L 3901.69804 184.403914 
L 3905.283007 203.107874 
L 3908.867973 195.068178 
L 3912.452939 161.64722 
L 3916.037906 120.540476 
L 3919.622872 74.91434 
L 3923.207838 37.030364 
L 3926.792804 19.842264 
L 3930.377771 20.406014 
L 3933.962737 52.264132 
L 3937.547703 92.797731 
L 3941.132669 140.735241 
L 3944.717636 178.901091 
L 3948.302602 199.042612 
L 3951.887568 192.634658 
L 3955.472535 171.456464 
L 3959.057501 122.704649 
L 3962.642467 76.614984 
L 3966.227433 35.420546 
L 3969.8124 17.624849 
L 3973.397366 24.258303 
L 3976.982332 50.810911 
L 3980.567298 90.354816 
L 3984.152265 140.569248 
L 3987.737231 180.053646 
L 3991.322197 197.724065 
L 3994.907164 193.97513 
L 3998.49213 174.309663 
L 4002.077096 127.841034 
L 4009.247029 41.599868 
L 4012.831995 18.564432 
L 4016.416961 18.019474 
L 4020.001927 43.826679 
L 4023.586894 86.342797 
L 4027.17186 135.279397 
L 4030.756826 176.608509 
L 4034.341792 193.824796 
L 4037.926759 194.81449 
L 4041.511725 174.005865 
L 4045.096691 134.389926 
L 4048.681658 82.286932 
L 4052.266624 44.023992 
L 4055.85159 22.222541 
L 4059.436556 20.612722 
L 4063.021523 42.379722 
L 4066.606489 83.859167 
L 4070.191455 129.554207 
L 4073.776421 170.018902 
L 4077.361388 199.402786 
L 4080.946354 194.294588 
L 4084.53132 174.450601 
L 4088.116287 132.470045 
L 4091.701253 87.307436 
L 4095.286219 50.491453 
L 4098.871185 22.717388 
L 4102.456152 19.566654 
L 4106.041118 42.880833 
L 4109.626084 80.54244 
L 4113.21105 124.001273 
L 4116.796017 162.812303 
L 4120.380983 194.156782 
L 4123.965949 192.831971 
L 4127.550916 179.508688 
L 4131.135882 139.595214 
L 4134.720848 90.276517 
L 4138.305814 48.77828 
L 4141.890781 23.600595 
L 4145.475747 16.732246 
L 4149.060713 37.78203 
L 4152.645679 73.310785 
L 4156.230646 124.994098 
L 4159.815612 163.394844 
L 4163.400578 192.581415 
L 4166.985544 196.624753 
L 4170.570511 178.631744 
L 4174.155477 143.112385 
L 4177.740443 95.093444 
L 4181.32541 53.773728 
L 4184.910376 25.273053 
L 4188.495342 18.871362 
L 4192.080308 34.875588 
L 4195.665275 72.355543 
L 4199.250241 119.055936 
L 4202.835207 163.776941 
L 4206.420173 191.563534 
L 4210.00514 200.019778 
L 4213.590106 181.807533 
L 4217.175072 145.564696 
L 4220.760039 99.146178 
L 4224.345005 59.862224 
L 4227.929971 26.83276 
L 4231.514937 21.956326 
L 4235.099904 32.085027 
L 4238.68487 69.333218 
L 4245.854802 160.635603 
L 4249.439769 188.040099 
L 4253.024735 199.991591 
L 4256.609701 186.9126 
L 4260.194668 154.594086 
L 4263.779634 103.264682 
L 4267.3646 61.240279 
L 4270.949566 31.834472 
L 4274.534533 17.440065 
L 4278.119499 27.650197 
L 4281.704465 65.65945 
L 4285.289431 110.142428 
L 4288.874398 158.706326 
L 4292.459364 188.008779 
L 4296.04433 197.655162 
L 4299.629296 189.076772 
L 4303.214263 158.747042 
L 4306.799229 111.689607 
L 4310.384195 66.599032 
L 4313.969162 34.772234 
L 4317.554128 19.137577 
L 4321.139094 35.755664 
L 4324.72406 62.305139 
L 4328.309027 109.716483 
L 4331.893993 159.401618 
L 4335.478959 189.84723 
L 4339.063925 206.941371 
L 4342.648892 195.779128 
L 4346.233858 165.721877 
L 4349.818824 121.749406 
L 4353.403791 75.418582 
L 4356.988757 38.041982 
L 4360.573723 25.805483 
L 4364.158689 33.027742 
L 4367.743656 61.143189 
L 4374.913588 153.958302 
L 4378.498554 190.598896 
L 4382.083521 204.210317 
L 4385.668487 196.436836 
L 4389.253453 168.922722 
L 4396.423386 79.089219 
L 4400.008352 43.366284 
L 4403.593318 25.050685 
L 4407.178285 29.692223 
L 4410.763251 63.557916 
L 4414.348217 100.583739 
L 4417.933183 151.534178 
L 4421.51815 186.301871 
L 4425.103116 202.23093 
L 4428.688082 197.492301 
L 4432.273049 173.000511 
L 4439.442981 82.2838 
L 4443.027947 43.294249 
L 4446.612914 25.39833 
L 4450.19788 29.021988 
L 4453.782846 54.553582 
L 4460.952779 147.446993 
L 4464.537745 188.798029 
L 4468.122711 204.451477 
L 4471.707677 200.68375 
L 4475.292644 172.812595 
L 4478.87761 133.71969 
L 4482.462576 84.097195 
L 4486.047543 45.511664 
L 4489.632509 25.103928 
L 4493.217475 27.030072 
L 4496.802441 51.271306 
L 4503.972374 140.281109 
L 4507.55734 174.701156 
L 4511.142306 202.378131 
L 4514.727273 198.738814 
L 4518.312239 180.153868 
L 4521.897205 136.272223 
L 4525.482172 88.268942 
L 4529.067138 46.244539 
L 4532.652104 23.137068 
L 4536.23707 24.468143 
L 4539.822037 44.055311 
L 4543.407003 91.563745 
L 4550.576935 178.650536 
L 4554.161902 198.07171 
L 4557.746868 203.154853 
L 4561.331834 179.859465 
L 4564.916801 141.396081 
L 4568.501767 94.551618 
L 4572.086733 52.001049 
L 4575.671699 30.440758 
L 4579.256666 28.505217 
L 4582.841632 48.643607 
L 4586.426598 87.877449 
L 4590.011564 134.853453 
L 4593.596531 174.575878 
L 4597.181497 197.107072 
L 4600.766463 203.042103 
L 4604.351429 182.3337 
L 4607.936396 145.351724 
L 4611.521362 96.496555 
L 4615.106328 52.633701 
L 4618.691295 27.390246 
L 4622.276261 23.851151 
L 4625.861227 42.257576 
L 4629.446193 80.351392 
L 4633.03116 126.437924 
L 4636.616126 168.477987 
L 4640.201092 197.044433 
L 4643.786058 199.565647 
L 4647.371025 180.986965 
L 4650.955991 145.116828 
L 4654.540957 96.819145 
L 4658.125924 51.96973 
L 4661.71089 27.731627 
L 4665.295856 22.776894 
L 4668.880822 38.925189 
L 4676.050755 123.713134 
L 4679.635721 167.920501 
L 4683.220687 194.585858 
L 4686.805654 201.109694 
L 4690.39062 181.870172 
L 4693.975586 150.437998 
L 4697.560553 102.716592 
L 4701.145519 59.683704 
L 4704.730485 29.999154 
L 4708.315451 24.465011 
L 4711.900418 38.580676 
L 4715.485384 72.840994 
L 4722.655316 163.031539 
L 4726.240283 191.663756 
L 4729.825249 199.581307 
L 4733.410215 183.786921 
L 4736.995181 150.26261 
L 4740.580148 99.828941 
L 4744.165114 55.925373 
L 4747.75008 27.706572 
L 4751.335047 19.616765 
L 4754.920013 33.034006 
L 4758.504979 66.220067 
L 4762.089945 109.869949 
L 4765.674912 159.558215 
L 4769.259878 189.515244 
L 4772.844844 199.005029 
L 4776.42981 186.474128 
L 4780.014777 154.788266 
L 4783.599743 107.780943 
L 4787.184709 62.740479 
L 4790.769676 30.387514 
L 4794.354642 17.324183 
L 4797.939608 29.037647 
L 4801.524574 62.239369 
L 4805.109541 108.009575 
L 4808.694507 156.980626 
L 4812.279473 188.265599 
L 4815.864439 198.82964 
L 4819.449406 183.971706 
L 4823.034372 158.549729 
L 4826.619338 111.150913 
L 4830.204305 65.405762 
L 4833.789271 31.634028 
L 4837.374237 14.762254 
L 4840.959203 27.258704 
L 4844.54417 60.025085 
L 4851.714102 148.430423 
L 4855.299068 183.755602 
L 4858.884035 202.782152 
L 4862.469001 191.851673 
L 4866.053967 161.471831 
L 4869.638934 112.651113 
L 4873.2239 66.038415 
L 4876.808866 31.972277 
L 4880.393832 20.418542 
L 4883.978799 30.459549 
L 4887.563765 56.789789 
L 4891.148731 97.360971 
L 4894.733697 144.853745 
L 4898.318664 177.7548 
L 4901.90363 197.3451 
L 4905.488596 186.192253 
L 4909.073562 163.357261 
L 4912.658529 120.490365 
L 4916.243495 72.396258 
L 4919.828461 36.729698 
L 4923.413428 15.51392 
L 4926.998394 19.632424 
L 4930.58336 50.976904 
L 4937.753293 144.383954 
L 4941.338259 176.069815 
L 4944.923225 193.477151 
L 4948.508191 190.658403 
L 4952.093158 162.117012 
L 4955.678124 120.960157 
L 4959.26309 74.610541 
L 4962.848057 38.358308 
L 4966.433023 16.70719 
L 4970.017989 20.396618 
L 4973.602955 46.31031 
L 4977.187922 85.628714 
L 4980.772888 137.048945 
L 4984.357854 175.734697 
L 4987.94282 193.715178 
L 4991.527787 191.929971 
L 4995.112753 160.87363 
L 4998.697719 122.378927 
L 5002.282686 72.530931 
L 5005.867652 33.607151 
L 5009.452618 13.22447 
L 5013.037584 14.99715 
L 5016.622551 42.786874 
L 5027.377449 174.347247 
L 5030.962416 190.504937 
L 5034.547382 193.818533 
L 5038.132348 169.545979 
L 5041.717314 127.781527 
L 5045.302281 80.266829 
L 5048.887247 41.631188 
L 5052.472213 13.083533 
L 5056.05718 14.295594 
L 5059.642146 37.277788 
L 5066.812078 130.443678 
L 5070.397045 171.265415 
L 5073.982011 196.010892 
L 5077.566977 195.309337 
L 5081.151943 173.730254 
L 5084.73691 135.583196 
L 5088.321876 88.986157 
L 5091.906842 46.119261 
L 5095.491809 19.403793 
L 5099.076775 18.439154 
L 5102.661741 35.198178 
L 5106.246707 75.174291 
L 5109.831674 126.353361 
L 5113.41664 172.057797 
L 5117.001606 191.193965 
L 5120.586572 197.558072 
L 5124.171539 171.819769 
L 5127.756505 140.356276 
L 5131.341471 87.335623 
L 5134.926438 49.266863 
L 5138.511404 20.481181 
L 5142.09637 15.61101 
L 5145.681336 36.203532 
L 5149.266303 75.346548 
L 5152.851269 121.132413 
L 5156.436235 163.610948 
L 5160.021201 191.519687 
L 5163.606168 200.154452 
L 5167.191134 180.391895 
L 5170.7761 145.051057 
L 5174.361066 94.410681 
L 5177.946033 52.718264 
L 5181.530999 21.934402 
L 5185.115965 14.398949 
L 5188.700932 35.714949 
L 5192.285898 73.129132 
L 5199.45583 163.203796 
L 5203.040797 190.276306 
L 5206.625763 196.800142 
L 5210.210729 181.369062 
L 5213.795695 142.025601 
L 5217.380662 97.079096 
L 5220.965628 49.025704 
L 5224.550594 22.911568 
L 5228.135561 16.058878 
L 5231.720527 29.958438 
L 5235.305493 67.006185 
L 5242.475426 154.910412 
L 5246.060392 185.612843 
L 5249.645358 195.3939 
L 5253.230324 183.069706 
L 5256.815291 149.24786 
L 5260.400257 100.734073 
L 5263.985223 55.64663 
L 5267.57019 21.430159 
L 5271.155156 16.826204 
L 5274.740122 26.907926 
L 5278.325088 58.051962 
L 5281.910055 104.993514 
L 5285.495021 149.736443 
L 5289.079987 181.359666 
L 5292.664953 193.624352 
L 5296.24992 182.026769 
L 5299.834886 150.478714 
L 5303.419852 99.428053 
L 5307.004819 55.007714 
L 5310.589785 21.552305 
L 5314.174751 11.016451 
L 5317.759717 24.392977 
L 5321.344684 56.354449 
L 5324.92965 101.138093 
L 5328.514616 148.032667 
L 5332.099582 179.540007 
L 5335.684549 191.735791 
L 5339.269515 184.084456 
L 5342.854481 151.95699 
L 5350.024414 62.089035 
L 5353.60938 28.690002 
L 5357.194346 11.198103 
L 5360.779313 22.426117 
L 5364.364279 54.932547 
L 5367.949245 98.15022 
L 5371.534211 143.882843 
L 5375.119178 182.380679 
L 5378.704144 194.770643 
L 5382.28911 186.467864 
L 5385.874076 154.684912 
L 5389.459043 112.143739 
L 5393.044009 60.692189 
L 5396.628975 29.175453 
L 5400.213942 11.921582 
L 5403.798908 23.885602 
L 5407.383874 50.397494 
L 5410.96884 93.950285 
L 5414.553807 140.697658 
L 5418.138773 178.562841 
L 5421.723739 193.317422 
L 5425.308705 188.415932 
L 5428.893672 160.798464 
L 5436.063604 68.969913 
L 5439.648571 30.550375 
L 5443.233537 16.478558 
L 5446.818503 17.280336 
L 5450.403469 48.671794 
L 5453.988436 91.397752 
L 5457.573402 140.735241 
L 5461.158368 173.902511 
L 5464.743334 193.95947 
L 5468.328301 190.442299 
L 5471.913267 164.869989 
L 5475.498233 123.315377 
L 5479.083199 72.17389 
L 5482.668166 32.285472 
L 5486.253132 12.413297 
L 5489.838098 16.992197 
L 5493.423065 44.277679 
L 5497.008031 88.350372 
L 5500.592997 136.312938 
L 5504.177963 169.577298 
L 5507.76293 192.838235 
L 5511.347896 188.578793 
L 5514.932862 164.841801 
L 5518.517828 124.38337 
L 5522.102795 71.525578 
L 5525.687761 33.528853 
L 5529.272727 17.530891 
L 5532.857694 15.084844 
L 5536.44266 34.587449 
L 5540.027626 78.970205 
L 5543.612592 131.802941 
L 5547.197559 169.636805 
L 5550.782525 193.665067 
L 5554.367491 193.752762 
L 5557.952457 172.089116 
L 5561.537424 128.821332 
L 5565.12239 79.486975 
L 5568.707356 41.684431 
L 5572.292323 18.35146 
L 5575.877289 18.768008 
L 5579.462255 39.560974 
L 5583.047221 82.603258 
L 5586.632188 129.25354 
L 5590.217154 170.231874 
L 5593.80212 199.402786 
L 5597.387086 197.056961 
L 5600.972053 179.079612 
L 5604.557019 138.721402 
L 5608.141985 91.444731 
L 5611.726951 49.786766 
L 5615.311918 21.035534 
L 5618.896884 19.961278 
L 5622.48185 38.292537 
L 5626.066817 80.996572 
L 5629.651783 130.612803 
L 5633.236749 169.834118 
L 5636.821715 197.363891 
L 5640.406682 201.056451 
L 5643.991648 181.143562 
L 5647.576614 141.602789 
L 5651.16158 92.478272 
L 5654.746547 54.365665 
L 5658.331513 25.254261 
L 5661.916479 24.649796 
L 5665.501446 41.418216 
L 5669.086412 77.855233 
L 5672.671378 124.903272 
L 5676.256344 165.5966 
L 5679.841311 197.811759 
L 5683.426277 203.10161 
L 5687.011243 183.489387 
L 5690.596209 147.017917 
L 5694.181176 98.006151 
L 5697.766142 56.266754 
L 5701.351108 23.86681 
L 5704.936075 18.404703 
L 5708.521041 35.777587 
L 5712.106007 69.859384 
L 5719.27594 165.292801 
L 5722.860906 189.787723 
L 5726.445872 203.286394 
L 5730.030838 181.582034 
L 5733.615805 149.37627 
L 5737.200771 102.84187 
L 5740.785737 54.2122 
L 5744.370704 23.187179 
L 5747.95567 15.917941 
L 5751.540636 32.301131 
L 5755.125602 66.470623 
L 5762.295535 160.112568 
L 5765.880501 187.523328 
L 5769.465467 199.218001 
L 5773.050434 182.336832 
L 5776.6354 149.667541 
L 5780.220366 100.483517 
L 5783.805332 59.132482 
L 5787.390299 23.985824 
L 5790.975265 18.129092 
L 5794.560231 28.639891 
L 5798.145198 63.730173 
L 5801.730164 111.896315 
L 5805.31513 153.682691 
L 5808.900096 188.747918 
L 5812.485063 198.124953 
L 5816.070029 187.141231 
L 5819.654995 154.885357 
L 5823.239961 105.162639 
L 5826.824928 59.934259 
L 5830.409894 29.281939 
L 5833.99486 17.99755 
L 5837.579827 29.357105 
L 5841.164793 60.488613 
L 5848.334725 152.329692 
L 5851.919692 182.064353 
L 5855.504658 196.906628 
L 5859.089624 186.467864 
L 5862.67459 152.952948 
L 5866.259557 108.526345 
L 5869.844523 60.949008 
L 5873.429489 30.121299 
L 5877.014456 12.479068 
L 5880.599422 25.476629 
L 5884.184388 57.475684 
L 5887.769354 96.430784 
L 5891.354321 150.422339 
L 5894.939287 183.774393 
L 5898.524253 200.984417 
L 5902.109219 191.193965 
L 5905.694186 157.973452 
L 5912.864118 64.90152 
L 5916.449084 29.003196 
L 5920.034051 13.684866 
L 5923.619017 23.509769 
L 5927.203983 50.328592 
L 5930.78895 96.800353 
L 5934.373916 145.21705 
L 5937.958882 183.755602 
L 5941.543848 196.15183 
L 5945.128815 192.142943 
L 5948.713781 164.390802 
L 5952.298747 118.808512 
L 5955.883713 74.886152 
L 5959.46868 39.845981 
L 5963.053646 21.953194 
L 5966.638612 27.036336 
L 5970.223579 51.396584 
L 5973.808545 97.642845 
L 5977.393511 147.412542 
L 5980.978477 180.974437 
L 5984.563444 200.571 
L 5988.14841 193.414512 
L 5991.733376 166.066391 
L 5995.318342 124.505515 
L 5998.903309 81.359877 
L 6002.488275 40.309508 
L 6006.073241 22.347818 
L 6009.658208 25.990267 
L 6013.243174 51.622084 
L 6016.82814 95.259437 
L 6020.413106 144.628245 
L 6023.998073 182.31804 
L 6027.583039 201.498055 
L 6031.168005 202.450166 
L 6034.752971 172.847046 
L 6038.337938 133.860627 
L 6041.922904 81.97687 
L 6045.50787 42.451757 
L 6049.092836 18.442286 
L 6052.677803 23.224762 
L 6056.262769 47.202913 
L 6059.847735 94.272875 
L 6067.017668 180.795916 
L 6070.602634 201.366514 
L 6074.1876 199.728508 
L 6077.772567 179.994139 
L 6081.357533 139.899012 
L 6084.942499 88.557081 
L 6088.527465 45.026213 
L 6092.112432 24.051595 
L 6095.697398 21.073118 
L 6099.282364 47.03692 
L 6102.867331 83.270362 
L 6106.452297 136.178265 
L 6110.037263 177.510508 
L 6113.622229 200.464514 
L 6117.207196 203.367825 
L 6120.792162 178.434431 
L 6124.377128 139.955387 
L 6127.962094 91.322586 
L 6131.547061 51.885167 
L 6135.132027 26.535225 
L 6138.716993 25.567455 
L 6142.30196 46.532678 
L 6145.886926 85.985756 
L 6149.471892 131.098254 
L 6153.056858 168.941514 
L 6156.641825 197.445322 
L 6160.226791 203.94097 
L 6163.811757 181.381589 
L 6167.396723 142.157143 
L 6170.98169 94.927451 
L 6174.566656 52.852937 
L 6178.151622 29.642112 
L 6181.736588 25.467233 
L 6185.321555 39.983786 
L 6188.906521 85.609923 
L 6192.491487 129.68888 
L 6196.076454 170.576388 
L 6199.66142 195.938858 
L 6203.246386 201.03766 
L 6206.831352 187.034745 
L 6210.416319 150.860811 
L 6214.001285 100.56808 
L 6217.586251 56.808581 
L 6221.171217 30.136959 
L 6224.756184 26.907926 
L 6228.34115 42.937208 
L 6231.926116 79.377357 
L 6235.511083 127.136347 
L 6239.096049 167.447578 
L 6242.681015 201.792458 
L 6246.265981 207.069781 
L 6249.850948 189.483924 
L 6253.435914 152.85899 
L 6257.02088 105.707597 
L 6260.605846 64.012048 
L 6264.190813 35.085428 
L 6267.775779 22.877117 
L 6271.360745 38.314461 
L 6274.945712 71.503654 
L 6282.115644 166.03194 
L 6285.70061 200.664959 
L 6289.285577 207.495725 
L 6292.870543 194.623442 
L 6296.455509 155.220474 
L 6300.040475 111.498559 
L 6303.625442 64.331506 
L 6307.210408 36.472879 
L 6310.795374 28.213946 
L 6314.380341 37.89478 
L 6317.965307 74.33493 
L 6321.550273 116.534722 
L 6325.135239 162.831094 
L 6328.720206 196.017156 
L 6332.305172 207.22951 
L 6335.890138 195.876219 
L 6339.475104 163.006483 
L 6343.060071 115.974104 
L 6346.645037 72.809674 
L 6350.230003 37.725656 
L 6353.814969 26.516434 
L 6357.399936 37.199489 
L 6360.984902 65.333728 
L 6364.569868 110.267705 
L 6368.154835 157.478605 
L 6371.739801 194.682949 
L 6375.324767 205.563317 
L 6378.909733 196.477552 
L 6382.4947 164.559927 
L 6389.664632 74.018604 
L 6393.249598 39.714439 
L 6396.834565 23.591199 
L 6400.419531 29.422876 
L 6404.004497 63.949409 
L 6407.589464 107.232853 
L 6411.17443 152.733712 
L 6414.759396 183.570817 
L 6418.344362 203.997345 
L 6421.929329 189.280348 
L 6425.514295 163.692379 
L 6429.099261 118.012999 
L 6432.684227 73.955965 
L 6436.269194 35.448733 
L 6439.85416 23.049373 
L 6443.439126 28.834071 
L 6447.024093 58.058226 
L 6454.194025 146.08773 
L 6457.778991 183.17306 
L 6461.363958 200.37682 
L 6464.948924 192.769332 
L 6468.53389 170.291381 
L 6472.118856 126.331438 
L 6475.703823 73.887062 
L 6479.288789 38.552488 
L 6482.873755 19.607369 
L 6486.458721 27.819322 
L 6490.043688 52.323639 
L 6493.628654 94.382493 
L 6497.21362 144.001857 
L 6500.798587 181.115374 
L 6504.383553 200.668091 
L 6507.968519 193.358137 
L 6511.553485 167.482029 
L 6518.723418 80.176003 
L 6522.308384 43.356888 
L 6525.89335 22.053416 
L 6529.478317 25.871254 
L 6533.063283 50.604203 
L 6536.648249 90.680538 
L 6540.233216 136.876688 
L 6543.818182 177.103356 
L 6547.403148 195.500386 
L 6550.988114 196.57151 
L 6554.573081 170.003243 
L 6558.158047 124.342654 
L 6561.743013 81.889175 
L 6565.327979 41.853556 
L 6568.912946 18.943397 
L 6572.497912 24.371053 
L 6576.082878 48.703114 
L 6579.667845 87.808546 
L 6583.252811 131.201608 
L 6586.837777 171.779054 
L 6590.422743 194.538879 
L 6594.00771 192.149207 
L 6597.592676 173.247935 
L 6604.762608 85.794707 
L 6608.347575 44.374769 
L 6611.932541 19.836001 
L 6615.517507 17.659301 
L 6619.102473 41.346181 
L 6622.68744 80.921405 
L 6626.272406 128.49561 
L 6629.857372 169.884229 
L 6633.442339 193.458359 
L 6637.027305 196.493211 
L 6640.612271 176.267127 
L 6647.782204 84.845729 
L 6651.36717 47.321927 
L 6654.952136 20.681625 
L 6658.537102 20.744264 
L 6662.122069 38.035718 
L 6665.707035 80.100836 
L 6669.292001 128.899631 
L 6672.876968 174.237629 
L 6676.461934 193.163957 
L 6680.0469 202.503409 
L 6683.631866 178.94807 
L 6687.216833 145.163807 
L 6690.801799 92.638002 
L 6694.386765 55.004582 
L 6697.971731 24.953594 
L 6701.556698 22.513811 
L 6705.141664 39.767682 
L 6708.72663 75.287041 
L 6712.311597 121.75567 
L 6715.896563 165.599732 
L 6719.481529 193.257915 
L 6723.066495 201.241236 
L 6726.651462 184.169018 
L 6730.236428 145.508321 
L 6733.821394 97.671033 
L 6737.40636 54.42204 
L 6740.991327 26.350441 
L 6744.576293 18.439154 
L 6748.161259 37.218281 
L 6751.746226 74.967583 
L 6755.331192 119.779414 
L 6758.916158 163.000219 
L 6762.501124 190.176084 
L 6766.086091 199.102119 
L 6769.671057 184.842386 
L 6773.256023 147.603591 
L 6780.425956 57.892233 
L 6784.010922 28.780828 
L 6787.595888 13.340352 
L 6791.180854 34.888116 
L 6794.765821 65.108228 
L 6798.350787 108.269526 
L 6801.935753 155.223606 
L 6805.52072 189.552827 
L 6809.105686 195.547365 
L 6812.690652 186.179725 
L 6816.275618 148.05459 
L 6823.445551 63.435771 
L 6827.030517 27.788002 
L 6830.615483 17.114343 
L 6834.20045 30.841646 
L 6837.785416 62.818778 
L 6841.370382 111.561197 
L 6848.540315 189.549695 
L 6852.125281 199.606362 
L 6855.710247 188.221751 
L 6859.295214 156.930515 
L 6862.88018 111.069483 
L 6866.465146 67.48224 
L 6870.050112 33.604019 
L 6873.635079 22.272652 
L 6877.220045 33.021478 
L 6880.805011 63.842923 
L 6887.974944 151.274227 
L 6891.55991 185.340364 
L 6895.144876 202.785284 
L 6898.729843 188.688411 
L 6902.314809 161.481227 
L 6905.899775 115.175459 
L 6909.484741 71.713494 
L 6913.069708 31.740514 
L 6916.654674 19.438244 
L 6920.23964 27.474808 
L 6923.824606 56.93699 
L 6930.994539 146.360209 
L 6934.579505 182.1082 
L 6938.164472 197.373287 
L 6941.749438 192.036457 
L 6945.334404 164.021233 
L 6948.91937 119.857713 
L 6952.504337 73.198035 
L 6956.089303 36.585628 
L 6959.674269 19.98007 
L 6963.259235 26.995621 
L 6966.844202 52.16391 
L 6970.429168 99.825809 
L 6974.014134 138.671291 
L 6977.599101 180.852291 
L 6981.184067 198.056051 
L 6984.769033 190.23559 
L 6988.353999 164.221677 
L 6991.938966 123.259002 
L 6995.523932 75.045881 
L 6999.108898 36.482274 
L 7002.693864 21.016743 
L 7006.278831 26.084226 
L 7009.863797 49.207356 
L 7013.448763 90.614767 
L 7017.03373 143.961142 
L 7020.618696 179.508688 
L 7024.203662 198.140613 
L 7027.788628 196.267711 
L 7031.373595 168.067702 
L 7038.543527 80.420294 
L 7042.128493 44.409221 
L 7045.71346 20.462389 
L 7049.298426 21.427027 
L 7052.883392 44.916595 
L 7056.468358 84.980402 
L 7060.053325 134.13937 
L 7063.638291 173.003643 
L 7067.223257 198.294078 
L 7070.808224 194.880261 
L 7074.39319 172.277033 
L 7077.978156 129.225353 
L 7081.563122 82.496772 
L 7085.148089 40.337695 
L 7088.733055 24.580893 
L 7092.318021 20.130403 
L 7095.902987 48.098649 
L 7099.487954 80.984044 
L 7103.07292 131.730906 
L 7106.657886 175.991516 
L 7110.242853 193.953206 
L 7113.827819 195.284282 
L 7117.412785 172.054665 
L 7120.997751 133.512982 
L 7124.582718 85.281069 
L 7128.167684 43.804756 
L 7131.75265 18.990376 
L 7135.337616 20.421674 
L 7138.922583 41.449535 
L 7142.507549 75.280777 
L 7146.092515 125.542188 
L 7149.677482 169.430097 
L 7153.262448 192.167999 
L 7156.847414 193.442699 
L 7160.43238 176.408065 
L 7164.017347 136.488327 
L 7167.602313 91.366433 
L 7171.187279 49.533078 
L 7174.772245 25.908837 
L 7178.357212 19.021696 
L 7181.942178 36.413372 
L 7185.527144 73.824424 
L 7189.112111 121.310934 
L 7192.697077 163.075386 
L 7196.282043 188.062022 
L 7199.867009 194.623442 
L 7203.451976 175.612551 
L 7207.036942 139.260096 
L 7210.621908 93.358348 
L 7214.206874 49.435988 
L 7217.791841 23.437734 
L 7221.376807 15.091108 
L 7224.961773 32.354374 
L 7228.546739 68.857163 
L 7232.131706 119.647873 
L 7235.716672 160.55104 
L 7239.301638 187.817731 
L 7242.886605 196.205073 
L 7246.471571 177.83623 
L 7250.056537 144.020648 
L 7253.641503 97.526964 
L 7257.22647 54.797874 
L 7260.811436 24.461879 
L 7264.396402 14.424004 
L 7267.981368 31.176764 
L 7271.566335 65.496589 
L 7275.151301 110.255177 
L 7278.736267 158.101861 
L 7282.321234 190.373396 
L 7285.9062 194.626574 
L 7289.491166 182.380679 
L 7293.076132 147.935576 
L 7296.661099 99.478164 
L 7300.246065 54.829193 
L 7303.831031 24.947331 
L 7307.415997 13.058477 
L 7311.000964 28.035426 
L 7314.58593 65.41829 
L 7318.170896 109.397025 
L 7321.755863 158.274118 
L 7325.340829 187.056669 
L 7328.925795 194.626574 
L 7332.510761 184.162754 
L 7336.095728 153.256747 
L 7339.680694 108.159908 
L 7343.26566 61.365557 
L 7346.850626 31.386604 
L 7350.435593 17.048572 
L 7354.020559 30.472077 
L 7357.605525 63.777152 
L 7361.190491 108.817616 
L 7364.775458 151.123894 
L 7368.360424 189.684369 
L 7371.94539 200.583528 
L 7375.530357 193.937546 
L 7379.115323 161.600241 
L 7382.700289 114.329835 
L 7386.285255 64.945367 
L 7389.870222 30.506528 
L 7393.455188 18.22305 
L 7397.040154 30.650598 
L 7400.62512 63.67693 
L 7404.210087 104.508063 
L 7407.795053 151.19906 
L 7411.380019 183.708622 
L 7414.964986 200.007251 
L 7418.549952 191.729527 
L 7422.134918 164.522343 
L 7425.719884 116.356201 
L 7429.304851 71.86696 
L 7432.889817 37.562795 
L 7436.474783 18.824383 
L 7440.059749 26.315989 
L 7443.644716 52.464576 
L 7450.814648 146.247459 
L 7454.399615 182.098804 
L 7457.984581 198.488259 
L 7461.569547 191.359958 
L 7465.154513 166.088315 
L 7472.324446 74.792194 
L 7475.909412 37.0241 
L 7479.494378 17.176981 
L 7483.079345 24.580893 
L 7486.664311 53.867687 
L 7490.249277 89.853705 
L 7493.834243 138.818492 
L 7497.41921 181.820061 
L 7501.004176 201.623333 
L 7504.589142 194.175574 
L 7508.174109 168.49991 
L 7515.344041 81.657411 
L 7518.929007 41.781521 
L 7522.513974 19.939355 
L 7526.09894 24.045331 
L 7529.683906 50.475793 
L 7536.853839 141.107942 
L 7540.438805 177.122148 
L 7544.023771 201.826909 
L 7547.608738 195.074441 
L 7551.193704 171.343714 
L 7554.77867 132.874065 
L 7558.363636 86.21752 
L 7561.948603 44.449936 
L 7565.533569 20.102216 
L 7569.118535 20.756792 
L 7572.703501 44.857088 
L 7576.288468 84.382201 
L 7579.873434 136.75141 
L 7583.4584 174.553955 
L 7587.043367 196.512003 
L 7590.628333 193.793477 
L 7594.213299 171.597401 
L 7597.798265 133.484794 
L 7601.383232 87.050616 
L 7604.968198 47.06824 
L 7608.553164 18.711633 
L 7612.13813 21.132625 
L 7615.723097 43.444582 
L 7619.308063 84.520007 
L 7622.893029 132.304052 
L 7626.477996 169.965659 
L 7630.062962 197.479773 
L 7633.647928 200.16698 
L 7637.232894 174.290872 
L 7640.817861 135.260606 
L 7644.402827 86.464943 
L 7647.987793 46.266462 
L 7651.572759 18.821251 
L 7655.157726 15.163143 
L 7658.742692 35.304664 
L 7665.912624 122.629482 
L 7669.497591 172.161151 
L 7673.082557 191.287923 
L 7676.667523 199.230529 
L 7680.25249 178.130633 
L 7683.837456 139.075311 
L 7687.422422 93.978473 
L 7691.007388 52.048028 
L 7694.592355 21.693242 
L 7698.177321 19.760834 
L 7701.762287 37.180698 
L 7705.347253 73.401611 
L 7708.93222 119.168686 
L 7712.517186 166.8713 
L 7716.102152 191.789034 
L 7719.687119 198.601009 
L 7723.272085 180.654979 
L 7726.857051 144.787974 
L 7730.442017 98.281762 
L 7734.026984 56.586213 
L 7737.61195 24.975518 
L 7741.196916 19.09373 
L 7744.781882 36.447823 
L 7748.366849 72.787751 
L 7755.536781 167.535272 
L 7759.121748 195.904406 
L 7762.706714 205.127977 
L 7766.29168 185.813288 
L 7769.876646 151.790998 
L 7773.461613 101.341669 
L 7777.046579 60.228662 
L 7780.631545 28.016634 
L 7784.216511 24.233248 
L 7787.801478 39.883564 
L 7791.386444 71.096502 
L 7794.97141 119.666664 
L 7798.556376 163.228851 
L 7802.141343 191.178305 
L 7805.726309 204.723956 
L 7809.311275 187.88037 
L 7812.896242 156.250883 
L 7816.481208 110.349136 
L 7820.066174 58.217955 
L 7823.65114 28.921765 
L 7827.236107 18.699105 
L 7830.821073 32.692624 
L 7834.406039 68.45001 
L 7837.991005 115.927125 
L 7841.575972 160.804728 
L 7845.160938 191.074951 
L 7848.745904 202.525332 
L 7852.330871 188.672751 
L 7855.915837 154.080447 
L 7859.500803 110.652934 
L 7863.085769 63.520333 
L 7866.670736 30.810327 
L 7870.255702 19.77023 
L 7873.840668 33.857707 
L 7877.425634 61.506494 
L 7884.595567 158.530938 
L 7888.180533 187.695585 
L 7891.7655 205.8264 
L 7895.350466 191.359958 
L 7898.935432 159.79311 
L 7902.520398 111.8556 
L 7906.105365 65.875554 
L 7909.690331 32.968235 
L 7913.275297 19.209612 
L 7916.860263 25.41399 
L 7920.44523 59.58035 
L 7924.030196 98.779741 
L 7927.615162 146.63582 
L 7931.200128 184.632545 
L 7934.785095 200.332973 
L 7938.370061 191.676284 
L 7941.955027 160.031138 
L 7945.539994 115.801847 
L 7949.12496 69.549322 
L 7952.709926 29.231828 
L 7956.294892 11.727402 
L 7959.879859 18.094641 
L 7963.464825 51.155425 
L 7970.634757 143.400524 
L 7974.219724 180.354312 
L 7977.80469 200.561604 
L 7981.389656 193.304894 
L 7984.974623 163.567101 
L 7992.144555 78.942017 
L 7995.729521 39.730099 
L 7999.314488 18.398439 
L 8002.899454 27.678384 
L 8006.48442 53.272618 
L 8010.069386 99.089803 
L 8013.654353 147.002258 
L 8017.239319 184.266108 
L 8020.824285 204.802255 
L 8024.409252 196.696788 
L 8027.994218 172.65913 
L 8031.579184 128.182416 
L 8035.16415 77.642261 
L 8038.749117 40.854466 
L 8042.334083 17.665564 
L 8045.919049 22.698596 
L 8049.504015 47.678968 
L 8053.088982 88.676094 
L 8056.673948 135.592591 
L 8060.258914 180.335521 
L 8063.843881 202.13384 
L 8067.428847 199.694056 
L 8071.013813 174.829566 
L 8074.598779 133.506718 
L 8078.183746 79.546482 
L 8081.768712 40.588251 
L 8085.353678 20.315188 
L 8088.938644 22.89904 
L 8092.523611 46.39174 
L 8096.108577 88.647907 
L 8099.693543 135.529953 
L 8103.278509 174.986163 
L 8106.863476 203.468047 
L 8110.448442 197.21669 
L 8114.033408 176.714995 
L 8117.618375 134.850321 
L 8124.788307 44.321526 
L 8128.373273 20.872673 
L 8131.95824 23.343776 
L 8135.543206 44.785054 
L 8139.128172 87.896241 
L 8142.713138 132.955496 
L 8146.298105 175.01435 
L 8149.883071 198.657384 
L 8153.468037 199.293168 
L 8157.053004 177.209842 
L 8160.63797 137.17109 
L 8164.222936 90.906037 
L 8167.807902 47.231101 
L 8171.392869 23.697686 
L 8174.977835 18.774272 
L 8178.562801 40.610174 
L 8182.147767 75.775624 
L 8185.732734 123.14312 
L 8189.3177 166.673988 
L 8192.902666 198.218912 
L 8196.487633 199.095855 
L 8200.072599 178.666195 
L 8203.657565 138.990749 
L 8207.242531 93.016967 
L 8210.827498 49.21362 
L 8214.412464 22.642221 
L 8217.99743 17.292863 
L 8221.582396 37.13685 
L 8225.167363 78.162164 
L 8228.752329 120.678282 
L 8232.337295 167.19389 
L 8235.922261 193.624352 
L 8239.507228 198.569689 
L 8243.092194 183.821372 
L 8246.67716 146.08773 
L 8253.847093 54.064999 
L 8257.432059 20.38409 
L 8261.017025 18.65839 
L 8264.601992 36.516726 
L 8268.186958 73.338972 
L 8271.771924 120.490365 
L 8275.35689 165.853419 
L 8278.941857 191.613645 
L 8282.526823 200.276598 
L 8286.111789 182.214686 
L 8289.696756 148.781201 
L 8293.281722 100.220434 
L 8296.866688 57.983059 
L 8300.451654 28.43005 
L 8304.036621 20.365299 
L 8307.621587 37.481364 
L 8311.206553 68.866559 
L 8314.791519 111.285587 
L 8318.376486 158.452639 
L 8321.961452 192.431082 
L 8325.546418 202.374999 
L 8329.131385 189.468265 
L 8332.716351 149.899304 
L 8336.301317 102.249933 
L 8339.886283 56.843032 
L 8343.47125 27.524919 
L 8347.056216 17.393085 
L 8350.641182 32.473388 
L 8357.811115 104.125966 
L 8361.396081 152.082268 
L 8364.981047 187.62355 
L 8368.566013 199.177286 
L 8372.15098 187.723773 
L 8375.735946 157.462945 
L 8379.320912 111.808621 
L 8382.905879 61.919911 
L 8386.490845 28.915502 
L 8390.075811 18.508057 
L 8393.660777 28.965613 
L 8397.245744 59.574086 
L 8404.415676 155.633891 
L 8408.000642 185.221351 
L 8411.585609 196.959871 
L 8415.170575 187.134967 
L 8418.755541 155.868787 
L 8425.925474 68.982441 
L 8429.51044 39.501467 
L 8433.095406 15.73942 
L 8436.680373 24.104838 
L 8440.265339 56.51731 
L 8443.850305 99.897844 
L 8447.435271 148.799993 
L 8451.020238 186.232968 
L 8454.605204 199.214869 
L 8458.19017 189.192654 
L 8461.775137 160.789068 
L 8465.360103 112.056044 
L 8468.945069 69.358274 
L 8472.530035 28.824675 
L 8476.115002 17.145662 
L 8479.699968 26.065434 
L 8483.284934 50.735744 
L 8490.454867 140.090061 
L 8494.039833 176.072947 
L 8497.624799 193.42704 
L 8501.209765 188.31571 
L 8504.794732 164.2436 
L 8508.379698 118.163332 
L 8511.964664 69.937683 
L 8515.549631 35.780719 
L 8519.134597 16.644551 
L 8522.719563 18.874494 
L 8526.304529 49.933967 
L 8529.889496 89.828649 
L 8533.474462 138.727666 
L 8537.059428 172.129831 
L 8540.644394 186.001204 
L 8544.229361 190.949673 
L 8547.814327 166.4203 
L 8551.399293 118.153936 
L 8554.98426 76.31745 
L 8558.569226 32.510971 
L 8562.154192 17.176981 
L 8565.739158 17.380558 
L 8569.324125 44.731811 
L 8572.909091 82.593862 
L 8576.494057 127.368111 
L 8580.079023 170.526277 
L 8583.66399 190.317021 
L 8587.248956 187.55778 
L 8590.833922 165.001531 
L 8594.418889 121.285879 
L 8598.003855 73.019514 
L 8601.588821 34.518547 
L 8605.173787 17.402481 
L 8608.758754 16.281246 
L 8612.34372 38.918926 
L 8615.928686 79.696816 
L 8619.513652 126.322042 
L 8623.098619 165.966169 
L 8626.683585 189.086168 
L 8630.268551 192.478061 
L 8633.853518 168.196112 
L 8637.438484 129.2692 
L 8641.02345 76.117005 
L 8644.608416 38.301933 
L 8648.193383 13.055345 
L 8651.778349 14.906323 
L 8655.363315 39.012884 
L 8658.948281 79.399281 
L 8666.118214 167.143779 
L 8669.70318 186.524239 
L 8673.288146 194.018977 
L 8676.873113 173.263595 
L 8680.458079 133.456607 
L 8684.043045 83.552237 
L 8687.628012 43.986408 
L 8691.212978 16.312565 
L 8694.797944 13.25579 
L 8698.38291 29.469855 
L 8701.967877 71.481731 
L 8705.552843 123.556537 
L 8709.137809 163.545177 
L 8712.722775 186.580614 
L 8716.307742 196.8941 
L 8719.892708 170.291381 
L 8723.477674 133.296878 
L 8727.062641 85.387555 
L 8730.647607 48.627947 
L 8734.232573 19.691931 
L 8737.817539 13.265185 
L 8741.402506 30.259105 
L 8744.987472 63.592368 
L 8748.572438 111.185364 
L 8752.157404 156.194509 
L 8755.742371 183.821372 
L 8759.327337 192.794387 
L 8762.912303 179.038896 
L 8766.49727 145.15128 
L 8770.082236 97.035249 
L 8773.667202 52.84041 
L 8777.252168 21.940666 
L 8780.837135 18.761744 
L 8784.422101 32.520367 
L 8788.007067 69.677732 
L 8791.592033 115.867618 
L 8795.177 154.249572 
L 8798.761966 188.384612 
L 8802.346932 195.227907 
L 8805.931898 178.935542 
L 8809.516865 147.641174 
L 8813.101831 100.583739 
L 8816.686797 58.46851 
L 8820.271764 25.551795 
L 8823.85673 15.889753 
L 8827.441696 33.049666 
L 8831.026662 67.688948 
L 8834.611629 108.545137 
L 8838.196595 155.846863 
L 8841.781561 186.126482 
L 8845.366527 194.18497 
L 8848.951494 183.241963 
L 8852.53646 152.314032 
L 8859.706393 59.827773 
L 8863.291359 26.741934 
L 8866.876325 19.842264 
L 8870.461291 33.650998 
L 8874.046258 65.653186 
L 8877.631224 108.473102 
L 8881.21619 152.884045 
L 8884.801156 182.988276 
L 8888.386123 201.864493 
L 8891.971089 188.813689 
L 8895.556055 157.657126 
L 8899.141022 111.814885 
L 8902.725988 67.873733 
L 8906.310954 34.305574 
L 8909.89592 19.576049 
L 8913.480887 31.045222 
L 8917.065853 65.505985 
L 8920.650819 107.981387 
L 8924.235785 152.054081 
L 8927.820752 185.014642 
L 8931.405718 198.757606 
L 8934.990684 191.23468 
L 8938.57565 164.393934 
L 8942.160617 110.524525 
L 8945.745583 70.300988 
L 8949.330549 34.662616 
L 8952.915516 19.707591 
L 8956.500482 28.022898 
L 8960.085448 63.545389 
L 8963.670414 100.997156 
L 8967.255381 150.804436 
L 8970.840347 181.76995 
L 8974.425313 196.324086 
L 8978.010279 191.892388 
L 8981.595246 162.329984 
L 8988.765178 73.630243 
L 8992.350145 37.268392 
L 8995.935111 22.385402 
L 8999.520077 28.458238 
L 9003.105043 59.514579 
L 9006.69001 101.974322 
L 9010.274976 146.081467 
L 9013.859942 184.266108 
L 9017.444908 202.509673 
L 9021.029875 196.602829 
L 9024.614841 168.355841 
L 9031.784774 78.180955 
L 9035.36974 43.695138 
L 9038.954706 23.346908 
L 9042.539672 29.717279 
L 9046.124639 54.603693 
L 9049.709605 97.630318 
L 9053.294571 145.483266 
L 9056.879537 185.437455 
L 9060.464504 200.032306 
L 9064.04947 193.806005 
L 9067.634436 173.31997 
L 9074.804369 82.546883 
L 9078.389335 42.407909 
L 9081.974301 19.469563 
L 9085.559268 28.116856 
L 9089.144234 53.541965 
L 9092.7292 95.403507 
L 9096.314166 142.76474 
L 9099.899133 179.455445 
L 9103.484099 199.919556 
L 9107.069065 199.218001 
L 9110.654031 174.218837 
L 9114.238998 133.979641 
L 9117.823964 86.233179 
L 9121.40893 46.877191 
L 9124.993897 25.169698 
L 9128.578863 27.324475 
L 9132.163829 47.819906 
L 9135.748795 85.353104 
L 9139.333762 132.933572 
L 9142.918728 171.935651 
L 9146.503694 201.156674 
L 9150.08866 198.228307 
L 9153.673627 173.081942 
L 9157.258593 135.498633 
L 9160.843559 87.307436 
L 9164.428526 49.526814 
L 9168.013492 23.716477 
L 9171.598458 21.771541 
L 9175.183424 42.918416 
L 9178.768391 83.495862 
L 9182.353357 127.671909 
L 9185.938323 169.674389 
L 9189.523289 196.634149 
L 9193.108256 198.306606 
L 9196.693222 175.565572 
L 9200.278188 138.242215 
L 9203.863155 91.65144 
L 9207.448121 50.63239 
L 9211.033087 26.688691 
L 9214.618053 21.950062 
L 9218.20302 40.469237 
L 9221.787986 76.326846 
L 9225.372952 123.027239 
L 9228.957918 165.756329 
L 9232.542885 194.175574 
L 9236.127851 194.673553 
L 9239.712817 177.175391 
L 9243.297783 145.220182 
L 9246.88275 93.001307 
L 9250.467716 51.39032 
L 9254.052682 27.841245 
L 9257.637649 20.287 
L 9261.222615 40.303244 
L 9264.807581 74.707631 
L 9268.392547 119.798206 
L 9271.977514 161.525074 
L 9275.56248 193.899963 
L 9279.147446 204.573623 
L 9282.732412 180.050514 
L 9286.317379 149.451437 
L 9293.487311 53.000139 
L 9297.072278 28.019766 
L 9300.657244 24.471275 
L 9304.24221 35.5239 
L 9311.412143 115.382167 
L 9314.997109 162.561747 
L 9318.582075 189.136279 
L 9322.167041 198.82964 
L 9325.752008 183.025859 
L 9329.336974 146.57005 
L 9332.92194 104.354598 
L 9336.506907 59.949919 
L 9340.091873 27.020676 
L 9343.676839 17.725071 
L 9347.261805 30.644334 
L 9350.846772 65.333728 
L 9354.431738 113.302557 
L 9358.016704 155.652683 
L 9361.60167 188.757314 
L 9365.186637 198.967446 
L 9368.771603 185.744385 
L 9372.356569 153.529226 
L 9375.941535 108.231943 
L 9379.526502 64.582062 
L 9383.111468 30.152619 
L 9386.696434 18.047661 
L 9390.281401 31.28325 
L 9393.866367 60.895765 
L 9397.451333 107.658797 
L 9401.036299 152.755636 
L 9404.621266 183.226303 
L 9408.206232 199.443501 
L 9411.791198 183.705491 
L 9415.376164 160.043666 
L 9418.961131 111.11333 
L 9422.546097 64.062159 
L 9426.131063 30.669389 
L 9429.71603 17.793974 
L 9433.300996 31.850132 
L 9436.885962 59.824641 
L 9444.055895 151.994574 
L 9447.640861 181.563242 
L 9451.225827 197.401475 
L 9454.810793 191.842277 
L 9458.39576 158.540333 
L 9465.565692 72.06114 
L 9469.150659 31.179896 
L 9472.735625 18.65839 
L 9476.320591 26.416212 
L 9479.905557 54.34061 
L 9483.490524 96.011103 
L 9487.07549 146.153501 
L 9490.660456 176.699335 
L 9494.245422 201.551298 
L 9497.830389 189.374306 
L 9501.415355 156.141266 
L 9505.000321 117.270728 
L 9508.585288 70.98062 
L 9512.170254 40.63523 
L 9515.75522 19.751438 
L 9519.340186 25.338823 
L 9522.925153 49.113398 
L 9526.510119 96.227208 
L 9533.680051 185.772573 
L 9537.265018 202.587971 
L 9540.849984 197.185371 
L 9544.43495 172.734296 
L 9548.019916 124.78739 
L 9551.604883 80.984044 
L 9555.189849 43.178367 
L 9558.774815 23.205971 
L 9562.359782 24.142421 
L 9565.944748 49.586321 
L 9573.11468 141.107942 
L 9576.699647 178.17448 
L 9580.284613 194.513824 
L 9583.869579 194.473108 
L 9587.454545 166.849377 
L 9587.454545 166.849377 
" clip-path="url(#p7679d2e0bc)" style="fill: none; stroke: #1f77b4; stroke-width: 1.5; stroke-linecap: square"/>
   </g>
  </g>
 </g>
 <defs>
  <clipPath id="p7679d2e0bc">
   <rect x="0" y="-0" width="10044" height="221.76"/>
  </clipPath>
 </defs>
</svg>
