<?xml version="1.0" encoding="utf-8" standalone="no"?>
<!DOCTYPE svg PUBLIC "-//W3C//DTD SVG 1.1//EN"
  "http://www.w3.org/Graphics/SVG/1.1/DTD/svg11.dtd">
<svg xmlns:xlink="http://www.w3.org/1999/xlink" width="10044pt" height="221.76pt" viewBox="0 0 10044 221.76" xmlns="http://www.w3.org/2000/svg" version="1.1">
 <metadata>
  <rdf:RDF xmlns:dc="http://purl.org/dc/elements/1.1/" xmlns:cc="http://creativecommons.org/ns#" xmlns:rdf="http://www.w3.org/1999/02/22-rdf-syntax-ns#">
   <cc:Work>
    <dc:type rdf:resource="http://purl.org/dc/dcmitype/StillImage"/>
    <dc:date>2025-08-12T08:23:40.386793</dc:date>
    <dc:format>image/svg+xml</dc:format>
    <dc:creator>
     <cc:Agent>
      <dc:title>Matplotlib v3.9.2, https://matplotlib.org/</dc:title>
     </cc:Agent>
    </dc:creator>
   </cc:Work>
  </rdf:RDF>
 </metadata>
 <defs>
  <style type="text/css">*{stroke-linejoin: round; stroke-linecap: butt}</style>
 </defs>
 <g id="figure_1">
  <g id="patch_1">
   <path d="M 0 221.76 
L 10044 221.76 
L 10044 0 
L 0 0 
z
" style="fill: #ffffff"/>
  </g>
  <g id="axes_1">
   <g id="line2d_1">
    <path d="M 456.545455 28.173498 
L 460.130421 59.164841 
L 467.300353 151.21671 
L 470.88532 191.2842 
L 474.470286 211.126086 
L 478.055252 203.643603 
L 481.640218 173.351615 
L 485.225185 127.058007 
L 488.810151 77.94841 
L 492.395117 42.587644 
L 495.980084 25.125423 
L 499.56505 30.562446 
L 503.150016 57.478342 
L 506.734982 100.092599 
L 510.319949 147.781824 
L 513.904915 187.812179 
L 517.489881 208.065633 
L 521.074847 203.996375 
L 524.659814 176.22021 
L 528.24478 132.303172 
L 531.829746 84.678932 
L 535.414712 46.220578 
L 538.999679 23.971177 
L 542.584645 24.797407 
L 546.169611 52.576666 
L 553.339544 143.529991 
L 556.92451 182.536069 
L 560.509476 207.89853 
L 564.094443 199.664085 
L 567.679409 176.656533 
L 571.264375 136.796375 
L 574.849341 89.862207 
L 578.434308 44.509324 
L 582.019274 23.537948 
L 585.60424 24.617926 
L 589.189207 47.758541 
L 592.774173 91.282579 
L 596.359139 136.381713 
L 599.944105 183.068322 
L 603.529072 203.269169 
L 607.114038 204.599801 
L 610.699004 179.082616 
L 614.28397 137.071785 
L 617.868937 88.596559 
L 621.453903 50.367198 
L 625.038869 22.553899 
L 628.623836 22.133048 
L 632.208802 44.221536 
L 635.793768 87.275211 
L 639.378734 133.463607 
L 642.963701 174.42231 
L 646.548667 202.226325 
L 650.133633 205.896393 
L 653.718599 183.114739 
L 657.303566 144.009637 
L 660.888532 91.954084 
L 664.473498 49.689505 
L 668.058465 20.595086 
L 671.643431 21.857639 
L 675.228397 43.160125 
L 678.813363 84.214758 
L 682.39833 130.82091 
L 685.983296 171.699156 
L 689.568262 197.247287 
L 693.153228 204.992802 
L 696.738195 186.348484 
L 700.323161 144.439772 
L 703.908127 96.976445 
L 707.493093 55.012032 
L 711.07806 25.762888 
L 714.663026 19.830746 
L 718.247992 39.177513 
L 721.832959 77.598733 
L 725.417925 127.005401 
L 729.002891 167.577292 
L 732.587857 200.620284 
L 736.172824 207.251781 
L 739.75779 186.125681 
L 743.342756 147.902509 
L 746.927722 102.914776 
L 750.512689 61.464049 
L 754.097655 28.40249 
L 757.682621 21.461544 
L 761.267588 35.402232 
L 764.852554 73.306672 
L 768.43752 122.926859 
L 772.022486 165.015052 
L 775.607453 197.940453 
L 779.192419 207.004222 
L 782.777385 190.727191 
L 786.362351 152.055318 
L 793.532284 58.654249 
L 797.11725 30.803817 
L 800.702217 21.718386 
L 804.287183 36.831888 
L 807.872149 69.051744 
L 811.457115 120.39247 
L 815.042082 163.35331 
L 818.627048 197.53198 
L 822.212014 207.914003 
L 825.79698 194.876906 
L 829.381947 156.52067 
L 832.966913 110.372503 
L 836.551879 66.783481 
L 840.136845 31.32988 
L 843.721812 22.176371 
L 847.306778 35.29702 
L 850.891744 65.332164 
L 854.476711 114.834761 
L 858.061677 158.804406 
L 861.646643 196.486042 
L 865.231609 210.135848 
L 868.816576 196.597443 
L 872.401542 161.366646 
L 879.571474 66.511166 
L 883.156441 34.600759 
L 886.741407 19.713155 
L 890.326373 31.917834 
L 893.91134 66.282174 
L 897.496306 110.05377 
L 901.081272 158.71776 
L 904.666238 192.726233 
L 908.251205 209.5448 
L 911.836171 198.720265 
L 915.421137 164.492083 
L 919.006103 118.176813 
L 922.59107 73.365467 
L 926.176036 32.564583 
L 929.761002 19.050934 
L 933.345969 30.252997 
L 936.930935 59.700188 
L 940.515901 107.476058 
L 944.100867 150.517355 
L 947.685834 189.699819 
L 951.2708 205.636456 
L 954.855766 198.126123 
L 958.440732 164.253807 
L 962.025699 123.329143 
L 965.610665 72.006985 
L 969.195631 36.686447 
L 972.780597 17.834798 
L 976.365564 26.230157 
L 979.95053 55.064638 
L 983.535496 101.451081 
L 987.120463 145.863238 
L 990.705429 185.689357 
L 994.290395 206.843308 
L 997.875361 199.883794 
L 1001.460328 169.409232 
L 1008.63026 76.82511 
L 1012.215226 36.708108 
L 1015.800193 19.252076 
L 1019.385159 24.215642 
L 1022.970125 50.172245 
L 1026.555092 93.191881 
L 1030.140058 140.478821 
L 1033.725024 175.217594 
L 1037.30999 202.201569 
L 1040.894957 200.137543 
L 1044.479923 168.623231 
L 1048.064889 127.030157 
L 1051.649855 80.588013 
L 1055.234822 39.452923 
L 1058.819788 17.797664 
L 1062.404754 20.93548 
L 1065.989721 47.863754 
L 1069.574687 89.144284 
L 1073.159653 136.223894 
L 1076.744619 178.559646 
L 1080.329586 201.901404 
L 1083.914552 200.994717 
L 1087.499518 169.338059 
L 1091.084484 130.198917 
L 1094.669451 80.464233 
L 1098.254417 40.412216 
L 1101.839383 18.592949 
L 1105.42435 18.425846 
L 1109.009316 43.283905 
L 1112.594282 82.973866 
L 1116.179248 133.952536 
L 1119.764215 171.256644 
L 1123.349181 198.17254 
L 1126.934147 199.961157 
L 1130.519113 174.886484 
L 1134.10408 133.407906 
L 1137.689046 85.994091 
L 1141.274012 44.097756 
L 1144.858978 17.785286 
L 1148.443945 17.389191 
L 1152.028911 40.836161 
L 1155.613877 80.213579 
L 1159.198844 127.698567 
L 1162.78381 169.888878 
L 1166.368776 192.543658 
L 1169.953742 199.611479 
L 1173.538709 175.836493 
L 1177.123675 135.536917 
L 1180.708641 88.150952 
L 1184.293607 45.722365 
L 1187.878574 16.69912 
L 1191.46354 13.685084 
L 1195.048506 34.56053 
L 1198.633473 73.353089 
L 1202.218439 123.149663 
L 1205.803405 163.851523 
L 1209.388371 197.207058 
L 1212.973338 200.477937 
L 1216.558304 175.864343 
L 1220.14327 139.519528 
L 1223.728236 91.743658 
L 1227.313203 48.321739 
L 1230.898169 19.360383 
L 1234.483135 12.487515 
L 1238.068102 33.669317 
L 1241.653068 71.873922 
L 1245.238034 120.231556 
L 1248.823 165.070753 
L 1252.407967 196.76764 
L 1255.992933 203.23513 
L 1259.577899 182.95692 
L 1263.162865 144.801827 
L 1266.747832 94.386355 
L 1270.332798 53.826841 
L 1273.917764 24.085673 
L 1277.50273 16.952868 
L 1281.087697 34.022089 
L 1284.672663 71.131243 
L 1288.257629 120.262501 
L 1291.842596 161.756552 
L 1295.427562 196.040435 
L 1299.012528 204.188234 
L 1302.597494 186.280405 
L 1306.182461 147.494036 
L 1309.767427 103.180903 
L 1313.352393 55.414316 
L 1316.937359 24.781934 
L 1320.522326 15.835756 
L 1324.107292 31.750731 
L 1327.692258 66.650418 
L 1331.277225 114.664564 
L 1334.862191 156.67849 
L 1338.447157 192.460107 
L 1342.032123 206.871159 
L 1345.61709 189.068543 
L 1349.202056 154.623747 
L 1356.371988 62.531649 
L 1359.956955 28.439624 
L 1363.541921 17.432514 
L 1367.126887 29.708366 
L 1370.711854 63.791107 
L 1377.881786 156.514481 
L 1381.466752 191.893815 
L 1385.051719 208.0842 
L 1388.636685 196.287994 
L 1392.221651 157.968893 
L 1399.391584 65.861323 
L 1402.97655 30.53769 
L 1406.561516 17.649129 
L 1410.146482 28.25086 
L 1413.731449 58.279816 
L 1417.316415 105.588418 
L 1420.901381 154.889873 
L 1424.486348 189.81741 
L 1428.071314 205.268211 
L 1431.65628 193.707187 
L 1435.241246 160.565172 
L 1442.411179 69.277642 
L 1445.996145 32.935922 
L 1449.581111 16.906451 
L 1453.166078 26.821205 
L 1456.751044 56.840877 
L 1463.920977 151.263128 
L 1467.505943 185.618184 
L 1471.090909 202.687405 
L 1474.675875 195.495804 
L 1478.260842 165.296651 
L 1485.430774 75.698714 
L 1489.01574 35.618847 
L 1492.600707 17.930728 
L 1496.185673 24.952131 
L 1499.770639 53.959904 
L 1503.355606 96.42872 
L 1506.940572 144.096283 
L 1510.525538 182.260659 
L 1514.110504 204.952573 
L 1517.695471 197.983776 
L 1521.280437 164.851044 
L 1524.865403 125.275579 
L 1528.450369 74.303098 
L 1532.035336 36.983518 
L 1535.620302 18.305161 
L 1539.205268 20.192802 
L 1542.790235 48.241282 
L 1549.960167 136.093925 
L 1553.545133 178.182118 
L 1557.1301 202.312971 
L 1560.715066 198.014721 
L 1564.300032 169.857933 
L 1567.884998 126.417447 
L 1571.469965 78.310466 
L 1575.054931 39.585986 
L 1578.639897 18.011184 
L 1582.224863 20.38466 
L 1585.80983 46.025625 
L 1589.394796 87.24736 
L 1592.979762 135.657602 
L 1596.564729 176.232588 
L 1600.149695 202.04375 
L 1603.734661 200.351063 
L 1607.319627 174.42231 
L 1610.904594 131.910171 
L 1614.48956 84.307593 
L 1618.074526 43.451008 
L 1621.659492 18.729107 
L 1625.244459 20.359904 
L 1628.829425 46.471232 
L 1632.414391 85.826988 
L 1635.999358 132.702361 
L 1639.584324 174.267585 
L 1643.16929 199.568156 
L 1646.754256 199.917834 
L 1650.339223 176.022162 
L 1653.924189 136.118681 
L 1657.509155 85.913634 
L 1661.094121 45.267475 
L 1664.679088 20.359904 
L 1668.264054 17.806948 
L 1671.84902 41.232256 
L 1675.433987 80.733454 
L 1679.018953 129.873995 
L 1682.603919 171.575377 
L 1686.188885 199.057565 
L 1689.773852 200.901882 
L 1693.358818 177.000022 
L 1696.943784 135.75972 
L 1700.52875 90.694625 
L 1704.113717 47.254139 
L 1707.698683 20.056644 
L 1711.283649 17.454176 
L 1714.868615 38.434835 
L 1718.453582 78.65086 
L 1722.038548 125.996596 
L 1725.623514 163.805106 
L 1729.208481 197.426767 
L 1732.793447 201.059702 
L 1736.378413 180.178066 
L 1739.963379 142.579982 
L 1747.133312 49.389339 
L 1750.718278 22.690057 
L 1754.303244 16.934301 
L 1757.888211 35.575524 
L 1761.473177 74.405216 
L 1765.058143 121.494109 
L 1768.64311 166.686078 
L 1772.228076 194.248724 
L 1775.813042 202.752389 
L 1779.398008 185.070459 
L 1782.982975 144.430488 
L 1786.567941 100.120449 
L 1790.152907 53.40599 
L 1793.737873 22.915955 
L 1797.32284 16.312308 
L 1800.907806 31.840472 
L 1804.492772 66.947489 
L 1808.077739 113.955926 
L 1811.662705 157.315955 
L 1815.247671 188.941669 
L 1818.832637 200.558394 
L 1822.417604 184.02452 
L 1826.00257 144.325275 
L 1833.172502 56.314813 
L 1836.757469 26.394165 
L 1840.342435 15.885268 
L 1843.927401 30.370588 
L 1847.512367 64.406911 
L 1851.097334 110.143511 
L 1854.6823 154.131722 
L 1858.267266 189.303724 
L 1861.852233 203.037082 
L 1865.437199 186.589854 
L 1869.022165 153.562336 
L 1872.607131 108.760273 
L 1876.192098 61.256718 
L 1879.777064 27.399875 
L 1883.36203 14.037856 
L 1886.946996 29.225625 
L 1890.531963 59.997259 
L 1894.116929 107.794791 
L 1897.701895 152.002711 
L 1901.286862 184.776482 
L 1904.871828 198.93688 
L 1908.456794 190.111387 
L 1912.04176 154.462833 
L 1919.211693 65.038188 
L 1922.796659 27.461765 
L 1926.381625 16.123544 
L 1929.966592 23.219215 
L 1933.551558 57.465964 
L 1937.136524 101.624373 
L 1940.721491 148.208864 
L 1944.306457 183.124023 
L 1947.891423 200.511976 
L 1951.476389 189.628646 
L 1955.061356 155.583039 
L 1958.646322 113.145169 
L 1962.231288 68.875358 
L 1965.816254 32.920449 
L 1969.401221 16.104977 
L 1972.986187 23.042829 
L 1976.571153 54.71496 
L 1980.156119 98.669132 
L 1983.741086 145.405253 
L 1987.326052 183.130212 
L 1990.911018 200.580055 
L 1994.495985 193.44725 
L 1998.080951 163.563735 
L 2001.665917 119.758099 
L 2005.250883 74.460917 
L 2008.83585 34.736917 
L 2012.420816 17.376813 
L 2016.005782 23.194459 
L 2019.590748 51.419326 
L 2023.175715 94.794828 
L 2026.760681 143.814684 
L 2030.345647 177.872669 
L 2033.930614 199.592912 
L 2037.51558 194.876906 
L 2041.100546 166.661323 
L 2044.685512 126.408164 
L 2048.270479 77.34189 
L 2051.855445 37.679779 
L 2055.440411 16.02452 
L 2059.025377 19.456312 
L 2062.610344 47.752352 
L 2066.19531 90.252113 
L 2069.780276 136.329107 
L 2073.365243 179.611774 
L 2076.950209 199.886889 
L 2080.535175 197.024483 
L 2084.120141 166.240472 
L 2087.705108 126.148226 
L 2091.290074 80.058854 
L 2094.87504 41.662391 
L 2098.460006 19.672927 
L 2102.044973 19.982376 
L 2105.629939 45.90494 
L 2109.214905 85.743437 
L 2112.799872 132.727117 
L 2116.384838 172.763662 
L 2119.969804 197.501035 
L 2123.55477 197.661949 
L 2127.139737 172.383039 
L 2130.724703 132.3434 
L 2134.309669 83.032662 
L 2137.894635 42.829015 
L 2141.479602 19.741006 
L 2145.064568 19.388234 
L 2148.649534 42.197738 
L 2152.2345 83.292599 
L 2155.819467 127.546937 
L 2159.404433 169.183334 
L 2162.989399 195.062575 
L 2166.574366 197.241098 
L 2170.159332 174.406837 
L 2173.744298 133.380055 
L 2177.329264 85.907445 
L 2180.914231 42.980645 
L 2184.499197 17.776003 
L 2188.084163 15.968819 
L 2191.669129 36.875211 
L 2195.254096 75.615163 
L 2198.839062 123.131096 
L 2202.424028 166.333306 
L 2206.008995 194.415826 
L 2209.593961 196.102325 
L 2213.178927 172.902914 
L 2216.763893 136.808753 
L 2220.34886 88.482063 
L 2223.933826 45.722365 
L 2227.518792 19.205659 
L 2231.103758 13.830525 
L 2234.688725 32.375819 
L 2238.273691 72.075064 
L 2245.443624 162.548742 
L 2249.02859 190.866443 
L 2252.613556 197.0152 
L 2256.198522 178.429678 
L 2259.783489 141.790886 
L 2263.368455 93.807685 
L 2266.953421 49.896836 
L 2270.538387 19.595565 
L 2274.123354 13.972872 
L 2277.70832 32.629567 
L 2281.293286 70.298825 
L 2284.878252 118.811184 
L 2288.463219 160.463054 
L 2292.048185 193.407022 
L 2295.633151 200.286078 
L 2299.218118 182.22662 
L 2302.803084 145.628057 
L 2306.38805 98.62581 
L 2309.973016 55.157473 
L 2313.557983 21.51415 
L 2317.142949 14.641282 
L 2320.727915 29.145169 
L 2324.312881 65.344542 
L 2327.897848 113.661949 
L 2331.482814 157.86368 
L 2335.06778 190.015458 
L 2338.652747 198.649092 
L 2342.237713 183.705787 
L 2345.822679 147.348595 
L 2349.407645 98.669132 
L 2352.992612 58.091052 
L 2356.577578 26.685047 
L 2360.162544 13.298272 
L 2363.74751 27.659812 
L 2367.332477 61.922034 
L 2370.917443 109.376077 
L 2374.502409 151.993428 
L 2378.087376 188.59818 
L 2381.672342 203.272264 
L 2385.257308 189.442977 
L 2388.842274 152.485452 
L 2396.012207 63.299083 
L 2399.597173 27.678379 
L 2403.182139 15.198291 
L 2406.767106 28.043529 
L 2410.352072 61.033914 
L 2413.937038 105.235646 
L 2417.522004 153.054839 
L 2421.106971 188.242314 
L 2424.691937 201.919971 
L 2428.276903 194.966646 
L 2431.86187 159.451155 
L 2435.446836 116.394386 
L 2439.031802 67.714924 
L 2442.616768 33.041135 
L 2446.201735 17.271601 
L 2449.786701 26.861433 
L 2453.371667 57.908477 
L 2460.5416 149.960346 
L 2464.126566 187.143769 
L 2467.711532 203.488878 
L 2471.296499 194.688141 
L 2474.881465 162.728223 
L 2478.466431 119.603374 
L 2482.051397 73.114813 
L 2485.636364 37.757141 
L 2489.22133 19.586281 
L 2492.806296 25.134706 
L 2496.391262 55.593796 
L 2499.976229 99.653181 
L 2503.561195 145.256718 
L 2507.146161 183.148779 
L 2510.731128 204.163478 
L 2514.316094 197.473185 
L 2517.90106 167.230709 
L 2521.486026 122.985655 
L 2525.070993 75.825589 
L 2528.655959 37.382708 
L 2532.240925 21.074732 
L 2535.825891 23.027357 
L 2539.410858 53.019178 
L 2542.995824 95.605585 
L 2546.58079 145.09271 
L 2550.165757 180.64224 
L 2553.750723 204.621463 
L 2557.335689 199.803338 
L 2560.920655 171.074069 
L 2568.090588 83.537064 
L 2571.675554 43.317944 
L 2575.26052 21.913339 
L 2578.845487 24.571509 
L 2582.430453 52.019657 
L 2586.015419 93.495141 
L 2589.600385 140.218884 
L 2593.185352 181.326123 
L 2596.770318 202.130396 
L 2600.355284 198.769777 
L 2603.940251 172.150952 
L 2607.525217 133.302693 
L 2611.110183 85.093594 
L 2614.695149 46.991107 
L 2618.280116 24.156847 
L 2621.865082 23.485342 
L 2625.450048 46.814721 
L 2629.035014 89.261875 
L 2636.204947 179.079521 
L 2639.789913 203.467217 
L 2643.37488 204.794754 
L 2646.959846 178.151173 
L 2650.544812 137.452407 
L 2654.129778 90.094294 
L 2657.714745 50.280553 
L 2661.299711 25.577219 
L 2664.884677 23.129475 
L 2668.469643 49.34911 
L 2672.05461 86.57895 
L 2679.224542 175.202122 
L 2682.809509 199.484605 
L 2686.394475 201.74049 
L 2689.979441 180.849571 
L 2693.564407 141.957989 
L 2697.149374 90.809121 
L 2700.73434 51.128444 
L 2704.319306 25.614353 
L 2707.904272 20.229936 
L 2711.489239 36.098493 
L 2715.074205 79.548263 
L 2718.659171 128.419584 
L 2722.244137 169.656791 
L 2725.829104 195.347268 
L 2729.41407 203.287736 
L 2732.999036 181.329217 
L 2736.584003 146.404774 
L 2740.168969 98.638188 
L 2743.753935 53.297683 
L 2747.338901 27.826915 
L 2750.923868 21.068543 
L 2754.508834 39.969703 
L 2758.0938 77.657528 
L 2761.678766 125.789265 
L 2765.263733 165.107887 
L 2768.848699 198.345832 
L 2772.433665 205.868543 
L 2776.018632 187.549147 
L 2779.603598 149.666369 
L 2783.188564 101.711019 
L 2786.77353 57.880626 
L 2790.358497 27.146126 
L 2793.943463 21.805032 
L 2797.528429 38.86497 
L 2801.113395 75.265485 
L 2804.698362 120.463643 
L 2808.283328 161.276906 
L 2811.868294 193.762888 
L 2815.453261 201.947821 
L 2819.038227 188.127817 
L 2822.623193 152.067696 
L 2826.208159 104.307298 
L 2829.793126 61.077237 
L 2833.378092 27.625773 
L 2836.963058 18.46298 
L 2840.548024 33.183481 
L 2844.132991 68.844413 
L 2847.717957 115.534117 
L 2851.302923 160.744653 
L 2854.887889 194.861433 
L 2858.472856 204.247029 
L 2862.057822 191.002601 
L 2865.642788 155.248834 
L 2869.227755 111.941411 
L 2872.812721 65.548779 
L 2876.397687 34.820468 
L 2879.982653 21.111866 
L 2883.56762 31.954968 
L 2887.152586 68.321444 
L 2894.322518 159.652297 
L 2897.907485 192.729328 
L 2901.492451 206.611221 
L 2905.077417 196.123986 
L 2908.662384 159.75751 
L 2915.832316 70.425699 
L 2919.417282 36.955668 
L 2923.002249 24.091862 
L 2926.587215 31.444376 
L 2930.172181 64.116029 
L 2937.342114 151.779908 
L 2940.92708 191.021168 
L 2944.512046 207.582892 
L 2948.097013 197.411295 
L 2951.681979 165.732975 
L 2955.266945 121.2744 
L 2958.851911 74.686815 
L 2962.436878 36.030414 
L 2966.021844 19.450123 
L 2969.60681 31.004959 
L 2973.191776 59.817779 
L 2976.776743 106.102104 
L 2980.361709 150.099598 
L 2983.946675 189.278969 
L 2987.531642 205.989228 
L 2991.116608 199.339164 
L 2994.701574 167.391623 
L 3001.871507 78.248576 
L 3005.456473 41.45506 
L 3009.041439 21.950473 
L 3012.626405 29.816673 
L 3016.211372 58.301477 
L 3019.796338 100.829088 
L 3023.381304 150.241945 
L 3026.96627 188.762188 
L 3030.551237 206.660733 
L 3034.136203 201.461986 
L 3037.721169 174.029309 
L 3041.306136 128.973498 
L 3044.891102 79.322365 
L 3048.476068 40.712382 
L 3052.061034 20.332054 
L 3055.646001 24.738611 
L 3059.230967 53.170809 
L 3062.815933 95.741742 
L 3066.400899 143.04725 
L 3069.985866 183.619142 
L 3073.570832 203.909729 
L 3077.155798 204.804038 
L 3080.740765 176.665817 
L 3084.325731 132.074179 
L 3087.910697 85.851744 
L 3091.495663 47.331501 
L 3095.08063 21.102582 
L 3098.665596 26.050676 
L 3102.250562 49.34911 
L 3105.835528 91.709619 
L 3109.420495 140.692341 
L 3113.005461 180.397775 
L 3116.590427 206.546237 
L 3120.175394 204.420321 
L 3123.76036 180.419436 
L 3127.345326 139.021315 
L 3130.930292 90.320192 
L 3134.515259 49.138685 
L 3138.100225 26.124944 
L 3141.685191 27.925938 
L 3145.270157 48.816858 
L 3148.855124 91.709619 
L 3152.44009 137.616416 
L 3156.025056 180.02953 
L 3159.610022 206.676206 
L 3163.194989 207.425073 
L 3166.779955 183.532496 
L 3170.364921 140.949184 
L 3173.949888 94.315181 
L 3177.534854 50.862317 
L 3181.11982 27.508182 
L 3184.704786 26.422015 
L 3188.289753 46.102988 
L 3191.874719 86.025036 
L 3199.044651 174.806027 
L 3202.629618 204.061359 
L 3206.214584 207.248687 
L 3209.79955 185.330396 
L 3213.384517 144.251008 
L 3216.969483 97.564399 
L 3220.554449 52.73758 
L 3224.139415 25.196596 
L 3227.724382 21.096393 
L 3231.309348 42.114187 
L 3234.894314 80.439477 
L 3238.47928 129.026104 
L 3242.064247 169.953863 
L 3245.649213 202.309877 
L 3249.234179 206.821647 
L 3252.819146 190.392986 
L 3256.404112 151.405474 
L 3259.989078 99.795528 
L 3263.574044 57.342185 
L 3267.159011 27.409158 
L 3270.743977 23.342995 
L 3274.328943 43.06729 
L 3277.913909 80.804627 
L 3285.083842 171.265927 
L 3288.668808 202.204664 
L 3292.253774 209.798549 
L 3295.838741 191.045924 
L 3299.423707 152.225515 
L 3306.59364 60.835867 
L 3310.178606 28.275616 
L 3313.763572 20.950952 
L 3317.348538 36.986613 
L 3320.933505 74.816784 
L 3328.103437 160.661101 
L 3331.688403 195.919749 
L 3335.27337 206.577182 
L 3338.858336 192.333233 
L 3342.443302 153.311682 
L 3349.613235 63.64876 
L 3353.198201 28.198254 
L 3356.783167 19.917392 
L 3360.368134 35.355815 
L 3363.9531 71.555189 
L 3367.538066 118.204664 
L 3371.123032 159.243824 
L 3374.707999 196.684089 
L 3378.292965 209.442682 
L 3381.877931 192.586981 
L 3385.462898 157.640877 
L 3392.63283 64.99177 
L 3396.217796 31.113266 
L 3399.802763 17.048797 
L 3403.387729 28.609821 
L 3406.972695 63.13198 
L 3414.142628 157.647066 
L 3417.727594 195.115181 
L 3421.31256 206.942332 
L 3424.897527 193.926896 
L 3428.482493 159.237635 
L 3432.067459 114.732643 
L 3435.652425 67.439514 
L 3439.237392 33.034946 
L 3442.822358 19.617226 
L 3446.407324 27.421536 
L 3449.99229 60.937985 
L 3453.577257 105.241835 
L 3457.162223 152.234798 
L 3460.747189 190.751947 
L 3464.332155 206.639072 
L 3467.917122 199.506266 
L 3471.502088 164.752021 
L 3478.672021 73.340711 
L 3482.256987 32.73478 
L 3485.841953 18.280405 
L 3489.426919 28.501514 
L 3493.011886 57.747563 
L 3500.181818 151.417852 
L 3503.766784 186.141153 
L 3507.351751 206.444119 
L 3510.936717 198.819289 
L 3514.521683 165.726786 
L 3518.10665 124.251302 
L 3521.691616 73.483058 
L 3525.276582 37.902582 
L 3528.861548 20.768377 
L 3532.446515 22.522955 
L 3536.031481 55.089394 
L 3539.616447 98.062612 
L 3543.201413 144.69352 
L 3546.78638 186.453697 
L 3550.371346 204.491494 
L 3553.956312 198.596486 
L 3557.541279 167.961009 
L 3561.126245 127.061101 
L 3564.711211 77.518276 
L 3568.296177 39.316766 
L 3571.881144 18.193759 
L 3575.46611 24.429162 
L 3579.051076 49.28722 
L 3582.636042 93.640582 
L 3586.221009 141.286484 
L 3589.805975 182.486557 
L 3593.390941 204.528628 
L 3596.975907 201.338206 
L 3600.560874 170.783187 
L 3604.14584 128.645482 
L 3607.730806 79.59468 
L 3611.315773 40.251302 
L 3614.900739 18.695067 
L 3618.485705 17.067364 
L 3622.070671 46.551689 
L 3625.655638 87.816747 
L 3629.240604 134.639514 
L 3632.82557 174.72557 
L 3636.410536 199.846661 
L 3639.995503 199.45366 
L 3643.580469 173.886963 
L 3647.165435 132.600243 
L 3650.750402 83.394717 
L 3654.335368 39.762372 
L 3657.920334 16.742442 
L 3661.5053 16.374198 
L 3665.090267 39.124907 
L 3668.675233 83.236898 
L 3672.260199 132.451707 
L 3675.845165 171.86007 
L 3679.430132 198.20039 
L 3683.015098 199.877605 
L 3686.600064 174.920523 
L 3690.185031 133.878269 
L 3693.769997 87.284494 
L 3697.354963 47.696651 
L 3700.939929 19.889541 
L 3704.524896 14.820763 
L 3708.109862 38.976371 
L 3711.694828 79.186207 
L 3715.279794 125.897572 
L 3718.864761 168.087884 
L 3722.449727 197.559831 
L 3726.034693 201.52697 
L 3729.619659 179.1476 
L 3733.204626 138.50144 
L 3736.789592 88.763662 
L 3740.374558 45.75331 
L 3743.959525 19.607943 
L 3747.544491 16.723875 
L 3751.129457 35.878784 
L 3754.714423 74.804406 
L 3758.29939 122.670017 
L 3761.884356 163.653476 
L 3765.469322 195.966167 
L 3769.054288 202.492452 
L 3772.639255 181.013579 
L 3776.224221 141.694957 
L 3779.809187 94.528701 
L 3783.394154 50.494073 
L 3786.97912 19.341816 
L 3790.564086 15.517023 
L 3794.149052 33.183481 
L 3797.734019 72.79608 
L 3801.318985 121.119676 
L 3804.903951 164.151689 
L 3808.488917 194.217779 
L 3812.073884 200.388197 
L 3815.65885 183.015716 
L 3819.243816 144.495472 
L 3822.828783 97.15902 
L 3826.413749 52.264122 
L 3829.998715 21.294441 
L 3833.583681 12.654618 
L 3837.168648 29.646476 
L 3840.753614 65.616858 
L 3844.33858 113.083279 
L 3847.923546 157.07149 
L 3851.508513 192.258965 
L 3855.093479 199.159683 
L 3858.678445 184.60319 
L 3862.263412 147.859186 
L 3865.848378 99.288031 
L 3869.433344 53.303872 
L 3873.01831 22.553899 
L 3876.603277 13.849092 
L 3880.188243 25.611258 
L 3883.773209 63.150547 
L 3890.943142 156.452592 
L 3894.528108 188.737432 
L 3898.113074 200.58315 
L 3901.69804 188.093778 
L 3905.283007 152.918681 
L 3908.867973 106.513671 
L 3912.452939 56.540711 
L 3916.037906 26.923323 
L 3919.622872 14.406101 
L 3923.207838 25.329659 
L 3926.792804 58.907998 
L 3930.377771 106.70553 
L 3933.962737 150.220284 
L 3937.547703 188.462022 
L 3941.132669 202.325349 
L 3944.717636 189.616268 
L 3948.302602 155.833693 
L 3955.472535 63.036051 
L 3959.057501 26.774787 
L 3962.642467 13.446808 
L 3966.227433 24.890241 
L 3969.8124 57.521665 
L 3973.397366 102.360862 
L 3976.982332 148.679226 
L 3980.567298 187.641982 
L 3984.152265 202.254176 
L 3987.737231 195.594828 
L 3991.322197 160.986023 
L 3998.49213 67.114592 
L 4002.077096 32.279889 
L 4005.662062 17.915255 
L 4009.247029 26.397259 
L 4012.831995 57.435019 
L 4016.416961 103.979282 
L 4020.001927 144.8173 
L 4023.586894 187.032367 
L 4027.17186 203.522918 
L 4030.756826 196.885231 
L 4034.341792 167.586576 
L 4037.926759 122.58956 
L 4041.511725 74.590886 
L 4045.096691 35.191807 
L 4048.681658 16.346347 
L 4052.266624 24.249681 
L 4055.85159 56.129143 
L 4059.436556 98.483463 
L 4063.021523 143.681621 
L 4066.606489 182.588676 
L 4070.191455 202.724539 
L 4073.776421 198.35821 
L 4077.361388 166.101219 
L 4080.946354 122.447213 
L 4084.53132 73.842019 
L 4088.116287 35.507445 
L 4091.701253 14.526786 
L 4095.286219 19.994754 
L 4098.871185 45.499562 
L 4106.041118 136.852076 
L 4109.626084 177.600354 
L 4113.21105 198.673848 
L 4116.796017 197.686705 
L 4120.380983 168.889357 
L 4123.965949 124.498862 
L 4127.550916 76.846771 
L 4131.135882 39.16823 
L 4134.720848 17.36753 
L 4138.305814 18.49702 
L 4141.890781 46.461949 
L 4145.475747 86.783187 
L 4149.060713 132.850897 
L 4152.645679 175.195933 
L 4156.230646 198.240619 
L 4159.815612 197.553642 
L 4163.400578 169.471122 
L 4166.985544 130.749737 
L 4170.570511 82.045519 
L 4174.155477 43.574787 
L 4177.740443 19.37895 
L 4181.32541 20.400133 
L 4184.910376 47.040619 
L 4188.495342 85.563957 
L 4192.080308 135.892783 
L 4195.665275 177.795307 
L 4199.250241 202.309877 
L 4202.835207 202.377955 
L 4206.420173 179.302325 
L 4210.00514 136.40028 
L 4213.590106 88.791512 
L 4217.175072 44.366977 
L 4220.760039 18.22161 
L 4224.345005 18.893115 
L 4227.929971 43.03944 
L 4231.514937 81.921739 
L 4235.099904 128.865191 
L 4238.68487 170.034319 
L 4242.269836 199.493888 
L 4245.854802 204.101588 
L 4249.439769 179.918129 
L 4253.024735 141.815642 
L 4256.609701 91.76532 
L 4260.194668 48.547637 
L 4263.779634 21.393465 
L 4267.3646 18.583666 
L 4270.949566 39.688105 
L 4274.534533 78.598254 
L 4278.119499 125.872816 
L 4281.704465 168.951247 
L 4285.289431 198.497462 
L 4288.874398 205.695251 
L 4292.459364 183.554157 
L 4296.04433 144.257197 
L 4299.629296 96.577255 
L 4303.214263 54.365283 
L 4306.799229 27.297756 
L 4310.384195 20.483684 
L 4313.969162 33.236088 
L 4317.554128 73.424262 
L 4321.139094 123.784034 
L 4324.72406 166.778913 
L 4328.309027 196.492231 
L 4331.893993 205.169188 
L 4335.478959 187.196375 
L 4339.063925 148.304793 
L 4346.233858 57.49072 
L 4349.818824 24.10424 
L 4353.403791 19.481068 
L 4356.988757 33.174198 
L 4360.573723 67.85727 
L 4364.158689 117.310355 
L 4367.743656 160.360936 
L 4371.328622 192.311571 
L 4374.913588 200.363441 
L 4378.498554 187.601754 
L 4382.083521 152.989854 
L 4385.668487 104.613653 
L 4389.253453 63.512603 
L 4392.83842 27.625773 
L 4396.423386 17.163293 
L 4400.008352 32.632662 
L 4403.593318 67.303356 
L 4410.763251 158.86939 
L 4414.348217 194.02592 
L 4417.933183 203.872595 
L 4421.51815 191.182081 
L 4425.103116 156.963183 
L 4432.273049 65.301219 
L 4435.858015 32.598622 
L 4439.442981 21.746237 
L 4443.027947 28.603632 
L 4446.612914 63.10413 
L 4450.19788 107.788602 
L 4453.782846 154.407132 
L 4457.367812 193.236824 
L 4460.952779 204.998991 
L 4464.537745 193.010927 
L 4468.122711 160.311424 
L 4471.707677 113.578397 
L 4475.292644 70.961046 
L 4478.87761 33.202048 
L 4482.462576 16.426804 
L 4486.047543 27.641245 
L 4489.632509 60.124133 
L 4496.802441 152.092452 
L 4500.387408 189.269685 
L 4503.972374 205.899488 
L 4507.55734 197.535075 
L 4511.142306 164.111461 
L 4514.727273 120.627652 
L 4518.312239 73.102435 
L 4521.897205 35.287736 
L 4525.482172 19.230414 
L 4529.067138 28.371545 
L 4532.652104 58.521186 
L 4536.23707 101.200427 
L 4539.822037 148.146974 
L 4543.407003 186.747674 
L 4546.991969 205.478637 
L 4550.576935 196.662428 
L 4554.161902 166.618 
L 4557.746868 124.35961 
L 4561.331834 78.118607 
L 4564.916801 41.195122 
L 4568.501767 20.74981 
L 4572.086733 28.810963 
L 4575.671699 55.872301 
L 4582.841632 145.460954 
L 4586.426598 184.259702 
L 4590.011564 203.411516 
L 4593.596531 197.547453 
L 4597.181497 169.319492 
L 4600.766463 127.218921 
L 4604.351429 79.681326 
L 4607.936396 41.130138 
L 4611.521362 20.981897 
L 4615.106328 24.506524 
L 4618.691295 51.357436 
L 4622.276261 89.314481 
L 4625.861227 137.149147 
L 4629.446193 175.557989 
L 4633.03116 201.304167 
L 4636.616126 197.68361 
L 4640.201092 171.265927 
L 4643.786058 132.024668 
L 4647.371025 84.542774 
L 4650.955991 41.903761 
L 4654.540957 21.408937 
L 4658.125924 22.810742 
L 4661.71089 47.70284 
L 4665.295856 87.361857 
L 4668.880822 136.078453 
L 4672.465789 174.044782 
L 4676.050755 198.073516 
L 4679.635721 198.732643 
L 4683.220687 176.424446 
L 4686.805654 134.555962 
L 4690.39062 88.670827 
L 4693.975586 46.307224 
L 4697.560553 21.671969 
L 4701.145519 20.025699 
L 4704.730485 43.754268 
L 4708.315451 85.474216 
L 4711.900418 133.178913 
L 4715.485384 173.410411 
L 4719.07035 199.794054 
L 4722.655316 199.865227 
L 4726.240283 175.322807 
L 4729.825249 136.143437 
L 4733.410215 87.996228 
L 4736.995181 48.860181 
L 4740.580148 23.55961 
L 4744.165114 17.899783 
L 4747.75008 39.849018 
L 4751.335047 80.699414 
L 4754.920013 128.339127 
L 4758.504979 168.35401 
L 4762.089945 195.532938 
L 4765.674912 199.732164 
L 4769.259878 179.580829 
L 4772.844844 140.8842 
L 4776.42981 94.299709 
L 4780.014777 50.063938 
L 4783.599743 22.210411 
L 4787.184709 20.01951 
L 4790.769676 39.700483 
L 4794.354642 74.563036 
L 4797.939608 124.836161 
L 4801.524574 167.564914 
L 4805.109541 198.602675 
L 4808.694507 201.409379 
L 4812.279473 181.307556 
L 4815.864439 145.48571 
L 4819.449406 98.10284 
L 4823.034372 55.321481 
L 4826.619338 24.56532 
L 4830.204305 19.04165 
L 4833.789271 35.17324 
L 4837.374237 71.276684 
L 4840.959203 119.315587 
L 4844.54417 159.658486 
L 4848.129136 193.320376 
L 4851.714102 201.090647 
L 4855.299068 184.182339 
L 4858.884035 146.25005 
L 4862.469001 102.834319 
L 4866.053967 56.936806 
L 4869.638934 27.053292 
L 4873.2239 16.962151 
L 4876.808866 34.38105 
L 4880.393832 66.483316 
L 4883.978799 113.13898 
L 4887.563765 156.081253 
L 4891.148731 190.464159 
L 4894.733697 201.471269 
L 4898.318664 183.860512 
L 4901.90363 149.601385 
L 4905.488596 102.425846 
L 4909.073562 60.696614 
L 4912.658529 28.003301 
L 4916.243495 17.556294 
L 4919.828461 30.497462 
L 4923.413428 63.212437 
L 4930.58336 151.448797 
L 4934.168326 186.506303 
L 4937.753293 198.992581 
L 4941.338259 188.681731 
L 4944.923225 153.494257 
L 4952.093158 64.159352 
L 4955.678124 30.844045 
L 4959.26309 15.000243 
L 4962.848057 23.550326 
L 4966.433023 59.0194 
L 4970.017989 100.556773 
L 4973.602955 147.890131 
L 4977.187922 184.550584 
L 4980.772888 197.714555 
L 4984.357854 188.267069 
L 4987.94282 155.91415 
L 4991.527787 109.905235 
L 4995.112753 67.550915 
L 4998.697719 30.166351 
L 5002.282686 13.92336 
L 5005.867652 22.813837 
L 5009.452618 55.875395 
L 5013.037584 97.103319 
L 5016.622551 145.844671 
L 5020.207517 182.071895 
L 5023.792483 201.137064 
L 5027.377449 193.496762 
L 5030.962416 161.097425 
L 5038.132348 70.057454 
L 5041.717314 34.244892 
L 5045.302281 16.120449 
L 5048.887247 23.500814 
L 5052.472213 54.031078 
L 5059.642146 141.49072 
L 5063.227112 182.130691 
L 5066.812078 200.632662 
L 5070.397045 195.58245 
L 5073.982011 166.395196 
L 5077.566977 125.346753 
L 5081.151943 77.728701 
L 5084.73691 37.12277 
L 5088.321876 19.153052 
L 5091.906842 23.943327 
L 5095.491809 51.140822 
L 5099.076775 91.796265 
L 5102.661741 136.025846 
L 5106.246707 177.770551 
L 5109.831674 200.73478 
L 5113.41664 194.258007 
L 5117.001606 166.138353 
L 5120.586572 127.717134 
L 5124.171539 82.293078 
L 5127.756505 38.366756 
L 5131.341471 19.001422 
L 5134.926438 20.916913 
L 5138.511404 45.239624 
L 5142.09637 85.774382 
L 5145.681336 133.488362 
L 5149.266303 174.425404 
L 5152.851269 198.410816 
L 5156.436235 199.271085 
L 5160.021201 169.597996 
L 5163.606168 129.920413 
L 5167.191134 82.890315 
L 5170.7761 41.841871 
L 5174.361066 18.46298 
L 5177.946033 19.450123 
L 5181.530999 44.583592 
L 5185.115965 82.995528 
L 5188.700932 129.23653 
L 5192.285898 173.558946 
L 5195.870864 199.800243 
L 5199.45583 200.515071 
L 5203.040797 174.93909 
L 5206.625763 136.514776 
L 5210.210729 88.658449 
L 5213.795695 47.455281 
L 5217.380662 20.988086 
L 5220.965628 16.185434 
L 5224.550594 42.621684 
L 5231.720527 126.822826 
L 5235.305493 167.487552 
L 5238.890459 195.489615 
L 5242.475426 199.568156 
L 5246.060392 179.735554 
L 5249.645358 137.61951 
L 5253.230324 91.771509 
L 5256.815291 47.681179 
L 5260.400257 20.093778 
L 5263.985223 18.351579 
L 5267.57019 37.846882 
L 5271.155156 76.169077 
L 5274.740122 124.997075 
L 5278.325088 165.748447 
L 5281.910055 193.747416 
L 5285.495021 199.794054 
L 5289.079987 178.921702 
L 5292.664953 140.707814 
L 5299.834886 50.181529 
L 5303.419852 21.461544 
L 5307.004819 14.158541 
L 5310.589785 34.16753 
L 5314.174751 74.231925 
L 5321.344684 162.6849 
L 5324.92965 191.593649 
L 5328.514616 202.108735 
L 5332.099582 182.669132 
L 5335.684549 145.114371 
L 5342.854481 52.9511 
L 5346.439447 23.900004 
L 5350.024414 15.14259 
L 5353.60938 32.03233 
L 5357.194346 66.783481 
L 5360.779313 110.586023 
L 5364.364279 156.721812 
L 5367.949245 192.936659 
L 5371.534211 201.790002 
L 5375.119178 185.076648 
L 5378.704144 148.505935 
L 5382.28911 101.157104 
L 5385.874076 55.346237 
L 5389.459043 27.276095 
L 5393.044009 15.049755 
L 5396.628975 31.082321 
L 5400.213942 65.338353 
L 5407.383874 156.823931 
L 5410.96884 189.266591 
L 5414.553807 201.808569 
L 5418.138773 189.149 
L 5421.723739 153.958431 
L 5425.308705 108.209453 
L 5428.893672 60.50785 
L 5432.478638 29.968304 
L 5436.063604 16.81671 
L 5439.648571 28.597443 
L 5443.233537 63.911792 
L 5446.818503 107.692673 
L 5450.403469 153.571619 
L 5453.988436 188.050455 
L 5457.573402 204.411037 
L 5461.158368 190.891199 
L 5464.743334 157.467585 
L 5471.913267 64.010816 
L 5475.498233 31.159683 
L 5479.083199 17.711019 
L 5482.668166 26.276574 
L 5486.253132 57.574272 
L 5489.838098 104.635314 
L 5493.423065 149.718976 
L 5497.008031 190.420836 
L 5500.592997 205.555999 
L 5504.177963 194.440582 
L 5507.76293 163.124318 
L 5511.347896 118.981381 
L 5514.932862 68.940343 
L 5518.517828 30.93688 
L 5522.102795 17.701735 
L 5525.687761 24.175414 
L 5529.272727 56.061065 
L 5536.44266 144.75541 
L 5540.027626 185.49131 
L 5543.612592 204.813321 
L 5547.197559 197.50413 
L 5550.782525 166.351873 
L 5554.367491 120.974235 
L 5557.952457 72.560899 
L 5561.537424 35.105161 
L 5565.12239 20.134006 
L 5568.707356 24.973793 
L 5572.292323 51.738059 
L 5575.877289 95.27138 
L 5579.462255 141.072964 
L 5583.047221 184.02452 
L 5586.632188 202.356294 
L 5590.217154 196.173498 
L 5593.80212 168.886263 
L 5597.387086 124.625736 
L 5600.972053 78.814868 
L 5604.557019 37.679779 
L 5608.141985 17.370624 
L 5611.726951 20.694109 
L 5615.311918 45.51194 
L 5618.896884 89.16904 
L 5622.48185 138.23222 
L 5626.066817 178.924796 
L 5629.651783 203.377477 
L 5633.236749 199.264896 
L 5636.821715 169.390665 
L 5640.406682 128.654765 
L 5643.991648 80.130028 
L 5647.576614 40.644303 
L 5651.16158 19.443934 
L 5654.746547 20.981897 
L 5658.331513 46.560973 
L 5661.916479 86.031225 
L 5665.501446 134.382671 
L 5669.086412 179.020726 
L 5672.671378 200.923544 
L 5676.256344 203.652886 
L 5679.841311 180.985728 
L 5687.011243 85.870311 
L 5690.596209 46.09061 
L 5694.181176 22.745758 
L 5697.766142 19.084973 
L 5701.351108 44.914703 
L 5704.936075 88.293299 
L 5708.521041 134.936585 
L 5712.106007 176.58536 
L 5715.690973 200.227283 
L 5719.27594 204.828794 
L 5722.860906 178.729843 
L 5726.445872 139.213174 
L 5730.030838 92.071674 
L 5733.615805 48.105124 
L 5737.200771 19.521297 
L 5740.785737 20.406322 
L 5744.370704 40.149184 
L 5747.95567 81.633951 
L 5751.540636 131.582155 
L 5755.125602 172.092157 
L 5758.710569 204.451265 
L 5762.295535 205.18466 
L 5765.880501 182.551542 
L 5769.465467 143.106045 
L 5773.050434 95.336364 
L 5776.6354 50.135111 
L 5780.220366 23.590554 
L 5783.805332 19.629604 
L 5787.390299 39.678821 
L 5790.975265 79.938169 
L 5794.560231 126.203927 
L 5798.145198 168.029088 
L 5801.730164 198.311792 
L 5805.31513 207.861396 
L 5808.900096 188.582708 
L 5812.485063 147.611626 
L 5816.070029 98.526786 
L 5819.654995 55.244119 
L 5823.239961 25.527707 
L 5826.824928 18.998328 
L 5830.409894 37.391991 
L 5833.99486 77.657528 
L 5837.579827 124.879484 
L 5841.164793 166.082652 
L 5844.749759 195.591733 
L 5848.334725 206.65145 
L 5851.919692 186.326823 
L 5855.504658 148.533785 
L 5859.089624 102.753863 
L 5862.67459 58.843013 
L 5866.259557 23.689578 
L 5869.844523 17.036419 
L 5873.429489 33.369151 
L 5877.014456 69.896541 
L 5880.599422 115.085415 
L 5884.184388 162.647766 
L 5887.769354 197.238003 
L 5891.354321 205.596228 
L 5894.939287 190.637451 
L 5898.524253 150.480221 
L 5905.694186 63.506414 
L 5909.279152 28.575782 
L 5912.864118 19.892636 
L 5916.449084 32.713118 
L 5920.034051 66.093409 
L 5923.619017 113.296799 
L 5927.203983 158.65587 
L 5930.78895 193.908329 
L 5934.373916 207.07849 
L 5937.958882 194.836677 
L 5941.543848 155.836788 
L 5945.128815 110.641724 
L 5948.713781 66.990812 
L 5952.298747 30.160162 
L 5955.883713 22.349663 
L 5959.46868 31.874511 
L 5963.053646 66.436898 
L 5970.223579 156.966277 
L 5973.808545 192.53128 
L 5977.393511 208.768083 
L 5980.978477 195.864049 
L 5984.563444 164.863422 
L 5991.733376 67.885121 
L 5995.318342 32.969961 
L 5998.903309 18.020468 
L 6002.488275 26.443677 
L 6006.073241 60.777071 
L 6013.243174 154.32977 
L 6016.82814 190.64364 
L 6020.413106 209.312713 
L 6023.998073 195.529843 
L 6027.583039 162.598254 
L 6031.168005 120.024225 
L 6034.752971 72.075064 
L 6038.337938 35.894257 
L 6041.922904 19.611037 
L 6045.50787 27.319418 
L 6049.092836 54.247692 
L 6052.677803 102.37324 
L 6056.262769 148.945353 
L 6059.847735 192.339422 
L 6063.432702 208.913524 
L 6067.017668 204.30273 
L 6070.602634 170.291162 
L 6074.1876 125.408642 
L 6077.772567 78.468285 
L 6081.357533 38.694773 
L 6084.942499 19.651265 
L 6088.527465 27.625773 
L 6092.112432 57.55261 
L 6095.697398 101.15401 
L 6099.282364 148.806101 
L 6102.867331 187.091162 
L 6106.452297 209.222973 
L 6110.037263 202.551247 
L 6113.622229 172.092157 
L 6117.207196 128.617631 
L 6120.792162 79.610153 
L 6124.377128 40.681437 
L 6127.962094 20.025699 
L 6131.547061 24.203264 
L 6135.132027 52.780903 
L 6138.716993 96.106893 
L 6142.30196 142.55832 
L 6145.886926 185.30564 
L 6149.471892 206.725717 
L 6153.056858 202.083979 
L 6156.641825 173.543474 
L 6160.226791 132.358873 
L 6163.811757 84.143584 
L 6167.396723 45.768782 
L 6170.98169 19.942148 
L 6174.566656 22.386797 
L 6178.151622 47.529549 
L 6181.736588 89.958136 
L 6185.321555 138.247692 
L 6188.906521 181.016673 
L 6192.491487 206.233693 
L 6196.076454 206.298677 
L 6199.66142 177.807685 
L 6203.246386 137.096541 
L 6206.831352 85.307114 
L 6210.416319 44.008016 
L 6214.001285 21.647213 
L 6217.586251 21.888584 
L 6221.171217 45.93898 
L 6224.756184 85.195712 
L 6228.34115 134.379576 
L 6231.926116 174.044782 
L 6235.511083 202.545058 
L 6239.096049 205.918055 
L 6242.681015 181.502509 
L 6246.265981 142.140564 
L 6249.850948 92.365651 
L 6253.435914 51.267696 
L 6257.02088 24.676721 
L 6260.605846 20.672448 
L 6264.190813 42.900188 
L 6267.775779 84.743916 
L 6271.360745 133.884458 
L 6274.945712 177.10214 
L 6278.530678 201.282505 
L 6282.115644 207.233214 
L 6285.70061 183.767677 
L 6289.285577 145.962262 
L 6292.870543 97.010484 
L 6296.455509 53.105824 
L 6300.040475 25.815495 
L 6303.625442 19.988565 
L 6307.210408 44.59597 
L 6310.795374 79.978397 
L 6314.380341 129.969924 
L 6317.965307 172.516102 
L 6321.550273 203.315587 
L 6325.135239 209.39317 
L 6328.720206 187.496541 
L 6332.305172 148.697793 
L 6335.890138 98.201864 
L 6339.475104 57.308145 
L 6343.060071 28.352978 
L 6346.645037 22.507482 
L 6350.230003 40.23583 
L 6353.814969 77.543032 
L 6357.399936 123.975892 
L 6360.984902 167.843419 
L 6364.569868 200.740969 
L 6368.154835 206.577182 
L 6371.739801 190.225883 
L 6375.324767 150.894883 
L 6378.909733 104.041171 
L 6382.4947 59.369077 
L 6386.079666 25.642203 
L 6389.664632 19.406801 
L 6393.249598 35.210374 
L 6396.834565 73.452113 
L 6400.419531 117.734301 
L 6404.004497 164.934596 
L 6407.589464 196.92546 
L 6411.17443 203.584808 
L 6414.759396 187.245887 
L 6418.344362 153.553052 
L 6425.514295 61.281474 
L 6429.099261 29.070901 
L 6432.684227 18.450602 
L 6436.269194 32.360346 
L 6439.85416 69.509729 
L 6443.439126 116.320118 
L 6447.024093 161.041724 
L 6450.609059 196.962593 
L 6454.194025 207.31986 
L 6457.778991 194.799543 
L 6461.363958 155.70063 
L 6464.948924 112.529365 
L 6468.53389 65.827283 
L 6472.118856 32.771914 
L 6475.703823 21.260402 
L 6479.288789 31.75692 
L 6482.873755 66.935111 
L 6486.458721 112.287994 
L 6490.043688 160.478526 
L 6493.628654 195.108992 
L 6497.21362 209.278674 
L 6500.798587 198.664564 
L 6504.383553 165.866038 
L 6511.553485 70.469022 
L 6515.138452 34.489357 
L 6518.723418 20.424889 
L 6522.308384 31.376298 
L 6525.89335 63.658044 
L 6529.478317 108.840729 
L 6533.063283 156.186465 
L 6536.648249 192.670532 
L 6540.233216 209.198217 
L 6543.818182 199.583629 
L 6547.403148 165.770109 
L 6550.988114 121.441503 
L 6554.573081 74.179318 
L 6558.158047 38.598843 
L 6561.743013 20.567235 
L 6565.327979 27.390591 
L 6568.912946 59.427873 
L 6572.497912 102.673406 
L 6576.082878 153.017705 
L 6579.667845 189.90715 
L 6583.252811 208.130617 
L 6586.837777 203.365099 
L 6590.422743 170.421131 
L 6594.00771 127.138464 
L 6597.592676 81.15121 
L 6601.177642 40.384365 
L 6604.762608 20.820984 
L 6608.347575 26.08781 
L 6611.932541 56.327191 
L 6615.517507 97.839808 
L 6619.102473 144.678048 
L 6622.68744 184.606285 
L 6626.272406 204.810227 
L 6629.857372 200.901882 
L 6633.442339 170.9441 
L 6637.027305 127.850197 
L 6640.612271 75.147895 
L 6644.197237 40.053255 
L 6647.782204 19.734817 
L 6651.36717 23.513192 
L 6654.952136 48.724023 
L 6662.122069 140.432404 
L 6665.707035 182.41229 
L 6669.292001 203.41461 
L 6672.876968 200.991623 
L 6676.461934 170.85436 
L 6680.0469 131.520265 
L 6683.631866 82.265227 
L 6687.216833 44.283426 
L 6690.801799 19.515108 
L 6694.386765 19.614132 
L 6697.971731 45.886373 
L 6701.556698 89.165946 
L 6705.141664 136.972761 
L 6708.72663 179.091899 
L 6712.311597 201.489836 
L 6715.896563 202.591475 
L 6719.481529 177.649866 
L 6723.066495 134.577624 
L 6726.651462 85.068838 
L 6730.236428 46.437193 
L 6733.821394 24.59317 
L 6737.40636 22.464159 
L 6740.991327 47.288178 
L 6744.576293 87.754857 
L 6748.161259 133.250087 
L 6751.746226 174.211884 
L 6755.331192 201.474364 
L 6758.916158 202.863791 
L 6762.501124 179.088805 
L 6766.086091 136.82732 
L 6769.671057 89.35471 
L 6773.256023 46.824004 
L 6776.840989 22.990223 
L 6780.425956 20.307298 
L 6784.010922 40.344137 
L 6787.595888 83.233804 
L 6791.180854 129.372687 
L 6794.765821 172.027173 
L 6798.350787 198.243713 
L 6801.935753 201.40319 
L 6805.52072 180.202822 
L 6809.105686 141.883721 
L 6812.690652 92.387313 
L 6816.275618 48.761157 
L 6819.860585 22.049497 
L 6823.445551 17.12616 
L 6827.030517 38.332717 
L 6830.615483 76.432109 
L 6834.20045 124.142995 
L 6837.785416 166.55611 
L 6841.370382 196.956404 
L 6844.955349 204.636935 
L 6848.540315 182.783629 
L 6852.125281 143.003927 
L 6859.295214 54.414795 
L 6862.88018 24.840729 
L 6866.465146 16.578434 
L 6870.050112 35.185618 
L 6873.635079 69.766572 
L 6877.220045 120.21299 
L 6880.805011 162.260954 
L 6884.389978 194.056865 
L 6887.974944 203.259886 
L 6891.55991 183.866701 
L 6895.144876 148.806101 
L 6898.729843 100.454655 
L 6902.314809 55.825883 
L 6905.899775 24.955226 
L 6909.484741 14.300888 
L 6913.069708 30.119934 
L 6916.654674 65.972724 
L 6920.23964 114.844045 
L 6923.824606 158.132901 
L 6927.409573 192.101146 
L 6930.994539 202.201569 
L 6934.579505 186.134964 
L 6938.164472 150.585434 
L 6941.749438 105.662686 
L 6945.334404 58.679005 
L 6948.91937 25.90214 
L 6952.504337 13.932643 
L 6956.089303 27.830009 
L 6959.674269 65.811811 
L 6963.259235 108.590076 
L 6966.844202 156.885821 
L 6970.429168 189.124244 
L 6974.014134 202.80809 
L 6977.599101 187.632698 
L 6981.184067 154.979613 
L 6984.769033 107.664822 
L 6988.353999 62.144837 
L 6991.938966 29.129696 
L 6995.523932 13.793391 
L 6999.108898 27.393686 
L 7002.693864 58.412879 
L 7006.278831 105.81741 
L 7009.863797 150.569961 
L 7013.448763 184.126638 
L 7017.03373 198.441761 
L 7020.618696 190.513671 
L 7024.203662 156.437119 
L 7027.788628 113.253476 
L 7031.373595 65.75611 
L 7034.958561 30.348926 
L 7038.543527 15.984292 
L 7042.128493 24.159941 
L 7045.71346 55.117244 
L 7049.298426 101.729586 
L 7052.883392 146.466664 
L 7056.468358 183.835756 
L 7060.053325 200.267512 
L 7063.638291 191.943327 
L 7067.223257 158.792028 
L 7070.808224 117.517686 
L 7074.39319 69.314776 
L 7077.978156 34.102546 
L 7081.563122 17.005474 
L 7085.148089 23.203743 
L 7088.733055 51.734964 
L 7092.318021 97.044524 
L 7095.902987 145.723986 
L 7099.487954 184.355631 
L 7103.07292 201.703356 
L 7106.657886 192.995454 
L 7110.242853 162.759167 
L 7113.827819 120.983518 
L 7117.412785 73.207648 
L 7120.997751 38.484347 
L 7124.582718 18.540343 
L 7128.167684 23.856681 
L 7131.75265 51.140822 
L 7135.337616 92.504903 
L 7138.922583 143.062722 
L 7142.507549 183.628425 
L 7146.092515 202.792617 
L 7149.677482 196.900704 
L 7153.262448 168.155962 
L 7156.847414 125.962557 
L 7160.43238 76.382597 
L 7164.017347 40.585507 
L 7167.602313 16.627946 
L 7171.187279 21.124244 
L 7174.772245 45.425294 
L 7178.357212 89.908624 
L 7181.942178 138.284826 
L 7185.527144 179.243529 
L 7189.112111 202.47079 
L 7192.697077 197.71765 
L 7196.282043 172.605843 
L 7199.867009 130.827099 
L 7203.451976 81.680368 
L 7207.036942 40.771177 
L 7210.621908 18.967383 
L 7214.206874 22.170182 
L 7217.791841 43.933748 
L 7221.376807 86.340674 
L 7224.961773 134.187718 
L 7228.546739 177.690094 
L 7232.131706 201.663128 
L 7235.716672 200.180866 
L 7239.301638 174.478011 
L 7242.886605 133.293409 
L 7246.471571 87.086447 
L 7250.056537 43.008495 
L 7253.641503 20.17114 
L 7257.22647 20.239219 
L 7260.811436 42.847582 
L 7264.396402 82.057896 
L 7267.981368 131.507887 
L 7271.566335 171.284494 
L 7275.151301 199.831188 
L 7278.736267 200.443898 
L 7282.321234 175.570367 
L 7285.9062 134.99538 
L 7289.491166 88.584181 
L 7293.076132 46.019436 
L 7296.661099 20.601275 
L 7300.246065 17.67079 
L 7303.831031 39.592175 
L 7307.415997 78.390923 
L 7311.000964 125.284863 
L 7314.58593 165.315218 
L 7318.170896 193.697904 
L 7321.755863 200.18396 
L 7325.340829 180.249239 
L 7328.925795 140.874916 
L 7336.095728 51.298641 
L 7339.680694 19.635793 
L 7343.26566 16.751726 
L 7346.850626 34.764767 
L 7350.435593 74.7518 
L 7354.020559 123.022789 
L 7357.605525 164.705603 
L 7361.190491 194.895472 
L 7364.775458 200.261323 
L 7368.360424 178.076906 
L 7371.94539 144.684237 
L 7379.115323 51.716397 
L 7382.700289 23.377034 
L 7386.285255 17.070459 
L 7389.870222 33.177292 
L 7393.455188 68.686594 
L 7397.040154 117.044229 
L 7400.62512 160.144321 
L 7404.210087 191.237782 
L 7407.795053 199.69503 
L 7411.380019 182.987865 
L 7414.964986 147.781824 
L 7418.549952 101.664601 
L 7422.134918 52.589044 
L 7425.719884 20.78385 
L 7429.304851 12.425625 
L 7432.889817 27.294662 
L 7436.474783 67.665412 
L 7443.644716 156.313339 
L 7447.229682 189.699819 
L 7450.814648 198.23443 
L 7454.399615 187.818368 
L 7457.984581 151.145537 
L 7461.569547 105.511055 
L 7465.154513 62.200538 
L 7468.73948 28.065191 
L 7472.324446 14.183297 
L 7475.909412 26.626252 
L 7479.494378 62.445003 
L 7483.079345 107.042829 
L 7486.664311 154.301919 
L 7490.249277 188.267069 
L 7493.834243 202.223231 
L 7497.41921 187.77814 
L 7501.004176 155.016747 
L 7504.589142 108.094957 
L 7508.174109 62.906082 
L 7511.759075 27.127559 
L 7515.344041 13.34469 
L 7518.929007 25.8124 
L 7522.513974 57.459775 
L 7526.09894 101.506782 
L 7529.683906 147.942737 
L 7533.268872 182.960015 
L 7536.853839 200.177771 
L 7540.438805 190.928333 
L 7544.023771 158.117429 
L 7547.608738 113.173019 
L 7551.193704 66.461654 
L 7554.77867 29.302988 
L 7558.363636 17.748153 
L 7561.948603 23.757657 
L 7565.533569 54.913008 
L 7569.118535 99.857418 
L 7572.703501 143.362888 
L 7576.288468 181.338501 
L 7579.873434 198.782155 
L 7583.4584 190.45797 
L 7587.043367 159.995786 
L 7594.213299 70.004848 
L 7597.798265 31.979724 
L 7601.383232 12.493704 
L 7604.968198 20.137101 
L 7608.553164 50.521923 
L 7615.723097 142.688289 
L 7619.308063 178.587497 
L 7622.893029 198.420099 
L 7626.477996 194.616968 
L 7630.062962 162.325938 
L 7633.647928 119.408421 
L 7637.232894 73.715145 
L 7640.817861 35.556957 
L 7644.402827 16.887884 
L 7647.987793 19.985471 
L 7651.572759 48.371251 
L 7655.157726 92.631777 
L 7658.742692 138.708771 
L 7662.327658 176.532754 
L 7665.912624 200.317023 
L 7669.497591 195.625773 
L 7673.082557 167.159536 
L 7676.667523 125.086815 
L 7680.25249 77.824631 
L 7683.837456 37.580755 
L 7687.422422 15.637709 
L 7691.007388 18.255649 
L 7694.592355 43.933748 
L 7698.177321 87.040029 
L 7701.762287 132.844708 
L 7705.347253 176.080958 
L 7708.93222 198.574824 
L 7712.517186 197.547453 
L 7716.102152 170.922439 
L 7719.687119 131.46147 
L 7723.272085 82.30855 
L 7726.857051 40.542185 
L 7730.442017 20.684826 
L 7734.026984 18.52487 
L 7737.61195 44.175119 
L 7741.196916 84.137395 
L 7744.781882 130.836382 
L 7748.366849 171.154526 
L 7751.951815 193.524612 
L 7755.536781 197.080184 
L 7759.121748 175.397075 
L 7762.706714 135.580239 
L 7766.29168 86.724391 
L 7769.876646 47.346974 
L 7773.461613 18.701256 
L 7777.046579 17.754341 
L 7780.631545 40.356515 
L 7784.216511 77.917465 
L 7787.801478 128.859002 
L 7791.386444 168.134301 
L 7794.97141 197.513413 
L 7798.556376 198.658375 
L 7802.141343 176.353273 
L 7805.726309 140.135332 
L 7809.311275 88.342811 
L 7812.896242 46.805437 
L 7816.481208 21.062354 
L 7820.066174 17.410853 
L 7823.65114 37.481731 
L 7827.236107 76.246439 
L 7834.406039 164.755115 
L 7837.991005 192.197075 
L 7841.575972 199.537211 
L 7845.160938 179.249718 
L 7848.745904 143.016305 
L 7852.330871 95.017631 
L 7855.915837 51.846366 
L 7859.500803 23.513192 
L 7863.085769 19.214942 
L 7866.670736 34.557436 
L 7870.255702 74.959131 
L 7873.840668 117.378434 
L 7877.425634 163.749405 
L 7881.010601 192.639587 
L 7884.595567 200.019952 
L 7888.180533 182.675321 
L 7891.7655 147.92417 
L 7895.350466 100.163772 
L 7898.935432 54.284826 
L 7902.520398 23.175892 
L 7906.105365 13.886226 
L 7909.690331 31.797149 
L 7913.275297 67.436419 
L 7916.860263 115.506266 
L 7920.44523 160.292857 
L 7924.030196 191.807169 
L 7927.615162 204.169667 
L 7931.200128 184.21019 
L 7934.785095 148.187202 
L 7938.370061 102.995233 
L 7941.955027 56.385986 
L 7945.539994 25.861912 
L 7949.12496 17.361341 
L 7952.709926 30.577919 
L 7956.294892 66.928922 
L 7959.879859 111.195638 
L 7963.464825 157.399506 
L 7967.049791 191.268727 
L 7970.634757 202.619326 
L 7974.219724 190.108293 
L 7977.80469 154.35762 
L 7981.389656 110.796449 
L 7984.974623 63.28361 
L 7988.559589 28.947121 
L 7992.144555 19.016894 
L 7995.729521 30.246808 
L 7999.314488 61.792065 
L 8002.899454 111.084237 
L 8006.48442 155.527338 
L 8010.069386 188.885968 
L 8013.654353 204.197517 
L 8017.239319 194.849055 
L 8020.824285 159.08291 
L 8027.994218 67.798475 
L 8031.579184 31.617668 
L 8035.16415 14.963109 
L 8038.749117 27.566977 
L 8042.334083 58.350989 
L 8045.919049 106.250639 
L 8049.504015 152.37405 
L 8053.088982 188.786944 
L 8056.673948 203.631225 
L 8060.258914 196.742885 
L 8063.843881 164.02172 
L 8067.428847 120.72977 
L 8071.013813 74.083389 
L 8074.598779 36.36462 
L 8078.183746 19.360383 
L 8081.768712 27.805253 
L 8085.353678 57.555705 
L 8088.938644 102.147342 
L 8092.523611 148.62662 
L 8096.108577 188.530101 
L 8099.693543 206.970182 
L 8103.278509 198.831667 
L 8106.863476 169.666075 
L 8110.448442 125.167272 
L 8114.033408 76.543511 
L 8117.618375 39.394128 
L 8121.203341 20.087589 
L 8124.788307 26.892378 
L 8128.373273 54.742811 
L 8131.95824 97.750068 
L 8135.543206 145.572356 
L 8139.128172 186.150437 
L 8142.713138 207.620026 
L 8146.298105 203.72406 
L 8149.883071 171.826031 
L 8153.468037 129.344837 
L 8157.053004 82.240472 
L 8160.63797 45.66357 
L 8164.222936 24.116618 
L 8167.807902 25.088289 
L 8171.392869 50.419805 
L 8178.562801 140.512861 
L 8182.147767 179.772687 
L 8185.732734 201.879742 
L 8189.3177 198.912124 
L 8192.902666 173.874585 
L 8196.487633 134.026804 
L 8200.072599 84.137395 
L 8203.657565 42.101809 
L 8207.242531 24.212547 
L 8210.827498 21.758615 
L 8214.412464 47.368635 
L 8217.99743 89.599175 
L 8221.582396 138.436456 
L 8225.167363 177.275432 
L 8228.752329 202.04375 
L 8232.337295 203.983997 
L 8235.922261 177.730322 
L 8239.507228 138.278637 
L 8243.092194 88.206653 
L 8246.67716 48.566204 
L 8250.262127 23.43583 
L 8253.847093 23.352279 
L 8257.432059 47.968967 
L 8261.017025 88.732717 
L 8264.601992 134.738537 
L 8268.186958 174.889578 
L 8271.771924 201.053513 
L 8275.35689 204.219178 
L 8278.941857 179.812916 
L 8282.526823 140.587128 
L 8286.111789 95.153789 
L 8289.696756 51.685452 
L 8293.281722 26.041393 
L 8296.866688 24.107335 
L 8300.451654 46.60739 
L 8304.036621 84.072411 
L 8307.621587 131.659517 
L 8311.206553 171.751763 
L 8314.791519 203.024704 
L 8318.376486 203.380571 
L 8321.961452 185.361341 
L 8325.546418 146.661617 
L 8329.131385 98.427762 
L 8332.716351 54.801606 
L 8336.301317 28.086852 
L 8339.886283 24.979982 
L 8343.47125 43.65215 
L 8347.056216 81.135738 
L 8350.641182 131.981345 
L 8354.226148 173.998364 
L 8357.811115 203.126823 
L 8361.396081 210.655723 
L 8364.981047 188.542479 
L 8368.566013 151.529254 
L 8372.15098 102.753863 
L 8375.735946 57.852776 
L 8379.320912 28.365356 
L 8382.905879 21.990702 
L 8386.490845 42.912566 
L 8390.075811 79.470901 
L 8393.660777 126.321518 
L 8397.245744 170.27569 
L 8400.83071 203.259886 
L 8404.415676 211.68 
L 8408.000642 192.37965 
L 8411.585609 155.607795 
L 8418.755541 61.074143 
L 8422.340508 30.831667 
L 8425.925474 25.558652 
L 8429.51044 38.948521 
L 8433.095406 73.260254 
L 8436.680373 120.45436 
L 8440.265339 164.479705 
L 8443.850305 197.234909 
L 8447.435271 209.5448 
L 8451.020238 194.499377 
L 8454.605204 157.742995 
L 8461.775137 66.316213 
L 8465.360103 32.64504 
L 8468.945069 20.387755 
L 8472.530035 32.536732 
L 8476.115002 68.126491 
L 8479.699968 117.811663 
L 8483.284934 164.479705 
L 8486.8699 200.901882 
L 8490.454867 210.262722 
L 8494.039833 194.914039 
L 8497.624799 160.893188 
L 8501.209765 118.325349 
L 8504.794732 69.874879 
L 8508.379698 35.250602 
L 8511.964664 23.748374 
L 8515.549631 32.969961 
L 8519.134597 67.792286 
L 8522.719563 110.490094 
L 8526.304529 157.628499 
L 8529.889496 193.462722 
L 8533.474462 208.919713 
L 8537.059428 199.048281 
L 8540.644394 162.468285 
L 8544.229361 119.956147 
L 8547.814327 72.669206 
L 8551.399293 35.912824 
L 8554.98426 21.467733 
L 8558.569226 29.268948 
L 8562.154192 61.971545 
L 8565.739158 103.388234 
L 8569.324125 151.547821 
L 8572.909091 188.406322 
L 8576.494057 204.541006 
L 8580.079023 199.859038 
L 8583.66399 169.136917 
L 8587.248956 125.275579 
L 8590.833922 75.980313 
L 8594.418889 37.97685 
L 8598.003855 22.034025 
L 8601.588821 28.195159 
L 8605.173787 60.671859 
L 8612.34372 151.683979 
L 8615.928686 187.400612 
L 8619.513652 211.262244 
L 8623.098619 204.367714 
L 8626.683585 174.004553 
L 8630.268551 131.755447 
L 8633.853518 82.667512 
L 8637.438484 43.890425 
L 8641.02345 23.457491 
L 8644.608416 28.399396 
L 8648.193383 56.8842 
L 8651.778349 99.201385 
L 8655.363315 144.838961 
L 8658.948281 185.383002 
L 8662.533248 207.616931 
L 8666.118214 204.630746 
L 8669.70318 175.684863 
L 8673.288146 133.172724 
L 8676.873113 84.514924 
L 8680.458079 44.193686 
L 8684.043045 23.770035 
L 8687.628012 27.789781 
L 8691.212978 55.482395 
L 8698.38291 143.32266 
L 8701.967877 182.687699 
L 8705.552843 206.970182 
L 8709.137809 206.119197 
L 8712.722775 178.547268 
L 8716.307742 134.72616 
L 8719.892708 84.490168 
L 8723.477674 44.283426 
L 8727.062641 22.915955 
L 8730.647607 24.822162 
L 8734.232573 50.840656 
L 8737.817539 90.682247 
L 8741.402506 138.671638 
L 8744.987472 176.870053 
L 8748.572438 203.108256 
L 8752.157404 203.566241 
L 8755.742371 178.661765 
L 8759.327337 136.093925 
L 8766.49727 46.390775 
L 8770.082236 22.414647 
L 8773.667202 23.698862 
L 8777.252168 45.917318 
L 8780.837135 85.328775 
L 8784.422101 134.082505 
L 8788.007067 177.312566 
L 8791.592033 203.012326 
L 8795.177 205.788086 
L 8798.761966 180.159499 
L 8802.346932 139.510245 
L 8805.931898 92.956699 
L 8809.516865 50.070127 
L 8813.101831 23.692673 
L 8816.686797 21.387276 
L 8820.271764 42.454581 
L 8823.85673 82.549921 
L 8827.441696 129.855428 
L 8831.026662 171.318534 
L 8834.611629 203.439366 
L 8838.196595 207.678821 
L 8841.781561 184.012142 
L 8845.366527 143.152463 
L 8848.951494 94.624631 
L 8852.53646 48.720928 
L 8856.121426 25.527707 
L 8859.706393 19.583187 
L 8863.291359 41.987313 
L 8866.876325 78.653955 
L 8870.461291 126.754747 
L 8874.046258 171.34329 
L 8877.631224 201.496025 
L 8881.21619 207.025883 
L 8884.801156 186.323728 
L 8888.386123 148.784439 
L 8891.971089 97.514887 
L 8895.556055 53.891825 
L 8899.141022 21.764804 
L 8902.725988 15.083794 
L 8906.310954 35.012326 
L 8909.89592 73.387128 
L 8913.480887 117.687884 
L 8917.065853 165.129549 
L 8920.650819 193.369888 
L 8924.235785 203.782855 
L 8927.820752 187.0138 
L 8931.405718 149.619952 
L 8934.990684 102.484642 
L 8938.57565 58.183887 
L 8942.160617 24.949037 
L 8945.745583 11.259002 
L 8949.330549 27.898088 
L 8952.915516 63.89632 
L 8956.500482 113.086373 
L 8960.085448 158.863201 
L 8963.670414 194.644819 
L 8967.255381 204.24084 
L 8970.840347 190.095915 
L 8974.425313 155.907961 
L 8978.010279 106.365135 
L 8981.595246 60.585213 
L 8985.180212 25.311092 
L 8988.765178 15.87289 
L 8992.350145 32.372724 
L 8995.935111 64.397628 
L 8999.520077 111.613395 
L 9003.105043 155.14981 
L 9006.69001 190.337285 
L 9010.274976 204.998991 
L 9013.859942 191.92476 
L 9017.444908 157.328333 
L 9024.614841 63.797296 
L 9028.199807 27.108992 
L 9031.784774 13.341595 
L 9035.36974 26.725275 
L 9038.954706 60.597591 
L 9046.124639 148.134596 
L 9049.709605 187.375856 
L 9053.294571 200.555299 
L 9056.879537 189.560567 
L 9060.464504 158.600169 
L 9064.04947 115.48151 
L 9067.634436 65.106266 
L 9071.219403 30.593391 
L 9074.804369 14.223526 
L 9078.389335 21.477016 
L 9081.974301 54.099156 
L 9085.559268 99.841945 
L 9089.144234 148.738022 
L 9092.7292 183.4737 
L 9096.314166 204.739053 
L 9099.899133 195.273001 
L 9103.484099 162.069096 
L 9107.069065 117.096836 
L 9110.654031 68.138869 
L 9114.238998 31.063754 
L 9117.823964 14.047139 
L 9121.40893 21.353236 
L 9124.993897 51.184144 
L 9128.578863 96.422531 
L 9135.748795 182.638188 
L 9139.333762 199.314408 
L 9142.918728 192.939753 
L 9146.503694 163.913413 
L 9150.08866 119.891162 
L 9153.673627 70.190518 
L 9157.258593 32.354157 
L 9160.843559 12.985728 
L 9164.428526 18.958099 
L 9168.013492 46.041098 
L 9171.598458 93.730322 
L 9175.183424 138.145574 
L 9178.768391 179.255907 
L 9182.353357 197.343216 
L 9185.938323 194.632441 
L 9189.523289 166.636567 
L 9193.108256 122.762851 
L 9196.693222 73.294294 
L 9200.278188 36.708108 
L 9203.863155 14.155447 
L 9207.448121 16.21019 
L 9211.033087 42.934227 
L 9214.618053 86.201422 
L 9218.20302 134.797333 
L 9221.787986 175.493004 
L 9225.372952 200.864749 
L 9228.957918 196.597443 
L 9232.542885 170.507777 
L 9236.127851 127.503614 
L 9239.712817 78.610632 
L 9243.297783 36.05517 
L 9246.88275 16.132827 
L 9250.467716 17.00238 
L 9254.052682 41.458154 
L 9257.637649 84.579908 
L 9261.222615 129.221057 
L 9264.807581 175.341374 
L 9268.392547 200.982339 
L 9271.977514 199.159683 
L 9275.56248 175.752942 
L 9279.147446 131.628572 
L 9282.732412 82.806764 
L 9286.317379 42.222494 
L 9289.902345 16.23804 
L 9293.487311 16.281363 
L 9297.072278 39.907814 
L 9300.657244 81.278084 
L 9304.24221 127.073479 
L 9307.827176 169.071932 
L 9311.412143 196.297278 
L 9314.997109 198.624336 
L 9318.582075 175.285673 
L 9322.167041 134.509545 
L 9325.752008 86.693446 
L 9329.336974 43.55622 
L 9332.92194 18.280405 
L 9336.506907 13.143548 
L 9340.091873 33.489836 
L 9343.676839 73.557325 
L 9347.261805 122.366756 
L 9350.846772 165.745353 
L 9354.431738 195.730985 
L 9358.016704 199.614574 
L 9361.60167 179.370403 
L 9368.771603 91.777698 
L 9372.356569 48.807574 
L 9375.941535 22.043308 
L 9379.526502 14.514408 
L 9383.111468 33.319639 
L 9386.696434 70.564951 
L 9390.281401 120.924723 
L 9393.866367 160.930322 
L 9397.451333 193.342037 
L 9401.036299 199.63933 
L 9404.621266 182.334927 
L 9408.206232 141.100814 
L 9411.791198 94.339937 
L 9415.376164 50.138206 
L 9418.961131 17.989523 
L 9422.546097 12.564878 
L 9426.131063 30.036382 
L 9429.71603 66.854655 
L 9433.300996 112.424152 
L 9436.885962 159.788455 
L 9440.470928 191.469869 
L 9444.055895 197.22872 
L 9447.640861 183.684126 
L 9451.225827 144.195307 
L 9454.810793 96.660807 
L 9458.39576 51.286263 
L 9461.980726 20.220652 
L 9465.565692 11.039293 
L 9469.150659 24.450823 
L 9472.735625 61.57545 
L 9479.905557 154.085305 
L 9483.490524 185.943106 
L 9487.07549 197.95902 
L 9490.660456 183.154968 
L 9494.245422 145.971545 
L 9501.415355 52.876832 
L 9505.000321 23.865964 
L 9508.585288 10.949552 
L 9512.170254 24.961415 
L 9515.75522 59.622826 
L 9522.925153 150.703024 
L 9526.510119 183.715071 
L 9530.095085 197.702177 
L 9533.680051 184.791954 
L 9537.265018 150.668985 
L 9544.43495 57.360752 
L 9548.019916 24.571509 
L 9551.604883 10.08 
L 9555.189849 19.722439 
L 9558.774815 57.156515 
L 9562.359782 100.408237 
L 9565.944748 145.764214 
L 9569.529714 182.328738 
L 9573.11468 196.776924 
L 9576.699647 187.666738 
L 9580.284613 153.327154 
L 9583.869579 108.874769 
L 9587.454545 61.643529 
L 9587.454545 61.643529 
" clip-path="url(#pc538539d0a)" style="fill: none; stroke: #1f77b4; stroke-width: 1.5; stroke-linecap: square"/>
   </g>
  </g>
 </g>
 <defs>
  <clipPath id="pc538539d0a">
   <rect x="0" y="-0" width="10044" height="221.76"/>
  </clipPath>
 </defs>
</svg>
