<?xml version="1.0" encoding="utf-8" standalone="no"?>
<!DOCTYPE svg PUBLIC "-//W3C//DTD SVG 1.1//EN"
  "http://www.w3.org/Graphics/SVG/1.1/DTD/svg11.dtd">
<svg xmlns:xlink="http://www.w3.org/1999/xlink" width="10044pt" height="221.76pt" viewBox="0 0 10044 221.76" xmlns="http://www.w3.org/2000/svg" version="1.1">
 <metadata>
  <rdf:RDF xmlns:dc="http://purl.org/dc/elements/1.1/" xmlns:cc="http://creativecommons.org/ns#" xmlns:rdf="http://www.w3.org/1999/02/22-rdf-syntax-ns#">
   <cc:Work>
    <dc:type rdf:resource="http://purl.org/dc/dcmitype/StillImage"/>
    <dc:date>2025-08-12T08:23:40.398958</dc:date>
    <dc:format>image/svg+xml</dc:format>
    <dc:creator>
     <cc:Agent>
      <dc:title>Matplotlib v3.9.2, https://matplotlib.org/</dc:title>
     </cc:Agent>
    </dc:creator>
   </cc:Work>
  </rdf:RDF>
 </metadata>
 <defs>
  <style type="text/css">*{stroke-linejoin: round; stroke-linecap: butt}</style>
 </defs>
 <g id="figure_1">
  <g id="patch_1">
   <path d="M 0 221.76 
L 10044 221.76 
L 10044 0 
L 0 0 
z
" style="fill: #ffffff"/>
  </g>
  <g id="axes_1">
   <g id="line2d_1">
    <path d="M 456.545455 184.873915 
L 460.130421 162.105799 
L 463.715387 128.214405 
L 467.300353 126.347951 
L 470.88532 148.007347 
L 474.470286 135.037295 
L 478.055252 137.586038 
L 481.640218 134.883124 
L 485.225185 127.351703 
L 488.810151 129.995573 
L 492.395117 155.794626 
L 495.980084 161.951628 
L 499.56505 158.832124 
L 503.150016 178.037904 
L 506.734982 187.248805 
L 510.319949 133.777685 
L 513.904915 108.296814 
L 517.489881 102.25462 
L 521.074847 108.769168 
L 524.659814 130.448245 
L 528.24478 140.803949 
L 531.829746 171.628323 
L 535.414712 179.563213 
L 538.999679 171.58568 
L 542.584645 130.612257 
L 546.169611 159.648903 
L 549.754578 167.869173 
L 553.339544 140.187265 
L 556.92451 142.0734 
L 560.509476 113.128602 
L 564.094443 113.679681 
L 567.679409 83.091484 
L 571.264375 95.172592 
L 578.434308 168.964772 
L 582.019274 184.926398 
L 585.60424 164.805433 
L 589.189207 145.330674 
L 592.774173 126.738299 
L 596.359139 121.437438 
L 599.944105 129.359207 
L 603.529072 147.177447 
L 607.114038 124.2486 
L 610.699004 92.554964 
L 614.28397 109.093912 
L 617.868937 99.31881 
L 621.453903 129.086948 
L 625.038869 144.543418 
L 628.623836 171.201893 
L 632.208802 172.497586 
L 635.793768 146.488598 
L 639.378734 124.058347 
L 642.963701 107.788378 
L 646.548667 93.512793 
L 650.133633 93.683365 
L 653.718599 107.893345 
L 657.303566 116.4482 
L 660.888532 148.250084 
L 664.473498 129.700352 
L 668.058465 143.608551 
L 671.643431 128.965579 
L 675.228397 122.093485 
L 678.813363 132.491832 
L 682.39833 123.618795 
L 685.983296 112.541439 
L 689.568262 117.100967 
L 693.153228 91.301914 
L 696.738195 71.797633 
L 700.323161 101.565771 
L 703.908127 134.955289 
L 707.493093 151.878025 
L 711.07806 165.60253 
L 714.663026 144.130108 
L 718.247992 111.035811 
L 721.832959 104.101393 
L 725.417925 92.623849 
L 729.002891 86.391401 
L 732.587857 110.301038 
L 736.172824 138.1732 
L 739.75779 113.653439 
L 743.342756 106.646856 
L 746.927722 73.178612 
L 750.512689 112.370867 
L 754.097655 141.715855 
L 757.682621 170.070211 
L 761.267588 174.895438 
L 764.852554 150.602013 
L 768.43752 129.323125 
L 772.022486 104.285086 
L 775.607453 117.396188 
L 779.192419 108.982384 
L 782.777385 120.669863 
L 786.362351 115.687185 
L 789.947318 153.61655 
L 793.532284 137.523714 
L 797.11725 140.449684 
L 800.702217 122.44119 
L 804.287183 146.301624 
L 807.872149 141.555123 
L 811.457115 176.237054 
L 815.042082 136.703655 
L 818.627048 138.625873 
L 822.212014 112.961309 
L 825.79698 91.449524 
L 829.381947 109.562985 
L 832.966913 141.902828 
L 836.551879 160.541127 
L 840.136845 166.950707 
L 843.721812 140.741625 
L 847.306778 152.107641 
L 850.891744 128.831089 
L 854.476711 133.01011 
L 858.061677 126.088812 
L 861.646643 138.16992 
L 865.231609 134.072906 
L 868.816576 120.446807 
L 872.401542 137.094003 
L 875.986508 131.084611 
L 879.571474 141.391111 
L 883.156441 153.872408 
L 886.741407 164.034578 
L 890.326373 172.340134 
L 893.91134 163.677032 
L 901.081272 79.765325 
L 904.666238 106.827269 
L 908.251205 103.241971 
L 911.836171 118.603315 
L 915.421137 130.586015 
L 919.006103 145.579972 
L 922.59107 124.041945 
L 926.176036 134.023702 
L 929.761002 141.938911 
L 933.345969 135.444044 
L 936.930935 127.673166 
L 940.515901 175.567886 
L 944.100867 137.805814 
L 947.685834 104.130915 
L 951.2708 103.891458 
L 954.855766 124.638948 
L 958.440732 108.772449 
L 962.025699 151.891146 
L 965.610665 159.370083 
L 969.195631 188.816758 
L 972.780597 151.428632 
L 976.365564 139.216315 
L 979.95053 131.419195 
L 983.535496 111.905074 
L 987.120463 128.594912 
L 990.705429 109.536744 
L 994.290395 116.425238 
L 997.875361 132.163809 
L 1001.460328 114.434135 
L 1005.045294 134.850322 
L 1008.63026 138.701318 
L 1012.215226 155.614213 
L 1015.800193 168.37433 
L 1019.385159 137.212091 
L 1022.970125 155.601092 
L 1030.140058 93.939223 
L 1033.725024 65.499581 
L 1037.30999 101.647777 
L 1040.894957 101.601854 
L 1044.479923 106.679658 
L 1048.064889 141.151654 
L 1051.649855 108.221369 
L 1055.234822 116.940235 
L 1058.819788 162.643758 
L 1062.404754 166.130648 
L 1065.989721 143.014828 
L 1069.574687 124.363408 
L 1073.159653 133.84657 
L 1076.744619 131.76362 
L 1080.329586 113.341817 
L 1083.914552 88.808935 
L 1087.499518 93.985147 
L 1091.084484 112.183894 
L 1094.669451 140.800669 
L 1098.254417 154.73183 
L 1101.839383 155.85367 
L 1105.42435 138.045271 
L 1109.009316 131.396234 
L 1112.594282 125.508211 
L 1116.179248 117.100967 
L 1119.764215 108.182006 
L 1123.349181 116.930395 
L 1126.934147 118.721403 
L 1130.519113 85.879684 
L 1134.10408 105.777594 
L 1137.689046 114.35541 
L 1141.274012 125.377001 
L 1144.858978 150.178863 
L 1148.443945 124.855444 
L 1152.028911 122.519916 
L 1155.613877 108.723245 
L 1159.198844 67.149539 
L 1162.78381 97.544202 
L 1166.368776 74.986022 
L 1169.953742 94.45094 
L 1173.538709 78.531957 
L 1177.123675 104.160437 
L 1180.708641 89.730681 
L 1184.293607 118.586914 
L 1187.878574 100.775234 
L 1191.46354 134.246758 
L 1195.048506 119.459456 
L 1198.633473 95.293961 
L 1202.218439 98.77101 
L 1205.803405 101.992202 
L 1209.388371 79.529148 
L 1212.973338 63.40023 
L 1216.558304 98.406904 
L 1220.14327 117.045203 
L 1223.728236 106.886313 
L 1227.313203 149.345683 
L 1230.898169 110.481451 
L 1234.483135 103.668402 
L 1238.068102 98.541394 
L 1241.653068 112.13797 
L 1245.238034 111.809947 
L 1248.823 112.177333 
L 1252.407967 121.817946 
L 1255.992933 106.236827 
L 1259.577899 85.328605 
L 1263.162865 116.02833 
L 1266.747832 134.96185 
L 1270.332798 145.96048 
L 1273.917764 150.454402 
L 1277.50273 151.976432 
L 1281.087697 126.242983 
L 1284.672663 111.393357 
L 1288.257629 93.079801 
L 1291.842596 103.091081 
L 1295.427562 123.648317 
L 1299.012528 107.637487 
L 1302.597494 114.371811 
L 1306.182461 125.714866 
L 1309.767427 103.350219 
L 1313.352393 99.787883 
L 1316.937359 122.929945 
L 1320.522326 122.762653 
L 1324.107292 124.376529 
L 1327.692258 128.627715 
L 1331.277225 104.996897 
L 1334.862191 91.469206 
L 1338.447157 81.890918 
L 1342.032123 55.87865 
L 1345.61709 139.28848 
L 1349.202056 109.162797 
L 1352.787022 125.511491 
L 1356.371988 106.866632 
L 1359.956955 165.943675 
L 1363.541921 80.637868 
L 1367.126887 119.967893 
L 1370.711854 142.037318 
L 1374.29682 119.882607 
L 1377.881786 126.223302 
L 1381.466752 118.235928 
L 1385.051719 107.447233 
L 1388.636685 92.174456 
L 1392.221651 106.410679 
L 1395.806617 103.018915 
L 1399.391584 137.208811 
L 1402.97655 140.39064 
L 1406.561516 120.033497 
L 1410.146482 122.99227 
L 1413.731449 91.288793 
L 1417.316415 89.947176 
L 1420.901381 110.848838 
L 1424.486348 97.166975 
L 1428.071314 112.446313 
L 1431.65628 110.409286 
L 1435.241246 122.188612 
L 1438.826213 104.655753 
L 1442.411179 98.534833 
L 1445.996145 113.135162 
L 1449.581111 123.956659 
L 1453.166078 128.257048 
L 1456.751044 108.139363 
L 1460.33601 142.332539 
L 1463.920977 104.094833 
L 1467.505943 94.401736 
L 1471.090909 103.156685 
L 1474.675875 131.146936 
L 1478.260842 138.553708 
L 1481.845808 137.674605 
L 1485.430774 142.132445 
L 1489.01574 112.27574 
L 1492.600707 93.771931 
L 1496.185673 115.769191 
L 1499.770639 135.385 
L 1503.355606 125.403243 
L 1506.940572 139.449212 
L 1510.525538 144.192433 
L 1514.110504 110.829156 
L 1517.695471 123.008671 
L 1521.280437 141.502639 
L 1524.865403 147.925341 
L 1528.450369 120.869958 
L 1532.035336 127.013839 
L 1535.620302 137.389224 
L 1539.205268 127.476352 
L 1542.790235 103.212449 
L 1546.375201 100.037181 
L 1549.960167 115.250914 
L 1553.545133 151.320385 
L 1557.1301 137.635242 
L 1560.715066 138.009189 
L 1564.300032 116.274347 
L 1567.884998 101.870833 
L 1571.469965 127.486193 
L 1575.054931 125.268753 
L 1578.639897 123.854972 
L 1582.224863 154.803995 
L 1585.80983 135.755667 
L 1589.394796 140.712103 
L 1592.979762 126.823585 
L 1596.564729 92.161336 
L 1600.149695 97.540922 
L 1603.734661 128.83765 
L 1607.319627 124.041945 
L 1610.904594 128.585072 
L 1614.48956 125.278594 
L 1618.074526 118.475386 
L 1621.659492 100.627624 
L 1625.244459 103.068119 
L 1632.414391 132.403266 
L 1635.999358 158.464738 
L 1639.584324 150.523287 
L 1643.16929 102.602325 
L 1646.754256 121.548966 
L 1650.339223 99.105594 
L 1653.924189 127.233615 
L 1657.509155 142.424386 
L 1661.094121 128.693319 
L 1664.679088 139.731312 
L 1668.264054 127.177851 
L 1671.84902 103.543753 
L 1675.433987 115.762631 
L 1679.018953 104.563906 
L 1682.603919 131.032127 
L 1686.188885 112.898985 
L 1689.773852 107.794938 
L 1693.358818 90.143991 
L 1696.943784 92.341748 
L 1700.52875 91.767707 
L 1704.113717 95.687589 
L 1707.698683 106.856791 
L 1711.283649 128.690039 
L 1714.868615 110.346962 
L 1718.453582 119.452896 
L 1722.038548 72.529125 
L 1725.623514 79.14208 
L 1729.208481 96.989842 
L 1732.793447 120.650182 
L 1736.378413 120.568176 
L 1739.963379 90.754114 
L 1743.548346 117.097687 
L 1747.133312 101.818349 
L 1750.718278 81.126623 
L 1754.303244 88.421867 
L 1757.888211 109.654832 
L 1761.473177 125.403243 
L 1765.058143 146.190096 
L 1768.64311 130.175986 
L 1772.228076 105.046101 
L 1775.813042 42.947961 
L 1779.398008 106.400838 
L 1782.982975 100.539057 
L 1786.567941 141.574805 
L 1790.152907 130.3728 
L 1793.737873 120.246713 
L 1797.32284 93.644002 
L 1800.907806 101.336155 
L 1804.492772 79.722682 
L 1808.077739 108.670761 
L 1811.662705 102.326786 
L 1815.247671 123.323574 
L 1818.832637 118.757486 
L 1822.417604 100.404568 
L 1826.00257 69.088158 
L 1829.587536 83.773773 
L 1833.172502 116.648294 
L 1836.757469 139.777236 
L 1840.342435 131.825944 
L 1843.927401 141.883147 
L 1847.512367 112.308543 
L 1851.097334 135.116021 
L 1854.6823 96.737264 
L 1858.267266 124.779998 
L 1861.852233 119.623468 
L 1865.437199 124.888246 
L 1869.022165 136.50028 
L 1872.607131 109.861487 
L 1876.192098 97.901748 
L 1879.777064 127.190972 
L 1883.36203 109.638431 
L 1886.946996 134.12867 
L 1890.531963 153.154036 
L 1894.116929 167.068796 
L 1897.701895 160.052372 
L 1901.286862 143.32645 
L 1904.871828 106.066254 
L 1908.456794 80.172074 
L 1912.04176 104.485181 
L 1915.626727 134.96185 
L 1919.211693 147.712125 
L 1922.796659 113.410702 
L 1926.381625 64.774648 
L 1929.966592 118.832931 
L 1933.551558 78.932145 
L 1937.136524 110.547056 
L 1940.721491 108.995505 
L 1944.306457 138.993259 
L 1947.891423 158.766519 
L 1951.476389 83.429348 
L 1955.061356 76.806553 
L 1958.646322 81.21847 
L 1962.231288 95.812238 
L 1965.816254 81.762989 
L 1969.401221 109.35305 
L 1972.986187 140.147902 
L 1976.571153 109.280885 
L 1980.156119 88.04464 
L 1983.741086 105.610302 
L 1987.326052 112.741534 
L 1990.911018 117.117368 
L 1994.495985 147.328338 
L 1998.080951 97.773819 
L 2001.665917 118.383539 
L 2005.250883 106.072815 
L 2008.83585 88.585879 
L 2012.420816 83.44575 
L 2016.005782 108.621558 
L 2019.590748 149.047181 
L 2023.175715 125.344199 
L 2026.760681 90.183353 
L 2030.345647 89.337053 
L 2033.930614 58.81118 
L 2037.51558 73.660807 
L 2041.100546 92.882987 
L 2044.685512 105.521735 
L 2048.270479 133.918735 
L 2051.855445 111.609852 
L 2055.440411 68.100807 
L 2059.025377 69.222648 
L 2062.610344 78.453231 
L 2066.19531 92.892828 
L 2069.780276 104.255564 
L 2073.365243 65.781681 
L 2076.950209 98.577476 
L 2080.535175 84.800487 
L 2084.120141 48.740857 
L 2087.705108 66.336041 
L 2091.290074 78.118647 
L 2094.87504 107.919587 
L 2098.460006 141.217259 
L 2102.044973 132.396705 
L 2105.629939 82.100853 
L 2109.214905 58.735735 
L 2112.799872 52.017812 
L 2116.384838 79.286411 
L 2119.969804 100.352084 
L 2123.55477 70.334648 
L 2127.139737 72.926034 
L 2130.724703 93.299577 
L 2134.309669 87.578846 
L 2137.894635 68.878223 
L 2141.479602 81.553054 
L 2145.064568 82.209101 
L 2148.649534 121.591609 
L 2155.819467 95.779435 
L 2159.404433 67.533327 
L 2162.989399 52.067016 
L 2166.574366 68.605964 
L 2170.159332 70.957893 
L 2173.744298 72.411037 
L 2177.329264 92.522161 
L 2180.914231 100.945806 
L 2184.499197 76.934482 
L 2188.084163 79.6866 
L 2191.669129 60.254484 
L 2195.254096 93.529194 
L 2198.839062 131.373272 
L 2202.424028 86.24051 
L 2206.008995 73.769054 
L 2209.593961 70.767639 
L 2213.178927 16.223881 
L 2216.763893 29.620363 
L 2220.34886 25.664399 
L 2223.933826 90.281761 
L 2227.518792 96.130421 
L 2231.103758 88.87782 
L 2234.688725 72.345432 
L 2238.273691 80.582104 
L 2241.858657 60.323369 
L 2245.443624 69.380099 
L 2249.02859 86.781749 
L 2252.613556 85.554941 
L 2256.198522 74.726883 
L 2259.783489 69.957421 
L 2263.368455 45.831288 
L 2266.953421 48.967193 
L 2270.538387 76.524452 
L 2274.123354 80.427933 
L 2277.70832 101.601854 
L 2281.293286 119.987574 
L 2284.878252 101.008131 
L 2288.463219 64.850094 
L 2292.048185 30.017272 
L 2295.633151 59.890378 
L 2299.218118 48.603087 
L 2302.803084 98.088721 
L 2306.38805 62.599852 
L 2309.973016 66.844477 
L 2313.557983 70.892288 
L 2317.142949 60.408655 
L 2320.727915 76.107862 
L 2324.312881 107.299623 
L 2327.897848 105.564378 
L 2331.482814 110.18951 
L 2335.06778 81.100381 
L 2338.652747 59.109682 
L 2342.237713 35.534628 
L 2345.822679 27.471809 
L 2349.407645 86.739106 
L 2352.992612 102.320225 
L 2356.577578 95.480934 
L 2360.162544 105.075623 
L 2363.74751 82.392794 
L 2367.332477 61.642023 
L 2370.917443 69.908217 
L 2374.502409 64.712324 
L 2378.087376 80.316405 
L 2381.672342 67.103616 
L 2385.257308 109.300567 
L 2388.842274 83.609761 
L 2392.427241 71.823875 
L 2396.012207 106.263068 
L 2399.597173 108.713404 
L 2403.182139 79.4209 
L 2406.767106 105.616862 
L 2410.352072 114.647351 
L 2413.937038 131.75706 
L 2421.106971 63.747935 
L 2424.691937 86.407802 
L 2428.276903 97.675412 
L 2431.86187 93.768651 
L 2435.446836 110.271516 
L 2439.031802 104.084992 
L 2442.616768 91.069017 
L 2446.201735 113.085958 
L 2449.786701 105.820237 
L 2453.371667 158.759959 
L 2456.956633 128.135679 
L 2460.5416 137.19241 
L 2464.126566 95.690869 
L 2467.711532 85.098988 
L 2471.296499 77.177219 
L 2474.881465 53.592325 
L 2478.466431 94.985618 
L 2482.051397 110.0419 
L 2485.636364 106.794467 
L 2489.22133 129.280482 
L 2492.806296 123.162842 
L 2496.391262 116.490843 
L 2499.976229 104.773841 
L 2503.561195 109.192319 
L 2507.146161 114.155315 
L 2510.731128 114.663752 
L 2514.316094 95.467813 
L 2517.90106 81.907319 
L 2521.486026 50.613871 
L 2525.070993 105.374125 
L 2528.655959 98.013276 
L 2532.240925 127.561638 
L 2535.825891 128.526027 
L 2539.410858 165.025209 
L 2542.995824 113.227009 
L 2546.58079 125.518051 
L 2550.165757 54.146685 
L 2553.750723 99.443459 
L 2557.335689 103.599517 
L 2560.920655 111.445841 
L 2564.505622 126.653013 
L 2568.090588 127.758452 
L 2571.675554 86.079779 
L 2575.26052 105.328201 
L 2578.845487 122.451031 
L 2582.430453 117.865262 
L 2586.015419 153.459098 
L 2589.600385 146.304904 
L 2593.185352 103.9177 
L 2596.770318 77.971036 
L 2600.355284 58.761977 
L 2603.940251 62.183262 
L 2607.525217 95.822078 
L 2611.110183 144.261318 
L 2614.695149 127.181131 
L 2618.280116 139.83628 
L 2621.865082 104.347411 
L 2625.450048 112.141251 
L 2629.035014 99.558267 
L 2632.619981 79.83093 
L 2636.204947 128.024151 
L 2639.789913 111.068614 
L 2643.37488 76.931202 
L 2646.959846 84.623354 
L 2650.544812 77.433078 
L 2654.129778 72.696417 
L 2661.299711 150.513447 
L 2664.884677 147.22009 
L 2668.469643 155.309151 
L 2672.05461 115.237793 
L 2675.639576 95.42189 
L 2679.224542 79.55211 
L 2682.809509 80.424653 
L 2686.394475 104.767281 
L 2689.979441 127.961827 
L 2693.564407 109.005345 
L 2697.149374 126.446358 
L 2700.73434 94.542787 
L 2704.319306 103.49455 
L 2707.904272 100.896603 
L 2711.489239 150.438001 
L 2715.074205 147.899099 
L 2718.659171 150.579051 
L 2722.244137 111.809947 
L 2725.829104 100.132308 
L 2729.41407 94.300049 
L 2732.999036 112.656248 
L 2736.584003 109.061109 
L 2740.168969 123.481025 
L 2743.753935 139.944528 
L 2747.338901 126.590688 
L 2750.923868 126.866228 
L 2754.508834 119.843244 
L 2758.0938 120.414005 
L 2761.678766 142.289896 
L 2765.263733 141.309106 
L 2768.848699 169.443686 
L 2772.433665 115.729828 
L 2776.018632 125.203149 
L 2779.603598 75.609267 
L 2783.188564 112.652967 
L 2786.77353 132.452469 
L 2790.358497 148.601069 
L 2793.943463 143.857849 
L 2797.528429 148.368173 
L 2801.113395 134.676469 
L 2804.698362 100.837559 
L 2808.283328 86.972003 
L 2811.868294 126.347951 
L 2815.453261 91.088698 
L 2819.038227 115.309958 
L 2822.623193 101.706821 
L 2826.208159 124.114111 
L 2829.793126 135.94264 
L 2833.378092 123.615515 
L 2840.548024 160.088454 
L 2844.132991 176.771733 
L 2847.717957 154.154508 
L 2851.302923 118.691881 
L 2854.887889 79.6866 
L 2858.472856 65.040348 
L 2862.057822 81.451366 
L 2865.642788 111.265428 
L 2869.227755 131.547124 
L 2872.812721 154.256196 
L 2876.397687 110.028779 
L 2879.982653 137.609 
L 2883.56762 98.974385 
L 2887.152586 100.319281 
L 2890.737552 146.485317 
L 2894.322518 151.612326 
L 2897.907485 106.492685 
L 2901.492451 100.827718 
L 2905.077417 90.27848 
L 2908.662384 69.340736 
L 2912.24735 95.894244 
L 2915.832316 143.884091 
L 2919.417282 148.742119 
L 2923.002249 176.571638 
L 2926.587215 171.848099 
L 2930.172181 159.60626 
L 2933.757147 160.049092 
L 2937.342114 136.952953 
L 2940.92708 123.887774 
L 2944.512046 144.14979 
L 2948.097013 128.463703 
L 2951.681979 142.378462 
L 2955.266945 78.279378 
L 2958.851911 112.712012 
L 2962.436878 108.395222 
L 2966.021844 154.666225 
L 2969.60681 163.129233 
L 2973.191776 153.875688 
L 2976.776743 137.773012 
L 2980.361709 114.102831 
L 2983.946675 83.695047 
L 2987.531642 67.661256 
L 2991.116608 86.93592 
L 2994.701574 116.740141 
L 2998.28654 82.113974 
L 3001.871507 154.639983 
L 3005.456473 123.162842 
L 3009.041439 113.705923 
L 3012.626405 131.156776 
L 3016.211372 143.32317 
L 3019.796338 114.509581 
L 3023.381304 154.308679 
L 3026.96627 136.506841 
L 3030.551237 109.874608 
L 3034.136203 75.720795 
L 3037.721169 89.422339 
L 3041.306136 76.619579 
L 3044.891102 105.124827 
L 3048.476068 116.376035 
L 3052.061034 140.54153 
L 3055.646001 151.599205 
L 3059.230967 142.165247 
L 3062.815933 124.320765 
L 3066.400899 105.098585 
L 3069.985866 104.60983 
L 3073.570832 136.313307 
L 3077.155798 106.633735 
L 3080.740765 91.908757 
L 3084.325731 99.085913 
L 3087.910697 110.343681 
L 3091.495663 89.392817 
L 3095.08063 122.736412 
L 3098.665596 147.77117 
L 3102.250562 166.891663 
L 3105.835528 140.95812 
L 3109.420495 100.060143 
L 3113.005461 71.085822 
L 3116.590427 105.416768 
L 3120.175394 92.4992 
L 3123.76036 132.350782 
L 3127.345326 119.223279 
L 3130.930292 132.563997 
L 3134.515259 129.060706 
L 3138.100225 114.102831 
L 3141.685191 125.550854 
L 3145.270157 125.937922 
L 3148.855124 116.756542 
L 3152.44009 134.286121 
L 3156.025056 129.142712 
L 3159.610022 90.432651 
L 3163.194989 114.722796 
L 3166.779955 77.295308 
L 3170.364921 109.379292 
L 3173.949888 120.509132 
L 3177.534854 147.134804 
L 3181.11982 154.679346 
L 3184.704786 159.760431 
L 3188.289753 140.551371 
L 3191.874719 90.767235 
L 3195.459685 107.12577 
L 3199.044651 97.79678 
L 3202.629618 88.818775 
L 3206.214584 126.134736 
L 3209.79955 110.222313 
L 3213.384517 111.406478 
L 3216.969483 93.958905 
L 3220.554449 119.780919 
L 3224.139415 130.668021 
L 3227.724382 142.056999 
L 3231.309348 135.739266 
L 3234.894314 123.100518 
L 3238.47928 104.363812 
L 3242.064247 116.011929 
L 3245.649213 64.584395 
L 3249.234179 64.807451 
L 3252.819146 107.024083 
L 3256.404112 104.403175 
L 3259.989078 126.872789 
L 3263.574044 118.54099 
L 3267.159011 126.908871 
L 3270.743977 134.54526 
L 3274.328943 154.866319 
L 3277.913909 118.832931 
L 3281.498876 132.895301 
L 3285.083842 145.534049 
L 3288.668808 99.814125 
L 3292.253774 93.922822 
L 3295.838741 76.163626 
L 3299.423707 92.033406 
L 3303.008673 150.00501 
L 3306.59364 132.688646 
L 3310.178606 169.36168 
L 3313.763572 161.28246 
L 3317.348538 101.733063 
L 3320.933505 148.794603 
L 3324.518471 126.839986 
L 3328.103437 130.559774 
L 3331.688403 131.524163 
L 3335.27337 124.291243 
L 3338.858336 127.246736 
L 3342.443302 99.171199 
L 3346.028269 111.540967 
L 3349.613235 134.768316 
L 3353.198201 162.768407 
L 3356.783167 162.883215 
L 3360.368134 171.464311 
L 3363.9531 154.003617 
L 3367.538066 138.638994 
L 3371.123032 91.236309 
L 3374.707999 100.532497 
L 3378.292965 114.335728 
L 3381.877931 146.901907 
L 3385.462898 148.128715 
L 3389.047864 151.090768 
L 3392.63283 145.225707 
L 3396.217796 151.969871 
L 3399.802763 156.427711 
L 3403.387729 155.535487 
L 3406.972695 144.146509 
L 3410.557661 157.290413 
L 3414.142628 151.766497 
L 3417.727594 143.930014 
L 3421.31256 99.60419 
L 3424.897527 111.393357 
L 3428.482493 109.946773 
L 3432.067459 139.252398 
L 3435.652425 153.587027 
L 3439.237392 187.688357 
L 3442.822358 154.859759 
L 3446.407324 151.087488 
L 3449.99229 134.728953 
L 3453.577257 121.401356 
L 3457.162223 126.429957 
L 3460.747189 154.984408 
L 3464.332155 126.938393 
L 3467.917122 144.422049 
L 3471.502088 132.157248 
L 3475.087054 130.169425 
L 3478.672021 151.303983 
L 3482.256987 174.190187 
L 3485.841953 171.014919 
L 3489.426919 211.68 
L 3493.011886 176.309219 
L 3496.596852 142.863937 
L 3500.181818 151.572963 
L 3503.766784 125.094901 
L 3507.351751 123.1366 
L 3510.936717 157.116561 
L 3514.521683 146.728055 
L 3518.10665 182.213644 
L 3521.691616 160.43944 
L 3525.276582 176.719249 
L 3528.861548 161.42023 
L 3532.446515 161.866342 
L 3536.031481 195.088568 
L 3539.616447 180.281585 
L 3543.201413 168.544902 
L 3546.78638 150.234627 
L 3550.371346 133.961378 
L 3553.956312 129.208316 
L 3557.541279 122.962748 
L 3564.711211 194.678539 
L 3568.296177 188.055743 
L 3571.881144 177.29001 
L 3575.46611 183.896404 
L 3579.051076 178.339685 
L 3582.636042 131.173178 
L 3586.221009 166.042082 
L 3589.805975 130.487608 
L 3593.390941 169.030377 
L 3596.975907 158.064549 
L 3600.560874 145.527489 
L 3604.14584 131.678334 
L 3607.730806 146.472196 
L 3611.315773 164.20843 
L 3614.900739 207.517381 
L 3618.485705 168.912288 
L 3622.070671 197.656993 
L 3625.655638 171.051002 
L 3629.240604 140.361117 
L 3632.82557 130.900918 
L 3636.410536 143.477341 
L 3639.995503 158.930531 
L 3643.580469 186.523873 
L 3647.165435 190.37159 
L 3650.750402 176.197691 
L 3654.335368 175.62365 
L 3657.920334 169.168147 
L 3661.5053 173.038825 
L 3665.090267 183.663508 
L 3668.675233 187.967177 
L 3672.260199 169.883238 
L 3675.845165 125.78375 
L 3679.430132 133.826888 
L 3683.015098 97.763978 
L 3686.600064 135.178345 
L 3690.185031 144.589341 
L 3693.769997 167.882294 
L 3697.354963 179.838753 
L 3700.939929 160.488643 
L 3704.524896 150.936597 
L 3708.109862 104.268685 
L 3711.694828 163.608147 
L 3715.279794 160.957717 
L 3718.864761 115.772471 
L 3722.449727 150.959559 
L 3726.034693 125.970724 
L 3729.619659 118.67548 
L 3733.204626 132.855938 
L 3736.789592 139.242557 
L 3740.374558 136.414994 
L 3743.959525 177.175202 
L 3747.544491 151.95019 
L 3751.129457 186.215531 
L 3754.714423 118.918217 
L 3758.29939 137.966546 
L 3761.884356 107.627646 
L 3765.469322 132.140847 
L 3769.054288 153.695275 
L 3772.639255 158.044868 
L 3776.224221 188.052463 
L 3779.809187 161.259499 
L 3783.394154 153.987216 
L 3786.97912 158.855086 
L 3790.564086 181.537915 
L 3794.149052 172.704241 
L 3797.734019 186.382823 
L 3801.318985 160.101575 
L 3804.903951 149.368644 
L 3808.488917 114.578466 
L 3812.073884 100.562019 
L 3815.65885 129.214877 
L 3819.243816 172.248288 
L 3822.828783 164.713587 
L 3826.413749 152.78665 
L 3829.998715 149.565459 
L 3833.583681 129.664269 
L 3837.168648 128.571951 
L 3840.753614 123.959939 
L 3844.33858 131.517602 
L 3847.923546 137.956705 
L 3851.508513 123.585993 
L 3855.093479 132.777213 
L 3858.678445 117.537238 
L 3862.263412 136.283785 
L 3865.848378 104.101393 
L 3869.433344 168.131592 
L 3873.01831 199.123258 
L 3876.603277 172.310612 
L 3880.188243 158.520502 
L 3883.773209 135.365319 
L 3887.358175 91.223188 
L 3890.943142 102.080768 
L 3894.528108 124.287963 
L 3898.113074 131.802983 
L 3901.69804 151.487677 
L 3905.283007 135.617897 
L 3908.867973 154.416927 
L 3912.452939 138.491383 
L 3916.037906 124.983373 
L 3919.622872 166.894943 
L 3923.207838 163.040666 
L 3926.792804 168.849964 
L 3930.377771 147.459547 
L 3933.962737 121.368553 
L 3937.547703 100.57186 
L 3941.132669 108.552673 
L 3944.717636 118.580353 
L 3948.302602 154.016738 
L 3951.887568 183.082906 
L 3955.472535 147.866297 
L 3959.057501 147.810533 
L 3962.642467 123.392459 
L 3966.227433 113.722324 
L 3969.8124 139.216315 
L 3973.397366 134.496056 
L 3976.982332 136.342829 
L 3980.567298 137.212091 
L 3987.737231 91.134622 
L 3991.322197 107.070006 
L 3994.907164 99.32209 
L 3998.49213 161.105327 
L 4002.077096 165.789504 
L 4005.662062 154.649824 
L 4009.247029 136.185378 
L 4012.831995 95.536698 
L 4016.416961 87.687094 
L 4020.001927 69.435863 
L 4023.586894 103.425665 
L 4027.17186 149.001258 
L 4030.756826 98.259294 
L 4034.341792 121.083173 
L 4037.926759 90.97389 
L 4041.511725 97.088249 
L 4045.096691 93.952344 
L 4048.681658 139.924846 
L 4052.266624 152.520951 
L 4055.85159 151.185895 
L 4059.436556 136.841425 
L 4063.021523 73.490234 
L 4066.606489 102.464556 
L 4070.191455 92.50248 
L 4073.776421 86.37828 
L 4077.361388 113.755127 
L 4080.946354 142.319418 
L 4084.53132 132.757531 
L 4088.116287 124.832482 
L 4091.701253 86.693183 
L 4095.286219 76.616299 
L 4098.871185 102.831942 
L 4102.456152 113.512389 
L 4106.041118 131.507762 
L 4109.626084 130.50401 
L 4113.21105 121.32263 
L 4116.796017 68.314023 
L 4120.380983 92.279424 
L 4123.965949 94.58543 
L 4127.550916 125.442606 
L 4131.135882 121.171739 
L 4134.720848 156.650768 
L 4138.305814 131.976835 
L 4141.890781 79.407779 
L 4145.475747 99.994538 
L 4149.060713 90.288321 
L 4152.645679 121.142217 
L 4156.230646 158.340089 
L 4159.815612 138.02559 
L 4163.400578 135.339077 
L 4166.985544 97.878786 
L 4170.570511 75.861845 
L 4174.155477 113.997864 
L 4177.740443 95.42845 
L 4181.32541 136.070569 
L 4184.910376 136.132894 
L 4188.495342 141.335347 
L 4192.080308 102.66793 
L 4195.665275 71.269515 
L 4199.250241 86.014174 
L 4202.835207 78.692688 
L 4206.420173 101.359116 
L 4210.00514 125.048978 
L 4213.590106 107.53908 
L 4217.175072 94.293489 
L 4220.760039 94.090114 
L 4224.345005 80.844523 
L 4227.929971 95.585901 
L 4231.514937 98.636521 
L 4235.099904 112.341345 
L 4238.68487 98.656202 
L 4242.269836 107.798219 
L 4245.854802 71.272795 
L 4249.439769 76.360441 
L 4253.024735 107.053605 
L 4256.609701 90.308002 
L 4260.194668 153.049069 
L 4263.779634 117.963669 
L 4267.3646 106.036732 
L 4270.949566 81.490729 
L 4274.534533 76.553975 
L 4278.119499 78.482753 
L 4285.289431 101.113098 
L 4288.874398 113.423823 
L 4292.459364 115.113144 
L 4296.04433 80.880605 
L 4299.629296 52.808349 
L 4303.214263 96.209146 
L 4306.799229 101.345995 
L 4310.384195 145.914556 
L 4313.969162 133.085555 
L 4317.554128 130.192387 
L 4321.139094 104.012827 
L 4324.72406 68.576442 
L 4328.309027 53.093729 
L 4331.893993 76.803272 
L 4335.478959 101.257429 
L 4339.063925 123.786087 
L 4342.648892 132.03916 
L 4346.233858 102.651529 
L 4349.818824 81.011815 
L 4353.403791 82.89139 
L 4356.988757 80.040865 
L 4360.573723 109.333369 
L 4364.158689 111.593451 
L 4367.743656 109.503941 
L 4371.328622 114.758879 
L 4374.913588 69.599875 
L 4378.498554 89.186162 
L 4382.083521 79.352015 
L 4385.668487 113.459905 
L 4392.83842 138.291289 
L 4396.423386 144.923925 
L 4400.008352 100.348804 
L 4403.593318 57.751664 
L 4407.178285 62.055333 
L 4410.763251 105.288838 
L 4414.348217 108.303375 
L 4417.933183 136.287065 
L 4421.51815 106.495965 
L 4425.103116 112.439752 
L 4428.688082 52.588573 
L 4432.273049 36.082428 
L 4435.858015 87.113053 
L 4439.442981 96.596214 
L 4443.027947 124.871845 
L 4446.612914 98.137925 
L 4450.19788 85.82064 
L 4453.782846 53.749777 
L 4457.367812 36.928728 
L 4460.952779 81.549773 
L 4464.537745 69.845893 
L 4468.122711 97.668851 
L 4471.707677 110.960366 
L 4475.292644 74.6744 
L 4478.87761 10.08 
L 4482.462576 59.3721 
L 4486.047543 68.845421 
L 4489.632509 84.695519 
L 4493.217475 107.794938 
L 4496.802441 93.299577 
L 4500.387408 105.367564 
L 4507.55734 54.389423 
L 4511.142306 81.300475 
L 4514.727273 79.598033 
L 4518.312239 96.783187 
L 4521.897205 128.257048 
L 4525.482172 113.774808 
L 4529.067138 61.937245 
L 4532.652104 65.512701 
L 4536.23707 65.561905 
L 4539.822037 106.453322 
L 4543.407003 104.406455 
L 4546.991969 132.921543 
L 4550.576935 108.746207 
L 4554.161902 78.039921 
L 4557.746868 62.179982 
L 4561.331834 63.013162 
L 4564.916801 67.638294 
L 4568.501767 97.809901 
L 4572.086733 117.632365 
L 4575.671699 83.701608 
L 4579.256666 103.77665 
L 4582.841632 68.747014 
L 4586.426598 82.861868 
L 4590.011564 92.817383 
L 4593.596531 100.365205 
L 4597.181497 140.646498 
L 4600.766463 110.556897 
L 4604.351429 134.902805 
L 4607.936396 102.854904 
L 4611.521362 69.163604 
L 4615.106328 104.964095 
L 4618.691295 107.443953 
L 4622.276261 160.783864 
L 4625.861227 132.849378 
L 4629.446193 123.362937 
L 4633.03116 123.625355 
L 4636.616126 85.833761 
L 4640.201092 94.323011 
L 4643.786058 105.787434 
L 4647.371025 101.142621 
L 4650.955991 145.301152 
L 4654.540957 119.895728 
L 4658.125924 89.248486 
L 4661.71089 99.308969 
L 4665.295856 65.21092 
L 4668.880822 119.429934 
L 4672.465789 114.64079 
L 4676.050755 141.000763 
L 4679.635721 140.646498 
L 4683.220687 99.512344 
L 4686.805654 88.316899 
L 4690.39062 66.021138 
L 4693.975586 79.985101 
L 4697.560553 104.150597 
L 4701.145519 98.383942 
L 4704.730485 123.910736 
L 4708.315451 120.407444 
L 4711.900418 70.836524 
L 4715.485384 94.631353 
L 4719.07035 103.143564 
L 4722.655316 131.62585 
L 4726.240283 149.358804 
L 4729.825249 106.748543 
L 4733.410215 78.955107 
L 4736.995181 91.137902 
L 4740.580148 82.166458 
L 4744.165114 90.711471 
L 4747.75008 107.371788 
L 4751.335047 129.208316 
L 4754.920013 109.7598 
L 4758.504979 98.843175 
L 4762.089945 113.51895 
L 4765.674912 98.059199 
L 4769.259878 95.612143 
L 4772.844844 104.485181 
L 4776.42981 116.828707 
L 4780.014777 138.225684 
L 4783.599743 102.622007 
L 4787.184709 97.406432 
L 4790.769676 89.655236 
L 4794.354642 105.44629 
L 4797.939608 133.449661 
L 4801.524574 141.709294 
L 4805.109541 114.204519 
L 4808.694507 147.705565 
L 4812.279473 124.078028 
L 4815.864439 92.571365 
L 4819.449406 98.439706 
L 4823.034372 90.383448 
L 4826.619338 123.559751 
L 4830.204305 152.347098 
L 4833.789271 134.584623 
L 4837.374237 146.429553 
L 4840.959203 97.347388 
L 4844.54417 102.047966 
L 4848.129136 105.147788 
L 4851.714102 128.9787 
L 4855.299068 163.742637 
L 4858.884035 125.281874 
L 4862.469001 116.969757 
L 4866.053967 92.945312 
L 4869.638934 85.912487 
L 4873.2239 99.87973 
L 4880.393832 117.130489 
L 4883.978799 139.731312 
L 4887.563765 123.008671 
L 4891.148731 100.522656 
L 4894.733697 70.849645 
L 4898.318664 91.898917 
L 4901.90363 97.770538 
L 4905.488596 145.940798 
L 4909.073562 116.651575 
L 4912.658529 157.283853 
L 4916.243495 107.867104 
L 4919.828461 110.842277 
L 4923.413428 98.049358 
L 4926.998394 108.267292 
L 4930.58336 136.106652 
L 4934.168326 138.829247 
L 4937.753293 139.180233 
L 4941.338259 90.540899 
L 4944.923225 76.868877 
L 4948.508191 85.787838 
L 4952.093158 97.570444 
L 4955.678124 112.387268 
L 4959.26309 131.392953 
L 4962.848057 142.227572 
L 4966.433023 124.930889 
L 4970.017989 105.879281 
L 4973.602955 125.623019 
L 4977.187922 116.877911 
L 4980.772888 126.279066 
L 4984.357854 109.090631 
L 4987.94282 135.155384 
L 4991.527787 101.585452 
L 4995.112753 103.629039 
L 4998.697719 71.433527 
L 5002.282686 105.010018 
L 5005.867652 116.523645 
L 5009.452618 116.946796 
L 5013.037584 115.651103 
L 5016.622551 112.292141 
L 5020.207517 116.917274 
L 5023.792483 62.895073 
L 5027.377449 80.890446 
L 5030.962416 108.759328 
L 5034.547382 120.48617 
L 5038.132348 113.046596 
L 5041.717314 132.150688 
L 5045.302281 89.218964 
L 5048.887247 85.981372 
L 5052.472213 101.939718 
L 5056.05718 100.830998 
L 5059.642146 144.513896 
L 5063.227112 144.782875 
L 5066.812078 124.10755 
L 5070.397045 97.363789 
L 5073.982011 101.746184 
L 5077.566977 91.328156 
L 5081.151943 123.27437 
L 5084.73691 133.341413 
L 5088.321876 159.383204 
L 5091.906842 147.951583 
L 5095.491809 136.933271 
L 5099.076775 116.933675 
L 5102.661741 125.711585 
L 5106.246707 104.7476 
L 5109.831674 149.706509 
L 5113.41664 132.003077 
L 5117.001606 116.946796 
L 5120.586572 119.118312 
L 5124.171539 115.027858 
L 5127.756505 110.169829 
L 5131.341471 99.856768 
L 5134.926438 150.729942 
L 5138.511404 155.696219 
L 5142.09637 154.410367 
L 5145.681336 139.675548 
L 5149.266303 133.984339 
L 5152.851269 105.72839 
L 5156.436235 98.226491 
L 5160.021201 124.753756 
L 5163.606168 126.1905 
L 5167.191134 114.112672 
L 5170.7761 151.179335 
L 5174.361066 122.667527 
L 5177.946033 102.982833 
L 5181.530999 128.165202 
L 5185.115965 114.329168 
L 5188.700932 129.700352 
L 5192.285898 156.791818 
L 5195.870864 100.516096 
L 5199.45583 139.396728 
L 5203.040797 103.268213 
L 5206.625763 106.817428 
L 5210.210729 102.641688 
L 5213.795695 154.685906 
L 5217.380662 152.563594 
L 5220.965628 153.557505 
L 5224.550594 132.350782 
L 5228.135561 122.555999 
L 5231.720527 139.550899 
L 5235.305493 115.798713 
L 5238.890459 144.310521 
L 5242.475426 156.578602 
L 5246.060392 151.67465 
L 5249.645358 108.595316 
L 5253.230324 95.97625 
L 5256.815291 114.594867 
L 5260.400257 138.684917 
L 5263.985223 134.69287 
L 5267.57019 155.56501 
L 5271.155156 148.204161 
L 5274.740122 135.184906 
L 5278.325088 89.291129 
L 5281.910055 93.548875 
L 5285.495021 108.801971 
L 5289.079987 118.96086 
L 5292.664953 99.548426 
L 5296.24992 151.612326 
L 5299.834886 114.64079 
L 5303.419852 85.81736 
L 5307.004819 121.46696 
L 5310.589785 93.847377 
L 5314.174751 117.409309 
L 5317.759717 139.42625 
L 5321.344684 129.874204 
L 5324.92965 106.879753 
L 5328.514616 77.367473 
L 5332.099582 72.788264 
L 5335.684549 74.943379 
L 5339.269515 84.141159 
L 5342.854481 120.873238 
L 5346.439447 140.452964 
L 5350.024414 106.017051 
L 5353.60938 100.447211 
L 5357.194346 108.129522 
L 5360.779313 104.373653 
L 5364.364279 78.344983 
L 5367.949245 132.436068 
L 5371.534211 104.918172 
L 5375.119178 116.963197 
L 5378.704144 78.371225 
L 5385.874076 101.493606 
L 5389.459043 101.765865 
L 5393.044009 120.689545 
L 5396.628975 128.686759 
L 5400.213942 140.944999 
L 5403.798908 117.645486 
L 5407.383874 97.996875 
L 5410.96884 84.816888 
L 5414.553807 100.102786 
L 5418.138773 107.617806 
L 5421.723739 144.139949 
L 5425.308705 139.386888 
L 5428.893672 138.268327 
L 5432.478638 109.720437 
L 5439.648571 87.313147 
L 5443.233537 100.913004 
L 5446.818503 100.752273 
L 5450.403469 124.858724 
L 5453.988436 119.285604 
L 5457.573402 80.926529 
L 5461.158368 76.960724 
L 5464.743334 105.659505 
L 5468.328301 127.230334 
L 5471.913267 114.35541 
L 5475.498233 142.955784 
L 5479.083199 112.295422 
L 5482.668166 136.513401 
L 5489.838098 68.363226 
L 5493.423065 118.885415 
L 5497.008031 117.934147 
L 5500.592997 110.937404 
L 5504.177963 96.642137 
L 5507.76293 85.138351 
L 5511.347896 78.049762 
L 5514.932862 101.378798 
L 5518.517828 83.271897 
L 5522.102795 110.04518 
L 5525.687761 150.411759 
L 5529.272727 148.010627 
L 5532.857694 155.269788 
L 5536.44266 107.296343 
L 5540.027626 125.019456 
L 5543.612592 91.023094 
L 5547.197559 100.624343 
L 5550.782525 122.142689 
L 5554.367491 128.319373 
L 5557.952457 114.729356 
L 5561.537424 91.580734 
L 5565.12239 101.624815 
L 5568.707356 117.389628 
L 5572.292323 119.502099 
L 5575.877289 124.451975 
L 5579.462255 139.114628 
L 5583.047221 132.534475 
L 5586.632188 91.036215 
L 5590.217154 93.726008 
L 5593.80212 101.398479 
L 5597.387086 100.880202 
L 5600.972053 133.364375 
L 5604.557019 131.356871 
L 5608.141985 142.847536 
L 5611.726951 138.953896 
L 5615.311918 143.106675 
L 5618.896884 111.058773 
L 5622.48185 141.076209 
L 5626.066817 132.810015 
L 5629.651783 129.752836 
L 5633.236749 112.462714 
L 5636.821715 113.548472 
L 5640.406682 117.740613 
L 5643.991648 94.690397 
L 5647.576614 89.133678 
L 5651.16158 147.413624 
L 5654.746547 143.930014 
L 5658.331513 144.274439 
L 5665.501446 104.878809 
L 5669.086412 101.68714 
L 5672.671378 100.794916 
L 5676.256344 110.114065 
L 5679.841311 124.717674 
L 5683.426277 103.77993 
L 5687.011243 93.296297 
L 5690.596209 87.306587 
L 5694.181176 103.058278 
L 5697.766142 114.263563 
L 5701.351108 161.049563 
L 5704.936075 134.010581 
L 5708.521041 152.068278 
L 5712.106007 130.694263 
L 5715.690973 101.946278 
L 5719.27594 103.386302 
L 5722.860906 95.323483 
L 5726.445872 114.302926 
L 5730.030838 132.065402 
L 5733.615805 147.459547 
L 5737.200771 124.143633 
L 5740.785737 133.410298 
L 5744.370704 117.720931 
L 5747.95567 112.698891 
L 5751.540636 128.152081 
L 5755.125602 139.377047 
L 5758.710569 111.72138 
L 5762.295535 91.269111 
L 5765.880501 61.130307 
L 5769.465467 124.652069 
L 5773.050434 73.381987 
L 5776.6354 105.944886 
L 5780.220366 150.487205 
L 5783.805332 124.314205 
L 5787.390299 138.363454 
L 5790.975265 96.409241 
L 5794.560231 97.219459 
L 5798.145198 123.051314 
L 5801.730164 129.25752 
L 5805.31513 93.148686 
L 5808.900096 119.09863 
L 5812.485063 126.525084 
L 5816.070029 90.780356 
L 5819.654995 94.437819 
L 5823.239961 98.551234 
L 5826.824928 117.409309 
L 5830.409894 130.759868 
L 5833.99486 156.591723 
L 5837.579827 125.550854 
L 5841.164793 115.815114 
L 5844.749759 95.123388 
L 5848.334725 78.262977 
L 5851.919692 104.980496 
L 5855.504658 104.288367 
L 5859.089624 85.81408 
L 5862.67459 72.296229 
L 5866.259557 107.476756 
L 5869.844523 98.275695 
L 5873.429489 72.929314 
L 5877.014456 88.057761 
L 5880.599422 111.124378 
L 5884.184388 88.861419 
L 5887.769354 106.397558 
L 5891.354321 76.439166 
L 5894.939287 82.041809 
L 5898.524253 90.324404 
L 5902.109219 82.747059 
L 5905.694186 106.659977 
L 5909.279152 79.561951 
L 5912.864118 121.155338 
L 5916.449084 86.588215 
L 5920.034051 118.317934 
L 5923.619017 65.368371 
L 5927.203983 73.696889 
L 5930.78895 57.672938 
L 5934.373916 75.386211 
L 5937.958882 77.669255 
L 5941.543848 59.237611 
L 5945.128815 83.157089 
L 5948.713781 70.157515 
L 5952.298747 68.005681 
L 5955.883713 104.875529 
L 5959.46868 97.570444 
L 5963.053646 92.053088 
L 5966.638612 128.795007 
L 5970.223579 84.28877 
L 5973.808545 50.689317 
L 5977.393511 66.296678 
L 5980.978477 76.455567 
L 5984.563444 101.710101 
L 5988.14841 102.992673 
L 5991.733376 101.608414 
L 5995.318342 97.294904 
L 5998.903309 104.813204 
L 6002.488275 79.315933 
L 6006.073241 70.298565 
L 6009.658208 114.024106 
L 6013.243174 90.206315 
L 6016.82814 96.087778 
L 6020.413106 51.361765 
L 6023.998073 74.618636 
L 6027.583039 63.498637 
L 6031.168005 103.691364 
L 6034.752971 96.077937 
L 6038.337938 111.29495 
L 6041.922904 138.363454 
L 6045.50787 140.069177 
L 6049.092836 102.375989 
L 6052.677803 69.52443 
L 6056.262769 67.411958 
L 6059.847735 63.144371 
L 6063.432702 68.291061 
L 6067.017668 84.328133 
L 6070.602634 103.396142 
L 6074.1876 85.062906 
L 6077.772567 91.233029 
L 6081.357533 83.527755 
L 6084.942499 101.870833 
L 6088.527465 142.3391 
L 6092.112432 142.467029 
L 6095.697398 125.344199 
L 6099.282364 90.163672 
L 6102.867331 96.369878 
L 6106.452297 98.980945 
L 6110.037263 89.176321 
L 6113.622229 121.7425 
L 6117.207196 133.636635 
L 6120.792162 116.759822 
L 6124.377128 113.345097 
L 6127.962094 132.714888 
L 6131.547061 131.773461 
L 6135.132027 119.964613 
L 6138.716993 122.070524 
L 6142.30196 132.964186 
L 6145.886926 96.196025 
L 6149.471892 108.605157 
L 6153.056858 84.370776 
L 6156.641825 83.052121 
L 6160.226791 94.503424 
L 6163.811757 114.237321 
L 6167.396723 145.068256 
L 6170.98169 139.69851 
L 6174.566656 140.607135 
L 6178.151622 107.152012 
L 6181.736588 112.718572 
L 6185.321555 110.015658 
L 6188.906521 81.953242 
L 6192.491487 86.906398 
L 6196.076454 104.921452 
L 6199.66142 96.150102 
L 6203.246386 99.804284 
L 6206.831352 87.916711 
L 6210.416319 107.653888 
L 6214.001285 96.222267 
L 6217.586251 153.088432 
L 6221.171217 128.437461 
L 6224.756184 138.005908 
L 6228.34115 127.535396 
L 6231.926116 87.76254 
L 6235.511083 96.579813 
L 6239.096049 95.323483 
L 6242.681015 108.152484 
L 6246.265981 125.91824 
L 6249.850948 118.508188 
L 6253.435914 113.974902 
L 6257.02088 127.492753 
L 6260.605846 115.178749 
L 6264.190813 120.092542 
L 6267.775779 161.633445 
L 6271.360745 143.152598 
L 6274.945712 139.869082 
L 6278.530678 120.181108 
L 6282.115644 99.404096 
L 6285.70061 84.049313 
L 6289.285577 117.094406 
L 6292.870543 125.688624 
L 6296.455509 112.836661 
L 6300.040475 120.705946 
L 6303.625442 129.208316 
L 6307.210408 101.204945 
L 6310.795374 105.219953 
L 6314.380341 109.881168 
L 6317.965307 95.028261 
L 6321.550273 107.968791 
L 6325.135239 94.30661 
L 6328.720206 106.574691 
L 6332.305172 98.91206 
L 6335.890138 96.422362 
L 6339.475104 80.762517 
L 6343.060071 118.222807 
L 6346.645037 125.905119 
L 6350.230003 122.638005 
L 6353.814969 145.1273 
L 6357.399936 112.741534 
L 6360.984902 91.52169 
L 6364.569868 92.669772 
L 6368.154835 129.352647 
L 6371.739801 116.851669 
L 6375.324767 147.256173 
L 6378.909733 113.594395 
L 6382.4947 130.192387 
L 6386.079666 124.560223 
L 6393.249598 108.972543 
L 6396.834565 134.374688 
L 6400.419531 140.092138 
L 6404.004497 119.475857 
L 6407.589464 110.255115 
L 6411.17443 86.335637 
L 6414.759396 110.547056 
L 6418.344362 118.95102 
L 6421.929329 125.035857 
L 6425.514295 128.716281 
L 6429.099261 124.655349 
L 6432.684227 105.374125 
L 6436.269194 119.718595 
L 6439.85416 78.344983 
L 6443.439126 95.392368 
L 6447.024093 115.972566 
L 6450.609059 123.589273 
L 6454.194025 119.744837 
L 6457.778991 105.485653 
L 6461.363958 114.801522 
L 6464.948924 99.935494 
L 6468.53389 115.674064 
L 6472.118856 134.96841 
L 6475.703823 138.258486 
L 6479.288789 124.776718 
L 6482.873755 119.134713 
L 6486.458721 122.821698 
L 6490.043688 82.779862 
L 6493.628654 100.109346 
L 6497.21362 125.944482 
L 6500.798587 125.573815 
L 6504.383553 124.438854 
L 6507.968519 127.499314 
L 6511.553485 133.318452 
L 6515.138452 109.431776 
L 6518.723418 142.375182 
L 6522.308384 129.198476 
L 6525.89335 133.28893 
L 6529.478317 132.5968 
L 6533.063283 131.317508 
L 6536.648249 121.04381 
L 6540.233216 99.259765 
L 6543.818182 111.875552 
L 6547.403148 102.540001 
L 6554.573081 148.788043 
L 6558.158047 121.621131 
L 6561.743013 146.504999 
L 6565.327979 110.924283 
L 6568.912946 152.832573 
L 6572.497912 116.746701 
L 6576.082878 126.948234 
L 6579.667845 143.690557 
L 6583.252811 107.306183 
L 6586.837777 145.645577 
L 6590.422743 117.5602 
L 6594.00771 126.577567 
L 6597.592676 158.878047 
L 6601.177642 158.694354 
L 6604.762608 154.31196 
L 6608.347575 142.440787 
L 6611.932541 135.184906 
L 6615.517507 136.870947 
L 6619.102473 144.248197 
L 6622.68744 114.614548 
L 6626.272406 139.124469 
L 6629.857372 157.467546 
L 6633.442339 146.065447 
L 6637.027305 165.343392 
L 6640.612271 168.003663 
L 6644.197237 171.30358 
L 6647.782204 165.645174 
L 6651.36717 188.065584 
L 6654.952136 176.676606 
L 6658.537102 188.068864 
L 6662.122069 181.701927 
L 6665.707035 156.463794 
L 6669.292001 144.399088 
L 6672.876968 159.124065 
L 6676.461934 158.835404 
L 6680.0469 136.952953 
L 6683.631866 145.196185 
L 6687.216833 197.909571 
L 6690.801799 156.034083 
L 6694.386765 140.285672 
L 6697.971731 140.636657 
L 6701.556698 136.867667 
L 6705.141664 156.198095 
L 6708.72663 164.720147 
L 6712.311597 160.675617 
L 6715.896563 164.395404 
L 6719.481529 138.370014 
L 6723.066495 143.992338 
L 6726.651462 125.465568 
L 6730.236428 193.087625 
L 6733.821394 167.393539 
L 6737.40636 185.523401 
L 6740.991327 160.02285 
L 6744.576293 137.966546 
L 6748.161259 164.831675 
L 6751.746226 126.659573 
L 6755.331192 164.254354 
L 6758.916158 141.289424 
L 6762.501124 168.210318 
L 6766.086091 176.079603 
L 6769.671057 148.381294 
L 6773.256023 130.326877 
L 6776.840989 155.955358 
L 6780.425956 132.285177 
L 6784.010922 174.685503 
L 6787.595888 182.630233 
L 6791.180854 175.76142 
L 6794.765821 143.811925 
L 6798.350787 148.909411 
L 6801.935753 153.770721 
L 6805.52072 169.752029 
L 6809.105686 186.441867 
L 6812.690652 159.799794 
L 6816.275618 170.575368 
L 6819.860585 149.155429 
L 6823.445551 143.191961 
L 6827.030517 129.031184 
L 6830.615483 111.639375 
L 6834.20045 144.84848 
L 6837.785416 137.559796 
L 6841.370382 143.552787 
L 6844.955349 139.862522 
L 6848.540315 124.52742 
L 6852.125281 111.665616 
L 6855.710247 136.992316 
L 6859.295214 152.294615 
L 6862.88018 163.263722 
L 6866.465146 134.145071 
L 6870.050112 145.363477 
L 6873.635079 138.497944 
L 6877.220045 139.318003 
L 6880.805011 117.793097 
L 6884.389978 158.697635 
L 6887.974944 159.199511 
L 6891.55991 151.543441 
L 6895.144876 126.298747 
L 6898.729843 126.298747 
L 6902.314809 89.812687 
L 6905.899775 124.310925 
L 6909.484741 131.858747 
L 6913.069708 161.289021 
L 6916.654674 139.094947 
L 6920.23964 138.160079 
L 6923.824606 122.703609 
L 6927.409573 133.764564 
L 6930.994539 127.919184 
L 6934.579505 96.051695 
L 6938.164472 129.628187 
L 6941.749438 144.943607 
L 6945.334404 139.718191 
L 6948.91937 156.703251 
L 6952.504337 126.1905 
L 6956.089303 134.873283 
L 6959.674269 108.956142 
L 6963.259235 151.80914 
L 6966.844202 137.832056 
L 6970.429168 138.291289 
L 6974.014134 157.365859 
L 6977.599101 118.554111 
L 6981.184067 124.114111 
L 6984.769033 126.623491 
L 6988.353999 136.132894 
L 6991.938966 156.873824 
L 6995.523932 162.870094 
L 6999.108898 133.643195 
L 7002.693864 141.325507 
L 7006.278831 112.853062 
L 7009.863797 129.624906 
L 7013.448763 162.876655 
L 7017.03373 161.466153 
L 7020.618696 144.99281 
L 7024.203662 122.205013 
L 7027.788628 134.627266 
L 7031.373595 126.115054 
L 7034.958561 119.590666 
L 7038.543527 128.617874 
L 7042.128493 155.043452 
L 7045.71346 137.002156 
L 7049.298426 134.154912 
L 7052.883392 159.566897 
L 7056.468358 130.448245 
L 7060.053325 124.258441 
L 7063.638291 159.75059 
L 7067.223257 157.441304 
L 7070.808224 120.532093 
L 7074.39319 114.056908 
L 7077.978156 118.39338 
L 7081.563122 112.669369 
L 7085.148089 122.283739 
L 7088.733055 144.422049 
L 7092.318021 130.78611 
L 7095.902987 148.322249 
L 7099.487954 122.516636 
L 7103.07292 161.462873 
L 7106.657886 142.230852 
L 7110.242853 119.92853 
L 7113.827819 81.989325 
L 7117.412785 124.160034 
L 7120.997751 101.359116 
L 7124.582718 107.585003 
L 7128.167684 137.044799 
L 7131.75265 122.900423 
L 7135.337616 104.786962 
L 7138.922583 166.320902 
L 7142.507549 149.293199 
L 7146.092515 157.034555 
L 7149.677482 145.839111 
L 7153.262448 142.030757 
L 7156.847414 133.99746 
L 7160.43238 82.228782 
L 7164.017347 120.000695 
L 7167.602313 133.492304 
L 7171.187279 143.008268 
L 7174.772245 144.763194 
L 7178.357212 127.148328 
L 7181.942178 105.534856 
L 7185.527144 134.092587 
L 7189.112111 118.859173 
L 7192.697077 127.72893 
L 7196.282043 137.310498 
L 7199.867009 143.664315 
L 7203.451976 132.990428 
L 7207.036942 123.261249 
L 7210.621908 112.876023 
L 7214.206874 112.744814 
L 7217.791841 110.169829 
L 7221.376807 127.322181 
L 7224.961773 124.268282 
L 7228.546739 131.242063 
L 7232.131706 125.734547 
L 7235.716672 104.908331 
L 7239.301638 109.080791 
L 7242.886605 121.115975 
L 7246.471571 122.72001 
L 7250.056537 131.081331 
L 7253.641503 146.65917 
L 7257.22647 137.47451 
L 7260.811436 114.394772 
L 7264.396402 122.031161 
L 7267.981368 142.119324 
L 7271.566335 157.274012 
L 7275.151301 152.537352 
L 7278.736267 140.282392 
L 7282.321234 88.45795 
L 7285.9062 110.681546 
L 7289.491166 99.856768 
L 7293.076132 121.109415 
L 7296.661099 154.8696 
L 7300.246065 158.868207 
L 7303.831031 165.094094 
L 7307.415997 156.201375 
L 7311.000964 100.168391 
L 7314.58593 132.908422 
L 7318.170896 90.583542 
L 7321.755863 112.042844 
L 7325.340829 136.795501 
L 7328.925795 113.587834 
L 7332.510761 116.936955 
L 7336.095728 84.318292 
L 7339.680694 119.856365 
L 7343.26566 150.129659 
L 7346.850626 137.182569 
L 7350.435593 147.374261 
L 7354.020559 156.27354 
L 7357.605525 143.628232 
L 7361.190491 132.613201 
L 7364.775458 109.681074 
L 7368.360424 85.223637 
L 7371.94539 124.091149 
L 7375.530357 113.227009 
L 7379.115323 120.679704 
L 7382.700289 145.835831 
L 7386.285255 145.202745 
L 7389.870222 107.296343 
L 7393.455188 125.747668 
L 7397.040154 104.255564 
L 7400.62512 133.695679 
L 7404.210087 107.581723 
L 7407.795053 114.565345 
L 7411.380019 120.263114 
L 7414.964986 120.197509 
L 7418.549952 100.109346 
L 7422.134918 95.913925 
L 7425.719884 153.308207 
L 7429.304851 157.146083 
L 7432.889817 155.515806 
L 7436.474783 142.06684 
L 7440.059749 109.795882 
L 7443.644716 108.628118 
L 7447.229682 109.651552 
L 7450.814648 127.0368 
L 7454.399615 107.703092 
L 7457.984581 104.918172 
L 7461.569547 111.57049 
L 7465.154513 104.832886 
L 7468.73948 94.749441 
L 7472.324446 109.21528 
L 7475.909412 94.693677 
L 7479.494378 152.698084 
L 7483.079345 116.530206 
L 7486.664311 106.735422 
L 7490.249277 95.359565 
L 7493.834243 97.855825 
L 7497.41921 127.807656 
L 7501.004176 66.178589 
L 7504.589142 98.295376 
L 7508.174109 116.484283 
L 7511.759075 114.384932 
L 7515.344041 130.891077 
L 7518.929007 92.062928 
L 7522.513974 74.526789 
L 7526.09894 100.699789 
L 7529.683906 118.022713 
L 7533.268872 133.407018 
L 7536.853839 121.778583 
L 7540.438805 124.507739 
L 7544.023771 107.001121 
L 7547.608738 86.266752 
L 7551.193704 96.215707 
L 7554.77867 125.521332 
L 7558.363636 158.63531 
L 7561.948603 141.499359 
L 7565.533569 129.847962 
L 7569.118535 117.15017 
L 7572.703501 120.728907 
L 7576.288468 141.994675 
L 7579.873434 143.090274 
L 7583.4584 110.720909 
L 7587.043367 115.418206 
L 7590.628333 117.911185 
L 7594.213299 91.816911 
L 7597.798265 133.226605 
L 7601.383232 156.526119 
L 7604.968198 140.882675 
L 7608.553164 126.866228 
L 7612.13813 150.729942 
L 7615.723097 98.734928 
L 7619.308063 143.559347 
L 7622.893029 95.097146 
L 7626.477996 122.047562 
L 7630.062962 108.060637 
L 7633.647928 113.463186 
L 7637.232894 153.429576 
L 7640.817861 118.26217 
L 7644.402827 133.259407 
L 7647.987793 97.144013 
L 7651.572759 131.189579 
L 7655.157726 112.954749 
L 7658.742692 147.859736 
L 7662.327658 132.570558 
L 7665.912624 119.026465 
L 7669.497591 98.613559 
L 7673.082557 65.558625 
L 7676.667523 86.834233 
L 7680.25249 120.151586 
L 7683.837456 122.15909 
L 7687.422422 130.50401 
L 7691.007388 138.143678 
L 7694.592355 138.740681 
L 7698.177321 113.10564 
L 7701.762287 112.206855 
L 7705.347253 106.597652 
L 7708.93222 134.876564 
L 7712.517186 134.341885 
L 7716.102152 118.606595 
L 7719.687119 96.625736 
L 7723.272085 125.649261 
L 7726.857051 101.473924 
L 7730.442017 155.702779 
L 7734.026984 156.617965 
L 7737.61195 135.512929 
L 7741.196916 138.622593 
L 7744.781882 160.783864 
L 7748.366849 124.79968 
L 7751.951815 97.360509 
L 7755.536781 101.769146 
L 7759.121748 113.190926 
L 7762.706714 103.140284 
L 7766.29168 101.55593 
L 7769.876646 130.79267 
L 7773.461613 104.035788 
L 7777.046579 107.217617 
L 7780.631545 97.718055 
L 7784.216511 130.146464 
L 7787.801478 141.158215 
L 7791.386444 134.54526 
L 7794.97141 111.960838 
L 7798.556376 96.583093 
L 7802.141343 87.152416 
L 7805.726309 106.220425 
L 7809.311275 115.208271 
L 7812.896242 137.75333 
L 7816.481208 123.490866 
L 7820.066174 153.813364 
L 7823.65114 106.98472 
L 7827.236107 112.26918 
L 7830.821073 115.575657 
L 7834.406039 98.246173 
L 7837.991005 110.583139 
L 7841.575972 128.155361 
L 7845.160938 104.452378 
L 7848.745904 83.649124 
L 7852.330871 101.69042 
L 7855.915837 111.337593 
L 7859.500803 102.375989 
L 7863.085769 125.855916 
L 7866.670736 111.212944 
L 7870.255702 114.138914 
L 7873.840668 114.542383 
L 7877.425634 108.247611 
L 7881.010601 83.183331 
L 7884.595567 96.389559 
L 7891.7655 114.670312 
L 7895.350466 125.478689 
L 7898.935432 103.606078 
L 7902.520398 79.899815 
L 7906.105365 64.528631 
L 7909.690331 88.503873 
L 7913.275297 133.393897 
L 7916.860263 112.475835 
L 7920.44523 131.160057 
L 7924.030196 123.959939 
L 7927.615162 89.264887 
L 7931.200128 53.388951 
L 7934.785095 99.04655 
L 7938.370061 69.186565 
L 7941.955027 128.28329 
L 7945.539994 105.656225 
L 7949.12496 154.079063 
L 7952.709926 92.873147 
L 7956.294892 121.503043 
L 7959.879859 100.99501 
L 7963.464825 125.137544 
L 7967.049791 106.988 
L 7970.634757 102.008603 
L 7974.219724 104.390054 
L 7977.80469 76.344039 
L 7981.389656 76.49165 
L 7984.974623 99.987978 
L 7988.559589 94.083554 
L 7992.144555 138.530746 
L 7995.729521 131.707856 
L 7999.314488 128.030712 
L 8002.899454 142.017636 
L 8006.48442 104.042349 
L 8010.069386 93.660403 
L 8013.654353 129.565862 
L 8017.239319 130.175986 
L 8020.824285 92.410633 
L 8024.409252 139.311442 
L 8027.994218 86.10274 
L 8031.579184 92.525442 
L 8035.16415 82.018847 
L 8038.749117 113.289333 
L 8042.334083 121.109415 
L 8045.919049 164.211711 
L 8049.504015 116.45148 
L 8053.088982 113.305734 
L 8056.673948 106.417239 
L 8060.258914 83.091484 
L 8063.843881 107.270101 
L 8067.428847 114.194678 
L 8071.013813 123.845131 
L 8074.598779 160.751062 
L 8078.183746 130.497449 
L 8081.768712 101.286951 
L 8085.353678 101.97252 
L 8088.938644 126.239703 
L 8092.523611 96.025453 
L 8096.108577 136.706935 
L 8099.693543 109.681074 
L 8103.278509 117.757014 
L 8106.863476 103.396142 
L 8110.448442 91.849713 
L 8114.033408 87.798622 
L 8117.618375 81.241431 
L 8121.203341 119.734996 
L 8124.788307 134.433732 
L 8128.373273 126.820305 
L 8131.95824 138.701318 
L 8135.543206 109.62203 
L 8139.128172 75.710954 
L 8142.713138 101.906916 
L 8146.298105 103.953783 
L 8149.883071 111.501605 
L 8153.468037 113.151563 
L 8157.053004 96.907836 
L 8160.63797 89.668356 
L 8164.222936 82.858587 
L 8167.807902 115.637982 
L 8171.392869 118.560672 
L 8174.977835 130.914039 
L 8178.562801 142.411265 
L 8182.147767 103.829134 
L 8185.732734 93.876899 
L 8189.3177 62.508006 
L 8192.902666 65.506141 
L 8196.487633 94.86753 
L 8200.072599 114.050348 
L 8203.657565 124.868565 
L 8207.242531 120.643621 
L 8210.827498 101.523128 
L 8214.412464 108.736366 
L 8217.99743 76.373562 
L 8221.582396 108.057357 
L 8225.167363 126.33155 
L 8228.752329 104.226042 
L 8232.337295 105.567658 
L 8235.922261 75.218919 
L 8239.507228 62.271829 
L 8243.092194 70.997255 
L 8246.67716 76.199709 
L 8250.262127 119.590666 
L 8253.847093 105.242915 
L 8257.432059 120.725627 
L 8261.017025 119.859645 
L 8264.601992 90.081666 
L 8268.186958 90.845961 
L 8271.771924 71.410565 
L 8275.35689 105.393806 
L 8278.941857 75.340287 
L 8282.526823 117.84558 
L 8286.111789 71.538494 
L 8289.696756 90.616345 
L 8293.281722 69.222648 
L 8296.866688 107.496437 
L 8300.451654 69.836052 
L 8304.036621 115.956165 
L 8307.621587 138.327371 
L 8311.206553 122.592081 
L 8314.791519 100.952367 
L 8318.376486 45.824727 
L 8321.961452 61.546897 
L 8325.546418 103.49455 
L 8329.131385 110.806195 
L 8332.716351 100.453771 
L 8336.301317 142.670403 
L 8339.886283 121.083173 
L 8343.47125 96.602775 
L 8347.056216 111.691858 
L 8350.641182 106.492685 
L 8354.226148 127.787974 
L 8357.811115 114.36525 
L 8361.396081 137.343301 
L 8364.981047 68.5502 
L 8368.566013 73.831379 
L 8372.15098 95.300521 
L 8375.735946 88.238174 
L 8379.320912 117.796377 
L 8382.905879 137.776292 
L 8386.490845 124.51758 
L 8390.075811 96.825831 
L 8393.660777 91.456085 
L 8400.83071 81.264393 
L 8404.415676 107.67685 
L 8408.000642 102.487517 
L 8411.585609 116.635173 
L 8415.170575 113.725604 
L 8418.755541 74.493987 
L 8422.340508 87.391873 
L 8425.925474 92.610728 
L 8429.51044 136.044327 
L 8433.095406 115.073781 
L 8436.680373 130.080859 
L 8440.265339 84.820168 
L 8443.850305 87.739578 
L 8447.435271 85.607425 
L 8451.020238 69.606436 
L 8454.605204 109.799162 
L 8458.19017 128.00775 
L 8461.775137 89.264887 
L 8465.360103 103.688083 
L 8468.945069 83.718009 
L 8472.530035 97.150574 
L 8476.115002 92.630409 
L 8479.699968 129.024623 
L 8483.284934 119.702194 
L 8486.8699 109.799162 
L 8490.454867 85.308923 
L 8494.039833 80.595225 
L 8497.624799 74.894175 
L 8501.209765 73.313102 
L 8504.794732 112.374147 
L 8508.379698 152.809612 
L 8511.964664 133.124918 
L 8515.549631 137.100563 
L 8519.134597 124.993214 
L 8522.719563 106.243387 
L 8526.304529 78.233455 
L 8529.889496 87.378752 
L 8533.474462 128.447302 
L 8537.059428 118.81653 
L 8540.644394 118.882135 
L 8544.229361 96.602775 
L 8547.814327 116.198902 
L 8551.399293 106.338514 
L 8554.98426 125.744388 
L 8558.569226 160.462401 
L 8562.154192 145.452043 
L 8565.739158 156.447393 
L 8569.324125 126.298747 
L 8572.909091 141.056527 
L 8576.494057 110.307599 
L 8580.079023 113.94538 
L 8583.66399 96.878314 
L 8587.248956 127.601001 
L 8590.833922 143.244445 
L 8594.418889 127.000718 
L 8601.588821 101.464084 
L 8605.173787 141.51248 
L 8608.758754 124.645509 
L 8612.34372 144.43845 
L 8615.928686 136.451077 
L 8619.513652 118.609875 
L 8623.098619 76.21283 
L 8626.683585 90.314563 
L 8630.268551 81.162706 
L 8633.853518 114.243882 
L 8637.438484 154.820396 
L 8641.02345 147.006875 
L 8644.608416 139.580421 
L 8648.193383 119.416813 
L 8651.778349 119.561144 
L 8655.363315 102.595765 
L 8658.948281 102.011883 
L 8662.533248 112.479115 
L 8666.118214 88.248014 
L 8669.70318 142.522793 
L 8673.288146 101.775706 
L 8676.873113 105.876001 
L 8680.458079 89.661796 
L 8684.043045 125.603338 
L 8687.628012 121.896671 
L 8691.212978 134.584623 
L 8694.797944 166.675168 
L 8701.967877 107.95239 
L 8705.552843 89.953737 
L 8709.137809 101.008131 
L 8712.722775 131.419195 
L 8716.307742 183.906245 
L 8719.892708 140.492327 
L 8723.477674 101.250868 
L 8727.062641 151.176054 
L 8730.647607 109.618749 
L 8734.232573 114.611268 
L 8737.817539 135.496528 
L 8741.402506 153.075311 
L 8744.987472 139.504976 
L 8748.572438 130.303915 
L 8752.157404 111.43928 
L 8755.742371 79.857172 
L 8759.327337 96.218987 
L 8762.912303 98.147766 
L 8766.49727 152.911299 
L 8770.082236 151.363028 
L 8773.667202 154.167629 
L 8777.252168 113.742006 
L 8780.837135 83.071803 
L 8784.422101 74.690801 
L 8788.007067 107.585003 
L 8791.592033 89.914374 
L 8795.177 113.833852 
L 8798.761966 106.853511 
L 8802.346932 93.539034 
L 8805.931898 91.187106 
L 8809.516865 98.666043 
L 8813.101831 109.786041 
L 8816.686797 97.212898 
L 8820.271764 110.340401 
L 8823.85673 115.785592 
L 8827.441696 114.056908 
L 8831.026662 56.216514 
L 8834.611629 90.734433 
L 8838.196595 77.18378 
L 8841.781561 91.357678 
L 8845.366527 124.205957 
L 8848.951494 140.272551 
L 8852.53646 108.037676 
L 8856.121426 85.233478 
L 8859.706393 55.084832 
L 8863.291359 60.76292 
L 8866.876325 104.718077 
L 8870.461291 115.670784 
L 8874.046258 107.968791 
L 8877.631224 89.127118 
L 8881.21619 64.79761 
L 8884.801156 78.341703 
L 8888.386123 68.710931 
L 8891.971089 104.603269 
L 8895.556055 111.137498 
L 8899.141022 123.093957 
L 8902.725988 134.174593 
L 8906.310954 85.751755 
L 8909.89592 77.479001 
L 8913.480887 79.617715 
L 8917.065853 105.242915 
L 8920.650819 88.257855 
L 8924.235785 106.246667 
L 8927.820752 102.39239 
L 8931.405718 110.553617 
L 8934.990684 64.968182 
L 8938.57565 94.601831 
L 8942.160617 92.735377 
L 8945.745583 122.047562 
L 8949.330549 131.921071 
L 8952.915516 119.082229 
L 8956.500482 129.093508 
L 8960.085448 65.781681 
L 8963.670414 66.568937 
L 8967.255381 97.921429 
L 8970.840347 121.985238 
L 8974.425313 114.516141 
L 8978.010279 126.423396 
L 8981.595246 82.510882 
L 8985.180212 103.832414 
L 8988.765178 58.479876 
L 8992.350145 113.899457 
L 8995.935111 112.190454 
L 8999.520077 133.859691 
L 9003.105043 121.988518 
L 9006.69001 125.931361 
L 9010.274976 69.859014 
L 9013.859942 71.840276 
L 9017.444908 60.936773 
L 9021.029875 104.990337 
L 9024.614841 105.73495 
L 9028.199807 104.432697 
L 9031.784774 116.366194 
L 9035.36974 102.139812 
L 9038.954706 81.818753 
L 9042.539672 94.414857 
L 9046.124639 110.419127 
L 9049.709605 122.077084 
L 9053.294571 109.126714 
L 9056.879537 107.82118 
L 9060.464504 91.183825 
L 9064.04947 80.342647 
L 9067.634436 62.229186 
L 9071.219403 102.267741 
L 9074.804369 109.231682 
L 9078.389335 137.382664 
L 9081.974301 117.776695 
L 9085.559268 129.792198 
L 9089.144234 85.53526 
L 9092.7292 92.604167 
L 9096.314166 104.524544 
L 9099.899133 106.505806 
L 9103.484099 132.413107 
L 9107.069065 123.96322 
L 9110.654031 118.639397 
L 9114.238998 111.950997 
L 9117.823964 94.145878 
L 9121.40893 118.380259 
L 9124.993897 134.558381 
L 9128.578863 148.394414 
L 9132.163829 133.882652 
L 9135.748795 132.924823 
L 9139.333762 114.932731 
L 9142.918728 79.302812 
L 9146.503694 117.264979 
L 9150.08866 108.283694 
L 9153.673627 143.808645 
L 9157.258593 152.596396 
L 9160.843559 152.917859 
L 9164.428526 110.842277 
L 9168.013492 100.132308 
L 9171.598458 120.049899 
L 9175.183424 115.851197 
L 9178.768391 148.089353 
L 9182.353357 158.812443 
L 9185.938323 115.273876 
L 9189.523289 104.258844 
L 9193.108256 90.340805 
L 9196.693222 91.977642 
L 9200.278188 117.737333 
L 9203.863155 121.352152 
L 9207.448121 128.831089 
L 9211.033087 167.741244 
L 9214.618053 140.344716 
L 9218.20302 92.869866 
L 9221.787986 103.461747 
L 9225.372952 103.317417 
L 9228.957918 135.857354 
L 9232.542885 138.206003 
L 9236.127851 125.757509 
L 9239.712817 137.33018 
L 9243.297783 97.973913 
L 9246.88275 81.031496 
L 9250.467716 102.825381 
L 9257.637649 170.355592 
L 9261.222615 152.527511 
L 9264.807581 128.28001 
L 9268.392547 119.974453 
L 9271.977514 69.173444 
L 9275.56248 85.82392 
L 9279.147446 107.81462 
L 9282.732412 141.295985 
L 9286.317379 143.982498 
L 9289.902345 124.458535 
L 9293.487311 109.248083 
L 9297.072278 103.904579 
L 9300.657244 97.166975 
L 9304.24221 113.853534 
L 9307.827176 117.940707 
L 9311.412143 167.029433 
L 9314.997109 134.200835 
L 9318.582075 125.035857 
L 9322.167041 94.214763 
L 9325.752008 111.99692 
L 9329.336974 109.461298 
L 9332.92194 156.736054 
L 9336.506907 141.971713 
L 9340.091873 133.233166 
L 9343.676839 119.912129 
L 9347.261805 112.938348 
L 9350.846772 86.739106 
L 9354.431738 90.855802 
L 9358.016704 81.290635 
L 9361.60167 120.591138 
L 9365.186637 126.925272 
L 9368.771603 91.780828 
L 9372.356569 103.133724 
L 9375.941535 76.094742 
L 9379.526502 117.438831 
L 9383.111468 143.703678 
L 9386.696434 136.178817 
L 9390.281401 145.996562 
L 9393.866367 103.684803 
L 9397.451333 125.058818 
L 9401.036299 86.401242 
L 9404.621266 94.234444 
L 9408.206232 116.848389 
L 9411.791198 109.248083 
L 9415.376164 142.673684 
L 9418.961131 138.691478 
L 9422.546097 106.584531 
L 9426.131063 112.807138 
L 9429.71603 76.294836 
L 9433.300996 116.818867 
L 9436.885962 128.207845 
L 9440.470928 143.434698 
L 9444.055895 106.020331 
L 9447.640861 87.975755 
L 9451.225827 99.154798 
L 9454.810793 126.302028 
L 9458.39576 112.383988 
L 9461.980726 126.452919 
L 9465.565692 141.974993 
L 9469.150659 141.191017 
L 9472.735625 130.828753 
L 9476.320591 114.08315 
L 9479.905557 103.701204 
L 9483.490524 109.805723 
L 9487.07549 99.889571 
L 9490.660456 143.280527 
L 9494.245422 159.258555 
L 9497.830389 131.169897 
L 9501.415355 131.127254 
L 9505.000321 99.961736 
L 9508.585288 113.056436 
L 9512.170254 160.767463 
L 9515.75522 161.83682 
L 9519.340186 175.279225 
L 9522.925153 131.032127 
L 9526.510119 128.883573 
L 9530.095085 118.452424 
L 9533.680051 122.900423 
L 9537.265018 140.449684 
L 9540.849984 154.984408 
L 9544.43495 152.396302 
L 9548.019916 113.597675 
L 9551.604883 138.576669 
L 9555.189849 91.334716 
L 9558.774815 110.907882 
L 9562.359782 136.943112 
L 9565.944748 130.320316 
L 9569.529714 127.295939 
L 9573.11468 118.606595 
L 9576.699647 95.959848 
L 9580.284613 121.096294 
L 9583.869579 105.101865 
L 9587.454545 132.760812 
L 9587.454545 132.760812 
" clip-path="url(#p2d18c5568a)" style="fill: none; stroke: #1f77b4; stroke-width: 1.5; stroke-linecap: square"/>
   </g>
  </g>
 </g>
 <defs>
  <clipPath id="p2d18c5568a">
   <rect x="0" y="-0" width="10044" height="221.76"/>
  </clipPath>
 </defs>
</svg>
