<?xml version="1.0" encoding="utf-8" standalone="no"?>
<!DOCTYPE svg PUBLIC "-//W3C//DTD SVG 1.1//EN"
  "http://www.w3.org/Graphics/SVG/1.1/DTD/svg11.dtd">
<svg xmlns:xlink="http://www.w3.org/1999/xlink" width="10044pt" height="221.76pt" viewBox="0 0 10044 221.76" xmlns="http://www.w3.org/2000/svg" version="1.1">
 <metadata>
  <rdf:RDF xmlns:dc="http://purl.org/dc/elements/1.1/" xmlns:cc="http://creativecommons.org/ns#" xmlns:rdf="http://www.w3.org/1999/02/22-rdf-syntax-ns#">
   <cc:Work>
    <dc:type rdf:resource="http://purl.org/dc/dcmitype/StillImage"/>
    <dc:date>2025-08-12T08:23:40.428843</dc:date>
    <dc:format>image/svg+xml</dc:format>
    <dc:creator>
     <cc:Agent>
      <dc:title>Matplotlib v3.9.2, https://matplotlib.org/</dc:title>
     </cc:Agent>
    </dc:creator>
   </cc:Work>
  </rdf:RDF>
 </metadata>
 <defs>
  <style type="text/css">*{stroke-linejoin: round; stroke-linecap: butt}</style>
 </defs>
 <g id="figure_1">
  <g id="patch_1">
   <path d="M 0 221.76 
L 10044 221.76 
L 10044 0 
L 0 0 
z
" style="fill: #ffffff"/>
  </g>
  <g id="axes_1">
   <g id="line2d_1">
    <path d="M 456.545455 111.823379 
L 460.130421 120.420702 
L 463.715387 82.355377 
L 467.300353 119.996182 
L 470.88532 139.561853 
L 474.470286 124.75081 
L 478.055252 207.683219 
L 481.640218 157.086682 
L 485.225185 148.200056 
L 488.810151 131.851306 
L 492.395117 100.97138 
L 495.980084 121.857782 
L 499.56505 133.253795 
L 503.150016 101.138044 
L 506.734982 145.60891 
L 510.319949 149.850969 
L 513.904915 92.980964 
L 517.489881 127.209883 
L 521.074847 95.565821 
L 524.659814 112.710154 
L 528.24478 161.737539 
L 531.829746 160.011156 
L 535.414712 141.068114 
L 538.999679 96.697876 
L 542.584645 93.075302 
L 546.169611 101.310997 
L 549.754578 117.644024 
L 553.339544 136.876369 
L 556.92451 150.11197 
L 560.509476 146.294431 
L 564.094443 100.169509 
L 567.679409 89.320655 
L 571.264375 110.524661 
L 574.849341 123.794853 
L 578.434308 126.901713 
L 582.019274 176.168086 
L 585.60424 95.679027 
L 589.189207 54.55401 
L 592.774173 49.220777 
L 596.359139 54.40307 
L 599.944105 97.707291 
L 603.529072 139.250538 
L 607.114038 118.304389 
L 610.699004 169.910342 
L 614.28397 106.861207 
L 617.868937 96.449453 
L 621.453903 35.692728 
L 625.038869 81.660421 
L 628.623836 116.216378 
L 632.208802 131.756968 
L 635.793768 95.597267 
L 639.378734 102.660028 
L 642.963701 81.257913 
L 646.548667 87.638297 
L 650.133633 143.992588 
L 653.718599 157.533215 
L 657.303566 138.986392 
L 660.888532 137.260009 
L 664.473498 118.735199 
L 668.058465 56.142031 
L 671.643431 57.110566 
L 675.228397 90.757735 
L 678.813363 107.88949 
L 682.39833 91.392943 
L 685.983296 119.596818 
L 689.568262 100.210388 
L 693.153228 96.770201 
L 696.738195 96.367693 
L 700.323161 101.386467 
L 703.908127 120.713149 
L 707.493093 145.168666 
L 711.07806 113.071783 
L 714.663026 79.009527 
L 718.247992 77.918353 
L 721.832959 42.500777 
L 725.417925 70.541132 
L 729.002891 140.879438 
L 732.587857 142.983173 
L 736.172824 141.794516 
L 739.75779 123.769696 
L 743.342756 116.565428 
L 746.927722 117.67547 
L 750.512689 91.697969 
L 754.097655 104.106542 
L 757.682621 113.411399 
L 761.267588 109.203931 
L 764.852554 97.36453 
L 768.43752 88.462181 
L 772.022486 37.985138 
L 775.607453 70.607169 
L 779.192419 76.509574 
L 782.777385 143.052354 
L 786.362351 152.797454 
L 789.947318 149.797511 
L 793.532284 143.068077 
L 797.11725 94.745082 
L 800.702217 82.616378 
L 804.287183 95.458905 
L 807.872149 75.846065 
L 811.457115 123.404923 
L 815.042082 142.832232 
L 818.627048 99.298456 
L 822.212014 98.285896 
L 825.79698 81.776771 
L 829.381947 113.414544 
L 832.966913 136.005316 
L 836.551879 126.200468 
L 840.136845 143.241029 
L 843.721812 104.58452 
L 847.306778 45.422106 
L 850.891744 55.4911 
L 854.476711 78.673056 
L 858.061677 109.370594 
L 861.646643 149.684305 
L 865.231609 159.580346 
L 868.816576 196.268339 
L 872.401542 146.586879 
L 875.986508 117.540253 
L 879.571474 98.559476 
L 883.156441 121.782312 
L 886.741407 119.936434 
L 890.326373 99.210407 
L 893.91134 106.034179 
L 897.496306 68.006589 
L 901.081272 78.540983 
L 904.666238 107.235414 
L 908.251205 111.5781 
L 911.836171 124.86716 
L 915.421137 151.942124 
L 919.006103 159.526888 
L 922.59107 141.036668 
L 926.176036 147.634029 
L 929.761002 86.911895 
L 933.345969 63.110454 
L 936.930935 99.700964 
L 940.515901 128.370239 
L 944.100867 130.326177 
L 947.685834 95.921161 
L 951.2708 122.593617 
L 954.855766 113.049771 
L 958.440732 123.376621 
L 962.025699 137.621638 
L 965.610665 151.049059 
L 969.195631 163.467066 
L 972.780597 109.622162 
L 976.365564 63.305419 
L 979.95053 94.804829 
L 983.535496 64.685896 
L 987.120463 104.35182 
L 990.705429 104.282639 
L 994.290395 119.958446 
L 997.875361 157.165297 
L 1001.460328 124.00554 
L 1005.045294 148.687468 
L 1008.63026 81.889977 
L 1012.215226 116.97737 
L 1015.800193 97.795339 
L 1019.385159 131.002265 
L 1022.970125 101.748095 
L 1026.555092 99.084623 
L 1030.140058 64.214207 
L 1033.725024 82.619523 
L 1037.30999 76.682527 
L 1040.894957 100.760693 
L 1044.479923 160.224988 
L 1048.064889 159.086645 
L 1051.649855 147.866729 
L 1055.234822 93.056434 
L 1058.819788 88.531362 
L 1062.404754 90.09737 
L 1065.989721 120.477305 
L 1069.574687 130.099766 
L 1076.744619 90.286046 
L 1080.329586 118.735199 
L 1083.914552 97.219878 
L 1087.499518 137.432962 
L 1091.084484 146.756687 
L 1094.669451 164.919869 
L 1098.254417 130.222405 
L 1101.839383 110.06555 
L 1105.42435 92.065887 
L 1109.009316 54.821301 
L 1112.594282 100.833018 
L 1116.179248 105.222873 
L 1119.764215 131.382761 
L 1123.349181 141.907721 
L 1126.934147 134.838671 
L 1130.519113 106.590772 
L 1134.10408 95.043818 
L 1137.689046 129.090351 
L 1141.274012 145.737838 
L 1144.858978 98.697838 
L 1148.443945 104.461881 
L 1152.028911 118.043388 
L 1155.613877 43.843519 
L 1159.198844 83.349069 
L 1162.78381 89.377258 
L 1166.368776 132.854431 
L 1169.953742 115.452241 
L 1173.538709 147.756668 
L 1177.123675 159.530033 
L 1180.708641 162.457651 
L 1184.293607 96.870828 
L 1187.878574 94.065849 
L 1191.46354 71.220365 
L 1195.048506 64.597847 
L 1198.633473 104.810931 
L 1202.218439 113.181844 
L 1205.803405 98.292185 
L 1209.388371 72.682602 
L 1212.973338 113.44599 
L 1216.558304 150.615105 
L 1220.14327 104.241759 
L 1223.728236 155.102443 
L 1227.313203 104.870679 
L 1230.898169 104.886401 
L 1234.483135 113.034048 
L 1238.068102 90.232588 
L 1241.653068 89.188582 
L 1245.238034 105.634815 
L 1248.823 129.005447 
L 1252.407967 122.904932 
L 1255.992933 131.800992 
L 1259.577899 112.729022 
L 1263.162865 126.76335 
L 1266.747832 122.496135 
L 1270.332798 103.273224 
L 1273.917764 88.672869 
L 1277.50273 110.37372 
L 1281.087697 91.528161 
L 1284.672663 95.166458 
L 1288.257629 73.157436 
L 1291.842596 59.456434 
L 1295.427562 106.420964 
L 1299.012528 102.732354 
L 1302.597494 161.353898 
L 1306.182461 136.605934 
L 1309.767427 180.010781 
L 1313.352393 164.743772 
L 1316.937359 120.958428 
L 1320.522326 124.357735 
L 1324.107292 108.886327 
L 1327.692258 99.515433 
L 1331.277225 117.489939 
L 1334.862191 109.870585 
L 1338.447157 116.219523 
L 1342.032123 111.068676 
L 1345.61709 137.596481 
L 1352.787022 136.373234 
L 1356.371988 102.785812 
L 1359.956955 108.037286 
L 1363.541921 46.214544 
L 1367.126887 94.028114 
L 1370.711854 54.264708 
L 1374.29682 99.018587 
L 1377.881786 88.572241 
L 1381.466752 108.049864 
L 1385.051719 139.329153 
L 1388.636685 155.385456 
L 1392.221651 115.483687 
L 1395.806617 130.285297 
L 1399.391584 149.596256 
L 1402.97655 137.693964 
L 1406.561516 134.873262 
L 1410.146482 116.97737 
L 1413.731449 71.399607 
L 1417.316415 69.299017 
L 1420.901381 76.434104 
L 1424.486348 109.065569 
L 1428.071314 166.105381 
L 1431.65628 162.34759 
L 1435.241246 151.086795 
L 1438.826213 166.621095 
L 1442.411179 118.090557 
L 1445.996145 100.600318 
L 1449.581111 114.442826 
L 1453.166078 87.606851 
L 1456.751044 105.276331 
L 1460.33601 59.151409 
L 1463.920977 83.518877 
L 1467.505943 93.157061 
L 1471.090909 87.069125 
L 1474.675875 122.055891 
L 1478.260842 121.87665 
L 1481.845808 126.716182 
L 1485.430774 140.838559 
L 1489.01574 90.518746 
L 1492.600707 95.921161 
L 1496.185673 41.639158 
L 1499.770639 100.31416 
L 1503.355606 105.983865 
L 1506.940572 99.465119 
L 1510.525538 97.63182 
L 1514.110504 100.590884 
L 1517.695471 114.879925 
L 1521.280437 138.326027 
L 1524.865403 143.011474 
L 1528.450369 128.549481 
L 1532.035336 146.278708 
L 1535.620302 111.779354 
L 1539.205268 84.62263 
L 1542.790235 89.490463 
L 1546.375201 64.594703 
L 1549.960167 127.090388 
L 1553.545133 105.314066 
L 1557.1301 119.379841 
L 1560.715066 163.82555 
L 1564.300032 134.499055 
L 1567.884998 150.479888 
L 1571.469965 115.804436 
L 1575.054931 82.286196 
L 1578.639897 89.015629 
L 1582.224863 97.663266 
L 1585.80983 93.889752 
L 1589.394796 60.358933 
L 1592.979762 82.333365 
L 1596.564729 82.660402 
L 1600.149695 104.241759 
L 1603.734661 116.634609 
L 1607.319627 149.637136 
L 1610.904594 142.788208 
L 1614.48956 123.879757 
L 1618.074526 86.52511 
L 1621.659492 76.176247 
L 1625.244459 64.57898 
L 1628.829425 99.515433 
L 1632.414391 56.447057 
L 1635.999358 155.954628 
L 1639.584324 121.829481 
L 1643.16929 99.814169 
L 1646.754256 135.895255 
L 1650.339223 138.970669 
L 1653.924189 126.766495 
L 1657.509155 131.885896 
L 1661.094121 139.615311 
L 1664.679088 98.798465 
L 1668.264054 72.355564 
L 1671.84902 72.795807 
L 1675.433987 81.915133 
L 1679.018953 56.239513 
L 1682.603919 97.974581 
L 1686.188885 118.791802 
L 1689.773852 142.596387 
L 1693.358818 157.143285 
L 1696.943784 146.759832 
L 1700.52875 105.722864 
L 1704.113717 145.187534 
L 1707.698683 114.273018 
L 1711.283649 145.329041 
L 1714.868615 124.769677 
L 1718.453582 113.373664 
L 1722.038548 83.663528 
L 1725.623514 125.779092 
L 1729.208481 105.100234 
L 1732.793447 146.832157 
L 1736.378413 200.626748 
L 1739.963379 181.199438 
L 1743.548346 188.781058 
L 1747.133312 120.543341 
L 1750.718278 152.580477 
L 1754.303244 123.58102 
L 1757.888211 130.363912 
L 1761.473177 126.464614 
L 1765.058143 147.917043 
L 1768.64311 138.376341 
L 1772.228076 131.775835 
L 1775.813042 143.341657 
L 1779.398008 125.882864 
L 1782.982975 206.242995 
L 1786.567941 177.658624 
L 1790.152907 168.863191 
L 1793.737873 125.942611 
L 1797.32284 94.540683 
L 1800.907806 103.053102 
L 1804.492772 83.044043 
L 1808.077739 84.355339 
L 1811.662705 89.880393 
L 1815.247671 119.379841 
L 1818.832637 102.109724 
L 1822.417604 133.734918 
L 1826.00257 139.822854 
L 1829.587536 120.967861 
L 1833.172502 107.288872 
L 1836.757469 113.049771 
L 1840.342435 107.285728 
L 1843.927401 105.493308 
L 1847.512367 109.858007 
L 1851.097334 54.821301 
L 1854.6823 52.104371 
L 1858.267266 119.565372 
L 1861.852233 141.83854 
L 1865.437199 176.888198 
L 1869.022165 141.137295 
L 1872.607131 129.203556 
L 1876.192098 101.606589 
L 1879.777064 100.930501 
L 1883.36203 117.184913 
L 1886.946996 94.248236 
L 1890.531963 95.26394 
L 1894.116929 84.213832 
L 1897.701895 121.09679 
L 1901.286862 102.575124 
L 1904.871828 125.002377 
L 1908.456794 113.068638 
L 1912.04176 155.995508 
L 1915.626727 136.951839 
L 1922.796659 103.182031 
L 1926.381625 89.59738 
L 1929.966592 72.453046 
L 1933.551558 95.068975 
L 1937.136524 112.00262 
L 1940.721491 105.958708 
L 1944.306457 76.059897 
L 1947.891423 127.650126 
L 1951.476389 132.621731 
L 1955.061356 102.493365 
L 1958.646322 143.646682 
L 1962.231288 138.860608 
L 1965.816254 86.644605 
L 1969.401221 87.210632 
L 1972.986187 89.078521 
L 1976.571153 74.163706 
L 1980.156119 80.581825 
L 1983.741086 90.635096 
L 1987.326052 124.43635 
L 1990.911018 111.741619 
L 1994.495985 141.725335 
L 1998.080951 164.231203 
L 2001.665917 157.976603 
L 2005.250883 134.313524 
L 2008.83585 135.206589 
L 2012.420816 83.861638 
L 2016.005782 78.361741 
L 2019.590748 121.659672 
L 2023.175715 60.553898 
L 2026.760681 97.128685 
L 2030.345647 113.449134 
L 2033.930614 115.826448 
L 2037.51558 121.027609 
L 2041.100546 154.181076 
L 2044.685512 155.536397 
L 2048.270479 164.184034 
L 2051.855445 98.905381 
L 2055.440411 89.078521 
L 2059.025377 56.154609 
L 2062.610344 37.415966 
L 2066.19531 87.795526 
L 2069.780276 68.236144 
L 2073.365243 102.383304 
L 2076.950209 99.562602 
L 2080.535175 91.531306 
L 2084.120141 127.030641 
L 2087.705108 114.002583 
L 2091.290074 137.426673 
L 2094.87504 147.58686 
L 2098.460006 112.260477 
L 2102.044973 96.418007 
L 2105.629939 37.937969 
L 2109.214905 87.820683 
L 2112.799872 85.924492 
L 2116.384838 124.832569 
L 2119.969804 114.273018 
L 2123.55477 133.517941 
L 2127.139737 136.231727 
L 2130.724703 91.424389 
L 2134.309669 113.785606 
L 2137.894635 83.65095 
L 2141.479602 87.591128 
L 2145.064568 62.468956 
L 2148.649534 114.210126 
L 2152.2345 59.783472 
L 2155.819467 49.9346 
L 2159.404433 64.69533 
L 2162.989399 104.97445 
L 2166.574366 96.169584 
L 2170.159332 166.50789 
L 2173.744298 170.105307 
L 2177.329264 138.558727 
L 2180.914231 120.511895 
L 2184.499197 68.563182 
L 2188.084163 40.104595 
L 2191.669129 34.221058 
L 2195.254096 85.254693 
L 2198.839062 88.792363 
L 2202.424028 78.943491 
L 2206.008995 89.28292 
L 2209.593961 87.383584 
L 2213.178927 130.892204 
L 2216.763893 114.486851 
L 2220.34886 119.911277 
L 2223.933826 99.628638 
L 2227.518792 96.326813 
L 2231.103758 104.414712 
L 2234.688725 64.648161 
L 2238.273691 60.211137 
L 2241.858657 90.672831 
L 2245.443624 127.291642 
L 2249.02859 158.19358 
L 2252.613556 122.656509 
L 2256.198522 133.511652 
L 2259.783489 108.656771 
L 2263.368455 117.55912 
L 2266.953421 115.109481 
L 2270.538387 95.672737 
L 2274.123354 137.936097 
L 2277.70832 116.876743 
L 2281.293286 108.854881 
L 2284.878252 97.002901 
L 2288.463219 112.207019 
L 2292.048185 88.207468 
L 2295.633151 139.083875 
L 2299.218118 160.775292 
L 2302.803084 154.778549 
L 2306.38805 151.728292 
L 2309.973016 110.88 
L 2313.557983 105.898961 
L 2317.142949 73.764343 
L 2320.727915 81.94029 
L 2324.312881 107.744839 
L 2327.897848 141.932878 
L 2331.482814 122.873486 
L 2335.06778 118.738343 
L 2338.652747 118.927019 
L 2342.237713 88.084829 
L 2345.822679 143.011474 
L 2349.407645 162.470229 
L 2352.992612 171.146168 
L 2356.577578 120.320075 
L 2360.162544 100.543715 
L 2363.74751 64.648161 
L 2367.332477 65.421731 
L 2370.917443 87.952756 
L 2374.502409 121.731998 
L 2378.087376 149.171736 
L 2381.672342 157.734469 
L 2385.257308 136.505307 
L 2388.842274 130.244417 
L 2392.427241 106.279457 
L 2399.597173 116.905044 
L 2403.182139 123.068451 
L 2406.767106 89.660271 
L 2410.352072 122.464689 
L 2413.937038 60.739429 
L 2421.106971 116.78555 
L 2424.691937 137.348058 
L 2428.276903 118.851549 
L 2431.86187 152.624502 
L 2435.446836 169.378905 
L 2439.031802 103.84554 
L 2442.616768 87.858418 
L 2446.201735 97.71358 
L 2449.786701 81.562939 
L 2453.371667 131.911053 
L 2456.956633 139.942349 
L 2460.5416 162.419916 
L 2464.126566 100.644343 
L 2467.711532 114.040318 
L 2471.296499 116.144052 
L 2474.881465 110.012092 
L 2478.466431 163.910454 
L 2482.051397 150.520767 
L 2485.636364 134.326102 
L 2489.22133 92.877192 
L 2492.806296 81.597529 
L 2496.391262 37.318484 
L 2499.976229 101.531118 
L 2503.561195 138.42351 
L 2507.146161 127.345101 
L 2510.731128 153.721965 
L 2514.316094 141.502068 
L 2517.90106 132.200356 
L 2521.486026 131.118615 
L 2525.070993 148.583697 
L 2528.655959 138.272569 
L 2532.240925 155.171624 
L 2535.825891 86.603725 
L 2539.410858 105.093945 
L 2542.995824 70.679495 
L 2546.58079 76.056752 
L 2550.165757 67.361947 
L 2553.750723 133.593411 
L 2557.335689 127.430005 
L 2560.920655 167.489003 
L 2564.505622 156.938886 
L 2568.090588 101.191502 
L 2571.675554 75.805185 
L 2575.26052 74.333514 
L 2578.845487 84.066036 
L 2582.430453 94.638166 
L 2586.015419 127.879682 
L 2589.600385 141.734768 
L 2593.185352 119.436444 
L 2596.770318 183.183678 
L 2600.355284 141.033524 
L 2603.940251 170.4292 
L 2607.525217 190.982274 
L 2611.110183 180.407 
L 2618.280116 129.389088 
L 2621.865082 91.515583 
L 2625.450048 63.679626 
L 2629.035014 136.153112 
L 2632.619981 148.40131 
L 2636.204947 169.152494 
L 2639.789913 182.919532 
L 2643.37488 154.240824 
L 2646.959846 173.749892 
L 2650.544812 154.159064 
L 2654.129778 150.530201 
L 2657.714745 188.991745 
L 2661.299711 205.77445 
L 2664.884677 180.765484 
L 2668.469643 145.634066 
L 2672.05461 135.766327 
L 2675.639576 83.213851 
L 2679.224542 130.077754 
L 2682.809509 140.467496 
L 2686.394475 193.26525 
L 2689.979441 182.013889 
L 2693.564407 211.076238 
L 2697.149374 173.124118 
L 2700.73434 154.725091 
L 2704.319306 134.376416 
L 2707.904272 111.301376 
L 2711.489239 132.596575 
L 2715.074205 133.68146 
L 2718.659171 147.284979 
L 2722.244137 131.653196 
L 2725.829104 116.848442 
L 2729.41407 113.839064 
L 2732.999036 140.609003 
L 2736.584003 156.376004 
L 2740.168969 199.99154 
L 2743.753935 153.605615 
L 2747.338901 122.077904 
L 2750.923868 106.672532 
L 2754.508834 74.559925 
L 2758.0938 60.437548 
L 2761.678766 108.247974 
L 2765.263733 150.454731 
L 2768.848699 137.203407 
L 2772.433665 150.033355 
L 2776.018632 101.273262 
L 2779.603598 106.446121 
L 2783.188564 112.574937 
L 2786.77353 135.709724 
L 2790.358497 152.498718 
L 2793.943463 124.062143 
L 2797.528429 131.172073 
L 2801.113395 90.594216 
L 2804.698362 57.167169 
L 2808.283328 66.418568 
L 2811.868294 111.505774 
L 2815.453261 133.690894 
L 2819.038227 140.348002 
L 2822.623193 102.263809 
L 2826.208159 134.477043 
L 2829.793126 99.961965 
L 2833.378092 88.314385 
L 2836.963058 98.380234 
L 2840.548024 135.260047 
L 2844.132991 122.798016 
L 2847.717957 107.851755 
L 2851.302923 104.949293 
L 2854.887889 90.226299 
L 2858.472856 93.352026 
L 2862.057822 152.398091 
L 2865.642788 144.307047 
L 2869.227755 121.848348 
L 2872.812721 170.278259 
L 2876.397687 120.505606 
L 2879.982653 96.037511 
L 2883.56762 65.673299 
L 2887.152586 117.939616 
L 2890.737552 107.172522 
L 2894.322518 88.46847 
L 2897.907485 161.803575 
L 2901.492451 124.936341 
L 2905.077417 124.656472 
L 2908.662384 112.54978 
L 2912.24735 114.600056 
L 2915.832316 190.177258 
L 2919.417282 158.935704 
L 2923.002249 156.596125 
L 2926.587215 132.756949 
L 2930.172181 74.487599 
L 2933.757147 112.505756 
L 2937.342114 119.999326 
L 2940.92708 142.65299 
L 2944.512046 139.467515 
L 2948.097013 163.90102 
L 2951.681979 119.73518 
L 2955.266945 94.836275 
L 2958.851911 82.710716 
L 2962.436878 85.053439 
L 2966.021844 77.940365 
L 2969.60681 110.005803 
L 2973.191776 118.037099 
L 2976.776743 90.260889 
L 2980.361709 70.493964 
L 2983.946675 86.220084 
L 2987.531642 85.308152 
L 2991.116608 138.06817 
L 2994.701574 120.911259 
L 2998.28654 141.64672 
L 3001.871507 131.219242 
L 3005.456473 99.377071 
L 3009.041439 86.235807 
L 3012.626405 43.893832 
L 3016.211372 60.346355 
L 3019.796338 113.458568 
L 3023.381304 110.279382 
L 3026.96627 139.671914 
L 3030.551237 135.31036 
L 3034.136203 103.266935 
L 3037.721169 91.635077 
L 3041.306136 125.046401 
L 3044.891102 115.571736 
L 3048.476068 135.97387 
L 3052.061034 93.20423 
L 3055.646001 101.748095 
L 3059.230967 76.396369 
L 3062.815933 56.720636 
L 3066.400899 82.393112 
L 3069.985866 96.612971 
L 3073.570832 167.70598 
L 3077.155798 122.860908 
L 3080.740765 127.93314 
L 3084.325731 90.64453 
L 3087.910697 84.606907 
L 3091.495663 89.710585 
L 3095.08063 109.090725 
L 3098.665596 106.068769 
L 3102.250562 111.574956 
L 3105.835528 94.933758 
L 3109.420495 72.915302 
L 3113.005461 57.201759 
L 3116.590427 80.081834 
L 3120.175394 145.181245 
L 3123.76036 136.55562 
L 3127.345326 139.200225 
L 3130.930292 109.659897 
L 3134.515259 78.720225 
L 3138.100225 45.088779 
L 3141.685191 73.148002 
L 3145.270157 56.079139 
L 3148.855124 100.477679 
L 3152.44009 107.125353 
L 3156.025056 125.071558 
L 3159.610022 85.481104 
L 3163.194989 95.42117 
L 3166.779955 100.383341 
L 3170.364921 111.266785 
L 3173.949888 102.153748 
L 3177.534854 126.058961 
L 3181.11982 112.354815 
L 3184.704786 103.732335 
L 3188.289753 63.519251 
L 3191.874719 59.289771 
L 3195.459685 95.3457 
L 3199.044651 79.176191 
L 3202.629618 120.188002 
L 3206.214584 162.800412 
L 3209.79955 136.43927 
L 3213.384517 102.826692 
L 3216.969483 78.446645 
L 3220.554449 92.097333 
L 3224.139415 103.207188 
L 3227.724382 89.880393 
L 3231.309348 72.666879 
L 3234.894314 110.527805 
L 3238.47928 63.368311 
L 3242.064247 104.314085 
L 3245.649213 77.223397 
L 3249.234179 122.681666 
L 3252.819146 154.259691 
L 3256.404112 121.37037 
L 3259.989078 119.562227 
L 3263.574044 122.672232 
L 3267.159011 61.173383 
L 3270.743977 38.415948 
L 3274.328943 66.198446 
L 3277.913909 89.462162 
L 3281.498876 98.081497 
L 3285.083842 90.210576 
L 3288.668808 83.540889 
L 3292.253774 96.650707 
L 3295.838741 82.842789 
L 3299.423707 104.499616 
L 3303.008673 123.901769 
L 3306.59364 130.917361 
L 3310.178606 73.119701 
L 3313.763572 114.188114 
L 3317.348538 47.142199 
L 3320.933505 66.585232 
L 3324.518471 71.280112 
L 3328.103437 62.223678 
L 3331.688403 106.37694 
L 3335.27337 99.285877 
L 3338.858336 140.175049 
L 3342.443302 130.517997 
L 3346.028269 100.329883 
L 3349.613235 73.182592 
L 3353.198201 107.974394 
L 3356.783167 115.128348 
L 3360.368134 96.292223 
L 3363.9531 66.846233 
L 3367.538066 85.779841 
L 3371.123032 75.836631 
L 3374.707999 75.997005 
L 3378.292965 120.360955 
L 3381.877931 126.080973 
L 3385.462898 150.184296 
L 3389.047864 134.521067 
L 3392.63283 121.91124 
L 3396.217796 54.921928 
L 3399.802763 58.846383 
L 3403.387729 110.505793 
L 3406.972695 121.143959 
L 3410.557661 140.153037 
L 3414.142628 143.662405 
L 3417.727594 100.260702 
L 3421.31256 95.07212 
L 3424.897527 55.745812 
L 3428.482493 110.320262 
L 3432.067459 158.048928 
L 3435.652425 177.061151 
L 3439.237392 154.445222 
L 3442.822358 125.930033 
L 3446.407324 70.591446 
L 3449.99229 67.987721 
L 3453.577257 117.694338 
L 3457.162223 91.587908 
L 3460.747189 114.578044 
L 3464.332155 139.558708 
L 3467.917122 126.464614 
L 3471.502088 105.430416 
L 3475.087054 125.584127 
L 3478.672021 86.531399 
L 3482.256987 112.081235 
L 3485.841953 175.809602 
L 3489.426919 122.169097 
L 3493.011886 122.084193 
L 3496.596852 55.154628 
L 3500.181818 56.667178 
L 3503.766784 51.132691 
L 3507.351751 87.742068 
L 3510.936717 117.750941 
L 3514.521683 145.605765 
L 3518.10665 111.861114 
L 3521.691616 95.924305 
L 3525.276582 73.053664 
L 3528.861548 71.091437 
L 3532.446515 71.305269 
L 3536.031481 70.195227 
L 3539.616447 81.562939 
L 3543.201413 87.468489 
L 3550.371346 54.67665 
L 3553.956312 90.723145 
L 3557.541279 74.116537 
L 3561.126245 124.914328 
L 3564.711211 85.685503 
L 3568.296177 122.005578 
L 3571.881144 78.452934 
L 3575.46611 60.154534 
L 3579.051076 60.182836 
L 3582.636042 32.80599 
L 3586.221009 136.857501 
L 3589.805975 65.764492 
L 3593.390941 117.260384 
L 3596.975907 116.6692 
L 3600.560874 71.60715 
L 3604.14584 78.723369 
L 3607.730806 83.119513 
L 3611.315773 97.685278 
L 3614.900739 101.980796 
L 3618.485705 116.999382 
L 3622.070671 75.509593 
L 3625.655638 68.736135 
L 3629.240604 36.158128 
L 3632.82557 63.305419 
L 3636.410536 134.678297 
L 3639.995503 129.885934 
L 3643.580469 141.891998 
L 3647.165435 88.176022 
L 3650.750402 116.908189 
L 3654.335368 104.999607 
L 3657.920334 73.890126 
L 3661.5053 113.490014 
L 3665.090267 83.305044 
L 3668.675233 104.229181 
L 3672.260199 81.877398 
L 3675.845165 73.971886 
L 3679.430132 91.811175 
L 3683.015098 77.660496 
L 3686.600064 85.172934 
L 3690.185031 125.458343 
L 3693.769997 106.700833 
L 3697.354963 103.549949 
L 3700.939929 69.981394 
L 3704.524896 48.054132 
L 3708.109862 31.894057 
L 3711.694828 30.793449 
L 3715.279794 72.424745 
L 3718.864761 90.13825 
L 3722.449727 100.427365 
L 3726.034693 106.858063 
L 3729.619659 89.990454 
L 3733.204626 29.802901 
L 3736.789592 63.126177 
L 3740.374558 69.729827 
L 3743.959525 109.839139 
L 3747.544491 68.107216 
L 3751.129457 71.522246 
L 3754.714423 53.859055 
L 3758.29939 34.378287 
L 3761.884356 53.318184 
L 3765.469322 110.370576 
L 3769.054288 111.178737 
L 3772.639255 117.414469 
L 3776.224221 102.568835 
L 3779.809187 116.839008 
L 3783.394154 50.170445 
L 3786.97912 94.719925 
L 3790.564086 122.709967 
L 3794.149052 133.429892 
L 3797.734019 99.666373 
L 3801.318985 137.571324 
L 3804.903951 89.135124 
L 3808.488917 58.09168 
L 3812.073884 69.126065 
L 3815.65885 101.273262 
L 3819.243816 116.23839 
L 3822.828783 150.731455 
L 3826.413749 145.998839 
L 3829.998715 98.521741 
L 3833.583681 40.362452 
L 3837.168648 58.097969 
L 3840.753614 71.343004 
L 3844.33858 119.099972 
L 3847.923546 78.713935 
L 3851.508513 118.370426 
L 3855.093479 119.898699 
L 3858.678445 74.707721 
L 3862.263412 101.553131 
L 3865.848378 81.503191 
L 3869.433344 134.948732 
L 3873.01831 133.115433 
L 3876.603277 126.423734 
L 3880.188243 90.282901 
L 3887.358175 37.164399 
L 3890.943142 52.991146 
L 3894.528108 90.958989 
L 3898.113074 137.206551 
L 3901.69804 129.184689 
L 3905.283007 118.911296 
L 3908.867973 117.386168 
L 3912.452939 99.128648 
L 3916.037906 97.738737 
L 3919.622872 85.235826 
L 3923.207838 127.96773 
L 3926.792804 89.663416 
L 3930.377771 77.223397 
L 3933.962737 56.38102 
L 3937.547703 78.978081 
L 3941.132669 79.597567 
L 3944.717636 75.456135 
L 3948.302602 130.367057 
L 3951.887568 138.448666 
L 3955.472535 138.38263 
L 3959.057501 129.750716 
L 3962.642467 85.729527 
L 3966.227433 65.802227 
L 3969.8124 90.782892 
L 3973.397366 107.427234 
L 3976.982332 119.672288 
L 3980.567298 123.543285 
L 3984.152265 111.134712 
L 3987.737231 128.867085 
L 3991.322197 108.08131 
L 3994.907164 114.936528 
L 3998.49213 144.533458 
L 4002.077096 150.681142 
L 4005.662062 121.238297 
L 4009.247029 95.245073 
L 4012.831995 124.7854 
L 4016.416961 86.779822 
L 4020.001927 97.553205 
L 4023.586894 104.263772 
L 4027.17186 127.961441 
L 4030.756826 155.850856 
L 4034.341792 167.922957 
L 4037.926759 150.800636 
L 4041.511725 118.096846 
L 4045.096691 144.769303 
L 4048.681658 120.603088 
L 4052.266624 133.499073 
L 4055.85159 166.794048 
L 4059.436556 130.15008 
L 4063.021523 114.750997 
L 4066.606489 70.770688 
L 4070.191455 113.662967 
L 4073.776421 119.980459 
L 4077.361388 206.035452 
L 4080.946354 211.68 
L 4084.53132 163.083425 
L 4088.116287 159.857071 
L 4091.701253 90.4873 
L 4095.286219 117.933327 
L 4098.871185 135.967581 
L 4102.456152 171.539242 
L 4106.041118 125.153318 
L 4109.626084 123.137632 
L 4113.21105 103.73548 
L 4116.796017 130.794722 
L 4120.380983 103.200898 
L 4123.965949 162.841292 
L 4127.550916 163.728067 
L 4131.135882 158.649546 
L 4134.720848 139.068152 
L 4138.305814 115.933365 
L 4141.890781 119.203744 
L 4145.475747 51.686139 
L 4149.060713 112.386261 
L 4152.645679 148.873 
L 4156.230646 137.725409 
L 4159.815612 130.712962 
L 4163.400578 150.07109 
L 4166.985544 128.580927 
L 4170.570511 145.549162 
L 4174.155477 136.932971 
L 4177.740443 173.589518 
L 4181.32541 166.970145 
L 4184.910376 144.819616 
L 4188.495342 120.511895 
L 4192.080308 137.256865 
L 4195.665275 68.295891 
L 4202.835207 127.200449 
L 4206.420173 205.475714 
L 4210.00514 178.152326 
L 4213.590106 186.837698 
L 4217.175072 132.892167 
L 4220.760039 114.56861 
L 4224.345005 99.141226 
L 4227.929971 115.335891 
L 4231.514937 111.389424 
L 4235.099904 107.990117 
L 4238.68487 129.656378 
L 4242.269836 100.980814 
L 4245.854802 97.012335 
L 4249.439769 114.433393 
L 4253.024735 133.231783 
L 4256.609701 149.885559 
L 4260.194668 159.221862 
L 4263.779634 150.467309 
L 4270.949566 64.085278 
L 4274.534533 83.468563 
L 4278.119499 72.475058 
L 4281.704465 108.66306 
L 4285.289431 126.197323 
L 4288.874398 152.382368 
L 4292.459364 135.552494 
L 4296.04433 143.678128 
L 4299.629296 119.971025 
L 4303.214263 109.056135 
L 4306.799229 127.15328 
L 4310.384195 133.800955 
L 4313.969162 108.106467 
L 4317.554128 85.116331 
L 4321.139094 39.598315 
L 4324.72406 71.446776 
L 4328.309027 87.965335 
L 4331.893993 129.914235 
L 4335.478959 168.52672 
L 4339.063925 175.359925 
L 4342.648892 123.250838 
L 4346.233858 138.404642 
L 4349.818824 108.181937 
L 4353.403791 79.418325 
L 4356.988757 81.28307 
L 4360.573723 64.912307 
L 4364.158689 143.024052 
L 4367.743656 93.487244 
L 4371.328622 93.836294 
L 4374.913588 88.345831 
L 4378.498554 84.292447 
L 4382.083521 119.433299 
L 4385.668487 170.360019 
L 4389.253453 147.42963 
L 4392.83842 135.197155 
L 4396.423386 106.122227 
L 4400.008352 73.453028 
L 4403.593318 35.75562 
L 4407.178285 43.752326 
L 4410.763251 101.439925 
L 4414.348217 139.951783 
L 4417.933183 146.178081 
L 4421.51815 150.262911 
L 4425.103116 106.298325 
L 4428.688082 101.798409 
L 4432.273049 106.339204 
L 4435.858015 124.01183 
L 4439.442981 137.442396 
L 4443.027947 121.628226 
L 4446.612914 65.4689 
L 4450.19788 81.544071 
L 4453.782846 68.868208 
L 4457.367812 72.034815 
L 4460.952779 98.333065 
L 4464.537745 159.574057 
L 4468.122711 183.13022 
L 4471.707677 147.404474 
L 4475.292644 127.769621 
L 4478.87761 55.01941 
L 4482.462576 128.184708 
L 4486.047543 97.153842 
L 4493.217475 78.305138 
L 4496.802441 102.402171 
L 4500.387408 84.053458 
L 4503.972374 71.173196 
L 4507.55734 87.094282 
L 4511.142306 127.486607 
L 4514.727273 137.517866 
L 4518.312239 168.856902 
L 4521.897205 116.622031 
L 4525.482172 72.717192 
L 4529.067138 55.780402 
L 4532.652104 61.959532 
L 4536.23707 77.5127 
L 4539.822037 98.833056 
L 4543.407003 95.002939 
L 4546.991969 131.055723 
L 4550.576935 143.23474 
L 4554.161902 124.543266 
L 4557.746868 123.335742 
L 4561.331834 138.370051 
L 4564.916801 159.860215 
L 4568.501767 154.310005 
L 4572.086733 106.015311 
L 4575.671699 120.527618 
L 4579.256666 72.710903 
L 4582.841632 65.569527 
L 4586.426598 83.031465 
L 4590.011564 112.9743 
L 4593.596531 162.407337 
L 4597.181497 147.70321 
L 4600.766463 120.681703 
L 4604.351429 150.54278 
L 4607.936396 103.553093 
L 4611.521362 80.908863 
L 4615.106328 121.659672 
L 4618.691295 146.473673 
L 4622.276261 98.226149 
L 4625.861227 100.70409 
L 4629.446193 108.27942 
L 4633.03116 112.279345 
L 4636.616126 100.279569 
L 4640.201092 135.983304 
L 4643.786058 152.916949 
L 4647.371025 209.356144 
L 4650.955991 135.829219 
L 4654.540957 104.726027 
L 4658.125924 108.90205 
L 4661.71089 78.814562 
L 4665.295856 92.135068 
L 4668.880822 125.492934 
L 4672.465789 151.498737 
L 4676.050755 142.50205 
L 4679.635721 156.690463 
L 4683.220687 101.744951 
L 4686.805654 153.869761 
L 4690.39062 149.894993 
L 4693.975586 173.580084 
L 4697.560553 149.319532 
L 4701.145519 138.851175 
L 4704.730485 112.364249 
L 4708.315451 72.116575 
L 4711.900418 111.697595 
L 4715.485384 125.021245 
L 4719.07035 149.077398 
L 4722.655316 169.639906 
L 4726.240283 142.976883 
L 4729.825249 134.870117 
L 4733.410215 128.429986 
L 4736.995181 119.338961 
L 4740.580148 129.360786 
L 4744.165114 113.423978 
L 4747.75008 110.018381 
L 4751.335047 140.693907 
L 4754.920013 101.103453 
L 4758.504979 110.83912 
L 4762.089945 114.977408 
L 4765.674912 108.427216 
L 4769.259878 192.359607 
L 4772.844844 137.552457 
L 4776.42981 148.942181 
L 4780.014777 151.960992 
L 4787.184709 91.49357 
L 4790.769676 86.962209 
L 4794.354642 85.034572 
L 4797.939608 112.225887 
L 4801.524574 112.732167 
L 4805.109541 129.819897 
L 4808.694507 131.162639 
L 4812.279473 119.449022 
L 4815.864439 138.401497 
L 4819.449406 155.357155 
L 4823.034372 156.652728 
L 4826.619338 165.643126 
L 4830.204305 124.967787 
L 4833.789271 99.311034 
L 4837.374237 83.896228 
L 4840.959203 92.097333 
L 4844.54417 115.26671 
L 4848.129136 132.423622 
L 4851.714102 169.539279 
L 4855.299068 194.038821 
L 4858.884035 148.253514 
L 4862.469001 140.989499 
L 4866.053967 137.046177 
L 4869.638934 118.326401 
L 4873.2239 105.930407 
L 4876.808866 130.558877 
L 4880.393832 100.134918 
L 4883.978799 118.813814 
L 4887.563765 88.971605 
L 4891.148731 113.546617 
L 4894.733697 154.03328 
L 4898.318664 170.476369 
L 4901.90363 181.866093 
L 4905.488596 177.570576 
L 4912.658529 122.455255 
L 4916.243495 93.487244 
L 4919.828461 68.987702 
L 4923.413428 136.882658 
L 4926.998394 140.932897 
L 4930.58336 133.439326 
L 4934.168326 104.037361 
L 4937.753293 151.369808 
L 4941.338259 134.800936 
L 4944.923225 153.17795 
L 4948.508191 165.504764 
L 4952.093158 171.988919 
L 4955.678124 151.096228 
L 4959.26309 106.612784 
L 4962.848057 104.059373 
L 4966.433023 66.981451 
L 4970.017989 61.833748 
L 4973.602955 72.625999 
L 4977.187922 164.416734 
L 4980.772888 144.083781 
L 4984.357854 136.404679 
L 4987.94282 121.945831 
L 4991.527787 137.071334 
L 4995.112753 116.989949 
L 4998.697719 137.885784 
L 5002.282686 118.216341 
L 5005.867652 156.721909 
L 5009.452618 135.810351 
L 5013.037584 88.977894 
L 5016.622551 82.647824 
L 5020.207517 108.053009 
L 5023.792483 131.159495 
L 5027.377449 158.313074 
L 5030.962416 171.312831 
L 5034.547382 166.948133 
L 5038.132348 140.549256 
L 5041.717314 115.065456 
L 5045.302281 113.625232 
L 5048.887247 127.533776 
L 5052.472213 129.131231 
L 5056.05718 94.974637 
L 5059.642146 119.140852 
L 5063.227112 117.688049 
L 5066.812078 119.442733 
L 5070.397045 93.235676 
L 5073.982011 155.498662 
L 5077.566977 180.542218 
L 5081.151943 130.517997 
L 5084.73691 161.37591 
L 5088.321876 122.486701 
L 5095.491809 85.770407 
L 5099.076775 99.873917 
L 5102.661741 88.191745 
L 5106.246707 115.552869 
L 5109.831674 147.366738 
L 5113.41664 162.051998 
L 5117.001606 146.036575 
L 5120.586572 150.042789 
L 5124.171539 124.093589 
L 5127.756505 131.074591 
L 5131.341471 115.332747 
L 5134.926438 126.084118 
L 5138.511404 88.116275 
L 5142.09637 97.455723 
L 5145.681336 85.465381 
L 5149.266303 91.940103 
L 5152.851269 137.989555 
L 5156.436235 142.115264 
L 5160.021201 145.744127 
L 5163.606168 149.533365 
L 5167.191134 112.51519 
L 5170.7761 90.861507 
L 5174.361066 78.685634 
L 5177.946033 94.773383 
L 5181.530999 84.025157 
L 5185.115965 117.232082 
L 5188.700932 114.587478 
L 5192.285898 121.059055 
L 5195.870864 108.58759 
L 5199.45583 109.219654 
L 5203.040797 130.527431 
L 5206.625763 134.646851 
L 5210.210729 142.307085 
L 5213.795695 136.410969 
L 5217.380662 111.263641 
L 5220.965628 89.320655 
L 5224.550594 107.531006 
L 5228.135561 104.996462 
L 5231.720527 109.229088 
L 5235.305493 146.357323 
L 5238.890459 144.737857 
L 5242.475426 162.397904 
L 5246.060392 140.297688 
L 5249.645358 130.021151 
L 5253.230324 120.546486 
L 5256.815291 144.307047 
L 5260.400257 120.143978 
L 5263.985223 125.247656 
L 5267.57019 112.628395 
L 5271.155156 77.585026 
L 5274.740122 63.99723 
L 5278.325088 105.326645 
L 5281.910055 135.800917 
L 5285.495021 141.926589 
L 5289.079987 190.727562 
L 5292.664953 170.375742 
L 5296.24992 117.370445 
L 5299.834886 97.292204 
L 5303.419852 82.078652 
L 5307.004819 73.597679 
L 5310.589785 142.715882 
L 5314.174751 154.492391 
L 5317.759717 87.735779 
L 5321.344684 135.502181 
L 5324.92965 117.794965 
L 5328.514616 114.810744 
L 5332.099582 142.976883 
L 5335.684549 147.479944 
L 5339.269515 133.99592 
L 5342.854481 130.018007 
L 5346.439447 92.987253 
L 5350.024414 88.455891 
L 5353.60938 42.812092 
L 5357.194346 80.707609 
L 5360.779313 79.792532 
L 5364.364279 124.533832 
L 5367.949245 138.700234 
L 5371.534211 165.658849 
L 5375.119178 106.207131 
L 5378.704144 109.468077 
L 5382.28911 124.04642 
L 5385.874076 133.653159 
L 5389.459043 126.558952 
L 5396.628975 62.000412 
L 5400.213942 56.777239 
L 5403.798908 56.028825 
L 5407.383874 42.928442 
L 5410.96884 103.204043 
L 5414.553807 157.655854 
L 5418.138773 119.166008 
L 5421.723739 116.9019 
L 5425.308705 98.194703 
L 5428.893672 105.524754 
L 5432.478638 75.525316 
L 5436.063604 81.795639 
L 5439.648571 84.754703 
L 5443.233537 77.022143 
L 5446.818503 73.852391 
L 5450.403469 104.619111 
L 5453.988436 84.610051 
L 5457.573402 63.965784 
L 5461.158368 105.942985 
L 5464.743334 129.791596 
L 5468.328301 149.718896 
L 5471.913267 138.420365 
L 5475.498233 75.537894 
L 5479.083199 74.314647 
L 5482.668166 83.751577 
L 5486.253132 85.242115 
L 5489.838098 109.858007 
L 5493.423065 111.518353 
L 5497.008031 154.49868 
L 5500.592997 142.105831 
L 5504.177963 126.983472 
L 5507.76293 131.665774 
L 5511.347896 131.499111 
L 5514.932862 146.429649 
L 5518.517828 146.275564 
L 5522.102795 126.53065 
L 5525.687761 77.918353 
L 5529.272727 66.880824 
L 5532.857694 61.887206 
L 5536.44266 91.597342 
L 5540.027626 98.301619 
L 5543.612592 123.096752 
L 5547.197559 140.609003 
L 5550.782525 160.552026 
L 5554.367491 116.546561 
L 5557.952457 119.593673 
L 5561.537424 110.313973 
L 5565.12239 49.752213 
L 5568.707356 94.754516 
L 5572.292323 87.29868 
L 5575.877289 117.033973 
L 5579.462255 77.622761 
L 5583.047221 85.311296 
L 5586.632188 80.490632 
L 5590.217154 153.64964 
L 5593.80212 156.841404 
L 5597.387086 155.372878 
L 5600.972053 123.829443 
L 5604.557019 85.223248 
L 5608.141985 85.345887 
L 5611.726951 61.318035 
L 5615.311918 68.868208 
L 5618.896884 103.625419 
L 5622.48185 113.747871 
L 5626.066817 99.084623 
L 5629.651783 137.171961 
L 5633.236749 105.606514 
L 5636.821715 116.829574 
L 5640.406682 123.659635 
L 5643.991648 156.181039 
L 5647.576614 136.719139 
L 5651.16158 105.147403 
L 5654.746547 89.547066 
L 5658.331513 60.522452 
L 5661.916479 63.594722 
L 5665.501446 77.254843 
L 5669.086412 134.436163 
L 5672.671378 132.511671 
L 5676.256344 131.200374 
L 5679.841311 145.901357 
L 5687.011243 87.751502 
L 5690.596209 88.242059 
L 5694.181176 124.876593 
L 5697.766142 133.335555 
L 5701.351108 122.552737 
L 5704.936075 84.003145 
L 5708.521041 87.135161 
L 5712.106007 81.606963 
L 5715.690973 122.159663 
L 5719.27594 114.188114 
L 5722.860906 152.838334 
L 5726.445872 156.671596 
L 5730.030838 141.832251 
L 5733.615805 113.719569 
L 5737.200771 92.553299 
L 5740.785737 64.34628 
L 5744.370704 76.198259 
L 5747.95567 115.534001 
L 5751.540636 109.725934 
L 5755.125602 113.813907 
L 5758.710569 93.82686 
L 5762.295535 117.911315 
L 5765.880501 133.322976 
L 5769.465467 105.204006 
L 5773.050434 142.171867 
L 5776.6354 118.342124 
L 5780.220366 118.392438 
L 5787.390299 67.84307 
L 5790.975265 77.720243 
L 5794.560231 100.829874 
L 5798.145198 140.354291 
L 5801.730164 128.216153 
L 5805.31513 150.89183 
L 5808.900096 138.005278 
L 5812.485063 106.37694 
L 5816.070029 102.112869 
L 5819.654995 116.600019 
L 5823.239961 116.417632 
L 5826.824928 90.13825 
L 5830.409894 114.414525 
L 5833.99486 76.386935 
L 5837.579827 59.424988 
L 5841.164793 69.424801 
L 5844.749759 84.490557 
L 5848.334725 102.546823 
L 5851.919692 123.54014 
L 5855.504658 108.490108 
L 5859.089624 108.77941 
L 5862.67459 72.047394 
L 5866.259557 31.916069 
L 5869.844523 63.380889 
L 5873.429489 82.1384 
L 5877.014456 117.650314 
L 5880.599422 97.191577 
L 5884.184388 103.317248 
L 5887.769354 75.861788 
L 5891.354321 89.600524 
L 5894.939287 60.824333 
L 5898.524253 64.192195 
L 5902.109219 120.172279 
L 5905.694186 122.731979 
L 5909.279152 88.600543 
L 5912.864118 73.170014 
L 5916.449084 84.034591 
L 5920.034051 57.890426 
L 5923.619017 87.977913 
L 5927.203983 83.679251 
L 5930.78895 166.65883 
L 5934.373916 173.403987 
L 5937.958882 132.187777 
L 5941.543848 110.710192 
L 5945.128815 107.222836 
L 5948.713781 96.292223 
L 5952.298747 97.024913 
L 5955.883713 117.838989 
L 5959.46868 72.034815 
L 5963.053646 103.848685 
L 5966.638612 52.440842 
L 5970.223579 65.751914 
L 5973.808545 109.75109 
L 5977.393511 140.693907 
L 5980.978477 152.118222 
L 5984.563444 147.137183 
L 5988.14841 115.046589 
L 5991.733376 90.924399 
L 5995.318342 65.280225 
L 5998.903309 52.745868 
L 6002.488275 91.757716 
L 6006.073241 77.025288 
L 6009.658208 81.673 
L 6013.243174 113.002602 
L 6016.82814 89.836369 
L 6020.413106 69.154366 
L 6023.998073 102.185194 
L 6027.583039 104.288928 
L 6031.168005 99.760711 
L 6034.752971 88.00307 
L 6038.337938 78.575573 
L 6041.922904 87.405597 
L 6045.50787 46.406364 
L 6049.092836 38.636069 
L 6052.677803 72.298961 
L 6056.262769 87.433898 
L 6063.432702 100.848741 
L 6067.017668 77.217108 
L 6070.602634 101.971362 
L 6074.1876 66.277061 
L 6077.772567 81.037791 
L 6081.357533 111.376846 
L 6084.942499 79.616434 
L 6088.527465 103.917866 
L 6092.112432 69.399644 
L 6095.697398 82.657258 
L 6099.282364 83.012597 
L 6102.867331 64.15446 
L 6106.452297 105.748021 
L 6110.037263 121.291755 
L 6113.622229 135.297782 
L 6117.207196 132.300983 
L 6124.377128 56.742649 
L 6127.962094 54.248985 
L 6131.547061 77.361759 
L 6135.132027 70.99081 
L 6138.716993 112.659841 
L 6142.30196 109.571848 
L 6145.886926 86.081722 
L 6149.471892 75.575629 
L 6153.056858 107.166233 
L 6156.641825 128.920543 
L 6160.226791 152.558465 
L 6163.811757 171.624146 
L 6167.396723 154.454656 
L 6170.98169 105.770033 
L 6174.566656 93.399195 
L 6178.151622 66.446869 
L 6181.736588 70.978231 
L 6185.321555 69.075751 
L 6188.906521 112.144127 
L 6192.491487 106.515302 
L 6196.076454 97.062649 
L 6199.66142 122.228844 
L 6203.246386 98.034328 
L 6206.831352 135.395264 
L 6210.416319 147.376172 
L 6214.001285 128.621806 
L 6217.586251 115.917642 
L 6221.171217 104.672569 
L 6224.756184 100.43051 
L 6228.34115 76.15109 
L 6231.926116 107.955526 
L 6235.511083 142.049228 
L 6239.096049 164.558241 
L 6242.681015 158.740739 
L 6246.265981 158.605522 
L 6249.850948 130.719251 
L 6253.435914 94.99036 
L 6257.02088 124.502387 
L 6260.605846 104.323519 
L 6264.190813 134.121703 
L 6267.775779 157.957735 
L 6271.360745 135.395264 
L 6274.945712 74.883818 
L 6278.530678 113.697557 
L 6282.115644 117.376734 
L 6285.70061 132.433056 
L 6289.285577 141.816528 
L 6292.870543 155.78482 
L 6296.455509 96.990323 
L 6300.040475 64.777089 
L 6303.625442 115.88934 
L 6307.210408 103.197754 
L 6310.795374 110.791951 
L 6314.380341 141.788226 
L 6317.965307 122.134506 
L 6321.550273 132.389031 
L 6325.135239 110.166177 
L 6328.720206 97.056359 
L 6332.305172 92.128779 
L 6335.890138 119.971025 
L 6339.475104 130.678372 
L 6343.060071 159.04262 
L 6346.645037 98.490295 
L 6350.230003 114.276163 
L 6353.814969 77.767412 
L 6357.399936 63.387178 
L 6360.984902 98.474572 
L 6364.569868 111.65986 
L 6368.154835 129.4111 
L 6371.739801 140.646738 
L 6375.324767 123.23197 
L 6378.909733 70.887038 
L 6382.4947 104.870679 
L 6386.079666 64.349424 
L 6389.664632 100.965091 
L 6393.249598 105.332934 
L 6396.834565 100.002845 
L 6400.419531 86.591146 
L 6404.004497 97.477735 
L 6407.589464 69.229836 
L 6411.17443 122.433243 
L 6414.759396 115.206963 
L 6418.344362 157.87912 
L 6421.929329 132.150042 
L 6425.514295 124.304277 
L 6429.099261 109.763669 
L 6432.684227 70.453084 
L 6436.269194 66.94686 
L 6439.85416 100.443088 
L 6443.439126 140.137314 
L 6447.024093 110.892578 
L 6450.609059 122.511858 
L 6454.194025 73.342967 
L 6457.778991 97.911689 
L 6461.363958 110.172466 
L 6464.948924 125.536958 
L 6468.53389 169.831727 
L 6472.118856 127.514909 
L 6475.703823 113.181844 
L 6479.288789 57.522508 
L 6482.873755 103.483912 
L 6486.458721 78.619598 
L 6490.043688 136.983285 
L 6493.628654 146.014562 
L 6497.21362 139.832288 
L 6500.798587 183.765428 
L 6504.383553 151.989293 
L 6507.968519 112.678708 
L 6511.553485 147.822705 
L 6515.138452 133.75693 
L 6518.723418 129.348208 
L 6522.308384 121.040187 
L 6525.89335 126.766495 
L 6529.478317 78.151053 
L 6533.063283 105.021619 
L 6536.648249 103.744913 
L 6540.233216 87.971624 
L 6543.818182 128.297913 
L 6547.403148 158.885391 
L 6550.988114 176.284436 
L 6554.573081 89.584801 
L 6558.158047 111.452316 
L 6561.743013 107.92408 
L 6565.327979 93.606738 
L 6568.912946 117.247805 
L 6572.497912 166.992157 
L 6576.082878 136.039906 
L 6579.667845 109.505812 
L 6583.252811 120.713149 
L 6586.837777 81.509481 
L 6590.422743 110.637866 
L 6594.00771 123.052728 
L 6597.592676 165.954441 
L 6601.177642 151.206289 
L 6604.762608 141.602695 
L 6608.347575 108.74482 
L 6611.932541 65.660721 
L 6615.517507 57.142012 
L 6619.102473 74.541058 
L 6622.68744 119.754048 
L 6626.272406 127.131268 
L 6629.857372 130.228694 
L 6633.442339 107.329752 
L 6637.027305 101.90847 
L 6640.612271 91.647656 
L 6644.197237 80.490632 
L 6647.782204 113.012036 
L 6651.36717 127.873393 
L 6654.952136 93.572148 
L 6658.537102 84.367918 
L 6662.122069 84 
L 6665.707035 60.805466 
L 6669.292001 53.730126 
L 6672.876968 118.568535 
L 6676.461934 163.111727 
L 6680.0469 112.681853 
L 6683.631866 115.530856 
L 6687.216833 85.811287 
L 6690.801799 83.286177 
L 6694.386765 93.82686 
L 6697.971731 116.857876 
L 6701.556698 77.713954 
L 6705.141664 108.622181 
L 6708.72663 121.147103 
L 6712.311597 125.238222 
L 6715.896563 86.282976 
L 6719.481529 128.854506 
L 6723.066495 142.96745 
L 6726.651462 142.671858 
L 6730.236428 166.294057 
L 6733.821394 133.458194 
L 6737.40636 104.672569 
L 6740.991327 80.886851 
L 6744.576293 106.518446 
L 6748.161259 93.870884 
L 6751.746226 167.419822 
L 6755.331192 183.450969 
L 6758.916158 135.011624 
L 6762.501124 139.697071 
L 6766.086091 175.309612 
L 6769.671057 136.00846 
L 6773.256023 99.716687 
L 6776.840989 147.731511 
L 6780.425956 135.910978 
L 6784.010922 134.876406 
L 6787.595888 114.228994 
L 6791.180854 108.266841 
L 6794.765821 80.89314 
L 6798.350787 105.068788 
L 6801.935753 153.083613 
L 6805.52072 157.420009 
L 6809.105686 176.014001 
L 6812.690652 139.954927 
L 6816.275618 105.766888 
L 6819.860585 130.785288 
L 6823.445551 86.113168 
L 6827.030517 110.037248 
L 6830.615483 135.341806 
L 6834.20045 143.696996 
L 6837.785416 101.109743 
L 6841.370382 79.877436 
L 6844.955349 86.64146 
L 6848.540315 109.848573 
L 6852.125281 148.212635 
L 6855.710247 149.800655 
L 6859.295214 122.382929 
L 6862.88018 120.417557 
L 6866.465146 83.669818 
L 6870.050112 100.694656 
L 6873.635079 92.773421 
L 6877.220045 106.515302 
L 6880.805011 129.819897 
L 6884.389978 142.26306 
L 6887.974944 123.659635 
L 6891.55991 120.505606 
L 6895.144876 117.71635 
L 6898.729843 103.713467 
L 6902.314809 105.600225 
L 6905.899775 142.335386 
L 6909.484741 149.41387 
L 6913.069708 103.987047 
L 6916.654674 80.669874 
L 6920.23964 81.660421 
L 6923.824606 87.669743 
L 6927.409573 113.184988 
L 6930.994539 147.659186 
L 6934.579505 155.508095 
L 6938.164472 153.95781 
L 6941.749438 127.546355 
L 6945.334404 110.964904 
L 6948.91937 71.440487 
L 6952.504337 75.987571 
L 6956.089303 102.562546 
L 6959.674269 115.486832 
L 6963.259235 109.254244 
L 6966.844202 117.467927 
L 6970.429168 88.73576 
L 6974.014134 112.867384 
L 6977.599101 116.964792 
L 6981.184067 134.212897 
L 6984.769033 154.036425 
L 6988.353999 166.240599 
L 6991.938966 137.785157 
L 6995.523932 142.388844 
L 6999.108898 105.748021 
L 7002.693864 83.770445 
L 7006.278831 74.537913 
L 7009.863797 163.702911 
L 7013.448763 145.064895 
L 7017.03373 148.706336 
L 7020.618696 153.281722 
L 7024.203662 116.254113 
L 7027.788628 101.921048 
L 7031.373595 149.904427 
L 7034.958561 153.665363 
L 7038.543527 146.184371 
L 7042.128493 169.319158 
L 7045.71346 109.993224 
L 7049.298426 102.367581 
L 7052.883392 97.040636 
L 7056.468358 95.685316 
L 7060.053325 147.388751 
L 7063.638291 130.250707 
L 7067.223257 168.161947 
L 7070.808224 159.680973 
L 7074.39319 106.084492 
L 7077.978156 104.109686 
L 7081.563122 99.012298 
L 7085.148089 127.452017 
L 7088.733055 147.539691 
L 7092.318021 151.759738 
L 7095.902987 125.310547 
L 7099.487954 86.40876 
L 7103.07292 109.090725 
L 7106.657886 141.813383 
L 7110.242853 126.986617 
L 7113.827819 134.282078 
L 7117.412785 157.957735 
L 7120.997751 146.461095 
L 7124.582718 122.062181 
L 7128.167684 64.591558 
L 7131.75265 76.77372 
L 7135.337616 66.189013 
L 7138.922583 119.73518 
L 7142.507549 159.913673 
L 7146.092515 123.360898 
L 7149.677482 133.187759 
L 7153.262448 132.643744 
L 7156.847414 121.206851 
L 7160.43238 155.020683 
L 7164.017347 151.97986 
L 7167.602313 146.420215 
L 7171.187279 132.483369 
L 7174.772245 77.500122 
L 7178.357212 100.707234 
L 7181.942178 86.83328 
L 7185.527144 102.109724 
L 7189.112111 118.810669 
L 7192.697077 154.133907 
L 7196.282043 179.473056 
L 7199.867009 141.772504 
L 7203.451976 108.037286 
L 7207.036942 85.305007 
L 7210.621908 126.128142 
L 7214.206874 130.414226 
L 7217.791841 145.986261 
L 7221.376807 126.1816 
L 7224.961773 88.962171 
L 7228.546739 102.609715 
L 7232.131706 97.647543 
L 7235.716672 127.26963 
L 7239.301638 155.171624 
L 7242.886605 158.819354 
L 7246.471571 174.81591 
L 7250.056537 153.052167 
L 7253.641503 110.335985 
L 7257.22647 48.095012 
L 7260.811436 87.047113 
L 7264.396402 108.729097 
L 7267.981368 136.134244 
L 7271.566335 159.140103 
L 7275.151301 137.681385 
L 7278.736267 135.495891 
L 7282.321234 139.769396 
L 7285.9062 173.916556 
L 7289.491166 159.772167 
L 7293.076132 175.359925 
L 7296.661099 174.642957 
L 7300.246065 154.171642 
L 7303.831031 105.722864 
L 7307.415997 60.497295 
L 7311.000964 109.348582 
L 7314.58593 87.075414 
L 7318.170896 159.014319 
L 7321.755863 168.422948 
L 7325.340829 164.334974 
L 7328.925795 129.845054 
L 7332.510761 133.804099 
L 7336.095728 95.763931 
L 7339.680694 114.637791 
L 7343.26566 158.247038 
L 7346.850626 127.662705 
L 7350.435593 146.143491 
L 7354.020559 95.820533 
L 7357.605525 120.087375 
L 7361.190491 85.921348 
L 7364.775458 123.386055 
L 7368.360424 112.986879 
L 7371.94539 172.054956 
L 7375.530357 172.510922 
L 7379.115323 145.590042 
L 7382.700289 128.304202 
L 7386.285255 81.421432 
L 7389.870222 117.518241 
L 7393.455188 108.637904 
L 7397.040154 129.618643 
L 7400.62512 141.829106 
L 7404.210087 167.834909 
L 7407.795053 131.049434 
L 7411.380019 118.716331 
L 7414.964986 130.716107 
L 7422.134918 198.045035 
L 7425.719884 164.297239 
L 7429.304851 121.225718 
L 7432.889817 173.457445 
L 7436.474783 109.571848 
L 7440.059749 115.213252 
L 7443.644716 95.5784 
L 7450.814648 190.865924 
L 7454.399615 184.416359 
L 7457.984581 153.190529 
L 7461.569547 146.866748 
L 7465.154513 107.106486 
L 7468.73948 122.033879 
L 7472.324446 131.722377 
L 7475.909412 144.851062 
L 7479.494378 117.197492 
L 7483.079345 124.206795 
L 7486.664311 94.864577 
L 7490.249277 131.618606 
L 7493.834243 137.21913 
L 7497.41921 187.117567 
L 7501.004176 174.146111 
L 7504.589142 179.098849 
L 7508.174109 121.662817 
L 7511.759075 119.181731 
L 7515.344041 67.915395 
L 7518.929007 83.421394 
L 7522.513974 70.500253 
L 7526.09894 116.213234 
L 7529.683906 133.263229 
L 7533.268872 151.649677 
L 7536.853839 120.930126 
L 7540.438805 109.760524 
L 7544.023771 114.571755 
L 7547.608738 123.150211 
L 7551.193704 160.401086 
L 7554.77867 125.697333 
L 7558.363636 106.804605 
L 7561.948603 116.839008 
L 7565.533569 68.971979 
L 7569.118535 82.084942 
L 7572.703501 98.17898 
L 7576.288468 146.586879 
L 7579.873434 161.542574 
L 7583.4584 133.212915 
L 7587.043367 115.052878 
L 7590.628333 138.627908 
L 7594.213299 116.442789 
L 7597.798265 114.515152 
L 7601.383232 168.205971 
L 7604.968198 167.237436 
L 7608.553164 71.226654 
L 7612.13813 122.904932 
L 7615.723097 103.053102 
L 7619.308063 108.131624 
L 7622.893029 118.540234 
L 7626.477996 174.686982 
L 7630.062962 160.061469 
L 7633.647928 188.513767 
L 7637.232894 146.895049 
L 7640.817861 133.470772 
L 7644.402827 91.697969 
L 7651.572759 121.904951 
L 7655.157726 169.665063 
L 7658.742692 127.942574 
L 7662.327658 150.159139 
L 7665.912624 102.641161 
L 7669.497591 112.147272 
L 7673.082557 118.011942 
L 7676.667523 138.326027 
L 7680.25249 139.524118 
L 7683.837456 115.103191 
L 7687.422422 134.706598 
L 7691.007388 103.38643 
L 7698.177321 47.871745 
L 7701.762287 63.817988 
L 7705.347253 124.134469 
L 7708.93222 140.47693 
L 7712.517186 125.068414 
L 7716.102152 117.64088 
L 7719.687119 126.021226 
L 7723.272085 69.415367 
L 7726.857051 101.553131 
L 7730.442017 111.574956 
L 7734.026984 94.009247 
L 7737.61195 67.940552 
L 7741.196916 64.940608 
L 7744.781882 62.978381 
L 7748.366849 61.827459 
L 7755.536781 131.480243 
L 7759.121748 126.489771 
L 7762.706714 132.417333 
L 7766.29168 117.203781 
L 7769.876646 88.15401 
L 7773.461613 58.044511 
L 7777.046579 76.1165 
L 7780.631545 73.956163 
L 7784.216511 111.870547 
L 7787.801478 103.342405 
L 7791.386444 77.871184 
L 7794.97141 95.078409 
L 7798.556376 94.270248 
L 7802.141343 95.943173 
L 7805.726309 146.193804 
L 7809.311275 147.948489 
L 7812.896242 147.068002 
L 7816.481208 119.634553 
L 7820.066174 54.415648 
L 7823.65114 33.048124 
L 7827.236107 33.875152 
L 7830.821073 83.701263 
L 7834.406039 90.081647 
L 7837.991005 136.241161 
L 7841.575972 88.405578 
L 7845.160938 105.82978 
L 7848.745904 85.399345 
L 7852.330871 90.131961 
L 7855.915837 94.084717 
L 7859.500803 96.147571 
L 7863.085769 130.439382 
L 7866.670736 112.147272 
L 7870.255702 73.852391 
L 7873.840668 40.233524 
L 7877.425634 75.745438 
L 7881.010601 76.23285 
L 7884.595567 108.43036 
L 7888.180533 115.244698 
L 7891.7655 113.153542 
L 7895.350466 117.225793 
L 7898.935432 91.833187 
L 7902.520398 68.207843 
L 7906.105365 87.64773 
L 7909.690331 60.26774 
L 7913.275297 83.805035 
L 7916.860263 93.116182 
L 7920.44523 109.383173 
L 7924.030196 87.506224 
L 7927.615162 78.625887 
L 7931.200128 74.412129 
L 7934.785095 117.719495 
L 7938.370061 145.174956 
L 7941.955027 148.357286 
L 7945.539994 121.049621 
L 7949.12496 85.921348 
L 7952.709926 104.078241 
L 7956.294892 37.422255 
L 7959.879859 95.716762 
L 7963.464825 132.253814 
L 7967.049791 126.316818 
L 7970.634757 118.892429 
L 7974.219724 116.206944 
L 7977.80469 84.135218 
L 7981.389656 71.754946 
L 7984.974623 154.008124 
L 7988.559589 165.306654 
L 7992.144555 99.96511 
L 7995.729521 107.137932 
L 7999.314488 63.402901 
L 8002.899454 45.15796 
L 8006.48442 42.849827 
L 8010.069386 73.559944 
L 8013.654353 115.477398 
L 8017.239319 117.222649 
L 8020.824285 119.433299 
L 8024.409252 123.037005 
L 8027.994218 101.037417 
L 8031.579184 76.556743 
L 8035.16415 65.292803 
L 8038.749117 100.845597 
L 8042.334083 82.044062 
L 8045.919049 75.386954 
L 8049.504015 98.899092 
L 8053.088982 74.619672 
L 8056.673948 93.631895 
L 8060.258914 86.52511 
L 8063.843881 148.533383 
L 8067.428847 121.672251 
L 8071.013813 107.546729 
L 8074.598779 52.516313 
L 8078.183746 67.695274 
L 8081.768712 61.154516 
L 8085.353678 42.095124 
L 8088.938644 57.088554 
L 8092.523611 78.518971 
L 8096.108577 57.170314 
L 8099.693543 117.304408 
L 8103.278509 74.019055 
L 8106.863476 79.062985 
L 8110.448442 126.430023 
L 8114.033408 81.553505 
L 8117.618375 51.503753 
L 8121.203341 84.427665 
L 8124.788307 82.135255 
L 8128.373273 49.450332 
L 8131.95824 42.173739 
L 8135.543206 10.08 
L 8139.128172 72.11343 
L 8142.713138 104.380122 
L 8146.298105 98.094076 
L 8149.883071 139.77883 
L 8153.468037 113.477436 
L 8157.053004 73.522209 
L 8160.63797 77.462387 
L 8164.222936 76.19197 
L 8167.807902 53.70497 
L 8171.392869 101.056285 
L 8174.977835 63.18278 
L 8178.562801 81.619541 
L 8182.147767 38.853046 
L 8185.732734 82.534619 
L 8189.3177 92.1162 
L 8192.902666 68.113505 
L 8196.487633 139.539841 
L 8200.072599 132.348152 
L 8203.657565 100.930501 
L 8207.242531 67.148114 
L 8210.827498 44.812054 
L 8214.412464 53.214413 
L 8217.99743 36.57007 
L 8221.582396 80.003219 
L 8225.167363 80.883706 
L 8228.752329 98.641235 
L 8232.337295 76.550454 
L 8235.922261 103.644286 
L 8239.507228 81.956013 
L 8243.092194 115.184951 
L 8246.67716 111.078109 
L 8250.262127 103.867553 
L 8253.847093 87.411886 
L 8257.432059 47.459803 
L 8261.017025 44.969284 
L 8264.601992 48.252241 
L 8275.35689 146.891905 
L 8278.941857 117.694338 
L 8282.526823 105.386392 
L 8286.111789 94.534394 
L 8289.696756 107.097052 
L 8293.281722 111.757342 
L 8296.866688 84.616341 
L 8300.451654 100.298437 
L 8304.036621 87.581694 
L 8307.621587 108.848591 
L 8311.206553 57.223772 
L 8314.791519 92.452672 
L 8318.376486 135.942424 
L 8321.961452 142.03036 
L 8325.546418 132.074572 
L 8329.131385 172.602115 
L 8332.716351 116.037136 
L 8336.301317 98.782742 
L 8339.886283 49.258512 
L 8343.47125 59.154553 
L 8347.056216 55.553992 
L 8350.641182 126.665868 
L 8354.226148 121.093645 
L 8357.811115 103.414731 
L 8361.396081 99.77329 
L 8364.981047 84.408797 
L 8368.566013 117.423903 
L 8372.15098 138.986392 
L 8375.735946 120.272906 
L 8379.320912 131.288423 
L 8382.905879 99.112925 
L 8386.490845 112.537202 
L 8390.075811 76.056752 
L 8393.660777 87.927599 
L 8397.245744 108.798278 
L 8400.83071 123.137632 
L 8404.415676 134.102836 
L 8408.000642 131.203519 
L 8411.585609 130.606046 
L 8415.170575 96.732466 
L 8418.755541 109.546692 
L 8422.340508 114.735274 
L 8425.925474 117.788676 
L 8429.51044 123.455236 
L 8433.095406 92.657071 
L 8436.680373 80.31139 
L 8440.265339 74.805204 
L 8443.850305 113.178699 
L 8447.435271 111.581245 
L 8451.020238 162.734375 
L 8454.605204 162.111745 
L 8458.19017 164.136865 
L 8461.775137 124.021263 
L 8465.360103 80.786224 
L 8468.945069 46.192532 
L 8472.530035 73.714029 
L 8476.115002 98.663248 
L 8479.699968 116.096883 
L 8483.284934 107.537295 
L 8486.8699 110.194478 
L 8490.454867 100.134918 
L 8494.039833 94.556406 
L 8497.624799 106.95869 
L 8501.209765 94.197922 
L 8504.794732 110.53095 
L 8508.379698 128.615517 
L 8511.964664 79.191914 
L 8515.549631 51.120112 
L 8519.134597 53.365353 
L 8522.719563 89.685428 
L 8526.304529 118.917585 
L 8529.889496 132.79154 
L 8533.474462 154.413776 
L 8537.059428 140.734787 
L 8540.644394 116.065438 
L 8544.229361 111.408292 
L 8547.814327 116.615742 
L 8551.399293 119.930145 
L 8554.98426 107.046738 
L 8558.569226 139.590154 
L 8562.154192 84.084904 
L 8565.739158 61.777146 
L 8569.324125 119.710023 
L 8572.909091 96.594104 
L 8576.494057 132.090295 
L 8580.079023 118.411306 
L 8583.66399 153.674796 
L 8587.248956 166.548769 
L 8590.833922 119.191165 
L 8594.418889 106.738568 
L 8598.003855 78.257969 
L 8601.588821 89.08481 
L 8605.173787 90.509312 
L 8608.758754 130.181526 
L 8612.34372 124.269686 
L 8615.928686 94.540683 
L 8619.513652 118.279233 
L 8623.098619 76.830323 
L 8626.683585 127.889116 
L 8630.268551 153.020721 
L 8633.853518 122.231989 
L 8637.438484 146.240973 
L 8641.02345 121.593636 
L 8644.608416 122.640786 
L 8648.193383 55.620028 
L 8651.778349 63.88088 
L 8655.363315 115.213252 
L 8658.948281 104.637978 
L 8662.533248 104.471315 
L 8666.118214 124.735087 
L 8669.70318 113.241591 
L 8673.288146 138.627908 
L 8676.873113 90.685409 
L 8680.458079 100.763837 
L 8684.043045 154.237679 
L 8687.628012 146.363613 
L 8691.212978 121.398671 
L 8694.797944 119.439588 
L 8698.38291 93.323725 
L 8701.967877 70.25183 
L 8705.552843 109.468077 
L 8709.137809 151.363519 
L 8712.722775 180.636556 
L 8716.307742 119.904988 
L 8719.892708 142.57752 
L 8723.477674 89.51562 
L 8727.062641 107.351764 
L 8730.647607 66.082096 
L 8734.232573 77.641628 
L 8737.817539 107.367487 
L 8741.402506 80.981189 
L 8744.987472 92.911783 
L 8748.572438 63.695349 
L 8752.157404 71.953056 
L 8755.742371 116.219523 
L 8759.327337 118.279233 
L 8762.912303 112.335948 
L 8766.49727 117.669181 
L 8770.082236 74.622817 
L 8773.667202 51.752176 
L 8777.252168 44.988152 
L 8780.837135 37.488292 
L 8784.422101 83.632082 
L 8788.007067 114.647225 
L 8791.592033 135.794628 
L 8795.177 115.832737 
L 8798.761966 124.433205 
L 8802.346932 94.113018 
L 8805.931898 107.012148 
L 8809.516865 118.423884 
L 8813.101831 95.531231 
L 8816.686797 118.41445 
L 8820.271764 104.232326 
L 8823.85673 73.86497 
L 8827.441696 72.61971 
L 8831.026662 82.195002 
L 8834.611629 159.82248 
L 8838.196595 121.675395 
L 8841.781561 122.741413 
L 8845.366527 172.400861 
L 8848.951494 115.936509 
L 8852.53646 108.219672 
L 8856.121426 93.745101 
L 8859.706393 89.103678 
L 8863.291359 109.886308 
L 8866.876325 118.901862 
L 8870.461291 101.097164 
L 8874.046258 122.018156 
L 8877.631224 155.316275 
L 8881.21619 101.553131 
L 8884.801156 126.779073 
L 8888.386123 158.096097 
L 8891.971089 145.25357 
L 8895.556055 142.605821 
L 8899.141022 101.455648 
L 8902.725988 106.0216 
L 8906.310954 111.669293 
L 8909.89592 87.232644 
L 8913.480887 130.464539 
L 8917.065853 114.486851 
L 8920.650819 164.885278 
L 8924.235785 147.564848 
L 8927.820752 155.177913 
L 8931.405718 91.814319 
L 8934.990684 140.816547 
L 8938.57565 144.074347 
L 8942.160617 168.548732 
L 8945.745583 114.694394 
L 8949.330549 95.763931 
L 8952.915516 102.820402 
L 8956.500482 43.142274 
L 8960.085448 63.984651 
L 8963.670414 104.537351 
L 8967.255381 147.992513 
L 8970.840347 143.47373 
L 8974.425313 123.804286 
L 8978.010279 111.244773 
L 8981.595246 126.942592 
L 8985.180212 126.562096 
L 8988.765178 126.527506 
L 8992.350145 143.0838 
L 8995.935111 122.030735 
L 8999.520077 132.021114 
L 9003.105043 99.263865 
L 9006.69001 110.587553 
L 9010.274976 99.465119 
L 9013.859942 153.80058 
L 9017.444908 114.269874 
L 9021.029875 170.856865 
L 9024.614841 168.231128 
L 9028.199807 131.304146 
L 9031.784774 105.097089 
L 9035.36974 131.511689 
L 9038.954706 106.257445 
L 9042.539672 127.571511 
L 9046.124639 151.744015 
L 9049.709605 133.326121 
L 9053.294571 120.738306 
L 9056.879537 147.228376 
L 9060.464504 179.954179 
L 9064.04947 203.161292 
L 9067.634436 169.290856 
L 9071.219403 177.841011 
L 9074.804369 163.193486 
L 9078.389335 113.832775 
L 9081.974301 120.625101 
L 9085.559268 114.401947 
L 9089.144234 142.096397 
L 9092.7292 150.347815 
L 9096.314166 110.644155 
L 9099.899133 164.256359 
L 9103.484099 158.929415 
L 9107.069065 156.036387 
L 9110.654031 146.84788 
L 9114.238998 102.310978 
L 9117.823964 127.964586 
L 9121.40893 132.848142 
L 9128.578863 102.943042 
L 9132.163829 94.628732 
L 9135.748795 88.672869 
L 9139.333762 93.135049 
L 9142.918728 149.014506 
L 9146.503694 172.470042 
L 9150.08866 176.979392 
L 9153.673627 176.677511 
L 9157.258593 158.240749 
L 9160.843559 98.191558 
L 9164.428526 122.502424 
L 9168.013492 107.527861 
L 9171.598458 115.524567 
L 9175.183424 116.886177 
L 9178.768391 123.109331 
L 9182.353357 152.681104 
L 9185.938323 138.671933 
L 9189.523289 143.332223 
L 9193.108256 160.957679 
L 9196.693222 173.372541 
L 9200.278188 157.118128 
L 9203.863155 127.612391 
L 9207.448121 139.489527 
L 9211.033087 93.974656 
L 9214.618053 98.553187 
L 9218.20302 88.226336 
L 9221.787986 97.682134 
L 9225.372952 176.397642 
L 9228.957918 132.788395 
L 9232.542885 140.083856 
L 9236.127851 153.042733 
L 9239.712817 110.622143 
L 9243.297783 152.08992 
L 9246.88275 131.165784 
L 9250.467716 127.040075 
L 9254.052682 103.876986 
L 9257.637649 112.47431 
L 9261.222615 91.273449 
L 9264.807581 97.619242 
L 9268.392547 117.920749 
L 9271.977514 110.993205 
L 9275.56248 175.146093 
L 9279.147446 139.162489 
L 9282.732412 127.257052 
L 9286.317379 124.939485 
L 9289.902345 91.559607 
L 9293.487311 113.537183 
L 9297.072278 113.244736 
L 9300.657244 79.506373 
L 9304.24221 136.385812 
L 9307.827176 88.242059 
L 9311.412143 110.078128 
L 9314.997109 111.191315 
L 9318.582075 143.50832 
L 9322.167041 153.615049 
L 9325.752008 142.807075 
L 9329.336974 148.835264 
L 9332.92194 161.353898 
L 9336.506907 126.22248 
L 9340.091873 69.783285 
L 9343.676839 107.295161 
L 9347.261805 101.842433 
L 9350.846772 141.376285 
L 9354.431738 147.86044 
L 9358.016704 144.09007 
L 9361.60167 105.996444 
L 9365.186637 144.017745 
L 9368.771603 114.927094 
L 9372.356569 151.067927 
L 9375.941535 136.486439 
L 9379.526502 127.964586 
L 9383.111468 125.455199 
L 9386.696434 88.534506 
L 9390.281401 86.531399 
L 9393.866367 85.660346 
L 9397.451333 69.424801 
L 9401.036299 112.870529 
L 9404.621266 150.611961 
L 9408.206232 133.64058 
L 9411.791198 159.602358 
L 9415.376164 107.23227 
L 9418.961131 115.747833 
L 9422.546097 114.84219 
L 9426.131063 88.638278 
L 9429.71603 97.449434 
L 9433.300996 100.603463 
L 9436.885962 81.943435 
L 9440.470928 109.7165 
L 9444.055895 63.770819 
L 9447.640861 158.778474 
L 9451.225827 122.005578 
L 9454.810793 137.860627 
L 9458.39576 167.627365 
L 9461.980726 123.851455 
L 9465.565692 94.301694 
L 9469.150659 87.110005 
L 9472.735625 93.691642 
L 9476.320591 62.302293 
L 9479.905557 124.908039 
L 9483.490524 127.19416 
L 9487.07549 137.234853 
L 9490.660456 115.455386 
L 9494.245422 131.140627 
L 9497.830389 130.1092 
L 9501.415355 136.216004 
L 9505.000321 126.29795 
L 9508.585288 122.798016 
L 9512.170254 74.575648 
L 9515.75522 88.304951 
L 9519.340186 67.956275 
L 9522.925153 105.128535 
L 9526.510119 115.675508 
L 9530.095085 169.580159 
L 9533.680051 130.656359 
L 9537.265018 171.438615 
L 9540.849984 127.722452 
L 9544.43495 73.886982 
L 9548.019916 101.952494 
L 9551.604883 84.223266 
L 9555.189849 144.942255 
L 9558.774815 126.917436 
L 9562.359782 122.41752 
L 9565.944748 119.656565 
L 9569.529714 95.999775 
L 9573.11468 95.383435 
L 9576.699647 132.039981 
L 9580.284613 135.910978 
L 9583.869579 166.960711 
L 9587.454545 162.325578 
L 9587.454545 162.325578 
" clip-path="url(#pd950d7ba39)" style="fill: none; stroke: #1f77b4; stroke-width: 1.5; stroke-linecap: square"/>
   </g>
  </g>
 </g>
 <defs>
  <clipPath id="pd950d7ba39">
   <rect x="0" y="-0" width="10044" height="221.76"/>
  </clipPath>
 </defs>
</svg>
